<svg width="670" height="405" viewBox="0 0 670 405" fill="none" xmlns="http://www.w3.org/2000/svg">
<path d="M96.2506 200.805L0.234375 216.218L12.5564 292.976L108.573 277.562L96.2506 200.805Z" fill="#F5F5F5"/>
<path d="M96.2505 200.776L95.7868 200.863L94.4439 201.095L89.2368 201.954L69.5867 205.181L0.280164 216.455L0.492699 216.166C4.1638 239.013 8.38557 265.204 12.8392 292.911L12.5204 292.679L108.539 277.309L108.346 277.579C104.684 254.461 101.651 235.294 99.5255 221.885C98.4821 215.18 97.6513 209.925 97.091 206.321C96.8141 204.524 96.6015 203.152 96.4534 202.206C96.3181 201.24 96.2505 200.786 96.2505 200.786C96.2505 200.786 96.3471 201.24 96.5017 202.148C96.6563 203.056 96.8881 204.437 97.1779 206.205C97.7673 209.799 98.6271 215.035 99.7284 221.711C101.912 235.139 105.042 254.335 108.81 277.502V277.734H108.578L12.5687 293.191H12.2982V292.921C7.85423 265.204 3.66144 239.013 0 216.166V215.914H0.251179L69.7606 204.882L89.372 201.8L94.5406 200.998L95.8641 200.795L96.2505 200.776Z" fill="#E0E0E0"/>
<path d="M93.5849 206.182L4.3125 220.513L15.0834 287.608L104.356 273.277L93.5849 206.182Z" fill="#EBEBEB"/>
<path d="M15.1016 287.607L39.582 240.887L63.0867 263.88L73.9455 247.833L104.367 273.27L15.1016 287.607Z" fill="#E0E0E0"/>
<path d="M66.2736 231.361C66.4986 232.752 66.3061 234.178 65.7203 235.459C65.1346 236.741 64.1819 237.819 62.9829 238.559C61.784 239.298 60.3925 239.666 58.9847 239.614C57.5769 239.563 56.2161 239.095 55.0743 238.27C53.9326 237.444 53.0613 236.299 52.5707 234.978C52.0801 233.658 51.9923 232.221 52.3183 230.851C52.6444 229.481 53.3697 228.238 54.4024 227.279C55.4351 226.321 56.7288 225.691 58.1199 225.468C59.9823 225.17 61.887 225.623 63.4157 226.728C64.9444 227.833 65.9722 229.5 66.2736 231.361Z" fill="#E0E0E0"/>
<path d="M547.147 309.865C542.78 307.125 537.842 305.426 532.714 304.899C530.357 304.658 527.787 304.725 525.893 306.155C525.674 306.279 525.492 306.461 525.368 306.681C525.244 306.9 525.181 307.149 525.188 307.401C525.301 307.755 525.538 308.057 525.855 308.252C531.728 312.734 540.607 313.295 547.108 309.865" fill="#E0E0E0"/>
<path d="M546.78 309.46C543.437 307.006 540.318 304.261 537.458 301.258C534.608 298.228 532.608 294.499 531.661 290.448C531.472 289.848 531.416 289.214 531.496 288.59C531.576 287.966 531.791 287.367 532.125 286.834C539.554 292.631 545.389 300.137 546.829 309.46" fill="#E0E0E0"/>
<path d="M547.072 309.808C546.38 305.752 546.439 301.603 547.246 297.568C548.081 293.506 550.408 289.904 553.767 287.472C555.052 290.477 554.501 293.935 553.593 297.065C552.189 301.922 550.006 306.519 547.13 310.677" fill="#E0E0E0"/>
<path d="M554.375 322.859C549.95 323.4 546.105 325.758 542.782 328.714C539.461 331.735 537.151 335.705 536.164 340.085C540.502 339.814 544.183 336.752 546.849 333.322C549.515 329.892 551.36 326.134 554.297 322.927" fill="#E0E0E0"/>
<path d="M555.942 324.946C554.197 320.529 553.582 315.746 554.152 311.031C554.722 306.316 556.459 301.818 559.207 297.944C561.728 306.909 560.801 317.024 555.913 324.946" fill="#E0E0E0"/>
<path d="M565.561 336.404C561.52 336.156 557.495 337.1 553.986 339.12C550.477 341.14 547.639 344.146 545.824 347.765C545.583 348.257 545.36 348.876 545.689 349.31C545.86 349.477 546.069 349.599 546.298 349.666C546.527 349.733 546.769 349.744 547.003 349.697C550.867 349.446 554.335 347.108 557.185 344.441C560.035 341.775 562.508 338.703 565.648 336.394" fill="#E0E0E0"/>
<path d="M565.251 335.785C563.184 329.112 563.057 321.989 564.884 315.246C565.608 312.609 566.816 309.827 569.27 308.58C569.359 308.507 569.466 308.457 569.58 308.436C569.694 308.415 569.812 308.424 569.921 308.462C570.031 308.5 570.129 308.566 570.206 308.652C570.283 308.739 570.337 308.844 570.361 308.957C571.181 310.808 571.536 312.831 571.395 314.85C571.237 316.86 570.914 318.854 570.429 320.811C569.666 324.453 569.25 328.375 567.251 331.515C566.782 332.271 566.359 333.055 565.985 333.863C565.608 334.665 565.599 334.945 565.261 335.582" fill="#E0E0E0"/>
<path d="M590.727 339.582C588.794 332.394 590.843 323.699 595.364 317.806C595.702 317.372 596.137 316.908 596.687 316.966C597.518 317.043 597.731 318.154 597.702 318.985C597.354 326.369 594.937 333.506 590.727 339.582Z" fill="#E0E0E0"/>
<path d="M593.016 341.147C601.71 343.417 611.738 341.214 618.994 335.862C614.654 333.664 609.686 333.04 604.937 334.094C600.242 335.176 595.943 337.273 593.025 341.108" fill="#E0E0E0"/>
<path d="M594.949 336.365C599.837 328.405 609.199 323.207 618.531 322.734C617.459 326.531 614.338 329.496 610.802 331.255C607.267 333.013 603.354 333.815 599.48 334.568C597.973 334.858 595.905 335.187 594.93 336.365" fill="#E0E0E0"/>
<path d="M591.213 313.169C592.695 308.685 593.705 304.058 594.227 299.364C594.595 294.659 593.928 289.703 591.484 285.704C586.914 294.534 586.46 304.851 591.078 313.643" fill="#E0E0E0"/>
<path d="M606.547 305.412C611.889 295.751 622.777 287.964 633.79 286.882C629.54 297.461 617.947 305.634 606.547 305.412Z" fill="#E0E0E0"/>
<path d="M603.219 307.305C611.179 308.522 617.951 313.604 625.439 316.686C626.998 317.437 628.726 317.77 630.453 317.652C631.257 317.646 632.039 317.392 632.694 316.926C633.349 316.459 633.844 315.802 634.112 315.044C634.38 314.286 634.408 313.464 634.193 312.689C633.977 311.915 633.528 311.225 632.906 310.715C631.856 309.742 630.621 308.989 629.274 308.503C621.169 305.131 612.483 305.044 603.953 307.092" fill="#E0E0E0"/>
<path d="M598.609 312.889C600.416 313.401 601.025 314.338 602.474 315.555C607.34 319.691 613.096 322.647 619.293 324.192C619.931 324.347 620.771 324.414 621.09 323.835C621.409 323.255 621.022 322.714 620.655 322.26C617.956 319.088 614.447 316.707 610.502 315.372C606.637 313.923 603.266 312.184 598.629 312.56" fill="#E0E0E0"/>
<path d="M593.414 279.182C596.68 282.188 600.537 284.479 604.74 285.908C608.942 287.337 613.396 287.873 617.817 287.481C618.223 287.484 618.616 287.344 618.928 287.085C619.537 286.418 618.803 285.384 618.088 284.824C610.91 279.231 602.225 276.912 593.414 279.182Z" fill="#E0E0E0"/>
<path d="M599.578 276.922C603.896 273.744 608.905 271.631 614.196 270.758C619.487 269.885 624.909 270.276 630.019 271.899C626.042 275.592 620.938 277.838 615.528 278.275C610.176 278.759 604.781 278.301 599.588 276.922" fill="#E0E0E0"/>
<path d="M597.134 261.435C596.429 254.276 596.883 248.625 596.391 241.428C596.391 240.858 596.226 240.162 595.685 239.959C594.941 239.669 594.314 240.587 594.072 241.35C593.027 244.685 592.758 248.215 593.288 251.669C593.817 255.124 595.129 258.411 597.125 261.28" fill="#E0E0E0"/>
<path d="M596.617 262.228C601.293 259.206 605.324 255.289 608.481 250.703C610.819 247.495 612.799 243.65 612.268 239.718C610.618 239.762 608.997 240.165 607.519 240.899C606.041 241.633 604.74 242.681 603.708 243.969C601.666 246.561 600.182 249.548 599.351 252.741C598.385 255.89 597.738 259.127 596.617 262.228Z" fill="#E0E0E0"/>
<path d="M608.258 258.991C618.937 255.036 628.824 249.206 637.453 241.776C633.966 240.375 629.976 241.215 626.488 242.616C618.518 245.833 611.997 251.262 608.133 258.914" fill="#E0E0E0"/>
<path d="M599.883 266.141C605.274 266.73 610.751 267.107 616.094 266.218C621.436 265.329 626.315 263.262 631.222 261.194C631.652 261.07 632.02 260.791 632.256 260.412C632.332 260.183 632.336 259.937 632.269 259.706C632.202 259.475 632.066 259.269 631.879 259.117C631.504 258.819 631.064 258.614 630.595 258.518C625.252 257.021 619.494 257.716 614.239 259.484C609.236 261.196 604.424 263.423 599.883 266.131" fill="#E0E0E0"/>
<path d="M569.124 279.424C565.444 272.005 565.685 263.349 568.864 255.697C571.095 259.108 571.366 263.426 570.96 267.493C570.554 271.56 569.318 275.724 569.24 279.791" fill="#E0E0E0"/>
<path d="M554.44 272.014C549.837 271.955 545.272 272.856 541.036 274.661C536.801 276.466 532.989 279.135 529.844 282.496C534.483 283.051 539.181 282.178 543.311 279.994C547.428 277.819 551.312 275.229 554.904 272.266" fill="#E0E0E0"/>
<path d="M544.567 268.72C540.075 268.353 535.757 267.754 531.438 269.116C529.259 269.728 527.236 270.802 525.509 272.266C523.782 273.729 522.391 275.548 521.43 277.598C525.666 277.94 529.916 277.139 533.738 275.279C537.534 273.417 541.158 271.222 544.567 268.72Z" fill="#E0E0E0"/>
<path d="M559.208 268.865C555.17 266.218 551.026 263.523 546.321 262.431C541.616 261.339 536.167 262.141 532.883 265.687C536.689 267.918 541.307 268.189 545.722 268.179C550.137 268.169 555.547 268.179 559.711 269.599" fill="#E0E0E0"/>
<path d="M559.207 269.077C552.31 262.315 549.691 250.123 552.445 240.849C557.905 249.189 560.296 259.168 559.207 269.077Z" fill="#E0E0E0"/>
<path d="M578.195 249.872C579.5 246.838 580.408 243.66 581.577 240.578C582.644 237.451 584.282 234.549 586.407 232.019C588.568 229.48 591.637 227.888 594.957 227.584C593.897 232.257 591.873 236.658 589.015 240.504C586.157 244.35 582.528 247.557 578.36 249.92" fill="#E0E0E0"/>
<path d="M574.761 253.91C572.607 250.944 570.114 246.915 567.197 244.703C564.279 242.491 560.434 241.148 556.898 241.998C558.747 245.234 561.324 247.995 564.424 250.062C567.524 252.13 571.064 253.447 574.761 253.91Z" fill="#E0E0E0"/>
<path d="M575.443 250.113C573.897 246.576 572.756 242.875 572.042 239.081C571.327 235.242 571.933 231.275 573.762 227.826C577.559 234.994 578.776 242.684 575.636 250.161" fill="#E0E0E0"/>
<path d="M578.227 227.826C580.381 220.725 586.921 215.498 593.906 213.093C594.774 212.738 595.716 212.598 596.65 212.687C597.116 212.736 597.557 212.922 597.918 213.221C598.279 213.52 598.544 213.919 598.678 214.368C598.93 215.585 597.935 216.667 596.997 217.469C591.507 222.158 585.121 225.681 578.227 227.826Z" fill="#E0E0E0"/>
<path d="M578.311 222.029C578.582 217.45 578.862 212.803 580.359 208.504C581.857 204.205 584.716 200.089 588.89 198.196C589.605 202.814 587.557 207.422 585.103 211.402C582.649 215.382 579.673 219.131 578.195 223.575" fill="#E0E0E0"/>
<path d="M578.197 225.207C576.419 220.029 576.265 213.46 573.134 208.948C570.97 205.799 567.502 203.644 565.638 200.312C564.508 203.513 564.664 207.028 566.072 210.117C567.483 213.171 569.422 215.951 571.801 218.329C574.101 220.773 576.062 222.618 578.197 225.207Z" fill="#E0E0E0"/>
<path d="M578.222 377.655C578.087 377.655 577.971 343.117 577.962 300.533C577.952 257.948 578.058 223.401 578.193 223.401C578.329 223.401 578.454 257.929 578.464 300.533C578.474 343.137 578.367 377.655 578.222 377.655Z" fill="#E0E0E0"/>
<path d="M608.409 274.198C607.992 274.396 607.559 274.558 607.114 274.681L603.54 275.888C600.526 276.912 596.391 278.4 591.947 280.236C587.503 282.071 583.252 283.694 580.914 285.771C579.961 286.554 579.201 287.546 578.692 288.67C578.354 289.481 578.296 289.974 578.248 289.964C578.2 289.955 578.248 289.839 578.248 289.607C578.306 289.277 578.393 288.954 578.509 288.641C578.96 287.434 579.703 286.359 580.673 285.511C582.128 284.289 583.755 283.289 585.503 282.545C587.435 281.646 589.541 280.719 591.792 279.791C596.294 277.946 600.487 276.507 603.521 275.56C605.037 275.087 606.284 274.739 607.143 274.507C607.553 274.359 607.977 274.256 608.409 274.198Z" fill="#E0E0E0"/>
<path d="M618.3 249.92C618.192 250.062 618.069 250.191 617.933 250.306L616.831 251.35C615.798 252.316 614.397 253.552 612.687 255.108L598.92 267.367C593.549 272.149 588.902 276.719 585.685 280.158C584.072 281.878 582.787 283.308 581.937 284.293L580.971 285.443C580.861 285.584 580.735 285.71 580.594 285.819C580.669 285.658 580.766 285.509 580.884 285.375C581.096 285.095 581.405 284.689 581.85 284.177C582.671 283.134 583.898 281.675 585.482 279.926C589.637 275.382 594.032 271.064 598.65 266.991C604.041 262.218 608.948 257.929 612.513 254.837C614.271 253.34 615.701 252.103 616.754 251.195L617.923 250.229C618.037 250.113 618.163 250.009 618.3 249.92Z" fill="#E0E0E0"/>
<path d="M593.122 272.265C592.977 272.207 594.088 269.608 595.219 266.333C596.349 263.058 596.88 260.286 597.025 260.315C596.902 262.429 596.452 264.511 595.692 266.488C595.216 267.904 594.658 269.291 594.021 270.642C593.797 271.222 593.495 271.768 593.122 272.265Z" fill="#E0E0E0"/>
<path d="M578.267 293.133C577.957 292.841 577.679 292.517 577.436 292.167L575.311 289.452C573.533 287.143 571.07 283.965 568.307 280.487C565.544 277.009 563.003 273.879 561.168 271.628C560.298 270.546 559.574 269.696 558.994 268.942C558.712 268.627 558.462 268.284 558.25 267.918C558.583 268.182 558.884 268.483 559.148 268.816C559.699 269.415 560.482 270.295 561.438 271.396C563.37 273.599 565.93 276.69 568.693 280.178C571.456 283.665 573.881 286.872 575.601 289.239C576.451 290.418 577.137 291.374 577.591 292.051C577.854 292.386 578.081 292.749 578.267 293.133Z" fill="#E0E0E0"/>
<path d="M571.647 284.631C570.309 283.157 569.356 281.375 568.874 279.443C568.351 277.754 568.138 275.983 568.246 274.217H568.468C568.362 274.623 568.294 274.835 568.256 274.826C568.217 274.816 568.256 274.594 568.256 274.188H568.478C568.587 275.909 568.881 277.612 569.357 279.27C569.983 281.112 570.749 282.905 571.647 284.631Z" fill="#E0E0E0"/>
<path d="M563.07 273.889C562.475 273.436 561.826 273.06 561.138 272.768C559.397 272.25 557.568 272.102 555.767 272.333C553.942 272.479 552.133 272.773 550.357 273.212C549.626 273.442 548.88 273.62 548.125 273.744C548.789 273.349 549.509 273.056 550.26 272.874C552.038 272.324 553.872 271.977 555.728 271.841C557.598 271.592 559.5 271.798 561.273 272.44C562.019 272.706 562.652 273.217 563.07 273.889Z" fill="#E0E0E0"/>
<path d="M561.081 271.299C561.081 271.377 559.95 270.845 558.115 270.217C553.312 268.568 548.167 268.176 543.17 269.077C541.237 269.416 540.107 269.773 540.078 269.696C540.316 269.545 540.577 269.434 540.851 269.367C541.585 269.114 542.334 268.905 543.092 268.739C548.144 267.632 553.409 268.024 558.24 269.87C558.964 270.15 559.67 270.473 560.356 270.836C560.839 271.097 561.139 271.299 561.081 271.299Z" fill="#E0E0E0"/>
<path d="M578.197 260.277C577.317 257.819 576.595 255.309 576.033 252.76C575.31 250.255 574.748 247.706 574.352 245.128C575.234 247.581 575.956 250.089 576.516 252.635C577.24 255.143 577.801 257.696 578.197 260.277Z" fill="#E0E0E0"/>
<path d="M578.336 260.276C577.645 258.721 576.845 257.216 575.94 255.774C574.924 254.416 573.739 253.192 572.414 252.132C572.916 252.26 573.382 252.501 573.776 252.838C574.777 253.567 575.647 254.462 576.346 255.485C577.423 256.877 578.11 258.531 578.336 260.276Z" fill="#E0E0E0"/>
<path d="M578.223 359.213C578.175 359.213 578.069 358.392 577.682 356.923C577.109 354.86 576.336 352.857 575.373 350.943C572.987 346.065 568.611 339.882 563.133 333.689C560.399 330.569 557.742 327.622 555.491 324.801C553.472 322.321 551.647 319.689 550.033 316.928C548.95 315.061 548.029 313.106 547.28 311.083C547.028 310.358 546.835 309.798 546.739 309.411C546.669 309.218 546.621 309.017 546.594 308.812C546.594 308.813 546.893 309.605 547.463 311.015C548.281 313 549.25 314.918 550.361 316.754C552.01 319.46 553.854 322.043 555.878 324.482C558.129 327.274 560.785 330.211 563.529 333.332C569.055 339.543 573.393 345.804 575.711 350.721C576.659 352.664 577.391 354.705 577.895 356.807C578.049 357.551 578.156 358.141 578.194 358.537C578.233 358.76 578.243 358.987 578.223 359.213Z" fill="#E0E0E0"/>
<path d="M605.499 328.443C605.042 328.743 604.564 329.011 604.07 329.245C602.781 329.977 601.545 330.797 600.37 331.699C598.644 333.05 597.029 334.536 595.539 336.143C593.829 337.939 592.071 340.007 590.274 342.287C586.68 346.789 583.318 350.779 581.309 353.967C580.285 355.541 579.541 356.865 579.058 357.831C578.829 358.326 578.564 358.804 578.266 359.261C578.299 359.125 578.344 358.992 578.401 358.865C578.507 358.604 578.652 358.217 578.884 357.744C579.508 356.383 580.218 355.063 581.009 353.793C582.941 350.537 586.294 346.489 589.878 341.997C591.684 339.746 593.462 337.64 595.201 335.843C596.736 334.234 598.407 332.76 600.196 331.438C601.411 330.543 602.704 329.761 604.06 329.1C604.533 328.858 604.92 328.713 605.171 328.597C605.276 328.537 605.386 328.485 605.499 328.443Z" fill="#E0E0E0"/>
<path d="M606.032 338.442C605.039 338.658 604.032 338.804 603.018 338.876C600.59 339.126 598.191 339.598 595.85 340.287C593.538 341.039 591.369 342.176 589.435 343.649C587.957 344.798 587.261 345.745 587.194 345.687C587.126 345.629 587.31 345.407 587.638 344.992C588.11 344.405 588.637 343.864 589.213 343.378C591.125 341.785 593.326 340.575 595.695 339.813C598.065 339.105 600.51 338.674 602.979 338.528C603.992 338.405 605.014 338.376 606.032 338.442Z" fill="#E0E0E0"/>
<path d="M588.075 344.586C587.92 344.499 589.282 342.422 590.335 339.62C591.388 336.819 591.562 334.326 591.736 334.355C591.828 334.892 591.828 335.441 591.736 335.978C591.588 337.279 591.293 338.559 590.857 339.794C590.396 341.019 589.807 342.191 589.099 343.291C588.509 344.142 588.133 344.625 588.075 344.586Z" fill="#E0E0E0"/>
<path d="M614.325 301.625C614.173 301.725 614.011 301.809 613.842 301.876L612.422 302.523C611.804 302.794 611.05 303.122 610.2 303.576C609.35 304.031 608.345 304.465 607.302 305.093L605.65 306.059C605.08 306.388 604.52 306.774 603.921 307.151C602.703 307.895 601.486 308.793 600.182 309.721C594.619 313.865 589.767 318.887 585.816 324.589C584.937 325.922 584.068 327.168 583.372 328.453C583.015 329.062 582.648 329.641 582.338 330.221L581.459 331.902C580.87 332.965 580.493 333.969 580.039 334.8C579.585 335.631 579.315 336.433 579.073 337.061L578.484 338.5C578.42 338.672 578.339 338.837 578.242 338.993C578.265 338.813 578.313 338.637 578.387 338.471L578.889 336.993C579.112 336.346 579.401 335.573 579.798 334.684C580.194 333.795 580.58 332.752 581.15 331.709L582.01 329.999C582.309 329.409 582.676 328.82 582.976 328.202C583.662 326.946 584.522 325.68 585.401 324.338C589.351 318.564 594.251 313.5 599.892 309.363C601.206 308.446 602.442 307.537 603.679 306.813C604.288 306.446 604.858 306.059 605.437 305.74L607.118 304.823C608.171 304.214 609.176 303.779 610.017 303.364C610.857 302.949 611.659 302.62 612.287 302.398C612.915 302.176 613.369 301.992 613.746 301.838C613.928 301.74 614.123 301.668 614.325 301.625Z" fill="#E0E0E0"/>
<path d="M592.75 316.077C592.961 315.383 593.374 314.767 593.938 314.309C595.27 313.159 596.961 312.51 598.72 312.474C600.445 312.464 602.155 312.792 603.754 313.44C604.441 313.666 605.092 313.992 605.686 314.406C604.99 314.269 604.307 314.068 603.647 313.807C602.07 313.269 600.416 312.991 598.749 312.986C597.094 313.017 595.492 313.579 594.18 314.59C593.671 315.053 593.193 315.55 592.75 316.077Z" fill="#E0E0E0"/>
<path d="M589.523 319.41C590.165 318.003 590.623 316.519 590.886 314.995C590.986 313.449 590.882 311.896 590.576 310.377C590.869 310.752 591.065 311.194 591.146 311.662C591.723 313.891 591.447 316.254 590.374 318.29C589.949 319.053 589.572 319.439 589.523 319.41Z" fill="#E0E0E0"/>
<path d="M554.375 364.198C555.119 377.394 559.089 390.813 565.214 404.387H591.811C597.607 390.949 601.346 377.549 602.003 364.198H554.375Z" fill="#E0E0E0"/>
<path d="M597.704 385.548C597.704 385.683 588.942 385.799 578.141 385.799C567.34 385.799 558.578 385.683 558.578 385.548C558.578 385.413 567.34 385.297 578.141 385.297C588.942 385.297 597.704 385.413 597.704 385.548Z" fill="#FAFAFA"/>
<path d="M597.102 390.33C597.102 390.466 588.89 390.581 578.746 390.581C568.602 390.581 560.391 390.466 560.391 390.33C560.391 390.195 568.602 390.079 578.746 390.079C588.89 390.079 597.102 390.195 597.102 390.33Z" fill="#FAFAFA"/>
<path d="M565.65 372.863C565.985 376.94 565.985 381.037 565.65 385.113C565.315 381.037 565.315 376.94 565.65 372.863Z" fill="#FAFAFA"/>
<path d="M579.9 372.863C580.235 377.085 580.235 381.326 579.9 385.548C579.565 381.326 579.565 377.085 579.9 372.863Z" fill="#FAFAFA"/>
<path d="M593.282 372.737C593.617 377.046 593.617 381.374 593.282 385.683C592.948 381.374 592.948 377.046 593.282 372.737Z" fill="#FAFAFA"/>
<path d="M601.17 372.863C601.17 372.999 590.891 373.105 578.226 373.105C565.56 373.105 555.281 372.999 555.281 372.863C555.281 372.728 565.551 372.612 578.226 372.612C590.901 372.612 601.17 372.738 601.17 372.863Z" fill="#FAFAFA"/>
<path d="M662.454 136.502C662.901 136.603 663.324 136.79 663.699 137.055C664.074 137.319 664.393 137.654 664.638 138.042C664.883 138.43 665.049 138.862 665.127 139.314C665.204 139.766 665.192 140.229 665.091 140.676L664.444 143.574L658.473 169.658C658.339 170.255 657.974 170.774 657.458 171.102C656.942 171.43 656.317 171.539 655.72 171.407L596.055 157.737C595.483 157.605 594.984 157.259 594.659 156.77C594.333 156.282 594.207 155.687 594.306 155.109L599.929 121.161C599.972 120.845 600.08 120.542 600.247 120.271C600.413 119.999 600.634 119.765 600.896 119.584C601.157 119.402 601.454 119.277 601.766 119.216C602.079 119.154 602.401 119.159 602.711 119.229L616.236 122.32C617.513 122.61 618.643 123.347 619.424 124.397L621.666 127.402L662.454 136.502Z" fill="#E0E0E0"/>
<path d="M666.108 141.029L600.914 126.098L591.903 165.442L657.097 180.373L666.108 141.029Z" fill="#F5F5F5"/>
<path d="M594.948 128.445L590.523 170.615C590.487 170.974 590.583 171.335 590.793 171.63C591.002 171.925 591.311 172.134 591.663 172.218L655.192 186.767C655.557 186.849 655.939 186.79 656.261 186.602C656.584 186.414 656.823 186.111 656.931 185.753L669.49 145.458C669.559 145.261 669.586 145.051 669.568 144.843C669.551 144.635 669.489 144.433 669.388 144.251C669.287 144.068 669.148 143.909 668.981 143.784C668.813 143.659 668.622 143.571 668.418 143.526L596.706 127.102C596.501 127.064 596.29 127.069 596.087 127.117C595.884 127.165 595.693 127.255 595.528 127.382C595.362 127.509 595.224 127.669 595.124 127.852C595.025 128.035 594.964 128.237 594.948 128.445Z" fill="#EBEBEB"/>
<path d="M60.313 93.0481C61.0371 93.1579 61.6883 93.5496 62.1246 94.1379C62.5608 94.7262 62.7465 95.4631 62.6413 96.1878C62.506 97.1539 62.3708 98.12 62.3032 98.5161L59.2021 119.509C59.1689 119.747 59.089 119.976 58.9669 120.182C58.8448 120.389 58.683 120.569 58.4907 120.713C58.2985 120.857 58.0797 120.961 57.8469 121.02C57.6141 121.078 57.372 121.09 57.1346 121.055L9.12048 113.954C8.66732 113.885 8.25679 113.648 7.97042 113.29C7.68406 112.932 7.54282 112.479 7.57475 112.022L9.91266 84.8267C9.93248 84.5774 10.0033 84.3348 10.1208 84.114C10.2382 83.8932 10.3998 83.6989 10.5954 83.5431C10.7911 83.3873 11.0167 83.2733 11.2582 83.2083C11.4997 83.1433 11.752 83.1286 11.9994 83.1651L22.8581 84.7688C23.8868 84.9237 24.8277 85.4369 25.5149 86.2179L27.447 88.4495L60.313 93.0481Z" fill="#E0E0E0"/>
<path d="M63.4848 96.4059L11.0078 88.6475L6.32531 120.319L58.8023 128.078L63.4848 96.4059Z" fill="#F5F5F5"/>
<path d="M6.39539 90.8646L5.51626 124.455C5.50702 124.738 5.59948 125.014 5.77679 125.234C5.9541 125.453 6.20448 125.602 6.48233 125.653L57.6266 133.218C57.9199 133.261 58.2188 133.191 58.4628 133.023C58.7067 132.854 58.8775 132.599 58.9405 132.309L66.3986 99.6656C66.4365 99.5078 66.4412 99.3438 66.4123 99.184C66.3834 99.0243 66.3215 98.8723 66.2306 98.7378C66.1397 98.6033 66.0218 98.4892 65.8844 98.4028C65.747 98.3164 65.5931 98.2595 65.4325 98.2358L7.6996 89.6957C7.53541 89.6781 7.36936 89.6952 7.21221 89.7459C7.05506 89.7966 6.91031 89.8797 6.78735 89.9899C6.66438 90.1001 6.56595 90.2349 6.49843 90.3856C6.43091 90.5363 6.3958 90.6995 6.39539 90.8646Z" fill="#EBEBEB"/>
<path d="M641.436 56.1049L604.947 67.4563C604.348 67.6433 603.719 67.7104 603.094 67.6537C602.469 67.5971 601.862 67.4178 601.306 67.1262C600.751 66.8346 600.258 66.4364 599.857 65.9543C599.456 65.4722 599.153 64.9156 598.967 64.3166L583.22 13.8099C582.856 12.598 582.982 11.2915 583.571 10.1714C584.16 9.0513 585.165 8.20706 586.37 7.82023L609.555 0.613281L633.215 13.4911L644.624 50.0959C644.993 51.3155 644.864 52.6313 644.267 53.7567C643.67 54.8822 642.653 55.7262 641.436 56.1049Z" fill="#EBEBEB"/>
<path d="M609.508 0.632324L613.932 14.8434C614.292 15.9636 615.079 16.8966 616.123 17.4394C617.167 17.9821 618.383 18.0907 619.507 17.7416L633.167 13.4812L609.508 0.632324Z" fill="#E0E0E0"/>
<path d="M610.698 15.2203C610.756 15.4039 607.017 16.7274 602.361 18.1765C597.704 19.6257 593.869 20.6594 593.821 20.4758C593.772 20.2923 597.492 18.9687 602.158 17.5196C606.824 16.0705 610.64 15.0368 610.698 15.2203Z" fill="#FAFAFA"/>
<path d="M624.105 19.8581C624.153 20.0417 617.98 22.1284 610.31 24.5146C602.639 26.9008 596.379 28.6977 596.321 28.5142C596.263 28.3306 602.436 26.2439 610.107 23.8577C617.777 21.4715 624.047 19.6746 624.105 19.8581Z" fill="#FAFAFA"/>
<path d="M628.693 25.7892C628.751 25.9728 622.018 28.2334 613.651 30.8322C605.285 33.4309 598.465 35.4114 598.407 35.2278C598.349 35.0443 605.082 32.7837 613.448 30.1752C621.815 27.5668 628.635 25.6057 628.693 25.7892Z" fill="#FAFAFA"/>
<path d="M630.691 32.1169C630.749 32.3004 624.016 34.5611 615.659 37.1695C607.303 39.7779 600.472 41.739 600.414 41.5555C600.356 41.3719 607.09 39.1113 615.447 36.5029C623.803 33.8945 630.604 31.9333 630.691 32.1169Z" fill="#FAFAFA"/>
<path d="M632.631 38.4744C632.679 38.658 625.945 40.9186 617.589 43.527C609.232 46.1354 602.402 48.0966 602.344 47.913C602.286 47.7295 609.02 45.4688 617.386 42.8701C625.752 40.2713 632.631 38.2619 632.631 38.4744Z" fill="#FAFAFA"/>
<path d="M634.615 44.7829C634.673 44.9665 627.939 47.2271 619.573 49.8258C611.207 52.4246 604.386 54.4051 604.328 54.2215C604.271 54.0379 611.004 51.7773 619.37 49.1689C627.737 46.5605 634.557 44.5993 634.615 44.7829Z" fill="#FAFAFA"/>
<path d="M550.335 0.941895H94.1619C90.3852 0.941895 86.7632 2.44218 84.0927 5.1127C81.4222 7.78322 79.9219 11.4052 79.9219 15.1819V337.389C79.9219 341.165 81.4222 344.787 84.0927 347.458C86.7632 350.129 90.3852 351.629 94.1619 351.629H269.244C269.244 351.629 280.374 386.07 245.856 403.894H409.558C409.558 403.894 370.586 390.523 380.576 351.629H550.316C554.091 351.626 557.71 350.125 560.379 347.455C563.047 344.784 564.546 341.164 564.546 337.389V15.1819C564.546 11.4102 563.05 7.79262 560.385 5.12293C557.721 2.45324 554.107 0.949571 550.335 0.941895Z" fill="#455A64"/>
<path d="M328.307 317.748C334.51 326.617 324.8 336.326 315.932 330.124C315.636 329.915 315.378 329.657 315.169 329.36C308.976 320.492 318.675 310.792 327.544 316.985C327.842 317.191 328.101 317.45 328.307 317.748Z" fill="#263238"/>
<path d="M97.1482 6.84523H547.341C549.827 6.84523 552.21 7.83253 553.968 9.58993C555.725 11.3473 556.712 13.7309 556.712 16.2162V292.689H87.7579V16.2549C87.7528 15.0194 87.9921 13.7951 88.4619 12.6524C88.9318 11.5097 89.623 10.4713 90.4957 9.59673C91.3684 8.7222 92.4055 8.02888 93.5472 7.55667C94.6889 7.08446 95.9127 6.84268 97.1482 6.84523Z" fill="white"/>
<path d="M96.6168 6.84524H549.467C551.393 6.84524 553.241 7.61065 554.604 8.97308C555.966 10.3355 556.732 12.1834 556.732 14.1102V30.6011H87.7578V15.6849C87.7578 14.5224 87.9871 13.3714 88.4325 12.2976C88.878 11.2239 89.5308 10.2486 90.3537 9.42746C91.1766 8.60638 92.1533 7.95565 93.2281 7.51256C94.3028 7.06946 95.4543 6.8427 96.6168 6.84524Z" fill="#EBEBEB"/>
<path d="M106.003 19.2201C106.003 19.8717 105.81 20.5086 105.448 21.0503C105.086 21.5921 104.571 22.0143 103.969 22.2637C103.367 22.513 102.705 22.5783 102.066 22.4511C101.427 22.324 100.84 22.0103 100.379 21.5496C99.9182 21.0888 99.6045 20.5018 99.4774 19.8628C99.3503 19.2238 99.4155 18.5614 99.6648 17.9594C99.9142 17.3575 100.336 16.843 100.878 16.481C101.42 16.119 102.057 15.9258 102.708 15.9258C103.582 15.9258 104.42 16.2729 105.038 16.8907C105.656 17.5085 106.003 18.3464 106.003 19.2201Z" fill="#263238"/>
<path d="M115.823 19.2201C115.823 19.8717 115.63 20.5086 115.268 21.0503C114.906 21.5921 114.391 22.0143 113.789 22.2637C113.187 22.513 112.525 22.5783 111.886 22.4511C111.247 22.324 110.66 22.0103 110.199 21.5496C109.739 21.0888 109.425 20.5018 109.298 19.8628C109.171 19.2238 109.236 18.5614 109.485 17.9594C109.734 17.3575 110.157 16.843 110.698 16.481C111.24 16.119 111.877 15.9258 112.529 15.9258C113.402 15.9258 114.24 16.2729 114.858 16.8907C115.476 17.5085 115.823 18.3464 115.823 19.2201Z" fill="#263238"/>
<path d="M125.167 19.2201C125.167 19.8717 124.974 20.5086 124.612 21.0503C124.25 21.5921 123.735 22.0143 123.133 22.2637C122.531 22.513 121.869 22.5783 121.23 22.4511C120.591 22.324 120.004 22.0103 119.543 21.5496C119.082 21.0888 118.769 20.5018 118.641 19.8628C118.514 19.2238 118.58 18.5614 118.829 17.9594C119.078 17.3575 119.5 16.843 120.042 16.481C120.584 16.119 121.221 15.9258 121.872 15.9258C122.746 15.9258 123.584 16.2729 124.202 16.8907C124.82 17.5085 125.167 18.3464 125.167 19.2201Z" fill="#263238"/>
<path d="M468.779 351.677C468.779 351.832 403.869 351.948 323.81 351.948C243.751 351.948 178.82 351.832 178.82 351.677C178.82 351.523 243.722 351.407 323.81 351.407C403.898 351.407 468.779 351.484 468.779 351.677Z" fill="#263238"/>
<path d="M526.153 124.339C526.153 124.339 526.153 123.866 526.153 122.958C526.153 122.05 526.153 120.697 526.153 118.939C526.153 115.413 526.153 110.244 526.095 103.607C526.095 90.3431 526.037 71.2437 525.998 47.8259L526.192 48.0191L398.804 48.0771L399.056 47.8259C399.056 74.9244 399.056 100.796 399.056 124.339L398.824 124.108L490.485 124.223L516.782 124.281H523.786H525.593H526.221H525.622H523.844H516.879L490.611 124.455L398.833 124.571H398.602V124.339C398.602 100.796 398.602 74.9244 398.602 47.8259V47.5747H398.862L526.25 47.6327H526.443V47.8259C526.443 71.292 526.366 90.4397 526.346 103.733C526.346 110.351 526.346 115.5 526.288 119.016C526.288 120.755 526.288 122.088 526.288 122.997C526.288 123.905 526.153 124.339 526.153 124.339Z" fill="#263238"/>
<path d="M218.384 292.031C218.249 292.031 218.133 233.506 218.133 161.32C218.133 89.1349 218.249 30.6001 218.384 30.6001C218.519 30.6001 218.645 89.1155 218.645 161.32C218.645 233.525 218.529 292.031 218.384 292.031Z" fill="#263238"/>
<path d="M199.365 74.915H119.828V88.3339H199.365V74.915Z" fill="#E0E0E0"/>
<path d="M474.131 116.166L434.425 116.108C433.499 116.105 432.612 115.736 431.958 115.08C431.305 114.425 430.937 113.537 430.938 112.611L431.015 59.1189C431.017 58.1931 431.387 57.306 432.043 56.6522C432.698 55.9985 433.586 55.6313 434.512 55.6313H462.277L477.686 70.6732L477.628 112.64C477.633 113.102 477.546 113.56 477.373 113.988C477.199 114.417 476.942 114.806 476.617 115.134C476.292 115.462 475.904 115.722 475.477 115.9C475.051 116.077 474.593 116.167 474.131 116.166Z" fill="#37474F"/>
<g opacity="0.3">
<path d="M462.273 55.5347V66.1615C462.271 66.7861 462.392 67.405 462.629 67.9827C462.866 68.5604 463.215 69.0856 463.656 69.5282C464.097 69.9707 464.62 70.3218 465.197 70.5614C465.774 70.801 466.392 70.9243 467.017 70.9243L477.644 70.7021L462.273 55.5347Z" fill="white"/>
</g>
<path d="M468.192 105.588C468.178 105.421 468.178 105.253 468.192 105.085C468.192 104.738 468.192 104.264 468.192 103.675C468.192 102.409 468.192 100.622 468.192 98.3615C468.192 93.7823 468.144 87.2999 468.105 79.5326L468.328 79.7548H441.277L441.528 79.5133V83.0491C441.528 84.2181 441.528 85.3774 441.528 86.527C441.528 88.8166 441.528 91.0676 441.528 93.2896C441.528 97.6659 441.528 101.801 441.528 105.597L441.306 105.385L460.869 105.52L466.395 105.588H467.874H468.395C468.238 105.601 468.079 105.601 467.922 105.588H466.492H461.005L441.306 105.675H441.094V105.453C441.094 101.656 441.094 97.521 441.094 93.1447V86.3821C441.094 85.2421 441.094 84.0828 441.094 82.9042V79.378L441.345 79.1172L468.395 79.1945H468.608V79.407C468.55 87.2322 468.501 93.7629 468.472 98.3711C468.472 100.612 468.472 102.39 468.405 103.636C468.405 104.216 468.405 104.67 468.405 105.008C468.358 105.209 468.287 105.404 468.192 105.588Z" fill="white"/>
<path d="M454.389 105.878C454.253 105.878 454.147 100.081 454.157 92.8552C454.167 85.6289 454.292 79.8228 454.427 79.8228C454.563 79.8228 454.679 85.6192 454.659 92.8552C454.64 100.091 454.534 105.878 454.389 105.878Z" fill="white"/>
<path d="M468.092 99.2018C468.092 99.3467 462.005 99.4434 454.499 99.4337C446.993 99.424 440.906 99.3081 440.906 99.1632C440.906 99.0183 446.993 98.9217 454.499 98.9313C462.005 98.941 468.092 99.0666 468.092 99.2018Z" fill="white"/>
<path d="M468.389 92.5744C468.389 92.7096 462.302 92.8159 454.796 92.8062C447.289 92.7966 441.203 92.671 441.203 92.5357C441.203 92.4005 447.289 92.2846 454.796 92.3039C462.302 92.3232 468.389 92.4198 468.389 92.5744Z" fill="white"/>
<path d="M468.214 85.9181C468.214 86.0533 462.176 86.1596 454.689 86.1499C447.202 86.1403 441.164 86.0147 441.164 85.8794C441.164 85.7442 447.202 85.6379 454.689 85.6476C462.176 85.6572 468.214 85.8118 468.214 85.9181Z" fill="white"/>
<path d="M532.227 116.137H494.009C492.744 116.125 491.535 115.617 490.641 114.723C489.747 113.829 489.239 112.619 489.227 111.355V58.4622C489.226 57.1895 489.729 55.9681 490.624 55.0636C491.52 54.1591 492.736 53.6446 494.009 53.6318H518.248L537.009 72.9534V111.287C537.014 112.564 536.514 113.79 535.618 114.699C534.722 115.607 533.503 116.124 532.227 116.137Z" fill="#455A64"/>
<path d="M518.25 53.6807V68.568C518.25 69.7466 518.718 70.8769 519.552 71.7103C520.385 72.5437 521.515 73.0119 522.694 73.0119H536.982L518.25 53.6807Z" fill="#455A64"/>
<g opacity="0.2">
<path d="M518.445 69.8711C518.449 71.0031 518.84 72.0997 519.554 72.9785C520.268 73.8574 521.26 74.4654 522.368 74.7015L522.841 74.8078C524.705 75.1362 537.013 77.3292 537.013 77.0491V73.0495H522.696C522.696 73.0495 519.122 72.8949 518.445 69.8711Z" fill="black"/>
</g>
<g opacity="0.3">
<path d="M518.25 53.6807V68.568C518.25 69.7466 518.718 70.8769 519.552 71.7103C520.385 72.5437 521.515 73.0119 522.694 73.0119H536.982L518.25 53.6807Z" fill="white"/>
</g>
<path d="M515.046 67.9596C515.046 68.1528 511.095 68.3074 506.207 68.3074C501.318 68.3074 497.367 68.1528 497.367 67.9596C497.367 67.7664 501.328 67.6118 506.207 67.6118C511.086 67.6118 515.046 67.7664 515.046 67.9596Z" fill="#FAFAFA"/>
<path d="M526.465 76.3738C526.465 76.567 519.954 76.7216 511.916 76.7216C503.879 76.7216 497.367 76.567 497.367 76.3738C497.367 76.1806 503.879 76.0356 511.916 76.0356C519.954 76.0356 526.465 76.1516 526.465 76.3738Z" fill="#FAFAFA"/>
<path d="M529.093 83.4069C529.093 83.6001 521.983 83.7547 513.23 83.7547C504.478 83.7547 497.367 83.6001 497.367 83.4069C497.367 83.2137 504.468 83.0591 513.23 83.0591C521.993 83.0591 529.093 83.2137 529.093 83.4069Z" fill="#FAFAFA"/>
<path d="M529.093 90.0339C529.093 90.2271 521.983 90.3817 513.23 90.3817C504.478 90.3817 497.367 90.2271 497.367 90.0339C497.367 89.8407 504.468 89.6958 513.23 89.6958C521.993 89.6958 529.093 89.8504 529.093 90.0339Z" fill="#FAFAFA"/>
<path d="M529.093 96.671C529.093 96.8642 521.983 97.0188 513.23 97.0188C504.478 97.0188 497.367 96.8642 497.367 96.671C497.367 96.4778 504.468 96.3232 513.23 96.3232C521.993 96.3232 529.093 96.4392 529.093 96.671Z" fill="#FAFAFA"/>
<path d="M529.091 103.298C529.091 103.491 521.981 103.646 513.228 103.646C504.476 103.646 497.375 103.491 497.375 103.298C497.375 103.105 504.476 102.95 513.238 102.95C522 102.95 529.091 103.105 529.091 103.298Z" fill="#FAFAFA"/>
<path d="M360.5 46.9658H267.438V127.092H360.5V46.9658Z" fill="#F5F5F5"/>
<path d="M360.511 127.083C360.511 127.083 360.511 126.571 360.511 125.595C360.511 124.62 360.511 123.18 360.511 121.306C360.511 117.548 360.511 112.061 360.453 105.056C360.453 91.0579 360.386 71.0601 360.347 46.9661L360.56 47.1786H267.497L267.748 46.9274C267.748 76.0064 267.748 103.404 267.748 127.044L267.526 126.822L334.804 126.938L353.816 126.996H358.85H360.598H360.173H358.898H353.903L334.949 127.054L267.449 127.354H267.227V127.131C267.227 103.491 267.227 76.0934 267.227 47.0144V46.7632H267.449H360.511H360.724V46.9757C360.675 71.1277 360.637 91.1739 360.608 105.201C360.608 112.176 360.608 117.654 360.56 121.402C360.56 123.257 360.56 124.678 360.56 125.653C360.56 126.629 360.511 127.083 360.511 127.083Z" fill="#263238"/>
<path d="M270.68 127.005C270.583 126.899 290.62 108.901 315.419 86.7973C340.218 64.6934 360.409 46.8595 360.506 46.9658C360.603 47.0721 340.566 65.0701 315.748 87.174C290.929 109.278 270.767 127.102 270.68 127.005Z" fill="#263238"/>
<path d="M361.291 127.083C361.194 127.189 340.114 109.336 314.204 87.2223C288.294 65.1088 267.349 47.0721 267.446 46.9658C267.542 46.8595 288.612 64.703 314.542 86.8359C340.472 108.969 361.378 126.977 361.291 127.083Z" fill="#263238"/>
<path d="M522.29 142.656H442.859V211.045H522.29V142.656Z" fill="#EBEBEB"/>
<path d="M522.294 211.045C522.294 211.045 522.294 210.601 522.294 209.77C522.294 208.939 522.294 207.702 522.294 206.108C522.294 202.891 522.294 198.206 522.236 192.226C522.236 180.285 522.178 163.244 522.13 142.656L522.342 142.869H442.921L443.172 142.618C443.172 167.436 443.172 190.825 443.172 211.006L442.95 210.784L500.364 210.891L516.584 210.949H520.883H521.994H522.381H520.854H516.594L500.422 211.006L442.863 211.122H442.641V210.9C442.641 190.719 442.641 167.33 442.641 142.511V142.26H442.901H522.323H522.497V142.473C522.497 163.089 522.41 180.15 522.391 192.178C522.391 198.129 522.391 202.804 522.333 206.012C522.333 207.587 522.333 208.794 522.333 209.635C522.333 210.475 522.294 211.045 522.294 211.045Z" fill="#263238"/>
<path d="M445.625 210.968C445.538 210.871 462.628 195.511 483.795 176.624C504.962 157.737 522.206 142.55 522.293 142.656C522.38 142.763 505.3 158.114 484.124 177C462.947 195.887 445.722 211.074 445.625 210.968Z" fill="#263238"/>
<path d="M522.957 211.045C522.87 211.151 504.863 195.926 482.749 177.039C460.636 158.152 442.773 142.811 442.86 142.656C442.947 142.501 460.954 157.775 483.078 176.623C505.201 195.472 523.054 210.938 522.957 211.045Z" fill="#263238"/>
<path d="M109.975 81.6198C109.977 82.4915 109.72 83.3442 109.237 84.0699C108.754 84.7956 108.067 85.3617 107.262 85.6967C106.457 86.0316 105.571 86.1202 104.716 85.9513C103.861 85.7824 103.075 85.3636 102.458 84.7479C101.841 84.1322 101.42 83.3472 101.249 82.4924C101.079 81.6376 101.165 80.7514 101.498 79.9458C101.832 79.1403 102.396 78.4517 103.121 77.9672C103.846 77.4827 104.698 77.2241 105.569 77.2241C106.736 77.2241 107.855 77.6869 108.681 78.511C109.507 79.3351 109.972 80.4531 109.975 81.6198Z" fill="#37474F"/>
<path d="M199.365 106.66H119.828V120.079H199.365V106.66Z" fill="#E0E0E0"/>
<path d="M109.975 113.365C109.975 114.236 109.716 115.088 109.232 115.812C108.748 116.537 108.06 117.101 107.255 117.435C106.45 117.768 105.564 117.855 104.71 117.685C103.855 117.515 103.07 117.096 102.454 116.48C101.838 115.864 101.419 115.079 101.249 114.224C101.079 113.37 101.166 112.484 101.499 111.679C101.833 110.874 102.397 110.186 103.122 109.702C103.846 109.218 104.698 108.959 105.569 108.959C106.738 108.959 107.858 109.424 108.684 110.25C109.511 111.076 109.975 112.196 109.975 113.365Z" fill="#E0E0E0"/>
<path d="M199.365 138.396H119.828V151.815H199.365V138.396Z" fill="#E0E0E0"/>
<path d="M109.975 145.11C109.975 145.982 109.716 146.833 109.232 147.558C108.748 148.282 108.06 148.847 107.255 149.18C106.45 149.514 105.564 149.601 104.71 149.431C103.855 149.261 103.07 148.842 102.454 148.225C101.838 147.609 101.419 146.824 101.249 145.97C101.079 145.115 101.166 144.23 101.499 143.425C101.833 142.62 102.397 141.932 103.122 141.448C103.846 140.963 104.698 140.705 105.569 140.705C106.738 140.705 107.858 141.169 108.684 141.995C109.511 142.822 109.975 143.942 109.975 145.11Z" fill="#37474F"/>
<path d="M199.365 170.142H119.828V183.56H199.365V170.142Z" fill="#E0E0E0"/>
<path d="M109.975 176.845C109.977 177.717 109.72 178.57 109.237 179.295C108.754 180.021 108.067 180.587 107.262 180.922C106.457 181.257 105.571 181.346 104.716 181.177C103.861 181.008 103.075 180.589 102.458 179.973C101.841 179.358 101.42 178.573 101.249 177.718C101.079 176.863 101.165 175.977 101.498 175.171C101.832 174.366 102.396 173.677 103.121 173.193C103.846 172.708 104.698 172.45 105.569 172.45C106.736 172.45 107.855 172.913 108.681 173.737C109.507 174.561 109.972 175.679 109.975 176.845Z" fill="#E0E0E0"/>
<path d="M199.365 201.887H119.828V215.306H199.365V201.887Z" fill="#E0E0E0"/>
<path d="M109.975 208.59C109.975 209.462 109.716 210.313 109.232 211.038C108.748 211.762 108.06 212.327 107.255 212.66C106.45 212.994 105.564 213.081 104.71 212.911C103.855 212.741 103.07 212.321 102.454 211.705C101.838 211.089 101.419 210.304 101.249 209.45C101.079 208.595 101.166 207.71 101.499 206.905C101.833 206.1 102.397 205.412 103.122 204.927C103.846 204.443 104.698 204.185 105.569 204.185C106.738 204.185 107.858 204.649 108.684 205.475C109.511 206.302 109.975 207.422 109.975 208.59Z" fill="#E0E0E0"/>
<path d="M199.365 233.623H119.828V247.041H199.365V233.623Z" fill="#E0E0E0"/>
<path d="M109.975 240.385C109.975 241.256 109.716 242.108 109.232 242.832C108.748 243.557 108.06 244.121 107.255 244.455C106.45 244.788 105.564 244.875 104.71 244.705C103.855 244.536 103.07 244.116 102.454 243.5C101.838 242.884 101.419 242.099 101.249 241.244C101.079 240.39 101.166 239.504 101.499 238.699C101.833 237.894 102.397 237.206 103.122 236.722C103.846 236.238 104.698 235.979 105.569 235.979C106.738 235.979 107.858 236.444 108.684 237.27C109.511 238.096 109.975 239.216 109.975 240.385Z" fill="#37474F"/>
<path d="M423.305 210.794C423.305 210.794 423.305 210.678 423.305 210.465C423.305 210.253 423.305 209.915 423.305 209.499C423.305 208.649 423.305 207.413 423.305 205.819C423.305 202.592 423.305 197.897 423.247 191.936C423.247 180.024 423.179 163.079 423.141 142.898L423.363 143.12H365.92L366.171 142.869C366.171 167.987 366.171 191.279 366.123 210.755L365.92 210.543L407.548 210.649L419.209 210.707H422.291H423.363H422.339H419.296L407.703 210.755L365.939 210.871H365.727V210.659C365.727 191.182 365.727 167.842 365.727 142.772V142.521H365.978H423.421H423.643V142.743C423.595 163.031 423.556 179.976 423.527 191.926C423.527 197.858 423.479 202.553 423.469 205.761C423.469 207.335 423.469 208.553 423.469 209.393C423.469 209.789 423.469 210.098 423.469 210.359C423.469 210.62 423.305 210.794 423.305 210.794Z" fill="#263238"/>
<path d="M423.302 225.749H365.859V283.192H423.302V225.749Z" fill="#EBEBEB"/>
<path d="M526.157 228.396H437.461V285.839H526.157V228.396Z" fill="#EBEBEB"/>
<path d="M350.538 142.907H262.422V210.794H350.538V142.907Z" fill="#EBEBEB"/>
<path d="M348.38 283.192C348.38 283.192 348.38 282.815 348.38 282.09C348.38 281.366 348.38 280.303 348.38 278.921C348.38 276.13 348.38 272.053 348.332 266.836C348.332 256.402 348.274 241.438 348.225 223.198L348.428 223.401L260.322 223.449L260.573 223.198C260.573 244.606 260.573 264.942 260.573 283.192L260.341 282.969L323.813 283.076L341.946 283.143H346.776H348.457H348.052H346.834H342.052L323.967 283.201L260.341 283.317H260.109V283.085C260.109 264.836 260.109 244.5 260.109 223.092V222.995H260.37L348.477 223.043H348.602V223.246C348.554 241.534 348.525 256.547 348.496 267.01C348.496 272.207 348.496 276.265 348.448 279.047C348.448 280.409 348.448 281.462 348.448 282.187C348.448 282.911 348.38 283.192 348.38 283.192Z" fill="#263238"/>
<path d="M332.681 157.351C333.109 157.353 333.532 157.44 333.926 157.606C334.32 157.772 334.677 158.014 334.978 158.318C335.278 158.622 335.516 158.982 335.677 159.378C335.839 159.774 335.92 160.198 335.918 160.626V163.389L335.734 188.294C335.732 188.864 335.504 189.409 335.1 189.811C334.696 190.213 334.15 190.439 333.58 190.439L276.581 190.023C276.034 190.017 275.51 189.801 275.116 189.42C274.723 189.039 274.49 188.522 274.465 187.975L272.746 155.979C272.729 155.687 272.772 155.394 272.872 155.119C272.972 154.845 273.127 154.593 273.328 154.38C273.529 154.168 273.771 153.998 274.04 153.883C274.308 153.767 274.598 153.708 274.891 153.708L287.788 153.795C289.009 153.807 290.187 154.252 291.111 155.051L293.748 157.331L332.681 157.351Z" fill="#37474F"/>
<g opacity="0.3">
<path d="M332.681 157.351C333.109 157.354 333.532 157.44 333.926 157.606C334.32 157.772 334.677 158.014 334.978 158.318C335.278 158.622 335.516 158.983 335.677 159.379C335.839 159.775 335.92 160.199 335.918 160.626V163.389L335.734 188.295C335.732 188.864 335.504 189.41 335.1 189.812C334.696 190.214 334.15 190.439 333.58 190.439L276.581 190.024C276.034 190.017 275.51 189.801 275.116 189.42C274.723 189.04 274.49 188.523 274.465 187.976L272.746 155.979C272.729 155.687 272.772 155.395 272.872 155.12C272.972 154.845 273.127 154.594 273.328 154.381C273.529 154.168 273.771 153.999 274.04 153.883C274.308 153.768 274.598 153.708 274.891 153.709L287.788 153.796C289.009 153.807 290.187 154.252 291.111 155.052L293.748 157.332L332.681 157.351Z" fill="black"/>
</g>
<path d="M336.899 160.737L274.617 160.28L274.342 197.869L336.623 198.326L336.899 160.737Z" fill="#F5F5F5"/>
<path d="M269.629 163.621L274.102 202.853C274.138 203.188 274.295 203.498 274.545 203.724C274.794 203.951 275.118 204.077 275.455 204.08L336.163 204.525C336.51 204.528 336.845 204.399 337.1 204.164C337.355 203.928 337.511 203.605 337.535 203.259L340.868 164.065C340.886 163.875 340.863 163.683 340.803 163.502C340.743 163.321 340.645 163.155 340.517 163.013C340.389 162.872 340.233 162.758 340.059 162.68C339.885 162.601 339.697 162.56 339.506 162.558L270.992 162.056C270.795 162.057 270.601 162.1 270.423 162.181C270.244 162.263 270.086 162.382 269.957 162.53C269.828 162.678 269.732 162.852 269.675 163.04C269.619 163.228 269.603 163.426 269.629 163.621Z" fill="#37474F"/>
<path d="M450.959 149.963L450.891 215.405L532.747 215.491L532.815 150.049L450.959 149.963Z" fill="#EBEBEB"/>
<path d="M532.852 150.066H532.456H531.306H526.862H510.101H450.996L451.208 149.854C451.208 169.33 451.208 191.656 451.208 215.286L450.976 215.045L532.832 215.18L532.63 215.373C532.697 195.675 532.755 179.338 532.784 167.91C532.784 162.2 532.842 157.718 532.852 154.645C532.852 153.129 532.852 151.95 532.852 151.148C532.852 150.346 532.852 149.931 532.852 149.931C532.852 149.931 532.852 150.327 532.852 151.11C532.852 151.892 532.852 153.042 532.852 154.568C532.852 157.631 532.852 162.094 532.852 167.794C532.852 179.242 532.852 195.617 532.9 215.373V215.576H532.707L450.851 215.518H450.609V215.286C450.609 191.656 450.677 169.33 450.706 149.854V149.641H451.005L510.255 149.815L526.959 149.892H531.364H532.861L532.852 150.066Z" fill="#263238"/>
<path d="M453.771 154.091L453.711 211.293L529.819 211.373L529.879 154.171L453.771 154.091Z" fill="#37474F"/>
<path d="M453.758 211.306L480.373 175.773L496.816 198.042L507.994 186.159L529.856 211.393L453.758 211.306Z" fill="#37474F"/>
<path d="M503.823 171.446C503.821 172.63 503.468 173.788 502.808 174.772C502.149 175.756 501.212 176.522 500.117 176.973C499.021 177.425 497.817 177.542 496.655 177.309C495.494 177.076 494.428 176.504 493.591 175.665C492.755 174.825 492.186 173.757 491.957 172.595C491.728 171.433 491.848 170.229 492.303 169.135C492.758 168.041 493.528 167.107 494.514 166.45C495.5 165.794 496.658 165.444 497.843 165.446C498.63 165.448 499.408 165.604 500.135 165.906C500.861 166.208 501.52 166.65 502.076 167.207C502.631 167.765 503.071 168.426 503.371 169.153C503.671 169.88 503.824 170.659 503.823 171.446Z" fill="#37474F"/>
<g opacity="0.2">
<path d="M453.758 211.306L480.373 175.773L496.816 198.042L507.994 186.159L529.856 211.393L453.758 211.306Z" fill="black"/>
</g>
<g opacity="0.2">
<path d="M503.823 171.445C503.821 172.63 503.468 173.787 502.808 174.771C502.149 175.755 501.212 176.521 500.117 176.973C499.021 177.425 497.817 177.541 496.655 177.308C495.494 177.075 494.428 176.503 493.591 175.664C492.755 174.825 492.186 173.757 491.957 172.595C491.728 171.432 491.848 170.228 492.303 169.134C492.758 168.041 493.528 167.106 494.514 166.45C495.5 165.793 496.658 165.444 497.843 165.446C498.63 165.447 499.408 165.603 500.135 165.905C500.861 166.208 501.52 166.65 502.076 167.207C502.631 167.764 503.071 168.425 503.371 169.152C503.671 169.879 503.824 170.659 503.823 171.445Z" fill="black"/>
</g>
<path d="M255.653 52.112L255.578 123.138L344.419 123.231L344.493 52.2051L255.653 52.112Z" fill="#EBEBEB"/>
<path d="M344.507 52.2311H342.806H337.976H319.785H255.647L255.879 51.9993C255.879 73.1467 255.879 97.405 255.821 123.016L255.56 122.755L344.439 122.9L344.227 123.112C344.294 101.733 344.352 84.0055 344.391 71.601C344.391 65.4085 344.449 60.5394 344.468 57.2064C344.468 55.5512 344.468 54.2857 344.468 53.4097C344.468 52.5499 344.468 52.0959 344.468 52.0959C344.468 52.0959 344.468 52.521 344.468 53.3614C344.468 54.2019 344.468 55.4868 344.468 57.1195C344.468 60.4428 344.468 65.2925 344.468 71.4754C344.468 83.8992 344.468 101.675 344.468 123.112V123.489H344.256L255.376 123.431H255.125V123.17C255.125 97.5306 255.202 73.3013 255.231 52.1538V51.9316H255.463L319.756 52.1152L337.889 52.1925H342.671H343.888L344.507 52.2311Z" fill="#263238"/>
<path d="M258.713 56.598L258.648 118.678L341.248 118.765L341.313 56.6845L258.713 56.598Z" fill="#37474F"/>
<path d="M258.664 118.688L287.56 80.1313L305.393 104.293L317.537 91.3958L341.254 118.775L258.664 118.688Z" fill="#37474F"/>
<path d="M313.011 75.4264C313.009 76.7123 312.626 77.9688 311.91 79.0369C311.194 80.1051 310.177 80.9369 308.989 81.4272C307.8 81.9176 306.492 82.0444 305.232 81.7916C303.971 81.5389 302.813 80.918 301.905 80.0073C300.997 79.0967 300.38 77.9373 300.131 76.6757C299.882 75.4141 300.013 74.107 300.506 72.9197C301 71.7324 301.835 70.7182 302.905 70.0054C303.976 69.2926 305.233 68.9131 306.519 68.915C307.373 68.9163 308.218 69.0857 309.007 69.4137C309.795 69.7416 310.511 70.2215 311.114 70.8262C311.717 71.4308 312.194 72.1483 312.52 72.9376C312.846 73.7269 313.013 74.5726 313.011 75.4264Z" fill="#37474F"/>
<g opacity="0.2">
<path d="M258.664 118.688L287.56 80.1313L305.393 104.293L317.537 91.3958L341.254 118.775L258.664 118.688Z" fill="black"/>
</g>
<g opacity="0.2">
<path d="M313.011 75.4269C313.009 76.7128 312.626 77.9693 311.91 79.0374C311.194 80.1056 310.177 80.9374 308.989 81.4277C307.8 81.9181 306.492 82.0449 305.232 81.7921C303.971 81.5394 302.813 80.9184 301.905 80.0078C300.997 79.0972 300.38 77.9378 300.131 76.6762C299.882 75.4146 300.013 74.1075 300.506 72.9202C301 71.7329 301.835 70.7187 302.905 70.0059C303.976 69.2931 305.233 68.9136 306.519 68.9155C307.373 68.9168 308.218 69.0862 309.007 69.4141C309.795 69.7421 310.511 70.222 311.114 70.8267C311.717 71.4313 312.194 72.1488 312.52 72.9381C312.846 73.7274 313.013 74.5731 313.011 75.4269Z" fill="black"/>
</g>
<path d="M338.031 123.489H343.451L343.953 116.156L344.813 109.703L344.6 99.3369L349.817 104.931C350.29 105.63 350.579 106.437 350.658 107.278L351.556 127.092L351.798 135.565L342.282 141.757V131.672L340.05 129.285C338.663 127.681 337.94 125.608 338.031 123.489Z" fill="#BD8C83"/>
<path d="M349.686 116.147C348.397 113.969 346.913 111.913 345.252 110.003C344.745 109.349 344.107 108.81 343.378 108.419C343.009 108.231 342.595 108.151 342.183 108.189C341.771 108.226 341.378 108.38 341.049 108.631C340.731 108.978 340.528 109.414 340.465 109.881C340.403 110.347 340.486 110.821 340.702 111.24C341.153 112.064 341.734 112.811 342.421 113.452C343.112 114.098 343.588 114.942 343.783 115.867C343.792 116.752 343.645 117.632 343.349 118.466C343.037 119.878 343.09 121.346 343.502 122.732C343.915 124.118 344.673 125.376 345.706 126.388" fill="#BD8C83"/>
<path d="M345.703 126.387C345.703 126.387 345.403 126.039 344.939 125.421C344.284 124.49 343.818 123.44 343.568 122.33C343.385 121.571 343.313 120.79 343.355 120.011C343.426 119.115 343.601 118.23 343.877 117.374C344.017 116.868 344.06 116.34 344.002 115.818C343.913 115.272 343.702 114.754 343.384 114.302C342.775 113.384 341.906 112.698 341.297 111.819C340.99 111.408 340.79 110.926 340.718 110.418C340.647 110.072 340.684 109.713 340.825 109.39C340.966 109.067 341.204 108.795 341.505 108.612C341.807 108.429 342.158 108.344 342.51 108.368C342.861 108.392 343.197 108.524 343.471 108.747C344.212 109.227 344.866 109.832 345.403 110.534C345.963 111.181 346.466 111.799 346.91 112.369C347.809 113.519 348.475 114.485 348.939 115.161C349.155 115.523 349.4 115.865 349.673 116.185C349.524 115.788 349.329 115.409 349.094 115.055C348.5 114.056 347.855 113.089 347.161 112.157C346.727 111.568 346.195 110.93 345.683 110.225C345.126 109.463 344.436 108.808 343.645 108.292C343.175 108.027 342.638 107.903 342.099 107.935C341.807 107.946 341.52 108.021 341.26 108.154C340.999 108.288 340.771 108.477 340.592 108.708C340.292 109.221 340.157 109.815 340.205 110.407C340.253 111 340.483 111.564 340.863 112.022C341.529 112.988 342.399 113.664 342.959 114.504C343.239 114.895 343.428 115.344 343.51 115.818C343.566 116.281 343.53 116.751 343.403 117.2C343.133 118.088 342.971 119.006 342.92 119.934C342.856 121.935 343.507 123.894 344.756 125.46C344.953 125.708 345.17 125.94 345.403 126.155C345.587 126.329 345.703 126.387 345.703 126.387Z" fill="#896360"/>
<path d="M384.663 368.584L388.605 387.906C388.605 387.906 370.307 398.397 370.694 402.039L408.371 395.731L403.463 365.396L384.663 368.584Z" fill="#37474F"/>
<g opacity="0.3">
<path d="M384.663 368.584L388.605 387.906C388.605 387.906 370.307 398.397 370.694 402.039L408.371 395.731L403.463 365.396L384.663 368.584Z" fill="black"/>
</g>
<path d="M399.999 384.33C400.381 384.378 400.731 384.565 400.983 384.856C401.234 385.147 401.369 385.521 401.361 385.905C401.318 386.282 401.133 386.628 400.844 386.873C400.556 387.119 400.185 387.246 399.806 387.229C399.401 387.178 399.029 386.977 398.764 386.666C398.499 386.355 398.361 385.956 398.376 385.548C398.456 385.152 398.685 384.803 399.017 384.572C399.348 384.342 399.755 384.248 400.154 384.311" fill="#E0E0E0"/>
<path d="M408.401 395.721L407.792 392.687L371.863 399.865C371.863 399.865 370.308 400.879 370.695 402.029L408.401 395.721Z" fill="#263238"/>
<path d="M387.972 387.808C387.972 387.992 388.938 387.915 389.904 388.359C390.87 388.803 391.527 389.489 391.682 389.393C391.836 389.296 391.392 388.272 390.165 387.76C388.938 387.248 387.904 387.644 387.972 387.808Z" fill="#263238"/>
<path d="M384.29 390.127C384.29 390.32 385.12 390.494 385.884 391.17C386.647 391.846 386.956 392.639 387.14 392.6C387.323 392.561 387.265 391.499 386.309 390.668C385.352 389.837 384.261 389.924 384.29 390.127Z" fill="#263238"/>
<path d="M382.83 395.209C383.004 395.209 383.11 394.243 382.463 393.335C381.815 392.427 380.898 392.147 380.84 392.311C380.782 392.475 381.419 392.929 381.931 393.702C382.443 394.475 382.646 395.229 382.83 395.209Z" fill="#263238"/>
<path d="M387.551 383.307C387.657 383.461 388.459 383.065 389.483 382.959C390.507 382.853 391.415 383.046 391.473 382.872C391.531 382.698 390.652 382.176 389.415 382.312C388.179 382.447 387.435 383.171 387.551 383.307Z" fill="#263238"/>
<path d="M397.091 373.008L397.767 392.706C397.767 392.706 377.982 400.01 377.75 403.662L415.987 403.72L416.19 372.989L397.091 373.008Z" fill="#37474F"/>
<path d="M409.589 391.093C409.959 391.203 410.274 391.448 410.474 391.778C410.674 392.108 410.744 392.501 410.671 392.88C410.572 393.252 410.335 393.571 410.008 393.773C409.68 393.974 409.288 394.042 408.912 393.962C408.514 393.843 408.177 393.577 407.967 393.219C407.757 392.86 407.691 392.435 407.782 392.03C407.916 391.65 408.193 391.337 408.553 391.157C408.913 390.977 409.33 390.943 409.714 391.064" fill="#E0E0E0"/>
<path d="M415.987 403.72L415.89 400.619L379.266 401.72C379.266 401.72 377.556 402.455 377.75 403.653L415.987 403.72Z" fill="#263238"/>
<path d="M397.149 392.513C397.149 392.697 398.115 392.784 399.004 393.383C399.893 393.982 400.415 394.774 400.589 394.697C400.763 394.619 400.482 393.547 399.362 392.842C398.241 392.137 397.111 392.339 397.149 392.513Z" fill="#263238"/>
<path d="M393.143 394.166C393.094 394.349 393.906 394.668 394.543 395.451C395.181 396.233 395.355 397.083 395.51 397.074C395.664 397.064 395.819 396.011 395.017 395.045C394.215 394.079 393.143 393.992 393.143 394.166Z" fill="#263238"/>
<path d="M390.851 398.957C391.025 399.005 391.286 398.068 390.851 397.025C390.417 395.981 389.499 395.595 389.422 395.75C389.344 395.904 389.876 396.455 390.252 397.295C390.629 398.136 390.668 398.938 390.851 398.957Z" fill="#263238"/>
<path d="M397.492 388.001C397.569 388.175 398.458 387.914 399.482 388.001C400.506 388.088 401.356 388.407 401.414 388.253C401.472 388.098 400.719 387.422 399.482 387.354C398.245 387.287 397.395 387.857 397.492 388.001Z" fill="#263238"/>
<path d="M421.478 219.585L421.295 239.08L416.561 299.692C416.561 299.692 418.889 329.138 420.338 345.755C421.594 360.179 419.131 385.297 419.131 385.297L394.795 385.074L386.815 301.248L381.898 248.963L373.203 221.73L421.478 219.585Z" fill="#263238"/>
<path d="M361.42 225.024L361.227 304.194C361.213 308.23 361.936 312.234 363.362 316.01L385.243 373.878L386.345 377.742L400.913 374.351L391.204 220.097L361.42 225.024Z" fill="#263238"/>
<path d="M382.047 238.665C382.036 238.794 382.036 238.923 382.047 239.051C382.047 239.322 382.047 239.689 382.047 240.162C382.047 241.129 382.095 242.607 382.124 244.452C382.192 248.171 382.385 253.552 382.675 260.209C383.293 273.502 384.491 291.857 386.443 312.058C388.394 332.259 390.519 350.518 392.075 363.724C392.877 370.303 393.524 375.636 394.007 379.346C394.239 381.171 394.422 382.592 394.548 383.596C394.606 384.06 394.664 384.427 394.693 384.698C394.722 384.968 394.761 385.074 394.761 385.074C394.771 384.946 394.771 384.817 394.761 384.688C394.761 384.417 394.703 384.05 394.654 383.577C394.548 382.611 394.393 381.152 394.2 379.326C393.785 375.607 393.186 370.264 392.442 363.676C390.944 350.46 388.838 332.22 386.926 312.01C385.013 291.799 383.718 273.473 383.061 260.189C382.723 253.543 382.482 248.162 382.366 244.442C382.288 242.607 382.23 241.167 382.192 240.162C382.192 239.689 382.192 239.322 382.134 239.042C382.118 238.914 382.089 238.787 382.047 238.665Z" fill="#455A64"/>
<path d="M403.05 224.928C403.035 225.23 403.068 225.534 403.147 225.826C403.295 226.631 403.518 227.42 403.814 228.183C404.778 230.739 406.398 232.995 408.511 234.725C410.624 236.454 413.156 237.597 415.851 238.037C416.658 238.175 417.477 238.236 418.295 238.221C418.594 238.242 418.895 238.213 419.184 238.134C419.184 238.057 417.909 238.134 415.909 237.719C413.298 237.207 410.854 236.057 408.796 234.372C406.738 232.686 405.129 230.517 404.113 228.058C403.321 226.145 403.137 224.87 403.05 224.928Z" fill="#455A64"/>
<path d="M380.602 228.376C380.6 228.625 380.672 228.868 380.808 229.075C380.944 229.283 381.139 229.446 381.368 229.542C381.597 229.639 381.849 229.666 382.093 229.619C382.337 229.573 382.562 229.455 382.739 229.281C382.916 229.106 383.037 228.884 383.087 228.64C383.138 228.397 383.115 228.144 383.021 227.914C382.928 227.684 382.769 227.487 382.563 227.347C382.358 227.207 382.116 227.132 381.867 227.13C381.702 227.129 381.539 227.16 381.386 227.222C381.233 227.284 381.094 227.375 380.976 227.491C380.859 227.607 380.765 227.744 380.701 227.896C380.637 228.048 380.603 228.211 380.602 228.376Z" fill="#455A64"/>
<path d="M361.018 238.067C361.67 237.623 362.252 237.086 362.747 236.473C364.015 235.048 365.063 233.443 365.858 231.71C366.65 229.978 367.184 228.139 367.443 226.251C367.585 225.477 367.612 224.686 367.52 223.904C367.443 223.904 367.385 224.793 367.124 226.203C366.444 229.887 364.857 233.343 362.506 236.26C361.608 237.381 360.97 238.009 361.018 238.067Z" fill="#455A64"/>
<path d="M375.652 124.9C375.652 124.9 368.89 130.339 366.272 136.416C363.972 141.363 361.368 146.164 358.476 150.791L353.249 133.092L340.023 139.671C340.023 139.671 344.593 167.446 345.636 170.692C347.066 175.184 350.38 179.184 355.452 178.624C360.524 178.063 363.49 175.725 366.745 170.895L371.112 162.693L375.652 124.9Z" fill="#37474F"/>
<path d="M408.597 112.708C408.597 112.708 427.803 121.789 431.879 127.295C436.826 133.981 423.813 155.814 422.885 161.195C422.431 163.774 419.572 183.183 421.33 198.418C422.476 208.553 423.027 218.747 422.982 228.946L361.423 225.024C361.24 214.3 363.877 205.983 365.49 192.341L369.355 147.844L375.654 124.899L385.082 120.726L408.597 112.708Z" fill="#37474F"/>
<path d="M370.358 140.328C370.302 140.476 370.27 140.633 370.262 140.791C370.204 141.158 370.146 141.613 370.069 142.154C369.904 143.332 369.702 145.052 369.46 147.167C368.977 151.399 368.368 157.263 367.798 163.745C367.228 170.228 366.832 176.102 366.542 180.352C366.407 182.478 366.32 184.217 366.272 185.395C366.272 185.946 366.272 186.361 366.224 186.767C366.207 186.928 366.207 187.09 366.224 187.25C366.276 187.098 366.305 186.938 366.311 186.777C366.311 186.41 366.388 185.956 366.446 185.405C366.552 184.149 366.697 182.449 366.871 180.381C367.238 176.063 367.731 170.237 368.272 163.784C368.813 157.331 369.392 151.515 369.788 147.206C369.972 145.129 370.127 143.429 370.243 142.173C370.243 141.622 370.32 141.207 370.349 140.801C370.377 140.645 370.381 140.485 370.358 140.328Z" fill="#263238"/>
<path d="M416.741 144.067C416.828 144.067 416.741 142.791 417.108 140.792C417.577 138.193 418.679 135.751 420.317 133.68C421.955 131.609 424.078 129.973 426.498 128.918C428.353 128.107 429.619 127.894 429.599 127.807C429.299 127.799 429 127.835 428.71 127.914C427.911 128.072 427.129 128.305 426.373 128.609C423.844 129.605 421.624 131.252 419.938 133.383C418.251 135.514 417.158 138.054 416.77 140.743C416.649 141.549 416.603 142.364 416.635 143.178C416.626 143.478 416.662 143.777 416.741 144.067Z" fill="#263238"/>
<path d="M376.25 196.428C376.655 196.402 377.056 196.337 377.448 196.235C378.526 196.013 379.591 195.729 380.636 195.385C382.196 194.875 383.722 194.269 385.206 193.569C387.013 192.698 388.756 191.7 390.423 190.584C392.077 189.443 393.646 188.184 395.118 186.816C396.315 185.699 397.438 184.505 398.48 183.241C399.172 182.389 399.817 181.499 400.412 180.575C400.657 180.252 400.864 179.902 401.03 179.532C400.953 179.532 399.997 180.923 398.18 183.019C397.116 184.244 395.98 185.405 394.78 186.497C391.847 189.179 388.545 191.427 384.974 193.173C383.516 193.899 382.02 194.544 380.491 195.105C377.912 195.945 376.221 196.342 376.25 196.428Z" fill="#263238"/>
<g opacity="0.3">
<path d="M419.841 156.906C424.198 180.41 422.604 205.345 416.943 228.56L415.368 228.454C413.658 204.64 415.609 180.42 419.841 156.906Z" fill="black"/>
</g>
<path d="M418.887 233.207L418.519 238.578C418.519 238.578 414.433 240.8 412.984 242.327C411.535 243.853 407.352 251.939 407.352 251.939C407.74 252.301 408.243 252.515 408.773 252.543C409.302 252.571 409.825 252.412 410.25 252.094C411.347 250.736 412.339 249.295 413.216 247.785C413.593 247.704 413.985 247.718 414.355 247.827C414.725 247.937 415.062 248.137 415.335 248.41C415.608 248.682 415.808 249.019 415.917 249.39C416.026 249.76 416.041 250.152 415.959 250.529C415.447 252.934 414.858 255.736 414.848 256.113C414.839 256.49 412.491 258.827 410.714 260.508C410.478 260.734 410.32 261.029 410.263 261.351C410.207 261.672 410.254 262.004 410.398 262.297C410.542 262.589 410.776 262.829 411.066 262.98C411.355 263.131 411.685 263.185 412.008 263.136C412.143 263.108 412.268 263.041 412.366 262.943C412.366 262.943 412.201 265.503 415.679 263.407C415.679 263.407 418.8 264.112 420.297 262.315C420.297 262.315 424.161 261.716 425.475 260.586C426.789 259.455 429.668 247.824 429.668 247.824L431.243 235.458L418.887 233.207Z" fill="#BD8C83"/>
<path d="M419.509 251.785C419.609 252.483 419.609 253.192 419.509 253.891C419.41 255.591 418.917 257.244 418.07 258.721C417.086 260.119 415.754 261.235 414.206 261.957C413.605 262.318 412.954 262.585 412.273 262.75C412.802 262.309 413.379 261.93 413.993 261.619C415.409 260.831 416.634 259.739 417.577 258.422C418.381 256.99 418.896 255.414 419.094 253.784C419.159 253.105 419.298 252.434 419.509 251.785Z" fill="#896360"/>
<path d="M422.181 253.147C422.365 253.775 422.395 254.438 422.268 255.08C422.2 255.773 422.081 256.461 421.91 257.137C421.72 257.989 421.362 258.793 420.857 259.504C420.281 260.146 419.633 260.72 418.925 261.214L417.292 262.412C416.814 262.814 416.276 263.14 415.698 263.378C415.65 263.32 416.172 262.828 417.051 262.074C417.486 261.697 418.017 261.243 418.616 260.77C419.261 260.279 419.857 259.726 420.394 259.118C420.848 258.463 421.176 257.729 421.36 256.954C421.572 256.22 421.717 255.543 421.823 254.973C422.104 253.911 422.103 253.157 422.181 253.147Z" fill="#896360"/>
<path d="M425.124 254.973C425.337 254.973 424.835 257.099 424.071 259.543C423.958 259.879 423.762 260.181 423.501 260.422C423.291 260.638 423.069 260.841 422.835 261.03C422.446 261.348 422.029 261.629 421.589 261.871C420.835 262.286 420.304 262.383 420.275 262.315C420.246 262.248 420.719 262.026 421.386 261.542C421.776 261.264 422.15 260.964 422.506 260.644C422.709 260.46 422.922 260.267 423.115 260.055C423.313 259.866 423.465 259.635 423.559 259.378C423.936 258.132 424.323 257.041 424.603 256.239C424.723 255.797 424.898 255.371 425.124 254.973Z" fill="#896360"/>
<path d="M431.877 127.296C431.877 127.296 439.442 136.377 439.606 143.883C439.77 151.39 442.156 199.916 442.156 199.916L432.496 240.491L415.898 236.627L421.057 193.878L419.859 156.906L431.877 127.296Z" fill="#37474F"/>
<path d="M432.491 240.472C432.401 240.429 432.307 240.396 432.211 240.375L431.351 240.153L428.047 239.322L415.932 236.424L416.067 236.627L420.222 204.35C420.589 201.404 420.956 198.554 421.304 195.752C420.907 184.159 420.56 173.919 420.337 166.567C420.193 162.944 420.077 160.017 419.999 157.959C419.951 156.993 419.912 156.21 419.883 155.65C419.883 155.408 419.883 155.206 419.883 155.051C419.896 154.984 419.896 154.915 419.883 154.848C419.875 154.916 419.875 154.984 419.883 155.051V155.65C419.883 156.21 419.883 156.983 419.883 157.969C419.932 160.026 420.009 162.944 420.086 166.576C420.299 173.938 420.598 184.149 420.927 195.762C420.569 198.534 420.202 201.423 419.825 204.369C418.28 216.774 416.869 228.106 415.797 236.656V236.82H415.951L428.114 239.602L431.428 240.327L432.298 240.51C432.363 240.501 432.427 240.488 432.491 240.472Z" fill="#263238"/>
<g opacity="0.3">
<path d="M393.04 197.617C386.647 200.382 379.783 201.897 372.82 202.08C373.902 203.655 375.912 204.012 377.815 204.109C379.696 204.241 381.585 204.028 383.389 203.481C386.877 202.35 390.973 200.583 393.05 197.617" fill="black"/>
</g>
<g opacity="0.3">
<path d="M358.492 150.829C359.392 155.303 359.572 159.892 359.023 164.422C359.006 164.989 358.817 165.538 358.482 165.997C358.399 166.11 358.293 166.203 358.171 166.271C358.048 166.339 357.912 166.379 357.773 166.389C357.633 166.399 357.493 166.379 357.362 166.33C357.231 166.28 357.112 166.203 357.014 166.103C356.901 165.895 356.837 165.664 356.829 165.427C356.821 165.191 356.867 164.956 356.965 164.741C358.282 160.228 358.798 155.52 358.492 150.829Z" fill="black"/>
</g>
<path d="M368.533 76.5091C369.403 74.4224 371.847 72.8477 372.002 72.1907C372.417 70.4615 370.891 68.6259 371.412 66.9353C372.649 62.955 375.885 63.4187 375.885 63.4187C377.325 61.6122 379.276 59.226 382.484 58.3372C385.971 57.3711 391.111 56.6175 394.251 58.3951C397.39 60.1727 399.709 61.361 400.772 64.8196L379.373 103.975C376.832 102.844 375.209 100.284 374.233 97.6759C373.258 95.0675 372.784 92.2949 371.712 89.7251C370.91 87.7929 371.712 84.7305 369.954 83.6195C367.77 82.2186 367.732 78.422 368.533 76.5091Z" fill="#263238"/>
<path d="M375.775 79.8706C375.972 75.5992 377.772 71.559 380.816 68.5561C383.86 65.5532 387.925 63.8083 392.198 63.6694H393.078C402.584 63.9013 407.704 72.1033 407.202 81.5999L408.554 112.737L392.691 123.798C387.329 127.962 385.107 124.764 385.04 120.755L384.885 111.857C384.885 111.857 375.717 110.746 375.292 101.636C375.07 97.2021 375.389 88.1016 375.775 79.8706Z" fill="#BD8C83"/>
<path d="M378.727 87.6571C378.737 87.9972 378.878 88.3201 379.121 88.5579C379.365 88.7958 379.691 88.93 380.031 88.9323C380.197 88.9388 380.363 88.912 380.518 88.8534C380.674 88.7949 380.816 88.7059 380.937 88.5916C381.057 88.4772 381.154 88.3399 381.22 88.1878C381.287 88.0356 381.323 87.8716 381.325 87.7054C381.318 87.3671 381.178 87.0452 380.936 86.8087C380.694 86.5722 380.369 86.4398 380.031 86.4398C379.865 86.4321 379.699 86.4576 379.543 86.5149C379.387 86.5723 379.244 86.6602 379.122 86.7737C379.001 86.8871 378.903 87.0237 378.835 87.1754C378.767 87.3271 378.73 87.4909 378.727 87.6571Z" fill="#263238"/>
<path d="M377.747 84.7396C377.921 84.9038 378.878 84.1406 380.278 84.102C381.679 84.0633 382.732 84.7203 382.877 84.5464C383.022 84.3725 382.771 84.1696 382.317 83.8508C381.696 83.452 380.967 83.2562 380.23 83.2905C379.5 83.3099 378.795 83.5639 378.221 84.015C377.805 84.3531 377.67 84.6719 377.747 84.7396Z" fill="#263238"/>
<path d="M391.328 87.6571C391.338 87.9972 391.48 88.3201 391.723 88.5579C391.966 88.7958 392.292 88.93 392.632 88.9323C392.798 88.9388 392.964 88.912 393.12 88.8534C393.275 88.7949 393.417 88.7059 393.538 88.5916C393.659 88.4772 393.755 88.3399 393.822 88.1878C393.889 88.0356 393.924 87.8716 393.927 87.7054C393.922 87.3663 393.783 87.043 393.54 86.8059C393.298 86.5689 392.971 86.4373 392.632 86.4398C392.466 86.4321 392.3 86.4576 392.144 86.5149C391.988 86.5723 391.845 86.6602 391.724 86.7737C391.602 86.8871 391.505 87.0237 391.437 87.1754C391.369 87.3271 391.332 87.4909 391.328 87.6571Z" fill="#263238"/>
<path d="M391.325 84.7204C391.489 84.8846 392.474 84.1504 393.875 84.1407C395.276 84.1311 396.31 84.8266 396.464 84.6527C396.619 84.4788 396.367 84.276 395.923 83.9572C395.314 83.5353 394.587 83.3157 393.846 83.3292C393.115 83.332 392.404 83.569 391.817 84.0055C391.392 84.3339 391.247 84.6431 391.325 84.7204Z" fill="#263238"/>
<path d="M386.939 94.6229C386.193 94.4163 385.424 94.306 384.65 94.2944C384.292 94.2944 383.954 94.2075 383.886 93.9659C383.839 93.596 383.91 93.2207 384.089 92.8936C384.389 92.0145 384.717 91.0967 385.055 90.1306C386.388 86.2083 387.345 82.9816 387.19 82.9236C387.036 82.8657 385.818 86.0151 384.476 89.947L383.558 92.7197C383.347 93.1587 383.296 93.6574 383.413 94.1302C383.468 94.256 383.551 94.3671 383.657 94.4544C383.763 94.5417 383.888 94.6027 384.022 94.6325C384.22 94.6853 384.425 94.7081 384.63 94.7002C385.4 94.7724 386.176 94.7464 386.939 94.6229Z" fill="#263238"/>
<path d="M391.232 79.793C391.425 80.1505 392.787 79.793 394.439 79.7157C396.091 79.6385 397.482 79.909 397.646 79.5418C397.714 79.3583 397.434 79.0395 396.854 78.7593C396.083 78.4057 395.238 78.2433 394.391 78.286C393.541 78.3128 392.71 78.5412 391.966 78.9525C391.405 79.281 391.106 79.6191 391.232 79.793Z" fill="#263238"/>
<path d="M377.581 80.0639C377.871 80.373 378.953 80.0059 380.267 79.9383C381.581 79.8707 382.702 80.0735 382.943 79.7354C383.049 79.5712 382.866 79.2524 382.373 78.9722C381.693 78.6293 380.934 78.4727 380.174 78.5185C379.414 78.5644 378.679 78.8109 378.045 79.2331C377.581 79.5808 377.427 79.9093 377.581 80.0639Z" fill="#263238"/>
<path d="M400.08 64.1718C400.104 65.1865 399.903 66.1939 399.492 67.122C399.082 68.0501 398.471 68.8761 397.704 69.5407C396.937 70.2053 396.032 70.6922 395.055 70.9665C394.078 71.2408 393.052 71.2958 392.052 71.1276C390.506 70.8764 388.796 70.1615 387.482 70.973C386.168 71.7845 386.062 73.9775 384.835 75.0788C383.086 76.6536 380.227 75.2527 377.985 75.958C376.247 76.5086 375.184 78.1896 374.044 79.6194C372.904 81.0492 371.194 82.4017 369.445 81.909C369.473 80.3358 369.678 78.7707 370.054 77.2429C370.444 75.6942 371.359 74.3286 372.643 73.3785C373.348 72.8955 374.189 72.596 374.846 72.0454C376.275 70.8474 376.575 68.809 377.444 67.157C378.016 66.0985 378.831 65.1909 379.822 64.5089C380.813 63.827 381.951 63.3903 383.144 63.2347C385.134 63.0028 387.183 63.5632 389.115 63.0415C390.535 62.6551 391.771 61.7083 393.221 61.4088C396.032 60.8195 398.689 62.8 400.775 64.7901" fill="#263238"/>
<path d="M391.111 68.3453C392.367 67.9589 394.975 67.0991 395.603 65.9881C396.264 64.7956 397.229 63.7992 398.4 63.1002C399.571 62.4011 400.905 62.0242 402.269 62.0078C403.639 62.0983 404.943 62.6286 405.987 63.5198C407.032 64.411 407.761 65.6155 408.065 66.9541C409.717 66.9859 411.33 67.462 412.734 68.3324C414.138 69.2028 415.282 70.4353 416.045 71.9005C416.833 73.4377 417.234 75.1437 417.214 76.8708C417.194 78.5979 416.753 80.2941 415.929 81.8124C415.403 82.5346 415.071 83.3793 414.963 84.2663C414.963 85.3869 415.813 86.2661 416.422 87.1645C418.064 89.6763 417.997 93.1542 416.808 95.9365C415.62 98.7188 414.76 99.7042 413.012 100.284C409.592 101.424 409.205 106.235 407.892 107.587L405.892 87.8794C405.728 87.9782 405.548 88.0469 405.36 88.0823C401.979 88.9131 401.428 82.2858 402.153 80.3537C400.851 79.3347 399.686 78.1529 398.685 76.8371C397.567 74.735 396.989 72.3878 397.004 70.007C395.796 70.1422 390.56 68.5095 391.111 68.3453Z" fill="#263238"/>
<path d="M405.424 88.0439C405.579 87.9666 411.627 85.9765 411.646 92.2174C411.665 98.4583 405.386 97.183 405.376 97.0478C405.366 96.9125 405.424 88.0439 405.424 88.0439Z" fill="#BD8C83"/>
<path d="M407.286 94.6321C407.286 94.6321 407.393 94.7094 407.576 94.7963C407.837 94.8996 408.127 94.8996 408.388 94.7963C408.792 94.541 409.12 94.1825 409.339 93.758C409.558 93.3335 409.66 92.8582 409.634 92.3811C409.645 91.8464 409.539 91.3158 409.325 90.8257C409.265 90.6315 409.159 90.4545 409.016 90.3099C408.873 90.1653 408.697 90.0572 408.504 89.9949C408.379 89.9605 408.246 89.9717 408.129 90.0267C408.012 90.0816 407.919 90.1766 407.866 90.2944C407.779 90.4683 407.866 90.5939 407.789 90.6035C407.711 90.6132 407.654 90.4973 407.702 90.2461C407.737 90.0914 407.822 89.9525 407.943 89.85C408.103 89.7266 408.302 89.6649 408.504 89.6761C408.76 89.7285 408.998 89.8444 409.197 90.0133C409.396 90.1821 409.55 90.3984 409.644 90.6422C409.91 91.1824 410.043 91.7789 410.03 92.3811C410.062 92.9379 409.928 93.4917 409.647 93.973C409.365 94.4542 408.947 94.8415 408.446 95.0862C408.282 95.1297 408.111 95.1375 407.945 95.1092C407.778 95.0809 407.619 95.017 407.48 94.9219C407.296 94.7867 407.267 94.6418 407.286 94.6321Z" fill="#896360"/>
<path d="M384.867 111.828C384.867 111.828 393.156 110.418 397.938 106.641C397.938 106.641 395.513 114.292 384.925 114.688L384.867 111.828Z" fill="#896360"/>
<path d="M390.576 95.4727C390.344 95.4727 390.392 97.0087 389.117 98.1487C387.842 99.2887 386.219 99.1727 386.219 99.3949C386.219 99.6171 386.596 99.6751 387.291 99.6751C388.197 99.6508 389.066 99.3088 389.745 98.709C390.394 98.1349 390.796 97.3316 390.866 96.4677C390.866 95.8011 390.682 95.4727 390.576 95.4727Z" fill="#263238"/>
<path d="M384.291 86.5851C384.243 86.5851 384.291 86.0924 384.02 85.2519C383.685 84.0897 382.975 83.0708 382.001 82.3537C381.21 81.7612 380.27 81.4006 379.286 81.3123C378.301 81.224 377.312 81.4115 376.428 81.8537C375.544 82.2959 374.801 82.9755 374.281 83.8163C373.762 84.657 373.487 85.6258 373.487 86.6141C373.487 87.6024 373.762 88.5712 374.281 89.4119C374.801 90.2527 375.544 90.9323 376.428 91.3745C377.312 91.8168 378.301 92.0042 379.286 91.9159C380.27 91.8276 381.21 91.467 382.001 90.8745C382.976 90.1584 383.687 89.1391 384.02 87.9763C384.252 87.1455 384.243 86.6527 384.291 86.6527C384.339 86.6527 384.291 86.7687 384.291 87.0102C384.294 87.3518 384.255 87.6926 384.175 88.0246C383.901 89.2827 383.193 90.4044 382.175 91.1933C381.573 91.6621 380.882 92.0055 380.145 92.2032C379.407 92.4009 378.638 92.4489 377.881 92.3445C377.125 92.2401 376.397 91.9852 375.741 91.5951C375.085 91.2049 374.513 90.6872 374.06 90.0727C373.326 89.0836 372.93 87.8845 372.93 86.6527C372.93 85.421 373.326 84.2219 374.06 83.2328C374.513 82.6183 375.085 82.1006 375.741 81.7104C376.397 81.3203 377.125 81.0654 377.881 80.961C378.638 80.8565 379.407 80.9046 380.145 81.1023C380.882 81.3 381.573 81.6434 382.175 82.1122C383.19 82.8992 383.898 84.0169 384.175 85.2713C384.255 85.6066 384.294 85.9505 384.291 86.2953C384.349 86.4595 384.349 86.5851 384.291 86.5851Z" fill="#455A64"/>
<path d="M398.762 86.6815C398.704 86.6815 398.762 86.1599 398.482 85.2904C398.14 84.0613 397.395 82.9827 396.366 82.2279C395.54 81.6069 394.557 81.2284 393.527 81.1349C392.497 81.0414 391.462 81.2366 390.537 81.6985C389.612 82.1604 388.834 82.8709 388.291 83.7502C387.747 84.6295 387.459 85.6429 387.459 86.6767C387.459 87.7105 387.747 88.7239 388.291 89.6032C388.834 90.4825 389.612 91.193 390.537 91.6549C391.462 92.1169 392.497 92.312 393.527 92.2185C394.557 92.125 395.54 91.7465 396.366 91.1255C397.395 90.3707 398.14 89.2922 398.482 88.063C398.724 87.1936 398.704 86.6719 398.762 86.6815C398.82 86.6912 398.762 86.8071 398.762 87.0487C398.766 87.4062 398.727 87.763 398.646 88.1113C398.354 89.421 397.617 90.5887 396.56 91.4153C395.674 92.1003 394.613 92.5231 393.499 92.6359C392.385 92.7487 391.262 92.547 390.257 92.0535C389.251 91.5601 388.405 90.7947 387.812 89.8443C387.22 88.8939 386.906 87.7965 386.906 86.6767C386.906 85.5569 387.22 84.4595 387.812 83.5091C388.405 82.5587 389.251 81.7934 390.257 81.2999C391.262 80.8065 392.385 80.6047 393.499 80.7175C394.613 80.8303 395.674 81.2532 396.56 81.9381C397.617 82.7647 398.354 83.9324 398.646 85.2421C398.727 85.5905 398.766 85.9472 398.762 86.3048C398.84 86.5463 398.782 86.6815 398.762 86.6815Z" fill="#455A64"/>
<path d="M387.178 86.8845C387.081 86.9908 386.501 86.585 385.68 86.614C384.859 86.643 384.289 87.0294 384.192 86.9328C384.096 86.8362 384.192 86.701 384.492 86.4981C384.842 86.2589 385.256 86.1309 385.68 86.1309C386.104 86.1309 386.518 86.2589 386.868 86.4981C387.129 86.6527 387.245 86.8362 387.178 86.8845Z" fill="#455A64"/>
<path d="M405.035 88.121C403.949 88.1569 402.865 87.9932 401.838 87.638C400.779 87.4409 399.747 87.1165 398.766 86.6719C399.852 86.6305 400.936 86.791 401.963 87.1453C403.024 87.3414 404.056 87.6692 405.035 88.121Z" fill="#455A64"/>
<path d="M417.687 153.572C417.687 153.708 406.896 154.481 393.535 155.282C380.174 156.084 369.383 156.625 369.383 156.49C369.383 156.355 380.184 155.582 393.535 154.78C406.886 153.978 417.677 153.437 417.687 153.572Z" fill="white"/>
<path d="M439.118 148.762C435.887 149.232 432.633 149.532 429.37 149.66C423.98 150.008 419.603 150.182 419.594 150.047C422.826 149.583 426.079 149.287 429.341 149.158C432.592 148.861 435.855 148.728 439.118 148.762Z" fill="white"/>
<path d="M369.385 151.042C366.376 150.465 363.44 149.554 360.633 148.327C362.153 148.539 363.647 148.915 365.086 149.448C366.574 149.818 368.016 150.353 369.385 151.042Z" fill="white"/>
<path d="M154.421 271.164C145.243 257.127 145.591 236.607 156.556 223.913C159.957 219.981 164.71 216.552 169.898 216.996C175.085 217.44 179.481 222 181.104 227.082C182.727 232.163 182.157 237.66 181.21 242.906C179.877 250.248 177.655 257.764 172.516 263.194C167.376 268.623 160.923 274.71 154.382 271.135" fill="#37474F"/>
<path d="M158.526 338.258C156.878 334.176 156.555 329.679 157.604 325.403C158.653 321.128 161.02 317.29 164.371 314.435C166.486 312.715 169.201 311.382 171.877 312.077C174.553 312.773 176.36 315.526 176.707 318.289C176.914 321.082 176.44 323.883 175.326 326.453C173.973 330.124 172.147 333.785 169.027 336.113C165.907 338.442 161.55 340.673 158.497 338.239" fill="#37474F"/>
<path d="M136.394 333.437C138.915 320.994 132.365 307.266 121.101 301.402C117.603 299.586 113.295 298.504 109.768 300.272C106.242 302.04 104.436 306.484 104.716 310.512C104.996 314.541 106.938 318.241 109.073 321.67C112.068 326.501 115.739 331.128 120.849 333.534C125.96 335.939 132.79 337.794 136.394 333.437Z" fill="#37474F"/>
<path d="M137.992 299.789C142.388 285.617 134.939 268.421 122.535 260.286C118.671 257.765 113.84 256.006 109.503 257.649C105.165 259.291 102.556 264.237 102.421 268.962C102.286 273.686 104.093 278.217 106.179 282.487C109.078 288.418 112.816 294.263 118.487 297.673C124.158 301.084 133.307 304.436 138.012 299.828" fill="#37474F"/>
<path d="M146.805 369.096C146.734 368.872 146.686 368.642 146.66 368.41L146.37 366.477C146.312 366.043 146.244 365.511 146.167 365.048C146.09 364.584 145.964 363.956 145.848 363.357C145.616 362.149 145.375 360.768 144.979 359.27C144.795 358.517 144.602 357.725 144.409 356.904C144.215 356.082 143.926 355.252 143.665 354.372C143.191 352.614 142.496 350.798 141.839 348.856C138.762 340.496 134.542 332.602 129.299 325.4C128.043 323.786 126.913 322.192 125.705 320.83L124.005 318.811L122.353 317.024C121.319 315.865 120.305 314.908 119.455 314.048L118.18 312.841L117.098 311.875L115.61 310.541C115.428 310.392 115.263 310.224 115.117 310.039C115.324 310.148 115.516 310.285 115.687 310.445L117.252 311.701L118.373 312.618C118.759 312.986 119.184 313.372 119.638 313.787C120.537 314.628 121.571 315.575 122.643 316.686L124.334 318.454L126.063 320.453C127.299 321.816 128.449 323.4 129.724 325.023C135.051 332.226 139.307 340.163 142.361 348.586C143.008 350.518 143.684 352.382 144.148 354.16C144.389 355.039 144.631 355.889 144.853 356.71C145.075 357.532 145.22 358.333 145.394 359.097C145.761 360.613 145.974 361.995 146.177 363.222C146.273 363.83 146.37 364.4 146.457 364.922C146.544 365.444 146.553 365.888 146.602 366.371C146.679 367.183 146.737 367.84 146.785 368.361C146.817 368.605 146.824 368.851 146.805 369.096Z" fill="#263238"/>
<path d="M146.483 371.636C146.47 371.543 146.47 371.449 146.483 371.356C146.483 371.134 146.483 370.863 146.541 370.535C146.608 369.762 146.705 368.709 146.83 367.385C146.898 366.699 146.975 365.936 147.053 365.115C147.13 364.294 147.14 363.366 147.188 362.4C147.265 360.468 147.449 358.236 147.381 355.783C147.381 354.556 147.381 353.271 147.381 351.918C147.381 350.566 147.246 349.194 147.178 347.755C147.082 344.856 146.685 341.813 146.338 338.586C144.536 324.619 140.498 311.033 134.378 298.349C132.909 295.451 131.576 292.678 130.079 290.205C129.354 288.959 128.697 287.732 127.982 286.602L125.895 283.356C124.62 281.259 123.258 279.491 122.128 277.917C121.558 277.124 121.046 276.381 120.534 275.714L119.114 273.927L117.181 271.454L116.679 270.797C116.573 270.642 116.515 270.565 116.524 270.555C116.534 270.545 116.602 270.613 116.727 270.748L117.268 271.367L119.326 273.782C119.771 274.313 120.292 274.902 120.795 275.54C121.297 276.178 121.838 276.931 122.427 277.714C123.587 279.298 124.978 281.037 126.292 283.124L128.417 286.35C129.141 287.481 129.808 288.717 130.552 289.954C132.069 292.427 133.45 295.209 134.909 298.108C137.966 304.479 140.534 311.074 142.589 317.835C144.548 324.624 145.992 331.551 146.908 338.557C147.246 341.794 147.613 344.866 147.69 347.764C147.748 349.213 147.864 350.604 147.864 351.947C147.864 353.29 147.864 354.575 147.864 355.812C147.864 358.275 147.69 360.497 147.584 362.449C147.516 363.415 147.478 364.332 147.4 365.163C147.323 365.994 147.207 366.748 147.12 367.434C146.956 368.767 146.821 369.81 146.714 370.583C146.666 370.911 146.628 371.172 146.599 371.394C146.573 371.48 146.533 371.562 146.483 371.636Z" fill="#263238"/>
<path d="M170.38 233.951C170.345 234.041 170.303 234.128 170.254 234.211L169.868 234.946L168.293 237.747C167.955 238.356 167.549 239.013 167.163 239.766L165.936 242.239C165.491 243.128 165.018 244.065 164.525 245.07C164.033 246.075 163.559 247.186 163.086 248.316C162.612 249.446 162.042 250.644 161.53 251.9C161.018 253.156 160.564 254.489 160.004 255.852L159.202 257.938C158.961 258.653 158.719 259.387 158.468 260.122C157.966 261.596 157.454 263.116 156.932 264.682C155 270.971 153.145 277.975 151.589 285.414C150.034 292.852 149.02 300.03 148.237 306.571C147.455 313.111 147.078 319.033 146.943 324.018C146.817 326.511 146.788 328.762 146.778 330.781C146.769 332.8 146.778 334.461 146.778 335.853C146.778 337.244 146.778 338.277 146.827 339.06C146.827 339.398 146.827 339.678 146.827 339.9C146.841 339.997 146.841 340.094 146.827 340.19C146.816 340.094 146.816 339.997 146.827 339.9C146.827 339.678 146.827 339.408 146.769 339.07C146.769 338.287 146.682 337.215 146.614 335.862C146.546 334.51 146.508 332.761 146.508 330.781C146.508 328.8 146.508 326.54 146.575 324.018C146.653 319.024 147.107 313.092 147.744 306.522C148.382 299.953 149.541 292.775 151.058 285.269C152.575 277.762 154.478 270.777 156.458 264.488C156.999 262.933 157.521 261.407 158.023 259.928C158.284 259.194 158.536 258.46 158.777 257.745L159.598 255.658L161.163 251.707C161.685 250.451 162.245 249.263 162.748 248.123C163.25 246.983 163.714 245.901 164.235 244.887L165.694 242.066L166.969 239.612C167.375 238.868 167.8 238.211 168.148 237.612L169.819 234.859L170.264 234.153C170.312 234.018 170.37 233.941 170.38 233.951Z" fill="#263238"/>
<path d="M167.256 320.077C166.973 320.668 166.65 321.239 166.29 321.787C165.613 322.859 164.696 324.443 163.613 326.433C162.531 328.424 161.343 330.829 160.136 333.563C158.928 336.297 157.798 339.36 156.764 342.664C155.73 345.968 154.996 349.165 154.416 352.093C153.837 355.02 153.45 357.696 153.257 359.947C153.064 362.198 152.9 364.024 152.851 365.28C152.844 365.927 152.789 366.573 152.687 367.212C152.612 366.571 152.587 365.925 152.61 365.28C152.61 364.004 152.61 362.169 152.842 359.908C153.051 357.252 153.392 354.608 153.866 351.986C154.47 348.781 155.248 345.611 156.194 342.49C157.171 339.379 158.319 336.325 159.633 333.341C160.717 330.908 161.923 328.532 163.246 326.221C164.377 324.289 165.362 322.695 166.087 321.661C166.429 321.099 166.82 320.569 167.256 320.077Z" fill="#263238"/>
<path d="M128.789 362.778H169.094L164.215 403.942H133.803L128.789 362.778Z" fill="#455A64"/>
<path d="M130.258 399.498L133.678 403.942H164.216L167.742 399.642L130.258 399.498Z" fill="#263238"/>
<path d="M167.524 374.882C167.524 375.046 159.158 375.181 148.84 375.181C138.522 375.181 130.156 375.046 130.156 374.882C130.156 374.718 138.522 374.583 148.84 374.583C159.158 374.583 167.524 374.718 167.524 374.882Z" fill="#FAFAFA"/>
<path d="M167.524 377.626C167.524 377.79 159.158 377.925 148.84 377.925C138.522 377.925 130.156 377.79 130.156 377.626C130.156 377.461 138.522 377.326 148.84 377.326C159.158 377.326 167.524 377.461 167.524 377.626Z" fill="#FAFAFA"/>
<path d="M167.025 380.273C167.025 380.447 158.948 380.582 148.988 380.582C139.028 380.582 130.961 380.447 130.961 380.273C130.961 380.099 139.037 379.973 148.988 379.973C158.939 379.973 167.025 380.108 167.025 380.273Z" fill="#FAFAFA"/>
<path d="M134.947 274.043C134.966 274.171 134.966 274.301 134.947 274.429C134.947 274.739 134.889 275.106 134.85 275.55C134.744 276.584 134.609 277.965 134.435 279.656C134.068 283.114 133.536 287.897 132.918 293.181C132.918 293.384 132.87 293.587 132.85 293.77V293.944H132.677C127.498 294.031 122.832 294.079 119.47 294.099H115.49H114.408C114.283 294.112 114.157 294.112 114.031 294.099C114.031 294.099 114.157 294.099 114.408 294.099L115.49 294.041L119.461 293.915C122.832 293.828 127.489 293.732 132.667 293.645L132.474 293.828C132.474 293.645 132.474 293.442 132.541 293.239C133.16 287.964 133.739 283.192 134.184 279.714C134.406 278.043 134.589 276.661 134.725 275.627C134.792 275.183 134.841 274.825 134.889 274.516C134.889 274.357 134.909 274.198 134.947 274.043Z" fill="#263238"/>
<path d="M125.775 261.726C125.797 261.86 125.797 261.997 125.775 262.131C125.775 262.44 125.775 262.827 125.775 263.291C125.775 264.353 125.775 265.793 125.775 267.541C125.718 271.126 125.621 276.082 125.486 281.55C125.486 281.772 125.486 281.994 125.486 282.197V282.409H125.273C120.773 282.068 116.258 281.968 111.748 282.11C110.019 282.158 108.628 282.235 107.661 282.284H106.55C106.422 282.297 106.293 282.297 106.164 282.284C106.164 282.284 106.29 282.284 106.541 282.206L107.652 282.081C108.618 281.984 110.009 281.868 111.738 281.772C116.269 281.548 120.808 281.609 125.331 281.955L125.119 282.158C125.119 281.955 125.119 281.733 125.119 281.511C125.254 276.043 125.399 271.087 125.524 267.503C125.592 265.754 125.65 264.324 125.689 263.252C125.689 262.798 125.737 262.412 125.756 262.102C125.751 261.976 125.757 261.85 125.775 261.726Z" fill="#263238"/>
<path d="M115.05 257.533C115.169 257.92 115.253 258.318 115.301 258.721L115.9 261.957C116.422 264.691 117.233 268.469 118.393 272.584L118.509 273.019L118.103 272.816L117.62 272.584C114.233 270.963 110.604 269.902 106.877 269.444C105.447 269.271 104.278 269.203 103.467 269.174C103.047 269.179 102.628 269.157 102.211 269.106C102.211 269.106 102.327 269.106 102.539 269.058C102.752 269.01 103.071 269.058 103.505 269.058C104.654 269.037 105.802 269.082 106.945 269.193C110.712 269.579 114.384 270.619 117.794 272.265L118.287 272.507L117.997 272.739C117.019 269.218 116.226 265.648 115.62 262.044C115.388 260.672 115.234 259.552 115.147 258.779C115.077 258.367 115.045 257.95 115.05 257.533Z" fill="#263238"/>
<path d="M171.973 332.597C171.973 332.655 170.804 332.539 168.93 332.462C166.483 332.368 164.033 332.449 161.598 332.703C161.018 332.761 160.448 332.838 159.907 332.906H159.714V332.713C159.279 330.278 158.912 328.134 158.67 326.588C158.5 325.77 158.393 324.94 158.352 324.105C158.602 324.902 158.796 325.715 158.931 326.539C159.24 328.066 159.656 330.211 160.11 332.645L159.878 332.481C160.429 332.404 160.999 332.326 161.578 332.268C164.014 332.016 166.468 331.98 168.911 332.162C169.877 332.239 170.621 332.336 171.142 332.413C171.427 332.429 171.708 332.491 171.973 332.597Z" fill="#263238"/>
<path d="M175.779 325.023C175.779 325.091 174.658 324.83 172.832 324.608C170.456 324.318 168.055 324.292 165.674 324.53L164.408 324.695H164.205V324.482C163.944 321.98 163.741 319.758 163.616 318.164C163.507 317.309 163.462 316.446 163.481 315.584C163.676 316.424 163.809 317.276 163.877 318.135C164.08 319.719 164.34 321.932 164.601 324.443L164.369 324.26L165.654 324.096C168.064 323.844 170.497 323.909 172.89 324.289C173.856 324.443 174.533 324.608 175.035 324.743C175.293 324.806 175.543 324.9 175.779 325.023Z" fill="#263238"/>
<path d="M178.51 253.359C178.384 253.439 178.251 253.507 178.113 253.562L176.935 254.084L172.568 255.948L158.135 261.928L157.352 262.247L157.169 262.325L157.092 262.141L150.986 248.365L149.189 244.191L148.725 243.061C148.619 242.79 148.571 242.655 148.59 242.646C148.667 242.766 148.735 242.892 148.793 243.022C148.938 243.312 149.121 243.679 149.334 244.133L151.266 248.249C152.87 251.785 155.053 256.605 157.478 261.977L157.217 261.87L158 261.552L172.491 255.678L176.896 253.939L178.104 253.485C178.232 253.423 178.369 253.381 178.51 253.359Z" fill="#263238"/>
<path d="M182.05 235.941C181.944 236.044 181.824 236.132 181.693 236.202L180.63 236.887L176.698 239.341L163.569 247.35L163.357 247.476L163.27 247.244L163.038 246.606C160.893 240.81 158.961 235.612 157.531 231.767C156.865 229.893 156.314 228.367 155.908 227.246L155.483 226.009C155.425 225.87 155.386 225.724 155.367 225.575C155.446 225.703 155.511 225.839 155.56 225.98C155.696 226.302 155.86 226.708 156.053 227.198L157.802 231.69C159.26 235.554 161.231 240.742 163.415 246.5L163.656 247.128L163.357 247.031L176.553 239.129L180.553 236.781L181.654 236.163C181.778 236.074 181.91 236 182.05 235.941Z" fill="#263238"/>
<path d="M180.888 226.657C180.611 226.846 180.321 227.014 180.019 227.159C179.458 227.478 178.637 227.942 177.642 228.55C175.005 230.183 172.555 232.101 170.338 234.269L169.826 234.762L170 234.076C170.174 233.352 170.338 232.598 170.464 231.816C171.013 228.229 170.812 224.568 169.875 221.063C169.587 220.002 169.242 218.957 168.841 217.933C168.669 217.567 168.524 217.189 168.406 216.803C168.638 217.138 168.832 217.498 168.986 217.875C169.448 218.883 169.838 219.923 170.155 220.986C171.174 224.518 171.411 228.23 170.85 231.864C170.715 232.666 170.551 233.439 170.367 234.163L170.029 233.97C172.277 231.791 174.782 229.893 177.487 228.318C178.453 227.729 179.342 227.294 179.932 227.024C180.234 226.863 180.556 226.74 180.888 226.657Z" fill="#263238"/>
<path d="M134.893 317.033C134.855 317.385 134.791 317.734 134.7 318.077C134.565 318.743 134.362 319.709 134.14 320.907C133.561 324.064 133.2 327.256 133.058 330.462V330.645H132.874L131.976 330.694C127.976 330.935 124.353 331.138 121.735 331.254L118.634 331.379C118.252 331.414 117.867 331.414 117.484 331.379C117.859 331.296 118.241 331.244 118.624 331.225L121.716 330.974C124.334 330.781 127.947 330.539 131.947 330.297L132.855 330.249L132.661 330.442C132.8 327.22 133.207 324.014 133.879 320.859C134.13 319.661 134.381 318.695 134.565 318.038C134.635 317.692 134.746 317.354 134.893 317.033Z" fill="#263238"/>
<path d="M126.968 305.682C126.974 306.034 126.951 306.386 126.9 306.735C126.813 307.479 126.707 308.435 126.572 309.633C126.282 312.058 125.847 315.429 125.335 319.207V319.371H125.161L123.867 319.458C119.771 319.728 116.08 320.154 113.414 320.501L110.255 320.926C109.869 320.998 109.478 321.037 109.086 321.042C109.457 320.917 109.838 320.826 110.226 320.772C110.97 320.617 112.042 320.424 113.366 320.211C116.032 319.796 119.732 319.323 123.838 319.043L125.142 318.965L124.949 319.139C125.471 315.362 125.915 312 126.321 309.585C126.495 308.435 126.649 307.479 126.765 306.686C126.797 306.345 126.865 306.008 126.968 305.682Z" fill="#263238"/>
<path d="M117.638 300.794C117.706 300.794 117.455 301.895 117.165 303.692C116.787 306.054 116.571 308.44 116.518 310.832V311.054H116.286L115.61 310.967C113.083 310.668 110.541 310.52 107.997 310.522H105.688C105.402 310.555 105.114 310.555 104.828 310.522C105.104 310.441 105.39 310.395 105.678 310.387C106.219 310.329 107.011 310.271 107.997 310.233C110.558 310.14 113.123 310.25 115.668 310.561L116.344 310.658L116.112 310.851C116.165 308.44 116.427 306.038 116.894 303.673C117.078 302.774 117.252 302.059 117.387 301.567C117.436 301.299 117.521 301.039 117.638 300.794Z" fill="#263238"/>
<path d="M170.753 312.145C170.237 313.542 169.637 314.907 168.956 316.232C168.396 317.613 167.751 318.959 167.023 320.26C167.859 317.384 169.12 314.649 170.762 312.145H170.753Z" fill="#263238"/>
<path d="M175.818 317.516C174.274 317.748 172.744 318.07 171.238 318.482C169.769 319.009 168.33 319.619 166.93 320.308C169.436 318.297 172.613 317.313 175.818 317.555V317.516Z" fill="#263238"/>
<path d="M636.748 403.836C636.748 403.971 499.942 404.087 331.225 404.087C162.509 404.087 25.6641 403.971 25.6641 403.836C25.6641 403.7 162.442 403.584 331.225 403.584C500.009 403.584 636.748 403.652 636.748 403.836Z" fill="#263238"/>
</svg>
