<svg width="617" height="614" viewBox="0 0 617 614" fill="none" xmlns="http://www.w3.org/2000/svg">
<g opacity="0.3">
<path d="M595.307 74.5688H480.812V224.929H595.307V74.5688Z" stroke="black" stroke-miterlimit="10"/>
<path d="M574.296 102.158H501.82V197.34H574.296V102.158Z" stroke="black" stroke-miterlimit="10"/>
</g>
<path d="M593.93 612.553H616.001" stroke="#263238" stroke-linecap="round" stroke-linejoin="round"/>
<path d="M0.765625 612.553H580.133" stroke="#263238" stroke-linecap="round" stroke-linejoin="round"/>
<g opacity="0.3">
<path d="M139.33 26.9365H8.40625V395.332H139.33V26.9365Z" stroke="black" stroke-miterlimit="10"/>
<path d="M9.10938 38.1378H139.081L136.018 28.0127" stroke="black" stroke-miterlimit="10"/>
<path d="M9.10938 50.401H139.081L136.018 40.2759" stroke="black" stroke-miterlimit="10"/>
<path d="M9.10938 62.6642H139.081L136.018 52.5391" stroke="black" stroke-miterlimit="10"/>
<path d="M9.10938 74.9274H139.081L136.018 64.8022" stroke="black" stroke-miterlimit="10"/>
<path d="M9.10938 87.1906H139.081L136.018 77.0654" stroke="black" stroke-miterlimit="10"/>
<path d="M9.10938 99.468H139.081L136.018 89.3291" stroke="black" stroke-miterlimit="10"/>
<path d="M9.10938 111.731H139.081L136.018 101.592" stroke="black" stroke-miterlimit="10"/>
<path d="M9.10938 123.994H139.081L136.018 113.869" stroke="black" stroke-miterlimit="10"/>
<path d="M9.10938 136.257H139.081L136.018 126.132" stroke="black" stroke-miterlimit="10"/>
<path d="M9.10938 148.521H139.081L136.018 138.396" stroke="black" stroke-miterlimit="10"/>
<path d="M9.10938 160.784H139.081L136.018 150.659" stroke="black" stroke-miterlimit="10"/>
<path d="M9.10938 173.047H139.081L136.018 162.922" stroke="black" stroke-miterlimit="10"/>
<path d="M9.10938 185.311H139.081L136.018 175.186" stroke="black" stroke-miterlimit="10"/>
<path d="M9.10938 197.588H139.081L136.018 187.449" stroke="black" stroke-miterlimit="10"/>
<path d="M9.10938 209.851H139.081L136.018 199.712" stroke="black" stroke-miterlimit="10"/>
<path d="M9.10938 222.114H139.081L136.018 211.989" stroke="black" stroke-miterlimit="10"/>
<path d="M9.10938 234.378H139.081L136.018 224.252" stroke="black" stroke-miterlimit="10"/>
<path d="M9.10938 246.641H139.081L136.018 236.516" stroke="black" stroke-miterlimit="10"/>
<path d="M9.10938 258.904H139.081L136.018 248.779" stroke="black" stroke-miterlimit="10"/>
<path d="M9.10938 271.168H139.081L136.018 261.042" stroke="black" stroke-miterlimit="10"/>
<path d="M9.10938 283.431H139.081L136.018 273.306" stroke="black" stroke-miterlimit="10"/>
<path d="M9.10938 295.708H139.081L136.018 285.583" stroke="black" stroke-miterlimit="10"/>
<path d="M9.10938 307.971H139.081L136.018 297.846" stroke="black" stroke-miterlimit="10"/>
<path d="M9.10938 320.235H139.081L136.018 310.109" stroke="black" stroke-miterlimit="10"/>
<path d="M9.10938 332.498H139.081L136.018 322.373" stroke="black" stroke-miterlimit="10"/>
<path d="M9.10938 344.761H139.081L136.018 334.636" stroke="black" stroke-miterlimit="10"/>
<path d="M9.10938 357.025H139.081L136.018 346.899" stroke="black" stroke-miterlimit="10"/>
<path d="M9.10938 369.288H139.081L136.018 359.163" stroke="black" stroke-miterlimit="10"/>
<path d="M9.10938 381.565H139.081L136.018 371.426" stroke="black" stroke-miterlimit="10"/>
<path d="M280.126 26.9365H149.203V395.332H280.126V26.9365Z" stroke="black" stroke-miterlimit="10"/>
<path d="M149.906 38.1378H279.864L276.815 28.0127" stroke="black" stroke-miterlimit="10"/>
<path d="M149.906 50.401H279.864L276.815 40.2759" stroke="black" stroke-miterlimit="10"/>
<path d="M149.906 62.6642H279.864L276.815 52.5391" stroke="black" stroke-miterlimit="10"/>
<path d="M149.906 74.9274H279.864L276.815 64.8022" stroke="black" stroke-miterlimit="10"/>
<path d="M149.906 87.1906H279.864L276.815 77.0654" stroke="black" stroke-miterlimit="10"/>
<path d="M149.906 99.468H279.864L276.815 89.3291" stroke="black" stroke-miterlimit="10"/>
<path d="M149.906 111.731H279.864L276.815 101.592" stroke="black" stroke-miterlimit="10"/>
<path d="M149.906 123.994H279.864L276.815 113.869" stroke="black" stroke-miterlimit="10"/>
<path d="M149.906 136.257H279.864L276.815 126.132" stroke="black" stroke-miterlimit="10"/>
<path d="M149.906 148.521H279.864L276.815 138.396" stroke="black" stroke-miterlimit="10"/>
<path d="M149.906 160.784H279.864L276.815 150.659" stroke="black" stroke-miterlimit="10"/>
<path d="M149.906 173.047H279.864L276.815 162.922" stroke="black" stroke-miterlimit="10"/>
<path d="M149.906 185.311H279.864L276.815 175.186" stroke="black" stroke-miterlimit="10"/>
<path d="M149.906 197.588H279.864L276.815 187.449" stroke="black" stroke-miterlimit="10"/>
<path d="M149.906 209.851H279.864L276.815 199.712" stroke="black" stroke-miterlimit="10"/>
<path d="M149.906 222.114H279.864L276.815 211.989" stroke="black" stroke-miterlimit="10"/>
<path d="M149.906 234.378H279.864L276.815 224.252" stroke="black" stroke-miterlimit="10"/>
<path d="M149.906 246.641H279.864L276.815 236.516" stroke="black" stroke-miterlimit="10"/>
<path d="M149.906 258.904H279.864L276.815 248.779" stroke="black" stroke-miterlimit="10"/>
<path d="M149.906 271.168H279.864L276.815 261.042" stroke="black" stroke-miterlimit="10"/>
<path d="M149.906 283.431H279.864L276.815 273.306" stroke="black" stroke-miterlimit="10"/>
<path d="M149.906 295.708H279.864L276.815 285.583" stroke="black" stroke-miterlimit="10"/>
<path d="M149.906 307.971H279.864L276.815 297.846" stroke="black" stroke-miterlimit="10"/>
<path d="M149.906 320.235H279.864L276.815 310.109" stroke="black" stroke-miterlimit="10"/>
<path d="M149.906 332.498H279.864L276.815 322.373" stroke="black" stroke-miterlimit="10"/>
<path d="M149.906 344.761H279.864L276.815 334.636" stroke="black" stroke-miterlimit="10"/>
<path d="M149.906 357.025H279.864L276.815 346.899" stroke="black" stroke-miterlimit="10"/>
<path d="M149.906 369.288H279.864L276.815 359.163" stroke="black" stroke-miterlimit="10"/>
<path d="M149.906 381.565H279.864L276.815 371.426" stroke="black" stroke-miterlimit="10"/>
</g>
<path d="M461.088 1.34766H113.164V311.047H461.088V1.34766Z" fill="white" stroke="#263238" stroke-linecap="round" stroke-linejoin="round"/>
<path d="M461.088 1.34766H113.164V49.7387H461.088V1.34766Z" fill="#5C4163" stroke="#263238" stroke-linecap="round" stroke-linejoin="round"/>
<path d="M461.089 1.34766H447.984V311.047H461.089V1.34766Z" fill="#DBDBDB" stroke="#263238" stroke-linecap="round" stroke-linejoin="round"/>
<path d="M461.089 47.9038H447.984V107.675H461.089V47.9038Z" fill="#949494" stroke="#263238" stroke-linecap="round" stroke-linejoin="round"/>
<path d="M461.088 1.34766H113.164V24.8672H461.088V1.34766Z" fill="#DBDBDB" stroke="#263238" stroke-linecap="round" stroke-linejoin="round"/>
<path d="M268.018 8.21729H130.805V18.0114H268.018V8.21729Z" fill="white" stroke="#263238" stroke-linecap="round" stroke-linejoin="round"/>
<path d="M440.547 8.67236H452.589" stroke="#263238" stroke-linecap="round" stroke-linejoin="round"/>
<path d="M440.547 13.7627H452.589" stroke="#263238" stroke-linecap="round" stroke-linejoin="round"/>
<path d="M440.547 18.853H452.589" stroke="#263238" stroke-linecap="round" stroke-linejoin="round"/>
<path d="M391.883 85.6045H171.172V93.8812H391.883V85.6045Z" fill="#DBDBDB" stroke="#A8A8A8" stroke-linecap="round" stroke-linejoin="round"/>
<path d="M280.603 85.6045H171.172V93.8812H280.603V85.6045Z" fill="#5C4163" stroke="#263238" stroke-linecap="round" stroke-linejoin="round"/>
<path d="M159.221 111.359C170.397 111.359 179.457 102.299 179.457 91.1222C179.457 79.9459 170.397 70.8857 159.221 70.8857C148.045 70.8857 138.984 79.9459 138.984 91.1222C138.984 102.299 148.045 111.359 159.221 111.359Z" fill="#5C4163" stroke="#263238" stroke-linecap="round" stroke-linejoin="round"/>
<path d="M159.225 108.324C168.725 108.324 176.427 100.622 176.427 91.1221C176.427 81.6219 168.725 73.9204 159.225 73.9204C149.725 73.9204 142.023 81.6219 142.023 91.1221C142.023 100.622 149.725 108.324 159.225 108.324Z" fill="white" stroke="#263238" stroke-linecap="round" stroke-linejoin="round"/>
<path d="M281.526 111.359C292.702 111.359 301.762 102.299 301.762 91.1222C301.762 79.9459 292.702 70.8857 281.526 70.8857C270.349 70.8857 261.289 79.9459 261.289 91.1222C261.289 102.299 270.349 111.359 281.526 111.359Z" fill="#5C4163" stroke="#263238" stroke-linecap="round" stroke-linejoin="round"/>
<path d="M281.522 108.324C291.022 108.324 298.724 100.622 298.724 91.1221C298.724 81.6219 291.022 73.9204 281.522 73.9204C272.022 73.9204 264.32 81.6219 264.32 91.1221C264.32 100.622 272.022 108.324 281.522 108.324Z" fill="white" stroke="#263238" stroke-linecap="round" stroke-linejoin="round"/>
<path d="M403.838 111.359C415.014 111.359 424.075 102.299 424.075 91.1222C424.075 79.9459 415.014 70.8857 403.838 70.8857C392.662 70.8857 383.602 79.9459 383.602 91.1222C383.602 102.299 392.662 111.359 403.838 111.359Z" fill="#DBDBDB" stroke="#A8A8A8" stroke-linecap="round" stroke-linejoin="round"/>
<path d="M403.843 108.379C413.374 108.379 421.1 100.653 421.1 91.1221C421.1 81.5914 413.374 73.8652 403.843 73.8652C394.312 73.8652 386.586 81.5914 386.586 91.1221C386.586 100.653 394.312 108.379 403.843 108.379Z" fill="white" stroke="#A8A8A8" stroke-linecap="round" stroke-linejoin="round"/>
<path d="M155.709 84.9282C156.396 85.0076 157.087 84.8263 157.647 84.4201C158.206 84.0139 158.593 83.4125 158.73 82.7349H160.579V100.171H157.82V86.8732H155.695L155.709 84.9282Z" fill="#263238"/>
<path d="M280.657 85.025C279.788 85.025 279.277 85.494 279.277 86.7493V88.6116H276.656V86.9838C276.656 84.2249 278.036 82.5972 280.795 82.5972C283.553 82.5972 284.933 84.1973 284.933 86.9838C284.933 92.5016 279.484 94.5156 279.484 97.3848C279.47 97.5086 279.47 97.6335 279.484 97.7573H284.657V100.24H276.656V98.0194C276.656 92.8878 282.091 92.0326 282.091 86.9838C282.077 85.4526 281.526 85.025 280.657 85.025Z" fill="#263238"/>
<path d="M405.03 86.9838C405.03 85.4112 404.478 84.9836 403.651 84.9836C402.823 84.9836 402.271 85.4526 402.271 86.7079V87.8253H399.678V86.9838C399.678 84.2249 401.057 82.5972 403.816 82.5972C406.575 82.5972 407.955 84.1973 407.955 86.9838V87.439C408.065 88.1638 407.938 88.9048 407.593 89.5514C407.247 90.1979 406.701 90.7151 406.037 91.0256C406.643 91.3908 407.125 91.9288 407.423 92.5703C407.72 93.2119 407.819 93.9278 407.706 94.6259V96.0054C407.706 98.7643 406.327 100.392 403.568 100.392C400.809 100.392 399.43 98.7919 399.43 96.0054V94.6259H402.189V96.2537C402.189 97.4952 402.727 97.9642 403.568 97.9642C404.409 97.9642 404.947 97.5504 404.947 96.0054V94.6259C404.947 93.012 404.396 92.405 403.154 92.405H402.23V89.922H403.292C404.313 89.922 404.947 89.4668 404.947 88.0736L405.03 86.9838Z" fill="#263238"/>
<path d="M246.239 159.598H143.484V175.489H246.239V159.598Z" fill="white" stroke="#263238" stroke-linecap="round" stroke-linejoin="round"/>
<path d="M371.7 159.598H268.945V175.489H371.7V159.598Z" fill="white" stroke="#263238" stroke-linecap="round" stroke-linejoin="round"/>
<path d="M316.633 190.829H143.484V206.72H316.633V190.829Z" fill="white" stroke="#263238" stroke-linecap="round" stroke-linejoin="round"/>
<path d="M316.633 220.914H143.484V236.805H316.633V220.914Z" fill="white" stroke="#263238" stroke-linecap="round" stroke-linejoin="round"/>
<path d="M147.736 131.43C149.515 131.43 150.412 132.478 150.412 134.34V134.699H148.702V134.216C148.702 133.388 148.37 133.071 147.791 133.071C147.212 133.071 146.881 133.388 146.881 134.216C146.881 136.603 150.44 137.044 150.44 140.355C150.44 142.203 149.515 143.265 147.681 143.265C145.846 143.265 144.922 142.203 144.922 140.355V139.651H146.646V140.479C146.646 141.307 147.005 141.596 147.584 141.596C148.164 141.596 148.536 141.307 148.536 140.479C148.536 138.092 144.977 137.637 144.977 134.34C145.06 132.506 145.97 131.43 147.736 131.43Z" fill="#263238"/>
<path d="M150.945 131.554H156.642V133.209H154.739V143.141H152.918V133.209H151.014L150.945 131.554Z" fill="#263238"/>
<path d="M159.196 136.437H161.693V138.092H159.196V141.486H162.327V143.141H157.375V131.554H162.327V133.209H159.196V136.437Z" fill="#263238"/>
<path d="M168.855 134.423V135.927C168.855 137.775 167.958 138.782 166.096 138.782H165.227V143.141H163.406V131.554H166.096C167.958 131.554 168.855 132.506 168.855 134.423ZM165.282 133.209V137.127H166.151C166.731 137.127 167.034 136.865 167.034 136.037V134.299C167.034 133.471 166.731 133.209 166.151 133.209H165.282Z" fill="#263238"/>
<path d="M175.776 134.395C175.776 133.361 175.404 133.016 174.838 133.016C174.273 133.016 173.886 133.333 173.886 134.161V134.906H172.162V134.285C172.103 133.902 172.133 133.511 172.249 133.142C172.364 132.773 172.563 132.435 172.829 132.154C173.095 131.873 173.422 131.657 173.785 131.522C174.147 131.386 174.536 131.336 174.921 131.374C176.714 131.374 177.68 132.423 177.68 134.285V134.574C177.755 135.058 177.67 135.552 177.438 135.983C177.207 136.413 176.841 136.757 176.397 136.961C176.838 137.181 177.198 137.534 177.428 137.969C177.658 138.404 177.746 138.901 177.68 139.389V140.299C177.68 142.148 176.756 143.21 174.921 143.21C174.536 143.248 174.147 143.198 173.785 143.062C173.422 142.927 173.095 142.711 172.829 142.43C172.563 142.149 172.364 141.811 172.249 141.442C172.133 141.073 172.103 140.682 172.162 140.299V139.403H173.886V140.479C173.886 141.306 174.259 141.61 174.838 141.61C175.418 141.61 175.776 141.334 175.776 140.313V139.403C175.776 138.327 175.404 137.927 174.59 137.927H173.969V136.271H174.687C175.362 136.271 175.776 135.968 175.776 135.043V134.395Z" fill="#263238"/>
<path d="M263.594 138.023H277.388" stroke="#263238" stroke-miterlimit="10"/>
<path d="M212.555 138.023H257.387" stroke="#263238" stroke-miterlimit="10"/>
<path d="M192.555 138.023H206.349" stroke="#263238" stroke-miterlimit="10"/>
<path d="M142.672 265.856H405.677" stroke="#263238" stroke-linecap="round" stroke-linejoin="round"/>
<path d="M286.88 457.269L300.868 578.467L315.876 577.432L319.504 484.72L328.829 483.685L387.359 487.313C390.436 486.621 393.549 486.101 396.684 485.754C398.753 485.754 401.347 480.057 388.918 474.884C376.489 469.711 290.453 453.13 288.439 453.13C286.425 453.13 286.88 457.269 286.88 457.269Z" fill="#263238" stroke="#263238" stroke-linecap="round" stroke-linejoin="round"/>
<path d="M368.195 440.123C368.195 440.123 314.396 422.314 261.977 433.915C257.687 434.867 248.5 544.271 248.5 544.271L262.488 548.409L284.241 461.904C284.241 461.904 375.395 488.32 394.045 485.727C412.696 483.134 368.195 440.123 368.195 440.123Z" fill="#263238" stroke="#263238" stroke-linecap="round" stroke-linejoin="round"/>
<path d="M383.219 257.36C383.219 257.36 379.08 268.23 379.08 273.403C379.206 276.913 380.026 280.364 381.494 283.555C381.494 283.555 373.37 292.37 374.873 295.708C375.797 297.791 379.936 298.564 379.936 298.564C379.936 298.564 383.564 317.71 386.667 318.745C389.771 319.78 402.724 317.186 402.724 317.186L400.517 343.396L426.216 321.573L424.147 305.02C424.147 305.02 430.354 296.205 437.61 285.859C444.866 275.513 440.714 258.918 436.576 251.152C432.437 243.386 400.834 227.329 379.605 253.745L383.219 257.36Z" fill="#9C9C9C" stroke="#263238" stroke-linecap="round" stroke-linejoin="round"/>
<path d="M467.022 266.078C466.36 263.746 473.671 263.084 471.008 257.428C468.346 251.773 460.373 252.118 460.718 248.131C461.063 244.144 463.697 244.475 459.049 240.144C454.4 235.812 450.772 238.158 449.392 233.84C448.013 229.522 447.075 225.191 447.075 225.191L444.082 222.873C442.109 221.342 440.288 222.873 439.267 224.018C436.508 224.915 433.97 228.501 431.404 228.157C427.597 227.688 426.645 217.7 418.989 218.169C411.333 218.638 414.244 231.012 411.389 230.06C408.533 229.108 402.822 225.301 395.222 227.205C387.621 229.108 395.222 236.24 392.366 235.771C389.511 235.302 372.875 231.964 371.44 236.24C370.005 240.516 380.475 246.227 380.475 246.227C380.475 246.227 367.633 242.42 371.44 249.552C372.647 251.67 374.334 253.476 376.366 254.825C378.397 256.174 380.717 257.028 383.138 257.318C383.138 257.318 378.034 259.208 380.103 261.539C381.896 263.553 387.759 264.022 389.29 264.105L389.566 264.395C389.069 265.636 387.428 270.809 393.552 272.409C395.208 272.837 396.56 273.113 397.691 273.292L398.615 274.313C398.026 275.691 397.542 277.111 397.167 278.562C396.215 282.838 403.816 285.224 406.671 285.224C409.526 285.224 411.899 294.729 409.526 297.639C409.272 297.949 409.083 298.306 408.969 298.69C408.855 299.073 408.82 299.476 408.864 299.874C408.423 300.357 408.05 300.743 407.857 301.005C406.478 302.66 405.195 308.316 406.85 309.282C408.506 310.247 415.127 309.282 415.127 309.282C415.127 309.282 416.12 317.255 419.114 317.931C422.107 318.607 424.424 315.6 425.431 313.268C426.438 310.937 429.087 316.593 433.074 315.931C437.06 315.269 438.716 312.275 440.054 309.944C441.392 307.613 442.702 311.944 449.02 310.606C455.338 309.268 452.676 299.971 452.676 299.971C452.676 299.971 458.662 303.295 461.987 300.646C465.311 297.998 466.304 291.997 466.636 288.011C466.967 284.024 472.291 289.004 472.291 281.693C472.291 274.382 467.712 268.395 467.022 266.078Z" fill="#263238"/>
<path d="M402.71 317.186L409.924 315.31L402.172 329.091L402.71 317.186Z" fill="#263238" stroke="#263238" stroke-linecap="round" stroke-linejoin="round"/>
<path d="M387.782 283.624C387.782 285.39 387.162 286.824 386.403 286.824C385.644 286.824 385.023 285.445 385.023 283.624C385.023 281.803 385.644 280.438 386.403 280.438C387.162 280.438 387.782 281.872 387.782 283.624Z" fill="#263238"/>
<path d="M384.602 275.651C384.602 275.651 387.36 274.464 390.575 277.251" stroke="#263238" stroke-linecap="round" stroke-linejoin="round"/>
<path d="M384.405 389.166L328.662 393.676L310.729 392.007C310.729 392.007 286.051 400.394 290.865 402.008C294.281 402.926 297.884 402.888 301.28 401.898C305.919 403.74 310.856 404.721 315.847 404.795C319.903 404.755 323.939 404.212 327.862 403.181L390.047 412.533L384.405 389.166Z" fill="#263238" stroke="#263238" stroke-linecap="round" stroke-linejoin="round"/>
<path d="M425.164 318.469C425.164 318.469 393.051 349.548 387.919 357.314C382.787 365.08 380.677 371.812 380.677 378.544C380.677 385.275 385.339 400.298 385.339 400.298L379.118 422.576L360.992 439.129L389.478 484.651C389.478 484.651 402.431 487.244 411.232 482.071C420.033 476.898 425.633 454.689 425.633 443.805C425.633 432.922 423.564 409.623 423.564 409.623C423.564 409.623 435.482 372.378 439.11 358.349C442.738 344.32 443.249 331.932 439.621 325.242C435.993 318.552 430.337 314.841 425.164 318.469Z" fill="white" stroke="#263238" stroke-linecap="round" stroke-linejoin="round"/>
<path d="M387.863 357.355C386.829 358.9 385.875 360.498 385.008 362.142C398.623 364.032 417.259 366.942 435.62 370.846C436.337 368.418 436.999 366.115 437.606 363.949C420.28 360.252 402.72 357.438 389.201 355.507C388.663 356.21 388.208 356.804 387.863 357.355Z" fill="#5C4163" stroke="#263238" stroke-linecap="round" stroke-linejoin="round"/>
<path d="M439.58 356.597C440.159 354.224 440.642 351.893 441.028 349.631L403.521 339.975C401.562 341.975 399.659 343.961 397.852 345.851L439.58 356.597Z" fill="#5C4163" stroke="#263238" stroke-linecap="round" stroke-linejoin="round"/>
<path d="M424.506 406.822L426.7 399.856C413.098 398.863 398.159 397.746 384.227 396.684C384.834 398.863 385.289 400.298 385.289 400.298L384.309 403.815C397.483 404.822 411.54 405.871 424.506 406.822Z" fill="#5C4163" stroke="#263238" stroke-linecap="round" stroke-linejoin="round"/>
<path d="M441.913 342.775C442.132 340.303 442.183 337.819 442.065 335.34L416.476 327.008L410.82 332.636L441.913 342.775Z" fill="#5C4163" stroke="#263238" stroke-linecap="round" stroke-linejoin="round"/>
<path d="M408.491 483.437C397.069 474.319 382.461 462.745 368.859 451.806L380.198 469.96L399.428 485.299C402.528 485.162 405.587 484.533 408.491 483.437Z" fill="#5C4163" stroke="#263238" stroke-linecap="round" stroke-linejoin="round"/>
<path d="M424.021 414.464C409.329 414.23 394.266 413.83 381.685 413.195L379.727 420.217C392.969 420.92 409.012 421.348 424.572 421.596C424.365 418.906 424.172 416.451 424.021 414.464Z" fill="#5C4163" stroke="#263238" stroke-linecap="round" stroke-linejoin="round"/>
<path d="M381.356 371.798C380.87 374.014 380.625 376.276 380.625 378.544V378.889C395.247 379.33 413.594 380.903 431.982 382.875C432.699 380.544 433.361 378.213 434.092 375.978C415.373 373.909 396.544 372.267 381.356 371.798Z" fill="#5C4163" stroke="#263238" stroke-linecap="round" stroke-linejoin="round"/>
<path d="M380.195 442.881C374.801 440.384 369.6 437.984 364.703 435.75L360.938 439.184L363.269 442.909L377.201 449.323C391.644 455.686 406.432 461.236 421.495 465.946C422.268 463.711 422.957 461.393 423.523 459.048C408.915 454.372 392.61 448.592 380.195 442.881Z" fill="#5C4163" stroke="#263238" stroke-linecap="round" stroke-linejoin="round"/>
<path d="M425.639 443.805C425.639 442.178 425.639 440.26 425.515 438.177C408.391 435.304 391.461 431.379 374.82 426.424L368.695 432.011C387.345 437.729 406.354 442.199 425.597 445.392C425.639 444.84 425.639 444.261 425.639 443.805Z" fill="#5C4163" stroke="#263238" stroke-linecap="round" stroke-linejoin="round"/>
<path d="M300.864 578.467L283.249 598.152C283.249 598.152 269.785 602.29 267.716 604.373C265.647 606.456 269.785 607.477 274.958 609.546C280.131 611.615 299.305 608.511 305.527 607.987C311.748 607.463 317.431 607.987 319.5 602.814C321.57 597.641 319.5 591.93 318.99 589.861C318.48 587.792 315.873 577.446 315.873 577.446L300.864 578.467Z" fill="#9C9C9C" stroke="#263238" stroke-linecap="round" stroke-linejoin="round"/>
<path d="M282.366 598.428C279.386 599.38 269.468 602.566 267.716 604.373C265.647 606.442 269.785 607.477 274.958 609.546C280.131 611.615 299.305 608.512 305.527 607.987C311.748 607.463 317.431 607.987 319.5 602.814C321.57 597.642 319.5 591.931 318.99 589.861C318.99 589.627 318.838 589.282 318.742 588.854C309.693 594.524 294.312 600.745 291.015 600.745C288.03 600.419 285.114 599.637 282.366 598.428Z" fill="#5C4163" stroke="#263238" stroke-linecap="round" stroke-linejoin="round"/>
<path d="M248.546 544.284C248.546 544.284 228.379 566.562 225.758 569.666C223.137 572.77 215.412 573.804 215.923 577.432C216.433 581.06 224.723 580.026 228.338 579.501C231.952 578.977 254.754 573.294 257.858 572.259C260.962 571.225 265.114 569.666 265.638 565.003C266.162 560.341 262.52 548.45 262.52 548.45L248.546 544.284Z" fill="#9C9C9C" stroke="#263238" stroke-linecap="round" stroke-linejoin="round"/>
<path d="M265.62 565.004C265.938 562.093 264.641 556.368 263.634 552.464C258.544 554.947 253.633 561.665 251.109 562.934C248.005 564.479 224.182 572.259 224.182 572.259L223.092 571.639C219.837 573.432 215.505 574.701 215.891 577.432C216.416 581.06 224.692 580.026 228.306 579.502C231.92 578.977 254.723 573.294 257.827 572.259C260.93 571.225 265.124 569.666 265.62 565.004Z" fill="#5C4163" stroke="#263238" stroke-linecap="round" stroke-linejoin="round"/>
<path d="M436.342 323.614C431.845 321.118 422.851 325.615 419.858 330.608L415.871 345.589L401.387 394.035L328.663 393.676C328.663 393.676 308.081 389.138 305.088 389.207C302.094 389.276 286.824 399.111 286.852 400.601C286.879 402.091 290.88 401.981 290.88 401.981L297.86 401.332L305.322 399.663C305.322 399.663 311.847 401.512 314.854 401.443C317.371 401.276 319.868 400.888 322.317 400.284C322.317 400.284 400.877 418.051 405.87 418.051C410.864 418.051 416.368 416.548 418.368 413.058C420.368 409.568 441.336 357.618 442.329 346.127C443.322 334.636 440.812 326.111 436.342 323.614Z" fill="#9C9C9C" stroke="#263238" stroke-linecap="round" stroke-linejoin="round"/>
<path d="M291.344 401.181C291.344 401.181 302.931 394.987 304.214 394.739" stroke="#263238" stroke-linecap="round" stroke-linejoin="round"/>
<path d="M302.426 391.387C302.426 391.387 289.28 398.863 288.508 401.691" stroke="#263238" stroke-linecap="round" stroke-linejoin="round"/>
<path d="M458.746 331.146L450.469 330.677C450.469 330.677 429.157 392.297 426.37 415.458C423.584 438.618 424.522 458.069 425.915 464.552C427.309 471.035 434.716 483.547 434.716 483.547L443.972 485.865C443.972 485.865 434.316 460.841 433.792 453.903C433.268 446.964 434.523 419.417 435.171 415.913C440.248 389.083 458.746 331.146 458.746 331.146Z" fill="#6E6E6E" stroke="#263238" stroke-linecap="round" stroke-linejoin="round"/>
<path d="M384.251 567.417C384.251 567.417 338.329 590.578 337.35 595.669C336.831 599.509 336.831 603.402 337.35 607.242L338.977 605.628L343.378 595.2L384.596 575.749L384.251 567.417Z" fill="#6E6E6E" stroke="#263238" stroke-linecap="round" stroke-linejoin="round"/>
<path d="M345.755 605.394C345.757 606.404 345.46 607.392 344.901 608.233C344.342 609.074 343.546 609.731 342.614 610.119C341.681 610.508 340.655 610.611 339.664 610.415C338.673 610.22 337.762 609.735 337.047 609.022C336.331 608.308 335.844 607.399 335.646 606.409C335.448 605.418 335.548 604.391 335.934 603.458C336.32 602.524 336.974 601.726 337.814 601.165C338.653 600.603 339.641 600.304 340.651 600.304C342.002 600.304 343.298 600.84 344.255 601.794C345.212 602.748 345.751 604.043 345.755 605.394Z" fill="#263238" stroke="#263238" stroke-linecap="round" stroke-linejoin="round"/>
<path d="M397.619 567.417C397.619 567.417 443.486 590.578 444.41 595.669C444.928 599.509 444.928 603.402 444.41 607.242L442.782 605.656L438.382 595.227L397.164 575.777L397.619 567.417Z" fill="#6E6E6E" stroke="#263238" stroke-linecap="round" stroke-linejoin="round"/>
<path d="M436.078 605.394C436.078 606.401 436.377 607.385 436.936 608.222C437.495 609.059 438.29 609.711 439.22 610.097C440.15 610.482 441.174 610.583 442.161 610.386C443.149 610.19 444.056 609.705 444.768 608.993C445.479 608.281 445.964 607.374 446.161 606.387C446.357 605.4 446.256 604.376 445.871 603.446C445.486 602.516 444.833 601.721 443.996 601.162C443.159 600.602 442.175 600.304 441.168 600.304C439.819 600.307 438.527 600.845 437.573 601.799C436.619 602.752 436.082 604.045 436.078 605.394Z" fill="#263238" stroke="#263238" stroke-linecap="round" stroke-linejoin="round"/>
<path d="M393.923 491.907H386.516V572.508H393.923V491.907Z" fill="#263238" stroke="#263238" stroke-linecap="round" stroke-linejoin="round"/>
<path d="M401.33 499.783H379.562V514.612H401.33V499.783Z" fill="#263238" stroke="#263238" stroke-linecap="round" stroke-linejoin="round"/>
<path d="M442.188 484.858C426.145 483.175 374.471 478.692 328.135 484.858C327.742 484.917 327.373 485.086 327.071 485.345C326.769 485.603 326.545 485.942 326.426 486.321C326.307 486.701 326.296 487.106 326.396 487.491C326.496 487.876 326.702 488.226 326.99 488.5C331.915 493.148 345.585 501.59 380.968 503.908C417.524 506.308 436.146 495.079 443.471 489.037C443.817 488.732 444.067 488.334 444.192 487.89C444.317 487.446 444.312 486.975 444.177 486.534C444.041 486.093 443.782 485.701 443.429 485.403C443.076 485.106 442.646 484.917 442.188 484.858Z" fill="#6E6E6E" stroke="#263238" stroke-linecap="round" stroke-linejoin="round"/>
<path d="M326.937 488.499L327.034 488.582C327.409 488.93 327.901 489.127 328.413 489.134H443.335H443.418C443.779 488.832 444.043 488.431 444.177 487.98C444.31 487.529 444.308 487.048 444.169 486.599C444.031 486.149 443.762 485.751 443.398 485.453C443.034 485.156 442.589 484.972 442.121 484.927C426.064 483.244 374.404 478.76 328.082 484.927C327.7 484.991 327.343 485.159 327.05 485.412C326.757 485.666 326.539 485.995 326.421 486.364C326.303 486.733 326.288 487.128 326.379 487.504C326.471 487.881 326.664 488.225 326.937 488.499Z" fill="#263238" stroke="#263238" stroke-linecap="round" stroke-linejoin="round"/>
<path d="M399.016 559.996H381.883V578.067H399.016V559.996Z" fill="#263238" stroke="#263238" stroke-linecap="round" stroke-linejoin="round"/>
<path d="M391.154 569.032H388.602V610.484H391.154V569.032Z" fill="#6E6E6E" stroke="#263238" stroke-linecap="round" stroke-linejoin="round"/>
<path d="M392.085 599.683H387.602V610.539H392.085V599.683Z" fill="#263238" stroke="#263238" stroke-linecap="round" stroke-linejoin="round"/>
<path d="M407.81 489.134H397.616L391.133 427.059H398.085L407.81 489.134Z" fill="#6E6E6E" stroke="#263238" stroke-linecap="round" stroke-linejoin="round"/>
<path d="M425.414 431.225H355.477C355.477 431.225 360.567 421.969 363.753 421.045C366.94 420.12 419.8 421.045 419.8 421.045C419.8 421.045 425.414 422.893 425.414 431.225Z" fill="#263238" stroke="#263238" stroke-linecap="round" stroke-linejoin="round"/>
<path d="M355.477 431.225H425.414C425.412 430.449 425.357 429.675 425.249 428.907H356.842C356.015 430.259 355.477 431.225 355.477 431.225Z" fill="#6E6E6E" stroke="#263238" stroke-linecap="round" stroke-linejoin="round"/>
<path d="M138.709 418.727L146.599 439.046C149.358 444.813 150.489 454.62 149.744 460.98L131.232 607.753C131.184 608.146 131.219 608.546 131.334 608.925C131.45 609.304 131.645 609.654 131.905 609.954C132.165 610.253 132.485 610.494 132.845 610.661C133.204 610.829 133.595 610.919 133.991 610.926C134.65 610.935 135.291 610.707 135.797 610.285C136.303 609.862 136.641 609.272 136.75 608.622L172.119 420.686H159.152L156.876 431.501C156.789 431.892 156.575 432.244 156.269 432.503C155.962 432.762 155.579 432.913 155.178 432.933C154.778 432.954 154.382 432.842 154.05 432.616C153.719 432.389 153.471 432.061 153.345 431.68L148.972 417.886L138.709 418.727Z" fill="white" stroke="#263238" stroke-linecap="round" stroke-linejoin="round"/>
<path d="M157.883 426.728H170.974L172.119 420.686H159.152L157.883 426.728Z" fill="#263238" stroke="#263238" stroke-linecap="round" stroke-linejoin="round"/>
<path d="M148.973 417.913L138.641 418.727L141.744 426.728H151.773L148.973 417.913Z" fill="#263238" stroke="#263238" stroke-linecap="round" stroke-linejoin="round"/>
<path d="M337.862 418.727L329.972 439.046C327.213 444.813 326.068 454.62 326.813 460.98L345.339 607.753C345.387 608.146 345.352 608.546 345.236 608.925C345.12 609.304 344.926 609.654 344.666 609.954C344.406 610.253 344.085 610.494 343.726 610.661C343.367 610.829 342.976 610.919 342.58 610.926C341.92 610.935 341.28 610.707 340.774 610.285C340.268 609.862 339.93 609.272 339.821 608.622L304.383 420.686H317.35L319.626 431.501C319.708 431.895 319.918 432.25 320.224 432.512C320.53 432.773 320.914 432.926 321.315 432.947C321.717 432.967 322.114 432.854 322.445 432.625C322.776 432.396 323.021 432.064 323.143 431.68L327.53 417.886L337.862 418.727Z" fill="white" stroke="#263238" stroke-linecap="round" stroke-linejoin="round"/>
<path d="M317.35 420.686H304.383L305.528 426.728H318.619L317.35 420.686Z" fill="#263238" stroke="#263238" stroke-linecap="round" stroke-linejoin="round"/>
<path d="M324.727 426.728H334.755L337.859 418.727L327.527 417.913L324.727 426.728Z" fill="#263238" stroke="#263238" stroke-linecap="round" stroke-linejoin="round"/>
<path d="M352.688 408.574H124.789V420.617H352.688V408.574Z" fill="white" stroke="#263238" stroke-linecap="round" stroke-linejoin="round"/>
<path d="M335.787 405.181H277.547V408.657H335.787V405.181Z" fill="white" stroke="#263238" stroke-linecap="round" stroke-linejoin="round"/>
<path d="M242.455 407.885H217.046C214.891 407.884 212.818 407.057 211.255 405.573C209.692 404.09 208.758 402.063 208.645 399.911C208.595 398.981 208.702 398.048 208.962 397.153L224.881 351.369C225.042 350.904 225.381 350.522 225.823 350.308C226.266 350.093 226.775 350.063 227.24 350.224C227.704 350.385 228.086 350.724 228.301 351.166C228.516 351.608 228.546 352.118 228.385 352.583L212.494 398.27C212.362 398.75 212.31 399.249 212.342 399.746C212.409 400.949 212.933 402.08 213.808 402.909C214.683 403.737 215.841 404.2 217.046 404.202H242.455C242.92 404.242 243.352 404.454 243.667 404.798C243.982 405.141 244.157 405.591 244.157 406.057C244.157 406.523 243.982 406.972 243.667 407.316C243.352 407.659 242.92 407.872 242.455 407.912V407.885Z" fill="#263238" stroke="#263238" stroke-linecap="round" stroke-linejoin="round"/>
<path d="M235.886 288.687L263.944 396.118L260.882 398.422C260.882 398.422 225.609 370.791 225.609 347.699C225.609 324.607 231.748 289.362 231.748 289.362L235.886 288.687Z" fill="white" stroke="#263238" stroke-linecap="round" stroke-linejoin="round"/>
<path d="M235.891 288.687L231.711 289.418L260.886 398.422L263.949 396.118L235.891 288.687Z" fill="#263238" stroke="#263238" stroke-linecap="round" stroke-linejoin="round"/>
<path d="M158.212 386.876C158.212 386.876 148.253 370.929 156.226 361.963C164.199 352.997 177.152 357.356 179.801 365.632C182.449 373.909 176.821 387.883 176.821 387.883L158.212 386.876Z" fill="#5C4163" stroke="#263238" stroke-linecap="round" stroke-linejoin="round"/>
<path d="M158.558 368.612C156.889 368.612 150.585 366.28 148.585 363.287C146.584 360.294 146.267 353.631 151.909 353.631C157.551 353.631 159.551 363.604 159.551 363.604L159.882 367.246" fill="#5C4163"/>
<path d="M158.558 368.612C156.889 368.612 150.585 366.28 148.585 363.287C146.584 360.294 146.267 353.631 151.909 353.631C157.551 353.631 159.551 363.604 159.551 363.604L159.882 367.246" stroke="#263238" stroke-linecap="round" stroke-linejoin="round"/>
<path d="M163.665 362.404C162.175 361.659 157.568 356.762 157.112 353.203C156.657 349.644 159.333 343.547 164.396 346.058C169.458 348.568 166.782 358.39 166.782 358.39L165.403 361.811" fill="#5C4163"/>
<path d="M163.665 362.404C162.175 361.659 157.568 356.762 157.112 353.203C156.657 349.644 159.333 343.547 164.396 346.058C169.458 348.568 166.782 358.39 166.782 358.39L165.403 361.811" stroke="#263238" stroke-linecap="round" stroke-linejoin="round"/>
<path d="M169.689 364.073C168.861 362.694 167.744 356.003 169.344 352.789C170.944 349.575 176.558 345.989 179.358 350.886C182.159 355.783 174.572 362.459 174.572 362.459L171.565 364.57" fill="#5C4163"/>
<path d="M169.689 364.073C168.861 362.694 167.744 356.003 169.344 352.789C170.944 349.575 176.558 345.989 179.358 350.886C182.159 355.783 174.572 362.459 174.572 362.459L171.565 364.57" stroke="#263238" stroke-linecap="round" stroke-linejoin="round"/>
<path d="M171.678 375.978C171.402 374.336 172.644 367.701 175.265 365.273C177.886 362.845 184.383 361.383 185.321 366.956C186.259 372.529 176.755 376.129 176.755 376.129L173.21 377.067" fill="#5C4163"/>
<path d="M171.678 375.978C171.402 374.336 172.644 367.701 175.265 365.273C177.886 362.845 184.383 361.383 185.321 366.956C186.259 372.529 176.755 376.129 176.755 376.129L173.21 377.067" stroke="#263238" stroke-linecap="round" stroke-linejoin="round"/>
<path d="M149.312 359.287L150.43 361.052" stroke="white" stroke-linecap="round" stroke-linejoin="round"/>
<path d="M152.516 363.618L154.281 365.053" stroke="white" stroke-linecap="round" stroke-linejoin="round"/>
<path d="M150.602 355.921L152.367 358.487" stroke="white" stroke-linecap="round" stroke-linejoin="round"/>
<path d="M154.766 360.569L156.697 364.087" stroke="white" stroke-linecap="round" stroke-linejoin="round"/>
<path d="M159.25 352.072L159.898 354.003" stroke="white" stroke-linecap="round" stroke-linejoin="round"/>
<path d="M161.5 357.521L162.617 359.121" stroke="white" stroke-linecap="round" stroke-linejoin="round"/>
<path d="M161.016 348.224L162.464 351.438" stroke="white" stroke-linecap="round" stroke-linejoin="round"/>
<path d="M155.414 370.819L155.883 373.716" stroke="white" stroke-linecap="round" stroke-linejoin="round"/>
<path d="M156.844 376.433L157.492 378.833" stroke="white" stroke-linecap="round" stroke-linejoin="round"/>
<path d="M158.445 370.984L159.094 374.185" stroke="white" stroke-linecap="round" stroke-linejoin="round"/>
<path d="M160.531 376.433L161.014 378.833" stroke="white" stroke-linecap="round" stroke-linejoin="round"/>
<path d="M161.664 366.818L162.616 371.302" stroke="white" stroke-linecap="round" stroke-linejoin="round"/>
<path d="M163.898 375.633L164.064 377.716" stroke="white" stroke-linecap="round" stroke-linejoin="round"/>
<path d="M165.664 365.37L166.464 369.536" stroke="white" stroke-linecap="round" stroke-linejoin="round"/>
<path d="M166.461 373.867L166.778 378.199" stroke="white" stroke-linecap="round" stroke-linejoin="round"/>
<path d="M170.312 366.984V370.501" stroke="white" stroke-linecap="round" stroke-linejoin="round"/>
<path d="M169.828 374.985L169.994 377.716" stroke="white" stroke-linecap="round" stroke-linejoin="round"/>
<path d="M174.322 350.307L173.508 352.238" stroke="white" stroke-linecap="round" stroke-linejoin="round"/>
<path d="M173.191 354.472L172.391 357.203" stroke="white" stroke-linecap="round" stroke-linejoin="round"/>
<path d="M177.845 354.003L176.562 356.555" stroke="white" stroke-linecap="round" stroke-linejoin="round"/>
<path d="M173.839 359.452L172.391 361.052" stroke="white" stroke-linecap="round" stroke-linejoin="round"/>
<path d="M170.795 353.838L170.312 355.921" stroke="white" stroke-linecap="round" stroke-linejoin="round"/>
<path d="M177.844 365.37L176.078 368.267" stroke="white" stroke-linecap="round" stroke-linejoin="round"/>
<path d="M174.958 370.019L173.992 372.584" stroke="white" stroke-linecap="round" stroke-linejoin="round"/>
<path d="M176.406 373.867L179.289 372.267" stroke="white" stroke-linecap="round" stroke-linejoin="round"/>
<path d="M181.044 365.37L179.609 367.784" stroke="white" stroke-linecap="round" stroke-linejoin="round"/>
<path d="M182.488 368.101L180.57 369.536" stroke="white" stroke-linecap="round" stroke-linejoin="round"/>
<path d="M180.424 381.316H153.18V408.56H180.424V381.316Z" fill="#263238" stroke="#263238" stroke-linecap="round" stroke-linejoin="round"/>
<path d="M491.469 412.174L507.263 563.61" stroke="#263238" stroke-width="2" stroke-miterlimit="10"/>
<path d="M504.728 534.628L497.555 527.068" stroke="#263238" stroke-width="2" stroke-miterlimit="10"/>
<path d="M499.734 529.331C499.721 528.174 499.46 527.033 498.967 525.985C498.474 524.938 497.762 524.009 496.879 523.261C495.044 521.606 485.36 517.537 484.464 520.944C483.443 524.654 493.361 531.938 499.734 529.331Z" fill="#5C4163" stroke="#263238" stroke-miterlimit="10"/>
<path d="M499.738 529.331L490.523 523.592" stroke="#263238" stroke-width="0.5" stroke-miterlimit="10"/>
<path d="M506.519 551.857L499.359 544.284" stroke="#263238" stroke-width="2" stroke-miterlimit="10"/>
<path d="M501.498 546.56C501.485 545.402 501.225 544.26 500.735 543.211C500.245 542.162 499.536 541.23 498.656 540.477C496.808 538.835 487.138 534.766 486.241 538.173C485.248 541.884 495.152 549.167 501.498 546.56Z" fill="#5C4163" stroke="#263238" stroke-miterlimit="10"/>
<path d="M501.527 546.56L492.312 540.808" stroke="#263238" stroke-width="0.5" stroke-miterlimit="10"/>
<path d="M500.345 492.61L493.172 485.037" stroke="#263238" stroke-width="2" stroke-miterlimit="10"/>
<path d="M495.351 487.299C495.338 486.142 495.075 485.001 494.583 483.954C494.09 482.907 493.378 481.978 492.496 481.229C490.661 479.588 480.977 475.505 480.081 478.926C479.06 482.623 488.978 489.906 495.351 487.299Z" fill="#5C4163" stroke="#263238" stroke-miterlimit="10"/>
<path d="M495.348 487.299L486.133 481.561" stroke="#263238" stroke-width="0.5" stroke-miterlimit="10"/>
<path d="M502.136 509.825L494.977 502.266" stroke="#263238" stroke-width="2" stroke-miterlimit="10"/>
<path d="M497.142 504.528C497.129 503.37 496.869 502.229 496.379 501.179C495.889 500.13 495.18 499.198 494.3 498.445C492.452 496.803 482.782 492.734 481.885 496.141C480.809 499.852 490.769 507.136 497.142 504.528Z" fill="#5C4163" stroke="#263238" stroke-miterlimit="10"/>
<path d="M497.144 504.529L487.93 498.79" stroke="#263238" stroke-width="0.5" stroke-miterlimit="10"/>
<path d="M497.417 464.621L490.258 457.062" stroke="#263238" stroke-width="2" stroke-miterlimit="10"/>
<path d="M492.424 459.324C492.411 458.166 492.151 457.024 491.66 455.975C491.17 454.926 490.462 453.993 489.582 453.24C487.733 451.599 478.063 447.529 477.167 450.937C476.146 454.647 486.051 461.931 492.424 459.324Z" fill="#5C4163" stroke="#263238" stroke-miterlimit="10"/>
<path d="M492.426 459.324L483.211 453.585" stroke="#263238" stroke-width="0.5" stroke-miterlimit="10"/>
<path d="M494.48 436.522L487.32 428.962" stroke="#263238" stroke-width="2" stroke-miterlimit="10"/>
<path d="M489.5 431.225C489.486 430.065 489.224 428.923 488.732 427.873C488.239 426.824 487.527 425.892 486.644 425.141C484.81 423.5 475.126 419.43 474.229 422.838C473.209 426.548 483.113 433.832 489.5 431.225Z" fill="#5C4163" stroke="#263238" stroke-miterlimit="10"/>
<path d="M489.504 431.224L480.289 425.486" stroke="#263238" stroke-width="0.5" stroke-miterlimit="10"/>
<path d="M503.516 524.448L508.964 515.564" stroke="#263238" stroke-width="2" stroke-miterlimit="10"/>
<path d="M507.305 518.226C507.078 517.09 507.098 515.919 507.362 514.791C507.626 513.663 508.129 512.605 508.836 511.688C510.298 509.701 518.934 503.714 520.534 506.873C522.272 510.294 514.078 519.454 507.305 518.226Z" fill="#5C4163" stroke="#263238" stroke-miterlimit="10"/>
<path d="M507.305 518.226L515.595 510.294" stroke="#263238" stroke-width="0.5" stroke-miterlimit="10"/>
<path d="M498.781 479.119L504.23 470.235" stroke="#263238" stroke-width="2" stroke-miterlimit="10"/>
<path d="M502.578 472.898C502.352 471.762 502.371 470.59 502.636 469.462C502.9 468.335 503.402 467.276 504.11 466.359C505.572 464.373 514.207 458.4 515.807 461.545C517.545 464.952 509.365 474.139 502.578 472.898Z" fill="#5C4163" stroke="#263238" stroke-miterlimit="10"/>
<path d="M502.578 472.898L510.869 464.966" stroke="#263238" stroke-width="0.5" stroke-miterlimit="10"/>
<path d="M496.711 459.2L502.16 450.316" stroke="#263238" stroke-width="2" stroke-miterlimit="10"/>
<path d="M500.495 452.979C500.273 451.844 500.296 450.674 500.562 449.549C500.828 448.424 501.333 447.368 502.04 446.454C503.489 444.454 512.124 438.481 513.724 441.626C515.476 445.047 507.282 454.22 500.495 452.979Z" fill="#5C4163" stroke="#263238" stroke-miterlimit="10"/>
<path d="M500.492 452.978L508.796 445.046" stroke="#263238" stroke-width="0.5" stroke-miterlimit="10"/>
<path d="M493.664 429.997L499.113 421.113" stroke="#263238" stroke-width="2" stroke-miterlimit="10"/>
<path d="M497.448 423.776C497.226 422.641 497.249 421.471 497.515 420.346C497.782 419.221 498.286 418.165 498.993 417.251C500.442 415.264 509.077 409.278 510.677 412.423C512.429 415.844 504.263 425.017 497.448 423.776Z" fill="#5C4163" stroke="#263238" stroke-miterlimit="10"/>
<path d="M497.445 423.775L505.75 415.857" stroke="#263238" stroke-width="0.5" stroke-miterlimit="10"/>
<path d="M491.337 411.333C491.11 410.197 491.129 409.025 491.393 407.897C491.657 406.769 492.16 405.711 492.868 404.794C494.331 402.808 502.966 396.821 504.566 399.966C506.304 403.387 498.124 412.533 491.337 411.333Z" fill="#5C4163" stroke="#263238" stroke-miterlimit="10"/>
<path d="M491.336 411.333L499.626 403.401" stroke="#263238" stroke-width="0.5" stroke-miterlimit="10"/>
<path d="M491.842 411.664C490.688 411.77 489.525 411.628 488.43 411.247C487.336 410.866 486.335 410.256 485.496 409.457C483.675 407.801 478.599 398.587 481.924 397.318C485.483 395.98 493.745 405.056 491.842 411.664Z" fill="#5C4163" stroke="#263238" stroke-miterlimit="10"/>
<path d="M491.818 411.664L484.797 402.587" stroke="#263238" stroke-width="0.5" stroke-miterlimit="10"/>
<path d="M533.155 433.032L517.43 584.481" stroke="#263238" stroke-width="2" stroke-miterlimit="10"/>
<path d="M520.91 555.596L515.461 546.712" stroke="#263238" stroke-width="2" stroke-miterlimit="10"/>
<path d="M517.114 549.388C517.341 548.252 517.322 547.08 517.058 545.952C516.794 544.824 516.291 543.766 515.582 542.849C514.12 540.863 505.485 534.89 503.885 538.035C502.147 541.456 510.341 550.616 517.114 549.388Z" fill="#5C4163" stroke="#263238" stroke-miterlimit="10"/>
<path d="M517.116 549.388L509.281 541.87" stroke="#263238" stroke-width="0.5" stroke-miterlimit="10"/>
<path d="M525.269 513.564L519.82 504.68" stroke="#263238" stroke-width="2" stroke-miterlimit="10"/>
<path d="M521.487 507.356C521.71 506.219 521.687 505.048 521.421 503.92C521.154 502.792 520.65 501.735 519.942 500.818C518.48 498.831 509.844 492.858 508.244 496.003C506.506 499.438 514.7 508.584 521.487 507.356Z" fill="#5C4163" stroke="#263238" stroke-miterlimit="10"/>
<path d="M521.491 507.356L513.656 499.838" stroke="#263238" stroke-width="0.5" stroke-miterlimit="10"/>
<path d="M523.486 530.793L518.023 521.909" stroke="#263238" stroke-width="2" stroke-miterlimit="10"/>
<path d="M519.695 524.572C519.922 523.435 519.901 522.262 519.634 521.134C519.368 520.006 518.862 518.948 518.15 518.033C516.688 516.06 508.067 510.074 506.466 513.219C504.715 516.64 512.908 525.813 519.695 524.572Z" fill="#5C4163" stroke="#263238" stroke-miterlimit="10"/>
<path d="M519.695 524.572L511.859 517.054" stroke="#263238" stroke-width="0.5" stroke-miterlimit="10"/>
<path d="M528.181 485.589L522.719 476.705" stroke="#263238" stroke-width="2" stroke-miterlimit="10"/>
<path d="M524.382 479.367C524.609 478.23 524.588 477.058 524.321 475.93C524.055 474.802 523.549 473.744 522.838 472.829C521.389 470.842 512.754 464.869 511.154 468.015C509.402 471.436 517.609 480.609 524.382 479.367Z" fill="#5C4163" stroke="#263238" stroke-miterlimit="10"/>
<path d="M524.39 479.367L516.555 471.849" stroke="#263238" stroke-width="0.5" stroke-miterlimit="10"/>
<path d="M531.089 457.475L525.641 448.605" stroke="#263238" stroke-width="2" stroke-miterlimit="10"/>
<path d="M527.293 451.268C527.521 450.132 527.502 448.96 527.238 447.832C526.973 446.704 526.47 445.646 525.762 444.729C524.3 442.743 515.665 436.77 514.064 439.915C512.326 443.336 520.52 452.537 527.293 451.268Z" fill="#5C4163" stroke="#263238" stroke-miterlimit="10"/>
<path d="M527.296 451.268L519.461 443.75" stroke="#263238" stroke-width="0.5" stroke-miterlimit="10"/>
<path d="M521.836 545.374L528.995 537.801" stroke="#263238" stroke-width="2" stroke-miterlimit="10"/>
<path d="M526.812 540.077C526.826 538.917 527.088 537.775 527.581 536.725C528.073 535.676 528.785 534.744 529.668 533.993C531.503 532.352 541.173 528.269 542.083 531.676C543.104 535.387 533.227 542.67 526.812 540.077Z" fill="#5C4163" stroke="#263238" stroke-miterlimit="10"/>
<path d="M526.812 540.077L536.565 534.021" stroke="#263238" stroke-width="0.5" stroke-miterlimit="10"/>
<path d="M526.539 500.045L533.698 492.472" stroke="#263238" stroke-width="2" stroke-miterlimit="10"/>
<path d="M531.516 494.748C531.529 493.589 531.791 492.446 532.284 491.397C532.776 490.347 533.488 489.416 534.371 488.665C536.206 487.023 545.876 482.94 546.786 486.347C547.807 490.058 537.902 497.341 531.516 494.748Z" fill="#5C4163" stroke="#263238" stroke-miterlimit="10"/>
<path d="M531.516 494.748L541.268 488.692" stroke="#263238" stroke-width="0.5" stroke-miterlimit="10"/>
<path d="M528.609 480.126L535.769 472.553" stroke="#263238" stroke-width="2" stroke-miterlimit="10"/>
<path d="M533.586 474.829C533.6 473.67 533.861 472.527 534.354 471.478C534.847 470.428 535.558 469.497 536.441 468.746C538.276 467.104 547.946 463.021 548.856 466.428C549.877 470.139 539.973 477.367 533.586 474.829Z" fill="#5C4163" stroke="#263238" stroke-miterlimit="10"/>
<path d="M533.586 474.829L543.339 468.773" stroke="#263238" stroke-width="0.5" stroke-miterlimit="10"/>
<path d="M531.625 450.923L538.784 443.35" stroke="#263238" stroke-width="2" stroke-miterlimit="10"/>
<path d="M536.625 445.64C536.638 444.482 536.898 443.34 537.388 442.291C537.878 441.241 538.587 440.309 539.467 439.556C541.301 437.915 550.985 433.832 551.882 437.239C552.902 440.936 542.998 448.219 536.625 445.64Z" fill="#5C4163" stroke="#263238" stroke-miterlimit="10"/>
<path d="M536.625 445.626L546.378 439.57" stroke="#263238" stroke-width="0.5" stroke-miterlimit="10"/>
<path d="M533.227 432.176C533.239 431.018 533.5 429.877 533.99 428.828C534.48 427.778 535.188 426.846 536.068 426.093C537.903 424.452 547.587 420.368 548.483 423.789C549.476 427.486 539.572 434.784 533.227 432.176Z" fill="#5C4163" stroke="#263238" stroke-miterlimit="10"/>
<path d="M533.203 432.176L542.956 426.121" stroke="#263238" stroke-width="0.5" stroke-miterlimit="10"/>
<path d="M533.604 432.604C532.448 432.465 531.336 432.079 530.344 431.472C529.351 430.865 528.501 430.052 527.851 429.086C526.472 427.086 523.368 417.03 526.858 416.478C530.652 415.926 536.859 426.534 533.604 432.604Z" fill="#5C4163" stroke="#263238" stroke-miterlimit="10"/>
<path d="M533.601 432.604L528.594 422.272" stroke="#263238" stroke-width="0.5" stroke-miterlimit="10"/>
<path d="M515.141 371.356V562.879" stroke="#263238" stroke-width="2" stroke-miterlimit="10"/>
<path d="M515.299 534.076L508.953 525.813" stroke="#263238" stroke-width="2" stroke-miterlimit="10"/>
<path d="M510.879 528.296C510.985 527.142 510.843 525.979 510.462 524.885C510.081 523.79 509.471 522.79 508.672 521.951C507.017 520.13 497.816 515.053 496.547 518.364C495.167 521.951 504.258 530.227 510.879 528.296Z" fill="#5C4163" stroke="#263238" stroke-miterlimit="10"/>
<path d="M510.879 528.296L502.312 521.62" stroke="#263238" stroke-width="0.5" stroke-miterlimit="10"/>
<path d="M515.299 498.086L508.953 489.823" stroke="#263238" stroke-width="2" stroke-miterlimit="10"/>
<path d="M510.879 492.293C510.985 491.141 510.842 489.98 510.462 488.888C510.081 487.795 509.471 486.798 508.672 485.961C507.017 484.14 497.816 479.064 496.547 482.374C495.167 485.961 504.258 494.224 510.879 492.293Z" fill="#5C4163" stroke="#263238" stroke-miterlimit="10"/>
<path d="M510.879 492.293L502.312 485.63" stroke="#263238" stroke-width="0.5" stroke-miterlimit="10"/>
<path d="M515.299 455.834L508.953 447.557" stroke="#263238" stroke-width="2" stroke-miterlimit="10"/>
<path d="M510.879 450.04C510.985 448.886 510.843 447.723 510.462 446.629C510.081 445.534 509.471 444.534 508.672 443.695C507.017 441.874 497.816 436.797 496.547 440.122C495.167 443.695 504.258 451.971 510.879 450.04Z" fill="#5C4163" stroke="#263238" stroke-miterlimit="10"/>
<path d="M510.879 450.04L502.312 443.377" stroke="#263238" stroke-width="0.5" stroke-miterlimit="10"/>
<path d="M515.299 427.693L508.953 419.43" stroke="#263238" stroke-width="2" stroke-miterlimit="10"/>
<path d="M510.879 421.913C510.985 420.759 510.843 419.596 510.462 418.502C510.081 417.407 509.471 416.407 508.672 415.568C507.017 413.747 497.816 408.671 496.547 411.981C495.167 415.568 504.258 423.845 510.879 421.913Z" fill="#5C4163" stroke="#263238" stroke-miterlimit="10"/>
<path d="M510.879 421.913L502.312 415.237" stroke="#263238" stroke-width="0.5" stroke-miterlimit="10"/>
<path d="M515.299 399.442L508.953 391.179" stroke="#263238" stroke-width="2" stroke-miterlimit="10"/>
<path d="M510.879 393.662C510.985 392.509 510.843 391.345 510.462 390.251C510.081 389.156 509.471 388.156 508.672 387.317C507.017 385.496 497.816 380.42 496.547 383.73C495.167 387.317 504.258 395.58 510.879 393.662Z" fill="#5C4163" stroke="#263238" stroke-miterlimit="10"/>
<path d="M510.879 393.662L502.312 386.986" stroke="#263238" stroke-width="0.5" stroke-miterlimit="10"/>
<path d="M515.156 545.07L521.502 536.808" stroke="#263238" stroke-width="2" stroke-miterlimit="10"/>
<path d="M519.573 539.277C519.467 538.125 519.61 536.964 519.99 535.872C520.371 534.78 520.981 533.782 521.78 532.945C523.435 531.111 532.636 526.048 533.905 529.359C535.285 532.945 526.18 541.208 519.573 539.277Z" fill="#5C4163" stroke="#263238" stroke-miterlimit="10"/>
<path d="M519.57 539.277L528.647 532.255" stroke="#263238" stroke-width="0.5" stroke-miterlimit="10"/>
<path d="M515.156 487.823L521.502 479.561" stroke="#263238" stroke-width="2" stroke-miterlimit="10"/>
<path d="M519.573 482.043C519.467 480.889 519.609 479.726 519.99 478.632C520.371 477.537 520.981 476.537 521.78 475.698C523.436 473.877 532.636 468.801 533.905 472.111C535.285 475.698 526.181 483.975 519.573 482.043Z" fill="#5C4163" stroke="#263238" stroke-miterlimit="10"/>
<path d="M519.57 482.043L528.647 475.008" stroke="#263238" stroke-width="0.5" stroke-miterlimit="10"/>
<path d="M515.156 459.572L521.502 451.309" stroke="#263238" stroke-width="2" stroke-miterlimit="10"/>
<path d="M519.573 453.778C519.467 452.627 519.61 451.465 519.99 450.373C520.371 449.281 520.981 448.283 521.78 447.447C523.435 445.612 532.636 440.549 533.905 443.86C535.285 447.447 526.18 455.71 519.573 453.778Z" fill="#5C4163" stroke="#263238" stroke-miterlimit="10"/>
<path d="M519.57 453.778L528.647 446.757" stroke="#263238" stroke-width="0.5" stroke-miterlimit="10"/>
<path d="M515.156 422.231L521.502 413.954" stroke="#263238" stroke-width="2" stroke-miterlimit="10"/>
<path d="M519.573 416.437C519.467 415.285 519.609 414.124 519.99 413.031C520.37 411.939 520.981 410.941 521.781 410.105C523.436 408.271 532.637 403.208 533.906 406.519C535.285 410.105 526.181 418.368 519.573 416.437Z" fill="#5C4163" stroke="#263238" stroke-miterlimit="10"/>
<path d="M519.57 416.437L528.647 409.416" stroke="#263238" stroke-width="0.5" stroke-miterlimit="10"/>
<path d="M515.156 392.876L521.502 384.599" stroke="#263238" stroke-width="2" stroke-miterlimit="10"/>
<path d="M519.573 387.082C519.467 385.928 519.609 384.765 519.99 383.671C520.371 382.576 520.981 381.576 521.78 380.737C523.436 378.916 532.636 373.84 533.905 377.15C535.285 380.806 526.181 389.082 519.573 387.082Z" fill="#5C4163" stroke="#263238" stroke-miterlimit="10"/>
<path d="M519.57 387.082L528.647 380.061" stroke="#263238" stroke-width="0.5" stroke-miterlimit="10"/>
<path d="M514.768 374.06C514.662 372.906 514.805 371.743 515.185 370.649C515.566 369.554 516.176 368.554 516.975 367.715C518.631 365.894 527.846 360.818 529.115 364.128C530.466 367.715 521.39 375.992 514.768 374.06Z" fill="#5C4163" stroke="#263238" stroke-miterlimit="10"/>
<path d="M514.773 374.06L523.85 367.039" stroke="#263238" stroke-width="0.5" stroke-miterlimit="10"/>
<path d="M515.214 374.447C514.057 374.433 512.917 374.171 511.869 373.678C510.822 373.185 509.893 372.474 509.145 371.591C507.503 369.756 503.448 360.073 506.855 359.176C510.566 358.155 517.835 368.073 515.214 374.447Z" fill="#5C4163" stroke="#263238" stroke-miterlimit="10"/>
<path d="M515.216 374.447L509.188 364.694" stroke="#263238" stroke-width="0.5" stroke-miterlimit="10"/>
<path d="M523.019 612.553H502.741L500.203 561.334H525.557L523.019 612.553Z" fill="#263238" stroke="#263238" stroke-miterlimit="10"/>
</svg>
