<svg width="24" height="24" viewBox="0 0 24 24" fill="none" xmlns="http://www.w3.org/2000/svg">
<path fill-rule="evenodd" clip-rule="evenodd" d="M24 12C24 5.3731 18.6268 0 12 0C5.3731 0 0 5.3731 0 12C0 17.989 4.38762 22.9537 10.1252 23.855V15.4696H7.07748V12H10.1252V9.35562C10.1252 6.34842 11.9173 4.68622 14.6579 4.68622C15.9707 4.68622 17.3443 4.92077 17.3443 4.92077V7.87398H15.8307C14.3406 7.87398 13.8748 8.79875 13.8748 9.7488V11.9999H17.2025L16.671 15.4695H13.8747V23.8548C19.6123 22.9553 23.9998 17.9907 23.9998 11.9999L24 12Z" fill="#1977F3"/>
<path fill-rule="evenodd" clip-rule="evenodd" d="M16.671 15.4693L17.2027 11.9997H13.8749V9.74863C13.8749 8.80025 14.339 7.87382 15.8307 7.87382H17.3445V4.9206C17.3445 4.9206 15.9709 4.68604 14.6579 4.68604C11.9174 4.68604 10.1253 6.3466 10.1253 9.35545V11.9998H7.07758V15.4694H10.1253V23.8548C10.7361 23.9508 11.3622 23.9998 12.0001 23.9998C12.638 23.9998 13.2641 23.9492 13.8749 23.8548V15.4694H16.6712L16.671 15.4693Z" fill="#FEFEFE"/>
</svg>
