<svg width="674" height="657" viewBox="0 0 674 657" fill="none" xmlns="http://www.w3.org/2000/svg">
<path d="M333.552 656.043C514.29 656.043 660.807 576.364 660.807 478.075C660.807 379.785 514.29 300.106 333.552 300.106C152.814 300.106 6.29688 379.785 6.29688 478.075C6.29688 576.364 152.814 656.043 333.552 656.043Z" fill="#F5F5F5"/>
<path d="M333.55 468.758C360.782 468.758 382.858 456.008 382.858 440.281C382.858 424.553 360.782 411.803 333.55 411.803C306.318 411.803 284.242 424.553 284.242 440.281C284.242 456.008 306.318 468.758 333.55 468.758Z" fill="#E0E0E0"/>
<path d="M517.431 544.859C560.479 544.859 595.377 524.711 595.377 499.857C595.377 475.004 560.479 454.856 517.431 454.856C474.382 454.856 439.484 475.004 439.484 499.857C439.484 524.711 474.382 544.859 517.431 544.859Z" fill="#E0E0E0"/>
<path d="M134.939 549.722C177.987 549.722 212.885 529.574 212.885 504.721C212.885 479.867 177.987 459.719 134.939 459.719C91.89 459.719 56.9922 479.867 56.9922 504.721C56.9922 529.574 91.89 549.722 134.939 549.722Z" fill="#E0E0E0"/>
<path d="M633.853 467.879L619.131 461.858C617.281 449.133 616.215 436.306 615.938 423.449C615.937 399.396 630.923 369.981 649.937 374.903C668.952 379.825 644.576 406.735 640.621 427.522C636.666 448.308 633.853 467.879 633.853 467.879Z" fill="#B3A7D1"/>
<path opacity="0.3" d="M633.853 467.879L619.131 461.858C617.281 449.133 616.215 436.306 615.938 423.449C615.937 399.396 630.923 369.981 649.937 374.903C668.952 379.825 644.576 406.735 640.621 427.522C636.666 448.308 633.853 467.879 633.853 467.879Z" fill="black"/>
<path d="M626.721 466.019C626.882 465.997 627.027 465.912 627.126 465.783C627.225 465.654 627.269 465.491 627.248 465.33C620.231 412.594 643.948 383.297 644.182 383.048C644.287 382.921 644.337 382.759 644.322 382.595C644.307 382.432 644.228 382.281 644.101 382.176C643.975 382.071 643.812 382.021 643.649 382.036C643.485 382.051 643.335 382.13 643.23 382.257C642.995 382.55 618.927 412.199 626.017 465.491C626.028 465.572 626.055 465.651 626.096 465.721C626.138 465.792 626.193 465.854 626.258 465.903C626.324 465.952 626.398 465.987 626.478 466.007C626.557 466.027 626.64 466.031 626.721 466.019Z" fill="white"/>
<path d="M641.411 471.395L633.72 467.908C631.417 456.06 631.767 443.848 634.745 432.151C639.682 413.195 656.118 401.505 664.395 403.439C674.517 405.797 675.499 415.158 672.54 421.677C669.009 429.397 644.663 450.301 641.411 471.395Z" fill="#B3A7D1"/>
<path opacity="0.1" d="M641.411 471.395L633.72 467.908C631.417 456.06 631.767 443.848 634.745 432.151C639.682 413.195 656.118 401.505 664.395 403.439C674.517 405.797 675.499 415.158 672.54 421.677C669.009 429.397 644.663 450.301 641.411 471.395Z" fill="black"/>
<path d="M637.409 470.179C637.574 470.161 637.725 470.078 637.829 469.949C637.933 469.82 637.982 469.655 637.966 469.49C634.509 436.033 663.704 410.309 664.011 410.06C664.123 409.941 664.185 409.784 664.185 409.621C664.185 409.458 664.123 409.301 664.011 409.181C663.954 409.123 663.886 409.076 663.81 409.045C663.735 409.013 663.654 408.997 663.572 408.997C663.49 408.997 663.409 409.013 663.334 409.045C663.258 409.076 663.19 409.123 663.133 409.181C662.825 409.445 633.161 435.549 636.662 469.681C636.697 469.845 636.795 469.988 636.935 470.081C637.074 470.174 637.244 470.209 637.409 470.179Z" fill="white"/>
<path d="M49.366 454.402L59.4737 448.63C59.4737 448.63 64.3078 421.955 60.6896 399.015C55.5918 366.787 33.6332 355.64 25.6642 358.848C17.6953 362.056 15.8202 371.607 30.22 390.24C38.7163 401.227 49.6444 424.475 49.366 454.402Z" fill="#B3A7D1"/>
<g opacity="0.15">
<path d="M49.366 454.402L59.4737 448.63C59.4737 448.63 64.3078 421.955 60.6896 399.015C55.5918 366.787 33.6332 355.64 25.6642 358.848C17.6953 362.056 15.8202 371.607 30.22 390.24C38.7163 401.227 49.6444 424.475 49.366 454.402Z" fill="black"/>
</g>
<path d="M53.0242 441.599H52.9217C52.8289 441.587 52.7396 441.556 52.659 441.508C52.5783 441.461 52.5079 441.398 52.452 441.323C52.3961 441.247 52.3557 441.162 52.3332 441.071C52.3107 440.98 52.3066 440.886 52.3211 440.793C56.4813 410.602 44.3521 377.525 30.6994 364.195C30.6146 364.133 30.5441 364.054 30.4927 363.962C30.4412 363.871 30.41 363.769 30.4011 363.665C30.3922 363.56 30.4058 363.455 30.4411 363.356C30.4764 363.258 30.5325 363.168 30.6056 363.092C30.6787 363.017 30.7671 362.958 30.8649 362.92C30.9626 362.882 31.0674 362.866 31.1721 362.872C31.2768 362.877 31.3791 362.906 31.4719 362.955C31.5647 363.003 31.646 363.072 31.7102 363.155C45.5973 376.661 57.9755 410.353 53.7567 440.969C53.7318 441.145 53.6438 441.306 53.509 441.422C53.3743 441.538 53.202 441.601 53.0242 441.599Z" fill="white"/>
<path d="M21.3551 470.589C19.7584 471.497 16.477 469.505 15.2172 468.655C13.0563 467.166 11.3117 465.149 10.1487 462.796C8.85001 460.139 8.40975 457.144 8.88894 454.226C9.14253 452.684 9.50477 451.162 9.97296 449.67L11.2474 445.276C11.7495 443.868 11.9686 442.374 11.892 440.881C11.5111 437.849 8.8157 435.739 6.38399 433.908C3.67396 431.887 0.876033 429.221 0.890682 425.573C1.07969 422.747 2.20903 420.066 4.09878 417.956C5.82734 415.744 7.89282 413.796 9.4749 411.466C10.715 409.832 11.3516 407.818 11.2767 405.768C11.1089 404.52 10.6903 403.319 10.0462 402.238C8.56426 399.985 7.27078 397.613 6.17891 395.148C5.28533 392.599 5.41717 389.435 7.40941 387.603C8.29599 386.941 9.30602 386.462 10.3802 386.196C11.4544 385.929 12.571 385.88 13.6645 386.051C15.7445 386.296 17.745 386.996 19.524 388.101C25.3103 391.31 28.6063 398.165 34.7441 400.641C37.1742 401.398 39.65 402 42.1564 402.443C43.4145 402.676 44.6095 403.171 45.6643 403.895C46.7191 404.619 47.6101 405.557 48.2796 406.647C50.5356 411.144 46.3606 416.681 47.9427 421.457C49.4076 425.676 53.4507 427.316 55.7505 431.11C56.6933 432.788 57.0733 434.724 56.8346 436.633C56.6301 439.864 55.8409 443.03 54.5054 445.979C53.0027 448.91 51.2841 451.726 49.3637 454.402C49.2758 454.505 21.6041 470.413 21.3551 470.589Z" fill="#B3A7D1"/>
<path d="M37.7458 461.858C37.6496 461.854 37.5551 461.832 37.4676 461.791C37.3802 461.751 37.3016 461.694 37.2363 461.623C37.171 461.552 37.1203 461.469 37.087 461.379C37.0538 461.289 37.0387 461.193 37.0427 461.097C38.2292 432.531 24.7669 401.036 14.9815 391.808C14.8482 391.673 14.7734 391.491 14.7734 391.302C14.7734 391.113 14.8482 390.931 14.9815 390.797C15.1184 390.663 15.3025 390.587 15.4942 390.587C15.6859 390.587 15.87 390.663 16.0069 390.797C25.9242 400.099 39.6794 432.18 38.4636 461.17C38.456 461.355 38.3771 461.53 38.2433 461.658C38.1095 461.787 37.9312 461.858 37.7458 461.858Z" fill="white"/>
<path d="M33.4693 428.093H33.2496C26.4812 426.231 19.5315 425.107 12.5215 424.738C12.3272 424.738 12.1409 424.661 12.0036 424.524C11.8662 424.386 11.7891 424.2 11.7891 424.006C11.7891 423.811 11.8662 423.625 12.0036 423.488C12.1409 423.35 12.3272 423.273 12.5215 423.273C19.6558 423.644 26.7287 424.788 33.6158 426.686C33.7063 426.713 33.7905 426.758 33.8638 426.817C33.9371 426.877 33.9979 426.95 34.0428 427.033C34.0877 427.116 34.1158 427.207 34.1255 427.301C34.1352 427.395 34.1262 427.49 34.0992 427.58C34.0565 427.718 33.9739 427.84 33.8619 427.932C33.7498 428.023 33.6132 428.079 33.4693 428.093Z" fill="white"/>
<path d="M555.964 490.57L542.312 489.003L538.781 461.492L555.466 466.443L555.964 490.57Z" fill="#B16668"/>
<path d="M526.053 513.012C525.855 513.554 525.774 514.132 525.815 514.707C525.855 515.282 526.016 515.843 526.287 516.352C527.752 518.051 531.531 520.043 536.688 520.41C541.624 520.761 546.019 520.102 548.905 518.271C550.16 517.622 551.234 516.673 552.031 515.507C552.829 514.341 553.325 512.996 553.475 511.591C553.753 508.793 553.475 506.083 554.779 503.93C556.083 501.776 557.972 499.682 558.397 498.598C558.904 496.727 558.904 494.755 558.397 492.885L526.053 513.012Z" fill="#263238"/>
<path d="M539.543 488.519C539.5 489.581 539.307 490.631 538.972 491.639C538.217 493.809 537.204 495.879 535.955 497.807C535.341 498.83 534.656 499.809 533.904 500.736C532.439 502.509 530.564 503.974 528.982 505.673C527.303 507.275 526.227 509.406 525.935 511.708C525.73 515.576 531.882 516.894 535.12 517.465C538.611 518.075 542.195 517.895 545.608 516.938C547.4 516.471 549.02 515.497 550.272 514.133C551.524 512.769 552.357 511.073 552.669 509.247C552.859 508.163 552.786 507.065 552.918 505.995C553.344 503.526 554.376 501.201 555.921 499.227C556.818 498.089 557.589 496.856 558.221 495.551C559.231 493.163 558.426 490.467 557.781 488.094C557.225 486.029 556.551 483.7 555.818 483.861C555.818 484.93 555.818 485.077 555.101 485.794C554.383 486.512 554.104 488.094 553.079 488.9C553.406 488.007 553.646 487.085 553.797 486.146C553.86 485.77 553.782 485.384 553.577 485.062C553.237 484.758 552.831 484.537 552.391 484.417C550.867 483.908 549.297 483.55 547.703 483.348C545.527 483.099 543.33 483.099 541.155 483.348C540.702 483.429 540.292 483.668 539.998 484.022C539.734 484.411 539.591 484.87 539.587 485.34C539.514 485.897 539.573 487.494 539.543 488.519Z" fill="#455A64"/>
<path d="M535.427 498.627C536.892 497.543 542.063 497.528 543.821 497.719C545.613 497.872 547.337 498.477 548.831 499.477C549.05 499.632 549.317 499.706 549.585 499.685C549.853 499.663 550.105 499.548 550.296 499.359C550.407 499.249 550.493 499.117 550.548 498.971C550.603 498.824 550.625 498.668 550.614 498.512C550.603 498.356 550.558 498.205 550.483 498.068C550.408 497.931 550.304 497.812 550.179 497.719C548.537 496.507 546.588 495.781 544.554 495.624C542.016 495.438 539.465 495.586 536.965 496.063C536.965 496.063 535.003 497.338 535.427 498.627Z" fill="#F5F5F5"/>
<path d="M532.117 502.641C533.934 501.571 539.442 501.718 541.214 501.908C542.971 502.088 544.649 502.73 546.078 503.769C546.297 503.922 546.564 503.994 546.831 503.972C547.098 503.951 547.35 503.838 547.542 503.651C547.653 503.541 547.739 503.409 547.794 503.263C547.849 503.116 547.872 502.96 547.861 502.804C547.85 502.648 547.805 502.497 547.73 502.36C547.655 502.223 547.551 502.104 547.425 502.011C545.022 500.766 542.4 500 539.705 499.755C535.311 499.447 534.241 500.326 534.241 500.326C533.737 500.529 533.285 500.842 532.917 501.243C532.55 501.643 532.276 502.121 532.117 502.641Z" fill="#F5F5F5"/>
<path d="M546.285 491.478C543.806 491.195 541.297 491.349 538.872 491.932C538.111 492.357 537.598 493.573 538.096 493.881C540.309 493.284 542.606 493.056 544.893 493.207C546.517 493.37 548.102 493.806 549.581 494.496C549.961 494.672 550.401 494.891 550.782 495.111C550.904 495.189 551.042 495.24 551.186 495.26C551.329 495.279 551.476 495.268 551.615 495.226C551.754 495.185 551.882 495.114 551.991 495.018C552.1 494.922 552.187 494.804 552.247 494.672C552.351 494.456 552.371 494.209 552.304 493.979C552.236 493.748 552.085 493.552 551.88 493.427C550.176 492.385 548.268 491.721 546.285 491.478Z" fill="#F5F5F5"/>
<path d="M505.065 478.06L492.086 474.442V448.206L508.185 448.909L505.065 478.06Z" fill="#B16668"/>
<path d="M464.662 492.108C464.296 493.239 464.364 494.467 464.853 495.551C465.336 496.547 470.595 499.52 477.685 499.037C482.937 498.66 487.993 496.891 492.334 493.91C495.029 492.123 497.842 491.786 501.358 491.595C504.873 491.405 509.473 489.632 510.249 487.992C510.645 486.523 510.604 484.97 510.132 483.524L464.662 492.108Z" fill="#263238"/>
<path d="M493.226 469.988L492.669 469.871C492.361 469.798 492.04 469.798 491.732 469.871C491.391 469.983 491.087 470.186 490.853 470.457C490.161 471.349 489.557 472.305 489.051 473.314C487.586 475.731 484.436 477.708 481.038 479.569C478.723 480.814 476.453 481.781 474.065 482.85C471.677 483.919 468.381 484.623 466.477 485.912C463.694 487.787 463.327 492.489 466.477 494.349C469.202 495.961 476.409 497.704 483.953 495.565C488.055 494.393 492.625 490.013 498.016 489.589C501.444 489.31 507.933 488.358 510.145 485.751C510.965 484.593 509.867 480.931 508.973 477.767C507.992 474.31 507.069 468.978 505.926 469.227C505.936 469.474 505.887 469.72 505.782 469.944C505.678 470.168 505.521 470.364 505.326 470.516C504.901 470.955 504.33 471.234 503.861 471.629C503.061 472.416 502.415 473.345 501.956 474.368C501.77 474.824 501.427 475.198 500.99 475.423C500.404 475.628 499.979 475.277 499.525 475.042C498.881 474.747 498.153 474.695 497.474 474.896C497.545 474.209 497.667 473.528 497.84 472.86C497.905 472.65 497.905 472.425 497.84 472.215C497.757 472.002 497.601 471.826 497.401 471.717C496.145 470.855 494.723 470.266 493.226 469.988Z" fill="#455A64"/>
<path d="M484.289 477.65C484.534 477.176 484.895 476.772 485.338 476.474C485.781 476.177 486.292 475.997 486.823 475.95C488.376 475.658 491.13 476.815 492.844 478.221C493.007 478.352 493.136 478.52 493.219 478.713C493.302 478.905 493.336 479.114 493.319 479.323C493.301 479.531 493.233 479.732 493.119 479.908C493.006 480.084 492.851 480.229 492.668 480.33C492.438 480.461 492.173 480.515 491.91 480.486C491.647 480.458 491.4 480.347 491.203 480.169C489.313 478.465 486.833 477.561 484.289 477.65Z" fill="#F5F5F5"/>
<path d="M479.438 480.36C479.777 479.88 480.227 479.488 480.75 479.218C481.273 478.948 481.852 478.807 482.441 478.807C484.849 478.913 487.162 479.78 489.047 481.283C489.201 481.411 489.322 481.575 489.4 481.76C489.477 481.946 489.508 482.147 489.491 482.347C489.474 482.547 489.408 482.74 489.3 482.909C489.193 483.078 489.045 483.219 488.871 483.319C488.643 483.456 488.376 483.515 488.112 483.486C487.847 483.456 487.599 483.341 487.406 483.158C486.37 482.128 485.117 481.342 483.738 480.858C482.36 480.374 480.89 480.204 479.438 480.36Z" fill="#F5F5F5"/>
<path d="M474.18 482.792C474.566 482.349 475.044 481.996 475.58 481.756C476.116 481.516 476.698 481.394 477.285 481.4C479.604 481.543 481.819 482.414 483.614 483.89C483.768 484.02 483.889 484.185 483.966 484.372C484.043 484.558 484.074 484.76 484.057 484.961C484.04 485.162 483.974 485.356 483.867 485.526C483.759 485.697 483.612 485.839 483.438 485.941C483.21 486.078 482.943 486.137 482.678 486.108C482.413 486.079 482.166 485.963 481.973 485.78C480.994 484.713 479.78 483.888 478.428 483.369C477.076 482.85 475.621 482.653 474.18 482.792Z" fill="#F5F5F5"/>
<path d="M552.976 306.888C553.87 333.945 553.928 392.54 553.928 392.54C554.207 395.909 554.5 401.886 554.749 414.015C555.115 431.594 555.964 474.998 555.964 474.998C555.964 474.998 547.571 478.939 539.851 475.731C539.851 475.731 529.128 414.704 526.93 397.301C525.011 382.11 521.335 346.484 521.335 346.484L516.266 391.705C516.266 391.705 516.266 403.424 515.578 413.766C515.006 421.823 507.184 463.323 507.184 463.323C502.075 464.681 496.679 464.502 491.671 462.81C491.671 462.81 490.968 399.103 490.821 391.705C490.66 383.297 492.828 292.386 492.828 292.386L552.976 306.888Z" fill="#455A64"/>
<path d="M521.366 346.484L519.432 331.147C513.188 329.55 507.283 326.841 502 323.148C502 323.148 505.721 328.129 516.649 333.403L519.11 347.319L516.327 391.705L521.366 346.484Z" fill="#37474F"/>
<path d="M492.141 230.964C488.186 236.149 467.838 264.07 467.838 264.07L449.044 249.509C444.649 246.066 443.346 241.555 440.592 238.434C437.838 235.314 434.82 234.567 431.729 231.96C428.638 229.352 427.452 227.375 426.397 229.601C425.342 231.828 428.755 235.71 429.327 236.647C429.898 237.585 433.428 239.826 428.77 239.577C424.112 239.328 415.147 234.01 412.979 233.029C410.811 232.048 410.752 234.728 411.777 236.486C412.803 238.244 412.29 243.137 413.491 246.286C414.693 249.436 416.802 251.369 421.094 253.493C425.093 255.486 434.82 256.731 437.984 258.723C444.928 265.842 458.024 279.129 461.334 281.59C465.89 284.974 470.299 288.094 477.272 281.385C484.245 274.676 504.446 248.352 504.446 248.352L508.621 223.317C501.765 223.068 496.916 224.708 492.141 230.964Z" fill="#B16668"/>
<path d="M467.836 264.07C470.414 265.974 473.095 270.252 473.344 272.171C473.314 270.352 472.908 268.56 472.151 266.906C471.395 265.253 470.305 263.773 468.949 262.561L467.836 264.07Z" fill="#9A4A4D"/>
<path d="M510.232 222.702C510.232 222.702 500.564 222.584 496.316 225.558C492.068 228.532 488.918 232.882 482.019 242.917C475.969 251.706 473.039 255.925 473.039 255.925C476.999 261.783 482.766 266.187 489.46 268.465L507.508 246.11L510.232 222.702Z" fill="#37474F"/>
<path d="M528.937 222.233C534.415 222.76 542.12 222.819 547.541 223.375C551.305 224.928 558.571 231.256 558.029 235.768C556.008 252.629 551.921 280.271 551.921 280.271L553.268 309.569C545.724 317.099 510.42 320.043 492.227 308.002C492.227 308.002 492.812 255.383 494.072 246.477C496.314 230.524 498.277 224.606 506.509 223.2C514.742 221.793 528.937 222.233 528.937 222.233Z" fill="#B3A7D1"/>
<path d="M559.966 231.388C563.921 236.574 584.283 264.495 584.283 264.495L603.092 249.934C607.487 246.477 608.791 241.965 611.545 238.859C614.299 235.754 617.316 234.992 620.407 232.384C623.498 229.777 624.685 227.799 625.74 230.011C626.794 232.223 623.381 236.135 622.81 237.072C622.238 238.01 618.708 240.251 623.366 240.002C628.025 239.753 636.975 234.421 639.158 233.439C641.341 232.458 641.37 235.138 640.359 236.896C639.348 238.654 639.832 243.562 638.645 246.711C637.459 249.861 635.334 251.78 631.042 253.918C627.043 255.91 617.316 257.156 614.152 259.148C607.209 266.253 594.113 279.554 590.802 282C586.246 285.384 581.837 288.504 574.864 281.81C567.891 275.115 551.953 254.27 551.953 254.27L543.516 223.742C550.357 223.493 555.205 225.133 559.966 231.388Z" fill="#B16668"/>
<path d="M584.281 264.495C581.703 266.399 579.022 270.676 578.773 272.595C578.802 270.775 579.207 268.98 579.963 267.323C580.719 265.667 581.811 264.185 583.168 262.971L584.281 264.495Z" fill="#9A4A4D"/>
<path d="M542.544 223.009C542.544 223.009 551.231 222.467 555.801 225.939C559.918 229.103 563.126 233.263 570.099 243.298C576.149 252.087 579.078 256.306 579.078 256.306C575.109 262.162 569.339 266.565 562.642 268.845L550.352 253.698C543.95 245.583 537.607 233.234 542.544 223.009Z" fill="#37474F"/>
<path d="M530.297 182.564C530.326 185.924 529.358 189.218 527.515 192.028C525.672 194.839 523.037 197.039 519.943 198.352C516.849 199.665 513.435 200.031 510.134 199.404C506.832 198.776 503.79 197.184 501.394 194.828C498.997 192.472 497.352 189.459 496.668 186.168C495.984 182.878 496.291 179.458 497.55 176.343C498.81 173.227 500.965 170.554 503.743 168.663C506.521 166.772 509.797 165.747 513.158 165.717C515.39 165.698 517.603 166.119 519.672 166.955C521.741 167.791 523.625 169.026 525.217 170.591C526.808 172.155 528.076 174.018 528.948 176.072C529.819 178.126 530.278 180.332 530.297 182.564Z" fill="#263238"/>
<path d="M542.793 194.546C542.793 194.546 540.142 207.511 539.058 209.635C538.336 210.954 537.135 211.945 535.703 212.403L535.806 203.292L542.793 194.546Z" fill="#263238"/>
<path d="M539.177 176.045C540.137 175.922 541.113 176.02 542.03 176.332C542.947 176.645 543.78 177.163 544.465 177.847C546.75 180.147 545.549 187.412 542.795 194.546L537.609 195.191L539.177 176.045Z" fill="#263238"/>
<path d="M536.055 195.206C537.095 195.821 538.56 193.741 539.835 192.452C541.109 191.163 545.27 189.229 547.408 193.609C549.547 197.989 545.65 204.039 542.369 205.094C536.7 206.939 535.806 203.292 535.806 203.292L535.572 224.416C528.599 233.542 508.984 232.941 517.071 223.419V217.179C514.545 217.602 511.982 217.755 509.424 217.633C505.234 217.032 502.583 213.751 501.264 209.239C499.17 202.003 498.335 196.143 499.946 181.831C501.704 166.157 519.912 165.835 529.8 171.943C539.688 178.052 536.055 195.206 536.055 195.206Z" fill="#B16668"/>
<path d="M536.073 196.949C536.586 196.949 538.549 193.638 539.838 192.452C541.611 190.796 539.179 176.045 539.179 176.045C539.787 174.736 539.987 173.274 539.752 171.85C539.517 170.425 538.857 169.105 537.86 168.061C535.385 165.381 531.928 162.114 520.795 163.52C512.84 164.531 504.212 167.095 497.195 163.725C496.571 166.01 496.641 168.428 497.398 170.672C498.154 172.916 499.563 174.884 501.443 176.323C501.443 176.323 503.992 177.935 510.658 178.682C516.803 179.086 522.972 178.914 529.086 178.169C531.019 177.891 531.444 179.751 532.528 184.864C533.48 189.331 534.315 196.934 536.073 196.949Z" fill="#263238"/>
<path d="M539.178 177.188L545.433 173.76C545.23 173.337 544.943 172.959 544.589 172.65C544.235 172.342 543.822 172.108 543.375 171.964C542.929 171.82 542.457 171.769 541.99 171.813C541.522 171.857 541.069 171.996 540.657 172.222C539.819 172.7 539.197 173.483 538.922 174.408C538.646 175.333 538.738 176.328 539.178 177.188Z" fill="#263238"/>
<path d="M517.031 217.179C517.031 217.179 526.348 215.216 529.585 213.458C531.494 212.444 533.051 210.876 534.053 208.961C533.581 210.869 532.729 212.663 531.548 214.235C529.19 217.311 517.061 219.655 517.061 219.655L517.031 217.179Z" fill="#9A4A4D"/>
<path d="M516.281 193.711C516.278 193.961 516.323 194.208 516.415 194.44C516.508 194.672 516.645 194.883 516.819 195.061C516.994 195.24 517.202 195.382 517.431 195.48C517.661 195.577 517.907 195.628 518.157 195.63C518.546 195.645 518.931 195.542 519.261 195.336C519.592 195.13 519.853 194.829 520.011 194.473C520.169 194.117 520.216 193.721 520.147 193.338C520.078 192.954 519.895 192.6 519.623 192.322C519.351 192.043 519.001 191.852 518.619 191.775C518.238 191.697 517.841 191.735 517.482 191.884C517.122 192.034 516.815 192.288 516.601 192.614C516.387 192.939 516.276 193.322 516.281 193.711Z" fill="#263238"/>
<path d="M521.836 187.281L517.676 185.391C517.434 185.96 517.421 186.6 517.639 187.179C517.857 187.757 518.29 188.229 518.848 188.496C519.123 188.618 519.42 188.684 519.721 188.688C520.022 188.693 520.321 188.637 520.6 188.523C520.879 188.41 521.132 188.241 521.345 188.028C521.557 187.814 521.724 187.56 521.836 187.281Z" fill="#263238"/>
<path d="M504.032 184.981L500.414 187.823C500.585 188.069 500.805 188.278 501.06 188.435C501.315 188.593 501.6 188.696 501.897 188.739C502.194 188.781 502.497 188.762 502.786 188.683C503.075 188.603 503.345 188.465 503.578 188.277C504.059 187.888 504.373 187.331 504.457 186.719C504.542 186.106 504.39 185.485 504.032 184.981Z" fill="#263238"/>
<path d="M501.853 193.257C501.87 193.607 501.989 193.944 502.197 194.227C502.404 194.509 502.689 194.724 503.018 194.846C503.346 194.967 503.703 194.989 504.044 194.91C504.386 194.83 504.696 194.652 504.936 194.397C505.177 194.143 505.337 193.823 505.398 193.478C505.458 193.133 505.416 192.778 505.276 192.457C505.137 192.135 504.906 191.862 504.612 191.671C504.319 191.48 503.975 191.38 503.625 191.382C503.385 191.388 503.149 191.441 502.93 191.539C502.71 191.636 502.513 191.776 502.348 191.95C502.183 192.125 502.055 192.33 501.97 192.554C501.884 192.779 501.845 193.018 501.853 193.257Z" fill="#263238"/>
<path d="M511.552 191.749L510.497 202.955L504.711 200.728L511.552 191.749Z" fill="#9A4A4D"/>
<path d="M514.727 207.159C514.724 207.516 514.827 207.866 515.023 208.164C515.219 208.462 515.5 208.695 515.829 208.834C516.158 208.973 516.52 209.01 516.871 208.943C517.221 208.875 517.544 208.704 517.797 208.453C518.051 208.201 518.224 207.88 518.294 207.531C518.365 207.181 518.33 206.818 518.194 206.488C518.059 206.157 517.828 205.875 517.531 205.677C517.234 205.478 516.885 205.372 516.528 205.372C516.053 205.372 515.597 205.56 515.26 205.894C514.922 206.229 514.73 206.684 514.727 207.159Z" fill="#9A4A4D"/>
<path d="M560.462 87.815C563.255 88.4371 565.948 89.448 568.46 90.8181C570.863 92.1114 573.016 93.8228 574.818 95.8719C576.551 97.8572 577.831 100.197 578.568 102.728C579.338 105.41 579.399 108.247 578.744 110.96C578.31 113.114 577.453 115.16 576.224 116.981C575.119 118.547 573.792 119.944 572.283 121.126C570.807 122.272 569.234 123.287 567.581 124.159L562.923 126.62C561.518 127.354 560.184 128.217 558.938 129.198C557.813 130.052 556.951 131.204 556.448 132.523C556.195 133.112 555.785 133.619 555.262 133.988C555.011 134.18 554.719 134.313 554.41 134.376C554.1 134.439 553.781 134.432 553.474 134.354L546.619 132.889C546.29 132.82 545.978 132.686 545.701 132.495C545.424 132.304 545.189 132.059 545.007 131.776C544.816 131.511 544.689 131.204 544.638 130.881C544.587 130.558 544.613 130.227 544.714 129.916C545.285 127.785 546.282 125.792 547.644 124.056C548.871 122.525 550.289 121.156 551.863 119.984C553.383 118.872 554.995 117.891 556.682 117.054C558.352 116.219 559.905 115.413 561.341 114.622C562.654 113.929 563.887 113.094 565.018 112.132C566.004 111.301 566.689 110.169 566.966 108.909C567.219 107.809 567.202 106.665 566.916 105.573C566.631 104.481 566.085 103.475 565.325 102.64C563.431 100.57 560.9 99.1929 558.133 98.7284C553.015 97.5858 548.689 99.3095 545.154 103.899C544.815 104.402 544.382 104.835 543.879 105.174C543.607 105.312 543.311 105.395 543.006 105.418C542.702 105.441 542.396 105.402 542.107 105.306L534.782 103.68C534.524 103.63 534.278 103.529 534.06 103.383C533.841 103.237 533.653 103.049 533.508 102.83C533.349 102.606 533.241 102.349 533.193 102.078C533.145 101.807 533.157 101.528 533.23 101.263C533.846 99.0113 535.002 96.9445 536.599 95.242C538.391 93.2636 540.519 91.6172 542.883 90.3786C545.475 89.018 548.27 88.0879 551.16 87.6246C554.243 87.0821 557.403 87.1468 560.462 87.815ZM552.727 139.877C553.049 139.946 553.353 140.08 553.62 140.272C553.887 140.463 554.112 140.708 554.28 140.99C554.46 141.264 554.583 141.571 554.641 141.893C554.699 142.216 554.691 142.546 554.617 142.865L552.859 150.805C552.712 151.439 552.324 151.99 551.777 152.343C551.23 152.696 550.567 152.822 549.929 152.695L542.165 150.981C541.846 150.912 541.543 150.779 541.276 150.591C541.01 150.402 540.784 150.161 540.613 149.882C540.43 149.61 540.306 149.303 540.248 148.98C540.19 148.657 540.199 148.326 540.276 148.007L542.034 140.053C542.181 139.419 542.569 138.867 543.116 138.515C543.663 138.162 544.325 138.036 544.963 138.163L552.727 139.877Z" fill="#B3A7D1"/>
<path d="M583.491 162.509C585.429 162.19 587.402 162.151 589.351 162.392C591.224 162.605 593.045 163.151 594.727 164.004C596.333 164.825 597.742 165.985 598.858 167.402C600.041 168.921 600.803 170.725 601.07 172.632C601.374 174.115 601.374 175.645 601.07 177.129C600.765 178.42 600.271 179.659 599.605 180.806C598.952 181.911 598.207 182.96 597.378 183.941L595.02 186.724C594.31 187.556 593.673 188.448 593.115 189.39C592.619 190.227 592.365 191.186 592.383 192.159C592.38 192.616 592.248 193.063 592.002 193.448C591.89 193.632 591.739 193.789 591.559 193.908C591.379 194.027 591.175 194.105 590.962 194.136L586.172 194.927C585.709 195 585.236 194.89 584.853 194.62C584.666 194.497 584.509 194.333 584.394 194.14C584.28 193.947 584.212 193.73 584.194 193.506C583.994 192.005 584.109 190.478 584.531 189.024C584.911 187.719 585.468 186.472 586.186 185.318C586.872 184.213 587.651 183.169 588.516 182.197C589.38 181.231 590.156 180.322 590.889 179.443C591.549 178.662 592.124 177.813 592.603 176.909C593.022 176.125 593.172 175.224 593.027 174.346C592.908 173.574 592.603 172.843 592.139 172.215C591.674 171.587 591.064 171.082 590.361 170.742C588.625 169.894 586.653 169.657 584.766 170.068C583.058 170.32 581.469 171.092 580.216 172.28C578.963 173.467 578.106 175.012 577.763 176.704C577.67 177.117 577.501 177.51 577.265 177.861C576.981 178.173 576.587 178.362 576.167 178.389L571.069 179.224C570.707 179.283 570.336 179.205 570.029 179.004C569.868 178.9 569.733 178.762 569.632 178.6C569.53 178.438 569.466 178.256 569.443 178.066C569.266 176.466 569.482 174.847 570.073 173.35C570.709 171.618 571.652 170.015 572.856 168.618C574.17 167.085 575.723 165.774 577.456 164.736C579.304 163.609 581.354 162.853 583.491 162.509ZM591.856 197.945C592.08 197.907 592.31 197.915 592.531 197.968C592.753 198.021 592.961 198.118 593.145 198.253C593.328 198.383 593.483 198.548 593.601 198.74C593.72 198.931 593.798 199.144 593.833 199.366L594.741 204.903C594.779 205.128 594.771 205.357 594.718 205.579C594.666 205.8 594.569 206.009 594.434 206.192C594.305 206.377 594.14 206.534 593.949 206.652C593.757 206.771 593.543 206.849 593.32 206.881L587.9 207.774C587.678 207.811 587.451 207.802 587.232 207.75C587.013 207.697 586.807 207.601 586.626 207.467C586.438 207.34 586.279 207.175 586.158 206.984C586.037 206.792 585.957 206.577 585.923 206.353L585.015 200.801C584.947 200.345 585.064 199.881 585.338 199.51C585.613 199.139 586.023 198.893 586.479 198.824L591.856 197.945Z" fill="#B3A7D1"/>
<g opacity="0.2">
<path d="M583.491 162.509C585.429 162.19 587.402 162.151 589.351 162.392C591.224 162.605 593.045 163.151 594.727 164.004C596.333 164.825 597.742 165.985 598.858 167.402C600.041 168.921 600.803 170.725 601.07 172.632C601.374 174.115 601.374 175.645 601.07 177.129C600.765 178.42 600.271 179.659 599.605 180.806C598.952 181.911 598.207 182.96 597.378 183.941L595.02 186.724C594.31 187.556 593.673 188.448 593.115 189.39C592.619 190.227 592.365 191.186 592.383 192.159C592.38 192.616 592.248 193.063 592.002 193.448C591.89 193.632 591.739 193.789 591.559 193.908C591.379 194.027 591.175 194.105 590.962 194.136L586.172 194.927C585.709 195 585.236 194.89 584.853 194.62C584.666 194.497 584.509 194.333 584.394 194.14C584.28 193.947 584.212 193.73 584.194 193.506C583.994 192.005 584.109 190.478 584.531 189.024C584.911 187.719 585.468 186.472 586.186 185.318C586.872 184.213 587.651 183.169 588.516 182.197C589.38 181.231 590.156 180.322 590.889 179.443C591.549 178.662 592.124 177.813 592.603 176.909C593.022 176.125 593.172 175.224 593.027 174.346C592.908 173.574 592.603 172.843 592.139 172.215C591.674 171.587 591.064 171.082 590.361 170.742C588.625 169.894 586.653 169.657 584.766 170.068C583.058 170.32 581.469 171.092 580.216 172.28C578.963 173.467 578.106 175.012 577.763 176.704C577.67 177.117 577.501 177.51 577.265 177.861C576.981 178.173 576.587 178.362 576.167 178.389L571.069 179.224C570.707 179.283 570.336 179.205 570.029 179.004C569.868 178.9 569.733 178.762 569.632 178.6C569.53 178.438 569.466 178.256 569.443 178.066C569.266 176.466 569.482 174.847 570.073 173.35C570.709 171.618 571.652 170.015 572.856 168.618C574.17 167.085 575.723 165.774 577.456 164.736C579.304 163.609 581.354 162.853 583.491 162.509ZM591.856 197.945C592.08 197.907 592.31 197.915 592.531 197.968C592.753 198.021 592.961 198.118 593.145 198.253C593.328 198.383 593.483 198.548 593.601 198.74C593.72 198.931 593.798 199.144 593.833 199.366L594.741 204.903C594.779 205.128 594.771 205.357 594.718 205.579C594.666 205.8 594.569 206.009 594.434 206.192C594.305 206.377 594.14 206.534 593.949 206.652C593.757 206.771 593.543 206.849 593.32 206.881L587.9 207.774C587.678 207.811 587.451 207.802 587.232 207.75C587.013 207.697 586.807 207.601 586.626 207.467C586.438 207.34 586.279 207.175 586.158 206.984C586.037 206.792 585.957 206.577 585.923 206.353L585.015 200.801C584.947 200.345 585.064 199.881 585.338 199.51C585.613 199.139 586.023 198.893 586.479 198.824L591.856 197.945Z" fill="black"/>
</g>
<path d="M633.442 178.228C633.877 178.545 634.171 179.019 634.261 179.55C634.352 180.081 634.231 180.626 633.925 181.069L630.058 186.49C629.741 186.925 629.266 187.219 628.735 187.309C628.205 187.399 627.66 187.279 627.216 186.973L621.913 183.208C621.695 183.055 621.509 182.859 621.368 182.633C621.227 182.406 621.134 182.154 621.093 181.89C621.016 181.376 621.136 180.853 621.43 180.425L625.297 174.99C625.611 174.553 626.085 174.258 626.616 174.17C627.131 174.092 627.656 174.218 628.081 174.521L633.442 178.228ZM655.825 141.474C657.738 142.823 659.445 144.441 660.894 146.279C662.294 148.027 663.37 150.011 664.073 152.138C664.744 154.171 664.969 156.324 664.732 158.452C664.457 160.717 663.599 162.872 662.242 164.707C661.23 166.19 659.936 167.459 658.433 168.442C657.097 169.272 655.646 169.899 654.126 170.303C652.653 170.696 651.148 170.96 649.629 171.094L645.322 171.46C644.036 171.578 642.762 171.803 641.514 172.134C640.396 172.429 639.382 173.027 638.584 173.862C638.2 174.236 637.725 174.504 637.207 174.639C636.955 174.698 636.693 174.702 636.44 174.649C636.187 174.595 635.948 174.487 635.742 174.331L631.054 171.006C630.607 170.684 630.302 170.201 630.205 169.658C630.149 169.402 630.153 169.137 630.216 168.883C630.28 168.629 630.401 168.393 630.571 168.193C631.661 166.764 633.032 165.572 634.599 164.692C636.01 163.919 637.517 163.337 639.082 162.964C640.583 162.601 642.112 162.366 643.652 162.26C645.117 162.173 646.582 162.055 647.93 161.923C649.14 161.819 650.334 161.578 651.489 161.206C652.497 160.899 653.373 160.265 653.98 159.404C654.524 158.658 654.878 157.79 655.011 156.876C655.144 155.962 655.051 155.03 654.741 154.16C653.978 152.001 652.513 150.16 650.581 148.93C647.095 146.44 643.286 146.357 639.155 148.681C638.738 148.947 638.277 149.136 637.793 149.238C637.541 149.255 637.289 149.223 637.05 149.143C636.811 149.062 636.59 148.935 636.401 148.769L631.42 145.224C631.058 144.977 630.805 144.599 630.717 144.169C630.675 143.949 630.68 143.723 630.733 143.506C630.786 143.288 630.886 143.085 631.025 142.909C632.185 141.411 633.694 140.219 635.42 139.438C637.401 138.521 639.528 137.961 641.704 137.782C644.087 137.588 646.485 137.776 648.809 138.339C651.332 138.908 653.717 139.974 655.825 141.474Z" fill="#B3A7D1"/>
<g opacity="0.6">
<path d="M633.442 178.228C633.877 178.545 634.171 179.019 634.261 179.55C634.352 180.081 634.231 180.626 633.925 181.069L630.058 186.49C629.741 186.925 629.266 187.219 628.735 187.309C628.205 187.399 627.66 187.279 627.216 186.973L621.913 183.208C621.695 183.055 621.509 182.859 621.368 182.633C621.227 182.406 621.134 182.154 621.093 181.89C621.016 181.376 621.136 180.853 621.43 180.425L625.297 174.99C625.611 174.553 626.085 174.258 626.616 174.17C627.131 174.092 627.656 174.218 628.081 174.521L633.442 178.228ZM655.825 141.474C657.738 142.823 659.445 144.441 660.894 146.279C662.294 148.027 663.37 150.011 664.073 152.138C664.744 154.171 664.969 156.324 664.732 158.452C664.457 160.717 663.599 162.872 662.242 164.707C661.23 166.19 659.936 167.459 658.433 168.442C657.097 169.272 655.646 169.899 654.126 170.303C652.653 170.696 651.148 170.96 649.629 171.094L645.322 171.46C644.036 171.578 642.762 171.803 641.514 172.134C640.396 172.429 639.382 173.027 638.584 173.862C638.2 174.236 637.725 174.504 637.207 174.639C636.955 174.698 636.693 174.702 636.44 174.649C636.187 174.595 635.948 174.487 635.742 174.331L631.054 171.006C630.607 170.684 630.302 170.201 630.205 169.658C630.149 169.402 630.153 169.137 630.216 168.883C630.28 168.629 630.401 168.393 630.571 168.193C631.661 166.764 633.032 165.572 634.599 164.692C636.01 163.919 637.517 163.337 639.082 162.964C640.583 162.601 642.112 162.366 643.652 162.26C645.117 162.173 646.582 162.055 647.93 161.923C649.14 161.819 650.334 161.578 651.489 161.206C652.497 160.899 653.373 160.265 653.98 159.404C654.524 158.658 654.878 157.79 655.011 156.876C655.144 155.962 655.051 155.03 654.741 154.16C653.978 152.001 652.513 150.16 650.581 148.93C647.095 146.44 643.286 146.357 639.155 148.681C638.738 148.947 638.277 149.136 637.793 149.238C637.541 149.255 637.289 149.223 637.05 149.143C636.811 149.062 636.59 148.935 636.401 148.769L631.42 145.224C631.058 144.977 630.805 144.599 630.717 144.169C630.675 143.949 630.68 143.723 630.733 143.506C630.786 143.288 630.886 143.085 631.025 142.909C632.185 141.411 633.694 140.219 635.42 139.438C637.401 138.521 639.528 137.961 641.704 137.782C644.087 137.588 646.485 137.776 648.809 138.339C651.332 138.908 653.717 139.974 655.825 141.474Z" fill="white"/>
</g>
<path d="M161.393 468.245C161.247 463.85 164.411 420.9 164.411 420.9L143.492 436.076C147.784 461.682 148.707 467.732 148.78 471.922C148.692 472.271 148.652 472.631 148.663 472.991C148.663 477.972 154.303 480.653 158.683 483.978C162.406 486.889 166.371 489.477 170.534 491.713C173.713 493.309 180.188 493.456 180.979 491.405C175.646 487.333 167.897 481.239 163.649 476.595C161.627 474.368 161.554 472.61 161.393 468.245Z" fill="#FFA8A7"/>
<path d="M190.081 496.781C190.319 497.465 190.361 498.201 190.203 498.908C190.045 499.614 189.694 500.262 189.188 500.78C185.346 503.55 180.564 504.688 175.887 503.944C169.236 503.08 165.633 501.19 162.981 498.964C160.33 496.737 156.594 493.602 153.577 492.943C151.178 492.486 148.896 491.549 146.867 490.189C145.974 489.325 146.091 485.487 146.091 485.487L190.081 496.781Z" fill="#263238"/>
<path d="M148.739 470.706C148.492 470.714 148.256 470.807 148.072 470.97C147.887 471.134 147.766 471.356 147.728 471.6C147.523 472.655 147.303 475.731 146.864 477.459C146.184 480.515 145.967 483.656 146.219 486.776C146.585 488.754 151.127 490.116 154.042 491.171C157.47 492.663 160.651 494.668 163.476 497.118C167.552 500.167 172.417 501.982 177.494 502.348C182.622 502.348 188.393 500.648 189.726 498.275C191.352 495.346 190.078 493.632 182.475 490.101C181.01 489.442 175.986 486.439 174.257 485.355C169.599 482.425 164.984 478.338 162.831 473.153C162.657 472.519 162.276 471.961 161.747 471.571C161.286 471.372 160.774 471.32 160.282 471.424C159.012 471.609 157.778 471.984 156.62 472.537C155.609 473.021 154.159 473.592 154.174 474.896C154.205 475.347 154.303 475.792 154.466 476.214C154.554 476.493 154.628 476.844 154.466 477.005C154.305 477.166 153.954 477.005 153.749 476.8C153.003 476.037 152.322 475.214 151.713 474.339C151.352 473.891 150.945 473.484 150.497 473.123C150.048 472.869 149.618 472.585 149.208 472.274C148.651 471.878 148.768 471.322 148.739 470.706Z" fill="#455A64"/>
<path d="M163.474 497.191C162.141 496.107 160.734 495.038 159.328 494.1C159.328 494.1 168.264 499.535 171.868 497.03C172.536 496.606 173.026 495.95 173.242 495.188C173.458 494.426 173.386 493.612 173.039 492.899C173.039 492.284 178.723 489.633 180.979 489.369C181.609 489.72 182.136 489.999 182.444 490.145C190.047 493.676 191.321 495.375 189.695 498.319C188.362 500.692 184.187 502.553 177.566 502.553C173.259 502.641 166.55 499.711 163.474 497.191Z" fill="#37474F"/>
<path d="M172.412 491.127C177.143 493.017 175.122 493.895 173.803 494.057C172.485 494.218 164.531 489.662 159.667 485.765C154.804 481.869 151.42 477.372 149.545 475.907C148.842 475.365 148.08 474.691 147.406 474.061C147.538 473.021 147.641 472.069 147.729 471.571C147.766 471.327 147.888 471.104 148.072 470.941C148.257 470.778 148.493 470.684 148.739 470.677C148.739 471.292 148.651 471.864 149.12 472.318C149.53 472.629 149.961 472.913 150.409 473.167C150.857 473.527 151.265 473.935 151.625 474.383C152.235 475.258 152.916 476.081 153.661 476.844C158.933 482.769 165.3 487.619 172.412 491.127Z" fill="#263238"/>
<path d="M173.468 493.397C173.36 493.393 173.256 493.352 173.175 493.28C173.127 493.243 173.088 493.197 173.058 493.144C173.028 493.091 173.01 493.033 173.003 492.973C172.996 492.913 173.001 492.852 173.018 492.794C173.035 492.737 173.064 492.683 173.102 492.636C174.216 491.479 175.565 490.574 177.059 489.983C178.552 489.391 180.155 489.127 181.759 489.208C181.885 489.223 182 489.286 182.079 489.385C182.159 489.483 182.196 489.609 182.184 489.735C182.169 489.857 182.107 489.968 182.011 490.045C181.916 490.122 181.793 490.158 181.671 490.145C180.223 490.085 178.778 490.328 177.429 490.858C176.079 491.387 174.855 492.192 173.834 493.222C173.79 493.276 173.734 493.319 173.67 493.35C173.607 493.38 173.538 493.396 173.468 493.397Z" fill="#F5F5F5"/>
<path d="M169.351 490.922C169.24 490.926 169.13 490.89 169.044 490.819C168.96 490.73 168.914 490.612 168.914 490.489C168.914 490.367 168.96 490.249 169.044 490.16C170.16 489.007 171.511 488.106 173.004 487.517C174.497 486.929 176.098 486.666 177.701 486.747C177.826 486.76 177.939 486.823 178.018 486.92C178.096 487.018 178.132 487.142 178.119 487.267C178.105 487.391 178.043 487.505 177.945 487.583C177.848 487.661 177.723 487.698 177.599 487.684C176.15 487.621 174.704 487.861 173.354 488.391C172.004 488.921 170.78 489.728 169.762 490.76C169.712 490.819 169.648 490.864 169.577 490.892C169.505 490.92 169.428 490.93 169.351 490.922Z" fill="#F5F5F5"/>
<path d="M165.217 488.446C165.111 488.447 165.007 488.411 164.924 488.343C164.838 488.256 164.789 488.137 164.789 488.014C164.789 487.89 164.838 487.772 164.924 487.684C166.042 486.532 167.392 485.632 168.885 485.043C170.378 484.455 171.979 484.191 173.582 484.271C173.644 484.277 173.704 484.294 173.758 484.323C173.813 484.352 173.862 484.391 173.901 484.439C173.941 484.486 173.97 484.542 173.988 484.601C174.007 484.66 174.013 484.722 174.007 484.784C174.001 484.845 173.984 484.905 173.955 484.96C173.926 485.015 173.887 485.063 173.839 485.103C173.791 485.142 173.736 485.172 173.677 485.19C173.618 485.208 173.556 485.215 173.494 485.209C172.045 485.145 170.599 485.386 169.249 485.916C167.899 486.446 166.676 487.253 165.657 488.285C165.602 488.346 165.534 488.392 165.457 488.42C165.381 488.448 165.298 488.457 165.217 488.446Z" fill="#F5F5F5"/>
<path d="M161.396 485.707C161.289 485.708 161.185 485.672 161.103 485.604C161.058 485.562 161.022 485.511 160.998 485.454C160.974 485.397 160.961 485.336 160.961 485.274C160.961 485.213 160.974 485.152 160.998 485.095C161.022 485.038 161.058 484.987 161.103 484.945C162.218 483.791 163.568 482.889 165.061 482.3C166.555 481.711 168.157 481.449 169.76 481.532C169.882 481.546 169.993 481.608 170.07 481.704C170.147 481.8 170.183 481.922 170.17 482.044C170.156 482.166 170.094 482.278 169.998 482.354C169.902 482.431 169.78 482.467 169.658 482.455C168.21 482.397 166.765 482.641 165.416 483.171C164.067 483.7 162.843 484.504 161.82 485.531C161.771 485.594 161.705 485.644 161.631 485.674C161.557 485.705 161.476 485.716 161.396 485.707Z" fill="#F5F5F5"/>
<path d="M157.663 482.967C157.557 482.963 157.455 482.927 157.37 482.865C157.283 482.777 157.234 482.659 157.234 482.535C157.234 482.412 157.283 482.293 157.37 482.206C158.578 480.948 160.057 479.983 161.694 479.384C163.332 478.785 165.084 478.568 166.818 478.749C166.88 478.752 166.941 478.768 166.996 478.796C167.051 478.825 167.1 478.864 167.138 478.913C167.177 478.961 167.205 479.017 167.221 479.077C167.236 479.137 167.239 479.2 167.228 479.261C167.214 479.383 167.152 479.494 167.056 479.571C166.96 479.648 166.838 479.684 166.716 479.671C165.139 479.516 163.548 479.714 162.058 480.251C160.568 480.788 159.217 481.651 158.102 482.777C158.051 482.843 157.984 482.895 157.907 482.928C157.83 482.962 157.746 482.975 157.663 482.967Z" fill="#F5F5F5"/>
<path d="M121.992 440.457L100.883 440.076C101.19 454.168 103.432 469.798 103.813 483.011C103.813 485.502 103.813 502.348 104.692 507.475C106.156 515.166 115.239 514.126 115.722 509.526C116.205 504.926 115.136 485.253 115.165 483.158C115.078 474.691 119.047 460.379 121.142 445.159C121.23 444.47 121.889 441.189 121.992 440.457Z" fill="#FFA8A7"/>
<path d="M119.145 512.719C119.537 516.244 119.034 519.812 117.681 523.09C117.011 524.393 115.93 525.437 114.605 526.063C113.281 526.688 111.787 526.858 110.356 526.548C107.236 526.093 103.12 524.423 101.86 520.688C100.667 517.248 100.247 513.586 100.629 509.965L119.145 512.719Z" fill="#263238"/>
<path d="M103.75 481.4C102.504 481.62 102.739 487.699 102.622 493.807C102.49 500.37 100.834 503.241 100.673 508.617C100.483 514.77 101.083 517.407 103.603 520.893C106.123 524.38 113.989 527.192 117.168 521.567C119.761 516.982 119.409 512.221 118.516 506.186C117.622 500.15 116.919 495.58 116.684 490.804C116.45 486.029 116.348 481.795 115.22 481.4C115.22 482.074 115.22 482.938 115.22 483.597C115.22 484.256 115.322 486.527 114.619 486.673C114.511 486.108 114.447 485.535 114.429 484.96C114.461 484.427 114.288 483.903 113.945 483.495C113.521 483.182 113.007 483.017 112.48 483.026C111.225 482.885 109.964 482.816 108.701 482.821C108.071 482.821 107.426 482.821 106.811 482.923C106.27 482.965 105.74 483.098 105.244 483.319C105.098 483.381 104.966 483.473 104.858 483.589C104.749 483.705 104.666 483.843 104.614 483.993C104.57 484.225 104.57 484.464 104.614 484.696C104.665 485.114 104.665 485.537 104.614 485.956C104.614 486.146 104.482 486.381 104.292 486.351C104.101 486.322 104.072 486.146 104.057 486C103.969 485.267 104.057 484.725 103.969 483.876C103.969 483.48 103.969 482.938 103.969 482.543C103.969 482.147 103.764 481.795 103.75 481.4Z" fill="#455A64"/>
<path d="M100.775 506.859C100.775 507.753 100.585 513.627 102.24 514.506C103.896 515.385 104.54 510.815 104.54 510.815C104.54 510.815 108.422 509.189 114.516 511.151C114.311 512.118 115.512 515.136 117.05 514.316C118.588 513.495 118.515 506.801 118.515 506.713C119.35 512.572 119.614 517.114 117.05 521.567C113.871 527.192 105.976 524.35 103.485 520.893C100.995 517.436 100.394 514.77 100.556 508.617C100.629 508.002 100.731 507.431 100.775 506.859Z" fill="#37474F"/>
<path d="M105.028 511.152C105.218 513.349 102.991 512.836 102.581 509.687C102.171 506.537 103.138 499.081 102.581 493.749C102.698 487.64 102.464 481.561 103.709 481.341C103.702 481.414 103.702 481.488 103.709 481.561L103.856 484.652C103.827 485.091 103.827 485.531 103.856 485.97C104.266 490.453 104.515 499.154 104.529 503.285C104.555 505.914 104.722 508.54 105.028 511.152Z" fill="#263238"/>
<path d="M113.82 511.152C114.107 508.559 114.248 505.952 114.244 503.344C114.244 499.242 114.508 490.643 114.918 486.131C115.077 485.297 115.141 484.446 115.109 483.597C115.109 482.982 115.109 482.132 115.109 481.546C115.109 481.546 115.109 481.458 115.109 481.4C115.929 481.708 116.222 484.125 116.398 487.172C116.398 488.944 116.398 491.141 116.237 493.807C115.68 499.14 116.647 506.698 116.237 509.789C115.827 512.88 113.673 513.349 113.82 511.152Z" fill="#263238"/>
<path d="M114.68 511.313H114.519C111.354 510.22 107.914 510.22 104.748 511.313C104.691 511.335 104.629 511.345 104.567 511.344C104.506 511.342 104.445 511.328 104.388 511.303C104.332 511.278 104.281 511.242 104.238 511.197C104.196 511.152 104.163 511.099 104.141 511.042C104.118 510.984 104.108 510.923 104.11 510.861C104.111 510.799 104.125 510.738 104.15 510.682C104.175 510.625 104.211 510.574 104.256 510.532C104.301 510.489 104.354 510.456 104.412 510.434C107.789 509.228 111.479 509.228 114.856 510.434C114.914 510.455 114.966 510.487 115.011 510.529C115.056 510.571 115.092 510.622 115.116 510.678C115.141 510.734 115.154 510.794 115.155 510.856C115.155 510.917 115.143 510.978 115.12 511.034C115.084 511.12 115.023 511.193 114.944 511.243C114.865 511.293 114.773 511.317 114.68 511.313Z" fill="#F5F5F5"/>
<path d="M115.279 506.449C115.226 506.462 115.17 506.462 115.117 506.449C111.559 505.344 107.748 505.344 104.189 506.449C104.131 506.47 104.069 506.479 104.006 506.475C103.944 506.472 103.884 506.456 103.828 506.429C103.772 506.401 103.722 506.363 103.681 506.317C103.64 506.27 103.609 506.215 103.589 506.156C103.568 506.099 103.56 506.038 103.563 505.976C103.567 505.915 103.583 505.856 103.61 505.801C103.638 505.746 103.676 505.698 103.723 505.658C103.769 505.618 103.823 505.589 103.882 505.57C107.641 504.373 111.68 504.373 115.44 505.57C115.543 505.609 115.629 505.682 115.683 505.777C115.738 505.872 115.757 505.984 115.738 506.092C115.719 506.2 115.662 506.298 115.578 506.368C115.494 506.439 115.388 506.478 115.279 506.479V506.449Z" fill="#F5F5F5"/>
<path d="M104.004 501.85C103.914 501.847 103.827 501.82 103.752 501.771C103.677 501.722 103.617 501.653 103.579 501.571C103.529 501.459 103.526 501.331 103.57 501.216C103.614 501.1 103.701 501.007 103.813 500.956C107.514 499.501 111.623 499.475 115.342 500.883C115.399 500.904 115.452 500.936 115.497 500.978C115.541 501.02 115.577 501.071 115.602 501.127C115.626 501.183 115.639 501.243 115.64 501.305C115.641 501.366 115.629 501.427 115.605 501.483C115.56 501.597 115.471 501.689 115.359 501.738C115.247 501.787 115.12 501.79 115.005 501.747C115.005 501.747 109.263 499.491 104.209 501.747C104.149 501.796 104.079 501.831 104.004 501.85Z" fill="#F5F5F5"/>
<path d="M103.897 497.543C103.808 497.543 103.721 497.519 103.646 497.472C103.571 497.426 103.511 497.359 103.472 497.279C103.421 497.168 103.416 497.042 103.457 496.927C103.498 496.812 103.582 496.718 103.692 496.664C105.528 495.827 107.519 495.383 109.537 495.36C111.555 495.337 113.556 495.737 115.411 496.532C115.466 496.557 115.516 496.593 115.558 496.638C115.599 496.683 115.631 496.736 115.651 496.793C115.672 496.85 115.68 496.911 115.677 496.972C115.673 497.033 115.658 497.093 115.63 497.147C115.605 497.203 115.569 497.253 115.524 497.294C115.48 497.335 115.427 497.367 115.37 497.388C115.312 497.408 115.251 497.417 115.19 497.413C115.129 497.41 115.07 497.394 115.015 497.367C113.275 496.646 111.407 496.286 109.523 496.309C107.64 496.332 105.78 496.736 104.058 497.499C104.007 497.522 103.953 497.537 103.897 497.543Z" fill="#F5F5F5"/>
<path d="M103.796 492.723C103.689 492.725 103.584 492.69 103.5 492.624C103.415 492.557 103.356 492.464 103.332 492.36C103.308 492.255 103.321 492.145 103.368 492.049C103.415 491.952 103.494 491.875 103.591 491.83C109.172 489.076 115.193 491.713 115.442 491.83C115.5 491.852 115.553 491.886 115.597 491.93C115.641 491.974 115.676 492.026 115.698 492.085C115.72 492.143 115.729 492.205 115.726 492.267C115.722 492.329 115.705 492.39 115.676 492.445C115.625 492.557 115.532 492.645 115.417 492.688C115.302 492.732 115.174 492.729 115.061 492.679C115.061 492.679 109.202 490.116 104.016 492.679C103.948 492.714 103.872 492.729 103.796 492.723Z" fill="#F5F5F5"/>
<path d="M107.826 303.417C100.385 324.027 101.688 336.962 102.963 358.569C104.135 378.375 105.995 395.821 105.995 395.821C105.702 399.337 100.809 406.193 100.136 421.72C99.9196 432.654 100.409 443.59 101.6 454.461C101.6 454.461 111.342 458.02 119.575 454.461C119.575 454.461 127.998 417.267 130.297 399.088C132.29 383.223 135.776 362.949 135.776 362.949L143.101 399.015C141.669 403.862 140.934 408.888 140.918 413.942C140.918 422.424 144.858 446.008 144.858 446.008C144.858 446.008 155.772 449.539 162.686 443.401C162.686 443.401 165.425 409.459 166.392 396.524C167.681 379.268 165.806 331.967 161.661 307.753L107.826 303.417Z" fill="#455A64"/>
<path d="M135.859 362.891L138.906 335.761C138.906 335.761 152.544 333.945 158.726 328.129C156.953 330.903 154.589 333.251 151.804 335.006C149.018 336.76 145.88 337.879 142.612 338.281L138.218 363.535L143.198 398.956L135.859 362.891Z" fill="#37474F"/>
<path d="M169.582 283.304C162.946 276.477 150.963 261.038 150.963 261.038L144.195 237.599C145.708 237.678 147.224 237.678 148.736 237.599C156.061 238.083 158.214 238.713 162.77 243.693C166.388 247.663 180.187 266.502 184.978 272.844L197.707 256.628C200.769 252.014 200.271 246.843 201.853 243.078C203.435 239.313 205.999 237.658 208.05 234.289C210.1 230.92 210.584 228.664 212.268 230.407C213.953 232.15 212.005 236.838 211.756 237.907C211.507 238.976 208.928 242.155 213.221 240.5C217.513 238.845 224.134 231.007 225.833 229.411C227.533 227.814 228.441 230.29 228.06 232.253C227.679 234.216 229.525 238.639 228.851 241.877C228.432 245.133 226.812 248.116 224.31 250.241C221.219 253.347 213.66 257.17 210.701 261.257C207.742 265.344 201.428 278.045 197.517 285.692C192.61 295.418 188.435 298.626 182.868 295.345C177.302 292.064 172.028 285.838 169.582 283.304Z" fill="#FFA8A7"/>
<path d="M146.35 237.35C150.095 236.976 153.876 237.478 157.395 238.815C161.365 240.602 164.06 244.44 167.942 249.641C171.824 254.841 178.753 263.938 178.753 263.938C178.753 263.938 176.878 271.834 164.514 278.924L144.328 258.137L146.35 237.35Z" fill="#37474F"/>
<path d="M184.979 272.83C182.564 275.108 180.946 278.102 180.364 281.37C180.364 281.37 178.899 276.668 183.895 271.38L184.979 272.83Z" fill="#F28F8F"/>
<path d="M160.973 278.968C169.982 271.555 167.009 261.902 163.727 255.398C157.15 242.404 150.309 237.292 147.452 237.336L129.537 237.512C120.982 238.683 114.361 238.097 112.295 238.581C107.022 239.826 106.904 244.162 106.699 249.773C106.48 255.925 103.33 254.885 104.927 265.051C106.81 268.83 108.464 272.719 109.878 276.697C110.845 280.213 113.57 285.809 112.119 291.492C111.563 293.69 110.069 295.887 107.827 301.908C105.286 308.675 103.397 315.67 102.188 322.797C102.188 322.797 107.417 321.581 113.365 315.253C113.365 315.253 121.495 326.137 141.051 325.038C161.339 323.896 163.127 313.319 163.127 313.319L160.021 294.276C160.49 286.585 160.695 283.802 160.973 278.968Z" fill="#B3A7D1"/>
<path opacity="0.1" d="M149.263 277.049C149.263 277.049 141.939 282.908 133.34 280.096C130.944 279.378 128.773 278.058 127.032 276.263C125.291 274.468 124.038 272.258 123.393 269.842C123.393 269.842 122.661 279.583 133.472 282.718C136.364 283.595 139.461 283.517 142.305 282.496C145.15 281.475 147.589 279.565 149.263 277.049Z" fill="black"/>
<path d="M97.9844 228.971C95.3329 227.038 81.0503 246.154 87.7302 250.945C94.4101 255.735 101.529 242.155 100.094 235.739C98.6582 229.323 97.9844 228.971 97.9844 228.971Z" fill="#37474F"/>
<path d="M85.0166 219.479C88.5909 214.527 91.0226 210.792 94.2893 206.544C96.1351 204.127 97.3216 202.413 99.0941 199.937C100.325 198.238 101.042 196.802 102.419 196.26C103.957 195.584 105.33 194.585 106.448 193.331C107.132 192.538 107.763 191.701 108.338 190.826C110.402 187.967 112.869 185.421 115.662 183.267C118.592 180.996 121.8 179.238 124.788 177.07C126.561 175.781 128.465 173.657 126.253 171.738C125.566 171.183 124.749 170.81 123.88 170.654C118.548 169.585 113.933 171.504 108.748 172.925C106.493 173.54 104.289 174.328 102.156 175.283C101.097 175.713 100.109 176.301 99.226 177.026C97.9993 178.308 97.0076 179.796 96.2962 181.421C94.0256 185.596 89.2355 189.317 85.8809 192.584C81.9403 196.422 78.4246 199.908 73.9274 204.171C69.8843 207.979 65.9145 211.495 62.2084 215.655C59.1468 219.083 60.3333 221.72 60.7435 222.614C63.3803 227.799 66.2514 229.63 69.7086 232.868C70.8512 233.923 72.0084 234.963 73.1657 236.003C77.6482 240.046 82.1308 243.825 86.7891 247.722C91.7697 251.823 93.8205 253.816 98.2591 257.8C101.06 260.373 103.394 263.411 105.159 266.78C112.849 268.054 120.408 256.291 113.816 242.536C112.732 240.312 111.092 238.404 109.055 236.999C100.94 231.213 85.0166 219.479 85.0166 219.479Z" fill="#FFA8A7"/>
<path d="M85.0139 219.479C82.6147 222.525 79.3912 224.818 75.7266 226.085C75.7266 226.085 80.6339 227.257 87.2259 221.119L85.0139 219.479Z" fill="#F28F8F"/>
<path d="M112.912 238.464C111.11 237.218 106.73 234.567 97.9846 228.971C97.9846 228.971 99.3323 231.798 97.2083 238.903C95.0842 246.008 90.6016 250.505 87.7891 251.018C87.7891 251.018 92.6818 254.885 97.1936 259.25C101.705 263.616 105.412 266.707 108.019 271.775C108.019 271.775 114.465 270.12 115.929 259.192C116.955 251.53 116.34 242.536 112.912 238.464Z" fill="#455A64"/>
<path d="M161.834 203.277C163.121 200.556 163.689 197.549 163.481 194.545C163.273 191.542 162.297 188.642 160.647 186.123C155.095 178.228 145.734 174.404 135.392 174.521H132.184C118.224 174.756 105.538 186.739 105.289 200.23C105.289 209.723 105.289 218.497 110.519 224.972C115.338 230.993 122.853 232.97 129.196 233.937C141.325 235.783 154.949 234.377 160.457 226.115C160.457 226.115 153.132 227.579 154.055 219.991C154.187 218.79 153.044 217.472 151.037 216.109C152.443 213.674 154.097 211.392 155.974 209.298C158.039 207.232 160.427 206.075 161.834 203.277Z" fill="#263238"/>
<path d="M158.213 210.206C158.14 224.342 153.614 227.902 151.343 228.957C149.072 230.011 144.619 229.455 140.298 228.825L140.444 237.306C140.444 237.306 145.498 242.419 145.205 246.315C144.912 250.212 137.47 250.71 131.831 247.063C128.724 245.005 125.906 242.542 123.452 239.738C122.983 239.196 122.719 238.506 122.704 237.79L122.353 217.853C122.353 217.853 120.038 220.387 115.82 217.604C114.908 217.047 114.122 216.306 113.513 215.429C112.903 214.552 112.482 213.558 112.276 212.51C112.071 211.462 112.086 210.382 112.32 209.34C112.554 208.298 113.003 207.316 113.637 206.456C114.233 205.877 114.949 205.435 115.734 205.162C116.519 204.889 117.355 204.792 118.182 204.877C119.009 204.962 119.807 205.228 120.52 205.655C121.233 206.082 121.844 206.661 122.309 207.35C123.598 209.752 123.481 211.451 125.239 211.173C126.997 210.895 127.07 208.99 127.187 207.628C127.304 206.266 127.187 205.826 127.363 204.039C131.538 203.145 135.859 197.33 136.343 193.082C139.171 194.473 142.288 195.175 145.439 195.132C150.112 194.81 152.529 193.873 154.829 190.503C155.377 191.274 155.816 192.117 156.133 193.008C156.784 194.812 157.274 196.67 157.598 198.56C158.12 202.419 158.326 206.314 158.213 210.206Z" fill="#FFA8A7"/>
<path d="M140.305 228.825C135.749 228.297 126.359 225.778 124.836 222.115C125.452 223.975 126.622 225.6 128.191 226.774C131.032 229.118 140.349 231.652 140.349 231.652L140.305 228.825Z" fill="#F28F8F"/>
<path d="M144.884 221.207C144.893 221.576 144.792 221.938 144.594 222.249C144.396 222.56 144.111 222.806 143.773 222.954C143.436 223.102 143.062 223.147 142.699 223.083C142.336 223.018 142.001 222.848 141.735 222.592C141.47 222.337 141.286 222.008 141.207 221.648C141.128 221.288 141.158 220.913 141.293 220.57C141.428 220.227 141.662 219.932 141.965 219.722C142.268 219.512 142.626 219.397 142.995 219.391C143.486 219.383 143.96 219.57 144.314 219.91C144.668 220.25 144.873 220.716 144.884 221.207Z" fill="#B16668"/>
<path d="M142.499 207.291C142.523 207.551 142.496 207.813 142.418 208.062C142.34 208.311 142.214 208.543 142.047 208.743C141.879 208.943 141.674 209.108 141.442 209.228C141.21 209.349 140.957 209.422 140.697 209.444C140.297 209.487 139.892 209.409 139.536 209.221C139.18 209.032 138.889 208.741 138.699 208.386C138.509 208.03 138.43 207.626 138.472 207.226C138.513 206.825 138.674 206.446 138.932 206.137C139.191 205.828 139.536 205.603 139.923 205.492C140.31 205.38 140.721 205.387 141.105 205.511C141.488 205.635 141.826 205.871 142.074 206.188C142.322 206.505 142.47 206.889 142.499 207.291Z" fill="#263238"/>
<path d="M155.71 206.456C155.747 206.933 155.594 207.406 155.284 207.771C154.974 208.135 154.532 208.363 154.055 208.404C153.815 208.434 153.571 208.411 153.34 208.338C153.109 208.265 152.897 208.143 152.718 207.98C152.538 207.817 152.396 207.618 152.301 207.395C152.206 207.173 152.159 206.932 152.165 206.69C152.141 206.453 152.165 206.214 152.235 205.986C152.305 205.758 152.419 205.546 152.572 205.363C152.725 205.18 152.913 205.03 153.125 204.921C153.337 204.811 153.568 204.746 153.806 204.727C154.287 204.707 154.756 204.878 155.113 205.201C155.469 205.525 155.684 205.975 155.71 206.456Z" fill="#263238"/>
<path d="M146.586 204.625L147.992 216.432L154.042 213.912L146.586 204.625Z" fill="#F28F8F"/>
<path d="M135.438 202.193L138.953 198.853C139.391 199.34 139.625 199.977 139.606 200.632C139.586 201.286 139.316 201.908 138.851 202.369C138.619 202.589 138.345 202.759 138.045 202.87C137.745 202.981 137.426 203.03 137.106 203.013C136.787 202.997 136.475 202.916 136.188 202.775C135.901 202.634 135.646 202.436 135.438 202.193Z" fill="#263238"/>
<path d="M153.034 197.769L156.931 200.699C156.751 200.964 156.52 201.189 156.25 201.36C155.98 201.532 155.679 201.647 155.363 201.698C155.047 201.748 154.725 201.734 154.415 201.656C154.105 201.577 153.815 201.436 153.561 201.241C153.051 200.836 152.713 200.253 152.615 199.609C152.517 198.965 152.667 198.308 153.034 197.769Z" fill="#263238"/>
<path d="M96.8705 90.4665C99.6794 89.9309 102.551 89.8027 105.396 90.0857C108.115 90.3242 110.77 91.0485 113.233 92.2244C115.597 93.3527 117.686 94.9823 119.356 96.9999C121.117 99.1593 122.288 101.738 122.755 104.485C123.194 106.641 123.194 108.863 122.755 111.019C122.361 112.895 121.69 114.702 120.763 116.38C119.863 118.013 118.819 119.563 117.643 121.009C116.471 122.474 115.357 123.822 114.317 125.126C113.323 126.353 112.44 127.667 111.68 129.052C110.982 130.281 110.642 131.682 110.699 133.095C110.708 133.752 110.541 134.399 110.216 134.97C110.062 135.24 109.852 135.473 109.599 135.652C109.345 135.832 109.056 135.954 108.751 136.01L101.851 137.313C101.523 137.379 101.186 137.377 100.859 137.309C100.532 137.241 100.221 137.108 99.9468 136.918C99.661 136.754 99.4195 136.523 99.2433 136.245C99.0672 135.967 98.9617 135.65 98.936 135.321C98.5997 133.154 98.7093 130.941 99.2583 128.817C99.7791 126.925 100.542 125.108 101.529 123.412C102.483 121.796 103.576 120.267 104.796 118.841C106.011 117.376 107.11 116.058 108.121 114.769C109.05 113.611 109.855 112.359 110.523 111.033C111.098 109.883 111.278 108.576 111.036 107.313C110.841 106.2 110.378 105.151 109.686 104.257C108.994 103.364 108.095 102.653 107.066 102.186C104.514 101.026 101.647 100.752 98.9214 101.409C93.7845 102.386 90.4885 105.677 89.0334 111.283C88.9054 111.873 88.6775 112.438 88.3596 112.952C87.9533 113.422 87.3811 113.716 86.7628 113.773L79.4384 115.164C78.9325 115.254 78.4112 115.155 77.9735 114.886C77.7435 114.734 77.5478 114.536 77.3989 114.304C77.2501 114.072 77.1514 113.811 77.1093 113.538C76.7929 111.228 77.0443 108.875 77.8417 106.683C78.671 104.151 79.9405 101.786 81.5918 99.6953C83.4433 97.4063 85.6489 95.4282 88.1252 93.8358C90.7939 92.1556 93.7643 91.0112 96.8705 90.4665ZM110.245 141.371C110.896 141.259 111.566 141.403 112.113 141.775C112.659 142.147 113.04 142.716 113.175 143.363L114.64 151.362C114.706 151.682 114.706 152.013 114.638 152.334C114.57 152.654 114.436 152.956 114.244 153.222C114.064 153.495 113.831 153.728 113.56 153.909C113.288 154.091 112.983 154.216 112.662 154.277L104.854 155.742C104.531 155.809 104.198 155.808 103.875 155.74C103.552 155.672 103.247 155.538 102.979 155.346C102.707 155.166 102.473 154.934 102.292 154.662C102.111 154.39 101.986 154.085 101.924 153.764L100.459 145.766C100.398 145.444 100.403 145.113 100.474 144.794C100.544 144.474 100.679 144.172 100.87 143.905C101.045 143.629 101.276 143.392 101.549 143.21C101.821 143.029 102.129 142.906 102.452 142.851L110.245 141.371Z" fill="#B3A7D1"/>
<path d="M171.314 123.47C173.041 124.428 174.62 125.632 176.001 127.045C177.344 128.368 178.431 129.927 179.209 131.644C179.956 133.287 180.34 135.07 180.337 136.874C180.335 138.797 179.83 140.686 178.872 142.353C178.155 143.689 177.185 144.873 176.016 145.839C174.969 146.652 173.809 147.308 172.573 147.787C171.372 148.257 170.132 148.619 168.867 148.871L165.293 149.574C164.221 149.781 163.171 150.09 162.158 150.497C161.247 150.836 160.449 151.425 159.858 152.197C159.57 152.551 159.19 152.82 158.76 152.973C158.557 153.049 158.341 153.079 158.125 153.061C157.91 153.043 157.702 152.978 157.514 152.87L153.281 150.497C152.869 150.272 152.564 149.893 152.431 149.443C152.359 149.229 152.338 149.001 152.368 148.777C152.399 148.554 152.48 148.34 152.607 148.154C153.387 146.858 154.424 145.737 155.654 144.858C156.769 144.079 157.98 143.449 159.258 142.983C160.483 142.547 161.742 142.213 163.022 141.986C164.297 141.767 165.483 141.547 166.597 141.313C167.601 141.103 168.583 140.793 169.526 140.39C170.341 140.03 171.019 139.419 171.46 138.646C171.845 137.967 172.059 137.204 172.085 136.423C172.11 135.643 171.946 134.867 171.607 134.164C170.77 132.419 169.372 131.006 167.637 130.15C166.142 129.286 164.417 128.904 162.698 129.056C160.978 129.209 159.347 129.887 158.027 131C157.7 131.265 157.328 131.469 156.928 131.6C156.509 131.67 156.079 131.576 155.727 131.337L151.215 128.817C150.896 128.638 150.656 128.345 150.542 127.997C150.484 127.815 150.467 127.623 150.489 127.433C150.512 127.244 150.575 127.061 150.673 126.898C151.529 125.536 152.699 124.401 154.087 123.587C155.666 122.634 157.402 121.97 159.214 121.625C161.197 121.236 163.23 121.171 165.234 121.434C167.373 121.716 169.437 122.407 171.314 123.47ZM155.874 156.357C156.073 156.467 156.248 156.616 156.388 156.794C156.529 156.973 156.633 157.178 156.694 157.397C156.759 157.613 156.779 157.84 156.754 158.064C156.729 158.288 156.659 158.505 156.548 158.701L153.808 163.608C153.586 164.007 153.215 164.302 152.775 164.429C152.336 164.555 151.865 164.502 151.464 164.282L146.674 161.601C146.473 161.497 146.296 161.349 146.157 161.17C146.018 160.99 145.919 160.782 145.869 160.561C145.799 160.347 145.775 160.12 145.797 159.895C145.82 159.671 145.889 159.454 146 159.257L148.74 154.35C148.851 154.153 149 153.981 149.179 153.842C149.357 153.704 149.562 153.603 149.78 153.544C149.995 153.476 150.223 153.454 150.447 153.479C150.672 153.504 150.889 153.576 151.084 153.691L155.874 156.357Z" fill="#B3A7D1"/>
<g opacity="0.2">
<path d="M171.314 123.47C173.041 124.428 174.62 125.632 176.001 127.045C177.344 128.368 178.431 129.927 179.209 131.644C179.956 133.287 180.34 135.07 180.337 136.874C180.335 138.797 179.83 140.686 178.872 142.353C178.155 143.689 177.185 144.873 176.016 145.839C174.969 146.652 173.809 147.308 172.573 147.787C171.372 148.257 170.132 148.619 168.867 148.871L165.293 149.574C164.221 149.781 163.171 150.09 162.158 150.497C161.247 150.836 160.449 151.425 159.858 152.197C159.57 152.551 159.19 152.82 158.76 152.973C158.557 153.049 158.341 153.079 158.125 153.061C157.91 153.043 157.702 152.978 157.514 152.87L153.281 150.497C152.869 150.272 152.564 149.893 152.431 149.443C152.359 149.229 152.338 149.001 152.368 148.777C152.399 148.554 152.48 148.34 152.607 148.154C153.387 146.858 154.424 145.737 155.654 144.858C156.769 144.079 157.98 143.449 159.258 142.983C160.483 142.547 161.742 142.213 163.022 141.986C164.297 141.767 165.483 141.547 166.597 141.313C167.601 141.103 168.583 140.793 169.526 140.39C170.341 140.03 171.019 139.419 171.46 138.646C171.845 137.967 172.059 137.204 172.085 136.423C172.11 135.643 171.946 134.867 171.607 134.164C170.77 132.419 169.372 131.006 167.637 130.15C166.142 129.286 164.417 128.904 162.698 129.056C160.978 129.209 159.347 129.887 158.027 131C157.7 131.265 157.328 131.469 156.928 131.6C156.509 131.67 156.079 131.576 155.727 131.337L151.215 128.817C150.896 128.638 150.656 128.345 150.542 127.997C150.484 127.815 150.467 127.623 150.489 127.433C150.512 127.244 150.575 127.061 150.673 126.898C151.529 125.536 152.699 124.401 154.087 123.587C155.666 122.634 157.402 121.97 159.214 121.625C161.197 121.236 163.23 121.171 165.234 121.434C167.373 121.716 169.437 122.407 171.314 123.47ZM155.874 156.357C156.073 156.467 156.248 156.616 156.388 156.794C156.529 156.973 156.633 157.178 156.694 157.397C156.759 157.613 156.779 157.84 156.754 158.064C156.729 158.288 156.659 158.505 156.548 158.701L153.808 163.608C153.586 164.007 153.215 164.302 152.775 164.429C152.336 164.555 151.865 164.502 151.464 164.282L146.674 161.601C146.473 161.497 146.296 161.349 146.157 161.17C146.018 160.99 145.919 160.782 145.869 160.561C145.799 160.347 145.775 160.12 145.797 159.895C145.82 159.671 145.889 159.454 146 159.257L148.74 154.35C148.851 154.153 149 153.981 149.179 153.842C149.357 153.704 149.562 153.603 149.78 153.544C149.995 153.476 150.223 153.454 150.447 153.479C150.672 153.504 150.889 153.576 151.084 153.691L155.874 156.357Z" fill="black"/>
</g>
<path d="M68.126 177.261C68.3211 177.076 68.5514 176.933 68.8031 176.84C69.0548 176.747 69.3228 176.706 69.5909 176.719C69.8658 176.723 70.1371 176.782 70.3888 176.892C70.6404 177.003 70.8672 177.163 71.0558 177.363L75.5676 182.256C75.7532 182.456 75.8975 182.69 75.9922 182.946C76.0868 183.201 76.1299 183.473 76.119 183.745C76.1081 184.018 76.0434 184.285 75.9287 184.532C75.8139 184.78 75.6514 185.002 75.4504 185.186L70.6749 189.581C70.4753 189.766 70.241 189.91 69.9854 190.005C69.7298 190.1 69.4579 190.143 69.1856 190.132C68.9132 190.121 68.6458 190.056 68.3985 189.942C68.1513 189.827 67.9292 189.664 67.7451 189.463L63.2333 184.571C63.0458 184.372 62.8999 184.138 62.8042 183.882C62.7084 183.626 62.6647 183.354 62.6756 183.081C62.6865 182.808 62.7519 182.54 62.8677 182.293C62.9836 182.046 63.1478 181.824 63.3505 181.641L68.126 177.261ZM36.7775 147.743C38.4905 146.143 40.4243 144.796 42.5198 143.744C44.5098 142.739 46.6623 142.094 48.8774 141.84C51.0039 141.605 53.1559 141.825 55.1911 142.485C57.3533 143.223 59.2867 144.51 60.8016 146.22C62.0692 147.508 63.0654 149.037 63.7313 150.717C64.2686 152.191 64.5845 153.736 64.6689 155.302C64.7525 156.827 64.7035 158.356 64.5224 159.873C64.3319 161.338 64.1562 162.802 63.995 164.165C63.836 165.447 63.7919 166.742 63.8632 168.032C63.9119 169.192 64.2877 170.314 64.9472 171.269C65.2311 171.707 65.3929 172.213 65.416 172.734C65.4287 172.991 65.3825 173.247 65.281 173.483C65.1794 173.72 65.0251 173.929 64.83 174.097L60.6111 178.008C60.211 178.371 59.6862 178.565 59.1463 178.55C58.8784 178.56 58.6121 178.505 58.3699 178.39C58.1277 178.276 57.9167 178.104 57.7546 177.891C56.5826 176.528 55.6959 174.944 55.1471 173.232C54.6883 171.695 54.4323 170.104 54.3854 168.501C54.3396 166.953 54.4279 165.404 54.6491 163.872C54.8688 162.407 55.0446 160.942 55.1911 159.624C55.3223 158.411 55.3223 157.188 55.1911 155.976C55.0955 154.932 54.6578 153.948 53.9459 153.178C53.3265 152.492 52.5495 151.967 51.6818 151.647C50.8141 151.328 49.8818 151.225 48.9653 151.347C46.705 151.639 44.6042 152.669 42.9886 154.277C39.844 157.207 38.9797 160.923 40.3958 165.425C40.5695 165.893 40.6587 166.389 40.6594 166.889C40.6232 167.136 40.5385 167.373 40.4103 167.587C40.282 167.8 40.1128 167.987 39.9123 168.135L35.4151 172.295C35.1009 172.598 34.6802 172.767 34.2432 172.764C34.0195 172.76 33.7991 172.708 33.597 172.612C33.3949 172.516 33.2156 172.378 33.0713 172.207C31.826 170.766 30.9555 169.04 30.5371 167.182C30.04 165.057 29.9259 162.859 30.2002 160.693C30.501 158.319 31.1836 156.009 32.2217 153.852C33.3273 151.538 34.875 149.463 36.7775 147.743Z" fill="#B3A7D1"/>
<g opacity="0.6">
<path d="M68.126 177.261C68.3211 177.076 68.5514 176.933 68.8031 176.84C69.0548 176.747 69.3228 176.706 69.5909 176.719C69.8658 176.723 70.1371 176.782 70.3888 176.892C70.6404 177.003 70.8672 177.163 71.0558 177.363L75.5676 182.256C75.7532 182.456 75.8975 182.69 75.9922 182.946C76.0868 183.201 76.1299 183.473 76.119 183.745C76.1081 184.018 76.0434 184.285 75.9287 184.532C75.8139 184.78 75.6514 185.002 75.4504 185.186L70.6749 189.581C70.4753 189.766 70.241 189.91 69.9854 190.005C69.7298 190.1 69.4579 190.143 69.1856 190.132C68.9132 190.121 68.6458 190.056 68.3985 189.942C68.1513 189.827 67.9292 189.664 67.7451 189.463L63.2333 184.571C63.0458 184.372 62.8999 184.138 62.8042 183.882C62.7084 183.626 62.6647 183.354 62.6756 183.081C62.6865 182.808 62.7519 182.54 62.8677 182.293C62.9836 182.046 63.1478 181.824 63.3505 181.641L68.126 177.261ZM36.7775 147.743C38.4905 146.143 40.4243 144.796 42.5198 143.744C44.5098 142.739 46.6623 142.094 48.8774 141.84C51.0039 141.605 53.1559 141.825 55.1911 142.485C57.3533 143.223 59.2867 144.51 60.8016 146.22C62.0692 147.508 63.0654 149.037 63.7313 150.717C64.2686 152.191 64.5845 153.736 64.6689 155.302C64.7525 156.827 64.7035 158.356 64.5224 159.873C64.3319 161.338 64.1562 162.802 63.995 164.165C63.836 165.447 63.7919 166.742 63.8632 168.032C63.9119 169.192 64.2877 170.314 64.9472 171.269C65.2311 171.707 65.3929 172.213 65.416 172.734C65.4287 172.991 65.3825 173.247 65.281 173.483C65.1794 173.72 65.0251 173.929 64.83 174.097L60.6111 178.008C60.211 178.371 59.6862 178.565 59.1463 178.55C58.8784 178.56 58.6121 178.505 58.3699 178.39C58.1277 178.276 57.9167 178.104 57.7546 177.891C56.5826 176.528 55.6959 174.944 55.1471 173.232C54.6883 171.695 54.4323 170.104 54.3854 168.501C54.3396 166.953 54.4279 165.404 54.6491 163.872C54.8688 162.407 55.0446 160.942 55.1911 159.624C55.3223 158.411 55.3223 157.188 55.1911 155.976C55.0955 154.932 54.6578 153.948 53.9459 153.178C53.3265 152.492 52.5495 151.967 51.6818 151.647C50.8141 151.328 49.8818 151.225 48.9653 151.347C46.705 151.639 44.6042 152.669 42.9886 154.277C39.844 157.207 38.9797 160.923 40.3958 165.425C40.5695 165.893 40.6587 166.389 40.6594 166.889C40.6232 167.136 40.5385 167.373 40.4103 167.587C40.282 167.8 40.1128 167.987 39.9123 168.135L35.4151 172.295C35.1009 172.598 34.6802 172.767 34.2432 172.764C34.0195 172.76 33.7991 172.708 33.597 172.612C33.3949 172.516 33.2156 172.378 33.0713 172.207C31.826 170.766 30.9555 169.04 30.5371 167.182C30.04 165.057 29.9259 162.859 30.2002 160.693C30.501 158.319 31.1836 156.009 32.2217 153.852C33.3273 151.538 34.875 149.463 36.7775 147.743Z" fill="white"/>
</g>
<path d="M366.421 279.466C362.246 277.078 344.667 266.912 338.691 263.455C337.504 262.781 336.757 262.341 336.698 262.297C333.727 260.641 330.254 260.12 326.928 260.832C324.072 261.412 321.337 262.477 318.842 263.982C318.431 264.216 318.021 264.495 317.626 264.758C310.873 269.021 305.072 275.73 300.238 284.959C295.315 293.949 292.674 304.009 292.547 314.257C292.547 323.964 295.135 330.776 300.311 334.692C300.835 335.082 301.383 335.439 301.951 335.761C306.8 338.515 331.117 352.607 331.659 352.915H331.791C331.193 352.587 330.62 352.215 330.077 351.802C324.892 347.895 322.304 341.089 322.313 331.381C322.441 321.133 325.082 311.073 330.004 302.084C335.111 292.318 341.308 285.32 348.593 281.092C355.527 277.088 361.514 276.565 366.553 279.524L366.421 279.466Z" fill="#B3A7D1"/>
<path opacity="0.4" d="M366.552 279.554C361.512 276.624 355.526 277.141 348.592 281.106C341.824 285.013 335.989 291.361 331.087 300.15L301.32 282.908C305.92 274.69 311.355 268.64 317.61 264.7C318.005 264.451 318.415 264.158 318.826 263.923C321.319 262.417 324.055 261.356 326.912 260.788C330.238 260.068 333.714 260.589 336.683 262.253L338.675 263.411C344.652 266.853 362.23 277.019 366.405 279.407L366.552 279.554Z" fill="black"/>
<path opacity="0.3" d="M331.791 352.871H331.659C331.117 352.563 306.756 338.471 301.951 335.717C301.383 335.395 300.835 335.038 300.311 334.648C295.135 330.742 292.547 323.935 292.547 314.227C292.671 303.979 295.312 293.918 300.238 284.93C300.589 284.241 300.955 283.567 301.336 282.923L331.088 300.106C330.722 300.75 330.356 301.424 330.004 302.098C325.082 311.088 322.441 321.148 322.313 331.396C322.313 341.103 324.901 347.91 330.077 351.816C330.622 352.21 331.195 352.562 331.791 352.871Z" fill="black"/>
<path d="M353.441 28.0919C367.884 19.7421 380.18 16.1922 390.326 17.4422C394.456 17.9356 398.443 19.2611 402.045 21.3388C401.945 21.2856 401.847 21.227 401.752 21.163C398.266 19.2001 377.26 7.08552 372.455 4.25829C368.79 2.11611 364.719 0.759247 360.501 0.273808C350.345 -0.96646 338.045 2.57856 323.601 10.9089C301.139 23.8682 283.073 42.9117 269.4 68.0393C255.728 93.1669 248.965 118.817 249.112 144.99L278.863 162.173C278.658 135.981 285.421 110.326 299.152 85.2077C312.883 60.0899 330.979 41.0513 353.441 28.0919Z" fill="#B3A7D1"/>
<path opacity="0.2" d="M401.808 21.1776C398.258 19.2002 394.358 17.9315 390.324 17.4421C380.187 16.1921 367.891 19.742 353.438 28.0918C330.976 41.0414 312.909 60.0849 299.237 85.2223C298.666 86.2623 298.109 87.3171 297.567 88.3571L267.742 71.1447C268.284 70.1047 268.841 69.05 269.412 68.0099C283.143 42.9018 301.21 23.8583 323.613 10.8795C338.076 2.53939 350.376 -1.00563 360.513 0.244406C364.732 0.734772 368.802 2.09662 372.467 4.24354C377.315 7.10006 398.322 19.2293 401.808 21.1776Z" fill="black"/>
<path opacity="0.3" d="M297.499 88.3278C284.892 112.44 278.685 137.045 278.881 162.143L249.129 144.96C248.943 119.852 255.15 95.247 267.748 71.1448L297.499 88.3278Z" fill="black"/>
<path d="M373.655 76.7845C368.255 73.9133 361.043 75.0364 352.019 80.1537C351.714 85.5225 350.608 90.8156 348.738 95.8573C346.482 101.932 339.919 114.461 329.05 133.446C317.79 153.076 309.645 171.821 304.615 189.683C299.627 207.318 297.093 225.557 297.086 243.884L297.232 253.01L317.536 264.729L326.999 270.193L326.838 261.052V260.935C326.87 242.667 329.403 224.49 334.367 206.91C339.397 189.048 347.546 170.307 358.816 150.688C369.676 131.703 376.234 119.168 378.489 113.084C380.742 107.069 381.893 100.698 381.888 94.2752C381.888 85.5347 379.144 79.7045 373.655 76.7845Z" fill="#B3A7D1"/>
<path opacity="0.3" d="M375.574 119.662C372.215 126.654 366.629 136.977 358.816 150.629C347.537 170.259 339.387 189.004 334.367 206.866C329.398 224.46 326.865 242.653 326.838 260.935V261.169L326.999 270.31L317.536 264.861L297.232 253.142L297.086 244.001C297.095 225.674 299.628 207.436 304.615 189.8C309.645 171.938 317.79 153.193 329.05 133.563C336.862 119.891 342.458 109.573 345.837 102.61L375.574 119.662Z" fill="black"/>
<path opacity="0.4" d="M381.887 94.2752C381.89 100.677 380.744 107.028 378.503 113.026C377.873 114.74 376.891 116.952 375.573 119.662L345.836 102.493C347.135 99.7783 348.111 97.5663 348.766 95.8573C350.636 90.8156 351.742 85.5225 352.047 80.1537C361.071 75.0364 368.283 73.9133 373.683 76.7845C379.084 79.6556 381.818 85.4859 381.887 94.2752Z" fill="black"/>
<path d="M319.149 138.881L278.88 162.143C278.674 135.951 285.437 110.296 299.168 85.1783C312.899 60.0605 330.966 41.017 353.369 28.0479C367.813 19.6981 380.108 16.1482 390.255 17.3982C400.401 18.6482 408.522 24.2099 414.616 34.0832C420.719 43.9565 423.771 56.2713 423.771 71.0276C423.711 79.5947 422.728 88.1303 420.841 96.4872C418.559 106.484 415.477 116.281 411.627 125.785C409.166 131.996 403.273 143.461 393.946 160.18C385.03 176.118 379.444 186.963 377.188 192.715C374.684 199.543 372.825 206.591 371.636 213.766C369.862 224.49 368.883 235.33 368.706 246.198L327.06 270.252L326.898 261.111C326.907 242.784 329.441 224.545 334.428 206.91C339.457 189.048 347.607 170.308 358.877 150.688C369.736 131.703 376.294 119.169 378.55 113.084C380.783 107.066 381.914 100.695 381.89 94.2753C381.89 85.486 379.151 79.6557 373.672 76.7846C368.193 73.9134 360.84 75.1146 351.611 80.3882C342.177 85.8375 334.438 94.0116 328.393 104.91C322.481 115.267 319.3 126.957 319.149 138.881Z" fill="#B3A7D1"/>
<path d="M348.521 281.194C355.992 276.868 362.369 276.599 367.653 280.389C372.936 284.178 375.578 290.921 375.578 300.619C375.418 310.923 372.726 321.029 367.74 330.048C362.525 339.961 356.222 347.051 348.829 351.318C341.436 355.586 335.157 355.762 329.99 351.846C324.815 347.939 322.227 341.128 322.227 331.411C322.354 321.162 324.995 311.102 329.917 302.113C335.044 292.367 341.246 285.394 348.521 281.194Z" fill="#B3A7D1"/>
</svg>
