<svg width="65" height="64" viewBox="0 0 65 64" fill="none" xmlns="http://www.w3.org/2000/svg">
<path d="M23.1693 50.6668H21.8359C11.1693 50.6668 5.83594 48.0002 5.83594 34.6668V21.3335C5.83594 10.6668 11.1693 5.3335 21.8359 5.3335H43.1693C53.8359 5.3335 59.1693 10.6668 59.1693 21.3335V34.6668C59.1693 45.3335 53.8359 50.6668 43.1693 50.6668H41.8359C41.0093 50.6668 40.2093 51.0668 39.7026 51.7335L35.7026 57.0668C33.9426 59.4135 31.0626 59.4135 29.3026 57.0668L25.3026 51.7335C24.8759 51.1468 23.8893 50.6668 23.1693 50.6668Z" stroke="#2E2E2E" stroke-width="1.5" stroke-miterlimit="10" stroke-linecap="round" stroke-linejoin="round"/>
<path d="M43.1546 29.3333H43.1786" stroke="#2E2E2E" stroke-width="2" stroke-linecap="round" stroke-linejoin="round"/>
<path d="M32.4906 29.3333H32.5145" stroke="#2E2E2E" stroke-width="2" stroke-linecap="round" stroke-linejoin="round"/>
<path d="M21.8187 29.3333H21.8426" stroke="#2E2E2E" stroke-width="2" stroke-linecap="round" stroke-linejoin="round"/>
</svg>
