<svg width="41" height="41" viewBox="0 0 41 41" fill="none" xmlns="http://www.w3.org/2000/svg">
<path d="M22.0729 35.9427C20.9729 37.4094 19.1729 37.4094 18.0729 35.9427L15.5729 32.6094C15.2896 32.2427 14.6896 31.9427 14.2396 31.9427H13.4063C6.73958 31.9427 3.40625 30.276 3.40625 21.9427V13.6094C3.40625 6.94271 6.73958 3.60938 13.4063 3.60938H26.7396C33.4063 3.60938 36.7396 6.94271 36.7396 13.6094V21.9427" stroke="#292D32" stroke-width="1.5" stroke-miterlimit="10" stroke-linecap="round" stroke-linejoin="round"/>
<path d="M30.4037 35.9948C33.3492 35.9948 35.737 33.607 35.737 30.6615C35.737 27.7159 33.3492 25.3281 30.4037 25.3281C27.4581 25.3281 25.0703 27.7159 25.0703 30.6615C25.0703 33.607 27.4581 35.9948 30.4037 35.9948Z" stroke="#292D32" stroke-width="1.5" stroke-linecap="round" stroke-linejoin="round"/>
<path d="M36.737 36.9948L35.0703 35.3281" stroke="#292D32" stroke-width="1.5" stroke-linecap="round" stroke-linejoin="round"/>
<path d="M26.7304 18.6615H26.7454" stroke="#292D32" stroke-width="2" stroke-linecap="round" stroke-linejoin="round"/>
<path d="M20.0664 18.6615H20.0813" stroke="#292D32" stroke-width="2" stroke-linecap="round" stroke-linejoin="round"/>
<path d="M13.3945 18.6615H13.4095" stroke="#292D32" stroke-width="2" stroke-linecap="round" stroke-linejoin="round"/>
</svg>
