<svg width="29" height="32" viewBox="0 0 29 32" fill="none" xmlns="http://www.w3.org/2000/svg">
<path d="M20.4141 8.49219C22.7443 10.2917 24.3522 13.1527 24.6784 16.4539" stroke="#2E2E2E" stroke-width="1.5535" stroke-linecap="round" stroke-linejoin="round"/>
<path d="M4.72656 16.5164C5.02949 13.2281 6.61406 10.3671 8.921 8.55469" stroke="#2E2E2E" stroke-width="1.5535" stroke-linecap="round" stroke-linejoin="round"/>
<path d="M10.1953 27.6094C11.5469 28.3732 13.0848 28.8004 14.7043 28.8004C16.2656 28.8004 17.7337 28.412 19.0502 27.7" stroke="#2E2E2E" stroke-width="1.5535" stroke-linecap="round" stroke-linejoin="round"/>
<path d="M14.7078 10.4713C16.4967 10.4713 17.9468 8.86001 17.9468 6.87237C17.9468 4.88473 16.4967 3.27344 14.7078 3.27344C12.9189 3.27344 11.4688 4.88473 11.4688 6.87237C11.4688 8.86001 12.9189 10.4713 14.7078 10.4713Z" stroke="#2E2E2E" stroke-width="1.5535" stroke-linecap="round" stroke-linejoin="round"/>
<path d="M6.28592 26.2994C8.07479 26.2994 9.52496 24.6881 9.52496 22.7005C9.52496 20.7129 8.07479 19.1016 6.28592 19.1016C4.49704 19.1016 3.04688 20.7129 3.04688 22.7005C3.04688 24.6881 4.49704 26.2994 6.28592 26.2994Z" stroke="#2E2E2E" stroke-width="1.5535" stroke-linecap="round" stroke-linejoin="round"/>
<path d="M22.989 26.2994C24.7779 26.2994 26.2281 24.6881 26.2281 22.7005C26.2281 20.7129 24.7779 19.1016 22.989 19.1016C21.2002 19.1016 19.75 20.7129 19.75 22.7005C19.75 24.6881 21.2002 26.2994 22.989 26.2994Z" stroke="#2E2E2E" stroke-width="1.5535" stroke-linecap="round" stroke-linejoin="round"/>
</svg>
