<svg width="694" height="759" viewBox="0 0 694 759" fill="none" xmlns="http://www.w3.org/2000/svg">
<ellipse cx="428.962" cy="72.0373" rx="13.9622" ry="15.0373" fill="url(#paint0_linear_1523_12575)"/>
<ellipse cx="659.059" cy="318.881" rx="5.90708" ry="6.22234" fill="url(#paint1_linear_1523_12575)"/>
<ellipse cx="637.041" cy="120.803" rx="10.7401" ry="11.4076" fill="url(#paint2_linear_1523_12575)"/>
<path d="M639.454 459.408H472V464.652H639.454V459.408Z" fill="#F0F0F0"/>
<path d="M650.991 478.963H472V484.688H650.991V478.963Z" fill="#F0F0F0"/>
<path d="M650.991 498.751H472V504.476H650.991V498.751Z" fill="#F0F0F0"/>
<path d="M530.523 431H472V444.616H530.523V431Z" fill="#F0F0F0"/>
<path d="M671.628 397.81C671.303 397.479 674.555 393.294 678.876 388.463C683.196 383.631 686.99 379.975 687.3 380.289C687.61 380.604 684.373 384.806 680.052 389.654C675.732 394.501 671.938 398.141 671.628 397.81Z" fill="white"/>
<path d="M687.335 397.811C687.026 398.142 683.247 394.502 678.911 389.655C674.575 384.807 671.338 380.621 671.663 380.29C671.988 379.96 675.752 383.599 680.088 388.464C684.424 393.328 687.63 397.48 687.335 397.811Z" fill="white"/>
<path d="M379.492 65.8389H127.281V221.112H379.492V65.8389Z" fill="#FBF6F5"/>
<path d="M327.931 148.695H160.477V153.94H327.931V148.695Z" fill="#F0F0F0"/>
<path d="M339.468 168.252H160.477V173.976H339.468V168.252Z" fill="#F0F0F0"/>
<path d="M339.468 188.039H160.477V193.764H339.468V188.039Z" fill="#F0F0F0"/>
<path d="M219 120.289H160.477V133.905H219V120.289Z" fill="#F0F0F0"/>
<path d="M379.492 65.8389H127.281V90.8216H379.492V65.8389Z" fill="#AA8AFF"/>
<path d="M359.241 86.9671C358.916 86.6528 362.168 82.4504 366.489 77.6193C370.809 72.7882 374.604 69.1318 374.913 69.4627C375.223 69.7936 371.986 73.9794 367.666 78.8105C363.345 83.6416 359.551 87.2649 359.241 86.9671Z" fill="white"/>
<path d="M374.913 86.9672C374.604 87.2981 370.825 83.6582 366.489 78.8106C362.153 73.963 358.916 69.7937 359.241 69.4628C359.566 69.1319 363.33 72.7717 367.666 77.6194C372.002 82.467 375.239 86.6529 374.913 86.9672Z" fill="white"/>
<path d="M283.978 354.281H30.2188V197.354H283.978V354.281ZM31.7674 352.627H282.43V199.008H31.7674V352.627Z" fill="#E0E0E0"/>
<path d="M231.638 281.037H64.1836V286.282H231.638V281.037Z" fill="#AA8AFF"/>
<path d="M243.175 300.594H64.1836V306.318H243.175V300.594Z" fill="#F0F0F0"/>
<path d="M243.175 320.381H64.1836V326.106H243.175V320.381Z" fill="#F0F0F0"/>
<path d="M122.707 252.63H64.1836V266.247H122.707V252.63Z" fill="#AA8AFF"/>
<path d="M283.203 198.181H30.9922V223.163H283.203V198.181Z" fill="#AA8AFF"/>
<path d="M294.013 300.51H60.7266V559.453H294.013V300.51Z" fill="#FBF6F5"/>
<path d="M294.013 300.51H60.7266V328.719H294.013V300.51Z" fill="#AA8AFF"/>
<path d="M79.9935 314.326C79.951 315.349 79.6283 316.337 79.0655 317.165C78.5026 317.994 77.7243 318.628 76.8272 318.988C75.9301 319.349 74.9537 319.42 74.0191 319.193C73.0845 318.966 72.233 318.45 71.5701 317.711C70.9072 316.971 70.4622 316.04 70.2903 315.033C70.1184 314.025 70.2271 312.986 70.6031 312.044C70.979 311.102 71.6055 310.299 72.4049 309.734C73.2043 309.169 74.1414 308.868 75.0998 308.867C76.4252 308.901 77.6839 309.495 78.6008 310.518C79.5178 311.541 80.0185 312.91 79.9935 314.326Z" fill="white"/>
<path d="M99.8572 314.327C99.8177 315.354 99.4962 316.347 98.9326 317.181C98.3691 318.015 97.5884 318.654 96.6877 319.017C95.7871 319.381 94.8062 319.454 93.8671 319.226C92.9281 318.999 92.0724 318.482 91.4064 317.739C90.7405 316.996 90.2938 316.06 90.1219 315.048C89.9499 314.036 90.0604 312.992 90.4395 312.046C90.8186 311.101 91.4496 310.295 92.254 309.73C93.0584 309.164 94.0007 308.864 94.9635 308.867C96.2889 308.901 97.5476 309.495 98.4645 310.518C99.3815 311.541 99.8821 312.91 99.8572 314.327Z" fill="white"/>
<path d="M119.728 314.327C119.689 315.354 119.367 316.347 118.804 317.181C118.24 318.015 117.459 318.654 116.559 319.017C115.658 319.381 114.677 319.454 113.738 319.226C112.799 318.999 111.943 318.482 111.278 317.739C110.612 316.996 110.165 316.06 109.993 315.048C109.821 314.036 109.932 312.992 110.311 312.046C110.69 311.101 111.321 310.295 112.125 309.73C112.929 309.164 113.872 308.864 114.835 308.867C116.16 308.901 117.419 309.495 118.336 310.518C119.253 311.541 119.753 312.91 119.728 314.327Z" fill="white"/>
<path d="M658.498 122.471H360.695V439.569H658.498V122.471Z" fill="#FBF6F5"/>
<path d="M658.498 122.471H360.695V159.614H658.498V122.471Z" fill="#AA8AFF"/>
<path d="M386.066 140.672C386.011 142.022 385.587 143.325 384.845 144.42C384.103 145.515 383.076 146.353 381.892 146.829C380.709 147.306 379.42 147.401 378.186 147.102C376.952 146.803 375.828 146.124 374.952 145.148C374.077 144.172 373.489 142.944 373.261 141.614C373.034 140.284 373.177 138.913 373.673 137.669C374.169 136.426 374.996 135.366 376.051 134.62C377.106 133.874 378.343 133.476 379.608 133.475C381.357 133.518 383.018 134.3 384.228 135.649C385.438 136.997 386.099 138.803 386.066 140.672Z" fill="white"/>
<path d="M410.326 135.808C411.184 136.804 411.749 138.048 411.951 139.384C412.152 140.721 411.981 142.092 411.458 143.325C410.936 144.559 410.085 145.601 409.012 146.322C407.939 147.043 406.691 147.41 405.424 147.378C404.157 147.347 402.927 146.918 401.887 146.144C400.846 145.371 400.042 144.288 399.574 143.029C399.106 141.771 398.995 140.393 399.254 139.068C399.514 137.743 400.133 136.528 401.034 135.576C402.296 134.293 403.983 133.597 405.724 133.64C407.466 133.684 409.121 134.463 410.326 135.808Z" fill="white"/>
<path d="M438.382 140.672C438.328 142.022 437.903 143.325 437.161 144.42C436.419 145.515 435.392 146.353 434.209 146.829C433.025 147.306 431.736 147.401 430.502 147.102C429.269 146.803 428.144 146.124 427.269 145.148C426.393 144.172 425.805 142.944 425.578 141.614C425.35 140.284 425.494 138.913 425.989 137.669C426.485 136.426 427.312 135.366 428.367 134.62C429.422 133.874 430.659 133.476 431.924 133.475C433.673 133.518 435.334 134.3 436.544 135.649C437.755 136.997 438.416 138.803 438.382 140.672Z" fill="white"/>
<path d="M544.137 108.243L536.161 111.288L532.739 100.153C526.451 79.6207 506.412 68.7177 487.998 75.65C469.585 82.5823 459.782 105.1 466.07 125.632L469.492 136.767L461.486 139.827C458.433 141.092 455.954 143.566 454.563 146.733C453.173 149.901 452.979 153.519 454.021 156.835L476.213 229.285C476.674 230.927 477.439 232.453 478.462 233.773C479.486 235.093 480.748 236.179 482.172 236.968C483.596 237.756 485.155 238.231 486.754 238.364C488.354 238.496 489.962 238.284 491.483 237.74L574.134 206.156C577.227 204.893 579.741 202.397 581.148 199.195C582.554 195.992 582.744 192.331 581.675 188.982L559.468 116.532C558.995 114.895 558.219 113.376 557.185 112.067C556.151 110.757 554.881 109.684 553.45 108.91C552.019 108.136 550.457 107.679 548.857 107.564C547.256 107.45 545.651 107.681 544.137 108.243ZM481.138 119.825C479.443 114.486 479.747 108.654 481.987 103.549C484.227 98.445 488.23 94.465 493.155 92.443C495.588 91.5539 498.163 91.1974 500.727 91.3947C503.291 91.592 505.791 92.339 508.079 93.5913C510.367 94.8436 512.396 96.5754 514.044 98.6834C515.691 100.791 516.925 103.232 517.67 105.861L521.077 116.996L484.545 130.959L481.138 119.825ZM527.597 184.118L533.265 202.615C533.369 202.986 533.336 203.385 533.171 203.73C533.007 204.076 532.724 204.34 532.382 204.468L524.438 207.496C524.122 207.589 523.784 207.549 523.495 207.382C523.206 207.216 522.989 206.936 522.889 206.602L517.175 188.188C514.024 188.005 511 186.797 508.51 184.727C506.019 182.658 504.179 179.824 503.237 176.607C501.89 172.353 502.136 167.707 503.923 163.643C505.709 159.578 508.899 156.409 512.823 154.8C514.761 154.093 516.812 153.81 518.854 153.968C520.896 154.125 522.888 154.72 524.71 155.718C526.532 156.715 528.148 158.094 529.461 159.773C530.774 161.451 531.757 163.395 532.351 165.488C533.348 168.757 533.43 172.265 532.588 175.583C531.747 178.901 530.017 181.884 527.613 184.168L527.597 184.118Z" fill="#402586"/>
<path d="M535.81 111.089C535.81 111.321 521.02 117.26 502.622 124.325C484.225 131.389 469.218 137.064 469.141 136.899C469.063 136.733 483.93 130.744 502.344 123.663C520.757 116.582 535.732 110.874 535.81 111.089Z" fill="#263238"/>
<path d="M553.371 114.133C553.439 114.276 553.496 114.426 553.541 114.58C553.665 114.91 553.805 115.341 553.991 115.87C554.393 117.078 554.951 118.749 555.648 120.833L561.594 139.331C564.072 147.173 567.03 156.471 570.313 166.795C571.862 171.974 573.689 177.367 575.393 183.042C576.305 185.966 576.698 189.047 576.554 192.125C576.423 193.726 575.997 195.284 575.3 196.708C574.556 198.128 573.562 199.38 572.373 200.398C569.98 202.263 567.325 203.71 564.506 204.683L556.53 207.743L541.431 213.518L515.863 223.246L498.596 229.732L493.95 231.386L492.711 231.816C492.579 231.879 492.437 231.918 492.293 231.932C492.293 231.932 492.417 231.932 492.68 231.733L493.888 231.221L498.534 229.351L515.708 222.601L541.23 212.674L556.298 206.85L564.274 203.773C567.012 202.84 569.591 201.437 571.908 199.62C573.015 198.676 573.94 197.513 574.634 196.195C575.29 194.878 575.685 193.431 575.795 191.943C575.938 188.977 575.56 186.009 574.68 183.191C573.008 177.566 571.242 172.122 569.647 166.944C566.426 156.603 563.453 147.272 561.099 139.43C558.745 131.588 556.763 125.284 555.4 120.85C554.749 118.683 554.254 116.995 553.851 115.771L553.48 114.447C553.433 114.347 553.396 114.241 553.371 114.133Z" fill="#263238"/>
<path d="M509.756 91.3176C509.756 91.3176 508.936 90.8874 507.418 90.2256C505.255 89.3376 502.967 88.8454 500.65 88.7697C497.217 88.6439 493.8 89.3333 490.646 90.7882C486.811 92.5998 483.531 95.53 481.184 99.2426C478.821 102.945 477.553 107.319 477.545 111.8C477.577 115.473 478.099 119.121 479.093 122.637C479.899 125.648 480.735 128.047 481.292 129.718C481.621 130.567 481.891 131.441 482.098 132.332C481.658 131.539 481.29 130.702 480.998 129.834C480.363 128.179 479.45 125.83 478.551 122.802C477.449 119.25 476.849 115.542 476.77 111.8C476.729 107.15 478.027 102.599 480.487 98.7628C482.916 94.9146 486.33 91.8938 490.321 90.0602C493.573 88.5973 497.097 87.9521 500.619 88.1741C502.986 88.3029 505.311 88.8916 507.48 89.9113C508.06 90.1971 508.619 90.5289 509.152 90.904C509.373 91.0074 509.577 91.1469 509.756 91.3176Z" fill="#263238"/>
<path d="M510.468 156.058C510.715 155.898 510.974 155.76 511.242 155.645C512.018 155.271 512.82 154.967 513.643 154.735C514.948 154.323 516.294 154.079 517.654 154.007C519.503 153.901 521.352 154.199 523.089 154.884C527.054 156.373 530.693 160.691 532.49 166.465C533.351 169.564 533.351 172.863 532.49 175.962C531.534 179.325 529.822 182.387 527.503 184.879L527.596 184.433C529.656 190.472 531.901 197.023 534.224 203.856L534.363 204.27L533.976 204.419L530.43 205.676L522.687 208.439L522.3 208.572L522.176 208.158C520.054 201.308 517.731 194.922 515.981 188.652L516.322 188.933C513.294 188.664 510.408 187.45 508.021 185.442C505.862 183.665 504.092 181.407 502.833 178.824C501.698 176.534 501.133 173.97 501.192 171.379C501.263 168.731 501.882 166.132 503.004 163.77C504.126 161.407 505.723 159.339 507.68 157.713C508.486 157.014 509.391 156.456 510.36 156.058C509.485 156.613 508.637 157.215 507.82 157.862C505.669 159.806 504.022 162.306 503.035 165.125C502.187 167.25 501.791 169.55 501.874 171.858C501.957 174.167 502.517 176.427 503.515 178.477C504.752 180.961 506.48 183.129 508.579 184.83C510.855 186.739 513.608 187.889 516.492 188.139H516.755L516.833 188.387C518.536 194.542 520.875 200.978 523.027 207.86L522.516 207.596L530.26 204.833L533.79 203.559L533.543 204.121C531.235 197.288 529.005 190.72 526.961 184.681V184.433L527.147 184.234C529.398 181.845 531.077 178.911 532.041 175.681C532.862 172.716 532.862 169.562 532.041 166.597C530.353 161.038 526.868 156.819 523.089 155.33C521.417 154.641 519.631 154.321 517.84 154.387C516.502 154.42 515.172 154.614 513.875 154.966C511.568 155.579 510.483 156.141 510.468 156.058Z" fill="#263238"/>
<path d="M472.75 633.773L309.722 633.012C300.307 632.96 291.298 629.121 284.672 622.34C278.047 615.559 274.348 606.389 274.387 596.845L276.117 182.546C276.136 177.818 277.075 173.139 278.878 168.779C280.682 164.418 283.316 160.461 286.629 157.133C289.943 153.804 293.871 151.171 298.189 149.383C302.507 147.594 307.13 146.686 311.794 146.71L474.807 147.471C484.222 147.519 493.233 151.353 499.861 158.131C506.489 164.91 510.193 174.077 510.158 183.621L508.428 597.904C508.409 602.634 507.47 607.314 505.667 611.676C503.864 616.039 501.23 619.999 497.917 623.329C494.604 626.66 490.677 629.297 486.359 631.089C482.04 632.881 477.416 633.793 472.75 633.773Z" fill="#455A64"/>
<path d="M474.568 161.716H442.971C441.94 161.735 440.923 161.96 439.978 162.378C439.033 162.796 438.178 163.399 437.462 164.152C436.747 164.904 436.185 165.793 435.808 166.766C435.432 167.739 435.248 168.778 435.268 169.823V175.63C435.287 176.674 435.103 177.712 434.726 178.684C434.349 179.657 433.787 180.544 433.071 181.295C432.356 182.047 431.501 182.648 430.556 183.064C429.611 183.48 428.594 183.703 427.564 183.72L365.969 183.439C363.886 183.383 361.909 182.49 360.474 180.958C359.039 179.426 358.262 177.378 358.315 175.266V169.459C358.367 167.349 357.593 165.304 356.161 163.772C354.73 162.24 352.757 161.346 350.677 161.286H339.562L311.898 161.153C305.318 161.114 298.991 163.719 294.302 168.398C289.612 173.077 286.943 179.449 286.878 186.119L285.246 590.508C285.231 593.817 285.859 597.097 287.095 600.16C288.33 603.223 290.148 606.009 292.446 608.36C294.743 610.71 297.475 612.579 300.485 613.86C303.495 615.14 306.725 615.807 309.989 615.822L472.675 616.583C475.941 616.598 479.179 615.961 482.202 614.708C485.226 613.455 487.976 611.61 490.296 609.28C492.617 606.949 494.461 604.178 495.725 601.125C496.989 598.071 497.647 594.796 497.662 591.484L499.294 187.096C499.333 180.407 496.751 173.976 492.114 169.217C487.477 164.458 481.166 161.76 474.568 161.716Z" fill="white"/>
<path d="M452.68 562.63L331.71 562.101C330.453 562.101 329.441 560.711 329.457 559.023L329.588 526.943C329.588 525.289 330.616 523.866 331.873 523.866L452.843 524.428C453.539 524.55 454.162 524.94 454.582 525.517C455.001 526.093 455.185 526.812 455.095 527.522L454.981 559.569C454.981 561.274 453.936 562.647 452.68 562.63Z" fill="#6E6BFF"/>
<path d="M368.485 536.962C368.451 536.669 368.31 536.442 368.064 536.28C367.817 536.119 367.515 536.038 367.157 536.038C366.895 536.038 366.666 536.08 366.47 536.165C366.275 536.249 366.123 536.366 366.014 536.514C365.906 536.662 365.852 536.831 365.852 537.019C365.852 537.177 365.889 537.313 365.964 537.427C366.041 537.538 366.14 537.632 366.259 537.707C366.378 537.78 366.503 537.84 366.634 537.889C366.765 537.935 366.886 537.972 366.995 538.001L367.596 538.163C367.75 538.203 367.921 538.259 368.11 538.33C368.3 538.402 368.482 538.499 368.656 538.622C368.831 538.743 368.975 538.899 369.089 539.09C369.202 539.28 369.259 539.514 369.259 539.792C369.259 540.111 369.175 540.4 369.008 540.658C368.842 540.916 368.6 541.121 368.28 541.273C367.963 541.425 367.577 541.501 367.122 541.501C366.699 541.501 366.332 541.433 366.022 541.296C365.714 541.159 365.472 540.969 365.295 540.724C365.119 540.48 365.02 540.196 364.997 539.872H365.736C365.756 540.096 365.831 540.28 365.962 540.427C366.094 540.571 366.262 540.679 366.464 540.75C366.668 540.819 366.888 540.854 367.122 540.854C367.396 540.854 367.641 540.81 367.859 540.721C368.076 540.631 368.249 540.506 368.376 540.346C368.503 540.184 368.566 539.996 368.566 539.78C368.566 539.584 368.511 539.424 368.402 539.301C368.292 539.177 368.147 539.077 367.968 539C367.789 538.923 367.596 538.856 367.388 538.798L366.66 538.59C366.198 538.457 365.833 538.268 365.563 538.021C365.294 537.775 365.159 537.453 365.159 537.054C365.159 536.723 365.248 536.434 365.427 536.188C365.608 535.94 365.851 535.747 366.155 535.61C366.461 535.472 366.803 535.402 367.18 535.402C367.561 535.402 367.9 535.471 368.197 535.607C368.493 535.742 368.728 535.927 368.901 536.162C369.076 536.397 369.169 536.663 369.178 536.962H368.485ZM371.153 535.483V541.397H370.437V535.483H371.153ZM377.278 535.483V541.397H376.585L373.362 536.754H373.305V541.397H372.588V535.483H373.281L376.516 540.138H376.573V535.483H377.278ZM382.753 537.331C382.69 537.137 382.606 536.963 382.502 536.809C382.4 536.653 382.278 536.52 382.135 536.41C381.995 536.3 381.835 536.217 381.656 536.159C381.477 536.101 381.281 536.072 381.067 536.072C380.717 536.072 380.398 536.163 380.111 536.344C379.824 536.525 379.596 536.791 379.427 537.144C379.257 537.496 379.173 537.928 379.173 538.44C379.173 538.952 379.258 539.384 379.43 539.737C379.601 540.089 379.833 540.356 380.126 540.536C380.418 540.717 380.747 540.808 381.113 540.808C381.452 540.808 381.75 540.736 382.008 540.591C382.268 540.445 382.47 540.239 382.615 539.973C382.761 539.706 382.834 539.391 382.834 539.029L383.054 539.075H381.275V538.44H383.527V539.075C383.527 539.562 383.423 539.986 383.215 540.346C383.009 540.706 382.724 540.985 382.361 541.183C381.999 541.38 381.583 541.478 381.113 541.478C380.59 541.478 380.13 541.355 379.733 541.108C379.338 540.862 379.03 540.511 378.809 540.057C378.589 539.603 378.48 539.064 378.48 538.44C378.48 537.972 378.542 537.552 378.667 537.178C378.795 536.803 378.974 536.483 379.205 536.22C379.436 535.956 379.709 535.754 380.025 535.613C380.34 535.473 380.688 535.402 381.067 535.402C381.379 535.402 381.67 535.45 381.939 535.544C382.21 535.636 382.452 535.768 382.664 535.94C382.877 536.109 383.056 536.312 383.198 536.549C383.34 536.784 383.439 537.045 383.493 537.331H382.753ZM390.921 535.483H391.638V539.399C391.638 539.803 391.542 540.164 391.352 540.482C391.163 540.797 390.896 541.047 390.552 541.229C390.207 541.41 389.803 541.501 389.339 541.501C388.875 541.501 388.471 541.41 388.126 541.229C387.782 541.047 387.514 540.797 387.324 540.482C387.135 540.164 387.041 539.803 387.041 539.399V535.483H387.757V539.341C387.757 539.63 387.82 539.887 387.947 540.112C388.074 540.335 388.255 540.511 388.49 540.64C388.727 540.767 389.01 540.831 389.339 540.831C389.668 540.831 389.951 540.767 390.188 540.64C390.425 540.511 390.606 540.335 390.731 540.112C390.858 539.887 390.921 539.63 390.921 539.341V535.483ZM393.068 541.397V535.483H395.066C395.53 535.483 395.909 535.567 396.203 535.735C396.5 535.9 396.719 536.124 396.862 536.407C397.004 536.69 397.075 537.006 397.075 537.354C397.075 537.703 397.004 538.02 396.862 538.304C396.721 538.589 396.504 538.816 396.209 538.986C395.915 539.153 395.537 539.237 395.077 539.237H393.645V538.602H395.054C395.372 538.602 395.627 538.547 395.819 538.437C396.012 538.328 396.151 538.179 396.238 537.993C396.327 537.804 396.371 537.591 396.371 537.354C396.371 537.118 396.327 536.906 396.238 536.719C396.151 536.532 396.011 536.386 395.816 536.28C395.622 536.172 395.364 536.119 395.043 536.119H393.784V541.397H393.068Z" fill="#E8E8E3"/>
<path d="M355.84 280.591L313.863 280.398L313.828 288.207L355.805 288.4L355.84 280.591Z" fill="#6E6BFF"/>
<path opacity="0.1" d="M355.84 280.591L313.863 280.398L313.828 288.207L355.805 288.4L355.84 280.591Z" fill="black"/>
<path d="M478.876 328.538C479.205 328.504 479.529 328.426 479.839 328.306C480.29 328.127 480.683 327.823 480.972 327.428C481.26 327.033 481.433 326.563 481.471 326.073C481.471 323.442 481.471 319.604 481.471 314.673C481.471 312.208 481.471 309.445 481.471 306.401C481.471 305.656 481.471 304.879 481.471 304.101C481.577 303.347 481.415 302.578 481.014 301.934C480.789 301.625 480.497 301.373 480.16 301.198C479.823 301.023 479.45 300.929 479.071 300.925H476.525H452.942L316.434 300.412C316.085 300.406 315.739 300.485 315.427 300.644C315.114 300.802 314.844 301.035 314.639 301.322C314.245 301.969 314.094 302.738 314.215 303.489C314.215 305.144 314.215 306.798 314.215 308.453C314.215 311.762 314.215 315.07 314.215 318.379C314.215 320.034 314.215 321.688 314.215 323.343C314.147 324.113 314.147 324.889 314.215 325.659C314.3 325.99 314.46 326.296 314.68 326.554C314.901 326.812 315.177 327.015 315.488 327.148C315.809 327.278 316.154 327.34 316.5 327.33H324.807L361.055 327.529L422.422 327.909L463.795 328.24L475.04 328.373H477.962C478.631 328.373 478.957 328.373 478.957 328.373H477.962H475.04H463.795H422.422L361.055 328.174L324.807 328.025H316.5C316.042 328.044 315.586 327.965 315.161 327.793C314.732 327.608 314.349 327.325 314.044 326.966C313.738 326.608 313.518 326.183 313.399 325.725C313.304 325.291 313.271 324.845 313.301 324.402V323.177C313.301 321.523 313.301 319.868 313.301 318.214C313.301 314.905 313.301 311.596 313.301 308.287C313.301 306.633 313.301 304.978 313.301 303.324C313.27 302.883 313.27 302.441 313.301 302C313.362 301.513 313.548 301.051 313.839 300.66C314.121 300.261 314.493 299.936 314.925 299.714C315.357 299.492 315.836 299.38 316.32 299.386L452.828 300.147L476.411 300.312H478.957C479.406 300.313 479.848 300.423 480.245 300.633C480.643 300.843 480.985 301.148 481.242 301.52C481.702 302.24 481.888 303.104 481.764 303.952C481.764 304.73 481.764 305.508 481.764 306.252C481.764 309.263 481.764 312.026 481.764 314.524C481.764 319.488 481.65 323.293 481.617 325.94C481.578 326.449 481.395 326.936 481.091 327.344C480.788 327.751 480.376 328.062 479.904 328.24C479.595 328.434 479.239 328.537 478.876 328.538Z" fill="#E0E0E0"/>
<path d="M403.234 308.717H326.461V316.013H403.234V308.717Z" fill="#6E6BFF"/>
<path opacity="0.2" d="M403.234 308.717H326.461V316.013H403.234V308.717Z" fill="white"/>
<path d="M355.555 351.831L313.578 351.638L313.543 359.447L355.52 359.64L355.555 351.831Z" fill="#6E6BFF"/>
<path opacity="0.1" d="M355.555 351.831L313.578 351.638L313.543 359.447L355.52 359.64L355.555 351.831Z" fill="black"/>
<path d="M477.825 399.78C478.155 399.738 478.482 399.678 478.805 399.598C479.26 399.45 479.68 399.206 480.035 398.881C480.389 398.555 480.671 398.157 480.861 397.711C481.118 397.044 481.219 396.324 481.155 395.61C481.155 394.816 481.155 393.956 481.155 392.996C481.155 391.077 481.155 388.893 481.155 386.378V375.872C481.233 375.112 481.067 374.346 480.681 373.688C480.279 373.014 479.646 372.514 478.902 372.282C478.09 372.135 477.262 372.091 476.438 372.15H452.952L316.918 371.637C316.186 371.639 315.48 371.91 314.931 372.4C314.382 372.89 314.026 373.565 313.931 374.301C313.931 375.872 313.931 377.609 313.931 379.264C313.931 382.573 313.931 385.882 313.931 389.191C313.931 390.845 313.931 392.5 313.931 394.154C313.871 394.928 313.904 395.705 314.029 396.471C314.233 397.141 314.653 397.724 315.221 398.125C315.824 398.513 316.532 398.698 317.245 398.655H319.513H324.23L360.348 398.837L421.502 399.217L462.729 399.548L473.941 399.68H476.862H477.842H476.862H473.941H462.729H421.502L360.315 399.614L324.197 399.482H317.098C316.215 399.535 315.339 399.297 314.601 398.803C313.858 398.282 313.316 397.516 313.066 396.636C312.92 395.795 312.876 394.94 312.936 394.088C312.936 392.434 312.936 390.779 312.936 389.125C312.936 385.816 312.936 382.507 312.936 379.198C312.936 377.543 312.936 375.889 312.936 374.234C313.055 373.288 313.51 372.419 314.216 371.788C314.922 371.158 315.831 370.81 316.771 370.81L452.805 371.571L476.291 371.753C477.166 371.698 478.044 371.759 478.902 371.935C479.75 372.215 480.466 372.805 480.91 373.589C481.332 374.318 481.515 375.164 481.432 376.005C481.432 376.782 481.432 377.543 481.432 378.304C481.432 381.299 481.432 384.045 481.432 386.577C481.432 389.108 481.432 391.242 481.432 393.195C481.432 394.138 481.432 395.015 481.432 395.825C481.492 396.565 481.374 397.309 481.089 397.993C480.878 398.449 480.571 398.854 480.191 399.18C479.811 399.505 479.366 399.744 478.886 399.879C478.53 399.909 478.171 399.875 477.825 399.78Z" fill="#E0E0E0"/>
<path d="M355.238 426.165L313.262 425.972L313.227 433.781L355.204 433.974L355.238 426.165Z" fill="#6E6BFF"/>
<path opacity="0.1" d="M355.238 426.165L313.262 425.972L313.227 433.781L355.204 433.974L355.238 426.165Z" fill="black"/>
<path d="M477.491 474.082C477.821 474.043 478.148 473.982 478.47 473.9C478.924 473.754 479.342 473.512 479.697 473.189C480.051 472.867 480.334 472.472 480.527 472.03C480.782 471.362 480.883 470.643 480.82 469.929C480.82 469.119 480.82 468.275 480.82 467.299C480.82 465.396 480.82 463.196 480.82 460.681V450.175C480.898 449.414 480.732 448.648 480.347 447.991C479.935 447.329 479.305 446.836 478.568 446.601C477.756 446.448 476.928 446.398 476.104 446.452H452.618L316.584 445.939C315.852 445.941 315.146 446.212 314.597 446.702C314.047 447.192 313.692 447.868 313.597 448.603C313.597 450.257 313.597 451.912 313.597 453.566C313.597 456.875 313.597 460.184 313.597 463.493C313.597 465.148 313.597 466.802 313.597 468.457C313.536 469.225 313.569 469.997 313.695 470.757C313.89 471.432 314.312 472.017 314.886 472.411C315.486 472.808 316.197 472.994 316.91 472.94H324.01L360.128 473.139L421.282 473.52L462.508 473.85L473.721 473.983H476.642C477.295 473.983 477.622 473.983 477.622 473.983C477.622 473.983 477.295 473.983 476.642 473.983H473.721H462.508H421.282L360.128 473.801L324.01 473.652H316.91C316.027 473.712 315.148 473.474 314.413 472.974C313.671 472.452 313.129 471.686 312.879 470.806C312.733 469.966 312.689 469.11 312.748 468.258C312.748 466.604 312.748 464.949 312.748 463.295C312.748 459.986 312.748 456.677 312.748 453.368C312.748 451.713 312.748 450.059 312.748 448.322C312.864 447.377 313.316 446.508 314.019 445.877C314.722 445.246 315.629 444.898 316.567 444.897L452.602 445.658L476.087 445.84C476.962 445.786 477.84 445.847 478.699 446.022C479.547 446.303 480.262 446.892 480.706 447.676C481.128 448.405 481.311 449.251 481.228 450.092C481.228 450.87 481.228 451.647 481.228 452.392C481.228 455.386 481.228 458.133 481.228 460.664C481.228 463.196 481.228 465.33 481.228 467.282C481.228 468.225 481.228 469.102 481.228 469.913C481.291 470.653 481.173 471.397 480.886 472.08C480.674 472.537 480.367 472.941 479.987 473.267C479.607 473.592 479.162 473.831 478.682 473.966C478.3 474.099 477.892 474.139 477.491 474.082Z" fill="#E0E0E0"/>
<path d="M401.597 382.023L324.824 381.669L324.792 388.966L401.564 389.319L401.597 382.023Z" fill="#6E6BFF"/>
<path opacity="0.2" d="M401.597 382.023L324.824 381.669L324.792 388.966L401.564 389.319L401.597 382.023Z" fill="white"/>
<path d="M331.766 460.582C331.718 461.247 331.478 461.884 331.076 462.413C330.675 462.941 330.129 463.339 329.506 463.556C328.884 463.773 328.212 463.8 327.574 463.633C326.937 463.467 326.362 463.114 325.92 462.62C325.478 462.125 325.19 461.509 325.09 460.85C324.99 460.19 325.083 459.515 325.358 458.909C325.633 458.303 326.077 457.792 326.636 457.439C327.195 457.086 327.844 456.908 328.502 456.926C329.411 456.977 330.264 457.39 330.875 458.074C331.486 458.759 331.806 459.66 331.766 460.582Z" fill="#6E6BFF"/>
<path d="M342.161 460.631C342.193 461.097 342.131 461.565 341.977 462.006C341.823 462.447 341.581 462.851 341.266 463.193C340.952 463.535 340.571 463.807 340.148 463.994C339.725 464.18 339.269 464.276 338.807 464.276C338.346 464.276 337.89 464.18 337.467 463.994C337.044 463.807 336.663 463.535 336.349 463.193C336.034 462.851 335.792 462.447 335.638 462.006C335.484 461.565 335.421 461.097 335.453 460.631C335.421 460.165 335.484 459.696 335.638 459.256C335.792 458.815 336.034 458.411 336.349 458.069C336.663 457.727 337.044 457.454 337.467 457.268C337.89 457.082 338.346 456.985 338.807 456.985C339.269 456.985 339.725 457.082 340.148 457.268C340.571 457.454 340.952 457.727 341.266 458.069C341.581 458.411 341.823 458.815 341.977 459.256C342.131 459.696 342.193 460.165 342.161 460.631Z" fill="#6E6BFF"/>
<path d="M352.582 460.681C352.534 461.346 352.294 461.983 351.893 462.511C351.491 463.04 350.945 463.437 350.322 463.654C349.7 463.871 349.028 463.898 348.391 463.732C347.753 463.565 347.178 463.213 346.736 462.718C346.295 462.223 346.006 461.608 345.906 460.948C345.806 460.289 345.9 459.614 346.174 459.008C346.449 458.401 346.894 457.89 347.453 457.538C348.012 457.185 348.66 457.006 349.318 457.024C350.226 457.08 351.076 457.494 351.686 458.177C352.296 458.861 352.618 459.759 352.582 460.681Z" fill="#6E6BFF"/>
<path d="M362.977 460.731C362.929 461.397 362.689 462.033 362.287 462.562C361.885 463.091 361.339 463.488 360.717 463.705C360.094 463.922 359.423 463.949 358.785 463.783C358.148 463.616 357.573 463.264 357.131 462.769C356.689 462.274 356.401 461.659 356.301 460.999C356.201 460.34 356.294 459.665 356.569 459.059C356.844 458.452 357.288 457.941 357.847 457.588C358.406 457.236 359.055 457.057 359.713 457.075C360.62 457.13 361.471 457.544 362.081 458.228C362.691 458.911 363.013 459.81 362.977 460.731Z" fill="#6E6BFF"/>
<path d="M373.369 460.764C373.324 461.431 373.086 462.069 372.686 462.6C372.286 463.131 371.741 463.531 371.119 463.75C370.496 463.97 369.824 463.999 369.185 463.834C368.547 463.67 367.97 463.318 367.527 462.824C367.083 462.33 366.793 461.714 366.692 461.054C366.591 460.394 366.684 459.718 366.958 459.111C367.233 458.504 367.678 457.992 368.237 457.638C368.796 457.285 369.446 457.106 370.105 457.124C371.009 457.18 371.857 457.591 372.467 458.271C373.076 458.951 373.4 459.846 373.369 460.764Z" fill="#6E6BFF"/>
<path d="M383.791 460.814C383.746 461.477 383.511 462.112 383.115 462.642C382.719 463.171 382.179 463.572 381.561 463.794C380.943 464.016 380.275 464.051 379.638 463.893C379.001 463.735 378.424 463.392 377.977 462.906C377.53 462.419 377.233 461.811 377.122 461.156C377.012 460.501 377.093 459.828 377.355 459.219C377.617 458.609 378.05 458.091 378.599 457.728C379.148 457.365 379.789 457.172 380.445 457.174C381.364 457.208 382.232 457.611 382.86 458.293C383.487 458.975 383.822 459.882 383.791 460.814Z" fill="#6E6BFF"/>
<path d="M394.185 460.863C394.217 461.329 394.154 461.797 394 462.238C393.846 462.679 393.604 463.083 393.29 463.425C392.975 463.767 392.594 464.039 392.171 464.226C391.748 464.412 391.292 464.508 390.831 464.508C390.37 464.508 389.913 464.412 389.49 464.226C389.067 464.039 388.687 463.767 388.372 463.425C388.058 463.083 387.816 462.679 387.662 462.238C387.508 461.797 387.445 461.329 387.477 460.863C387.445 460.396 387.508 459.928 387.662 459.488C387.816 459.047 388.058 458.643 388.372 458.301C388.687 457.959 389.067 457.686 389.49 457.5C389.913 457.314 390.37 457.217 390.831 457.217C391.292 457.217 391.748 457.314 392.171 457.5C392.594 457.686 392.975 457.959 393.29 458.301C393.604 458.643 393.846 459.047 394 459.488C394.154 459.928 394.217 460.396 394.185 460.863Z" fill="#6E6BFF"/>
<path d="M404.58 460.912C404.535 461.575 404.3 462.211 403.904 462.74C403.508 463.27 402.968 463.67 402.35 463.893C401.732 464.115 401.064 464.149 400.427 463.991C399.79 463.834 399.213 463.49 398.766 463.004C398.319 462.518 398.022 461.91 397.911 461.255C397.801 460.6 397.882 459.926 398.144 459.317C398.406 458.708 398.839 458.19 399.388 457.827C399.937 457.463 400.578 457.271 401.234 457.272C402.153 457.307 403.022 457.709 403.649 458.392C404.276 459.074 404.611 459.98 404.58 460.912Z" fill="#6E6BFF"/>
<path d="M414.978 460.963C414.933 461.629 414.696 462.268 414.296 462.799C413.896 463.33 413.351 463.73 412.728 463.949C412.106 464.169 411.434 464.198 410.795 464.033C410.156 463.868 409.579 463.517 409.136 463.023C408.693 462.528 408.403 461.913 408.301 461.253C408.2 460.593 408.293 459.917 408.568 459.31C408.842 458.702 409.287 458.19 409.846 457.837C410.406 457.484 411.055 457.305 411.714 457.323C412.619 457.379 413.466 457.79 414.076 458.47C414.686 459.15 415.009 460.044 414.978 460.963Z" fill="#6E6BFF"/>
<g opacity="0.2">
<path d="M331.778 460.582C331.73 461.247 331.49 461.884 331.088 462.413C330.686 462.941 330.14 463.339 329.518 463.556C328.895 463.773 328.224 463.8 327.586 463.633C326.949 463.467 326.373 463.114 325.932 462.62C325.49 462.125 325.201 461.509 325.101 460.85C325.002 460.19 325.095 459.515 325.37 458.909C325.645 458.303 326.089 457.792 326.648 457.439C327.207 457.086 327.855 456.908 328.513 456.926C329.423 456.977 330.275 457.39 330.886 458.074C331.498 458.759 331.818 459.66 331.778 460.582Z" fill="white"/>
<path d="M342.173 460.631C342.205 461.097 342.142 461.565 341.988 462.006C341.834 462.447 341.592 462.851 341.278 463.193C340.963 463.535 340.583 463.807 340.16 463.994C339.737 464.18 339.28 464.276 338.819 464.276C338.358 464.276 337.902 464.18 337.479 463.994C337.056 463.807 336.675 463.535 336.36 463.193C336.046 462.851 335.804 462.447 335.65 462.006C335.496 461.565 335.433 461.097 335.465 460.631C335.433 460.165 335.496 459.696 335.65 459.256C335.804 458.815 336.046 458.411 336.36 458.069C336.675 457.727 337.056 457.454 337.479 457.268C337.902 457.082 338.358 456.985 338.819 456.985C339.28 456.985 339.737 457.082 340.16 457.268C340.583 457.454 340.963 457.727 341.278 458.069C341.592 458.411 341.834 458.815 341.988 459.256C342.142 459.696 342.205 460.165 342.173 460.631Z" fill="white"/>
<path d="M352.594 460.681C352.546 461.346 352.306 461.983 351.904 462.511C351.503 463.04 350.957 463.437 350.334 463.654C349.712 463.871 349.04 463.898 348.403 463.732C347.765 463.565 347.19 463.213 346.748 462.718C346.306 462.223 346.018 461.608 345.918 460.948C345.818 460.289 345.911 459.614 346.186 459.008C346.461 458.401 346.906 457.89 347.464 457.538C348.023 457.185 348.672 457.006 349.33 457.024C350.238 457.08 351.088 457.494 351.698 458.177C352.308 458.861 352.63 459.759 352.594 460.681Z" fill="white"/>
<path d="M362.985 460.731C362.937 461.397 362.697 462.033 362.295 462.562C361.893 463.091 361.347 463.488 360.725 463.705C360.102 463.922 359.431 463.949 358.793 463.783C358.156 463.616 357.58 463.264 357.139 462.769C356.697 462.274 356.408 461.659 356.308 460.999C356.209 460.34 356.302 459.665 356.577 459.059C356.852 458.452 357.296 457.941 357.855 457.588C358.414 457.236 359.063 457.057 359.721 457.075C360.628 457.13 361.478 457.544 362.089 458.228C362.699 458.911 363.021 459.81 362.985 460.731Z" fill="white"/>
<path d="M373.388 460.765C373.343 461.431 373.106 462.07 372.706 462.6C372.306 463.131 371.761 463.531 371.138 463.751C370.516 463.97 369.844 464 369.205 463.835C368.566 463.67 367.99 463.319 367.546 462.824C367.103 462.33 366.813 461.715 366.712 461.054C366.611 460.394 366.703 459.719 366.978 459.111C367.252 458.504 367.697 457.992 368.256 457.639C368.816 457.286 369.465 457.107 370.124 457.125C371.029 457.18 371.876 457.592 372.486 458.272C373.096 458.952 373.42 459.846 373.388 460.765Z" fill="white"/>
<path d="M383.802 460.813C383.758 461.476 383.523 462.112 383.127 462.641C382.731 463.171 382.19 463.571 381.573 463.794C380.955 464.016 380.286 464.05 379.649 463.892C379.013 463.734 378.435 463.391 377.988 462.905C377.541 462.419 377.244 461.811 377.134 461.156C377.024 460.501 377.104 459.827 377.367 459.218C377.629 458.609 378.061 458.091 378.61 457.728C379.159 457.364 379.801 457.172 380.457 457.173C381.376 457.208 382.244 457.61 382.871 458.293C383.498 458.975 383.833 459.881 383.802 460.813Z" fill="white"/>
<path d="M394.189 460.862C394.221 461.329 394.158 461.797 394.004 462.238C393.85 462.678 393.608 463.082 393.293 463.424C392.979 463.766 392.598 464.039 392.175 464.225C391.752 464.412 391.296 464.508 390.835 464.508C390.373 464.508 389.917 464.412 389.494 464.225C389.071 464.039 388.691 463.766 388.376 463.424C388.061 463.082 387.82 462.678 387.666 462.238C387.512 461.797 387.449 461.329 387.481 460.862C387.449 460.396 387.512 459.928 387.666 459.487C387.82 459.046 388.061 458.642 388.376 458.3C388.691 457.958 389.071 457.686 389.494 457.499C389.917 457.313 390.373 457.217 390.835 457.217C391.296 457.217 391.752 457.313 392.175 457.499C392.598 457.686 392.979 457.958 393.293 458.3C393.608 458.642 393.85 459.046 394.004 459.487C394.158 459.928 394.221 460.396 394.189 460.862Z" fill="white"/>
<path d="M404.595 460.912C404.551 461.575 404.316 462.211 403.92 462.74C403.524 463.27 402.983 463.67 402.366 463.893C401.748 464.115 401.079 464.149 400.442 463.991C399.806 463.834 399.228 463.49 398.781 463.004C398.334 462.518 398.037 461.91 397.927 461.255C397.817 460.6 397.897 459.926 398.16 459.317C398.422 458.708 398.854 458.19 399.403 457.827C399.952 457.463 400.594 457.271 401.25 457.272C402.169 457.307 403.037 457.709 403.664 458.392C404.291 459.074 404.626 459.98 404.595 460.912Z" fill="white"/>
<path d="M414.99 460.963C414.945 461.629 414.707 462.268 414.308 462.799C413.908 463.33 413.362 463.73 412.74 463.949C412.118 464.169 411.445 464.198 410.807 464.033C410.168 463.868 409.591 463.517 409.148 463.023C408.704 462.528 408.414 461.913 408.313 461.253C408.212 460.593 408.305 459.917 408.579 459.31C408.854 458.702 409.299 458.19 409.858 457.837C410.417 457.484 411.067 457.305 411.726 457.323C412.63 457.379 413.478 457.79 414.088 458.47C414.698 459.15 415.021 460.044 414.99 460.963Z" fill="white"/>
</g>
<path d="M400.192 222.121C401.325 221.615 402.287 220.782 402.958 219.726C403.628 218.669 403.977 217.437 403.962 216.181C404.004 215.365 403.882 214.548 403.603 213.781C403.324 213.014 402.893 212.313 402.338 211.72C401.783 211.127 401.115 210.655 400.374 210.332C399.633 210.01 398.835 209.843 398.029 209.843C397.223 209.843 396.425 210.01 395.684 210.332C394.943 210.655 394.275 211.127 393.72 211.72C393.165 212.313 392.734 213.014 392.455 213.781C392.176 214.548 392.054 215.365 392.096 216.181C392.072 217.449 392.418 218.697 393.092 219.766C393.766 220.835 394.737 221.677 395.883 222.187C386.743 223.577 387.151 233.636 387.151 233.636L408.76 233.735C408.76 233.735 409.266 223.494 400.192 222.121Z" fill="#6E6BFF"/>
<path opacity="0.1" d="M400.192 222.121C401.325 221.615 402.287 220.782 402.958 219.726C403.628 218.669 403.977 217.437 403.962 216.181C404.004 215.365 403.882 214.548 403.603 213.781C403.324 213.014 402.893 212.313 402.338 211.72C401.783 211.127 401.115 210.655 400.374 210.332C399.633 210.01 398.835 209.843 398.029 209.843C397.223 209.843 396.425 210.01 395.684 210.332C394.943 210.655 394.275 211.127 393.72 211.72C393.165 212.313 392.734 213.014 392.455 213.781C392.176 214.548 392.054 215.365 392.096 216.181C392.072 217.449 392.418 218.697 393.092 219.766C393.766 220.835 394.737 221.677 395.883 222.187C386.743 223.577 387.151 233.636 387.151 233.636L408.76 233.735C408.76 233.735 409.266 223.494 400.192 222.121Z" fill="black"/>
<path d="M435.318 240.224L358.301 239.87L358.259 249.201L435.276 249.556L435.318 240.224Z" fill="#6E6BFF"/>
<path opacity="0.2" d="M435.318 240.224L358.301 239.87L358.259 249.201L435.276 249.556L435.318 240.224Z" fill="white"/>
<path d="M158.425 288.582H157.697L155.591 288.747C154.451 288.82 153.318 288.981 152.199 289.227C151.475 289.336 150.756 289.485 150.047 289.674L147.646 290.385C143.561 291.724 139.706 293.764 136.233 296.424C131.644 299.982 127.812 304.538 124.99 309.792C123.331 312.821 122.01 316.047 121.056 319.405C120.053 323.054 119.476 326.822 119.337 330.622C119.245 332.619 119.276 334.619 119.43 336.611C119.43 337.621 119.693 338.63 119.817 339.656C119.921 340.69 120.103 341.713 120.359 342.716C121.752 349.355 124.577 355.555 128.611 360.82C132.644 366.086 137.773 370.271 143.589 373.043C147.798 374.983 152.31 376.066 156.892 376.236C161.624 376.514 166.361 375.789 170.829 374.102L172.192 373.556H172.378L172.533 373.655L192.061 384.244L191.488 384.773C189.397 377.858 187.384 371.157 185.433 364.721V364.473L185.603 364.291C190.341 359.193 193.857 352.95 195.855 346.092C197.665 339.821 198.193 333.208 197.404 326.701C196.702 320.918 194.962 315.334 192.278 310.255C189.965 305.893 186.981 301.978 183.451 298.674C180.538 296.059 177.315 293.867 173.865 292.155C171.254 290.952 168.535 290.038 165.75 289.425L162.653 288.879L160.407 288.697L159.044 288.598H158.58C158.734 288.58 158.89 288.58 159.044 288.598H160.423L162.668 288.697L165.765 289.177C168.585 289.745 171.341 290.626 173.989 291.808C177.498 293.499 180.78 295.686 183.745 298.31C187.34 301.599 190.387 305.515 192.758 309.891C195.518 315.024 197.312 320.684 198.039 326.552C198.893 333.16 198.402 339.887 196.599 346.274C194.588 353.275 191.017 359.651 186.192 364.853L186.285 364.423C188.236 370.859 190.265 377.56 192.371 384.459L192.665 385.468L191.782 384.988L172.254 374.416H172.595L171.201 374.962C166.646 376.674 161.822 377.416 157 377.146C152.32 376.956 147.713 375.834 143.418 373.837C135.226 370.089 128.409 363.574 124.014 355.29C121.991 351.465 120.514 347.338 119.631 343.047C119.39 342.018 119.209 340.974 119.089 339.92C118.966 338.878 118.764 337.852 118.718 336.826C118.299 330.94 118.881 325.02 120.437 319.355C121.415 315.951 122.772 312.685 124.479 309.627C127.369 304.325 131.28 299.74 135.954 296.176C139.484 293.509 143.404 291.485 147.553 290.187L149.985 289.525C150.7 289.347 151.424 289.209 152.153 289.111C153.283 288.888 154.427 288.755 155.575 288.714L157.697 288.631C157.938 288.597 158.181 288.58 158.425 288.582Z" fill="#6E6BFF"/>
<path d="M167.252 327.164H164.387L158.192 317.866V311.761C158.192 311.761 153.763 311.463 154.29 319.455C154.816 327.446 154.29 325.411 154.29 325.411C154.29 325.411 144.89 325.411 144.115 326.321C143.341 327.231 143.295 336.926 143.186 342.336C143.127 343.64 143.477 344.928 144.181 345.995C144.886 347.063 145.903 347.848 147.073 348.226C147.401 348.323 147.74 348.373 148.08 348.375C150.434 348.375 162.405 346.34 162.405 346.34H167.345L167.252 327.164Z" fill="#6E6BFF"/>
<path d="M175.456 325.526L173.691 346.439H168.797V325.956L175.456 325.526Z" fill="#6E6BFF"/>
<path d="M233.821 751.275V737.129L210.08 736.947L209.879 758.34L211.35 758.456C217.901 758.902 244.677 759.564 249.075 758.108C253.969 756.487 233.821 751.275 233.821 751.275Z" fill="#6E6BFF"/>
<path d="M249.637 756.785C249.637 757.016 240.748 757.215 229.799 757.215C218.85 757.215 209.961 757.016 209.961 756.785C209.961 756.553 218.85 756.354 229.799 756.354C240.748 756.354 249.637 756.553 249.637 756.785Z" fill="#263238"/>
<path d="M234.246 754.171C234.044 754.055 234.246 753.31 234.726 752.516C235.206 751.722 235.856 751.391 236.011 751.557C236.166 751.722 235.841 752.351 235.376 753.029C234.911 753.707 234.447 754.287 234.246 754.171Z" fill="#263238"/>
<path d="M235.752 755.097C235.535 755.097 235.643 754.171 236.108 753.294C236.573 752.417 237.192 751.888 237.362 752.02C237.533 752.153 237.254 752.897 236.82 753.675C236.387 754.452 235.953 755.18 235.752 755.097Z" fill="#263238"/>
<path d="M217.114 756.719C217.021 756.719 216.665 756.421 216.154 755.792C215.53 754.984 214.835 754.242 214.079 753.575C213.335 752.941 212.449 752.524 211.508 752.368C210.78 752.268 210.315 752.368 210.269 752.268C210.222 752.169 210.672 751.822 211.523 751.756C212.647 751.73 213.744 752.128 214.621 752.881C215.442 753.596 216.135 754.465 216.665 755.445C217.021 756.173 217.207 756.653 217.114 756.719Z" fill="#263238"/>
<path d="M234.317 751.507C234.425 751.706 234.023 752.202 233.341 752.467C232.66 752.732 232.056 752.632 232.025 752.467C231.994 752.301 232.474 751.954 233.062 751.722C233.651 751.491 234.193 751.309 234.317 751.507Z" fill="#263238"/>
<path d="M233.947 750.134C233.947 750.382 233.328 750.581 232.523 750.597C231.717 750.614 231.082 750.415 231.098 750.183C231.113 749.952 231.748 749.737 232.523 749.72C233.297 749.704 233.916 749.902 233.947 750.134Z" fill="#263238"/>
<path d="M292.286 751.275V737.129L268.545 736.947L268.344 758.125L269.815 758.24C276.366 758.687 303.157 759.564 307.54 758.108C312.433 756.487 292.286 751.275 292.286 751.275Z" fill="#6E6BFF"/>
<path d="M308.09 756.818C308.09 757.05 299.217 757.248 288.252 757.248C277.288 757.248 268.43 757.05 268.43 756.818C268.43 756.586 277.303 756.388 288.252 756.388C299.201 756.388 308.09 756.586 308.09 756.818Z" fill="#263238"/>
<path d="M292.708 754.171C292.522 754.055 292.708 753.31 293.188 752.516C293.668 751.722 294.318 751.391 294.473 751.557C294.628 751.722 294.303 752.351 293.838 753.029C293.374 753.707 292.909 754.287 292.708 754.171Z" fill="#263238"/>
<path d="M294.213 755.097C294.012 755.097 294.105 754.171 294.585 753.294C295.065 752.417 295.669 751.888 295.839 752.02C296.01 752.153 295.715 752.897 295.282 753.675C294.848 754.452 294.43 755.18 294.213 755.097Z" fill="#263238"/>
<path d="M275.579 756.719C275.486 756.719 275.145 756.421 274.619 755.792C273.995 754.984 273.3 754.242 272.543 753.575C271.8 752.941 270.913 752.524 269.973 752.368C269.26 752.268 268.78 752.368 268.734 752.268C268.687 752.169 269.136 751.822 269.988 751.756C271.112 751.73 272.209 752.128 273.085 752.881C273.911 753.591 274.604 754.461 275.13 755.445C275.486 756.173 275.672 756.653 275.579 756.719Z" fill="#263238"/>
<path d="M292.782 751.507C292.89 751.706 292.487 752.202 291.806 752.467C291.125 752.732 290.521 752.632 290.49 752.467C290.459 752.301 290.939 751.954 291.527 751.722C292.116 751.491 292.658 751.309 292.782 751.507Z" fill="#263238"/>
<path d="M292.44 750.134C292.44 750.382 291.82 750.581 291.015 750.597C290.21 750.614 289.59 750.415 289.606 750.183C289.621 749.952 290.241 749.737 291.015 749.72C291.789 749.704 292.44 749.902 292.44 750.134Z" fill="#263238"/>
<path d="M379.749 331.202C379.13 330.524 377.596 330.855 377.596 330.855C377.75 329.902 377.75 328.929 377.596 327.976C377.318 327.05 375.366 327.232 375.366 327.232C375.276 326.451 375.276 325.662 375.366 324.882C375.382 324.709 375.347 324.535 375.267 324.384C375.186 324.233 375.064 324.113 374.917 324.038C373.994 323.636 373.002 323.445 372.006 323.476C370.813 322.566 375.645 315.336 377.442 313.02C379.238 310.703 378.913 308.9 377.318 308.9C376.218 308.9 370.581 315.849 368.847 318.182C367.112 320.514 362.513 327 362.358 321.821C362.203 316.643 360.252 312.738 359.028 312.077C357.805 311.415 356.504 312.97 357.17 314.409C357.755 316.045 358.12 317.76 358.254 319.505C358.422 320.895 358.365 322.305 358.084 323.674C357.57 326.222 356.871 328.722 355.993 331.153H355.869C355.869 331.153 322.078 365.781 319.631 368.246C317.447 370.463 273.528 365.616 264.716 364.623C261.722 364.155 258.698 363.934 255.672 363.961C251.847 364.143 251.166 364.722 247.356 364.772C237.735 364.886 228.136 365.787 218.644 367.469C214.346 368.249 210.332 370.276 207.038 373.328C203.745 376.38 201.299 380.339 199.968 384.775C191.094 414.39 170.993 484.49 167.446 523.867C164.767 529.059 162.347 534.399 160.199 539.866C157.706 547.112 158.31 547.361 159.146 547.526C161.407 547.973 163.978 534.968 164.938 538.112C165.898 541.256 160.06 553.615 162.429 553.979C165.526 554.442 167.989 540.743 168.283 539.651C168.577 538.559 170.11 538.906 169.831 539.932C169.382 541.388 165.031 556.824 168.066 557.321C169.738 557.585 169.924 554.326 169.924 554.326C169.924 554.326 173.022 539.551 174.431 539.849C175.84 540.147 174.338 548.866 173.626 551.778C172.913 554.69 173.904 556.162 175.36 555.451C176.351 554.955 178.721 546.103 179.371 543.224C180.021 540.346 181.647 532.371 183.831 536.987C186.015 541.603 189.329 544.283 190.692 544.349C190.999 544.312 191.288 544.176 191.523 543.961C191.757 543.746 191.926 543.461 192.008 543.143C192.089 542.824 192.08 542.487 191.981 542.174C191.881 541.861 191.697 541.588 191.45 541.388C190.278 540.165 189.272 538.773 188.461 537.252C187.739 536.067 187.215 534.757 186.913 533.38C186.289 530.636 185.926 527.831 185.829 525.008L185.581 523.354C189.05 505.006 199.039 451.152 213.456 416.756L219.372 429.76L221.943 439.389L206.178 480.966L273.42 480.023L263.385 438.76L275.572 395.744C288.751 396.058 322.589 396.588 328.226 393.858C335.319 390.549 372.006 341.047 372.006 341.047C374.397 339.061 376.687 336.94 378.866 334.693C378.866 334.693 381.096 332.691 379.749 331.202Z" fill="#FFBE9D"/>
<path d="M203.227 450.241C205.178 443.127 215.198 407.953 215.198 407.953C215.198 407.953 220.122 436.625 218.821 440.083C217.625 443.043 216.211 445.898 214.594 448.62C203.227 467.101 204.713 476.349 204.713 476.349L273.395 474.116C273.55 463.858 267.867 440 266.69 436.195C265.513 432.389 269.431 419.931 269.431 419.931C269.431 419.931 277.174 411.51 276.895 407.175C276.748 403.281 276.297 399.407 275.548 395.594L317.361 397.248L316.045 366.971L255.989 360.552C253.898 366.855 234.989 363.761 234.989 363.761C214.578 364.489 213.308 368.493 204.822 375.541C196.335 382.589 182.289 443.077 182.289 443.077L203.227 450.241Z" fill="#6E6BFF"/>
<path d="M243.82 443.078C242.63 443.306 241.417 443.372 240.212 443.277C237.966 443.277 234.884 443.111 231.493 442.747C228.101 442.383 225.035 441.871 222.851 441.407C221.647 441.242 220.467 440.919 219.336 440.448C220.547 440.448 221.755 440.57 222.944 440.812C225.143 441.11 228.194 441.523 231.57 441.887C234.946 442.251 238.012 442.499 240.227 442.665C241.434 442.681 242.637 442.82 243.82 443.078Z" fill="#263238"/>
<path d="M248.531 436.841C247.341 437.464 246.082 437.926 244.783 438.215C238.605 439.949 232.231 440.756 225.844 440.614C224.522 440.66 223.2 440.526 221.91 440.216C223.215 440.04 224.529 439.969 225.844 440.001C228.275 439.919 231.62 439.737 235.306 439.273C238.992 438.81 242.275 438.148 244.598 437.619C245.888 437.251 247.203 436.991 248.531 436.841Z" fill="#263238"/>
<path d="M271.64 409.012C271.609 410.273 271.448 411.527 271.16 412.751C270.757 415.051 270.138 418.194 269.348 421.635C268.558 425.077 267.799 428.253 267.118 430.404C266.844 431.635 266.439 432.829 265.91 433.961C265.996 432.704 266.215 431.461 266.561 430.255C267.149 427.674 267.815 424.696 268.558 421.437C269.302 418.178 270.014 415.199 270.603 412.618C270.812 411.376 271.161 410.165 271.64 409.012Z" fill="#263238"/>
<path d="M203.949 446.024C200.366 445.432 196.831 444.553 193.372 443.393C189.838 442.51 186.37 441.349 182.996 439.918C186.577 440.519 190.112 441.398 193.573 442.549C197.108 443.429 200.577 444.59 203.949 446.024Z" fill="#263238"/>
<path d="M276.282 395.23C275.698 395.338 275.101 395.338 274.517 395.23C272.899 395.053 271.311 394.647 269.794 394.022C267.26 393.005 264.954 391.433 263.023 389.408C261.092 387.382 259.579 384.947 258.582 382.259C257.479 379.302 257.008 376.12 257.203 372.944C257.272 370.325 258.006 367.774 259.325 365.565C260.253 364.077 261.639 362.983 263.243 362.471C263.672 362.345 264.115 362.284 264.559 362.289C264.869 362.289 265.024 362.289 265.024 362.289C265.024 362.289 264.373 362.289 263.336 362.736C261.864 363.317 260.616 364.406 259.789 365.83C257.683 369.371 257.095 375.84 259.34 381.879C260.385 384.726 262.022 387.283 264.126 389.357C265.85 391.054 267.835 392.42 269.995 393.394C272.022 394.249 274.13 394.865 276.282 395.23Z" fill="#263238"/>
<path d="M312.388 396.654C312.001 391.58 311.877 386.488 312.017 381.399C311.895 376.315 312.04 371.228 312.45 366.162C312.838 371.23 312.962 376.317 312.822 381.399C312.952 386.489 312.807 391.582 312.388 396.654Z" fill="#263238"/>
<path d="M255.582 362.405C255.753 358.716 256.109 354.546 256.109 354.546C256.109 354.546 264.657 353.537 265.168 344.107C265.679 334.676 265.168 312.92 265.168 312.92L249.682 304.449L232.492 318.892L235.14 366.045L250.905 367.121C252.111 367.156 253.28 366.68 254.156 365.796C255.033 364.912 255.546 363.693 255.582 362.405Z" fill="#FFBE9D"/>
<path d="M257.107 336.645C257.107 336.645 257.107 336.827 256.967 337.042C256.852 337.198 256.703 337.322 256.533 337.402C256.363 337.483 256.177 337.518 255.992 337.505C255 337.505 254.04 336.281 253.7 334.858C253.538 334.168 253.538 333.447 253.7 332.757C253.731 332.456 253.833 332.168 253.995 331.92C254.157 331.671 254.375 331.47 254.629 331.334C254.837 331.242 255.071 331.242 255.279 331.334C255.434 331.416 255.559 331.55 255.635 331.715C255.744 331.996 255.635 332.178 255.635 332.161C255.635 332.145 255.635 331.996 255.48 331.83C255.4 331.712 255.281 331.63 255.146 331.599C255.012 331.568 254.872 331.592 254.753 331.665C254.563 331.788 254.405 331.96 254.294 332.165C254.183 332.37 254.122 332.603 254.118 332.84C253.987 333.455 253.987 334.094 254.118 334.709C254.427 336 255.264 337.042 256.007 337.141C256.152 337.162 256.3 337.151 256.442 337.109C256.583 337.066 256.714 336.993 256.828 336.893C257.014 336.761 257.076 336.628 257.107 336.645Z" fill="#EB996E"/>
<path d="M270.477 307.824C269.284 303.489 264.963 301.339 261.03 300.147C255.037 298.327 248.563 297.533 242.709 299.833C236.856 302.133 229.825 306.17 229.825 313.069C226.371 312.771 224.389 315.997 223.026 320.001C222.155 322.44 221.633 325.006 221.478 327.612C221.044 336.645 218.675 349.12 213.192 355.738C210.095 359.428 205.805 361.975 204.04 366.575C202.491 370.562 203.297 375.294 201.856 379.331C200.571 382.888 197.737 385.419 195.662 388.513C193.548 392.023 192.304 396.05 192.046 400.214C191.789 404.379 192.527 408.545 194.191 412.321C195.867 416.001 198.226 419.277 201.125 421.951C204.025 424.625 207.403 426.64 211.055 427.874C218.289 430.225 226.003 430.305 233.278 428.105C238.738 426.71 243.832 424.012 248.176 420.213C252.621 416.335 255.674 410.934 256.818 404.926C257.917 398.176 256.152 391.309 254.835 384.592C250.716 363.365 251.893 362.257 257.096 342.552C257.22 342.204 257.282 341.84 257.375 341.493C257.468 341.145 257.514 340.98 257.576 340.715C257.724 339.936 257.802 339.144 257.809 338.349C257.049 338.651 256.224 338.715 255.431 338.534C254.638 338.352 253.91 337.932 253.333 337.324C252.755 336.675 252.351 335.871 252.166 334.997C251.98 334.123 252.02 333.212 252.28 332.36C252.645 331.429 253.19 330.589 253.878 329.897C254.566 329.204 255.383 328.674 256.275 328.34C257.994 327.579 259.837 327.182 261.525 326.338C265.103 324.518 267.581 320.746 269.269 316.791C270.656 314.051 271.085 310.872 270.477 307.824Z" fill="#263238"/>
<path d="M257.734 337.092C258.061 337.609 258.331 338.164 258.539 338.747C259.004 339.789 259.623 341.262 260.305 342.966L260.429 343.28H260.103L258.555 343.429C257.486 343.429 256.588 343.644 255.535 343.627C255.443 343.605 255.358 343.559 255.288 343.493C255.217 343.426 255.164 343.342 255.132 343.247C255.086 343.096 255.086 342.934 255.132 342.784C255.168 342.561 255.215 342.34 255.272 342.122L255.55 340.947C255.69 340.164 255.909 339.398 256.201 338.664C256.172 339.463 256.063 340.256 255.876 341.03L255.659 342.205C255.581 342.602 255.442 343.214 255.659 343.164C256.433 343.164 257.533 342.982 258.555 342.916L260.103 342.767L259.902 343.131C259.236 341.477 258.679 339.921 258.353 338.846C258.068 338.297 257.859 337.706 257.734 337.092Z" fill="#6E6BFF"/>
<path d="M204.702 476.35L273.384 474.116L303.272 598.765L297.775 741.745H261.459L265.904 601.809L239.345 515.032L243.433 747.288L206.73 747.867L202.874 529.558C202.704 523.486 200.846 509.803 201.542 503.781L204.702 476.35Z" fill="#2F2A29"/>
<path d="M248.491 516.802C247.367 516.877 246.238 516.805 245.13 516.587C243.055 516.322 240.221 515.859 237.108 515.197C233.996 514.535 231.208 513.774 229.195 513.162C228.119 512.909 227.078 512.509 226.098 511.971C226.098 511.723 231.146 513.013 237.341 514.353C243.535 515.693 248.522 516.554 248.491 516.802Z" fill="#455A64"/>
<path d="M297.409 733.903C297.409 734.134 289.186 734.333 279.042 734.333C268.899 734.333 260.66 734.134 260.66 733.903C260.66 733.671 268.883 733.473 279.042 733.473C289.202 733.473 297.409 733.655 297.409 733.903Z" fill="#455A64"/>
<path d="M243.11 741.25C243.11 741.498 235.119 741.68 225.27 741.68C215.421 741.68 207.445 741.498 207.445 741.25C207.445 741.001 215.436 740.819 225.27 740.819C235.104 740.819 243.11 741.018 243.11 741.25Z" fill="#455A64"/>
<path d="M238.38 740.653C238.163 740.653 237.203 689.91 236.227 627.321C235.252 564.732 234.679 513.956 234.88 513.956C235.081 513.956 236.072 564.683 237.033 627.305C237.993 689.927 238.612 740.653 238.38 740.653Z" fill="#455A64"/>
<path d="M292.528 733.903C292.511 733.677 292.511 733.45 292.528 733.225V731.239C292.528 729.452 292.652 726.888 292.745 723.629C292.962 717.011 293.272 707.398 293.659 695.618C294.495 671.926 295.672 639.267 296.957 603.215C296.957 602.868 296.957 602.537 296.957 602.239V602.355C288.827 567.611 281.471 536.076 276.128 513.261L269.934 486.277C269.221 483.116 268.679 480.651 268.292 478.931C268.106 478.12 267.982 477.491 267.874 477.011C267.814 476.796 267.777 476.574 267.766 476.35C267.846 476.558 267.908 476.774 267.951 476.995C268.075 477.458 268.23 478.087 268.447 478.881C268.865 480.535 269.469 483.05 270.243 486.194C271.792 492.58 273.976 501.779 276.701 513.112C282.09 535.911 289.524 567.363 297.763 602.156V602.272C297.763 602.57 297.763 602.918 297.763 603.248C296.384 639.3 295.13 671.943 294.216 695.635C293.736 707.431 293.334 716.978 293.055 723.629C292.9 726.938 292.776 729.452 292.699 731.239C292.699 732.083 292.606 732.745 292.59 733.225C292.593 733.453 292.572 733.68 292.528 733.903Z" fill="#455A64"/>
<path d="M280.677 599.328C278.068 600.244 275.381 600.881 272.655 601.23C269.31 601.842 266.46 602.273 265.175 602.339V602.008C265.593 602.14 265.81 602.223 265.81 602.289C265.81 602.355 265.546 602.289 265.113 602.289H264.184L265.113 601.991C266.321 601.611 269.17 600.982 272.515 600.337C275.198 599.715 277.932 599.377 280.677 599.328Z" fill="#455A64"/>
<path d="M280.043 604.076C277.627 604.194 275.206 604.078 272.811 603.728C270.392 603.675 267.982 603.393 265.609 602.884C270.449 602.463 275.321 602.865 280.043 604.076Z" fill="#455A64"/>
<path opacity="0.2" d="M204.414 478.98C205.227 480.096 206.252 481.016 207.421 481.681C208.59 482.345 209.876 482.738 211.197 482.835C213.963 483.185 216.761 483.13 219.513 482.67C237.245 480.569 256.03 478.633 273.39 474.116C250.92 475.456 227.179 475.01 204.708 476.35L204.476 478.401" fill="black"/>
<g opacity="0.2">
<path d="M227.57 512.815L240.238 565.328L239.355 515.032L227.57 512.815Z" fill="black"/>
</g>
<path d="M652.032 728.829L656.872 726.136C657.691 725.714 658.601 725.486 659.528 725.469C660.456 725.452 661.374 725.647 662.209 726.038C662.493 726.159 662.737 726.352 662.917 726.597C663.096 726.841 663.204 727.128 663.228 727.427V729.481C663.185 729.816 663.054 730.135 662.847 730.406C662.639 730.678 662.362 730.893 662.043 731.031L657.216 733.724C656.394 734.142 655.482 734.368 654.553 734.385C653.625 734.402 652.705 734.21 651.867 733.822C651.588 733.698 651.347 733.505 651.168 733.264C650.99 733.022 650.879 732.74 650.848 732.445V730.367C650.889 730.033 651.021 729.716 651.228 729.446C651.436 729.176 651.713 728.964 652.032 728.829Z" fill="#263238"/>
<path d="M662.004 729.026L657.176 731.719C656.356 732.141 655.443 732.369 654.514 732.386C653.584 732.404 652.664 732.209 651.827 731.818C650.401 731.018 650.477 729.69 651.993 728.841L656.833 726.148C657.651 725.727 658.561 725.498 659.489 725.481C660.416 725.464 661.335 725.659 662.169 726.05C663.647 726.837 663.57 728.165 662.004 729.026Z" fill="#455A64"/>
<path d="M617.942 747.818L622.782 745.112C623.602 744.692 624.512 744.466 625.44 744.451C626.367 744.436 627.285 744.633 628.119 745.026C628.403 745.147 628.647 745.34 628.827 745.585C629.006 745.83 629.114 746.117 629.138 746.416V748.469C629.094 748.804 628.963 749.122 628.755 749.394C628.548 749.665 628.272 749.88 627.953 750.019L623.113 752.712C622.294 753.132 621.383 753.358 620.456 753.373C619.528 753.388 618.61 753.191 617.777 752.798C617.495 752.677 617.253 752.485 617.074 752.243C616.894 752.001 616.785 751.717 616.758 751.421C616.758 751.077 616.758 749.711 616.758 749.355C616.8 749.021 616.931 748.704 617.139 748.434C617.346 748.165 617.623 747.952 617.942 747.818Z" fill="#263238"/>
<path d="M627.949 748.002L623.109 750.695C622.29 751.117 621.38 751.345 620.453 751.362C619.525 751.38 618.607 751.185 617.772 750.794C616.346 749.994 616.422 748.666 617.938 747.818L622.778 745.112C623.597 744.692 624.508 744.466 625.436 744.451C626.363 744.436 627.281 744.633 628.115 745.026C629.541 745.825 629.465 747.153 627.949 748.002Z" fill="#455A64"/>
<path d="M602.785 701.49L607.625 698.797C608.444 698.377 609.355 698.151 610.283 698.136C611.21 698.121 612.128 698.318 612.962 698.711C613.245 698.829 613.49 699.02 613.67 699.262C613.85 699.505 613.957 699.791 613.981 700.088C613.981 700.445 613.981 701.798 613.981 702.154C613.937 702.489 613.805 702.807 613.598 703.079C613.391 703.35 613.114 703.565 612.796 703.704L607.969 706.397C607.147 706.817 606.234 707.043 605.305 707.058C604.375 707.073 603.455 706.876 602.619 706.483C602.338 706.364 602.096 706.172 601.918 705.929C601.741 705.687 601.636 705.402 601.613 705.106C601.613 704.749 601.613 703.397 601.613 703.028C601.66 702.697 601.791 702.383 601.996 702.115C602.201 701.846 602.472 701.631 602.785 701.49Z" fill="#263238"/>
<path d="M612.793 701.687L607.966 704.429C607.143 704.847 606.232 705.073 605.303 705.091C604.374 705.108 603.454 704.915 602.616 704.528C601.19 703.728 601.266 702.388 602.782 701.539L607.622 698.846C608.441 698.426 609.352 698.2 610.279 698.185C611.207 698.17 612.125 698.367 612.958 698.76C614.397 699.51 614.321 700.838 612.793 701.687Z" fill="#455A64"/>
<path d="M568.688 720.479L573.528 717.785C574.348 717.367 575.258 717.14 576.185 717.123C577.111 717.106 578.03 717.299 578.865 717.687C579.148 717.809 579.392 718.003 579.571 718.247C579.751 718.492 579.858 718.778 579.884 719.077V721.13C579.842 721.465 579.71 721.784 579.503 722.056C579.295 722.327 579.019 722.542 578.699 722.68L573.872 725.336C573.051 725.758 572.139 725.986 571.21 726.004C570.28 726.021 569.36 725.826 568.523 725.435C568.242 725.312 568 725.12 567.821 724.879C567.642 724.637 567.533 724.353 567.504 724.057V722.016C567.548 721.683 567.68 721.367 567.888 721.098C568.095 720.828 568.371 720.615 568.688 720.479Z" fill="#263238"/>
<path d="M578.695 720.675L573.868 723.369C573.046 723.788 572.133 724.015 571.204 724.03C570.274 724.045 569.354 723.848 568.518 723.455C567.092 722.668 567.168 721.327 568.684 720.479L573.524 717.785C574.343 717.367 575.253 717.14 576.18 717.123C577.107 717.106 578.025 717.299 578.861 717.687C580.3 718.486 580.223 719.827 578.695 720.675Z" fill="#455A64"/>
<path d="M557.899 729.579C557.189 729.583 556.492 729.395 555.886 729.038C555.169 728.516 554.617 727.812 554.293 727.003C553.969 726.195 553.886 725.315 554.052 724.463L569.03 548.88L571.578 549.089L556.6 724.66C556.498 725.791 556.74 726.64 557.249 726.96C557.759 727.279 558.663 727.12 559.682 726.554L613.417 696.595C614.811 695.7 615.963 694.496 616.779 693.085C617.594 691.673 618.048 690.094 618.105 688.478L613.112 524.456L615.659 524.382L620.652 688.441C620.614 690.502 620.05 692.522 619.01 694.321C617.97 696.121 616.487 697.646 614.691 698.76L560.955 728.718C560.032 729.259 558.978 729.556 557.899 729.579Z" fill="#263238"/>
<path d="M560.25 673.174L558.977 675.304L604.928 700.921L606.202 698.791L560.25 673.174Z" fill="#263238"/>
<path d="M618.625 641.687L617.352 643.817L663.37 669.472L664.643 667.342L618.625 641.687Z" fill="#263238"/>
<path d="M607.039 756.98C606.318 756.989 605.608 756.806 604.988 756.451C604.241 755.951 603.649 755.265 603.275 754.466C602.9 753.667 602.757 752.785 602.861 751.913L607.867 570.587L610.414 570.648L605.409 751.975C605.246 752.405 605.244 752.877 605.403 753.308C605.562 753.74 605.872 754.104 606.279 754.339C606.687 754.573 607.166 754.663 607.635 754.593C608.104 754.523 608.533 754.297 608.847 753.955L662.583 723.996C663.953 723.123 665.07 721.927 665.83 720.523C666.589 719.118 666.967 717.549 666.926 715.965L651.948 546.15L654.495 545.941L669.474 715.756C669.563 717.807 669.092 719.844 668.108 721.664C667.124 723.483 665.663 725.021 663.869 726.124L610.121 756.082C609.192 756.635 608.129 756.944 607.039 756.98Z" fill="#37474F"/>
<path d="M575.174 530.592C595.387 519.327 628.146 519.327 648.346 530.592C658.446 536.213 663.49 543.604 663.49 550.983V560.047C663.49 567.426 658.395 574.805 648.346 580.438C628.146 591.703 595.387 591.703 575.174 580.438C565.074 574.805 560.03 567.426 560.043 560.047V550.983C560.03 543.604 565.074 536.213 575.174 530.592Z" fill="#263238"/>
<path d="M575.174 526.19C595.387 514.924 628.146 514.924 648.346 526.19C658.446 531.81 663.49 539.201 663.49 546.58V555.62C663.49 562.999 658.395 570.377 648.346 576.01C628.146 587.275 595.387 587.275 575.174 576.01C565.074 570.377 560.03 562.999 560.043 555.62V546.556C560.03 539.201 565.074 531.81 575.174 526.19Z" fill="#6E6BFF"/>
<path opacity="0.3" d="M575.174 526.19C595.387 514.924 628.146 514.924 648.346 526.19C658.446 531.81 663.49 539.201 663.49 546.58V555.62C663.49 562.999 658.395 570.377 648.346 576.01C628.146 587.275 595.387 587.275 575.174 576.01C565.074 570.377 560.03 562.999 560.043 555.62V546.556C560.03 539.201 565.074 531.81 575.174 526.19Z" fill="black"/>
<path d="M611.763 575.42C640.336 575.42 663.499 562.508 663.499 546.58C663.499 530.653 640.336 517.741 611.763 517.741C583.19 517.741 560.027 530.653 560.027 546.58C560.027 562.508 583.19 575.42 611.763 575.42Z" fill="#6E6BFF"/>
<path opacity="0.1" d="M611.763 575.42C640.336 575.42 663.499 562.508 663.499 546.58C663.499 530.653 640.336 517.741 611.763 517.741C583.19 517.741 560.027 530.653 560.027 546.58C560.027 562.508 583.19 575.42 611.763 575.42Z" fill="black"/>
<path d="M582.68 577.314C586.323 579.393 590.143 576.244 594.003 578.482C596.698 580.025 598.656 582.53 599.454 585.456C599.744 586.975 600.273 588.443 601.021 589.809C602.141 591.334 603.288 592.859 604.383 594.421C606.19 596.846 608.165 599.151 610.293 601.32C615.387 606.707 616.496 614.775 615.477 621.834C614.942 625.524 613.197 626.581 611.286 629.803C610.013 632.017 607.567 634.624 604.74 634.403C601.912 634.182 599.772 631.845 598.371 629.656C596.652 626.962 597.098 625.708 596.053 622.744C595.009 619.78 593.608 615.562 591.137 613.643C589.113 611.956 587.179 610.17 585.342 608.294C581.877 604.948 578.451 601.554 575.063 598.147L574.032 597.102C570.669 593.966 555.5 585.382 555.5 585.382L568.058 561.769L582.68 577.314Z" fill="#B16668"/>
<path d="M595.164 577.757C596.996 577.594 598.828 578.074 600.322 579.11C602.015 581.776 603.145 584.74 603.647 587.829C604.462 592.121 604.857 593.831 607.404 596.008C610.962 598.664 613.849 602.066 615.848 605.957C617.457 608.983 618.363 612.311 618.501 615.71C618.64 619.109 618.008 622.496 616.651 625.634C613.428 633.677 610.499 635.325 608.257 636.125C606.016 636.924 602.258 636.125 602.258 636.125L595.164 577.757Z" fill="#263238"/>
<path d="M581.275 575.826L582.676 577.314C583.513 578.053 584.288 578.855 584.994 579.712C587.834 583.402 586.662 590.941 586.268 592.97C585.615 592.817 584.936 592.801 584.277 592.924C583.617 593.047 582.993 593.306 582.447 593.683C579.797 595.183 575.467 598.209 575.696 599.611C575.926 601.013 584.688 606.916 588.904 612.61C593.12 618.304 593.477 621.219 594.597 626.79C595.4 630.738 598.253 637.404 604.099 635.891C607.156 635.141 614.823 629.803 615.829 617.173C616.721 605.957 609.079 600.226 605.143 596.831C601.208 593.437 600.953 590.19 599.119 584.287C598.316 581.717 597.845 579.688 595.183 577.769C591.541 576.392 587.707 577.043 584.994 576.539C582.727 576.096 582.026 574.719 581.275 575.826Z" fill="#37474F"/>
<path d="M586.267 592.969C586.046 593.532 586.046 594.153 586.267 594.716C586.55 595.241 586.925 595.716 587.376 596.118C588.216 596.929 589.019 597.729 589.821 598.577C591.464 600.201 593.056 601.836 594.584 603.497C596.112 605.197 597.544 606.975 598.877 608.822C600.223 610.679 601.35 612.676 602.239 614.774C601.724 612.515 600.825 610.354 599.577 608.379C598.368 606.399 596.974 604.53 595.412 602.796C593.859 601.066 592.205 599.424 590.458 597.876C589.592 597.114 588.675 596.376 587.77 595.663C587.294 595.348 586.866 594.971 586.497 594.543C586.269 594.05 586.189 593.504 586.267 592.969Z" fill="#263238"/>
<path d="M602.586 612.586C599.58 612.979 592.791 616.472 592.638 619.276L592.931 620.039C592.293 619.476 591.871 618.722 591.734 617.899C591.416 616.386 595.096 612.438 601.758 611.024C602.687 611.245 603.413 612.389 602.586 612.586Z" fill="#FAFAFA"/>
<path d="M599.312 607.642C596.281 607.875 589.976 610.913 589.658 613.705L590.027 614.258C589.657 614.097 589.341 613.838 589.116 613.512C588.891 613.186 588.765 612.805 588.753 612.413C588.524 610.888 591.848 607.076 598.586 606.055C599.49 606.313 600.203 607.494 599.312 607.642Z" fill="#FAFAFA"/>
<path d="M595.534 602.919C592.566 603.399 586.3 606.719 586.249 609.548L586.796 610.126C586.438 609.991 586.112 609.784 585.842 609.519C585.572 609.254 585.364 608.937 585.23 608.589C584.72 607.076 588.121 602.956 594.68 601.37C595.597 601.566 596.4 602.698 595.534 602.919Z" fill="#FAFAFA"/>
<path d="M592.087 599.033C589.12 599.513 582.408 602.993 582.357 605.822L582.943 606.4C582.194 606.079 581.601 605.494 581.287 604.764C580.777 603.251 584.662 599.07 591.221 597.496C592.138 597.68 592.954 598.812 592.087 599.033Z" fill="#FAFAFA"/>
<path d="M596.714 495.751C596.587 499.724 571.521 506.586 553.677 512.157C533.197 518.565 523.441 523.14 515.901 530.506C513.652 532.527 511.976 535.069 511.031 537.89C510.086 540.712 509.903 543.72 510.5 546.63C511.443 551.549 515.837 559.42 525.479 566.737C543.768 580.622 552.62 583.844 565.51 591.838C565.51 591.838 578.641 583.389 580.679 573.649L562.275 554.304L614.877 539.103L596.714 495.751Z" fill="#455A64"/>
<path d="M556.109 574.608C555.791 578.297 555.511 582.245 555.281 585.873C558.567 587.706 561.879 589.563 565.471 591.838C565.471 591.838 578.602 583.389 580.64 573.649L564.566 556.702C559.153 561.916 556.975 564.228 556.109 574.608Z" fill="#37474F"/>
<path d="M614.872 539.103L613.216 535.807C613.216 535.807 582.763 542.805 572.191 545.178C563.276 547.195 561.442 547.491 556.908 543.629C550.539 538.279 546.145 537.48 541.738 538.464C548.45 539.238 555.608 546.507 562.321 554.304L614.872 539.103Z" fill="#37474F"/>
<path d="M601.475 525.059L569.379 552.25L614.874 539.103L601.335 504.213L594.037 508.185C593.999 515.527 596.75 520.041 601.475 525.059Z" fill="#37474F"/>
<path d="M583.039 658.126C584.019 661.631 586.859 666.464 586.006 671.052C585.438 674.217 583.609 677.042 580.911 678.923C579.478 679.756 578.188 680.802 577.091 682.022C575.957 683.67 574.811 685.342 573.639 686.941C571.754 689.573 570.187 690.926 568.684 693.791C565.054 700.727 557.221 704.749 549.732 706.299C546.01 707.168 542.142 707.285 538.371 706.643C535.658 706.163 532.13 704.749 531.341 701.896C530.551 699.043 532.143 696.116 533.888 693.951C535.99 691.307 539.186 689.671 541.823 687.642C544.712 685.306 547.227 682.571 549.287 679.525C551.465 676.205 559.476 665.874 559.565 656.503C559.641 650.575 558.062 625.88 558.062 625.88L585.624 627.725C585.624 627.725 582.096 654.609 583.039 658.126Z" fill="#B16668"/>
<path d="M587.201 671.937C588.018 673.673 588.189 675.628 587.685 677.471C585.607 680.079 583.009 682.258 580.043 683.879C575.993 686.228 574.401 687.236 573.102 690.52C571.803 693.803 571.051 697.235 566.734 701.588C562.416 705.942 555.016 709.189 544.228 709.348C534.892 709.471 531.67 706.212 530.867 705.339C529.711 703.811 528.97 702.026 528.715 700.149L587.201 671.937Z" fill="#263238"/>
<path d="M583.031 655.642C582.917 656.601 582.968 657.598 582.955 658.729C582.862 660.088 582.317 661.382 581.401 662.418C578.472 665.837 572.842 667.338 570.639 667.645C570.082 666.295 569.005 665.206 567.633 664.608C563.277 662.418 558.373 661.521 557.023 662.246C555.673 662.972 553.775 670.744 549.521 676.943C545.267 683.141 541.153 685.859 535.447 689.918C531.932 692.377 525.959 696.632 529.601 701.81C531.474 704.528 540.695 708.119 553.865 704.528C565.569 701.343 569.454 693.619 571.466 688.54C573.479 683.461 576.688 682.034 582.025 678.099C584.343 676.389 586.254 675.233 587.222 671.95C587.298 667.879 585.184 662.947 584.674 660.069C584.305 657.696 584.394 655.986 583.031 655.642Z" fill="#37474F"/>
<path d="M570.619 667.682C569.97 667.739 569.354 667.986 568.856 668.39C568.357 668.795 567.999 669.338 567.829 669.945C567.185 671.402 566.441 672.815 565.6 674.176C561.639 680.226 557.564 685.982 552.125 690.901C558.493 686.88 562.518 681.149 566.135 674.914C567.022 673.42 567.784 671.862 568.415 670.252C568.746 668.973 569.281 667.965 570.619 667.682Z" fill="#263238"/>
<path d="M554.66 689.598C551.833 685.256 545.872 683.448 542.968 684.297L542.293 684.85C542.626 684.028 543.242 683.342 544.038 682.907C545.464 682.046 552.1 682.219 555.934 688.232C556.048 689.216 555.17 690.385 554.66 689.598Z" fill="#FAFAFA"/>
<path d="M560.032 684.973C557.599 680.78 550.594 678.726 547.652 679.427L547.168 680.017C547.22 679.599 547.381 679.201 547.638 678.861C547.894 678.521 548.237 678.25 548.633 678.074C550.11 677.299 558.236 678.259 561.369 683.682C561.446 684.666 560.503 685.785 560.032 684.973Z" fill="#FAFAFA"/>
<path d="M563.932 679.685C562.162 676.094 554.062 673.29 551.196 674.274L550.75 675.073C550.796 674.252 551.171 673.481 551.794 672.921C553.157 671.888 561.844 673.376 565.219 678.283C565.295 679.255 564.429 680.448 563.932 679.685Z" fill="#FAFAFA"/>
<path d="M566.392 674.913C564.902 670.953 556.432 668.764 553.541 669.711L552.994 670.732C552.981 670.342 553.056 669.954 553.214 669.595C553.373 669.236 553.61 668.915 553.911 668.654C555.273 667.608 563.667 667.657 567.641 673.499C567.755 674.421 566.927 675.639 566.392 674.913Z" fill="#FAFAFA"/>
<path d="M596.712 495.751L671.081 500.904C672.495 510.596 670.801 524.48 668.139 532.757C665.694 540.333 660.268 549.323 645.213 557.87C627.382 568.016 605.45 577.24 601.234 579.872C595.146 583.672 591.898 582.541 591.669 596.942C591.529 606.166 589.121 617.603 587.453 626.384C585.899 634.747 584.116 645.52 584.116 645.52C581.085 649.849 564.107 652.469 558.821 646.75C558.821 646.75 555.471 596.143 556.478 577.375C556.834 570.783 560.362 564.597 567.877 556.874C574.309 550.27 606.494 525.907 606.494 525.907C606.494 525.907 586.51 511.653 596.712 495.751Z" fill="#455A64"/>
<path d="M659.593 505.517C661.3 521.603 662.319 531.343 640.489 543.715C633.904 547.405 627.051 551.02 620.428 554.489C600.776 564.758 585.263 572.862 584.588 580.315C584.32 583.144 584.257 586.464 584.193 590.375C584.027 599.562 583.556 602.108 581.722 615.402C580.117 626.987 578.028 642.089 576.207 649.542C576.908 649.432 577.57 649.309 578.207 649.149C580.028 641.684 581.926 626.667 583.531 615.783C585.645 601.542 585.874 599.673 586.078 590.412C586.154 586.563 586.218 583.242 586.473 580.475C587.059 574.055 603.705 565.36 621.333 556.137C627.981 552.668 634.846 549.09 641.444 545.339C664.37 532.352 663.185 521.615 661.466 505.369C661.313 503.832 661.147 502.233 660.994 500.585L659.109 500.314C659.237 502.085 659.453 503.832 659.593 505.517Z" fill="#37474F"/>
<path d="M647.472 541.145C647.18 540.96 640.315 536.422 642.76 524.517C645.435 511.53 644.772 505.541 643.473 496.846L645.307 496.588C646.645 505.504 647.256 511.862 644.581 524.874C642.378 535.561 648.402 539.558 648.479 539.632L647.472 541.145Z" fill="#37474F"/>
<path d="M558.25 640.343C561.778 644.229 577.189 645.139 585.188 639.359L584.156 647.131C578.323 652.629 566.121 654.203 558.581 648.841L558.25 640.343Z" fill="#37474F"/>
<path d="M620.111 409.75C609.451 410.979 600.764 413.328 594.778 422.048C588.652 430.976 581.596 441.934 572.375 455.622L548.175 444.701L538.457 460.923C538.457 460.923 564.478 477.07 574.119 480.207C581.316 482.556 583.035 479.493 588.334 474.131C594.243 468.167 611.629 448.686 611.629 448.686L620.111 409.75Z" fill="#B16668"/>
<path d="M572.371 455.61C576.46 456.938 580.803 460.701 581.554 462.989C579.198 456.077 575.492 454.823 573.53 453.913L572.371 455.61Z" fill="#9A4A4D"/>
<path d="M518.281 425.86L520.153 424.163C520.436 423.963 520.764 423.833 521.111 423.784C521.457 423.735 521.81 423.768 522.14 423.88L543.385 428.615C544.463 428.912 545.461 429.433 546.31 430.14C547.159 430.847 547.838 431.724 548.301 432.71L565.203 474.451C565.401 474.788 565.489 475.175 565.455 475.562C565.421 475.948 565.266 476.315 565.012 476.615L563.076 478.362C562.791 478.565 562.459 478.7 562.109 478.753C561.758 478.807 561.4 478.778 561.063 478.669L539.819 473.934C538.743 473.633 537.746 473.111 536.898 472.404C536.05 471.698 535.369 470.822 534.902 469.839C531.578 461.636 521.287 436.314 517.963 428.123C517.568 427.078 517.721 426.29 518.281 425.86Z" fill="#455A64"/>
<path d="M543.82 431.407C544.933 432.173 545.813 433.214 546.368 434.42L563.307 476.124C563.494 476.454 563.583 476.827 563.562 477.203C563.542 477.579 563.414 477.942 563.193 478.251L565.014 476.615C565.267 476.315 565.421 475.948 565.455 475.562C565.489 475.176 565.402 474.789 565.205 474.451L548.265 432.735C547.741 431.601 546.921 430.617 545.884 429.882L543.82 431.407Z" fill="#263238"/>
<path d="M563.327 476.148L546.387 434.432C545.921 433.448 545.24 432.573 544.392 431.866C543.543 431.16 542.547 430.638 541.471 430.337L520.226 425.602C518.252 425.159 517.246 426.278 517.985 428.061C521.309 436.252 531.6 461.574 534.924 469.777C535.391 470.761 536.071 471.636 536.92 472.343C537.768 473.049 538.765 473.571 539.841 473.873L561.085 478.607C563.059 479.099 564.066 477.968 563.327 476.148Z" fill="#37474F"/>
<path d="M546.731 443.299L543.547 435.502C543.46 435.318 543.333 435.153 543.175 435.019C543.017 434.886 542.831 434.786 542.63 434.727L538.63 433.842C538.261 433.768 538.07 433.977 538.21 434.309L541.381 442.119C541.468 442.303 541.595 442.468 541.753 442.602C541.912 442.735 542.097 442.835 542.299 442.894L546.298 443.779C546.68 443.853 546.871 443.705 546.731 443.299Z" fill="#455A64"/>
<path d="M543.447 437.396C543.218 436.939 542.891 436.535 542.486 436.21C542.082 435.886 541.61 435.648 541.103 435.515C540.148 435.293 539.639 435.797 539.983 436.634C540.211 437.091 540.539 437.495 540.943 437.82C541.347 438.144 541.819 438.381 542.326 438.515C543.281 438.786 543.778 438.232 543.447 437.396Z" fill="#263238"/>
<path d="M544.99 441.344C544.766 440.882 544.44 440.474 544.035 440.147C543.63 439.82 543.157 439.582 542.647 439.45C541.692 439.241 541.195 439.745 541.539 440.569C541.763 441.028 542.087 441.435 542.489 441.762C542.892 442.089 543.362 442.328 543.869 442.463C544.825 442.672 545.334 442.168 544.99 441.344Z" fill="#263238"/>
<path d="M524.165 453.322C521.962 450.936 522.102 450.58 522.981 449.141C523.646 448.011 524.579 447.049 525.704 446.335C526.829 445.621 528.113 445.175 529.451 445.033C531.807 444.849 534.176 444.554 535.462 445.033C536.749 445.513 535.997 448.083 533.004 449.067C528.292 450.629 528.47 451.883 528.47 451.883C530.475 451.21 532.516 450.639 534.584 450.174C536.986 450.084 539.393 450.178 541.78 450.457C543.856 450.555 544.544 453.052 541.194 454.282L545.015 454.466C547.664 454.601 548.709 455.844 546.836 457.627C546.233 458.235 545.433 458.625 544.569 458.734C544.569 458.734 547.346 458.438 547.511 459.324C547.97 461.87 546.327 462.718 540.876 464.895C535.692 466.961 534.902 469.814 536.176 471.671C536.176 471.671 533.883 470.688 531.82 469.605C530.304 468.818 528.98 467.884 529.374 465.694C529.374 465.694 526.318 466.076 525.923 464.268C525.726 462.93 525.83 461.566 526.228 460.271C525.642 460.029 525.14 459.631 524.779 459.124C524.418 458.616 524.214 458.02 524.191 457.405C524.051 456.245 524.315 455.072 524.942 454.073L524.165 453.322Z" fill="#B16668"/>
<path d="M541.191 454.281C540.047 454.177 538.896 454.177 537.752 454.281C536.631 454.566 535.564 455.022 534.593 455.634C532.631 456.707 530.769 457.941 529.027 459.324C531.123 458.541 533.146 457.591 535.077 456.483C535.984 455.912 536.944 455.422 537.943 455.019C538.936 454.773 540.108 454.601 541.191 454.281Z" fill="#9A4A4D"/>
<path d="M544.544 458.734C543.312 458.533 542.047 458.63 540.863 459.016C539.693 459.385 538.563 459.863 537.488 460.443C535.349 461.566 533.335 462.897 531.477 464.415C533.696 463.483 535.864 462.441 537.972 461.292C539.979 460.051 542.208 459.183 544.544 458.734Z" fill="#9A4A4D"/>
<path d="M643.501 406.072L664.554 411.495C668.146 412.725 681.927 425.835 677.176 445.586C675.903 450.936 674.018 459.446 671.559 471.302C670.579 476.012 671.687 480.452 672.133 485.74C672.859 494.349 672.133 505.823 671.559 514.604C671.559 514.604 661.574 521.983 625.848 518.06C598.604 515.084 591.141 499.723 591.141 499.723C593.688 492.172 596.974 487.056 600.91 479.849C600.086 474.489 599.876 469.057 600.286 463.652C595.811 459.841 592.904 454.603 592.096 448.895C590.822 440.286 595.013 434.05 603.559 424.458C608.366 418.843 613.936 413.879 620.116 409.7L643.501 406.072Z" fill="#37474F"/>
<path d="M659.316 337.792C660.247 339.109 661.337 340.315 662.564 341.383C664.296 342.613 666.487 342.613 668.525 342.883C670.562 343.154 672.83 343.892 673.798 345.823C675.211 348.676 673.021 352.415 674.358 355.317C675.186 357.137 677.122 358.01 678.816 359.007C680.51 360.003 682.28 361.466 682.318 363.422C682.318 365.881 679.771 367.714 679.771 370.186C679.771 372.658 682.713 374.699 682.242 377.196C682.03 377.902 681.634 378.544 681.093 379.061C680.551 379.578 679.881 379.952 679.147 380.147C677.706 380.475 676.339 381.049 675.109 381.845C672.46 384.046 672.817 388.99 669.9 390.773C668.359 391.732 666.385 391.437 664.805 392.2C661.876 393.577 660.908 397.882 657.928 399.099C654.947 400.317 652.069 398.103 649.076 398.25C646.083 398.398 643.472 400.71 640.657 400.009C637.842 399.308 636.199 395.815 633.512 394.426C629.27 392.261 623.577 395.889 619.718 393.024C617.171 391.167 616.547 387.022 613.477 385.94C612.664 385.688 611.834 385.491 610.993 385.35C609.783 385.094 608.655 384.558 607.707 383.788C605.936 382.282 604.855 380.159 604.702 377.884C604.587 376.101 604.982 374.195 604.192 372.608C603.097 370.444 600.244 369.891 599.097 367.788C597.824 365.488 599.097 362.524 600.715 360.409C602.333 358.293 604.37 356.387 604.74 353.731C605.071 351.443 604.052 348.983 604.918 346.844C605.37 345.993 606.005 345.246 606.78 344.652C607.556 344.058 608.454 343.631 609.414 343.4C611.235 342.785 613.235 342.269 614.509 340.805L614.649 340.645C616.139 338.85 616.661 336.23 618.661 334.828C620.396 333.809 622.468 333.467 624.456 333.869C627.207 334.262 628.888 335.345 631.614 334.385C633.346 333.77 634.747 332.245 636.543 331.926C638.339 331.606 640.071 332.479 641.638 333.266C642.921 334.095 644.437 334.524 645.981 334.496C647.273 334.169 648.582 333.911 649.904 333.721C651.573 333.66 653.236 333.945 654.782 334.557C656.54 335.268 658.096 336.378 659.316 337.792Z" fill="#263238"/>
<path d="M662.2 350.767C656.876 343.879 640.993 338.038 628.779 342.268C617.876 344.728 610.948 354.468 610.527 367.394C611.725 383.382 651.042 401.288 651.042 401.288C651.437 398.644 655.538 393.651 658.748 388.461C660.849 384.981 662.725 381.379 664.365 377.675C667.485 372.461 668.785 359.277 662.2 350.767Z" fill="#263238"/>
<path d="M650.968 404.928C650.968 402.469 651.452 390.17 651.452 390.17C651.452 390.761 653.489 392.052 656.024 391.572C660.138 390.785 668.34 378.979 660.864 374.613C657.731 372.781 653.222 373.482 651.095 378.303C648.318 378.918 646.612 376.224 646.905 372.645C647.363 366.927 643.911 363.102 639.021 359.855C635.493 357.518 630.245 354.936 627.838 351.812C621.635 356.731 613.7 356.018 610.771 363.311C610.39 368.147 610.284 373 610.452 377.848C610.567 390.072 613.305 397.144 617.738 399.099C621.076 400.568 624.768 401.125 628.411 400.71L628.131 404.793C628.016 406.835 628.131 407.954 626.118 408.556C625.283 408.8 624.432 408.989 623.571 409.122C623.571 409.122 615.993 414.767 629.099 416.587C648.675 419.281 659.667 410.131 659.667 410.131C659.667 410.131 657.909 409.663 654.674 408.679C651.197 407.708 650.968 407.363 650.968 404.928Z" fill="#B16668"/>
<path d="M633.533 386.075L626.426 388.191C626.553 388.646 626.774 389.073 627.075 389.445C627.377 389.817 627.752 390.127 628.18 390.356C628.607 390.586 629.078 390.73 629.565 390.78C630.051 390.831 630.543 390.787 631.011 390.65C631.957 390.342 632.744 389.697 633.213 388.846C633.682 387.996 633.796 387.004 633.533 386.075Z" fill="#9A4A4D"/>
<path d="M633.059 387.649C632.115 387.617 631.189 387.902 630.438 388.456C629.688 389.01 629.16 389.799 628.945 390.687C629.617 390.89 630.337 390.89 631.009 390.687C631.675 390.468 632.265 390.075 632.715 389.552C633.164 389.029 633.455 388.396 633.556 387.723C633.393 387.683 633.227 387.658 633.059 387.649Z" fill="#FFA8A7"/>
<path d="M612.861 367.726L617.955 365.266C617.798 364.943 617.574 364.653 617.298 364.414C617.022 364.176 616.699 363.994 616.348 363.879C615.997 363.764 615.626 363.719 615.256 363.746C614.887 363.773 614.527 363.872 614.198 364.037C613.537 364.378 613.033 364.947 612.785 365.63C612.538 366.313 612.564 367.061 612.861 367.726Z" fill="#263238"/>
<path d="M639.445 367.455L634.223 364.996C634.368 364.653 634.585 364.344 634.86 364.086C635.135 363.829 635.462 363.629 635.821 363.5C636.18 363.371 636.563 363.314 636.945 363.335C637.328 363.355 637.702 363.452 638.044 363.618C638.745 363.96 639.282 364.55 639.543 365.265C639.804 365.98 639.769 366.765 639.445 367.455Z" fill="#263238"/>
<path d="M619.395 372.375C619.424 372.981 619.21 373.575 618.797 374.033C618.384 374.491 617.805 374.778 617.179 374.834C616.871 374.868 616.558 374.841 616.261 374.755C615.964 374.669 615.688 374.526 615.45 374.334C615.212 374.142 615.016 373.905 614.876 373.638C614.735 373.371 614.652 373.079 614.631 372.781C614.603 372.174 614.817 371.58 615.229 371.122C615.642 370.664 616.222 370.377 616.848 370.321C617.156 370.287 617.468 370.314 617.765 370.4C618.063 370.486 618.339 370.629 618.577 370.821C618.815 371.013 619.01 371.25 619.151 371.517C619.292 371.784 619.375 372.076 619.395 372.375Z" fill="#263238"/>
<path d="M636.657 372.879C636.686 373.485 636.471 374.079 636.059 374.537C635.646 374.995 635.067 375.282 634.441 375.338C634.132 375.372 633.82 375.345 633.523 375.259C633.226 375.173 632.95 375.03 632.711 374.838C632.473 374.646 632.278 374.409 632.137 374.142C631.997 373.875 631.914 373.583 631.893 373.284C631.864 372.678 632.078 372.084 632.491 371.626C632.904 371.168 633.483 370.881 634.109 370.825C634.418 370.791 634.73 370.818 635.027 370.904C635.324 370.99 635.6 371.133 635.838 371.325C636.077 371.517 636.272 371.754 636.413 372.021C636.553 372.288 636.636 372.58 636.657 372.879Z" fill="#263238"/>
<path d="M617.734 379.852L625.236 383.382L626.892 369.386L617.734 379.852Z" fill="#9A4A4D"/>
<path d="M628.411 400.796C637.467 399.984 646.166 397.205 648.229 393.232C648.198 394.51 647.846 395.761 647.202 396.877C646.559 397.993 645.643 398.941 644.535 399.64C639.352 402.518 628.207 403.883 628.207 403.883L628.411 400.796Z" fill="#9A4A4D"/>
<path d="M627.685 440.138C623.788 436.449 621.776 434.936 619.827 434.112C617.878 433.288 611.179 429.488 608.555 428.467C606.887 427.828 605.804 430.386 607.74 432.501C609.243 434.137 613.382 436.559 615.165 437.838C616.948 439.117 620.12 444.074 620.12 444.074L627.685 440.138Z" fill="#9A4A4D"/>
<path d="M683.891 427.913C680.733 417.288 674.976 413.217 664.583 411.495C653.451 419.415 660.762 448.624 660.762 448.624L665.818 465.546C665.818 465.546 645.236 457.589 642.561 455.388C638.459 451.523 634.609 447.416 631.035 443.089C627.901 439.277 626.055 439.486 624.195 439.511C618.081 439.584 616.693 439.892 615.279 440.495C614.868 440.695 614.515 440.994 614.255 441.361C613.994 441.729 613.834 442.154 613.789 442.598C612.172 442.598 609.803 442.216 609.128 444.701C608.906 445.349 608.777 446.023 608.746 446.705C608.335 446.715 607.941 446.868 607.637 447.136C606.096 448.439 607.637 453.875 608.911 455.314C609.803 456.322 611.229 456.63 613.152 456.63C614.795 456.63 614.273 454.945 614.273 454.945L616.515 455.376C620.909 459.372 620.208 466.026 626.437 468.338C629.059 468.95 631.617 469.794 634.079 470.859C647.312 477.193 664.099 494.841 679.421 496.796C691.533 498.346 693.431 492.959 693.966 485.728C694.526 478.324 686.706 437.383 683.891 427.913Z" fill="#B16668"/>
<path d="M664.789 462.152L665.795 465.558C672.877 467.674 679.729 469.752 681.499 472.446C679.755 468.006 674.736 464.71 664.789 462.152Z" fill="#9A4A4D"/>
<path d="M613.805 442.61L621.115 442.167L614.085 441.675C613.932 441.967 613.837 442.284 613.805 442.61Z" fill="#9A4A4D"/>
<path d="M608.762 446.717L617.091 446.779L608.889 445.795C608.812 446.097 608.769 446.406 608.762 446.717Z" fill="#9A4A4D"/>
<path d="M609.34 450.345C609.554 450.782 609.889 451.152 610.308 451.415C610.719 451.691 611.169 451.906 611.645 452.055L611.543 451.969C611.709 452.411 611.874 452.854 612.053 453.285L612.257 453.1C612.034 453.03 611.799 453.006 611.567 453.029C611.334 453.052 611.109 453.123 610.906 453.235C610.53 453.456 610.233 453.782 610.053 454.17C610.303 453.848 610.631 453.591 611.008 453.42C611.373 453.286 611.777 453.286 612.142 453.42L612.448 453.518L612.346 453.223C612.18 452.793 612.015 452.35 611.836 451.919V451.846H611.76C611.321 451.699 610.895 451.518 610.486 451.304C610.028 451.08 609.635 450.751 609.34 450.345Z" fill="#9A4A4D"/>
<path d="M611.371 451.649C612.339 451.902 613.321 452.099 614.313 452.24C614.399 452.859 614.679 453.439 615.116 453.9C615.549 454.424 616.017 454.921 616.517 455.388L614.275 454.958C614.275 454.958 613.867 453.912 611.893 453.273L611.371 451.649Z" fill="#9A4A4D"/>
<path d="M663.983 377.073C666.759 380.652 669.077 386.432 669.625 395.791C669.994 402.777 673.038 413.489 676.745 416.01C669.103 416.01 659.257 425.971 659.843 429.796C657.487 423.647 656.481 406.774 658.251 397.255C659.247 392.256 659.894 387.198 660.187 382.116L663.983 377.073Z" fill="#6E6BFF"/>
<path opacity="0.3" d="M663.983 377.073C666.759 380.652 669.077 386.432 669.625 395.791C669.994 402.777 673.038 413.489 676.745 416.01C669.103 416.01 659.257 425.971 659.843 429.796C657.487 423.647 656.481 406.774 658.251 397.255C659.247 392.256 659.894 387.198 660.187 382.116L663.983 377.073Z" fill="black"/>
<path d="M656.024 391.622C658.419 386.518 653.91 367.886 646.918 360.876C630.004 344.003 620.171 352.107 616.006 355.957C612.895 359.043 610.964 363.059 610.529 367.345C609.994 358.392 611.943 349.598 622.323 344.445C635.71 337.804 648.701 344.286 655.375 350.299C665.806 359.695 666.214 370.764 664.367 377.626C664.367 377.675 658.47 389.236 656.024 391.622Z" fill="#6E6BFF"/>
<path opacity="0.25" d="M656.024 391.622C658.419 386.518 653.91 367.886 646.918 360.876C630.004 344.003 620.171 352.107 616.006 355.957C612.895 359.043 610.964 363.059 610.529 367.345C609.994 358.392 611.943 349.598 622.323 344.445C635.71 337.804 648.701 344.286 655.375 350.299C665.806 359.695 666.214 370.764 664.367 377.626C664.367 377.675 658.47 389.236 656.024 391.622Z" fill="black"/>
<path d="M656.024 391.622C653.899 394.211 652.23 397.119 651.082 400.231C648.726 405.863 641.912 419.908 642.523 435.035C643.134 450.162 645.3 453.544 645.3 453.544C645.3 453.544 645.3 450.691 648.611 445.636C652.967 439.032 659.233 442.365 664.328 434.469C660.724 425.282 659.055 419.711 660.507 403.33C661.959 386.949 661.615 382.952 661.615 382.952C661.615 382.952 659.284 386.936 656.024 391.622Z" fill="#6E6BFF"/>
<path opacity="0.38" d="M656.024 391.622C653.899 394.211 652.23 397.119 651.082 400.231C648.726 405.863 641.912 419.908 642.523 435.035C643.134 450.162 645.3 453.544 645.3 453.544C645.3 453.544 645.3 450.691 648.611 445.636C652.967 439.032 659.233 442.365 664.328 434.469C660.724 425.282 659.055 419.711 660.507 403.33C661.959 386.949 661.615 382.952 661.615 382.952C661.615 382.952 659.284 386.936 656.024 391.622Z" fill="black"/>
<ellipse cx="137.087" cy="634.144" rx="5.90708" ry="6.22234" fill="url(#paint3_linear_1523_12575)"/>
<ellipse cx="223.931" cy="25.4079" rx="25.2393" ry="25.4079" fill="url(#paint4_linear_1523_12575)"/>
<ellipse cx="15.5732" cy="176.818" rx="15.5732" ry="16.0744" fill="url(#paint5_linear_1523_12575)"/>
<defs>
<linearGradient id="paint0_linear_1523_12575" x1="428.962" y1="57" x2="428.962" y2="87.0746" gradientUnits="userSpaceOnUse">
<stop stop-color="#5D00FF"/>
<stop offset="1" stop-color="#5D00FF" stop-opacity="0"/>
</linearGradient>
<linearGradient id="paint1_linear_1523_12575" x1="659.059" y1="312.658" x2="659.059" y2="325.103" gradientUnits="userSpaceOnUse">
<stop stop-color="#5D00FF"/>
<stop offset="1" stop-color="#5D00FF" stop-opacity="0"/>
</linearGradient>
<linearGradient id="paint2_linear_1523_12575" x1="637.041" y1="109.396" x2="637.041" y2="132.211" gradientUnits="userSpaceOnUse">
<stop stop-color="#5D00FF"/>
<stop offset="1" stop-color="#5D00FF" stop-opacity="0"/>
</linearGradient>
<linearGradient id="paint3_linear_1523_12575" x1="137.087" y1="627.921" x2="137.087" y2="640.366" gradientUnits="userSpaceOnUse">
<stop stop-color="#5D00FF"/>
<stop offset="1" stop-color="#5D00FF" stop-opacity="0"/>
</linearGradient>
<linearGradient id="paint4_linear_1523_12575" x1="223.931" y1="0" x2="223.931" y2="50.8158" gradientUnits="userSpaceOnUse">
<stop stop-color="#5D00FF"/>
<stop offset="1" stop-color="#5D00FF" stop-opacity="0"/>
</linearGradient>
<linearGradient id="paint5_linear_1523_12575" x1="15.5732" y1="160.744" x2="15.5732" y2="192.892" gradientUnits="userSpaceOnUse">
<stop stop-color="#5D00FF"/>
<stop offset="1" stop-color="#5D00FF" stop-opacity="0"/>
</linearGradient>
</defs>
</svg>
