<svg width="25" height="26" viewBox="0 0 25 26" fill="none" xmlns="http://www.w3.org/2000/svg">
<g clip-path="url(#clip0_25_52667)">
<path d="M21.8138 22.4833V7.72511L14.8231 0.734375H6.27887C5.45484 0.734375 4.66457 1.06172 4.08189 1.64439C3.49922 2.22707 3.17188 3.01734 3.17188 3.84137V22.4833C3.17188 23.3074 3.49922 24.0976 4.08189 24.6803C4.66457 25.263 5.45484 25.5903 6.27887 25.5903H18.7068C19.5309 25.5903 20.3211 25.263 20.9038 24.6803C21.4865 24.0976 21.8138 23.3074 21.8138 22.4833ZM14.8231 5.39486C14.8231 6.01288 15.0686 6.60559 15.5056 7.0426C15.9426 7.4796 16.5353 7.72511 17.1533 7.72511H20.2603V22.4833C20.2603 22.8953 20.0967 23.2905 19.8053 23.5818C19.514 23.8731 19.1189 24.0368 18.7068 24.0368H6.27887C5.86686 24.0368 5.47172 23.8731 5.18038 23.5818C4.88904 23.2905 4.72537 22.8953 4.72537 22.4833V3.84137C4.72537 3.42936 4.88904 3.03422 5.18038 2.74288C5.47172 2.45154 5.86686 2.28787 6.27887 2.28787H14.8231V5.39486Z" fill="#2E2E2E"/>
<path d="M7.21323 22.617C6.91044 22.4959 6.66649 22.262 6.5328 21.9646C6.22987 21.3618 6.33084 20.759 6.65708 20.2526C6.96467 19.7757 7.47422 19.3702 8.05056 19.03C8.78061 18.616 9.55231 18.2801 10.3528 18.028C10.9745 16.9104 11.5256 15.7549 12.0027 14.5684C11.7174 13.9202 11.4938 13.2466 11.3347 12.5566C11.2011 11.9352 11.1498 11.32 11.2632 10.7918C11.3797 10.2419 11.6889 9.74787 12.273 9.51329C12.5712 9.39367 12.8944 9.32687 13.2082 9.39367C13.366 9.42727 13.5144 9.49559 13.6426 9.59367C13.7708 9.69174 13.8755 9.81712 13.9492 9.9607C14.0859 10.2155 14.1356 10.5137 14.1465 10.7965C14.1574 11.0885 14.1278 11.4117 14.0735 11.7503C13.943 12.5426 13.654 13.512 13.2657 14.5373C13.6942 15.4539 14.2037 16.3304 14.7881 17.1565C15.4795 17.1019 16.175 17.1279 16.8604 17.2342C17.4259 17.3367 18.0007 17.5371 18.3518 17.9565C18.5382 18.1802 18.6516 18.4537 18.6625 18.7613C18.6734 19.0595 18.5895 19.3547 18.4481 19.6359C18.3257 19.8964 18.1358 20.1196 17.8982 20.2821C17.6633 20.4353 17.386 20.5104 17.1059 20.4965C16.5917 20.4748 16.0899 20.192 15.6565 19.8487C15.1294 19.4129 14.6545 18.9177 14.2412 18.3729C13.1907 18.4921 12.1526 18.7032 11.1389 19.0036C10.6747 19.8269 10.1448 20.6114 9.55435 21.3494C9.10073 21.8931 8.60827 22.3685 8.11426 22.572C7.83041 22.7004 7.50846 22.7165 7.21323 22.617ZM9.3555 19.6638C9.09762 19.7819 8.85838 19.9062 8.64245 20.0336C8.1329 20.3349 7.802 20.6286 7.63733 20.8833C7.4913 21.1086 7.4882 21.2717 7.57519 21.4441C7.59073 21.4783 7.60626 21.5001 7.61558 21.5125C7.63412 21.5076 7.65229 21.5013 7.66996 21.4939C7.88279 21.4069 8.22145 21.1288 8.65643 20.6053C8.90381 20.3024 9.13709 19.9882 9.3555 19.6638ZM11.9032 17.5977C12.422 17.4766 12.9454 17.3766 13.4723 17.2979C13.1894 16.865 12.9251 16.4203 12.68 15.965C12.4363 16.5158 12.1773 17.0598 11.9032 17.5961V17.5977ZM15.7031 18.2968C15.9361 18.55 16.1629 18.7628 16.3789 18.9337C16.7517 19.2289 17.0111 19.3267 17.1525 19.3314C17.1903 19.3363 17.2287 19.3281 17.2612 19.3081C17.3259 19.257 17.3762 19.1901 17.4073 19.1139C17.4625 19.0193 17.494 18.9127 17.4989 18.8032C17.498 18.7667 17.4836 18.7318 17.4585 18.7053C17.3778 18.609 17.1478 18.4692 16.6538 18.3806C16.3396 18.3281 16.0217 18.3006 15.7031 18.2983V18.2968ZM12.6116 12.8502C12.7424 12.4285 12.8462 11.9988 12.9223 11.5639C12.9705 11.2718 12.9891 11.0311 12.9814 10.8415C12.9818 10.737 12.965 10.633 12.9317 10.5339C12.8539 10.5436 12.778 10.5645 12.7064 10.5961C12.5712 10.6504 12.4609 10.7607 12.4019 11.0357C12.3398 11.334 12.3553 11.7643 12.4734 12.3127C12.5107 12.4851 12.5573 12.6653 12.6132 12.8502H12.6116Z" fill="#2E2E2E"/>
</g>
<defs>
<clipPath id="clip0_25_52667">
<rect width="24.8559" height="24.8559" fill="white" transform="translate(0.0703125 0.734375)"/>
</clipPath>
</defs>
</svg>
