<svg width="25" height="26" viewBox="0 0 25 26" fill="none" xmlns="http://www.w3.org/2000/svg">
<path d="M20.7884 2.67969H8.36039C7.21805 2.67969 6.28906 3.60868 6.28906 4.75102V17.179C6.28906 18.3213 7.21805 19.2503 8.36039 19.2503H20.7884C21.9307 19.2503 22.8597 18.3213 22.8597 17.179V4.75102C22.8597 3.60868 21.9307 2.67969 20.7884 2.67969ZM8.36039 17.179V4.75102H20.7884L20.7904 17.179H8.36039Z" fill="#2E2E2E"/>
<path d="M4.21195 8.89844H2.14062V21.3264C2.14062 22.4687 3.06962 23.3977 4.21195 23.3977H16.6399V21.3264H4.21195V8.89844Z" fill="#2E2E2E"/>
<path d="M12.4976 13.0411L11.462 12.0054L9.39062 15.1124H19.7473L15.6046 8.89844L12.4976 13.0411Z" fill="#2E2E2E"/>
</svg>
