<svg width="364" height="298" viewBox="0 0 364 298" fill="none" xmlns="http://www.w3.org/2000/svg">
<path d="M5.8958 27.9908L5.8958 27.9908C7.38762 20.448 13.4893 14.361 21.0559 12.8842C33.5403 10.4528 44.4611 19.8991 44.5 31.9018C44.4921 34.421 42.4441 36.5033 39.9296 36.5033H33.7029C29.3517 36.5033 26.5224 41.0324 28.4993 44.9178L28.4994 44.918C29.8486 47.5663 28.3737 50.9222 25.5478 51.3612C20.7818 52.0998 15.1593 49.8535 11.0682 45.5844C6.99135 41.3301 4.48602 35.1159 5.8958 27.9908ZM9.49917 34.5033C9.49917 36.1623 10.8402 37.5033 12.4992 37.5033C14.1582 37.5033 15.4993 36.1623 15.4993 34.5033C15.4993 32.8443 14.1582 31.5032 12.4992 31.5032C10.8402 31.5032 9.49917 32.8443 9.49917 34.5033ZM11.9992 24.503C11.9992 26.162 13.3403 27.5031 14.9993 27.5031C16.6583 27.5031 17.9993 26.162 17.9993 24.503C17.9993 22.844 16.6583 21.503 14.9993 21.503C13.3403 21.503 11.9992 22.844 11.9992 24.503ZM21.9995 19.5029C21.9995 21.1619 23.3405 22.503 24.9995 22.503C26.6585 22.503 27.9996 21.1619 27.9996 19.5029C27.9996 17.8439 26.6585 16.5029 24.9995 16.5029C23.3405 16.5029 21.9995 17.8439 21.9995 19.5029ZM31.9997 24.503C31.9997 26.162 33.3408 27.5031 34.9998 27.5031C36.6587 27.5031 37.9998 26.162 37.9998 24.503C37.9998 22.844 36.6587 21.503 34.9998 21.503C33.3408 21.503 31.9997 22.844 31.9997 24.503Z" stroke="black"/>
<path d="M60.692 14.972C62.588 14.972 64.208 15.296 65.552 15.944C66.896 16.568 67.928 17.48 68.648 18.68C69.392 19.88 69.764 21.332 69.764 23.036C69.764 24.068 69.608 25.088 69.296 26.096C68.984 27.08 68.48 27.98 67.784 28.796C67.112 29.588 66.224 30.224 65.12 30.704C64.016 31.184 62.672 31.424 61.088 31.424H57.236V41H53.744V14.972H60.692ZM61.052 28.076C62.084 28.076 62.936 27.908 63.608 27.572C64.28 27.236 64.808 26.816 65.192 26.312C65.576 25.784 65.852 25.232 66.02 24.656C66.188 24.08 66.272 23.564 66.272 23.108C66.272 22.58 66.188 22.04 66.02 21.488C65.852 20.912 65.564 20.396 65.156 19.94C64.772 19.46 64.256 19.076 63.608 18.788C62.984 18.476 62.204 18.32 61.268 18.32H57.236V28.076H61.052ZM80.5182 41.36C79.1262 41.36 77.8542 41.06 76.7022 40.46C75.5742 39.86 74.6742 38.984 74.0022 37.832C73.3542 36.656 73.0302 35.228 73.0302 33.548C73.0302 31.892 73.3782 30.464 74.0742 29.264C74.7702 28.04 75.6942 27.104 76.8462 26.456C78.0222 25.808 79.3062 25.484 80.6982 25.484C82.0902 25.484 83.2662 25.808 84.2262 26.456C85.1862 27.08 85.9182 27.824 86.4222 28.688L86.2062 29.264L86.5302 26.096H89.6262V41H86.2782V37.112L86.6382 37.976C86.5422 38.216 86.3262 38.528 85.9902 38.912C85.6782 39.272 85.2462 39.644 84.6942 40.028C84.1662 40.412 83.5542 40.736 82.8582 41C82.1622 41.24 81.3822 41.36 80.5182 41.36ZM81.4182 38.588C82.2582 38.588 83.0142 38.432 83.6862 38.12C84.3582 37.808 84.9102 37.376 85.3422 36.824C85.7982 36.248 86.1102 35.564 86.2782 34.772V31.856C86.0862 31.136 85.7502 30.512 85.2702 29.984C84.7902 29.432 84.2142 29.012 83.5422 28.724C82.8702 28.412 82.1262 28.256 81.3102 28.256C80.4222 28.256 79.6062 28.472 78.8622 28.904C78.1182 29.336 77.5182 29.936 77.0622 30.704C76.6302 31.472 76.4142 32.372 76.4142 33.404C76.4142 34.364 76.6422 35.24 77.0982 36.032C77.5542 36.824 78.1662 37.448 78.9342 37.904C79.7022 38.36 80.5302 38.588 81.4182 38.588ZM102.584 48.38C101.48 48.38 100.508 48.248 99.6679 47.984C98.8279 47.744 98.0599 47.396 97.3639 46.94C96.6919 46.484 96.0439 45.968 95.4199 45.392L97.3639 43.124C98.1559 43.868 98.9599 44.444 99.7759 44.852C100.592 45.26 101.504 45.464 102.512 45.464C103.64 45.464 104.588 45.272 105.356 44.888C106.148 44.528 106.748 44.012 107.156 43.34C107.564 42.692 107.768 41.936 107.768 41.072L107.804 37.04L108.092 37.688C107.66 38.72 106.88 39.596 105.752 40.316C104.624 41.012 103.256 41.36 101.648 41.36C100.28 41.36 99.0199 41.012 97.8679 40.316C96.7399 39.62 95.8279 38.684 95.1319 37.508C94.4599 36.308 94.1239 34.964 94.1239 33.476C94.1239 31.916 94.4839 30.548 95.2039 29.372C95.9239 28.172 96.8719 27.224 98.0479 26.528C99.2239 25.832 100.508 25.484 101.9 25.484C103.22 25.484 104.42 25.76 105.5 26.312C106.604 26.84 107.408 27.524 107.912 28.364L107.732 28.976L108.092 26.096H111.152V41.108C111.152 42.452 110.804 43.676 110.108 44.78C109.412 45.884 108.428 46.76 107.156 47.408C105.884 48.056 104.36 48.38 102.584 48.38ZM97.4719 33.404C97.4719 34.364 97.6999 35.24 98.1559 36.032C98.6119 36.824 99.2239 37.448 99.9919 37.904C100.784 38.36 101.66 38.588 102.62 38.588C103.508 38.588 104.3 38.432 104.996 38.12C105.716 37.784 106.316 37.34 106.796 36.788C107.276 36.212 107.612 35.552 107.804 34.808V31.856C107.588 31.136 107.228 30.512 106.724 29.984C106.22 29.432 105.62 29.012 104.924 28.724C104.228 28.412 103.46 28.256 102.62 28.256C101.66 28.256 100.784 28.472 99.9919 28.904C99.2239 29.336 98.6119 29.948 98.1559 30.74C97.6999 31.508 97.4719 32.396 97.4719 33.404ZM123.848 41.36C122.144 41.36 120.68 41.024 119.456 40.352C118.232 39.656 117.284 38.72 116.612 37.544C115.964 36.344 115.64 34.976 115.64 33.44C115.64 31.976 116.012 30.644 116.756 29.444C117.5 28.244 118.496 27.284 119.744 26.564C120.992 25.844 122.384 25.484 123.92 25.484C125.888 25.484 127.52 26.06 128.816 27.212C130.112 28.364 130.988 29.948 131.444 31.964L119.168 36.284L118.376 34.304L128.456 30.632L127.736 31.1C127.448 30.308 126.968 29.624 126.296 29.048C125.624 28.448 124.748 28.148 123.668 28.148C122.756 28.148 121.94 28.376 121.22 28.832C120.5 29.264 119.936 29.864 119.528 30.632C119.12 31.4 118.916 32.276 118.916 33.26C118.916 34.292 119.132 35.204 119.564 35.996C119.996 36.764 120.584 37.376 121.328 37.832C122.096 38.264 122.96 38.48 123.92 38.48C124.568 38.48 125.192 38.36 125.792 38.12C126.416 37.88 126.992 37.568 127.52 37.184L129.068 39.668C128.324 40.172 127.484 40.58 126.548 40.892C125.636 41.204 124.736 41.36 123.848 41.36ZM166.973 39.056C166.541 39.344 165.953 39.668 165.209 40.028C164.465 40.388 163.589 40.688 162.581 40.928C161.597 41.168 160.517 41.288 159.341 41.288C157.325 41.264 155.501 40.904 153.869 40.208C152.261 39.512 150.893 38.564 149.765 37.364C148.637 36.164 147.761 34.784 147.137 33.224C146.537 31.64 146.237 29.96 146.237 28.184C146.237 26.24 146.549 24.452 147.173 22.82C147.821 21.164 148.721 19.736 149.873 18.536C151.025 17.312 152.381 16.364 153.941 15.692C155.525 15.02 157.253 14.684 159.125 14.684C160.685 14.684 162.101 14.9 163.373 15.332C164.645 15.74 165.737 16.232 166.649 16.808L165.245 20.048C164.525 19.568 163.649 19.112 162.617 18.68C161.609 18.248 160.481 18.032 159.233 18.032C157.961 18.032 156.761 18.284 155.633 18.788C154.505 19.292 153.509 20 152.645 20.912C151.781 21.824 151.097 22.892 150.593 24.116C150.113 25.316 149.873 26.612 149.873 28.004C149.873 29.42 150.089 30.74 150.521 31.964C150.977 33.164 151.613 34.208 152.429 35.096C153.269 35.984 154.277 36.68 155.453 37.184C156.629 37.688 157.949 37.94 159.413 37.94C160.733 37.94 161.909 37.736 162.941 37.328C163.973 36.92 164.825 36.464 165.497 35.96L166.973 39.056ZM170.729 33.404C170.729 31.916 171.077 30.572 171.773 29.372C172.493 28.172 173.477 27.224 174.725 26.528C175.973 25.832 177.389 25.484 178.973 25.484C180.605 25.484 182.033 25.832 183.257 26.528C184.481 27.224 185.429 28.172 186.101 29.372C186.773 30.572 187.109 31.916 187.109 33.404C187.109 34.892 186.773 36.248 186.101 37.472C185.429 38.672 184.469 39.62 183.221 40.316C181.997 41.012 180.569 41.36 178.937 41.36C177.353 41.36 175.937 41.036 174.689 40.388C173.465 39.716 172.493 38.792 171.773 37.616C171.077 36.416 170.729 35.012 170.729 33.404ZM174.077 33.44C174.077 34.4 174.293 35.276 174.725 36.068C175.157 36.836 175.733 37.448 176.453 37.904C177.197 38.36 178.013 38.588 178.901 38.588C179.837 38.588 180.665 38.36 181.385 37.904C182.129 37.448 182.705 36.836 183.113 36.068C183.521 35.276 183.725 34.4 183.725 33.44C183.725 32.48 183.521 31.616 183.113 30.848C182.705 30.056 182.129 29.432 181.385 28.976C180.665 28.496 179.837 28.256 178.901 28.256C177.989 28.256 177.161 28.496 176.417 28.976C175.697 29.456 175.121 30.092 174.689 30.884C174.281 31.652 174.077 32.504 174.077 33.44ZM191.643 13.136H194.991V41H191.643V13.136ZM199.487 33.404C199.487 31.916 199.835 30.572 200.531 29.372C201.251 28.172 202.235 27.224 203.483 26.528C204.731 25.832 206.147 25.484 207.731 25.484C209.363 25.484 210.791 25.832 212.015 26.528C213.239 27.224 214.187 28.172 214.859 29.372C215.531 30.572 215.867 31.916 215.867 33.404C215.867 34.892 215.531 36.248 214.859 37.472C214.187 38.672 213.227 39.62 211.979 40.316C210.755 41.012 209.327 41.36 207.695 41.36C206.111 41.36 204.695 41.036 203.447 40.388C202.223 39.716 201.251 38.792 200.531 37.616C199.835 36.416 199.487 35.012 199.487 33.404ZM202.835 33.44C202.835 34.4 203.051 35.276 203.483 36.068C203.915 36.836 204.491 37.448 205.211 37.904C205.955 38.36 206.771 38.588 207.659 38.588C208.595 38.588 209.423 38.36 210.143 37.904C210.887 37.448 211.463 36.836 211.871 36.068C212.279 35.276 212.483 34.4 212.483 33.44C212.483 32.48 212.279 31.616 211.871 30.848C211.463 30.056 210.887 29.432 210.143 28.976C209.423 28.496 208.595 28.256 207.659 28.256C206.747 28.256 205.919 28.496 205.175 28.976C204.455 29.456 203.879 30.092 203.447 30.884C203.039 31.652 202.835 32.504 202.835 33.44ZM225.116 41.576C223.772 41.576 222.656 41.168 221.768 40.352C220.904 39.512 220.448 38.432 220.4 37.112V26.096H223.748V35.924C223.796 36.74 224.024 37.4 224.432 37.904C224.864 38.408 225.536 38.672 226.448 38.696C227.288 38.696 228.032 38.456 228.68 37.976C229.352 37.472 229.892 36.8 230.3 35.96C230.708 35.096 230.912 34.124 230.912 33.044V26.096H234.26V41H231.2L230.912 37.328L231.092 37.976C230.804 38.672 230.36 39.296 229.76 39.848C229.184 40.376 228.5 40.796 227.708 41.108C226.916 41.42 226.052 41.576 225.116 41.576ZM243.041 26.096L243.365 30.416L243.185 29.84C243.569 28.928 244.121 28.16 244.841 27.536C245.585 26.888 246.353 26.396 247.145 26.06C247.961 25.7 248.669 25.52 249.269 25.52L249.089 28.832C247.961 28.76 246.965 28.976 246.101 29.48C245.261 29.984 244.589 30.656 244.085 31.496C243.605 32.336 243.365 33.236 243.365 34.196V41H240.053V26.096H243.041Z" fill="#2E2E2E"/>
<rect y="88" width="84" height="24" rx="4" fill="#FF0000"/>
<rect x="86" y="88" width="84" height="24" rx="4" fill="#008000"/>
<rect x="172" y="88" width="84" height="24" rx="4" fill="#FFFF00"/>
<rect x="258" y="88" width="84" height="24" rx="4" fill="#0000FF"/>
<rect y="128" width="84" height="24" rx="4" fill="#808080"/>
<rect x="84" y="128" width="84" height="24" rx="4" fill="black"/>
<path d="M28.86 226.056C28.428 226.344 27.84 226.668 27.096 227.028C26.352 227.388 25.476 227.688 24.468 227.928C23.484 228.168 22.404 228.288 21.228 228.288C19.212 228.264 17.388 227.904 15.756 227.208C14.148 226.512 12.78 225.564 11.652 224.364C10.524 223.164 9.648 221.784 9.024 220.224C8.424 218.64 8.124 216.96 8.124 215.184C8.124 213.24 8.436 211.452 9.06 209.82C9.708 208.164 10.608 206.736 11.76 205.536C12.912 204.312 14.268 203.364 15.828 202.692C17.412 202.02 19.14 201.684 21.012 201.684C22.572 201.684 23.988 201.9 25.26 202.332C26.532 202.74 27.624 203.232 28.536 203.808L27.132 207.048C26.412 206.568 25.536 206.112 24.504 205.68C23.496 205.248 22.368 205.032 21.12 205.032C19.848 205.032 18.648 205.284 17.52 205.788C16.392 206.292 15.396 207 14.532 207.912C13.668 208.824 12.984 209.892 12.48 211.116C12 212.316 11.76 213.612 11.76 215.004C11.76 216.42 11.976 217.74 12.408 218.964C12.864 220.164 13.5 221.208 14.316 222.096C15.156 222.984 16.164 223.68 17.34 224.184C18.516 224.688 19.836 224.94 21.3 224.94C22.62 224.94 23.796 224.736 24.828 224.328C25.86 223.92 26.712 223.464 27.384 222.96L28.86 226.056ZM33.9121 228V200.136H37.1881V216.552L37.1161 215.94C37.6201 214.956 38.3881 214.14 39.4201 213.492C40.4761 212.844 41.7121 212.52 43.1281 212.52C44.5441 212.52 45.6961 212.94 46.5841 213.78C47.4961 214.596 47.9641 215.664 47.9881 216.984V228H44.6041V218.172C44.5801 217.356 44.3401 216.696 43.8841 216.192C43.4521 215.664 42.7681 215.4 41.8321 215.4C40.9681 215.4 40.1881 215.652 39.4921 216.156C38.7961 216.636 38.2441 217.296 37.8361 218.136C37.4521 218.976 37.2601 219.936 37.2601 221.016V228H33.9121ZM52.5145 220.404C52.5145 218.916 52.8625 217.572 53.5585 216.372C54.2785 215.172 55.2625 214.224 56.5105 213.528C57.7585 212.832 59.1745 212.484 60.7585 212.484C62.3905 212.484 63.8185 212.832 65.0425 213.528C66.2665 214.224 67.2145 215.172 67.8865 216.372C68.5585 217.572 68.8945 218.916 68.8945 220.404C68.8945 221.892 68.5585 223.248 67.8865 224.472C67.2145 225.672 66.2545 226.62 65.0065 227.316C63.7825 228.012 62.3545 228.36 60.7225 228.36C59.1385 228.36 57.7225 228.036 56.4745 227.388C55.2505 226.716 54.2785 225.792 53.5585 224.616C52.8625 223.416 52.5145 222.012 52.5145 220.404ZM55.8625 220.44C55.8625 221.4 56.0785 222.276 56.5105 223.068C56.9425 223.836 57.5185 224.448 58.2385 224.904C58.9825 225.36 59.7985 225.588 60.6865 225.588C61.6225 225.588 62.4505 225.36 63.1705 224.904C63.9145 224.448 64.4905 223.836 64.8985 223.068C65.3065 222.276 65.5105 221.4 65.5105 220.44C65.5105 219.48 65.3065 218.616 64.8985 217.848C64.4905 217.056 63.9145 216.432 63.1705 215.976C62.4505 215.496 61.6225 215.256 60.6865 215.256C59.7745 215.256 58.9465 215.496 58.2025 215.976C57.4825 216.456 56.9065 217.092 56.4745 217.884C56.0665 218.652 55.8625 219.504 55.8625 220.44ZM72.1317 220.404C72.1317 218.916 72.4797 217.572 73.1757 216.372C73.8957 215.172 74.8797 214.224 76.1277 213.528C77.3757 212.832 78.7917 212.484 80.3757 212.484C82.0077 212.484 83.4357 212.832 84.6597 213.528C85.8837 214.224 86.8317 215.172 87.5037 216.372C88.1757 217.572 88.5117 218.916 88.5117 220.404C88.5117 221.892 88.1757 223.248 87.5037 224.472C86.8317 225.672 85.8717 226.62 84.6237 227.316C83.3997 228.012 81.9717 228.36 80.3397 228.36C78.7557 228.36 77.3397 228.036 76.0917 227.388C74.8677 226.716 73.8957 225.792 73.1757 224.616C72.4797 223.416 72.1317 222.012 72.1317 220.404ZM75.4797 220.44C75.4797 221.4 75.6957 222.276 76.1277 223.068C76.5597 223.836 77.1357 224.448 77.8557 224.904C78.5997 225.36 79.4157 225.588 80.3037 225.588C81.2397 225.588 82.0677 225.36 82.7877 224.904C83.5317 224.448 84.1077 223.836 84.5157 223.068C84.9237 222.276 85.1277 221.4 85.1277 220.44C85.1277 219.48 84.9237 218.616 84.5157 217.848C84.1077 217.056 83.5317 216.432 82.7877 215.976C82.0677 215.496 81.2397 215.256 80.3037 215.256C79.3917 215.256 78.5637 215.496 77.8197 215.976C77.0997 216.456 76.5237 217.092 76.0917 217.884C75.6837 218.652 75.4797 219.504 75.4797 220.44ZM97.2209 228.288C96.1649 228.288 95.1329 228.108 94.1249 227.748C93.1409 227.364 92.3249 226.8 91.6769 226.056L93.0809 224.112C93.7049 224.712 94.3409 225.168 94.9889 225.48C95.6609 225.768 96.3209 225.912 96.9689 225.912C97.4489 225.912 97.8929 225.852 98.3009 225.732C98.7089 225.612 99.0329 225.42 99.2729 225.156C99.5369 224.868 99.6689 224.484 99.6689 224.004C99.6689 223.476 99.4889 223.056 99.1289 222.744C98.7929 222.432 98.3489 222.18 97.7969 221.988C97.2689 221.796 96.7049 221.616 96.1049 221.448C94.8809 221.04 93.9449 220.476 93.2969 219.756C92.6489 219.036 92.3249 218.16 92.3249 217.128C92.3249 216.336 92.5169 215.604 92.9009 214.932C93.3089 214.236 93.8969 213.672 94.6649 213.24C95.4569 212.808 96.4289 212.592 97.5809 212.592C98.6129 212.592 99.5369 212.724 100.353 212.988C101.169 213.228 101.937 213.636 102.657 214.212L101.325 216.3C100.893 215.844 100.377 215.508 99.7769 215.292C99.1769 215.076 98.6369 214.956 98.1569 214.932C97.7489 214.908 97.3529 214.968 96.9689 215.112C96.6089 215.256 96.3089 215.46 96.0689 215.724C95.8289 215.988 95.7089 216.3 95.7089 216.66C95.7089 217.164 95.8769 217.572 96.2129 217.884C96.5489 218.196 96.9809 218.448 97.5089 218.64C98.0609 218.808 98.6009 218.988 99.1289 219.18C99.8729 219.396 100.533 219.684 101.109 220.044C101.685 220.404 102.141 220.848 102.477 221.376C102.837 221.904 103.017 222.564 103.017 223.356C103.017 224.244 102.801 225.072 102.369 225.84C101.961 226.584 101.325 227.184 100.461 227.64C99.6209 228.072 98.5409 228.288 97.2209 228.288ZM114.617 228.36C112.913 228.36 111.449 228.024 110.225 227.352C109.001 226.656 108.053 225.72 107.381 224.544C106.733 223.344 106.409 221.976 106.409 220.44C106.409 218.976 106.781 217.644 107.525 216.444C108.269 215.244 109.265 214.284 110.513 213.564C111.761 212.844 113.153 212.484 114.689 212.484C116.657 212.484 118.289 213.06 119.585 214.212C120.881 215.364 121.757 216.948 122.213 218.964L109.937 223.284L109.145 221.304L119.225 217.632L118.505 218.1C118.217 217.308 117.737 216.624 117.065 216.048C116.393 215.448 115.517 215.148 114.437 215.148C113.525 215.148 112.709 215.376 111.989 215.832C111.269 216.264 110.705 216.864 110.297 217.632C109.889 218.4 109.685 219.276 109.685 220.26C109.685 221.292 109.901 222.204 110.333 222.996C110.765 223.764 111.353 224.376 112.097 224.832C112.865 225.264 113.729 225.48 114.689 225.48C115.337 225.48 115.961 225.36 116.561 225.12C117.185 224.88 117.761 224.568 118.289 224.184L119.837 226.668C119.093 227.172 118.253 227.58 117.317 227.892C116.405 228.204 115.505 228.36 114.617 228.36ZM149.895 226.632C149.223 227.16 148.419 227.58 147.483 227.892C146.547 228.204 145.611 228.36 144.675 228.36C143.043 228.36 141.615 228.036 140.391 227.388C139.167 226.74 138.207 225.84 137.511 224.688C136.839 223.512 136.503 222.132 136.503 220.548C136.503 218.964 136.863 217.584 137.583 216.408C138.327 215.232 139.287 214.332 140.463 213.708C141.663 213.06 142.947 212.736 144.315 212.736C145.515 212.736 146.583 212.904 147.519 213.24C148.479 213.576 149.295 214.032 149.967 214.608L148.311 216.768C147.879 216.432 147.351 216.132 146.727 215.868C146.103 215.604 145.395 215.472 144.603 215.472C143.739 215.472 142.935 215.7 142.191 216.156C141.471 216.588 140.895 217.188 140.463 217.956C140.055 218.724 139.851 219.588 139.851 220.548C139.851 221.46 140.067 222.312 140.499 223.104C140.931 223.872 141.531 224.484 142.299 224.94C143.067 225.372 143.943 225.588 144.927 225.588C145.575 225.588 146.163 225.492 146.691 225.3C147.243 225.108 147.735 224.844 148.167 224.508L149.895 226.632ZM158.933 228.576C157.589 228.576 156.473 228.168 155.585 227.352C154.721 226.512 154.265 225.432 154.217 224.112V213.096H157.565V222.924C157.613 223.74 157.841 224.4 158.249 224.904C158.681 225.408 159.353 225.672 160.265 225.696C161.105 225.696 161.849 225.456 162.497 224.976C163.169 224.472 163.709 223.8 164.117 222.96C164.525 222.096 164.729 221.124 164.729 220.044V213.096H168.077V228H165.017L164.729 224.328L164.909 224.976C164.621 225.672 164.177 226.296 163.577 226.848C163.001 227.376 162.317 227.796 161.525 228.108C160.733 228.42 159.869 228.576 158.933 228.576ZM178.045 228.288C176.989 228.288 175.957 228.108 174.949 227.748C173.965 227.364 173.149 226.8 172.501 226.056L173.905 224.112C174.529 224.712 175.165 225.168 175.813 225.48C176.485 225.768 177.145 225.912 177.793 225.912C178.273 225.912 178.717 225.852 179.125 225.732C179.533 225.612 179.857 225.42 180.097 225.156C180.361 224.868 180.493 224.484 180.493 224.004C180.493 223.476 180.313 223.056 179.953 222.744C179.617 222.432 179.173 222.18 178.621 221.988C178.093 221.796 177.529 221.616 176.929 221.448C175.705 221.04 174.769 220.476 174.121 219.756C173.473 219.036 173.149 218.16 173.149 217.128C173.149 216.336 173.341 215.604 173.725 214.932C174.133 214.236 174.721 213.672 175.489 213.24C176.281 212.808 177.253 212.592 178.405 212.592C179.437 212.592 180.361 212.724 181.177 212.988C181.993 213.228 182.761 213.636 183.481 214.212L182.149 216.3C181.717 215.844 181.201 215.508 180.601 215.292C180.001 215.076 179.461 214.956 178.981 214.932C178.573 214.908 178.177 214.968 177.793 215.112C177.433 215.256 177.133 215.46 176.893 215.724C176.653 215.988 176.533 216.3 176.533 216.66C176.533 217.164 176.701 217.572 177.037 217.884C177.373 218.196 177.805 218.448 178.333 218.64C178.885 218.808 179.425 218.988 179.953 219.18C180.697 219.396 181.357 219.684 181.933 220.044C182.509 220.404 182.965 220.848 183.301 221.376C183.661 221.904 183.841 222.564 183.841 223.356C183.841 224.244 183.625 225.072 183.193 225.84C182.785 226.584 182.149 227.184 181.285 227.64C180.445 228.072 179.365 228.288 178.045 228.288ZM189.969 206.544H193.317V213.168H197.421V215.796H193.317V228H189.969V215.796H187.233V213.168H189.969V206.544ZM200.171 220.404C200.171 218.916 200.519 217.572 201.215 216.372C201.935 215.172 202.919 214.224 204.167 213.528C205.415 212.832 206.831 212.484 208.415 212.484C210.047 212.484 211.475 212.832 212.699 213.528C213.923 214.224 214.871 215.172 215.543 216.372C216.215 217.572 216.551 218.916 216.551 220.404C216.551 221.892 216.215 223.248 215.543 224.472C214.871 225.672 213.911 226.62 212.663 227.316C211.439 228.012 210.011 228.36 208.379 228.36C206.795 228.36 205.379 228.036 204.131 227.388C202.907 226.716 201.935 225.792 201.215 224.616C200.519 223.416 200.171 222.012 200.171 220.404ZM203.519 220.44C203.519 221.4 203.735 222.276 204.167 223.068C204.599 223.836 205.175 224.448 205.895 224.904C206.639 225.36 207.455 225.588 208.343 225.588C209.279 225.588 210.107 225.36 210.827 224.904C211.571 224.448 212.147 223.836 212.555 223.068C212.963 222.276 213.167 221.4 213.167 220.44C213.167 219.48 212.963 218.616 212.555 217.848C212.147 217.056 211.571 216.432 210.827 215.976C210.107 215.496 209.279 215.256 208.343 215.256C207.431 215.256 206.603 215.496 205.859 215.976C205.139 216.456 204.563 217.092 204.131 217.884C203.723 218.652 203.519 219.504 203.519 220.44ZM224.072 213.096L224.36 216.444L224.216 216.156C224.768 215.028 225.548 214.14 226.556 213.492C227.588 212.844 228.764 212.52 230.084 212.52C230.924 212.52 231.668 212.652 232.316 212.916C232.964 213.18 233.492 213.564 233.9 214.068C234.332 214.548 234.608 215.148 234.728 215.868L234.548 215.976C235.124 214.896 235.916 214.056 236.924 213.456C237.956 212.832 239.036 212.52 240.164 212.52C241.628 212.52 242.78 212.94 243.62 213.78C244.484 214.596 244.928 215.664 244.952 216.984V228H241.604V218.172C241.58 217.404 241.388 216.768 241.028 216.264C240.692 215.736 240.092 215.448 239.228 215.4C238.364 215.4 237.584 215.664 236.888 216.192C236.216 216.72 235.688 217.404 235.304 218.244C234.92 219.06 234.716 219.948 234.692 220.908V228H231.344V218.172C231.32 217.404 231.116 216.768 230.732 216.264C230.372 215.736 229.76 215.448 228.896 215.4C228.008 215.4 227.228 215.664 226.556 216.192C225.884 216.72 225.356 217.404 224.972 218.244C224.612 219.084 224.432 219.984 224.432 220.944V228H221.084V213.096H224.072ZM274.278 226.632C273.606 227.16 272.802 227.58 271.866 227.892C270.93 228.204 269.994 228.36 269.058 228.36C267.426 228.36 265.998 228.036 264.774 227.388C263.55 226.74 262.59 225.84 261.894 224.688C261.222 223.512 260.886 222.132 260.886 220.548C260.886 218.964 261.246 217.584 261.966 216.408C262.71 215.232 263.67 214.332 264.846 213.708C266.046 213.06 267.33 212.736 268.698 212.736C269.898 212.736 270.966 212.904 271.902 213.24C272.862 213.576 273.678 214.032 274.35 214.608L272.694 216.768C272.262 216.432 271.734 216.132 271.11 215.868C270.486 215.604 269.778 215.472 268.986 215.472C268.122 215.472 267.318 215.7 266.574 216.156C265.854 216.588 265.278 217.188 264.846 217.956C264.438 218.724 264.234 219.588 264.234 220.548C264.234 221.46 264.45 222.312 264.882 223.104C265.314 223.872 265.914 224.484 266.682 224.94C267.45 225.372 268.326 225.588 269.31 225.588C269.958 225.588 270.546 225.492 271.074 225.3C271.626 225.108 272.118 224.844 272.55 224.508L274.278 226.632ZM277.304 220.404C277.304 218.916 277.652 217.572 278.348 216.372C279.068 215.172 280.052 214.224 281.3 213.528C282.548 212.832 283.964 212.484 285.548 212.484C287.18 212.484 288.608 212.832 289.832 213.528C291.056 214.224 292.004 215.172 292.676 216.372C293.348 217.572 293.684 218.916 293.684 220.404C293.684 221.892 293.348 223.248 292.676 224.472C292.004 225.672 291.044 226.62 289.796 227.316C288.572 228.012 287.144 228.36 285.512 228.36C283.928 228.36 282.512 228.036 281.264 227.388C280.04 226.716 279.068 225.792 278.348 224.616C277.652 223.416 277.304 222.012 277.304 220.404ZM280.652 220.44C280.652 221.4 280.868 222.276 281.3 223.068C281.732 223.836 282.308 224.448 283.028 224.904C283.772 225.36 284.588 225.588 285.476 225.588C286.412 225.588 287.24 225.36 287.96 224.904C288.704 224.448 289.28 223.836 289.688 223.068C290.096 222.276 290.3 221.4 290.3 220.44C290.3 219.48 290.096 218.616 289.688 217.848C289.28 217.056 288.704 216.432 287.96 215.976C287.24 215.496 286.412 215.256 285.476 215.256C284.564 215.256 283.736 215.496 282.992 215.976C282.272 216.456 281.696 217.092 281.264 217.884C280.856 218.652 280.652 219.504 280.652 220.44ZM298.217 200.136H301.565V228H298.217V200.136ZM306.061 220.404C306.061 218.916 306.409 217.572 307.105 216.372C307.825 215.172 308.809 214.224 310.057 213.528C311.305 212.832 312.721 212.484 314.305 212.484C315.937 212.484 317.365 212.832 318.589 213.528C319.813 214.224 320.761 215.172 321.433 216.372C322.105 217.572 322.441 218.916 322.441 220.404C322.441 221.892 322.105 223.248 321.433 224.472C320.761 225.672 319.801 226.62 318.553 227.316C317.329 228.012 315.901 228.36 314.269 228.36C312.685 228.36 311.269 228.036 310.021 227.388C308.797 226.716 307.825 225.792 307.105 224.616C306.409 223.416 306.061 222.012 306.061 220.404ZM309.409 220.44C309.409 221.4 309.625 222.276 310.057 223.068C310.489 223.836 311.065 224.448 311.785 224.904C312.529 225.36 313.345 225.588 314.233 225.588C315.169 225.588 315.997 225.36 316.717 224.904C317.461 224.448 318.037 223.836 318.445 223.068C318.853 222.276 319.057 221.4 319.057 220.44C319.057 219.48 318.853 218.616 318.445 217.848C318.037 217.056 317.461 216.432 316.717 215.976C315.997 215.496 315.169 215.256 314.233 215.256C313.321 215.256 312.493 215.496 311.749 215.976C311.029 216.456 310.453 217.092 310.021 217.884C309.613 218.652 309.409 219.504 309.409 220.44ZM331.691 228.576C330.347 228.576 329.231 228.168 328.343 227.352C327.479 226.512 327.023 225.432 326.975 224.112V213.096H330.323V222.924C330.371 223.74 330.599 224.4 331.007 224.904C331.439 225.408 332.111 225.672 333.023 225.696C333.863 225.696 334.607 225.456 335.255 224.976C335.927 224.472 336.467 223.8 336.875 222.96C337.283 222.096 337.487 221.124 337.487 220.044V213.096H340.835V228H337.775L337.487 224.328L337.667 224.976C337.379 225.672 336.935 226.296 336.335 226.848C335.759 227.376 335.075 227.796 334.283 228.108C333.491 228.42 332.627 228.576 331.691 228.576ZM349.615 213.096L349.939 217.416L349.759 216.84C350.143 215.928 350.695 215.16 351.415 214.536C352.159 213.888 352.927 213.396 353.719 213.06C354.535 212.7 355.243 212.52 355.843 212.52L355.663 215.832C354.535 215.76 353.539 215.976 352.675 216.48C351.835 216.984 351.163 217.656 350.659 218.496C350.179 219.336 349.939 220.236 349.939 221.196V228H346.627V213.096H349.615Z" fill="#2E2E2E"/>
<path d="M6.216 270.376C6.104 271.16 6 271.936 5.904 272.704C5.824 273.472 5.728 274.248 5.616 275.032H8.088C8.168 274.248 8.256 273.472 8.352 272.704C8.464 271.936 8.56 271.16 8.64 270.376H10.68C10.584 271.16 10.488 271.936 10.392 272.704C10.296 273.472 10.2 274.248 10.104 275.032H12.576C12.544 275.352 12.512 275.672 12.48 275.992C12.464 276.312 12.432 276.64 12.384 276.976H9.888C9.84 277.376 9.792 277.792 9.744 278.224C9.696 278.64 9.648 279.056 9.6 279.472H12.072C12.024 279.792 11.976 280.12 11.928 280.456C11.896 280.776 11.864 281.104 11.832 281.44H9.336C9.256 282.192 9.168 282.952 9.072 283.72C8.992 284.472 8.904 285.232 8.808 286H6.792C6.872 285.232 6.96 284.472 7.056 283.72C7.152 282.952 7.24 282.192 7.32 281.44H4.872C4.792 282.192 4.704 282.952 4.608 283.72C4.512 284.472 4.424 285.232 4.344 286H2.304C2.4 285.232 2.488 284.472 2.568 283.72C2.664 282.952 2.752 282.192 2.832 281.44H0.6C0.648 281.104 0.688 280.776 0.72 280.456C0.768 280.12 0.808 279.792 0.84 279.472H3.096C3.144 279.056 3.192 278.64 3.24 278.224C3.288 277.792 3.336 277.376 3.384 276.976H1.152C1.2 276.64 1.232 276.312 1.248 275.992C1.28 275.672 1.32 275.352 1.368 275.032H3.6C3.696 274.248 3.792 273.472 3.888 272.704C3.984 271.936 4.08 271.16 4.176 270.376H6.216ZM5.4 276.976C5.368 277.376 5.32 277.792 5.256 278.224C5.208 278.64 5.16 279.056 5.112 279.472H7.56C7.624 279.056 7.672 278.64 7.704 278.224C7.752 277.792 7.8 277.376 7.848 276.976H5.4ZM21.363 286.072C20.387 286.072 19.491 285.888 18.675 285.52C17.859 285.152 17.155 284.624 16.563 283.936C15.987 283.232 15.539 282.384 15.219 281.392C14.899 280.4 14.739 279.288 14.739 278.056C14.739 276.712 14.891 275.544 15.195 274.552C15.499 273.544 15.939 272.704 16.515 272.032C17.107 271.36 17.811 270.864 18.627 270.544C19.443 270.208 20.355 270.04 21.363 270.04C22.339 270.04 23.227 270.224 24.027 270.592C24.843 270.96 25.539 271.496 26.115 272.2C26.707 272.888 27.163 273.728 27.483 274.72C27.819 275.696 27.987 276.808 27.987 278.056C27.987 279.32 27.819 280.448 27.483 281.44C27.163 282.432 26.707 283.272 26.115 283.96C25.539 284.648 24.843 285.176 24.027 285.544C23.227 285.896 22.339 286.072 21.363 286.072ZM21.339 283.84C22.267 283.84 23.043 283.6 23.667 283.12C24.307 282.624 24.787 281.936 25.107 281.056C25.427 280.176 25.587 279.16 25.587 278.008C25.587 276.856 25.427 275.856 25.107 275.008C24.787 274.144 24.307 273.472 23.667 272.992C23.043 272.512 22.267 272.272 21.339 272.272C20.411 272.272 19.635 272.52 19.011 273.016C18.387 273.496 17.915 274.168 17.595 275.032C17.291 275.896 17.139 276.904 17.139 278.056C17.139 279.192 17.291 280.2 17.595 281.08C17.915 281.944 18.387 282.624 19.011 283.12C19.635 283.6 20.411 283.84 21.339 283.84ZM36.3161 286.072C35.3401 286.072 34.4441 285.888 33.6281 285.52C32.8121 285.152 32.1081 284.624 31.5161 283.936C30.9401 283.232 30.4921 282.384 30.1721 281.392C29.8521 280.4 29.6921 279.288 29.6921 278.056C29.6921 276.712 29.8441 275.544 30.1481 274.552C30.4521 273.544 30.8921 272.704 31.4681 272.032C32.0601 271.36 32.7641 270.864 33.5801 270.544C34.3961 270.208 35.3081 270.04 36.3161 270.04C37.2921 270.04 38.1801 270.224 38.9801 270.592C39.7961 270.96 40.4921 271.496 41.0681 272.2C41.6601 272.888 42.1161 273.728 42.4361 274.72C42.7721 275.696 42.9401 276.808 42.9401 278.056C42.9401 279.32 42.7721 280.448 42.4361 281.44C42.1161 282.432 41.6601 283.272 41.0681 283.96C40.4921 284.648 39.7961 285.176 38.9801 285.544C38.1801 285.896 37.2921 286.072 36.3161 286.072ZM36.2921 283.84C37.2201 283.84 37.9961 283.6 38.6201 283.12C39.2601 282.624 39.7401 281.936 40.0601 281.056C40.3801 280.176 40.5401 279.16 40.5401 278.008C40.5401 276.856 40.3801 275.856 40.0601 275.008C39.7401 274.144 39.2601 273.472 38.6201 272.992C37.9961 272.512 37.2201 272.272 36.2921 272.272C35.3641 272.272 34.5881 272.52 33.9641 273.016C33.3401 273.496 32.8681 274.168 32.5481 275.032C32.2441 275.896 32.0921 276.904 32.0921 278.056C32.0921 279.192 32.2441 280.2 32.5481 281.08C32.8681 281.944 33.3401 282.624 33.9641 283.12C34.5881 283.6 35.3641 283.84 36.2921 283.84ZM51.2693 286.072C50.2933 286.072 49.3973 285.888 48.5813 285.52C47.7653 285.152 47.0613 284.624 46.4693 283.936C45.8933 283.232 45.4453 282.384 45.1253 281.392C44.8053 280.4 44.6453 279.288 44.6453 278.056C44.6453 276.712 44.7973 275.544 45.1013 274.552C45.4053 273.544 45.8453 272.704 46.4213 272.032C47.0133 271.36 47.7173 270.864 48.5333 270.544C49.3493 270.208 50.2613 270.04 51.2693 270.04C52.2453 270.04 53.1333 270.224 53.9333 270.592C54.7493 270.96 55.4453 271.496 56.0213 272.2C56.6133 272.888 57.0693 273.728 57.3893 274.72C57.7253 275.696 57.8932 276.808 57.8932 278.056C57.8932 279.32 57.7253 280.448 57.3893 281.44C57.0693 282.432 56.6133 283.272 56.0213 283.96C55.4453 284.648 54.7493 285.176 53.9333 285.544C53.1333 285.896 52.2453 286.072 51.2693 286.072ZM51.2453 283.84C52.1733 283.84 52.9493 283.6 53.5733 283.12C54.2133 282.624 54.6933 281.936 55.0133 281.056C55.3333 280.176 55.4933 279.16 55.4933 278.008C55.4933 276.856 55.3333 275.856 55.0133 275.008C54.6933 274.144 54.2133 273.472 53.5733 272.992C52.9493 272.512 52.1733 272.272 51.2453 272.272C50.3173 272.272 49.5413 272.52 48.9173 273.016C48.2933 273.496 47.8213 274.168 47.5013 275.032C47.1973 275.896 47.0453 276.904 47.0453 278.056C47.0453 279.192 47.1973 280.2 47.5013 281.08C47.8213 281.944 48.2933 282.624 48.9173 283.12C49.5413 283.6 50.3173 283.84 51.2453 283.84ZM66.2224 286.072C65.2464 286.072 64.3504 285.888 63.5344 285.52C62.7184 285.152 62.0144 284.624 61.4224 283.936C60.8464 283.232 60.3984 282.384 60.0784 281.392C59.7584 280.4 59.5984 279.288 59.5984 278.056C59.5984 276.712 59.7504 275.544 60.0544 274.552C60.3584 273.544 60.7984 272.704 61.3744 272.032C61.9664 271.36 62.6704 270.864 63.4864 270.544C64.3024 270.208 65.2144 270.04 66.2224 270.04C67.1984 270.04 68.0864 270.224 68.8864 270.592C69.7024 270.96 70.3984 271.496 70.9744 272.2C71.5664 272.888 72.0224 273.728 72.3424 274.72C72.6784 275.696 72.8464 276.808 72.8464 278.056C72.8464 279.32 72.6784 280.448 72.3424 281.44C72.0224 282.432 71.5664 283.272 70.9744 283.96C70.3984 284.648 69.7024 285.176 68.8864 285.544C68.0864 285.896 67.1984 286.072 66.2224 286.072ZM66.1984 283.84C67.1264 283.84 67.9024 283.6 68.5264 283.12C69.1664 282.624 69.6464 281.936 69.9664 281.056C70.2864 280.176 70.4464 279.16 70.4464 278.008C70.4464 276.856 70.2864 275.856 69.9664 275.008C69.6464 274.144 69.1664 273.472 68.5264 272.992C67.9024 272.512 67.1264 272.272 66.1984 272.272C65.2704 272.272 64.4944 272.52 63.8704 273.016C63.2464 273.496 62.7744 274.168 62.4544 275.032C62.1504 275.896 61.9984 276.904 61.9984 278.056C61.9984 279.192 62.1504 280.2 62.4544 281.08C62.7744 281.944 63.2464 282.624 63.8704 283.12C64.4944 283.6 65.2704 283.84 66.1984 283.84ZM81.1755 286.072C80.1995 286.072 79.3035 285.888 78.4875 285.52C77.6715 285.152 76.9675 284.624 76.3755 283.936C75.7995 283.232 75.3515 282.384 75.0315 281.392C74.7115 280.4 74.5515 279.288 74.5515 278.056C74.5515 276.712 74.7035 275.544 75.0075 274.552C75.3115 273.544 75.7515 272.704 76.3275 272.032C76.9195 271.36 77.6235 270.864 78.4395 270.544C79.2555 270.208 80.1675 270.04 81.1755 270.04C82.1515 270.04 83.0395 270.224 83.8395 270.592C84.6555 270.96 85.3515 271.496 85.9275 272.2C86.5195 272.888 86.9755 273.728 87.2955 274.72C87.6315 275.696 87.7995 276.808 87.7995 278.056C87.7995 279.32 87.6315 280.448 87.2955 281.44C86.9755 282.432 86.5195 283.272 85.9275 283.96C85.3515 284.648 84.6555 285.176 83.8395 285.544C83.0395 285.896 82.1515 286.072 81.1755 286.072ZM81.1515 283.84C82.0795 283.84 82.8555 283.6 83.4795 283.12C84.1195 282.624 84.5995 281.936 84.9195 281.056C85.2395 280.176 85.3995 279.16 85.3995 278.008C85.3995 276.856 85.2395 275.856 84.9195 275.008C84.5995 274.144 84.1195 273.472 83.4795 272.992C82.8555 272.512 82.0795 272.272 81.1515 272.272C80.2235 272.272 79.4475 272.52 78.8235 273.016C78.1995 273.496 77.7275 274.168 77.4075 275.032C77.1035 275.896 76.9515 276.904 76.9515 278.056C76.9515 279.192 77.1035 280.2 77.4075 281.08C77.7275 281.944 78.1995 282.624 78.8235 283.12C79.4475 283.6 80.2235 283.84 81.1515 283.84ZM96.1286 286.072C95.1526 286.072 94.2566 285.888 93.4406 285.52C92.6246 285.152 91.9206 284.624 91.3286 283.936C90.7526 283.232 90.3046 282.384 89.9846 281.392C89.6646 280.4 89.5046 279.288 89.5046 278.056C89.5046 276.712 89.6566 275.544 89.9606 274.552C90.2646 273.544 90.7046 272.704 91.2806 272.032C91.8726 271.36 92.5766 270.864 93.3926 270.544C94.2086 270.208 95.1206 270.04 96.1286 270.04C97.1046 270.04 97.9926 270.224 98.7926 270.592C99.6086 270.96 100.305 271.496 100.881 272.2C101.473 272.888 101.929 273.728 102.249 274.72C102.585 275.696 102.753 276.808 102.753 278.056C102.753 279.32 102.585 280.448 102.249 281.44C101.929 282.432 101.473 283.272 100.881 283.96C100.305 284.648 99.6086 285.176 98.7926 285.544C97.9926 285.896 97.1046 286.072 96.1286 286.072ZM96.1046 283.84C97.0326 283.84 97.8086 283.6 98.4326 283.12C99.0726 282.624 99.5526 281.936 99.8726 281.056C100.193 280.176 100.353 279.16 100.353 278.008C100.353 276.856 100.193 275.856 99.8726 275.008C99.5526 274.144 99.0726 273.472 98.4326 272.992C97.8086 272.512 97.0326 272.272 96.1046 272.272C95.1766 272.272 94.4006 272.52 93.7766 273.016C93.1526 273.496 92.6806 274.168 92.3606 275.032C92.0566 275.896 91.9046 276.904 91.9046 278.056C91.9046 279.192 92.0566 280.2 92.3606 281.08C92.6806 281.944 93.1526 282.624 93.7766 283.12C94.4006 283.6 95.1766 283.84 96.1046 283.84Z" fill="#2E2E2E"/>
<rect x="211" y="262" width="153" height="24" rx="4" fill="#0A0909"/>
<rect x="211.5" y="262.5" width="152" height="23" rx="3.5" stroke="black" stroke-opacity="0.5"/>
</svg>
