<svg width="723" height="539" viewBox="0 0 723 539" fill="none" xmlns="http://www.w3.org/2000/svg">
<path d="M723 473.42H0V473.782H723V473.42Z" fill="#EBEBEB"/>
<path d="M650.556 496.687H602.664V497.048H650.556V496.687Z" fill="#EBEBEB"/>
<path d="M478.941 500.62H466.375V500.981H478.941V500.62Z" fill="#EBEBEB"/>
<path d="M601.217 483.268H573.469V483.629H601.217V483.268Z" fill="#EBEBEB"/>
<path d="M138.312 485.697H75.8594V486.058H138.312V485.697Z" fill="#EBEBEB"/>
<path d="M160.348 485.697H151.195V486.058H160.348V485.697Z" fill="#EBEBEB"/>
<path d="M325.571 491.799H190.109V492.16H325.571V491.799Z" fill="#EBEBEB"/>
<path d="M342.7 408.929H63.4922C61.3049 408.925 59.2085 408.053 57.6632 406.505C56.1179 404.957 55.25 402.859 55.25 400.672V8.18436C55.269 6.00961 56.1454 3.9302 57.6886 2.39778C59.2318 0.865371 61.3174 0.00372546 63.4922 0H342.7C344.89 0 346.99 0.869896 348.539 2.41832C350.087 3.96674 350.957 6.06686 350.957 8.25666V400.672C350.957 402.862 350.087 404.962 348.539 406.51C346.99 408.059 344.89 408.929 342.7 408.929ZM63.4922 0.289201C61.4008 0.293032 59.3963 1.12653 57.9188 2.60674C56.4413 4.08696 55.6115 6.09294 55.6115 8.18436V400.672C55.6115 402.764 56.4413 404.77 57.9188 406.25C59.3963 407.73 61.4008 408.563 63.4922 408.567H342.7C344.793 408.563 346.799 407.73 348.279 406.251C349.759 404.771 350.592 402.765 350.596 400.672V8.18436C350.592 6.09161 349.759 4.08566 348.279 2.60586C346.799 1.12606 344.793 0.293023 342.7 0.289201H63.4922Z" fill="#EBEBEB"/>
<path d="M655.487 408.929H376.264C374.076 408.925 371.978 408.054 370.43 406.506C368.883 404.959 368.012 402.861 368.008 400.672V8.18436C368.031 6.00829 368.91 3.92889 370.456 2.39688C372.001 0.864865 374.088 0.00368483 376.264 0H655.487C657.659 0.0075257 659.741 0.870852 661.281 2.40286C662.821 3.93486 663.696 6.01211 663.715 8.18436V400.672C663.715 402.857 662.849 404.953 661.307 406.5C659.765 408.048 657.672 408.921 655.487 408.929ZM376.264 0.289201C374.172 0.293023 372.166 1.12606 370.686 2.60586C369.206 4.08566 368.373 6.09161 368.369 8.18436V400.672C368.373 402.765 369.206 404.771 370.686 406.251C372.166 407.73 374.172 408.563 376.264 408.567H655.487C657.58 408.563 659.586 407.73 661.066 406.251C662.545 404.771 663.378 402.765 663.382 400.672V8.18436C663.378 6.09161 662.545 4.08566 661.066 2.60586C659.586 1.12606 657.58 0.293023 655.487 0.289201H376.264Z" fill="#EBEBEB"/>
<path d="M264.619 53.6177H127.727V362.006H264.619V53.6177Z" fill="#F5F5F5"/>
<path d="M259.453 356.222V59.4019L132.885 59.4019V356.222H259.453Z" fill="#FAFAFA"/>
<path d="M197.625 57.9121H194.719V359.114H197.625V57.9121Z" fill="#F5F5F5"/>
<path d="M267.767 49.5977H124.555V64.1155H267.767V49.5977Z" fill="#F5F5F5"/>
<path d="M267.767 65.7207H124.555V67.4414H267.767V65.7207Z" fill="#F5F5F5"/>
<path d="M267.767 69.625H124.555V71.3457H267.767V69.625Z" fill="#F5F5F5"/>
<path d="M267.767 73.5293H124.555V75.25H267.767V73.5293Z" fill="#F5F5F5"/>
<path d="M267.767 77.4331H124.555V79.1538H267.767V77.4331Z" fill="#F5F5F5"/>
<path d="M267.767 81.3374H124.555V83.0581H267.767V81.3374Z" fill="#F5F5F5"/>
<path d="M267.767 85.2417H124.555V86.9624H267.767V85.2417Z" fill="#F5F5F5"/>
<path d="M267.767 89.146H124.555V90.8667H267.767V89.146Z" fill="#F5F5F5"/>
<path d="M267.767 93.0503H124.555V94.771H267.767V93.0503Z" fill="#F5F5F5"/>
<path d="M267.767 96.9541H124.555V98.6748H267.767V96.9541Z" fill="#F5F5F5"/>
<path d="M267.767 100.858H124.555V102.579H267.767V100.858Z" fill="#F5F5F5"/>
<path d="M267.767 104.763H124.555V106.483H267.767V104.763Z" fill="#F5F5F5"/>
<path d="M267.767 108.667H124.555V110.388H267.767V108.667Z" fill="#F5F5F5"/>
<path d="M267.767 112.571H124.555V114.292H267.767V112.571Z" fill="#F5F5F5"/>
<path d="M267.767 116.475H124.555V118.196H267.767V116.475Z" fill="#F5F5F5"/>
<path d="M267.767 120.379H124.555V122.1H267.767V120.379Z" fill="#F5F5F5"/>
<path d="M267.767 124.284H124.555V126.004H267.767V124.284Z" fill="#F5F5F5"/>
<path d="M267.767 128.188H124.555V129.909H267.767V128.188Z" fill="#F5F5F5"/>
<path d="M267.767 132.092H124.555V133.813H267.767V132.092Z" fill="#F5F5F5"/>
<path d="M426.697 53.6177H289.805V362.006H426.697V53.6177Z" fill="#F5F5F5"/>
<path d="M421.539 356.208V59.3872L294.971 59.3872V356.208H421.539Z" fill="#FAFAFA"/>
<path d="M359.703 57.9121H356.797V359.114H359.703V57.9121Z" fill="#F5F5F5"/>
<path d="M429.852 49.5977H286.641V64.1155H429.852V49.5977Z" fill="#F5F5F5"/>
<path d="M429.852 65.7207H286.641V67.4414H429.852V65.7207Z" fill="#F5F5F5"/>
<path d="M429.852 69.625H286.641V71.3457H429.852V69.625Z" fill="#F5F5F5"/>
<path d="M429.852 73.5293H286.641V75.25H429.852V73.5293Z" fill="#F5F5F5"/>
<path d="M429.852 77.4331H286.641V79.1538H429.852V77.4331Z" fill="#F5F5F5"/>
<path d="M429.852 81.3374H286.641V83.0581H429.852V81.3374Z" fill="#F5F5F5"/>
<path d="M429.852 85.2417H286.641V86.9624H429.852V85.2417Z" fill="#F5F5F5"/>
<path d="M429.852 89.146H286.641V90.8667H429.852V89.146Z" fill="#F5F5F5"/>
<path d="M429.852 93.0503H286.641V94.771H429.852V93.0503Z" fill="#F5F5F5"/>
<path d="M429.852 96.9541H286.641V98.6748H429.852V96.9541Z" fill="#F5F5F5"/>
<path d="M429.852 100.858H286.641V102.579H429.852V100.858Z" fill="#F5F5F5"/>
<path d="M429.852 104.763H286.641V106.483H429.852V104.763Z" fill="#F5F5F5"/>
<path d="M429.852 108.667H286.641V110.388H429.852V108.667Z" fill="#F5F5F5"/>
<path d="M429.852 112.571H286.641V114.292H429.852V112.571Z" fill="#F5F5F5"/>
<path d="M429.852 116.475H286.641V118.196H429.852V116.475Z" fill="#F5F5F5"/>
<path d="M429.852 120.379H286.641V122.1H429.852V120.379Z" fill="#F5F5F5"/>
<path d="M429.852 124.284H286.641V126.004H429.852V124.284Z" fill="#F5F5F5"/>
<path d="M429.852 128.188H286.641V129.909H429.852V128.188Z" fill="#F5F5F5"/>
<path d="M429.852 132.092H286.641V133.813H429.852V132.092Z" fill="#F5F5F5"/>
<path d="M588.768 53.6177H451.875V362.006H588.768V53.6177Z" fill="#F5F5F5"/>
<path d="M583.609 356.222V59.4019L457.041 59.4019V356.222H583.609Z" fill="#FAFAFA"/>
<path d="M521.774 57.9121H518.867V359.114H521.774V57.9121Z" fill="#F5F5F5"/>
<path d="M591.938 49.5977H448.727V64.1155H591.938V49.5977Z" fill="#F5F5F5"/>
<path d="M591.938 65.7207H448.727V67.4414H591.938V65.7207Z" fill="#F5F5F5"/>
<path d="M591.938 69.625H448.727V71.3457H591.938V69.625Z" fill="#F5F5F5"/>
<path d="M591.938 73.5293H448.727V75.25H591.938V73.5293Z" fill="#F5F5F5"/>
<path d="M591.938 77.4331H448.727V79.1538H591.938V77.4331Z" fill="#F5F5F5"/>
<path d="M591.938 81.3374H448.727V83.0581H591.938V81.3374Z" fill="#F5F5F5"/>
<path d="M591.938 85.2417H448.727V86.9624H591.938V85.2417Z" fill="#F5F5F5"/>
<path d="M591.938 89.146H448.727V90.8667H591.938V89.146Z" fill="#F5F5F5"/>
<path d="M591.938 93.0503H448.727V94.771H591.938V93.0503Z" fill="#F5F5F5"/>
<path d="M591.938 96.9541H448.727V98.6748H591.938V96.9541Z" fill="#F5F5F5"/>
<path d="M591.938 100.858H448.727V102.579H591.938V100.858Z" fill="#F5F5F5"/>
<path d="M591.938 104.763H448.727V106.483H591.938V104.763Z" fill="#F5F5F5"/>
<path d="M591.938 108.667H448.727V110.388H591.938V108.667Z" fill="#F5F5F5"/>
<path d="M591.938 112.571H448.727V114.292H591.938V112.571Z" fill="#F5F5F5"/>
<path d="M591.938 116.475H448.727V118.196H591.938V116.475Z" fill="#F5F5F5"/>
<path d="M591.938 120.379H448.727V122.1H591.938V120.379Z" fill="#F5F5F5"/>
<path d="M591.938 124.284H448.727V126.004H591.938V124.284Z" fill="#F5F5F5"/>
<path d="M591.938 128.188H448.727V129.909H591.938V128.188Z" fill="#F5F5F5"/>
<path d="M591.938 132.092H448.727V133.813H591.938V132.092Z" fill="#F5F5F5"/>
<path d="M479.852 328.994H653.588C653.588 332.064 652.402 335.014 650.28 337.231C648.157 339.448 645.26 340.761 642.194 340.895C623.526 341.733 594.809 344.698 585.699 355.022C568.723 374.283 570.357 441.927 590.702 457.587C597.079 462.503 615.66 472.249 615.66 472.249H517.766C517.766 472.249 535.118 462.301 541.176 457.587C561.42 441.797 561.984 374.196 544.922 355.022C536.173 345.189 509.249 342.008 491.188 341.01C488.121 340.837 485.236 339.494 483.127 337.259C481.019 335.024 479.847 332.067 479.852 328.994Z" fill="#F5F5F5"/>
<path d="M632.061 341.531C614.405 342.977 593.265 346.433 585.688 355.022C583.21 357.987 581.255 361.351 579.904 364.97H550.767C549.408 361.354 547.453 357.992 544.983 355.022C537.377 346.476 516.063 342.962 498.711 341.531H632.061Z" fill="#E6E6E6"/>
<path d="M553.851 329.081L556.222 302.069H521.981L519.609 329.081H553.851Z" fill="#EBEBEB"/>
<path d="M553.844 329.081L556.215 302.069H558.052L555.695 329.081H553.844Z" fill="#E0E0E0"/>
<path d="M550.607 326.333L552.487 304.831H525.216L523.336 326.333H550.607Z" fill="#F0F0F0"/>
<path d="M548.509 324.555L550.085 306.595H527.311L525.734 324.555H548.509Z" fill="#FAFAFA"/>
<path d="M564.966 328.994H599.366L595.549 285.368H561.148L564.966 328.994Z" fill="#E6E6E6"/>
<path d="M564.966 328.994H563.317L559.5 285.368H561.148L564.966 328.994Z" fill="#E0E0E0"/>
<path d="M568.076 324.54H595.463L592.426 289.822H565.039L568.076 324.54Z" fill="#F0F0F0"/>
<path d="M570.084 321.692H592.96L590.415 292.67H567.539L570.084 321.692Z" fill="#FAFAFA"/>
<path d="M581.64 305.728C581.272 306.099 580.834 306.394 580.351 306.595C579.868 306.796 579.351 306.899 578.828 306.899C578.305 306.899 577.787 306.796 577.304 306.595C576.822 306.394 576.383 306.099 576.015 305.728C575.644 305.36 575.349 304.922 575.148 304.439C574.947 303.956 574.844 303.438 574.844 302.915C574.844 302.393 574.947 301.875 575.148 301.392C575.349 300.909 575.644 300.471 576.015 300.103C576.383 299.732 576.822 299.437 577.304 299.236C577.787 299.035 578.305 298.932 578.828 298.932C579.351 298.932 579.868 299.035 580.351 299.236C580.834 299.437 581.272 299.732 581.64 300.103C582.383 300.851 582.799 301.862 582.799 302.915C582.799 303.969 582.383 304.98 581.64 305.728Z" fill="#EBEBEB"/>
<path d="M579.948 310.601C580.217 310.327 580.538 310.11 580.892 309.962C581.246 309.814 581.625 309.738 582.009 309.738C582.392 309.738 582.772 309.814 583.126 309.962C583.479 310.11 583.8 310.327 584.069 310.601C584.487 311.003 584.775 311.523 584.893 312.091C585.012 312.659 584.957 313.25 584.736 313.787C584.514 314.323 584.137 314.781 583.651 315.1C583.166 315.419 582.596 315.584 582.016 315.575C581.434 315.587 580.862 315.424 580.375 315.106C579.888 314.788 579.507 314.331 579.284 313.794C579.061 313.256 579.005 312.664 579.123 312.095C579.242 311.525 579.529 311.004 579.948 310.601Z" fill="#F0F0F0"/>
<path d="M240.703 463.327H274.206L256.58 319.884C256.159 316.886 254.689 314.135 252.43 312.12C250.172 310.105 247.271 308.957 244.245 308.88H98.0547L119.484 463.327H240.703Z" fill="#F5F5F5"/>
<path d="M134.478 463.328H100.931L83.3184 319.884C83.1019 318.505 83.1911 317.096 83.5795 315.755C83.9679 314.414 84.6461 313.175 85.5661 312.126C86.4861 311.076 87.6256 310.241 88.9038 309.68C90.182 309.12 91.5678 308.846 92.9632 308.88H104.531C107.558 308.959 110.459 310.108 112.719 312.122C114.98 314.137 116.454 316.887 116.88 319.884L134.478 463.328Z" fill="#F0F0F0"/>
<path d="M146.782 463.154L140.709 393.746C140.572 392.238 139.924 390.822 138.872 389.733C137.82 388.644 136.427 387.948 134.925 387.759L132.452 387.528C130.443 387.274 128.582 386.339 127.18 384.878C125.777 383.418 124.918 381.52 124.745 379.503L123.632 366.85C123.519 365.622 123.664 364.383 124.057 363.214C124.449 362.044 125.082 360.97 125.913 360.058C126.744 359.146 127.756 358.418 128.885 357.92C130.013 357.421 131.233 357.163 132.467 357.162H76.4776C75.2479 357.164 74.0319 357.42 72.9067 357.916C71.7815 358.412 70.7716 359.137 69.941 360.043C69.1104 360.95 68.4772 362.02 68.0815 363.184C67.6859 364.348 67.5364 365.582 67.6425 366.807L68.7415 379.459C68.9105 381.485 69.7694 383.391 71.1748 384.86C72.5801 386.328 74.4469 387.27 76.4631 387.528L78.9647 387.846C80.4691 388.03 81.8647 388.724 82.9178 389.814C83.9708 390.904 84.6172 392.323 84.7487 393.833L90.8219 463.241C91.0352 465.683 92.1557 467.956 93.9624 469.613C95.7691 471.27 98.131 472.19 100.582 472.191H156.572C154.1 472.199 151.718 471.271 149.902 469.595C148.086 467.919 146.972 465.618 146.782 463.154Z" fill="#E6E6E6"/>
<path d="M300.872 376.408C301.335 371.155 303.749 366.265 307.638 362.703C311.527 359.14 316.609 357.163 321.883 357.162H273.138C267.861 357.16 262.775 359.138 258.885 362.704C254.995 366.27 252.584 371.165 252.128 376.423L247.312 431.371H296.057L300.872 376.408Z" fill="#E6E6E6"/>
<path d="M343.54 357.162H321.85C316.574 357.164 311.49 359.142 307.6 362.708C303.711 366.273 301.299 371.167 300.84 376.423L296.024 431.371H179.954L175.139 376.423C174.68 371.167 172.267 366.273 168.378 362.708C164.489 359.142 159.405 357.164 154.129 357.162H132.439C131.209 357.164 129.993 357.42 128.868 357.916C127.742 358.412 126.733 359.137 125.902 360.043C125.071 360.95 124.438 362.02 124.042 363.184C123.647 364.348 123.497 365.582 123.603 366.807L124.717 379.459C124.881 381.489 125.74 383.4 127.15 384.87C128.559 386.34 130.432 387.279 132.453 387.528L134.955 387.846C136.457 388.035 137.85 388.731 138.902 389.82C139.954 390.909 140.602 392.325 140.739 393.833L146.797 463.241C147.011 465.683 148.131 467.956 149.938 469.613C151.745 471.27 154.106 472.19 156.558 472.191H319.479C321.928 472.19 324.289 471.269 326.093 469.612C327.897 467.955 329.015 465.682 329.225 463.241L335.298 393.833C335.435 392.325 336.083 390.909 337.135 389.82C338.187 388.731 339.58 388.035 341.082 387.846L343.583 387.528C345.592 387.274 347.453 386.339 348.856 384.878C350.259 383.418 351.118 381.52 351.291 379.503L352.404 366.85C352.517 365.619 352.371 364.378 351.977 363.207C351.582 362.036 350.947 360.959 350.113 360.047C349.279 359.135 348.263 358.408 347.131 357.911C345.999 357.414 344.776 357.159 343.54 357.162Z" fill="#F0F0F0"/>
<path d="M361.498 538.722C516.339 538.722 641.863 531.393 641.863 522.353C641.863 513.313 516.339 505.984 361.498 505.984C206.656 505.984 81.1328 513.313 81.1328 522.353C81.1328 531.393 206.656 538.722 361.498 538.722Z" fill="#F5F5F5"/>
<path d="M549.55 124.125H244.328C240.846 124.125 238.023 126.947 238.023 130.429V410.968C238.023 414.449 240.846 417.272 244.328 417.272H549.55C553.032 417.272 555.854 414.449 555.854 410.968V130.429C555.854 126.947 553.032 124.125 549.55 124.125Z" fill="#B0BEC5"/>
<path opacity="0.4" d="M549.55 124.125H244.328C240.846 124.125 238.023 126.947 238.023 130.429V410.968C238.023 414.449 240.846 417.272 244.328 417.272H549.55C553.032 417.272 555.854 414.449 555.854 410.968V130.429C555.854 126.947 553.032 124.125 549.55 124.125Z" fill="white"/>
<path opacity="0.6" d="M241.477 183.078V409.666C241.48 410.758 241.916 411.804 242.688 412.576C243.46 413.348 244.506 413.784 245.598 413.787H548.231C549.323 413.784 550.369 413.348 551.141 412.576C551.913 411.804 552.348 410.758 552.352 409.666V183.078H241.477Z" fill="white"/>
<path d="M376.376 140.421H297.092C295.583 140.421 294.359 141.644 294.359 143.154V167.418C294.359 168.927 295.583 170.151 297.092 170.151H376.376C377.886 170.151 379.109 168.927 379.109 167.418V143.154C379.109 141.644 377.886 140.421 376.376 140.421Z" fill="#B0BEC5"/>
<path d="M333.187 158.669H325.35L323.658 162.414H322.125L328.531 148.388H329.977L336.383 162.414H334.821L333.187 158.669ZM332.652 157.469L329.283 149.935L325.914 157.469H332.652Z" fill="white"/>
<path d="M338.766 148.388H344.477C348.96 148.388 351.982 151.28 351.982 155.401C351.982 159.522 348.96 162.414 344.477 162.414H338.766V148.388ZM344.391 161.142C345.207 161.251 346.038 161.184 346.827 160.945C347.616 160.707 348.345 160.303 348.964 159.76C349.584 159.217 350.081 158.548 350.422 157.798C350.762 157.047 350.938 156.233 350.938 155.409C350.938 154.584 350.762 153.77 350.422 153.019C350.081 152.269 349.584 151.6 348.964 151.057C348.345 150.514 347.616 150.11 346.827 149.872C346.038 149.633 345.207 149.566 344.391 149.675H340.241V161.142H344.391Z" fill="white"/>
<path d="M355.305 148.388H361.016C365.513 148.388 368.536 151.28 368.536 155.401C368.536 159.522 365.513 162.414 361.016 162.414H355.305V148.388ZM360.944 161.142C361.761 161.251 362.592 161.184 363.38 160.945C364.169 160.707 364.898 160.303 365.518 159.76C366.138 159.217 366.635 158.548 366.975 157.798C367.315 157.047 367.492 156.233 367.492 155.409C367.492 154.584 367.315 153.77 366.975 153.019C366.635 152.269 366.138 151.6 365.518 151.057C364.898 150.514 364.169 150.11 363.38 149.872C362.592 149.633 361.761 149.566 360.944 149.675H356.794V161.142H360.944Z" fill="white"/>
<path d="M314.766 154.563H301.867V156.009H314.766V154.563Z" fill="white"/>
<path d="M309.04 148.836H307.594V161.735H309.04V148.836Z" fill="white"/>
<path d="M280.538 143.096H257.734V165.9H280.538V143.096Z" fill="white"/>
<path d="M280.52 166.622H257.731C257.54 166.619 257.358 166.541 257.224 166.406C257.089 166.272 257.012 166.09 257.008 165.899V143.154C257.008 142.962 257.084 142.778 257.22 142.642C257.355 142.507 257.539 142.431 257.731 142.431H280.52C280.712 142.431 280.895 142.507 281.031 142.642C281.167 142.778 281.243 142.962 281.243 143.154V165.957C281.228 166.139 281.146 166.308 281.012 166.431C280.878 166.555 280.702 166.623 280.52 166.622ZM258.439 165.176H279.797V143.819H258.454L258.439 165.176Z" fill="#B0BEC5"/>
<path opacity="0.6" d="M526.442 198.059H297.092C295.583 198.059 294.359 199.282 294.359 200.792V225.055C294.359 226.565 295.583 227.788 297.092 227.788H526.442C527.952 227.788 529.175 226.565 529.175 225.055V200.792C529.175 199.282 527.952 198.059 526.442 198.059Z" fill="#B0BEC5"/>
<g opacity="0.6">
<path d="M280.538 202.483H257.734V225.287H280.538V202.483Z" fill="white"/>
<path d="M280.52 225.995H257.731C257.539 225.995 257.355 225.919 257.22 225.783C257.084 225.648 257.008 225.464 257.008 225.272V202.44C257.008 202.248 257.084 202.064 257.22 201.929C257.355 201.793 257.539 201.717 257.731 201.717H280.52C280.712 201.717 280.895 201.793 281.031 201.929C281.167 202.064 281.243 202.248 281.243 202.44V225.229C281.249 225.327 281.234 225.426 281.201 225.519C281.167 225.612 281.115 225.696 281.047 225.768C280.979 225.84 280.898 225.897 280.807 225.936C280.716 225.975 280.618 225.995 280.52 225.995ZM258.439 224.549H279.797V203.206H258.454L258.439 224.549Z" fill="#B0BEC5"/>
</g>
<path d="M307.751 209.221H303.891V208.224H312.784V209.221H308.923V219.213H307.751V209.221Z" fill="white"/>
<path d="M321.012 216.278H314.895L313.579 219.17H312.336L317.368 208.181H318.51L323.528 219.17H322.313L321.012 216.278ZM320.593 215.338L317.961 209.424L315.228 215.338H320.593Z" fill="white"/>
<path d="M324.305 217.883L324.767 216.986C325.772 217.862 327.064 218.336 328.397 218.317C330.45 218.317 331.289 217.449 331.289 216.365C331.289 213.357 324.522 215.208 324.522 211.145C324.522 209.525 325.78 208.122 328.57 208.122C329.778 208.11 330.963 208.446 331.983 209.091L331.578 210.017C330.681 209.436 329.639 209.121 328.57 209.106C326.56 209.106 325.678 210.002 325.678 211.101C325.678 214.123 332.446 212.301 332.446 216.307C332.446 217.926 331.159 219.314 328.353 219.314C326.874 219.349 325.434 218.84 324.305 217.883Z" fill="white"/>
<path d="M338.436 214.008L336.195 216.278V219.17H335.023V208.224H336.195V214.861L342.702 208.224H344.046L339.275 213.198L344.365 219.213H342.919L338.436 214.008Z" fill="white"/>
<path d="M349.352 213.719C349.352 210.219 351.188 208.123 353.69 208.123C356.191 208.123 358.028 210.219 358.028 213.719C358.028 217.218 356.177 219.315 353.69 219.315C351.202 219.315 349.352 217.218 349.352 213.719ZM356.972 213.719C356.972 210.827 355.642 209.164 353.733 209.164C351.824 209.164 350.494 210.783 350.494 213.719C350.494 216.654 351.81 218.273 353.733 218.273C355.656 218.273 356.972 216.654 356.972 213.719Z" fill="white"/>
<path d="M362.77 208.224V219.213H361.642V209.221H359.039V208.224H362.77Z" fill="white"/>
<path d="M517.853 220.819H505.359V204.349H517.853V220.819ZM506.805 219.373H516.407V205.795H506.805V219.373Z" fill="white"/>
<path d="M520.26 207.182L512.828 214.78L513.862 215.791L521.294 208.194L520.26 207.182Z" fill="white"/>
<path opacity="0.6" d="M527.138 238.951H297.788C296.278 238.951 295.055 240.175 295.055 241.684V265.948C295.055 267.457 296.278 268.681 297.788 268.681H527.138C528.647 268.681 529.871 267.457 529.871 265.948V241.684C529.871 240.175 528.647 238.951 527.138 238.951Z" fill="#B0BEC5"/>
<g opacity="0.6">
<path d="M281.249 243.362H258.445V266.165H281.249V243.362Z" fill="white"/>
<path d="M281.245 266.888H258.442C258.25 266.888 258.066 266.812 257.931 266.676C257.795 266.541 257.719 266.357 257.719 266.165V243.362C257.719 243.17 257.795 242.986 257.931 242.85C258.066 242.715 258.25 242.639 258.442 242.639H281.245C281.436 242.642 281.618 242.72 281.752 242.855C281.887 242.989 281.964 243.171 281.968 243.362V266.165C281.968 266.357 281.892 266.541 281.756 266.676C281.621 266.812 281.437 266.888 281.245 266.888ZM259.165 265.442H280.522V244.085H259.165V265.442Z" fill="#B0BEC5"/>
</g>
<path d="M307.751 250.158H303.891V249.146H312.784V250.158H308.923V260.15H307.751V250.158Z" fill="white"/>
<path d="M321.012 257.156H314.895L313.579 260.048H312.336L317.368 249.044H318.51L323.528 260.048H322.313L321.012 257.156ZM320.593 256.217L317.961 250.317L315.228 256.217H320.593Z" fill="white"/>
<path d="M324.305 258.834L324.767 257.937C325.766 258.824 327.061 259.304 328.397 259.282C330.45 259.282 331.289 258.414 331.289 257.33C331.289 254.308 324.522 256.173 324.522 252.095C324.522 250.476 325.78 249.088 328.57 249.088C329.778 249.075 330.963 249.411 331.983 250.057L331.578 250.982C330.681 250.402 329.639 250.086 328.57 250.071C326.56 250.071 325.678 250.968 325.678 252.067C325.678 255.089 332.446 253.267 332.446 257.272C332.446 258.892 331.159 260.265 328.353 260.265C326.873 260.307 325.43 259.797 324.305 258.834Z" fill="white"/>
<path d="M338.436 254.93L336.195 257.215V260.107H335.023V249.103H336.195V255.754L342.644 249.103H343.989L339.217 254.091L344.307 260.107H342.861L338.436 254.93Z" fill="white"/>
<path d="M349.352 254.597C349.352 251.098 351.188 249.016 353.69 249.016C356.191 249.016 358.028 251.098 358.028 254.597C358.028 258.097 356.177 260.193 353.69 260.193C351.202 260.193 349.352 258.111 349.352 254.597ZM356.972 254.597C356.972 251.705 355.642 250.042 353.733 250.042C351.824 250.042 350.494 251.662 350.494 254.597C350.494 257.533 351.81 259.152 353.733 259.152C355.656 259.152 356.972 257.547 356.972 254.597Z" fill="white"/>
<path d="M367.28 259.094V260.106H359.572V259.297L364.142 254.828C365.385 253.599 365.588 252.862 365.588 252.11C365.588 250.838 364.691 250.042 363.014 250.042C362.455 250.007 361.894 250.099 361.376 250.312C360.857 250.525 360.394 250.853 360.021 251.271L359.211 250.577C359.708 250.048 360.315 249.633 360.99 249.364C361.664 249.094 362.39 248.975 363.115 249.016C365.342 249.016 366.759 250.143 366.759 251.908C366.732 252.579 366.556 253.237 366.244 253.832C365.931 254.428 365.49 254.946 364.952 255.349L361.206 259.022L367.28 259.094Z" fill="white"/>
<path d="M518.558 261.726H506.094V245.242H518.587L518.558 261.726ZM507.54 260.28H517.141V246.688H507.54V260.28Z" fill="white"/>
<path d="M520.956 248.073L513.523 255.67L514.557 256.682L521.989 249.084L520.956 248.073Z" fill="white"/>
<path opacity="0.6" d="M527.849 279.83H298.499C296.989 279.83 295.766 281.053 295.766 282.563V306.826C295.766 308.336 296.989 309.559 298.499 309.559H527.849C529.358 309.559 530.582 308.336 530.582 306.826V282.563C530.582 281.053 529.358 279.83 527.849 279.83Z" fill="#B0BEC5"/>
<g opacity="0.6">
<path d="M281.96 284.255H259.156V307.058H281.96V284.255Z" fill="white"/>
<path d="M281.971 307.781H259.153C258.961 307.781 258.777 307.705 258.641 307.569C258.506 307.434 258.43 307.25 258.43 307.058V284.255C258.43 284.063 258.506 283.879 258.641 283.743C258.777 283.608 258.961 283.532 259.153 283.532H281.971C282.162 283.532 282.346 283.608 282.482 283.743C282.617 283.879 282.694 284.063 282.694 284.255V307.058C282.69 307.249 282.613 307.43 282.478 307.565C282.343 307.7 282.161 307.777 281.971 307.781ZM259.89 306.335H281.248V284.978H259.876L259.89 306.335Z" fill="#B0BEC5"/>
</g>
<path d="M307.751 290.993H303.891V289.995H312.784V290.993H308.923V300.985H307.751V290.993Z" fill="white"/>
<path d="M321.012 298.049H314.895L313.565 300.941H312.336L317.354 289.952H318.51L323.528 300.941H322.313L321.012 298.049ZM320.593 297.109L317.961 291.195L315.228 297.109H320.593Z" fill="white"/>
<path d="M324.305 299.655L324.767 298.758C325.772 299.633 327.064 300.107 328.397 300.088C330.45 300.088 331.289 299.235 331.289 298.151C331.289 295.129 324.522 296.979 324.522 292.916C324.522 291.297 325.765 289.894 328.57 289.894C329.78 289.879 330.967 290.221 331.983 290.877L331.578 291.803C330.684 291.217 329.64 290.9 328.57 290.892C326.56 290.892 325.678 291.788 325.678 292.887C325.678 295.895 332.446 294.073 332.446 298.078C332.446 299.698 331.159 301.086 328.353 301.086C326.873 301.13 325.429 300.62 324.305 299.655Z" fill="white"/>
<path d="M338.436 295.822L336.195 298.093V300.985H335.023V289.995H336.195V296.632L342.644 289.995H343.989L339.217 294.969L344.307 300.985H342.861L338.436 295.822Z" fill="white"/>
<path d="M349.352 295.49C349.352 291.991 351.188 289.894 353.69 289.894C356.191 289.894 358.028 291.991 358.028 295.49C358.028 298.989 356.177 301.086 353.69 301.086C351.202 301.086 349.352 298.989 349.352 295.49ZM356.972 295.49C356.972 292.598 355.642 290.935 353.733 290.935C351.824 290.935 350.494 292.555 350.494 295.49C350.494 298.425 351.81 300.045 353.733 300.045C355.656 300.045 356.972 298.425 356.972 295.49Z" fill="white"/>
<path d="M366.86 297.876C366.86 299.712 365.53 301.13 362.869 301.13C361.417 301.17 360.005 300.652 358.922 299.684L359.471 298.787C360.395 299.638 361.614 300.095 362.869 300.059C364.691 300.059 365.761 299.206 365.761 297.847C365.761 296.488 364.836 295.664 362.869 295.664H362.074V294.825L365.125 291.008H359.5V290.01H366.571V290.805L363.462 294.724C365.689 294.825 366.86 296.069 366.86 297.876Z" fill="white"/>
<path d="M519.267 302.59H506.773V286.12H519.267V302.59ZM508.219 301.144H517.821V287.566H508.219V301.144Z" fill="white"/>
<path d="M521.674 288.96L514.242 296.557L515.276 297.568L522.708 289.971L521.674 288.96Z" fill="white"/>
<path opacity="0.6" d="M528.552 320.723H299.202C297.692 320.723 296.469 321.946 296.469 323.456V347.719C296.469 349.229 297.692 350.452 299.202 350.452H528.552C530.061 350.452 531.285 349.229 531.285 347.719V323.456C531.285 321.946 530.061 320.723 528.552 320.723Z" fill="#B0BEC5"/>
<g opacity="0.6">
<path d="M282.663 325.147H259.859V347.951H282.663V325.147Z" fill="white"/>
<path d="M282.645 348.659H259.856C259.664 348.659 259.48 348.583 259.345 348.448C259.209 348.312 259.133 348.128 259.133 347.936V325.147C259.133 324.956 259.209 324.772 259.345 324.636C259.48 324.5 259.664 324.424 259.856 324.424H282.645C282.837 324.424 283.02 324.5 283.156 324.636C283.292 324.772 283.368 324.956 283.368 325.147V347.936C283.368 348.128 283.292 348.312 283.156 348.448C283.02 348.583 282.837 348.659 282.645 348.659ZM260.579 347.213H281.965V325.87H260.579V347.213Z" fill="#B0BEC5"/>
</g>
<path d="M307.751 331.886H303.891V330.874H312.784V331.886H308.923V341.878H307.751V331.886Z" fill="white"/>
<path d="M321.012 338.942H314.895L313.565 341.834H312.336L317.354 330.83H318.51L323.528 341.834H322.313L321.012 338.942ZM320.593 338.002L317.961 332.088L315.228 338.002H320.593Z" fill="white"/>
<path d="M324.305 340.533L324.767 339.651C325.772 340.526 327.064 341 328.397 340.981C330.45 340.981 331.289 340.114 331.289 339.029C331.289 336.021 324.522 337.872 324.522 333.795C324.522 332.19 325.765 330.787 328.57 330.787C329.778 330.774 330.963 331.111 331.983 331.756L331.578 332.681C330.681 332.101 329.639 331.785 328.57 331.77C326.56 331.77 325.678 332.667 325.678 333.766C325.678 336.788 332.446 334.966 332.446 338.971C332.446 340.591 331.159 341.965 328.353 341.965C326.873 342.009 325.429 341.498 324.305 340.533Z" fill="white"/>
<path d="M338.436 336.701L336.195 338.986V341.878H335.023V330.874H336.195V337.525L342.644 330.874H343.989L339.217 335.862L344.307 341.878H342.861L338.436 336.701Z" fill="white"/>
<path d="M349.352 336.383C349.352 332.869 351.188 330.787 353.69 330.787C356.191 330.787 358.028 332.869 358.028 336.383C358.028 339.896 356.177 341.964 353.69 341.964C351.202 341.964 349.352 339.882 349.352 336.383ZM356.972 336.383C356.972 333.491 355.642 331.828 353.733 331.828C351.824 331.828 350.494 333.433 350.494 336.383C350.494 339.332 351.81 340.938 353.733 340.938C355.656 340.938 356.972 339.318 356.972 336.383Z" fill="white"/>
<path d="M369.104 338.986H366.906V341.878H365.836V338.986H359.633V338.176L365.417 330.874H366.675L361.05 337.973H365.836V335.472H366.935V338.017H369.133L369.104 338.986Z" fill="white"/>
<path d="M519.982 343.483H507.547V327.013H520.055L519.982 343.483ZM508.921 342.037H518.536V328.459H508.993L508.921 342.037Z" fill="white"/>
<path d="M522.37 329.857L514.938 337.454L515.971 338.465L523.403 330.868L522.37 329.857Z" fill="white"/>
<path opacity="0.6" d="M529.263 361.616H299.913C298.403 361.616 297.18 362.839 297.18 364.349V388.613C297.18 390.122 298.403 391.346 299.913 391.346H529.263C530.772 391.346 531.996 390.122 531.996 388.613V364.349C531.996 362.839 530.772 361.616 529.263 361.616Z" fill="#B0BEC5"/>
<g opacity="0.6">
<path d="M283.358 366.026H260.555V388.829H283.358V366.026Z" fill="white"/>
<path d="M283.412 389.552H260.551C260.359 389.552 260.175 389.476 260.04 389.34C259.904 389.205 259.828 389.021 259.828 388.829V366.026C259.832 365.835 259.909 365.653 260.044 365.519C260.179 365.384 260.361 365.306 260.551 365.303H283.412C283.604 365.303 283.788 365.379 283.924 365.515C284.059 365.65 284.135 365.834 284.135 366.026V388.829C284.135 389.021 284.059 389.205 283.924 389.34C283.788 389.476 283.604 389.552 283.412 389.552ZM261.332 388.106H282.689V366.749H261.274L261.332 388.106Z" fill="#B0BEC5"/>
</g>
<path d="M307.751 372.764H303.891V371.767H312.784V372.764H308.923V382.771H307.751V372.764Z" fill="white"/>
<path d="M321.012 379.821H314.895L313.565 382.713H312.336L317.354 371.708H318.51L323.528 382.713H322.313L321.012 379.821ZM320.593 378.881L317.961 372.981L315.228 378.852L320.593 378.881Z" fill="white"/>
<path d="M324.305 381.426L324.767 380.529C325.77 381.41 327.063 381.889 328.397 381.874C330.45 381.874 331.289 381.006 331.289 379.922C331.289 376.9 324.522 378.75 324.522 374.687C324.522 373.068 325.765 371.68 328.57 371.68C329.778 371.667 330.963 372.003 331.983 372.648L331.578 373.574C330.681 372.993 329.639 372.678 328.57 372.663C326.56 372.663 325.678 373.559 325.678 374.658C325.678 377.68 332.446 375.844 332.446 379.864C332.446 381.469 331.159 382.857 328.353 382.857C326.873 382.901 325.429 382.391 324.305 381.426Z" fill="white"/>
<path d="M338.436 377.594L336.195 379.879V382.771H335.023V371.767H336.195V378.418L342.644 371.767H343.989L339.217 376.741L344.307 382.771H342.861L338.436 377.594Z" fill="white"/>
<path d="M349.352 377.261C349.352 373.762 351.188 371.68 353.69 371.68C356.191 371.68 358.028 373.762 358.028 377.261C358.028 380.761 356.177 382.857 353.69 382.857C351.202 382.857 349.352 380.775 349.352 377.261ZM356.972 377.261C356.972 374.369 355.642 372.706 353.733 372.706C351.824 372.706 350.494 374.326 350.494 377.261C350.494 380.197 351.81 381.816 353.733 381.816C355.656 381.816 356.972 380.197 356.972 377.261Z" fill="white"/>
<path d="M367.283 379.531C367.283 381.397 365.982 382.857 363.292 382.857C361.844 382.898 360.436 382.38 359.359 381.411L359.909 380.515C360.821 381.365 362.031 381.822 363.278 381.787C365.158 381.787 366.17 380.876 366.17 379.546C366.17 378.215 365.288 377.247 362.497 377.247H360.053L360.617 371.737H366.633V372.735H361.601L361.225 376.249H362.671C365.953 376.278 367.283 377.579 367.283 379.531Z" fill="white"/>
<path d="M520.688 384.376H508.18V367.891H520.688V384.376ZM509.626 382.93H519.242V369.337H509.626V382.93Z" fill="white"/>
<path d="M523.073 370.748L515.641 378.345L516.674 379.356L524.106 371.759L523.073 370.748Z" fill="white"/>
<path d="M514.401 140.638H413.354C405.767 140.638 399.617 146.785 399.617 154.367C399.617 161.95 405.767 168.097 413.354 168.097H514.401C521.987 168.097 528.138 161.95 528.138 154.367C528.138 146.785 521.987 140.638 514.401 140.638Z" fill="white"/>
<path d="M509.296 157.831C508.494 157.832 507.704 157.636 506.996 157.259C506.288 156.882 505.684 156.336 505.238 155.669C504.792 155.003 504.517 154.237 504.438 153.439C504.359 152.641 504.478 151.835 504.785 151.094C505.091 150.353 505.576 149.699 506.196 149.191C506.816 148.682 507.552 148.334 508.339 148.178C509.125 148.022 509.938 148.063 510.706 148.296C511.473 148.529 512.171 148.949 512.737 149.516C513.417 150.198 513.88 151.065 514.067 152.01C514.254 152.954 514.158 153.932 513.79 154.822C513.421 155.711 512.798 156.471 511.998 157.007C511.199 157.543 510.258 157.829 509.296 157.831ZM509.296 149.545C508.631 149.557 507.983 149.761 507.433 150.134C506.882 150.507 506.451 151.032 506.194 151.645C505.936 152.258 505.863 152.933 505.982 153.587C506.102 154.241 506.409 154.847 506.866 155.329C507.521 155.948 508.388 156.292 509.288 156.292C510.189 156.292 511.056 155.948 511.71 155.329C512.167 154.848 512.474 154.244 512.594 153.591C512.714 152.938 512.642 152.264 512.386 151.651C512.13 151.039 511.702 150.514 511.153 150.14C510.605 149.766 509.959 149.559 509.296 149.545Z" fill="#B0BEC5"/>
<path d="M518.088 162.487C517.893 162.487 517.705 162.409 517.568 162.27L511.711 156.399C511.642 156.334 511.587 156.256 511.549 156.169C511.512 156.082 511.492 155.988 511.492 155.893C511.492 155.798 511.512 155.705 511.549 155.618C511.587 155.531 511.642 155.452 511.711 155.387C511.778 155.319 511.858 155.266 511.947 155.229C512.035 155.192 512.129 155.173 512.225 155.173C512.32 155.173 512.415 155.192 512.503 155.229C512.591 155.266 512.671 155.319 512.738 155.387L518.594 161.171C518.662 161.238 518.716 161.318 518.753 161.406C518.789 161.495 518.808 161.589 518.808 161.685C518.808 161.78 518.789 161.874 518.753 161.963C518.716 162.051 518.662 162.131 518.594 162.198C518.535 162.279 518.459 162.346 518.372 162.396C518.284 162.446 518.188 162.477 518.088 162.487Z" fill="#B0BEC5"/>
<path d="M566.741 488.227C566.741 488.227 559.584 472.596 567.768 457.196C575.952 441.796 578.324 438.167 573.104 435C567.884 431.833 565.498 447.334 565.498 447.334C562.914 440.34 562.645 432.701 564.731 425.543C568.361 414.395 570.631 396.247 565.671 394.295C560.712 392.343 564.732 416.94 560.422 425.326C558.238 419.436 556.824 413.287 556.215 407.034C555.622 398.084 556.562 383.797 552.643 380.124C548.724 376.452 546.223 378.997 550.069 398.749C552.381 410.554 553.658 422.539 553.886 434.566C553.886 434.566 545.384 408.654 539.687 407.888C533.99 407.121 533.99 415.522 538.863 422.81C543.736 430.098 553.164 443.127 554.769 449.836C554.769 449.836 545.442 430.33 537.041 436.316C528.639 442.302 544.3 454.044 551.284 458.382C558.268 462.72 563.141 489.312 563.141 489.312L566.741 488.227Z" fill="#B0BEC5"/>
<path opacity="0.2" d="M566.741 488.227C566.741 488.227 559.584 472.596 567.768 457.196C575.952 441.796 578.324 438.167 573.104 435C567.884 431.833 565.498 447.334 565.498 447.334C562.914 440.34 562.645 432.701 564.731 425.543C568.361 414.395 570.631 396.247 565.671 394.295C560.712 392.343 564.732 416.94 560.422 425.326C558.238 419.436 556.824 413.287 556.215 407.034C555.622 398.084 556.562 383.797 552.643 380.124C548.724 376.452 546.223 378.997 550.069 398.749C552.381 410.554 553.658 422.539 553.886 434.566C553.886 434.566 545.384 408.654 539.687 407.888C533.99 407.121 533.99 415.522 538.863 422.81C543.736 430.098 553.164 443.127 554.769 449.836C554.769 449.836 545.442 430.33 537.041 436.316C528.639 442.302 544.3 454.044 551.284 458.382C558.268 462.72 563.141 489.312 563.141 489.312L566.741 488.227Z" fill="black"/>
<path d="M561.041 494.633C561.041 494.633 568.011 478.901 559.595 463.616C551.179 448.332 548.808 444.746 553.985 441.507C559.161 438.268 561.75 453.726 561.75 453.726C564.248 446.699 564.426 439.055 562.256 431.92C558.482 420.829 555.994 402.711 560.925 400.701C565.856 398.691 562.14 423.316 566.55 431.645C568.67 425.728 570.012 419.559 570.541 413.296C571.018 404.33 569.919 390.058 573.795 386.328C577.67 382.597 580.2 385.113 576.585 404.923C574.421 416.756 573.289 428.755 573.202 440.784C573.202 440.784 581.386 414.756 587.083 413.903C592.781 413.05 592.867 421.451 588.081 428.811C583.295 436.171 574.127 449.33 572.609 456.068C572.609 456.068 581.704 436.432 590.163 442.273C598.623 448.115 583.064 460.146 576.123 464.499C569.182 468.851 564.642 495.616 564.642 495.616L561.041 494.633Z" fill="#B0BEC5"/>
<path d="M593.265 483.412H535.656L540.312 524.638H588.594L593.265 483.412Z" fill="#263238"/>
<path d="M143.961 488.357L150.945 492.464C154.221 488.057 157.766 483.855 161.559 479.884C163.583 477.744 165.709 475.372 167.921 472.827C172.346 467.752 177.132 461.954 182.15 455.721L186.647 450.096C204.129 428.103 223.028 402.248 230.027 384.766C232.225 379.329 233.295 374.716 232.818 371.26C231.372 360.82 227.323 345.102 222.696 329.919C215.639 306.783 207.701 284.717 207.701 284.717L188.194 317.758C188.194 317.758 194.181 332.03 199.632 347.228C204.997 362.151 209.841 377.984 208.048 382.105C207.874 382.51 207.657 382.987 207.411 383.551C204.23 390.189 195.207 405.386 185.085 422.232L181.976 427.336C176.51 436.301 170.828 445.513 165.564 453.972C163.511 457.297 161.515 460.508 159.621 463.544C150.656 477.903 143.961 488.357 143.961 488.357Z" fill="#B97964"/>
<path opacity="0.2" d="M187.033 450.082C177.807 461.65 168.943 472.206 162.349 479.87C161.409 475.156 160.455 469.574 159.703 463.487C167.324 451.253 176.65 436.157 185.124 422.174C184.944 431.515 185.583 440.853 187.033 450.082Z" fill="black"/>
<path d="M152.228 354.473C154.642 370.943 158.012 385.865 160.325 394.758C161.67 400.094 162.581 403.246 162.581 403.246C162.614 420.159 163.608 437.056 165.56 453.856C166.297 460.479 167.092 466.87 167.917 472.755C170.953 494.648 174.149 510.351 174.149 510.351L182.463 509.267L182.189 455.707L182.015 427.279L181.784 388.598L181.697 381.86L181.292 352.448L180.699 309.068L151.779 296.054C147.861 312.539 149.307 334.634 152.228 354.473Z" fill="#B97964"/>
<path opacity="0.2" d="M229.624 354.733C222.235 359.837 212.272 362.903 205.433 364.551C203.857 359.157 201.818 353.099 199.649 347.199C194.197 332.002 188.211 317.73 188.211 317.73L207.717 284.688C207.717 284.688 215.656 306.682 222.713 329.89C225.344 338.364 227.745 346.953 229.624 354.733Z" fill="black"/>
<path opacity="0.2" d="M181.497 370.639C172.51 370.454 163.538 369.817 154.616 368.73C153.777 364.204 152.953 359.418 152.23 354.487C149.338 334.648 147.892 312.553 151.738 296.068L180.658 309.082L181.251 352.462L181.497 370.639Z" fill="black"/>
<path d="M231.01 351.855C212.92 362.483 159.722 366.995 159.722 366.995L151.046 342.528L151.986 366.734H149.412C149.412 366.734 129.963 300.941 155.803 257.822L202.075 254.25L207.136 278.08C207.136 278.08 220.136 312.235 231.01 351.855Z" fill="#263238"/>
<path d="M197.086 521.081C195.723 520.255 194.217 519.691 192.647 519.418C192.647 519.418 187.543 515.615 183.479 502.543L177.406 501.849C176.369 501.751 175.328 501.977 174.424 502.495C173.521 503.012 172.8 503.797 172.36 504.741C172.23 505 172.142 505.278 172.099 505.565C171.998 507.043 171.998 508.526 172.099 510.004C172.461 514.938 173.128 519.844 174.095 524.696L175.15 524.551L174.268 515.268C173.979 512.115 176.9 515.441 178.057 518.724C179.214 522.006 181.195 525.375 188.078 524.508C196.103 523.539 199.385 522.744 197.086 521.081Z" fill="#2E353A"/>
<path d="M170.839 125.614C170.839 125.614 182.407 119.194 191.82 123.98C196.158 126.178 197.706 131.803 198.617 136.184C199.904 142.315 200.063 148.591 200.974 154.78C201.285 157.397 202.033 159.944 203.186 162.313C204.791 165.451 208.074 168.589 207.423 172.435C206.844 175.834 203.374 177.858 200.352 178.783C192.327 181.256 183.246 179.882 174.96 180.417C168.28 180.837 161.845 183.078 155.164 183.309C153.256 183.473 151.341 183.092 149.641 182.21C143.206 178.364 146.011 168.473 148.093 162.979C149.858 158.337 148.556 153.536 149.135 148.663C149.537 144.363 150.55 140.141 152.142 136.126C155.483 128.13 162.192 123.937 170.839 125.614Z" fill="#263238"/>
<path d="M181.802 497.901C181.802 497.901 183.971 503.816 186.863 510.323C188.191 513.697 190.154 516.784 192.647 519.418C192.647 519.418 187.629 521.052 184.911 517.972C182.192 514.892 177.565 503.512 172.359 504.755C172.645 503.83 173.038 502.942 173.531 502.109C174.297 500.75 181.802 497.901 181.802 497.901Z" fill="#B97964"/>
<path d="M146.141 515.933C145.838 514.369 145.26 512.871 144.435 511.508C144.435 511.508 143.9 505.16 151 493.462L147.486 488.444C146.874 487.608 146.021 486.979 145.042 486.641C144.063 486.302 143.003 486.271 142.006 486.55C141.73 486.635 141.468 486.756 141.225 486.912C140.054 487.802 138.943 488.768 137.899 489.804C134.442 493.351 131.206 497.108 128.211 501.054L129.021 501.748L135.383 494.922C137.552 492.623 137.003 497.019 135.383 500.056C133.764 503.092 132.491 506.809 137.653 511.436C143.64 516.829 146.402 518.767 146.141 515.933Z" fill="#2E353A"/>
<path d="M153.358 489.124C153.358 489.124 150.379 494.676 147.487 501.154C145.836 504.381 144.824 507.897 144.508 511.508C144.508 511.508 139.953 508.833 140.517 504.712C141.081 500.591 146.532 489.587 142.093 486.55C142.976 486.15 143.903 485.854 144.855 485.668C146.258 485.408 153.358 489.124 153.358 489.124Z" fill="#B97964"/>
<path d="M155.354 253.093L155.094 260.078L202.913 258.212L203.217 249.956L155.354 253.093Z" fill="#263238"/>
<path opacity="0.2" d="M155.354 253.093L155.094 260.078L202.913 258.212L203.217 249.956L155.354 253.093Z" fill="white"/>
<path d="M171.488 250.758L169.117 250.79L169.279 262.863L171.651 262.831L171.488 250.758Z" fill="#263238"/>
<path d="M200.715 248.68L198.344 248.712L198.504 260.785L200.875 260.754L200.715 248.68Z" fill="#263238"/>
<path d="M191.432 251.213C191.15 250.947 190.815 250.743 190.448 250.616C190.082 250.489 189.692 250.441 189.306 250.476L183.652 250.91C182.951 250.961 182.296 251.276 181.818 251.791C181.341 252.306 181.076 252.984 181.078 253.686V257.301C181.074 258.043 181.364 258.755 181.884 259.284C182.405 259.812 183.113 260.113 183.854 260.121H184.1L189.754 259.673C190.454 259.618 191.107 259.302 191.584 258.788C192.061 258.273 192.327 257.598 192.328 256.896V253.296C192.332 252.905 192.254 252.519 192.099 252.16C191.945 251.801 191.718 251.479 191.432 251.213ZM189.61 258.212L183.956 258.675C183.769 258.69 183.581 258.666 183.404 258.604C183.227 258.542 183.065 258.443 182.929 258.313C182.786 258.187 182.673 258.031 182.598 257.856C182.523 257.681 182.488 257.491 182.495 257.301V253.701C182.494 253.361 182.622 253.033 182.853 252.784C183.083 252.534 183.4 252.381 183.739 252.356L189.393 251.908H189.508C189.847 251.906 190.174 252.036 190.419 252.269C190.56 252.397 190.671 252.554 190.746 252.728C190.821 252.903 190.857 253.091 190.853 253.281V253.831C190.777 253.815 190.698 253.815 190.622 253.831L189.046 253.932C188.794 253.954 188.56 254.074 188.396 254.266C188.231 254.457 188.147 254.706 188.164 254.959C188.171 255.083 188.203 255.206 188.258 255.318C188.313 255.43 188.39 255.53 188.484 255.612C188.579 255.694 188.688 255.757 188.807 255.796C188.926 255.835 189.051 255.85 189.176 255.841L190.766 255.739H190.839V256.925C190.826 257.253 190.694 257.564 190.467 257.801C190.241 258.038 189.936 258.184 189.61 258.212Z" fill="white"/>
<path d="M142.352 191.942C143.378 194.559 142.959 195.557 143.798 197.9C144.636 200.242 145.591 202.773 146.371 205C148.222 210.263 149.683 214.818 150.84 218.852C154.411 231.317 155.019 255.291 155.019 255.291L203.127 251.922C206.467 207.328 198.789 185.291 198.789 185.291L195.637 185.059C191.964 184.799 185.674 184.423 179.919 184.466C173.136 184.672 166.374 185.314 159.675 186.389C155.163 187.069 147.875 188.255 142.352 191.942Z" fill="#B0BEC5"/>
<path opacity="0.2" d="M189.238 224.13C189.238 224.13 170.903 245.82 154.997 253.918C154.794 248.654 153.912 229.538 150.861 218.852C150.037 215.96 149.053 212.822 147.882 209.352L146.711 200.213C146.711 200.213 153.03 210.335 153.941 219.127C153.941 219.127 175.11 217.681 187.705 210.321L189.238 224.13Z" fill="black"/>
<path d="M178.46 193.952C167.181 191.913 164 186.896 164 186.896C171.548 180.461 166.169 168.358 166.169 168.358L179.704 171.611C179.294 173.518 179.019 175.451 178.879 177.395C178.359 185.695 182.104 185.97 182.104 185.97C184.287 190.525 178.46 193.952 178.46 193.952Z" fill="#EEC1BB"/>
<path opacity="0.2" d="M179.722 171.611C179.313 173.518 179.037 175.45 178.898 177.395C172.391 175.544 166.188 168.416 166.188 168.416L179.722 171.611Z" fill="black"/>
<path d="M178.724 132.844C190.596 133.914 193.849 140.609 193.618 152.929C193.329 168.314 188.962 178.87 174.415 174.272C154.72 168.025 159.058 131.065 178.724 132.844Z" fill="#EEC1BB"/>
<path d="M185.997 151.57C186.791 153.43 187.805 155.187 189.019 156.804C188.626 157.262 188.115 157.604 187.541 157.793C186.968 157.981 186.354 158.009 185.766 157.874L185.997 151.57Z" fill="#D4827D"/>
<path d="M178.825 149.95C178.825 150.919 178.174 151.685 177.524 151.642C176.873 151.599 176.396 150.76 176.468 149.791C176.54 148.822 177.104 148.056 177.755 148.099C178.406 148.143 178.883 148.938 178.825 149.95Z" fill="#263238"/>
<path d="M177.477 148.128L179.66 147.434C179.66 147.434 178.489 149.155 177.477 148.128Z" fill="#263238"/>
<path d="M190.981 150.543C190.981 151.527 190.331 152.278 189.68 152.235C189.029 152.192 188.552 151.367 188.624 150.399C188.697 149.43 189.275 148.663 189.926 148.707C190.577 148.75 191.054 149.574 190.981 150.543Z" fill="#263238"/>
<path d="M189.656 148.736L191.825 148.042C191.825 148.042 190.654 149.762 189.656 148.736Z" fill="#263238"/>
<path d="M174.124 143.588C174.057 143.589 173.991 143.577 173.929 143.552C173.867 143.527 173.81 143.49 173.762 143.443C173.714 143.395 173.675 143.337 173.649 143.274C173.623 143.211 173.609 143.143 173.609 143.075C173.609 143.006 173.623 142.938 173.649 142.875C173.675 142.812 173.714 142.754 173.762 142.706C174.546 142.028 175.477 141.545 176.482 141.293C177.487 141.042 178.537 141.031 179.546 141.26C179.614 141.274 179.678 141.301 179.736 141.339C179.793 141.378 179.841 141.428 179.879 141.486C179.917 141.544 179.943 141.609 179.955 141.677C179.967 141.744 179.966 141.814 179.951 141.882C179.92 142.016 179.838 142.132 179.721 142.205C179.605 142.278 179.464 142.302 179.33 142.272C178.487 142.098 177.616 142.114 176.781 142.319C175.945 142.524 175.166 142.913 174.5 143.458C174.45 143.505 174.391 143.541 174.326 143.564C174.261 143.586 174.192 143.595 174.124 143.588Z" fill="#263238"/>
<path d="M192.759 143.935C192.639 143.932 192.523 143.891 192.427 143.819C191.874 143.301 191.21 142.914 190.487 142.689C189.763 142.463 188.997 142.405 188.248 142.518C188.114 142.549 187.973 142.527 187.854 142.457C187.736 142.387 187.649 142.274 187.612 142.142C187.576 142.01 187.594 141.869 187.662 141.749C187.729 141.63 187.841 141.543 187.973 141.506C188.878 141.34 189.808 141.385 190.693 141.635C191.578 141.886 192.394 142.336 193.077 142.952C193.132 142.994 193.178 143.047 193.212 143.107C193.246 143.167 193.267 143.233 193.275 143.302C193.284 143.371 193.278 143.44 193.259 143.507C193.24 143.573 193.208 143.635 193.164 143.689C193.119 143.757 193.059 143.814 192.989 143.857C192.919 143.899 192.841 143.926 192.759 143.935Z" fill="#263238"/>
<path d="M163.946 151.685C163.946 151.685 170.38 142.431 170.207 134.825C170.207 134.825 194.615 127.32 193.618 151.309C193.618 151.309 197.825 130.313 177.451 128C157.077 125.686 154.489 155.561 164.235 165.408C164.235 165.408 159.969 157.484 163.946 151.685Z" fill="#263238"/>
<path d="M165.662 154.361C165.666 152.976 165.123 151.646 164.15 150.66C163.178 149.674 161.856 149.112 160.471 149.097C156.755 149.097 154.326 156.573 163.363 159.219C164.607 159.595 165.46 158.366 165.662 154.361Z" fill="#EEC1BB"/>
<path d="M184.693 163.398C183.243 163.466 181.811 163.055 180.617 162.23C179.423 161.404 178.533 160.209 178.085 158.829C178.065 158.764 178.058 158.696 178.065 158.629C178.072 158.562 178.092 158.497 178.124 158.437C178.157 158.378 178.201 158.326 178.253 158.284C178.306 158.242 178.367 158.211 178.432 158.192C178.562 158.156 178.702 158.172 178.82 158.237C178.939 158.302 179.028 158.41 179.068 158.539C179.469 159.73 180.256 160.753 181.303 161.447C182.351 162.141 183.599 162.466 184.852 162.371C184.986 162.363 185.117 162.406 185.22 162.493C185.322 162.579 185.387 162.701 185.402 162.834C185.41 162.971 185.365 163.106 185.276 163.211C185.187 163.317 185.061 163.383 184.924 163.398H184.693Z" fill="#263238"/>
<path d="M166.891 181.155L177.476 189.267L180.614 180.591L185.762 184.596L190.432 185.811C190.809 185.91 191.16 186.09 191.46 186.34C191.76 186.59 192.001 186.902 192.167 187.255C192.332 187.609 192.418 187.994 192.418 188.384C192.418 188.774 192.333 189.159 192.167 189.513C189.724 194.747 184.272 205.231 179.833 205.419C175.394 205.607 160.312 195.297 153.733 190.669C153.465 190.475 153.26 190.206 153.143 189.897C153.025 189.587 153 189.25 153.07 188.927C153.141 188.604 153.304 188.308 153.54 188.075C153.775 187.843 154.073 187.684 154.398 187.618L162.741 185.955L166.891 181.155Z" fill="#B0BEC5"/>
<path opacity="0.6" d="M166.891 181.155L177.476 189.267L180.614 180.591L185.762 184.596L190.432 185.811C190.809 185.91 191.16 186.09 191.46 186.34C191.76 186.59 192.001 186.902 192.167 187.255C192.332 187.609 192.418 187.994 192.418 188.384C192.418 188.774 192.333 189.159 192.167 189.513C189.724 194.747 184.272 205.231 179.833 205.419C175.394 205.607 160.312 195.297 153.733 190.669C153.465 190.475 153.26 190.206 153.143 189.897C153.025 189.587 153 189.25 153.07 188.927C153.141 188.604 153.304 188.308 153.54 188.075C153.775 187.843 154.073 187.684 154.398 187.618L162.741 185.955L166.891 181.155Z" fill="white"/>
<path opacity="0.3" d="M162.742 185.941L169.755 195.976L177.477 190.308L184.953 193.952L185.763 184.539L180.615 180.533L177.477 189.267L166.892 181.155L162.742 185.941Z" fill="white"/>
<path d="M177.814 217.71L181.342 222.062L158.047 230.579L158.379 223.104L177.814 217.71Z" fill="#EEC1BB"/>
<path d="M191.825 149.618C191.701 149.616 191.582 149.569 191.489 149.487C191.396 149.405 191.336 149.292 191.319 149.17C190.668 144.051 188.629 140.262 185.246 137.862C179.071 133.524 170.41 135.302 170.323 135.317C170.257 135.332 170.19 135.333 170.123 135.322C170.057 135.31 169.994 135.285 169.937 135.249C169.881 135.213 169.832 135.165 169.794 135.11C169.756 135.055 169.729 134.992 169.716 134.926C169.701 134.861 169.699 134.793 169.711 134.727C169.722 134.661 169.747 134.597 169.783 134.541C169.82 134.484 169.867 134.436 169.922 134.398C169.978 134.36 170.04 134.333 170.106 134.319C170.482 134.319 179.288 132.41 185.824 137.023C189.454 139.583 191.608 143.631 192.346 149.039C192.358 149.173 192.318 149.306 192.235 149.411C192.151 149.517 192.03 149.585 191.897 149.603L191.825 149.618Z" fill="#263238"/>
<path d="M146.563 189.831C137.887 189.542 114.057 226.183 122.227 239.212C130.396 252.24 164.262 231.982 164.262 231.982L161.37 221.007C161.37 221.007 140.49 225.186 139.362 223.147C138.234 221.108 146.592 210.451 146.592 210.451C146.592 210.451 150.539 207.993 149.339 200.112C148.139 192.231 146.563 189.831 146.563 189.831Z" fill="#B0BEC5"/>
<path d="M162.947 234.671L165.665 234.57L164.118 219.127L160.445 219.156L162.947 234.671Z" fill="#B0BEC5"/>
<path d="M287.838 168.329L292.451 171.496L272.482 186.245L270.703 178.972L287.838 168.329Z" fill="#EEC1BB"/>
<path d="M304.593 163.586C303.451 162.299 296.684 157.629 295.238 158.438C293.792 159.248 288.557 167.664 286.938 168.56C286.75 168.662 289.96 174.489 289.96 174.489C291.406 174.601 292.861 174.558 294.298 174.359C295.527 174.026 305.75 164.844 304.593 163.586Z" fill="#EEC1BB"/>
<path d="M198.836 185.29C225.081 187.083 241.854 187.936 251.398 184.466C260.942 180.996 278.511 173.129 278.511 173.129L283.557 182.89C283.557 182.89 252.28 199.215 246.699 199.823C241.117 200.43 200.99 205.404 200.99 205.404L198.836 185.29Z" fill="#B0BEC5"/>
<path d="M183.28 226.125C183.237 226.29 183.231 226.462 183.262 226.629C183.293 226.797 183.361 226.955 183.46 227.093C183.56 227.231 183.688 227.346 183.837 227.428C183.986 227.511 184.151 227.56 184.321 227.571L197.45 229.017C197.816 229.052 198.182 228.955 198.482 228.743C198.782 228.53 198.996 228.217 199.084 227.861L204.868 202.252C204.913 202.077 204.922 201.895 204.894 201.716C204.866 201.538 204.802 201.367 204.706 201.214C204.61 201.061 204.484 200.93 204.335 200.827C204.187 200.725 204.019 200.653 203.842 200.618L190.698 199.172C190.312 199.179 189.94 199.315 189.641 199.559C189.342 199.803 189.133 200.14 189.049 200.517L183.28 226.125Z" fill="#263238"/>
<path opacity="0.5" d="M190.51 200.502L184.726 226.357C184.671 226.505 184.653 226.665 184.671 226.822C184.689 226.979 184.744 227.13 184.831 227.262C184.919 227.395 185.036 227.505 185.173 227.583C185.31 227.662 185.464 227.707 185.622 227.716L196.771 228.931C197.509 229.003 198.926 228.743 199.085 228.02L204.869 202.078C205.042 201.341 203.828 200.632 203.076 200.531L191.941 199.316C191.602 199.314 191.272 199.432 191.01 199.649C190.748 199.866 190.571 200.168 190.51 200.502Z" fill="white"/>
<path d="M195.202 217.898C194.465 216.322 189.288 209.945 187.683 210.321C186.078 210.697 178.675 217.29 176.867 217.681C177.167 219.883 177.577 222.07 178.096 224.231C179.446 224.742 180.847 225.105 182.275 225.316C183.634 225.359 195.969 219.474 195.202 217.898Z" fill="#EEC1BB"/>
<path opacity="0.6" d="M162.947 234.671L165.665 234.57L164.118 219.127L160.445 219.156L162.947 234.671Z" fill="white"/>
<path d="M284.311 185.941L286.654 184.538L277.905 171.712L274.695 173.505L284.311 185.941Z" fill="#B0BEC5"/>
<path opacity="0.6" d="M284.311 185.941L286.654 184.538L277.905 171.712L274.695 173.505L284.311 185.941Z" fill="white"/>
</svg>
