<svg width="26" height="26" viewBox="0 0 26 26" fill="none" xmlns="http://www.w3.org/2000/svg">
<path d="M23.4477 13.3254C23.4477 7.60542 18.811 2.96875 13.091 2.96875C7.37104 2.96875 2.73438 7.60542 2.73438 13.3254C2.73438 19.0454 7.37104 23.682 13.091 23.682" stroke="black" stroke-width="1.5535" stroke-linecap="round" stroke-linejoin="round"/>
<path d="M3.38281 9.70347H22.7912M14.1227 3.02344C14.1227 3.02344 17.2296 7.11431 17.2296 13.3283L14.1227 3.02344ZM12.0513 23.6332C12.0513 23.6332 8.94433 19.5423 8.94433 13.3283C8.94433 7.11431 12.0513 3.02344 12.0513 3.02344V23.6332ZM3.38281 16.9531H13.087H3.38281Z" stroke="black" stroke-width="1.5535" stroke-linecap="round" stroke-linejoin="round"/>
<path d="M23.3227 19.4537C23.8343 19.7685 23.8022 20.5338 23.2761 20.5939L20.6175 20.8953L19.4255 23.2898C19.1893 23.7651 18.4592 23.5321 18.338 22.9438L17.0383 16.6097C16.9357 16.1126 17.3831 15.7998 17.815 16.066L23.3227 19.4537V19.4537Z" stroke="black" stroke-width="1.5535"/>
</svg>
