<svg width="65" height="64" viewBox="0 0 65 64" fill="none" xmlns="http://www.w3.org/2000/svg">
<path d="M58.3157 45.2267L49.9691 25.7333C47.1424 19.12 41.9424 18.8533 38.4491 25.1467L33.4091 34.24C30.8491 38.8533 26.0757 39.2533 22.7691 35.12L22.1824 34.3733C18.7424 30.0533 13.8891 30.5867 11.4091 35.52L6.82241 44.72C3.59574 51.12 8.26241 58.6667 15.4091 58.6667H49.4357C56.3691 58.6667 61.0357 51.6 58.3157 45.2267Z" stroke="#2E2E2E" stroke-width="1.5" stroke-linecap="round" stroke-linejoin="round"/>
<path d="M19.0859 21.3335C23.5042 21.3335 27.0859 17.7518 27.0859 13.3335C27.0859 8.91522 23.5042 5.3335 19.0859 5.3335C14.6677 5.3335 11.0859 8.91522 11.0859 13.3335C11.0859 17.7518 14.6677 21.3335 19.0859 21.3335Z" stroke="#2E2E2E" stroke-width="1.5" stroke-linecap="round" stroke-linejoin="round"/>
</svg>
