<svg width="24" height="24" viewBox="0 0 24 24" fill="none" xmlns="http://www.w3.org/2000/svg">
<path d="M12.0105 5.88534C11.7995 5.88534 11.5907 5.8961 11.3851 5.91717C11.1794 5.93824 10.9766 5.96945 10.7772 6.01042C10.5778 6.0514 10.382 6.10215 10.1901 6.16205L9.62682 6.36887L9.09054 6.62782L8.58447 6.93575L8.11162 7.28944L7.67529 7.68579L7.27855 8.12174L6.92449 8.59405L6.61617 9.09965L6.35707 9.63532C6.27919 9.81854 6.2099 10.0064 6.14994 10.1981C6.08997 10.3899 6.03922 10.5856 5.99815 10.7848C5.9571 10.9839 5.92589 11.1865 5.90474 11.392C5.8836 11.5976 5.87299 11.8061 5.87299 12.0169C5.87299 12.2277 5.88375 12.4362 5.90474 12.6417C5.92562 12.8456 5.95679 13.0483 5.99815 13.2491C6.03922 13.449 6.08997 13.644 6.14994 13.8357C6.2099 14.0275 6.2791 14.2152 6.35707 14.3985L6.61617 14.9342L6.92449 15.4397L7.27855 15.9121L7.67529 16.3481L8.11162 16.7445L8.58447 17.0981L9.09054 17.406L9.62682 17.665L10.1901 17.8718L10.7772 18.0235C10.9781 18.0648 11.181 18.096 11.3851 18.1168C11.5929 18.138 11.8017 18.1486 12.0105 18.1485C12.2216 18.1485 12.4303 18.1378 12.6359 18.1168C12.84 18.096 13.0429 18.0648 13.2438 18.0235L13.831 17.8718L14.3943 17.665L14.9305 17.406L15.4366 17.0981L15.9095 16.7445L16.3459 16.3481L16.7427 15.9121L17.0967 15.4397L17.405 14.9342L17.6642 14.3985L17.8712 13.8357C17.9312 13.644 17.982 13.4482 18.023 13.2491L18.1163 12.6417C18.1375 12.4362 18.1482 12.2276 18.1482 12.0168C18.1482 11.806 18.1375 11.5975 18.1163 11.392C18.0955 11.1881 18.0643 10.9854 18.023 10.7847C17.982 10.5848 17.9312 10.3899 17.8712 10.1981L17.6642 9.63525L17.405 9.09957L17.0967 8.59397L16.7427 8.12165L16.3459 7.6857L15.9095 7.28935L15.4366 6.93569L14.9305 6.62775L14.3943 6.3688L13.831 6.16197L13.2438 6.01035L12.6359 5.91709C12.4282 5.89587 12.2194 5.88524 12.0105 5.88525V5.88534ZM12.0105 8.00172C12.1501 8.00172 12.2878 8.00864 12.4234 8.02232L12.8232 8.08284L13.2094 8.18124L13.5793 8.31557L13.9309 8.48395L14.2615 8.68424L14.5706 8.91467L14.8555 9.17315L15.1142 9.45779L15.3449 9.76657L15.5454 10.0976L15.7138 10.449C15.7644 10.5693 15.8093 10.6925 15.8483 10.8185C15.8874 10.9446 15.9202 11.0733 15.9468 11.2045C15.9733 11.3357 15.9929 11.4692 16.0073 11.6047L16.0279 12.0173C16.0279 12.1567 16.021 12.2943 16.0073 12.4299C15.9936 12.5656 15.9734 12.699 15.9468 12.8301C15.9201 12.9612 15.8872 13.09 15.8483 13.2161L15.7138 13.5856L15.5454 13.937L15.3449 14.268L15.1142 14.5768L14.8555 14.8615L14.5706 15.12L14.2615 15.3504L13.9309 15.5507L13.5793 15.7191L13.2094 15.8534L12.8232 15.9518L12.4234 16.0122C12.2862 16.026 12.1484 16.0329 12.0105 16.0328C11.8725 16.0329 11.7347 16.026 11.5974 16.0122L11.1976 15.9518C11.0664 15.9252 10.9375 15.8923 10.8113 15.8534L10.4415 15.7191L10.0899 15.5507L9.7593 15.3504L9.45022 15.12L9.16527 14.8615L8.90655 14.5768L8.67589 14.268L8.47537 13.937L8.30699 13.5856L8.17244 13.2161L8.07402 12.8301L8.01352 12.4299C7.99975 12.2928 7.99287 12.1551 7.9929 12.0173C7.99287 11.8795 7.99975 11.7418 8.01352 11.6047C8.02712 11.4692 8.04734 11.3356 8.07402 11.2045C8.10044 11.0743 8.1333 10.9455 8.17252 10.8186L8.30707 10.4491L8.47545 10.0977L8.67597 9.76665L8.90662 9.45787L9.16535 9.17324L9.45029 8.91474L9.75937 8.68432L10.09 8.48402L10.4416 8.31564C10.5626 8.26482 10.6861 8.21999 10.8115 8.18132L11.1978 8.0829C11.329 8.0563 11.4627 8.036 11.5976 8.0224C11.7348 8.00865 11.8727 8.00177 12.0106 8.00179L12.0105 8.00172Z" fill="url(#paint0_radial_1439_12561)"/>
<path d="M18.397 4.14111C18.3483 4.14111 18.2997 4.14358 18.2512 4.1485C18.2027 4.1534 18.1545 4.16073 18.1067 4.17048C18.059 4.18023 18.0117 4.19236 17.9652 4.20685C17.9185 4.22135 17.8728 4.23818 17.8278 4.25728C17.783 4.27641 17.7392 4.2978 17.6963 4.32133C17.6535 4.34483 17.612 4.37046 17.5718 4.39815C17.5315 4.42585 17.4927 4.45556 17.4555 4.48718C17.4182 4.51876 17.3825 4.5522 17.3485 4.58736C17.3147 4.62255 17.2825 4.65943 17.2522 4.69785C17.2218 4.73628 17.1935 4.7762 17.1672 4.81748C17.1408 4.85873 17.1167 4.90128 17.0945 4.94496C17.0725 4.98868 17.0525 5.03348 17.0348 5.07921C17.0172 5.12491 17.0018 5.1715 16.9887 5.21875C16.9757 5.26601 16.965 5.3139 16.9568 5.36223C16.9485 5.41055 16.9427 5.45925 16.9392 5.50816C16.9367 5.5428 16.9355 5.57753 16.9355 5.61226C16.9355 5.66133 16.9378 5.71036 16.9428 5.7592C16.9477 5.808 16.955 5.85651 16.9647 5.90458C16.9743 5.95265 16.9863 6.0002 17.0007 6.04705C17.0152 6.09391 17.0318 6.14003 17.0508 6.18521C17.0698 6.23041 17.091 6.27463 17.1145 6.3177C17.1378 6.36075 17.1633 6.4026 17.1908 6.4431C17.2183 6.48356 17.2478 6.52261 17.2792 6.56011C17.3107 6.59765 17.3438 6.63358 17.3788 6.66776C17.4138 6.70193 17.4503 6.73431 17.4887 6.7648C17.5268 6.7953 17.5665 6.82385 17.6075 6.85036C17.6485 6.87688 17.6908 6.90131 17.7342 6.92356C17.7777 6.94583 17.8222 6.9659 17.8675 6.98368C17.913 7.00146 17.9592 7.01693 18.0062 7.03005C18.0532 7.04315 18.1007 7.05388 18.1487 7.06218C18.1967 7.07053 18.2452 7.07646 18.2937 7.07995C18.3282 7.08241 18.3627 7.08363 18.3972 7.08365C18.4458 7.08365 18.4947 7.08121 18.5432 7.07633C18.5915 7.07143 18.6398 7.0641 18.6875 7.05435C18.7353 7.04461 18.7825 7.03246 18.8292 7.01798C18.8757 7.00348 18.9215 6.98665 18.9663 6.96755C19.0112 6.94843 19.0552 6.92708 19.0978 6.90356C19.1407 6.88005 19.1822 6.85438 19.2225 6.82668C19.2627 6.799 19.3015 6.76931 19.3388 6.73773C19.376 6.70611 19.4117 6.67266 19.4457 6.63746C19.4797 6.60228 19.5118 6.5654 19.542 6.52698C19.5723 6.48855 19.6007 6.44863 19.627 6.40735C19.6533 6.36608 19.6777 6.3235 19.6997 6.2798C19.7218 6.23606 19.7418 6.19126 19.7595 6.14555C19.7772 6.09983 19.7925 6.05326 19.8055 6.006C19.8185 5.95875 19.8292 5.91086 19.8375 5.86253C19.8458 5.81421 19.8517 5.7655 19.855 5.7166C19.8575 5.68195 19.8588 5.64723 19.8588 5.6125C19.8588 5.56345 19.8563 5.51443 19.8515 5.46563C19.8467 5.41683 19.8393 5.36831 19.8297 5.32025C19.82 5.27218 19.8078 5.22463 19.7935 5.17778C19.779 5.13091 19.7623 5.0848 19.7433 5.03961C19.7243 4.99441 19.7032 4.9502 19.6798 4.90713C19.6565 4.86408 19.631 4.82223 19.6035 4.78173C19.5758 4.74123 19.5463 4.70216 19.515 4.66463C19.4835 4.62711 19.4503 4.59118 19.4155 4.557C19.3805 4.52283 19.3438 4.49045 19.3057 4.45996C19.2675 4.42948 19.2278 4.40095 19.1868 4.37446C19.1458 4.34795 19.1035 4.32351 19.06 4.30126C19.0165 4.279 18.972 4.25893 18.9267 4.24115C18.8813 4.22336 18.835 4.2079 18.788 4.19478C18.7412 4.18165 18.6935 4.1709 18.6455 4.16256C18.5975 4.15425 18.5492 4.14833 18.5005 4.14488C18.466 4.14241 18.4315 4.1412 18.397 4.1412V4.14111Z" fill="url(#paint1_radial_1439_12561)"/>
<path d="M10.8467 0.021708C10.1792 0.0206315 9.58344 0.0233992 9.04831 0.030934L7.61361 0.0693773C7.18858 0.08783 6.81306 0.111894 6.47599 0.143033C6.30746 0.158564 6.14846 0.17594 5.99776 0.195085C5.85434 0.21316 5.71134 0.234207 5.56881 0.25821C5.43309 0.281277 5.30431 0.306187 5.18083 0.33325C5.05736 0.360315 4.93941 0.389532 4.82561 0.420902C4.71438 0.451577 4.60399 0.485319 4.49463 0.522085C4.38744 0.558222 4.28288 0.596512 4.17961 0.637415C3.97309 0.719223 3.77166 0.811023 3.56421 0.913898C3.40459 0.993092 3.25713 1.07328 3.11704 1.15817C2.97696 1.24305 2.84424 1.3327 2.71431 1.43035C2.58049 1.5314 2.45151 1.6387 2.32781 1.75189C2.19848 1.86968 2.06639 1.99923 1.92914 2.14401C1.75669 2.32493 1.60684 2.49361 1.47382 2.65914C1.40732 2.74188 1.34504 2.82369 1.28637 2.90596C1.22836 2.98703 1.1729 3.06991 1.12007 3.15444C1.06779 3.23826 1.01827 3.32361 0.970907 3.41141C0.922807 3.50073 0.877347 3.59144 0.834587 3.68343C0.74709 3.87134 0.665437 4.07371 0.583937 4.29961C0.523475 4.46659 0.469333 4.63583 0.421628 4.80689C0.37296 4.98174 0.329673 5.16466 0.291075 5.36248C0.252478 5.56031 0.218802 5.77306 0.1892 6.00833C0.157302 6.26623 0.131819 6.52488 0.112775 6.78404C0.0912473 7.06898 0.0734097 7.38253 0.0588012 7.73151L0.0242023 8.89189L0.00559566 10.3064L0.000213623 12.0161L0.0159754 14.5024L0.0651828 16.3861L0.103088 17.1218L0.15045 17.7317C0.165633 17.896 0.184629 18.0598 0.207423 18.2233C0.228182 18.3685 0.25048 18.4955 0.274468 18.6055C0.323143 18.829 0.3807 19.0505 0.447002 19.2695C0.510485 19.4792 0.583083 19.6858 0.66459 19.8892C0.744707 20.0883 0.832357 20.2803 0.927697 20.4652C1.02304 20.65 1.12606 20.8277 1.23678 20.9983C1.3475 21.1688 1.4659 21.3325 1.59231 21.4892C1.71856 21.6458 1.85286 21.7957 1.99466 21.9385C2.13666 22.0815 2.28644 22.2175 2.44429 22.3468C2.60399 22.4777 2.77003 22.6007 2.94174 22.7152C3.10113 22.8217 3.25883 22.9193 3.41768 23.0088C3.57651 23.0985 3.73674 23.1797 3.90144 23.2537C4.06613 23.3275 4.23498 23.394 4.41136 23.4538C4.58773 23.5137 4.77149 23.5668 4.96571 23.614C5.15993 23.6613 5.36551 23.7027 5.58311 23.7388C5.80069 23.775 6.03328 23.806 6.28178 23.8327C6.53028 23.8593 6.79538 23.8813 7.08024 23.8998C7.36511 23.9183 7.66958 23.933 7.99673 23.9448C8.50211 23.9632 9.26713 23.9738 10.1493 23.978L13.0053 23.9722L15.7097 23.9343L16.738 23.9053L17.4078 23.871C17.5517 23.8592 17.6923 23.8453 17.8282 23.8292C17.964 23.813 18.0978 23.7945 18.2283 23.7733C18.3587 23.7523 18.4862 23.7288 18.6113 23.7027C18.7352 23.6768 18.8583 23.648 18.9807 23.6163C19.1018 23.5855 19.2213 23.5505 19.3397 23.5133C19.4578 23.4763 19.575 23.4362 19.6913 23.393C19.8083 23.3497 19.9242 23.3035 20.039 23.2547C20.1545 23.2053 20.2698 23.1528 20.3857 23.097C20.5635 23.0113 20.7067 22.9398 20.8323 22.8702C20.9507 22.8053 21.0645 22.7328 21.1733 22.653C21.2807 22.574 21.3873 22.484 21.5103 22.3707C21.6333 22.2573 21.7728 22.1208 21.9453 21.9482C22.0972 21.7965 22.225 21.6647 22.3353 21.5448C22.4457 21.425 22.5387 21.3172 22.6202 21.2132C22.6978 21.1145 22.7702 21.0118 22.837 20.9055C22.9022 20.8017 22.9622 20.6938 23.0232 20.5743C23.1152 20.3945 23.197 20.2278 23.2702 20.067C23.3413 19.9122 23.4063 19.7543 23.465 19.5943C23.5228 19.4355 23.573 19.274 23.6152 19.1103C23.6585 18.942 23.6958 18.7642 23.7282 18.5692C23.7603 18.3742 23.7877 18.162 23.8113 17.925C23.835 17.6882 23.8552 17.4262 23.8728 17.132L23.9198 16.1442L23.96 14.9158L23.9888 13.5472L23.9998 12.1162L23.9742 9.30561L23.9398 8.04674L23.893 6.96588L23.8345 6.12319C23.8133 5.88869 23.7903 5.70401 23.7662 5.57914C23.7392 5.44118 23.7092 5.30386 23.676 5.16726C23.6437 5.03436 23.6082 4.90226 23.5695 4.77108C23.5318 4.64326 23.4908 4.51643 23.4467 4.39071C23.403 4.26654 23.3567 4.14498 23.3082 4.02604C23.2598 3.90709 23.2073 3.79093 23.1528 3.67721C23.0982 3.56349 23.041 3.45254 22.981 3.34413C22.9208 3.23573 22.8583 3.13001 22.7928 3.02689C22.7275 2.92379 22.6593 2.82329 22.5883 2.72549C22.5178 2.62801 22.4442 2.53276 22.3677 2.43986C22.2915 2.34749 22.2125 2.25754 22.1307 2.17014C22.049 2.08288 21.9645 1.99821 21.8775 1.91628C21.7903 1.83431 21.7007 1.75496 21.6082 1.67823C21.5152 1.60124 21.42 1.52717 21.3223 1.4561C21.2238 1.38432 21.1232 1.31555 21.0203 1.2499C20.9162 1.18331 20.8102 1.11982 20.7022 1.05952C20.5925 0.998214 20.4808 0.940062 20.3678 0.885144C20.18 0.793879 20.0063 0.712919 19.836 0.641107C19.6683 0.569837 19.4975 0.506539 19.324 0.451427C19.1495 0.396452 18.9678 0.349322 18.768 0.308648C18.568 0.267975 18.35 0.234068 18.1033 0.205235C17.8567 0.176403 17.5812 0.153107 17.266 0.133732C16.951 0.114356 16.5966 0.0991317 16.1919 0.0868298L14.8167 0.0560757L13.0762 0.035547L10.8475 0.0218605L10.8467 0.021708ZM12.0042 2.13624L15.2183 2.15454L16.4308 2.17791C16.7647 2.18729 17.0195 2.19829 17.1688 2.21098C17.3635 2.22736 17.5487 2.24788 17.726 2.27249C17.896 2.29598 18.0653 2.32518 18.2333 2.36006C18.3948 2.39389 18.5488 2.43233 18.6963 2.47569C18.8437 2.51906 18.9845 2.56766 19.1195 2.62139C19.2547 2.67514 19.3838 2.73426 19.5082 2.79901C19.6315 2.86326 19.7513 2.93396 19.8672 3.01083C19.9825 3.08733 20.0937 3.16976 20.2017 3.25856C20.3095 3.34736 20.4142 3.44254 20.5163 3.54434C20.6243 3.65176 20.7238 3.76116 20.8155 3.87403C20.9068 3.98621 20.9915 4.10378 21.0687 4.22609C21.1468 4.35016 21.2172 4.47894 21.2795 4.61168C21.3432 4.74701 21.4003 4.89001 21.4517 5.04201C21.5032 5.19403 21.5488 5.35556 21.5893 5.52818C21.6318 5.71118 21.6673 5.89571 21.696 6.08138C21.7267 6.27821 21.753 6.48811 21.7753 6.71284C21.7975 6.93758 21.816 7.17724 21.8312 7.43366C21.8433 7.63933 21.854 7.91074 21.863 8.23128L21.8855 9.32423L21.9027 12.0014L21.8832 14.6761L21.8597 15.7659L21.8272 16.5585C21.8048 16.9297 21.7812 17.2417 21.7528 17.5132C21.7387 17.649 21.7232 17.7747 21.7062 17.8925C21.6902 18.0038 21.6712 18.1147 21.6493 18.225C21.6293 18.3257 21.6062 18.4257 21.5797 18.525C21.5545 18.6195 21.526 18.7133 21.4945 18.8062C21.4627 18.8993 21.4282 18.9915 21.3908 19.0825C21.3513 19.1788 21.3097 19.274 21.2658 19.3683C21.2268 19.4525 21.1858 19.5345 21.1425 19.6142C21.0997 19.6932 21.054 19.7705 21.006 19.8463C20.9583 19.9215 20.9083 19.9945 20.856 20.0652C20.804 20.1355 20.7495 20.204 20.6925 20.2705C20.6358 20.3368 20.5767 20.4008 20.5152 20.4628C20.4537 20.5247 20.3898 20.5843 20.3237 20.642C20.2577 20.6997 20.189 20.7552 20.118 20.8085C20.0472 20.8618 19.9737 20.913 19.8978 20.962C19.8218 21.0112 19.7437 21.0582 19.6628 21.1032C19.582 21.148 19.4987 21.1908 19.413 21.2317C19.3257 21.2732 19.2373 21.312 19.1477 21.3482C19.0552 21.3855 18.9617 21.4202 18.8672 21.4523C18.6748 21.5178 18.4722 21.5753 18.2587 21.6248C18.0363 21.6763 17.8118 21.7183 17.5858 21.7508C17.4988 21.7635 17.2992 21.7755 17.0132 21.7865L15.9233 21.8168L12.8332 21.857L9.59889 21.862L8.32873 21.8485L7.50396 21.8228L6.89579 21.78C6.70696 21.7642 6.53134 21.7465 6.36681 21.7263C6.20228 21.7063 6.04904 21.684 5.90488 21.6587C5.76826 21.6352 5.63248 21.6068 5.49776 21.5742C5.37493 21.5443 5.25334 21.5095 5.13333 21.4698C5.01761 21.4313 4.90696 21.389 4.79933 21.3425C4.69168 21.296 4.58711 21.245 4.48354 21.1893C4.37998 21.1337 4.27749 21.0733 4.17384 21.0073C4.09566 20.9577 4.02008 20.9073 3.94734 20.8542C3.87461 20.8008 3.80433 20.7477 3.73668 20.692C3.66901 20.6363 3.60404 20.579 3.54138 20.52C3.47913 20.4612 3.41903 20.4002 3.36116 20.3372C3.30349 20.2742 3.24836 20.2095 3.19546 20.1425C3.14236 20.0752 3.09176 20.0058 3.04378 19.9348C2.99506 19.8627 2.94898 19.7888 2.90561 19.7135C2.86178 19.6373 2.82011 19.5587 2.78051 19.4773C2.74024 19.3947 2.70268 19.3107 2.66788 19.2255C2.63251 19.1387 2.59898 19.0492 2.56746 18.9568C2.50441 18.7718 2.44906 18.575 2.40093 18.3652C2.35279 18.1553 2.31173 17.9323 2.27698 17.6947C2.24223 17.4572 2.21424 17.2052 2.19194 16.9375C2.17549 16.7403 2.16243 16.4332 2.15243 16.0456L2.13151 14.6675L2.13919 11.1541L2.19971 7.79694L2.24584 6.61413L2.27198 6.22314C2.28106 6.11874 2.29044 6.04139 2.30004 5.99494C2.33173 5.84218 2.36363 5.70001 2.39661 5.56693C2.42743 5.44136 2.46171 5.31669 2.49941 5.19303C2.53524 5.07631 2.57299 4.96698 2.61336 4.86341C2.65228 4.76308 2.69566 4.66454 2.74338 4.56809C2.78996 4.47429 2.84003 4.38448 2.89438 4.29706C2.94874 4.20964 3.00741 4.12484 3.07138 4.04049C3.13534 3.95614 3.20423 3.87288 3.27919 3.78846C3.35416 3.70404 3.43513 3.61878 3.52293 3.53089C3.62526 3.42798 3.73181 3.32934 3.84231 3.23526C3.94666 3.14649 4.05546 3.06311 4.16831 2.98546C4.27926 2.90856 4.39306 2.84014 4.51154 2.77724C4.63003 2.71436 4.75319 2.65753 4.88274 2.60641C5.01229 2.55528 5.14839 2.50953 5.29254 2.46801C5.44401 2.42553 5.59714 2.38928 5.75156 2.35936C5.91394 2.32754 6.08641 2.29978 6.27054 2.27556C6.45469 2.25134 6.65059 2.23043 6.86004 2.21228C7.00613 2.19968 7.25784 2.18844 7.58931 2.17899L8.79566 2.15516L12.0048 2.13554L12.0042 2.13624Z" fill="url(#paint2_radial_1439_12561)"/>
<defs>
<radialGradient id="paint0_radial_1439_12561" cx="0" cy="0" r="1" gradientUnits="userSpaceOnUse" gradientTransform="translate(3.82372 25.7241) rotate(-9.53101) scale(50.723 30.7885)">
<stop stop-color="#FED576"/>
<stop offset="0.263" stop-color="#F47133"/>
<stop offset="0.609" stop-color="#BC3081"/>
<stop offset="1" stop-color="#4C63D2"/>
</radialGradient>
<radialGradient id="paint1_radial_1439_12561" cx="0" cy="0" r="1" gradientUnits="userSpaceOnUse" gradientTransform="translate(3.82375 25.7242) rotate(-9.53102) scale(50.723 30.7885)">
<stop stop-color="#FED576"/>
<stop offset="0.263" stop-color="#F47133"/>
<stop offset="0.609" stop-color="#BC3081"/>
<stop offset="1" stop-color="#4C63D2"/>
</radialGradient>
<radialGradient id="paint2_radial_1439_12561" cx="0" cy="0" r="1" gradientUnits="userSpaceOnUse" gradientTransform="translate(3.82378 25.7243) rotate(-9.53101) scale(50.723 30.7885)">
<stop stop-color="#FED576"/>
<stop offset="0.263" stop-color="#F47133"/>
<stop offset="0.609" stop-color="#BC3081"/>
<stop offset="1" stop-color="#4C63D2"/>
</radialGradient>
</defs>
</svg>
