<svg width="24" height="24" viewBox="0 0 24 24" fill="none" xmlns="http://www.w3.org/2000/svg">
<path d="M22.8092 22.4509C22.8607 22.4516 22.9117 22.4398 22.9592 22.4163C23.0066 22.3928 23.0493 22.3581 23.0848 22.3144C23.1203 22.2706 23.1479 22.2189 23.1656 22.1621C23.1834 22.1054 23.1909 22.0451 23.1879 21.9848C23.1879 21.6541 23.0181 21.4961 22.6693 21.4961H22.1058V23.2273H22.3178V22.4726H22.5781L22.5841 22.4819L22.9883 23.2273H23.2149L22.7801 22.4558L22.8092 22.4509ZM22.5641 22.2776H22.3184V21.6924H22.6298C22.7907 21.6924 22.9742 21.7233 22.9742 21.9704C22.9742 22.2548 22.7886 22.2776 22.5628 22.2776" fill="#0A66C2"/>
<path d="M17.2809 20.2815H14.2757V14.7581C14.2757 13.4411 14.2557 11.7456 12.7127 11.7456C11.1475 11.7456 10.908 13.1806 10.908 14.6622V20.2811H7.90284V8.92291H10.7878V10.4751H10.8282C11.1169 9.89577 11.5341 9.41916 12.0354 9.09607C12.5367 8.77297 13.1032 8.61549 13.6747 8.64039C16.7206 8.64039 17.2822 10.9917 17.2822 14.0505L17.2809 20.2815ZM4.51199 7.37032C4.16707 7.37041 3.82987 7.25044 3.54304 7.02559C3.25621 6.80076 3.03265 6.48116 2.9006 6.10719C2.76855 5.73322 2.73395 5.32171 2.80117 4.92467C2.8684 4.52764 3.03444 4.16291 3.27831 3.87662C3.52215 3.59032 3.83286 3.39534 4.17115 3.31629C4.50943 3.23724 4.86008 3.27771 5.17876 3.43254C5.49745 3.58739 5.76986 3.84966 5.96153 4.18621C6.15322 4.52274 6.25557 4.91844 6.25563 5.32324C6.25567 5.59202 6.21059 5.85817 6.12299 6.10651C6.03538 6.35486 5.90697 6.58051 5.74507 6.77059C5.58316 6.96069 5.39092 7.11149 5.17933 7.21439C4.96776 7.31729 4.74101 7.37027 4.51199 7.37032ZM6.01458 20.2815H3.00627V8.92291H6.01458V20.2815ZM18.7792 0.00162171H1.49616C1.10389 -0.00357365 0.725883 0.174219 0.445248 0.49593C0.164611 0.817642 0.00429922 1.25695 -0.000488281 1.71732V22.085C0.00413537 22.5456 0.164353 22.9851 0.444979 23.3073C0.725606 23.6293 1.10369 23.8075 1.49616 23.8025H18.7792C19.1724 23.8083 19.5516 23.6306 19.8333 23.3086C20.1149 22.9866 20.2763 22.5465 20.2818 22.085V1.71586C20.2761 1.25457 20.1146 0.814759 19.833 0.493055C19.5513 0.171352 19.1723 -0.00593225 18.7792 0.000151565" fill="#0A66C2"/>
<path d="M22.5898 20.7246C22.2242 20.7288 21.8748 20.9026 21.6181 21.2083C21.3614 21.5139 21.2184 21.9264 21.2201 22.3556C21.2219 22.7846 21.3683 23.1954 21.6275 23.4981C21.8867 23.8009 22.2374 23.9708 22.6031 23.9708C22.9688 23.9708 23.3194 23.8009 23.5786 23.4981C23.8378 23.1954 23.9843 22.7846 23.986 22.3556C23.9879 21.9264 23.8447 21.5139 23.5881 21.2083C23.3314 20.9026 22.982 20.7288 22.6163 20.7246H22.5898ZM22.5898 23.7849C22.3499 23.7898 22.1143 23.7108 21.9128 23.5583C21.7112 23.4059 21.5525 23.1866 21.4571 22.9284C21.3617 22.6701 21.3335 22.3844 21.3764 22.1076C21.4193 21.8306 21.5312 21.5748 21.6979 21.3724C21.8647 21.1701 22.0788 21.0303 22.3133 20.9708C22.5477 20.9113 22.7919 20.9348 23.015 21.0381C23.2381 21.1414 23.4301 21.3203 23.5665 21.5516C23.7032 21.7831 23.7781 22.0568 23.7821 22.3383C23.7821 22.3463 23.7821 22.3541 23.7821 22.3621C23.7889 22.7313 23.6704 23.0886 23.4526 23.3553C23.2351 23.6219 22.936 23.7763 22.6215 23.7843H22.5901" fill="#0A66C2"/>
</svg>
