<svg width="25" height="25" viewBox="0 0 25 25" fill="none" xmlns="http://www.w3.org/2000/svg">
<path fill-rule="evenodd" clip-rule="evenodd" d="M24.02 12.7749C24.02 11.9239 23.9436 11.1058 23.8018 10.3203H12.5V14.9621H18.9582C18.68 16.4621 17.8345 17.733 16.5636 18.5839V21.5949H20.4418C22.7109 19.5058 24.02 16.4294 24.02 12.7749Z" fill="#4285F4"/>
<path fill-rule="evenodd" clip-rule="evenodd" d="M12.4971 24.5012C15.7371 24.5012 18.4534 23.4267 20.4389 21.594L16.5607 18.5831C15.4862 19.3031 14.1116 19.7285 12.4971 19.7285C9.37162 19.7285 6.72616 17.6176 5.78253 14.7812H1.77344V17.8903C3.74798 21.8122 7.80617 24.5012 12.4971 24.5012Z" fill="#34A853"/>
<path fill-rule="evenodd" clip-rule="evenodd" d="M5.78545 14.7785C5.54545 14.0585 5.40909 13.2894 5.40909 12.4985C5.40909 11.7076 5.54545 10.9385 5.78545 10.2185V7.10938H1.77636C0.963636 8.72938 0.5 10.5621 0.5 12.4985C0.5 14.4348 0.963636 16.2676 1.77636 17.8876L5.78545 14.7785Z" fill="#FBBC05"/>
<path fill-rule="evenodd" clip-rule="evenodd" d="M12.4971 5.27273C14.2589 5.27273 15.8407 5.87818 17.0843 7.06727L20.5262 3.62545C18.448 1.68909 15.7316 0.5 12.4971 0.5C7.80617 0.5 3.74798 3.18909 1.77344 7.11091L5.78253 10.22C6.72616 7.38364 9.37162 5.27273 12.4971 5.27273Z" fill="#EA4335"/>
</svg>
