<svg width="141" height="37" viewBox="0 0 141 37" fill="none" xmlns="http://www.w3.org/2000/svg">
<path d="M9.02097 7.71481H7.31331V23.93C6.88669 24.1138 6.46122 24.2941 6.03808 24.4743C6.03808 24.4743 4.22608 25.3803 2.57812 26.4086V2.98193H8.73984C8.70893 3.64931 8.70757 4.31707 8.73578 4.98522C8.77266 5.90022 8.86792 6.81194 9.02097 7.71481V7.71481Z" fill="#45356D"/>
<path d="M35.7172 11.4373V36.112H2.58594V27.7007C4.03101 26.9251 5.832 26.0116 7.31881 25.4325V31.3786H8.3419C8.19582 31.6607 8.04125 31.9555 7.87817 32.2631C8.02251 32.0046 8.19235 31.7061 8.38247 31.3786H30.989V16.1719C30.9892 15.061 30.7705 13.961 30.3454 12.9346C29.9203 11.9082 29.2971 10.9757 28.5114 10.1903C27.7257 9.40491 26.793 8.78203 25.7665 8.35727C24.74 7.93251 23.6398 7.7142 22.5289 7.71481H15.7226C14.6352 6.32364 13.251 4.55048 12.0227 2.98193H27.2618C29.5043 2.98193 31.655 3.87277 33.2407 5.45846C34.8264 7.04416 35.7172 9.19483 35.7172 11.4373Z" fill="#45356D"/>
<path d="M13.3594 20.1968C13.1385 20.6703 12.3131 21.1648 11.7265 21.5166C11.5188 20.8393 11.4135 20.1348 11.4141 19.4264V19.4264C11.4122 18.1882 11.7356 16.9713 12.352 15.8975C12.6433 16.4853 12.8725 17.1019 13.0359 17.7373C13.189 18.3268 13.6243 19.6304 13.3594 20.1968Z" fill="#45356D"/>
<path d="M27.0913 19.557C27.0915 20.6169 26.883 21.6664 26.4775 22.6457C26.0721 23.625 25.4777 24.5148 24.7283 25.2644C23.9789 26.0139 23.0892 26.6085 22.11 27.0142C21.1308 27.4198 20.0813 27.6286 19.0214 27.6286C16.7926 27.6286 15.3243 26.7777 13.8625 25.3176C13.6978 25.1529 13.5406 24.9816 13.3906 24.8034C14.3094 24.0139 15.0386 23.385 15.7545 23.5948C16.3718 23.7763 17.2888 23.4644 17.8186 23.2436C19.015 22.7451 19.8161 22.1915 20.9331 21.5371C21.6524 21.1151 22.3416 20.6624 23.1085 20.3459C23.5299 20.172 26.1807 19.4005 26.2473 19.037C26.3801 18.3159 24.8092 18.2956 24.7773 18.1519C24.7773 18.1519 24.5936 15.7881 19.9981 17.1421C19.9981 17.1421 20.0224 14.0207 18.9663 11.3694C19.0822 11.3641 19.1982 11.3618 19.3141 11.3618C23.774 11.3612 27.0913 15.1006 27.0913 19.557Z" fill="#45356D"/>
<path d="M24.2144 18.4272C24.2144 18.4272 23.7461 16.3404 19.703 17.5334C19.703 17.5334 19.7702 14.7875 18.8416 12.4544C18.4938 11.5797 18.0046 10.7624 17.32 10.1706C17.32 10.1706 14.1899 6.15882 11.7026 2.9829C10.7624 1.78186 9.91208 0.700222 9.36198 0C9.46574 0.131581 9.16432 1.208 9.14404 1.38016C9.08105 1.91228 9.03738 2.44633 9.01303 2.98232C8.98212 3.64969 8.98077 4.31745 9.00898 4.9856C9.10752 7.35001 9.56023 9.7318 10.5555 11.8887C11.1659 13.2115 12.0678 14.3627 12.7796 15.6275C12.8521 15.7561 12.9216 15.8866 12.9871 16.0181C13.2784 16.606 13.5076 17.2226 13.6711 17.858C13.8242 18.4492 14.2589 19.7529 13.9946 20.3192C13.7737 20.7922 12.9483 21.2866 12.3617 21.639C12.2237 21.7214 12.0997 21.7956 11.9988 21.8605C10.1613 23.0441 8.04733 23.909 6.04289 24.7674C6.04289 24.7674 4.23089 25.6734 2.58294 26.7017C1.37378 27.4565 0.252149 28.2767 0 28.8528C0.0220268 28.8401 1.11815 28.1949 2.58294 27.4083C5.45222 25.8682 9.7347 23.7861 10.1283 24.8526C10.1283 24.8526 11.9252 24.6961 7.87286 32.2635C8.9742 30.2996 11.5108 26.0091 13.7134 24.1165C14.5215 23.4209 15.2843 23.0505 15.9161 23.2354C16.4593 23.3948 17.3264 22.9381 17.7925 22.7439C18.8457 22.3056 19.8514 21.7492 20.8339 21.1736C21.4669 20.802 22.0732 20.358 22.7468 20.0792C23.1172 19.9262 25.4497 19.4097 25.5082 19.0897C25.6242 18.4556 24.2423 18.5536 24.2144 18.4272ZM22.4471 18.4973C22.3967 18.4972 22.3474 18.4822 22.3055 18.4541C22.2637 18.426 22.2311 18.3861 22.2119 18.3395C22.1927 18.2929 22.1877 18.2416 22.1976 18.1922C22.2075 18.1427 22.2318 18.0973 22.2675 18.0617C22.3032 18.0261 22.3487 18.0019 22.3981 17.9921C22.4476 17.9823 22.4988 17.9874 22.5454 18.0067C22.592 18.026 22.6318 18.0587 22.6598 18.1006C22.6878 18.1426 22.7027 18.1919 22.7027 18.2423C22.7027 18.2758 22.6961 18.309 22.6832 18.34C22.6704 18.371 22.6515 18.3991 22.6278 18.4228C22.6041 18.4465 22.5759 18.4653 22.5449 18.4781C22.5139 18.4909 22.4806 18.4974 22.4471 18.4973V18.4973Z" fill="#E7E7E7"/>
<path d="M66.0108 13.194C71.4989 13.2705 75.3351 17.1832 75.2081 22.5183C75.1316 27.0396 72.2357 30.4451 68.0691 31.2583C67.9416 31.2833 67.9167 31.3598 67.9926 31.4357C69.6156 33.9763 71.321 35.298 73.2518 35.3739C73.8894 35.3739 74.4691 35.2724 75.0047 35.0435C75.1067 35.018 75.1571 35.069 75.1571 35.1455L75.1826 35.1959C75.1867 35.2226 75.1814 35.2499 75.1676 35.2731C75.1537 35.2963 75.1322 35.3139 75.1067 35.3229C74.1155 35.8822 73.1249 36.1344 72.1337 36.1106C69.771 36.0347 67.4338 34.3833 65.3755 31.5122L65.2995 31.4612C59.9134 31.1818 56.4309 27.2947 56.5091 22.1624C56.6372 16.9542 60.3209 13.0653 66.0108 13.194ZM72.4397 24.2967C73.126 19.6218 71.0932 14.7185 66.3423 14.0328C62.887 13.4989 59.8891 15.9126 59.2033 20.384C58.517 25.11 60.5754 29.9622 65.2752 30.6485C68.756 31.1308 71.754 28.8192 72.4397 24.2967Z" fill="#45356D"/>
<path d="M76.5314 18.3774C76.5314 18.3009 76.5824 18.2754 76.659 18.2754H78.8437C78.9196 18.2754 78.9451 18.3009 78.9451 18.3774V21.6548C78.9451 21.6784 78.9524 21.7014 78.9658 21.7208C78.9793 21.7402 78.9984 21.755 79.0205 21.7633C79.0426 21.7716 79.0667 21.7729 79.0896 21.767C79.1125 21.7612 79.1331 21.7485 79.1486 21.7307C80.1392 20.7401 80.9524 19.597 82.1465 18.8093C82.6549 18.4788 83.2647 18.225 83.8994 18.3264C84.0546 18.3445 84.2037 18.3973 84.3356 18.4808C84.4676 18.5644 84.579 18.6767 84.6617 18.8093C84.6713 18.8192 84.6786 18.8312 84.683 18.8443C84.6874 18.8575 84.6889 18.8714 84.6872 18.8852V20.9435C84.6872 21.0705 84.5347 21.0954 84.4588 20.994C84.1539 20.2062 83.671 19.9268 83.1372 19.9268C81.7147 19.9268 79.9108 21.9342 78.9706 22.8251C78.961 22.8351 78.9537 22.847 78.9493 22.8602C78.9449 22.8733 78.9435 22.8873 78.9451 22.901V31.106C78.9451 31.182 78.9196 31.233 78.8437 31.233H76.659C76.642 31.234 76.625 31.2314 76.6091 31.2254C76.5932 31.2194 76.5788 31.21 76.5668 31.1981C76.5547 31.1861 76.5453 31.1717 76.5393 31.1558C76.5332 31.14 76.5305 31.123 76.5314 31.106V18.3774Z" fill="#45356D"/>
<path d="M86.9935 28.6665C87.3257 28.6736 87.6419 28.8106 87.8743 29.048C88.1068 29.2855 88.2369 29.6045 88.2369 29.9368C88.2369 30.2691 88.1068 30.5882 87.8743 30.8256C87.6419 31.0631 87.3257 31.2 86.9935 31.2071C86.6613 31.2 86.345 31.0631 86.1126 30.8256C85.8802 30.5882 85.75 30.2691 85.75 29.9368C85.75 29.6045 85.8802 29.2855 86.1126 29.048C86.345 28.8106 86.6613 28.6736 86.9935 28.6665V28.6665Z" fill="#45356D"/>
<path d="M89.5867 26.4058C89.6015 26.3985 89.6179 26.3946 89.6344 26.3947C89.651 26.3947 89.6673 26.3986 89.6821 26.406C89.6969 26.4134 89.7097 26.4242 89.7196 26.4374C89.7295 26.4507 89.7362 26.4661 89.7392 26.4823C90.5507 29.023 92.8113 30.6234 95.4551 30.6234C96.5733 30.6234 97.9198 30.3185 98.7076 29.4797C98.9973 29.1825 99.2092 28.8182 99.3243 28.4194C99.4395 28.0206 99.4544 27.5995 99.3678 27.1936C99.1898 26.4058 98.6566 25.7444 98.0468 25.2117C97.0034 24.2715 95.7345 23.6362 94.49 22.9511C93.2727 22.2654 92.0253 21.5286 91.1361 20.436C90.2214 19.3433 89.687 17.9464 90.069 16.5233C90.6788 14.3131 93.4739 13.1694 95.6076 13.1694C98.2502 13.1694 100.181 14.8464 100.892 17.3111C100.918 17.387 100.892 17.4125 100.841 17.438L100.689 17.489C100.662 17.5019 100.631 17.5037 100.602 17.4942C100.574 17.4847 100.55 17.4646 100.536 17.438C100.203 16.4479 99.5685 15.587 98.7209 14.9763C97.8733 14.3657 96.8557 14.036 95.811 14.0337C94.4135 14.0337 92.6351 14.7194 92.3047 16.2694C92.1274 16.9041 92.3557 17.5905 92.6861 18.1747C93.067 18.759 93.5498 19.1654 94.0582 19.5723C95.1016 20.3595 96.2429 20.8933 97.3622 21.5031C98.4815 22.1129 99.5469 22.7986 100.434 23.7388C101.273 24.679 101.883 25.898 101.806 27.1942C101.705 28.7186 100.688 30.0397 99.3672 30.7509C98.3766 31.2842 97.2839 31.4876 96.1913 31.4876C92.838 31.4876 90.1704 30.0385 89.2812 26.6603C89.2812 26.5844 89.3062 26.5333 89.3572 26.5333C89.4343 26.4557 89.5102 26.4823 89.5867 26.4058Z" fill="#45356D"/>
<path d="M104.401 18.2756C104.439 18.2819 104.475 18.2997 104.503 18.3266L108.466 28.4126C108.542 28.514 108.618 28.514 108.695 28.4126L110.981 22.4166V22.3146L109.457 18.4274C109.431 18.326 109.457 18.275 109.584 18.275H111.92C111.958 18.2814 111.994 18.2991 112.022 18.326C113.239 21.4254 115.426 27.142 115.959 28.412C116.036 28.5134 116.112 28.5134 116.191 28.412L120.053 18.3509C120.053 18.2999 120.079 18.2744 120.154 18.2744H120.917C120.993 18.2744 121.095 18.3509 121.019 18.4269L116.139 31.1566C116.106 31.1953 116.061 31.2222 116.012 31.2331H114.614C114.589 31.2331 114.564 31.2076 114.513 31.1566L111.642 23.9162C111.566 23.8142 111.489 23.8142 111.413 23.9162L108.644 31.1566C108.611 31.1953 108.566 31.2222 108.517 31.2331H107.145C107.095 31.2222 107.051 31.1953 107.018 31.1566C106.713 30.3185 103.41 21.9343 101.962 18.428C101.937 18.3266 101.962 18.2756 102.089 18.2756H104.401Z" fill="#45356D"/>
<path d="M124.621 13.7537C124.748 14.6678 123.935 15.5065 123.02 15.3541C122.71 15.3055 122.424 15.158 122.205 14.9336C121.985 14.7093 121.844 14.42 121.803 14.109C121.676 13.2453 122.44 12.3816 123.404 12.5086C123.719 12.5447 124.012 12.6882 124.233 12.915C124.455 13.1417 124.592 13.4379 124.621 13.7537V13.7537ZM122.08 18.275H124.291C124.308 18.2739 124.325 18.2765 124.341 18.2826C124.356 18.2886 124.371 18.2979 124.383 18.3099C124.395 18.3219 124.404 18.3363 124.41 18.3522C124.416 18.368 124.419 18.385 124.418 18.4019V31.1311C124.418 31.2076 124.367 31.2331 124.291 31.2331H122.105C122.03 31.2331 122.004 31.2076 122.004 31.1311C122.004 28.8194 121.979 21.7309 121.979 18.4025C121.979 18.3266 122.002 18.2755 122.08 18.2755V18.275Z" fill="#45356D"/>
<path d="M125.134 18.6301C125.134 18.5536 125.185 18.5287 125.261 18.5287H126.71C126.787 18.5287 126.812 18.4776 126.812 18.4011C126.888 15.8605 128.311 12.5327 130.953 12.5327C131.614 12.5327 132.325 12.7611 133.062 13.1929C133.089 13.2211 133.107 13.2566 133.113 13.295V13.9552C133.113 13.9789 133.106 14.002 133.093 14.0215C133.079 14.041 133.06 14.0559 133.038 14.0642C133.016 14.0725 132.992 14.0739 132.969 14.0681C132.946 14.0623 132.925 14.0496 132.91 14.0317C132.427 13.4978 131.866 13.117 131.182 13.117C130.877 13.117 130.545 13.2184 130.217 13.3964C128.999 14.1331 128.692 15.8605 128.819 17.1311C128.819 17.3346 129.074 18.5287 129.276 18.5287H132.224C132.3 18.5287 132.351 18.5536 132.351 18.6301V19.1634C132.352 19.1803 132.349 19.1973 132.343 19.2132C132.337 19.2291 132.328 19.2435 132.316 19.2556C132.304 19.2676 132.29 19.277 132.274 19.2831C132.258 19.2892 132.241 19.2918 132.224 19.2909H129.352C129.275 19.2909 129.225 19.3158 129.225 19.3923V31.106C129.226 31.1229 129.223 31.1399 129.217 31.1557C129.211 31.1716 129.202 31.186 129.19 31.198C129.178 31.21 129.163 31.2193 129.148 31.2253C129.132 31.2313 129.115 31.2339 129.098 31.2329H126.938C126.921 31.2339 126.904 31.2313 126.888 31.2253C126.872 31.2193 126.858 31.21 126.846 31.198C126.834 31.186 126.825 31.1716 126.819 31.1557C126.813 31.1399 126.81 31.1229 126.811 31.106V19.3935C126.811 19.317 126.786 19.2921 126.709 19.2921H125.26C125.243 19.293 125.226 19.2903 125.21 19.2842C125.194 19.2781 125.18 19.2688 125.168 19.2567C125.156 19.2447 125.147 19.2302 125.141 19.2144C125.135 19.1985 125.132 19.1815 125.133 19.1645L125.134 18.6301Z" fill="#45356D"/>
<path d="M136.617 15.7345C136.626 15.7091 136.644 15.6875 136.667 15.6737C136.69 15.6598 136.718 15.6545 136.744 15.6586H136.897C136.973 15.6586 137.024 15.6841 137.024 15.76V18.1992C137.023 18.2161 137.025 18.2331 137.031 18.249C137.037 18.2648 137.047 18.2792 137.059 18.2912C137.071 18.3032 137.085 18.3125 137.101 18.3185C137.117 18.3246 137.134 18.3272 137.151 18.3261H139.745C139.821 18.3261 139.872 18.3516 139.872 18.4276V18.9614C139.873 18.9784 139.87 18.9953 139.864 19.0112C139.858 19.0271 139.849 19.0415 139.837 19.0535C139.825 19.0655 139.81 19.0748 139.794 19.0808C139.778 19.0868 139.762 19.0894 139.745 19.0884H137.153C137.077 19.0884 137.026 19.1139 137.026 19.1898V28.2602C137.026 29.3778 137.28 30.4195 138.602 30.4195C139.313 30.4195 140.024 29.9366 140.43 28.895C140.456 28.819 140.507 28.819 140.583 28.8445L140.913 28.946C140.929 28.9489 140.945 28.9556 140.958 28.9655C140.971 28.9754 140.982 28.9883 140.99 29.0031C140.997 29.0179 141.001 29.0342 141.001 29.0507C141.001 29.0673 140.997 29.0836 140.99 29.0984C140.481 30.4195 139.643 31.2831 137.839 31.2831C135.604 31.2831 134.612 29.9366 134.612 27.8052V19.1898C134.612 19.1139 134.587 19.0884 134.511 19.0884H132.885C132.868 19.0894 132.851 19.0868 132.835 19.0808C132.819 19.0748 132.805 19.0655 132.793 19.0535C132.781 19.0415 132.772 19.0271 132.766 19.0112C132.76 18.9953 132.757 18.9784 132.758 18.9614V18.4276C132.758 18.3516 132.783 18.3261 132.859 18.3261C134.762 17.9957 136.135 17.5129 136.617 15.7345Z" fill="#45356D"/>
</svg>
