<svg width="25" height="25" viewBox="0 0 25 25" fill="none" xmlns="http://www.w3.org/2000/svg">
<path d="M10.6903 2.61288C10.6903 2.61291 10.6904 2.61294 10.6904 2.61297L10.6923 2.61625L12.966 6.67217L12.9924 6.75424L12.966 6.83631L10.6923 10.8922L10.6922 10.8922L10.6904 10.8955C10.6903 10.8956 10.6903 10.8956 10.6903 10.8956C10.6889 10.8964 10.6879 10.8968 10.6875 10.8969H6.02851C6.02807 10.8968 6.02712 10.8964 6.02575 10.8956C6.0257 10.8956 6.02565 10.8955 6.0256 10.8955L6.02377 10.8922L3.74999 6.83631L3.72361 6.75424L3.74999 6.67217L6.02377 2.61625L6.02387 2.6163L6.02566 2.61294C6.02569 2.61292 6.02572 2.6129 6.02575 2.61288C6.02712 2.61205 6.02807 2.61171 6.02851 2.61158H10.6875C10.688 2.61171 10.6889 2.61205 10.6903 2.61288ZM10.6903 14.0052C10.6903 14.0052 10.6904 14.0053 10.6904 14.0053L10.6923 14.0086L12.966 18.0645L12.9924 18.1465L12.966 18.2286L10.6923 22.2845L10.6922 22.2845L10.6904 22.2879C10.6903 22.2879 10.6903 22.2879 10.6903 22.2879C10.6889 22.2887 10.688 22.2891 10.6875 22.2892H6.02851C6.02807 22.2891 6.02712 22.2887 6.02575 22.2879C6.0257 22.2879 6.02565 22.2878 6.0256 22.2878L6.02377 22.2845L3.74999 18.2286L3.72361 18.1465L3.74999 18.0645L6.02377 14.0086L6.02387 14.0086L6.02566 14.0052C6.02569 14.0052 6.02572 14.0052 6.02575 14.0052C6.02712 14.0044 6.02807 14.004 6.02851 14.0039H10.6875C10.6879 14.004 10.6889 14.0044 10.6903 14.0052ZM20.2702 8.30904C20.2702 8.30907 20.2703 8.3091 20.2703 8.30913L20.2721 8.3124L22.5459 12.3683L22.5723 12.4504L22.5459 12.5325L20.2721 16.5884L20.272 16.5883L20.2703 16.5917C20.2702 16.5917 20.2702 16.5917 20.2702 16.5918C20.2688 16.5926 20.2678 16.5929 20.2674 16.5931H15.6084C15.608 16.5929 15.607 16.5926 15.6056 16.5918C15.6056 16.5917 15.6055 16.5917 15.6055 16.5917L15.6037 16.5884L13.3299 12.5325L13.3035 12.4504L13.3299 12.3683L15.6037 8.3124L15.6038 8.31246L15.6056 8.30909C15.6056 8.30907 15.6056 8.30905 15.6056 8.30904C15.607 8.30821 15.608 8.30786 15.6084 8.30774H20.2674C20.2678 8.30786 20.2688 8.30821 20.2702 8.30904Z" stroke="#2E2E2E" stroke-width="1.03566"/>
</svg>
