<svg width="457" height="479" viewBox="0 0 457 479" fill="none" xmlns="http://www.w3.org/2000/svg">
<path d="M108.523 169.759V177.913H115.993V169.759V161.615H108.523V169.759Z" fill="#EBEBEB"/>
<path d="M115.993 120.866H108.523V129.02H115.993V120.866Z" fill="#EBEBEB"/>
<path d="M162.125 210.594H154.656V218.748H162.125V210.594Z" fill="#EBEBEB"/>
<path d="M115.993 137.163V145.307H108.523V153.461H115.993V161.615H123.462H130.921V169.758H138.39V161.615H145.85V153.461V145.307H138.39V153.461H130.921H123.462V145.307V137.163V129.009H115.993V137.163Z" fill="#EBEBEB"/>
<path d="M130.92 120.866H123.461V129.009H130.92H138.389V120.866H130.92Z" fill="#EBEBEB"/>
<path d="M164.511 186.382H168.525V178.228H164.511H160.508V186.382H164.511Z" fill="#EBEBEB"/>
<path d="M145.86 129.009H138.391V137.163H145.86V129.009Z" fill="#EBEBEB"/>
<path d="M198.118 161.615H190.648V169.769H198.118V161.615Z" fill="#EBEBEB"/>
<path d="M205.586 71.9629H198.117V80.117H205.586V71.9629Z" fill="#EBEBEB"/>
<path d="M160.79 137.163V129.009H168.249V120.866H160.79V112.712H153.321V120.866H145.852V129.009H153.321V137.163V145.307V153.461V161.615H160.79V153.461V145.307H168.249V137.163H160.79Z" fill="#EBEBEB"/>
<path d="M198.118 218.661H205.577V210.507H198.118H190.648V218.661H198.118Z" fill="#EBEBEB"/>
<path d="M190.649 71.9629H183.18V80.117H190.649V71.9629Z" fill="#EBEBEB"/>
<path d="M188.788 137.164V129.009H181.319V120.866H173.85V129.009V137.164H166.391V145.307H173.85H181.319V137.164H188.788Z" fill="#EBEBEB"/>
<path d="M230.922 120.866H223.453V129.02H230.922V120.866Z" fill="#EBEBEB"/>
<path d="M153.54 161.615H146.07V169.769H153.54V161.615Z" fill="#EBEBEB"/>
<path d="M183.178 112.712V104.558H190.648V96.4146H198.117H205.576V88.2604H198.117V80.1172H190.648V88.2604H183.178V96.4146H175.719V104.558H168.25V112.712H175.719H183.178Z" fill="#EBEBEB"/>
<path d="M183.178 169.758V161.615H190.648V153.461H183.178H175.719V161.615H168.25V169.758H175.719H183.178Z" fill="#EBEBEB"/>
<path d="M205.574 202.353V194.21H198.115H190.646V186.056H183.177V194.21H175.718V202.353H168.248H160.789V210.507H168.248H175.718H183.177V202.353H190.646V210.507H198.115V202.353H205.574Z" fill="#EBEBEB"/>
<path d="M175.718 80.117V71.9629H168.249H160.79V80.117H153.32V88.2603H160.79H168.249V80.117H175.718Z" fill="#EBEBEB"/>
<path d="M175.719 88.2603H168.25V96.4144H175.719V88.2603Z" fill="#EBEBEB"/>
<path d="M194.383 120.866H186.914V129.009V137.163V145.307H194.383H201.852V137.163H194.383V129.009H201.852V120.866H209.312V112.712H201.852V104.558H194.383V112.712V120.866Z" fill="#EBEBEB"/>
<path d="M168.258 96.4146H160.789V104.569H168.258V96.4146Z" fill="#EBEBEB"/>
<path d="M190.648 177.912V186.056H198.118H205.577V177.912H213.046H220.515V169.758H213.046H205.577H198.118V177.912H190.648Z" fill="#EBEBEB"/>
<path d="M230.922 145.307H223.453V153.461H230.922V145.307Z" fill="#EBEBEB"/>
<path d="M205.586 153.461H198.117V161.615H205.586V153.461Z" fill="#EBEBEB"/>
<path d="M224.241 129.009H216.782H209.312V137.163H216.782V145.307H224.241V137.163V129.009Z" fill="#EBEBEB"/>
<path d="M220.516 153.461H213.047V161.615H220.516V153.461Z" fill="#EBEBEB"/>
<path d="M138.389 202.516H160.797V169.748H130.781V177.913H123.461V186.056H130.781V194.21H123.461V202.364H130.781V202.516H130.92V210.507H123.461V226.816H130.92V218.661H138.389V202.516ZM155.041 176.032V196.406H136.378V176.032H155.041Z" fill="#EBEBEB"/>
<path d="M235.444 169.759H242.903V161.615H235.444H227.975H220.516V169.759H227.975H235.444Z" fill="#EBEBEB"/>
<path d="M235.438 137.164H242.897V129.009V120.866H235.438V129.009V137.164Z" fill="#EBEBEB"/>
<path d="M176 178.228H168.531V186.382V194.525H176V186.382V178.228Z" fill="#EBEBEB"/>
<path d="M250.368 169.758H242.898V177.912H250.368V169.758Z" fill="#EBEBEB"/>
<path d="M250.368 153.461V145.307H242.898V153.461V161.615H250.368V153.461Z" fill="#EBEBEB"/>
<path d="M115.993 210.507H108.523V218.661V226.816H115.993V218.661V210.507Z" fill="#EBEBEB"/>
<path d="M250.373 112.712V71.9629H213.047V112.712H250.373ZM218.644 106.602V78.073H244.776V106.602H218.644Z" fill="#EBEBEB"/>
<path d="M239.163 84.1836H224.234V100.481H239.163V84.1836Z" fill="#EBEBEB"/>
<path d="M250.373 186.056H213.047V226.815H250.373V186.056ZM218.644 220.694V192.177H244.776V220.694H218.644Z" fill="#EBEBEB"/>
<path d="M239.163 198.287H224.234V214.584H239.163V198.287Z" fill="#EBEBEB"/>
<path d="M108.438 71.9629V112.712H145.764V71.9629H108.438ZM140.167 78.073V106.602H113.995V78.073H140.167Z" fill="#EBEBEB"/>
<path d="M134.553 84.1836H119.625V100.481H134.553V84.1836Z" fill="#EBEBEB"/>
<path d="M48.7554 232.5C49.2367 230.434 48.0928 228.334 46.2005 227.808C44.3082 227.283 42.384 228.532 41.9027 230.597C41.4214 232.663 42.5653 234.764 44.4576 235.289C46.3499 235.815 48.2741 234.566 48.7554 232.5Z" fill="#EBEBEB"/>
<path d="M38.3015 226.62C39.2037 225.561 40.2931 224.712 41.504 224.126C42.715 223.539 44.0222 223.227 45.3469 223.208C46.6715 223.189 47.9859 223.463 49.2108 224.014C50.4356 224.564 51.5454 225.381 52.4731 226.413C54.2757 228.403 57.0941 225.326 55.2915 223.358C53.9939 221.927 52.4469 220.794 50.7418 220.026C49.0367 219.259 47.2081 218.871 45.3637 218.888C43.5193 218.904 41.6966 219.323 40.003 220.121C38.3095 220.919 36.7794 222.078 35.5031 223.532C33.7403 225.554 36.499 228.642 38.3015 226.62Z" fill="#EBEBEB"/>
<path d="M26.2769 208.659C31.6447 203.592 38.0583 200.396 45.1989 200.374C52.3572 200.282 59.2782 203.175 64.5491 208.463C66.4115 210.377 69.2398 207.321 67.3775 205.408C61.3663 199.338 53.4669 195.988 45.2786 196.036C37.0126 196.036 29.6629 199.744 23.4884 205.582C21.4966 207.408 24.3548 210.474 26.2868 208.659H26.2769Z" fill="#EBEBEB"/>
<path d="M31.0012 218.607C32.794 216.426 34.9809 214.674 37.4241 213.461C39.8674 212.248 42.5142 211.601 45.198 211.559C47.8818 211.517 50.5444 212.082 53.0185 213.218C55.4925 214.354 57.7243 216.037 59.5735 218.161C61.3661 220.173 64.1845 217.074 62.4018 215.117C60.1857 212.587 57.5172 210.581 54.5617 209.223C51.6061 207.865 48.4266 207.184 45.2202 207.223C42.0137 207.261 38.8488 208.019 35.9215 209.448C32.9942 210.877 30.367 212.947 28.2028 215.53C26.4699 217.574 29.2584 220.662 31.0012 218.607Z" fill="#EBEBEB"/>
<path d="M201.727 20.5812C202.324 15.8192 196.16 11.8834 191.529 11.4812C189.318 11.2855 187.027 11.6551 184.936 10.8614C180.394 9.13277 178.582 2.73993 174.16 0.706834C170.854 -0.81527 167.04 0.532879 163.833 2.29417C160.626 4.05546 157.459 6.27339 153.874 6.52345C150.757 6.74089 147.371 5.43623 144.642 7.14316C142.65 8.38259 141.545 10.9375 139.662 12.4488C137.78 13.96 135.44 14.2427 133.169 14.3732C130.898 14.5036 128.538 14.5362 126.477 15.5691C124.415 16.602 122.692 18.9938 123.121 21.4292L201.727 20.5812Z" fill="#EBEBEB"/>
<path d="M82.761 101.166C83.2988 96.8928 77.7815 93.3702 73.6187 93.0114C71.6269 92.8374 69.6351 93.1636 67.7031 92.446C63.6398 90.9022 62.0165 85.1726 58.0528 83.346C55.0651 81.9761 51.6691 83.1938 48.801 84.7703C45.9328 86.3467 43.0845 88.3364 39.8379 88.5647C37.0394 88.7604 34.0119 87.6297 31.562 89.1191C29.7395 90.2064 28.7934 92.5221 27.1104 93.8703C25.4273 95.2184 23.326 95.4685 21.2844 95.599C19.2482 95.5555 17.2222 95.9241 15.309 96.6862C13.4566 97.6103 11.9229 99.763 12.3213 101.948L82.761 101.166Z" fill="#F5F5F5"/>
<path d="M455.965 98.1434C456.543 93.5662 450.627 89.7935 446.176 89.4456C444.054 89.2608 441.853 89.6196 439.842 88.8477C435.49 87.1951 433.747 81.0523 429.504 79.0627C426.327 77.6058 422.672 78.8996 419.595 80.5957C416.518 82.2917 413.47 84.4118 410.035 84.6619C407.047 84.8684 403.79 83.6508 401.171 85.249C399.179 86.434 398.183 88.8911 396.401 90.3371C394.618 91.7831 392.347 92.0549 390.166 92.1854C387.985 92.3159 385.725 92.3376 383.743 93.3379C381.761 94.3381 380.108 96.5995 380.526 98.9588L455.965 98.1434Z" fill="#F5F5F5"/>
<path d="M447.077 477.897C447.077 478.05 346.99 478.18 223.549 478.18C100.107 478.18 0 478.05 0 477.897C0 477.745 100.048 477.615 223.539 477.615C347.03 477.615 447.077 477.734 447.077 477.897Z" fill="#263238"/>
<path d="M393.533 430.07C394.515 430.583 395.392 431.307 396.112 432.198C396.833 433.089 397.381 434.129 397.725 435.256C398.403 437.523 398.594 439.93 398.283 442.291C397.815 446.857 395.435 451.467 392.875 455.109C389.36 451.76 388.543 445.9 388.304 442.91C387.926 438.17 389.878 429.364 393.533 430.07Z" fill="#7E57C2"/>
<path d="M396.974 462.611C396.74 461.306 396.822 459.957 397.214 458.698C397.605 457.439 398.292 456.314 399.205 455.435C400.138 454.58 401.217 453.936 402.379 453.541C403.542 453.145 404.765 453.005 405.977 453.13C406.543 453.118 407.104 453.242 407.62 453.494C408.137 453.746 408.596 454.119 408.965 454.587C409.227 455.083 409.365 455.645 409.365 456.218C409.365 456.79 409.227 457.353 408.965 457.849C408.43 458.843 407.664 459.664 406.744 460.23C403.697 462.317 400.39 463.731 396.945 462.6" fill="#7E57C2"/>
<path d="M392.461 476.636C392.48 476.322 392.519 476.009 392.58 475.701C392.7 475.038 392.839 474.19 393.009 473.168C393.401 470.344 394.211 467.608 395.409 465.068C396.649 462.531 398.484 460.4 400.727 458.893C401.409 458.438 402.137 458.073 402.898 457.805C403.104 457.733 403.313 457.675 403.525 457.631C403.598 457.617 403.672 457.617 403.744 457.631C402.733 458.009 401.759 458.497 400.836 459.088C398.665 460.62 396.886 462.731 395.668 465.22C394.498 467.735 393.672 470.424 393.218 473.2C393.009 474.288 392.839 475.125 392.7 475.712C392.652 476.029 392.572 476.339 392.461 476.636Z" fill="#263238"/>
<path d="M392.586 436.92C392.602 437.057 392.602 437.196 392.586 437.333C392.586 437.637 392.586 438.018 392.655 438.507C392.705 439.529 392.755 441.008 392.815 442.856C392.924 446.509 393.004 451.554 392.984 457.153C392.964 462.752 392.834 467.797 392.695 471.45C392.635 473.276 392.566 474.712 392.506 475.799C392.506 476.277 392.506 476.669 392.436 476.973C392.434 477.112 392.418 477.251 392.386 477.386C392.371 477.249 392.371 477.11 392.386 476.973C392.386 476.669 392.386 476.277 392.386 475.788C392.386 474.701 392.446 473.255 392.486 471.439C392.566 467.786 392.655 462.741 392.675 457.153C392.695 451.565 392.675 446.52 392.596 442.867C392.596 441.062 392.546 439.605 392.536 438.518C392.536 438.04 392.536 437.648 392.536 437.344C392.536 437.201 392.553 437.058 392.586 436.92Z" fill="#263238"/>
<path d="M390.847 465.427C390.42 462.659 389.397 460.043 387.861 457.793C386.325 455.543 384.32 453.725 382.013 452.489C380.838 451.88 379.304 451.478 378.328 452.434C377.352 453.391 377.581 455.098 378.059 456.435C379.099 459.205 380.87 461.574 383.148 463.241C385.425 464.908 388.105 465.797 390.847 465.796" fill="#7E57C2"/>
<path d="M382.618 456.816C382.877 456.907 383.128 457.027 383.365 457.175C383.656 457.317 383.939 457.481 384.211 457.664C384.581 457.89 384.94 458.137 385.287 458.403C385.713 458.713 386.122 459.051 386.512 459.414C386.972 459.818 387.411 460.25 387.826 460.708C388.773 461.764 389.605 462.935 390.306 464.198C390.997 465.471 391.548 466.829 391.949 468.243C392.255 469.401 392.465 470.587 392.577 471.787C392.637 472.298 392.577 472.765 392.637 473.168C392.655 473.53 392.655 473.893 392.637 474.255C392.632 474.551 392.602 474.846 392.547 475.136C392.477 475.136 392.597 473.874 392.388 471.874C392.328 471.374 392.268 470.787 392.149 470.232C392.029 469.678 391.88 469.036 391.71 468.395C391.303 467.013 390.755 465.686 390.077 464.437C389.387 463.196 388.575 462.041 387.657 460.991C387.252 460.533 386.827 460.097 386.382 459.686C386.002 459.321 385.603 458.979 385.187 458.664C383.654 457.414 382.588 456.881 382.618 456.816Z" fill="#263238"/>
<path d="M125.998 477.908C125.704 476.893 125.474 475.858 125.31 474.809C124.28 469.845 122.74 465.024 120.719 460.436C120.257 459.499 119.844 458.534 119.484 457.544C120.098 458.377 120.619 459.286 121.038 460.252C123.268 464.799 124.831 469.7 125.669 474.777C125.881 475.805 125.991 476.854 125.998 477.908Z" fill="#263238"/>
<path d="M134.832 430.853C134.789 431.475 134.706 432.092 134.583 432.701C134.384 433.875 134.115 435.582 133.806 437.692C133.169 441.921 132.432 447.77 131.974 454.272C131.516 460.773 131.436 466.699 131.466 470.971C131.466 473.146 131.466 474.842 131.546 476.038C131.589 476.657 131.589 477.278 131.546 477.897C131.436 477.288 131.373 476.669 131.357 476.049C131.267 474.853 131.177 473.124 131.118 470.982C130.956 465.395 131.072 459.802 131.466 454.228C131.859 448.659 132.524 443.118 133.458 437.626C133.826 435.517 134.145 433.821 134.404 432.658C134.505 432.045 134.648 431.442 134.832 430.853Z" fill="#263238"/>
<path d="M149.017 457.936C148.505 458.847 147.95 459.729 147.354 460.577C146.042 462.701 144.902 464.945 143.948 467.286C143.014 469.636 142.277 472.074 141.747 474.57C141.575 475.622 141.352 476.664 141.08 477.69C141.063 476.611 141.167 475.534 141.389 474.483C142.261 469.36 144.2 464.525 147.055 460.349C147.611 459.455 148.27 458.644 149.017 457.936Z" fill="#263238"/>
<path d="M322.641 461.523C323.154 462.19 323.595 462.92 323.955 463.698C324.692 465.079 325.648 467.036 326.594 469.243C327.54 471.45 328.297 473.526 328.795 475.027C329.115 475.823 329.343 476.659 329.472 477.516C329.072 476.774 328.738 475.991 328.477 475.179C327.899 473.711 327.092 471.689 326.146 469.482C325.2 467.275 324.304 465.307 323.646 463.883C323.234 463.139 322.896 462.347 322.641 461.523Z" fill="#263238"/>
<path d="M340.96 441.671C340.916 442.15 340.83 442.623 340.701 443.084C340.492 444.095 340.223 445.367 339.895 446.89C339.237 450.151 338.431 454.565 337.823 459.545C337.216 464.524 336.937 469.08 336.827 472.363C336.778 473.929 336.738 475.233 336.708 476.266C336.723 476.747 336.689 477.228 336.608 477.701C336.533 477.227 336.496 476.747 336.499 476.266C336.499 475.342 336.449 474.005 336.499 472.352C336.559 468.047 336.849 463.749 337.365 459.48C337.881 455.206 338.626 450.97 339.596 446.792C339.974 445.194 340.313 443.911 340.592 443.03C340.667 442.563 340.79 442.107 340.96 441.671Z" fill="#263238"/>
<path d="M208.4 450.521C208.733 450.728 209.038 450.984 209.307 451.282C210.092 452.02 210.84 452.804 211.548 453.63C216.263 459.1 219.595 465.814 221.218 473.113C221.472 474.212 221.665 475.327 221.795 476.451C221.871 476.859 221.905 477.275 221.895 477.691C221.805 477.691 221.556 475.951 220.899 473.222C219.084 466.068 215.794 459.463 211.279 453.913C209.596 451.739 208.341 450.651 208.4 450.521Z" fill="#263238"/>
<path d="M225.657 438.953C225.699 439.467 225.699 439.983 225.657 440.497C225.657 441.584 225.657 443.008 225.657 444.694C225.657 448.238 225.786 453.13 226.214 458.523C226.642 463.916 227.3 468.754 227.857 472.244C228.126 473.907 228.355 475.299 228.535 476.375C228.648 476.878 228.714 477.391 228.734 477.908C228.566 477.424 228.432 476.926 228.335 476.419C228.106 475.462 227.818 474.059 227.499 472.32C225.835 463.228 225.094 453.963 225.288 444.694C225.288 442.911 225.388 441.432 225.467 440.486C225.483 439.969 225.547 439.456 225.657 438.953Z" fill="#263238"/>
<path d="M240.892 462.002C241.041 462.089 239.328 465.351 238.153 469.765C236.978 474.179 236.759 477.919 236.6 477.908C236.488 477.09 236.488 476.258 236.6 475.44C236.757 473.463 237.09 471.508 237.596 469.602C238.098 467.7 238.765 465.854 239.587 464.089C239.932 463.331 240.371 462.629 240.892 462.002Z" fill="#263238"/>
<path d="M37.2264 374.459H25.6641V474.668H37.2264V374.459Z" fill="#455A64"/>
<path d="M37.2375 474.657C37.2375 474.657 37.2375 474.483 37.2375 474.136V472.635C37.2375 471.298 37.2375 469.374 37.2375 466.873C37.2375 461.861 37.2375 454.62 37.1578 445.629C37.1578 427.635 37.0881 402.629 37.0483 374.459L37.3072 374.742H25.6652L25.9241 374.459C25.8644 418.35 25.8146 456.359 25.7847 474.657L25.6652 474.538L34.2398 474.603H36.4706H37.2375C37.2375 474.603 36.9985 474.603 36.5105 474.603H34.3096L25.6652 474.668H25.5556V474.538C25.5556 456.24 25.476 418.231 25.4062 374.34L25.6652 374.057H37.4964V374.34C37.4964 402.607 37.4068 427.668 37.3869 445.716C37.3869 454.674 37.3271 461.893 37.3072 466.895C37.3072 469.352 37.3072 471.243 37.3072 472.592V474.059C37.2474 474.505 37.2375 474.657 37.2375 474.657Z" fill="#263238"/>
<g opacity="0.3">
<path d="M37.2264 376.895H25.6641V381.07H37.2264V376.895Z" fill="black"/>
</g>
<path d="M283.219 374.459H271.656V474.668H283.219V374.459Z" fill="#455A64"/>
<path d="M283.228 474.657C283.228 474.657 283.228 474.483 283.228 474.136V472.635C283.228 471.298 283.228 469.374 283.228 466.873C283.228 461.861 283.228 454.62 283.148 445.629C283.148 427.635 283.088 402.629 283.038 374.459L283.297 374.742H271.665L271.924 374.459C271.854 418.35 271.805 456.359 271.775 474.657L271.665 474.538L280.24 474.603H282.461H283.228C283.228 474.603 282.989 474.603 282.501 474.603H280.31L271.665 474.668H271.546V474.538C271.546 456.24 271.466 418.231 271.406 374.34L271.665 374.057H283.486V374.34C283.486 402.607 283.407 427.668 283.377 445.716C283.377 454.674 283.317 461.893 283.297 466.895C283.297 469.352 283.297 471.243 283.297 472.592V474.059C283.237 474.505 283.228 474.657 283.228 474.657Z" fill="#263238"/>
<path d="M265.094 286.678H253.531V370.209H265.094V286.678Z" fill="#455A64"/>
<path d="M265.107 370.198C265.093 370.05 265.093 369.9 265.107 369.752V368.502C265.107 367.414 265.107 365.773 265.107 363.718C265.107 359.532 265.057 353.52 265.028 346.029C265.028 331.047 264.958 310.216 264.918 286.667L265.177 286.949H253.545C254.053 286.384 253.684 286.808 253.794 286.689V299.942C253.794 304.291 253.794 308.52 253.794 312.651C253.794 320.914 253.794 328.72 253.794 335.907C253.744 350.258 253.714 362.12 253.694 370.198L253.565 370.056L262.12 370.132H264.36H265.137H264.4H262.199L253.565 370.209H253.415V370.198C253.415 362.12 253.366 350.258 253.326 335.907C253.326 328.72 253.326 320.914 253.326 312.651C253.326 308.52 253.326 304.283 253.326 299.942V286.699C253.445 286.569 253.067 286.96 253.595 286.395H265.366V286.678C265.366 310.303 265.287 331.254 265.257 346.246C265.257 353.705 265.197 359.695 265.187 363.859C265.187 365.892 265.187 367.48 265.187 368.589C265.187 369.1 265.187 369.513 265.187 369.806C265.187 370.1 265.107 370.198 265.107 370.198Z" fill="#263238"/>
<path d="M59.367 286.678H47.8047V370.209H59.367V286.678Z" fill="#455A64"/>
<path d="M59.3764 370.198C59.3683 370.049 59.3683 369.9 59.3764 369.752C59.3764 369.448 59.3764 369.034 59.3764 368.502C59.3764 367.414 59.3764 365.773 59.3764 363.718C59.3764 359.532 59.3764 353.52 59.2967 346.029C59.2967 331.047 59.227 310.216 59.1872 286.667L59.4461 286.949H47.814C48.3219 286.384 47.9535 286.808 48.063 286.689V299.942C48.063 304.291 48.063 308.527 48.063 312.651C48.063 320.914 48.063 328.72 48.063 335.907C48.063 350.258 47.9833 362.12 47.9634 370.198L47.834 370.056L56.3887 370.132H58.6295H59.4063H58.6693H56.4684L47.834 370.209H47.7144V370.198C47.7144 362.12 47.6547 350.258 47.6149 335.907C47.6149 328.72 47.6149 320.914 47.6149 312.651C47.6149 308.52 47.6149 304.283 47.6149 299.942V286.699C47.7344 286.569 47.3559 286.96 47.8838 286.395H59.6353V286.678C59.6353 310.303 59.5457 331.254 59.5158 346.246C59.5158 353.705 59.5158 359.695 59.4461 363.859C59.4461 365.892 59.4461 367.48 59.4461 368.589C59.4461 369.1 59.4461 369.513 59.4461 369.806C59.4461 370.1 59.3764 370.198 59.3764 370.198Z" fill="#263238"/>
<path d="M287.413 277.143H24.9844V290.515H287.413V277.143Z" fill="#455A64"/>
<path d="M287.414 290.515C287.414 290.515 287.414 290.244 287.414 289.7C287.414 289.156 287.414 288.341 287.414 287.243C287.414 285.068 287.414 281.709 287.414 277.143L287.484 277.23L25.0652 277.425L25.3241 277.143V290.515L25.0652 290.233L210.999 290.352L266.978 290.439H282.176H286.159H287.514H286.189H282.265H267.138L211.218 290.526L24.9855 290.831H24.7266V276.86H24.9955L287.414 277.066H287.494V277.143C287.494 281.731 287.494 285.079 287.494 287.286C287.494 288.373 287.494 289.189 287.494 289.733C287.494 290.276 287.414 290.515 287.414 290.515Z" fill="#263238"/>
<path d="M288.093 297.202H25.6641V310.574H288.093V297.202Z" fill="#455A64"/>
<path d="M288.091 310.574C288.091 310.574 288.091 310.303 288.091 309.759C288.091 309.215 288.091 308.4 288.091 307.302C288.091 305.127 288.091 301.768 288.091 297.202L288.161 297.278L25.7527 297.484L26.0116 297.202V310.574L25.7527 310.292L211.587 310.4L267.566 310.477H282.763H286.747H288.101H286.787H282.863H267.725L211.806 310.564L25.673 310.683H25.4141V296.919H25.6929L288.101 297.126H288.181V297.202C288.181 301.79 288.181 305.138 288.181 307.345C288.181 308.433 288.181 309.237 288.181 309.781C288.181 310.324 288.091 310.574 288.091 310.574Z" fill="#263238"/>
<path d="M288.093 318H25.6641V331.373H288.093V318Z" fill="#455A64"/>
<path d="M288.091 331.373C288.091 331.373 288.091 331.101 288.091 330.558C288.091 330.014 288.091 329.199 288.091 328.101C288.091 325.926 288.091 322.567 288.091 318L288.161 318.077L25.7525 318.283L26.0114 318V331.373L25.7525 331.091L211.696 331.21L267.675 331.297H282.873H286.856H288.211H286.896H282.972H267.835L211.915 331.384L25.7824 331.504H25.5234V317.718H25.8023L288.211 317.924H288.29V318.011C288.29 322.599 288.29 325.948 288.29 328.155C288.29 329.242 288.29 330.047 288.29 330.601C288.29 331.156 288.091 331.373 288.091 331.373Z" fill="#263238"/>
<path d="M288.093 338.799H25.6641V352.172H288.093V338.799Z" fill="#455A64"/>
<path d="M288.091 352.172C288.091 352.172 288.091 351.9 288.091 351.356C288.091 350.813 288.091 349.997 288.091 348.899C288.091 346.725 288.091 343.365 288.091 338.799L288.161 338.886L25.7525 339.081L26.0114 338.799V352.172L25.7525 351.889L211.696 352.008L267.675 352.095H282.873H286.856H288.211H286.896H282.972H267.835L211.915 352.182L25.7824 352.302H25.5234V338.516H25.8023L288.211 338.723H288.29V338.799C288.29 343.387 288.29 346.736 288.29 348.943C288.29 350.03 288.29 350.845 288.29 351.389C288.29 351.932 288.091 352.172 288.091 352.172Z" fill="#263238"/>
<path d="M292.875 363.522H14.2734V376.895H292.875V363.522Z" fill="#455A64"/>
<path d="M292.873 376.895C292.873 376.895 292.873 376.623 292.873 376.079C292.873 375.536 292.873 374.72 292.873 373.622C292.873 371.448 292.873 368.088 292.873 363.522L292.952 363.598L14.3607 363.805L14.6196 363.522V376.895L14.3607 376.612L211.727 376.721L271.172 376.808H287.316H291.518C292.465 376.808 292.962 376.808 292.962 376.808H291.548H287.276H271.192L211.817 376.895L14.2511 377.014H13.9922V363.239H14.2611L292.853 363.446H292.923V363.522C292.923 368.11 292.923 371.459 292.923 373.666C292.923 374.753 292.923 375.557 292.923 376.101C292.923 376.645 292.873 376.895 292.873 376.895Z" fill="#263238"/>
<g opacity="0.3">
<path d="M283.226 376.895H271.664V381.07H283.226V376.895Z" fill="black"/>
</g>
<path d="M142.181 209.637L139.681 227.239L133.248 243.265L123.717 236.622L120.321 227.272L117.483 219.422C117.483 219.422 107.414 222.075 103.401 211.812C101.469 206.854 98.2422 196.286 95.4337 186.675C93.9754 181.687 94.2932 176.282 96.3237 171.538C98.3542 166.795 101.948 163.061 106.389 161.082L107.295 160.669C117.383 156.874 125.968 164.104 129.155 175.205L142.241 209.659" fill="#A2675F"/>
<path d="M117.477 219.422C121.878 217.549 125.668 214.286 128.362 210.05C128.362 210.05 128.252 218.802 118.463 222.108L117.477 219.422Z" fill="#7A4A45"/>
<path d="M101.58 194.536C101.72 194.923 101.994 195.234 102.342 195.403C102.69 195.572 103.086 195.584 103.442 195.438C103.62 195.376 103.784 195.275 103.925 195.142C104.066 195.009 104.182 194.847 104.264 194.664C104.347 194.482 104.395 194.283 104.406 194.08C104.417 193.877 104.391 193.673 104.329 193.481C104.189 193.095 103.915 192.783 103.567 192.615C103.218 192.446 102.823 192.433 102.466 192.579C102.289 192.641 102.125 192.742 101.984 192.875C101.842 193.008 101.727 193.171 101.644 193.353C101.562 193.535 101.514 193.734 101.502 193.937C101.491 194.141 101.518 194.344 101.58 194.536Z" fill="#263238"/>
<path d="M99.052 190.306C99.291 190.426 100.048 189.143 101.462 188.491C102.876 187.838 104.28 188.154 104.36 187.893C104.44 187.632 104.101 187.501 103.504 187.338C102.684 187.129 101.825 187.201 101.044 187.545C100.287 187.885 99.6489 188.479 99.2213 189.241C98.9225 189.839 98.9026 190.263 99.052 190.306Z" fill="#263238"/>
<path d="M114.259 188.361C114.399 188.747 114.673 189.059 115.021 189.227C115.369 189.396 115.764 189.409 116.121 189.263C116.299 189.202 116.465 189.102 116.607 188.969C116.749 188.837 116.866 188.675 116.949 188.492C117.033 188.309 117.082 188.11 117.094 187.907C117.105 187.703 117.079 187.499 117.017 187.306C116.875 186.921 116.601 186.612 116.254 186.443C115.906 186.275 115.512 186.261 115.155 186.404C114.977 186.465 114.811 186.565 114.669 186.697C114.527 186.83 114.411 186.992 114.327 187.175C114.243 187.357 114.194 187.556 114.182 187.76C114.171 187.964 114.197 188.168 114.259 188.361Z" fill="#263238"/>
<path d="M113.346 183.359C113.575 183.501 114.411 182.272 115.915 181.826C117.419 181.381 118.753 181.826 118.903 181.576C119.052 181.326 118.694 181.163 118.106 180.924C117.314 180.657 116.467 180.657 115.676 180.924C114.887 181.172 114.19 181.685 113.684 182.392C113.296 182.881 113.236 183.294 113.346 183.359Z" fill="#263238"/>
<path d="M112.926 198.809C112.063 198.888 111.213 199.089 110.397 199.407C110.008 199.526 109.63 199.602 109.461 199.407C109.268 199.006 109.195 198.55 109.251 198.102C109.251 196.964 109.232 195.768 109.192 194.514C109.052 189.437 108.793 185.327 108.614 185.338C108.435 185.349 108.375 189.469 108.515 194.547C108.515 195.797 108.594 196.982 108.624 198.124C108.579 198.716 108.723 199.308 109.032 199.798C109.139 199.919 109.27 200.012 109.416 200.068C109.561 200.125 109.716 200.144 109.869 200.124C110.098 200.09 110.322 200.025 110.536 199.928C111.372 199.663 112.175 199.287 112.926 198.809Z" fill="#263238"/>
<path d="M110.552 176.597C110.861 176.966 112.235 176.107 114.028 175.509C115.82 174.911 117.394 174.857 117.474 174.422C117.474 174.194 117.105 173.89 116.398 173.726C115.463 173.547 114.502 173.603 113.589 173.889C112.676 174.175 111.835 174.685 111.13 175.379C110.602 175.933 110.413 176.423 110.552 176.597Z" fill="#263238"/>
<path d="M96.9357 184.066C97.334 184.305 98.1905 183.49 99.3856 182.925C100.581 182.359 101.706 182.174 101.796 181.685C101.796 181.457 101.537 181.174 100.959 181.033C100.208 180.873 99.4298 180.98 98.7383 181.337C98.0333 181.666 97.441 182.229 97.0452 182.946C96.7564 183.501 96.7564 183.936 96.9357 184.066Z" fill="#263238"/>
<path d="M131.211 183.196C131.35 183.055 136.927 178.184 139.377 185.371C141.827 192.557 134.746 193.742 134.667 193.536C134.587 193.329 131.211 183.196 131.211 183.196Z" fill="#A2675F"/>
<path d="M135.737 189.958C135.737 189.958 135.877 189.958 136.106 190.013C136.418 190.023 136.723 189.907 136.962 189.687C137.281 189.226 137.482 188.682 137.545 188.109C137.608 187.536 137.531 186.955 137.321 186.425C137.127 185.804 136.807 185.239 136.385 184.772C136.248 184.572 136.069 184.412 135.862 184.305C135.655 184.199 135.428 184.15 135.199 184.164C135.054 184.178 134.919 184.249 134.817 184.362C134.715 184.476 134.653 184.625 134.642 184.783C134.642 185.022 134.711 185.142 134.642 185.175C134.572 185.207 134.462 185.109 134.413 184.794C134.39 184.601 134.428 184.405 134.522 184.24C134.65 184.015 134.854 183.855 135.09 183.794C135.379 183.744 135.675 183.774 135.95 183.883C136.225 183.991 136.47 184.174 136.663 184.414C137.151 184.924 137.52 185.554 137.739 186.251C138.197 187.708 137.978 189.339 137.131 190.024C136.975 190.151 136.795 190.238 136.603 190.279C136.412 190.321 136.215 190.315 136.026 190.263C135.807 190.122 135.717 189.98 135.737 189.958Z" fill="#7A4A45"/>
<path d="M89.8373 175.075C89.6835 174.332 89.7337 173.556 89.9817 172.845C90.2297 172.133 90.6645 171.517 91.2316 171.074C90.7087 170.531 90.3707 169.809 90.2734 169.028C90.1761 168.248 90.3252 167.454 90.6962 166.778C91.0672 166.102 91.638 165.584 92.3146 165.31C92.9911 165.035 93.7332 165.021 94.4185 165.268C94.2398 164.735 94.1797 164.164 94.2433 163.6C94.3069 163.037 94.4923 162.499 94.7842 162.029C95.0761 161.56 95.4661 161.173 95.922 160.9C96.3779 160.628 96.8866 160.478 97.4061 160.462C97.135 159.848 97.0629 159.151 97.2016 158.486C97.3404 157.821 97.6818 157.228 98.1699 156.802C98.6581 156.376 99.2641 156.144 99.8888 156.144C100.514 156.143 101.12 156.374 101.609 156.799C101.753 156.035 102.053 155.317 102.485 154.698C102.918 154.078 103.473 153.572 104.109 153.219C104.745 152.865 105.446 152.671 106.159 152.653C106.873 152.635 107.581 152.792 108.232 153.113C109.366 152.066 110.813 151.509 112.298 151.549C113.783 151.589 115.203 152.223 116.288 153.33C117.379 152.938 118.552 152.908 119.659 153.245C120.765 153.582 121.755 154.27 122.503 155.222C123.208 154.976 123.961 154.937 124.684 155.109C125.408 155.281 126.077 155.659 126.624 156.203C127.172 156.748 127.578 157.44 127.802 158.211C128.026 158.982 128.06 159.803 127.9 160.593C128.378 160.662 128.835 160.851 129.235 161.144C129.635 161.437 129.968 161.827 130.208 162.283C130.448 162.74 130.588 163.25 130.618 163.775C130.648 164.301 130.567 164.826 130.38 165.311C130.956 165.361 131.508 165.588 131.971 165.965C132.434 166.342 132.791 166.855 132.999 167.443C133.207 168.032 133.258 168.673 133.148 169.292C133.037 169.911 132.768 170.484 132.372 170.943C133.368 170.639 134.274 171.846 134.364 172.976C134.319 174.105 134.219 175.23 134.065 176.347C134.065 177.282 134.294 178.195 134.334 179.13C134.366 180.008 134.222 180.883 133.912 181.694C133.603 182.505 133.135 183.233 132.541 183.827L132.79 183.968C133.298 184.794 132.382 185.936 131.466 185.925C130.555 185.781 129.705 185.342 129.026 184.664C128.128 184.078 127.318 183.345 126.626 182.489C126.287 182.051 126.088 181.504 126.06 180.931C126.031 180.358 126.174 179.791 126.466 179.315C125.828 179.313 125.202 179.128 124.649 178.779C124.097 178.43 123.638 177.929 123.319 177.325C122.691 176.114 122.269 174.787 122.074 173.411L120.879 167.399C119.686 167.881 118.394 167.997 117.144 167.734C115.894 167.472 114.733 166.841 113.789 165.909C113.483 166.429 113.079 166.872 112.604 167.209C112.129 167.545 111.593 167.767 111.034 167.859C110.474 167.952 109.902 167.913 109.357 167.746C108.812 167.578 108.306 167.286 107.873 166.888C107.929 168.327 107.481 169.735 106.621 170.827C105.762 171.919 104.554 172.614 103.242 172.77C104.049 174.118 102.157 176.553 100.981 177.532C100.015 178.142 98.8923 178.39 97.7846 178.238C97.7846 178.238 96.0716 180.717 94.6276 180.739C93.1835 180.761 90.9229 179.782 91.2017 178.032C90.5398 177.177 90.0723 176.164 89.8373 175.075Z" fill="#263238"/>
<path d="M130.725 165.138C130.709 165.559 130.607 165.971 130.426 166.344C130.319 166.533 130.173 166.692 130.001 166.809C129.828 166.926 129.633 166.998 129.43 167.019C129.182 167.051 128.931 167.009 128.703 166.898C128.475 166.787 128.279 166.611 128.135 166.388L127.896 165.997L127.707 166.421C127.542 166.746 127.302 167.017 127.01 167.208C126.718 167.399 126.384 167.503 126.044 167.508C125.66 167.489 125.29 167.342 124.984 167.088C124.678 166.833 124.45 166.483 124.331 166.084L124.222 165.649L123.933 165.964C123.759 166.15 123.554 166.297 123.328 166.395C123.103 166.494 122.861 166.544 122.618 166.54C122.226 166.538 121.845 166.397 121.533 166.138C120.995 165.692 120.875 165.225 120.816 165.246C120.756 165.268 120.816 165.79 121.343 166.334C121.686 166.686 122.129 166.901 122.598 166.942C122.902 166.965 123.208 166.919 123.495 166.809C123.783 166.699 124.047 166.526 124.271 166.301L123.863 166.181C123.985 166.678 124.244 167.122 124.605 167.452C124.965 167.782 125.411 167.983 125.88 168.027C126.349 168.071 126.819 167.956 127.226 167.698C127.634 167.439 127.958 167.05 128.155 166.584H127.727C127.926 166.88 128.196 167.11 128.507 167.248C128.818 167.386 129.158 167.427 129.49 167.366C129.742 167.315 129.98 167.201 130.186 167.033C130.391 166.866 130.559 166.649 130.675 166.399C131.053 165.649 130.755 165.094 130.725 165.138Z" fill="#455A64"/>
<path d="M134.242 171.465C134.192 171.465 134.093 171.77 133.664 172.074C133.383 172.286 133.05 172.399 132.708 172.399C132.367 172.399 132.033 172.286 131.752 172.074L131.533 171.878L131.434 172.172C131.31 172.499 131.111 172.785 130.856 173.004C130.601 173.223 130.3 173.367 129.979 173.422C129.609 173.466 129.235 173.385 128.908 173.191C128.58 172.997 128.315 172.698 128.147 172.335L127.948 171.878L127.689 172.291C127.622 172.398 127.542 172.493 127.45 172.574C127.243 172.761 126.988 172.872 126.72 172.894C126.453 172.915 126.186 172.845 125.956 172.694C125.753 172.541 125.592 172.331 125.49 172.086C125.388 171.84 125.35 171.569 125.378 171.302L125.448 170.758L125.02 171.041C124.528 171.36 123.943 171.457 123.387 171.313C122.943 171.205 122.545 170.941 122.251 170.563C122.003 170.204 121.796 169.813 121.634 169.399C121.61 169.644 121.634 169.891 121.702 170.125C121.771 170.359 121.883 170.574 122.032 170.758C122.335 171.225 122.774 171.566 123.277 171.726C123.607 171.834 123.953 171.869 124.295 171.828C124.638 171.787 124.969 171.671 125.269 171.487L124.94 171.237C124.89 171.604 124.935 171.979 125.071 172.319C125.206 172.659 125.427 172.951 125.707 173.161C126.024 173.387 126.398 173.497 126.776 173.476C127.153 173.454 127.515 173.302 127.808 173.042C127.94 172.92 128.057 172.781 128.157 172.628H127.699C127.886 173.072 128.191 173.444 128.574 173.696C128.956 173.949 129.399 174.071 129.846 174.046C130.293 174.022 130.722 173.852 131.08 173.558C131.437 173.265 131.706 172.862 131.852 172.4L131.533 172.498C131.726 172.651 131.946 172.76 132.179 172.818C132.411 172.876 132.653 172.882 132.888 172.835C133.255 172.79 133.601 172.628 133.883 172.368C134.242 171.857 134.272 171.465 134.242 171.465Z" fill="#455A64"/>
<path d="M98.2087 159.875C98.3496 159.58 98.5386 159.315 98.7664 159.093C98.9215 158.952 99.1016 158.847 99.2955 158.786C99.4894 158.725 99.6928 158.708 99.8929 158.736C100.093 158.765 100.286 158.838 100.459 158.952C100.631 159.066 100.781 159.217 100.898 159.397L101.137 159.756L101.196 159.31C101.267 158.844 101.445 158.405 101.713 158.034C101.981 157.664 102.331 157.373 102.73 157.19C103.217 156.984 103.751 156.953 104.256 157.099C104.76 157.246 105.209 157.563 105.538 158.005L105.837 158.408L105.957 157.908C106.089 157.423 106.319 156.976 106.629 156.6C106.939 156.224 107.322 155.928 107.749 155.733C108.212 155.533 108.713 155.462 109.206 155.526C109.7 155.591 110.172 155.789 110.578 156.103C110.914 156.359 111.199 156.689 111.414 157.07L111.564 157.331L111.793 157.147C112.337 156.723 112.996 156.511 113.664 156.544C114.332 156.578 114.971 156.855 115.477 157.331C115.902 157.774 116.201 158.34 116.34 158.962C116.48 159.584 116.453 160.237 116.264 160.843L116.125 161.245L116.503 161.148C117.346 160.953 118.225 161.124 118.953 161.626C119.513 162.016 119.948 162.586 120.198 163.257C120.4 163.852 120.504 164.481 120.507 165.116C120.507 165.116 120.586 164.953 120.606 164.616C120.646 164.122 120.585 163.624 120.427 163.159C120.192 162.411 119.742 161.766 119.142 161.321C118.748 161.025 118.304 160.817 117.836 160.709C117.367 160.601 116.884 160.595 116.414 160.691L116.663 161.006C116.945 160.256 116.993 159.425 116.8 158.642C116.607 157.859 116.183 157.167 115.595 156.673C115.006 156.178 114.284 155.909 113.542 155.906C112.799 155.903 112.076 156.167 111.484 156.657L111.862 156.733C111.604 156.299 111.265 155.928 110.866 155.646C110.39 155.275 109.835 155.042 109.253 154.968C108.672 154.894 108.082 154.981 107.54 155.222C107.042 155.453 106.598 155.803 106.241 156.248C105.884 156.692 105.623 157.218 105.479 157.788L105.907 157.69C105.555 157.212 105.081 156.859 104.545 156.674C104.009 156.489 103.434 156.482 102.895 156.653C102.355 156.824 101.873 157.165 101.511 157.634C101.148 158.103 100.921 158.679 100.858 159.288L101.157 159.201C100.986 158.966 100.768 158.776 100.519 158.648C100.27 158.52 99.9975 158.456 99.7224 158.462C99.3168 158.479 98.9307 158.656 98.6369 158.962C98.4568 159.145 98.32 159.372 98.2385 159.625C98.1987 159.778 98.1987 159.875 98.2087 159.875Z" fill="#455A64"/>
<path d="M117.245 197.08C117.006 197.167 117.653 198.896 116.767 200.722C115.88 202.549 114.128 203.114 114.197 203.364C114.267 203.614 114.705 203.527 115.422 203.234C116.351 202.832 117.12 202.085 117.593 201.125C118.051 200.203 118.162 199.122 117.902 198.113C117.693 197.33 117.354 197.015 117.245 197.08Z" fill="#263238"/>
<path d="M107.544 228.392L99.6562 252.647L101.479 279.175L106.458 325.002C106.458 325.002 124.952 318.185 125.789 318.87C126.625 319.555 117.602 272.413 117.602 272.413L124.125 234.056L123.707 222.76L107.544 228.392Z" fill="#7E57C2"/>
<path d="M107.546 228.392L98.872 250.136L80.9459 257.812L62.2031 264.15L64.8323 278.871C64.9623 279.586 65.2252 280.264 65.6048 280.863C65.9844 281.463 66.4726 281.971 67.0392 282.356C67.6058 282.741 68.2387 282.995 68.8989 283.103C69.5591 283.21 70.2325 283.169 70.8774 282.981L86.742 278.327L101.521 277.588L109.209 258.084L107.546 228.392Z" fill="#7E57C2"/>
<path d="M68.3279 258.094L69.6425 256.311C70.936 256.299 72.2157 256.604 73.387 257.203C75.1036 258.743 76.3619 260.805 77.0021 263.128C77.1462 264.799 77.1462 266.481 77.0021 268.151L68.0391 258.094" fill="#A2675F"/>
<path d="M50.8516 247.527C50.8516 247.82 67.7818 267.401 67.7818 267.401L70.9687 270.837H81.1268L61.4081 246.918L52.9031 245.331L50.8516 247.527Z" fill="#263238"/>
<path d="M119.515 291.026C119.364 290.813 119.234 290.584 119.127 290.341L118.131 288.319C117.275 286.558 116.06 283.97 114.645 280.709C112.963 276.939 111.467 273.074 110.164 269.13C109.792 267.98 109.482 266.808 109.238 265.618C109.111 264.995 109.021 264.363 108.969 263.726C108.969 263.096 108.969 262.454 108.969 261.813C108.969 259.236 108.969 256.573 109.088 253.844C109.208 250.386 109.367 247.048 109.556 243.874V243.711L109.696 243.646L114.944 241.123L115.004 241.623L111.02 241.047H110.682L110.851 240.732C113.44 235.883 115.591 231.827 117.135 228.925L118.918 225.663L119.406 224.815C119.455 224.711 119.519 224.615 119.595 224.532C119.564 224.643 119.521 224.749 119.465 224.848L119.037 225.739L117.354 229.088L111.239 240.993L111.07 240.634L115.054 241.178L115.9 241.286L115.123 241.667L109.895 244.211L110.044 243.972C109.865 247.146 109.706 250.495 109.586 253.931C109.497 256.649 109.437 259.301 109.457 261.867C109.457 262.509 109.457 263.139 109.457 263.77C109.5 264.377 109.583 264.98 109.706 265.575C109.941 266.744 110.237 267.899 110.592 269.032C111.996 273.479 113.58 277.36 114.964 280.611C116.348 283.862 117.484 286.449 118.29 288.221L119.207 290.287C119.326 290.525 119.429 290.772 119.515 291.026Z" fill="#263238"/>
<path d="M60.837 258.095C60.837 258.095 58.2676 260.117 58.3373 261.269C58.338 261.777 58.4517 262.277 58.6686 262.725C58.8854 263.174 59.199 263.559 59.5822 263.846C60.1797 264.064 61.9524 265.064 61.9524 265.064C61.9524 265.064 60.369 266.716 60.837 268.445C60.9235 268.907 61.1034 269.342 61.3635 269.718C61.6237 270.094 61.9576 270.402 62.3408 270.619C62.3773 271.822 62.5995 273.009 62.9981 274.131C63.6031 275.027 64.496 275.641 65.4978 275.849C66.0565 277.087 66.7235 278.263 67.4896 279.361C68.259 280.14 69.2159 280.664 70.2482 280.872C70.2482 280.872 72.6185 281.165 73.8633 280.23C74.7088 279.766 75.4133 279.045 75.8921 278.154C76.3709 277.263 76.6036 276.24 76.5622 275.208C76.5622 275.208 82.2189 272.12 82.2787 270.543C82.3384 268.967 81.6911 268.467 81.6911 268.467L78.8627 269.032C78.8627 269.032 78.4644 267.39 77.6179 267.238C76.7714 267.086 66.4439 269.826 66.4439 269.826C66.4439 269.826 73.4749 268.608 73.6741 267.097C73.8733 265.586 73.9331 264.303 72.8774 264.009C71.8218 263.716 64.3426 264.607 64.3426 264.607L63.9442 263.15C63.9442 263.15 65.936 263.226 65.936 261.291C65.936 259.356 64.8206 258.921 64.8206 258.921L60.837 258.095Z" fill="#A2675F"/>
<path d="M119.514 224.511L120.371 232.002L115.062 264.585L120.45 292.712L148.375 301.725L159.36 296.55L155.605 217.596L145.627 209.942L141.792 207.126L127.412 230.893L119.514 224.511Z" fill="#FAFAFA"/>
<path d="M144.864 209.344L151.836 212.736L176.554 216.367L189.889 292.929L191.562 301.725L217.127 343.485C217.404 343.938 217.593 344.449 217.681 344.985C217.77 345.521 217.756 346.072 217.641 346.603C217.527 347.133 217.313 347.632 217.013 348.068C216.714 348.504 216.336 348.869 215.902 349.138L194.988 362.185C194.211 362.619 193.314 362.727 192.469 362.486C191.625 362.245 190.89 361.674 190.407 360.88L163.786 317.12L150.601 298.691C150.601 298.691 142.703 272.598 141.638 261.498C140.808 251.766 140.808 241.972 141.638 232.241C142.255 225.598 144.864 209.344 144.864 209.344Z" fill="#7E57C2"/>
<path d="M176.51 216.367C178.119 217.29 179.517 218.597 180.598 220.191C181.679 221.786 182.416 223.627 182.754 225.576C184.328 234.665 189.068 250.517 190.851 267.445C193.341 291.124 187.505 298.431 184.756 302.518C182.008 306.606 164.958 315.282 164.958 315.282L152.141 296.648L166.332 283.949L165.087 251.061C165.087 251.061 160.108 243.58 162.598 232.469C165.087 221.358 172.357 215.693 176.54 216.367H176.51Z" fill="#7E57C2"/>
<g opacity="0.3">
<path d="M189.739 292.309C187.797 298.05 185.576 302.899 181.055 305.627C176.234 308.541 169.532 312.651 164.961 315.282L168.307 320.957C173.556 320.077 183.246 313.401 186.393 308.737C189.439 303.952 190.64 298.052 189.739 292.309Z" fill="black"/>
</g>
<path d="M164.781 252.778C164.824 252.938 164.854 253.102 164.871 253.267C164.931 253.626 165 254.104 165.1 254.713C165.279 256.029 165.548 257.899 165.887 260.302C166.564 265.194 167.53 272.261 168.715 280.959V281.067L168.635 281.144L152.313 296.843V296.506L165.14 315.13L164.821 315.054C169.083 312.705 173.495 310.161 177.857 307.345C179.102 306.53 180.327 305.715 181.512 304.834C182.69 304.006 183.793 303.06 184.809 302.007C186.538 299.666 187.907 297.033 188.862 294.212C190.621 288.823 191.435 283.121 191.262 277.404C191.143 272.218 190.687 267.048 189.898 261.932C189.211 257.116 188.414 252.658 187.627 248.603C186.063 240.482 184.55 233.969 183.494 229.479C182.956 227.305 182.498 225.522 182.249 224.315C182.11 223.738 182 223.293 181.931 222.967C181.881 222.815 181.847 222.659 181.831 222.499C181.831 222.499 181.891 222.651 181.98 222.945C182.07 223.238 182.189 223.717 182.349 224.282C182.667 225.445 183.126 227.185 183.693 229.425C184.809 233.904 186.372 240.405 187.986 248.516C188.802 252.571 189.619 257.04 190.326 261.867C191.136 266.999 191.605 272.187 191.73 277.393C191.922 283.182 191.111 288.958 189.34 294.418C188.361 297.303 186.959 299.995 185.187 302.388C184.149 303.479 183.015 304.455 181.801 305.302C180.606 306.182 179.371 307.008 178.126 307.824C173.734 310.661 169.332 313.206 165.05 315.543L164.861 315.652L164.731 315.467L151.934 296.81L151.805 296.615L151.964 296.462L168.347 280.828L168.287 281.013C167.161 272.315 166.295 265.27 165.628 260.356C165.329 257.953 165.09 256.007 164.931 254.757C164.861 254.137 164.801 253.67 164.761 253.3C164.758 253.126 164.765 252.951 164.781 252.778Z" fill="#263238"/>
<path d="M146.689 280.905C146.682 280.649 146.702 280.394 146.749 280.144C146.808 279.6 146.898 278.882 146.997 277.969C147.256 276.034 147.605 273.348 148.043 270.065C148.91 263.389 150.274 254.192 151.599 243.972C152.216 239.036 152.804 234.339 153.331 230.055L153.491 230.327L149.268 228.566L148.85 228.392L149.218 228.131L153.461 225.13L153.381 225.337C152.873 221.499 152.465 218.357 152.166 216.096C152.047 215.008 151.937 214.215 151.867 213.573C151.815 213.28 151.792 212.981 151.798 212.682C151.88 212.965 151.94 213.256 151.977 213.551C152.077 214.193 152.216 215.019 152.385 216.063C152.724 218.313 153.192 221.445 153.76 225.272V225.413L153.66 225.489L149.447 228.533L149.398 228.109L153.64 229.838L153.819 229.914V230.121C153.302 234.404 152.724 239.112 152.116 244.048C150.802 254.235 149.378 263.433 148.412 270.141C147.914 273.403 147.505 276.099 147.207 278.023L146.858 280.198C146.822 280.439 146.765 280.675 146.689 280.905Z" fill="#263238"/>
<path d="M172.75 217.4C172.81 217.487 171.545 218.487 169.842 220.368C168.853 221.501 167.954 222.723 167.153 224.021C165.171 227.206 163.815 230.804 163.169 234.589C162.909 236.128 162.769 237.688 162.751 239.253C162.751 241.938 163.02 243.602 162.92 243.602C162.786 243.232 162.699 242.845 162.661 242.449C162.576 242.001 162.517 241.547 162.482 241.09C162.42 240.48 162.387 239.867 162.383 239.253C162.345 237.658 162.448 236.064 162.691 234.491C163.012 232.569 163.506 230.686 164.165 228.87C164.859 227.067 165.717 225.344 166.725 223.727C167.559 222.418 168.506 221.198 169.553 220.085C169.949 219.657 170.364 219.25 170.798 218.868C171.115 218.565 171.448 218.282 171.794 218.02C172.086 217.768 172.408 217.56 172.75 217.4Z" fill="#263238"/>
<path d="M101.374 277.61C101.234 277.61 100.776 272.348 100.378 265.825C99.9793 259.301 99.7304 254.017 99.8798 253.996C100.029 253.974 100.477 259.269 100.876 265.781C101.274 272.294 101.513 277.599 101.374 277.61Z" fill="#263238"/>
<path d="M185.562 325.611L189.397 334.156L207.154 321.751L201.009 314.151L185.562 325.611Z" fill="#7E57C2"/>
<path d="M185.562 325.622C185.899 325.302 186.255 325.007 186.628 324.741L189.755 322.338L200.869 313.945L201.049 313.814L201.188 313.988L207.353 321.599L207.552 321.849L207.293 322.023L206.516 322.567L189.496 334.319L189.317 334.439L189.237 334.232L186.489 327.883C186.2 327.187 185.961 326.622 185.782 326.176C185.693 325.992 185.62 325.799 185.562 325.6C185.687 325.787 185.794 325.987 185.881 326.198C186.09 326.644 186.359 327.209 186.698 327.894L189.566 334.058L189.297 333.982L206.227 322.023L207.004 321.479V321.903C204.833 319.218 202.762 316.652 200.869 314.293H201.188L190.064 322.393L186.817 324.708L185.931 325.328L185.562 325.622Z" fill="#263238"/>
<g opacity="0.3">
<path d="M185.695 325.991C185.775 326.154 189.679 339.114 189.679 339.114L206.241 326.285L204.817 323.447L189.4 334.211L185.695 325.991Z" fill="black"/>
</g>
<g opacity="0.3">
<path d="M152.294 216.313L155.281 226.913L152.294 228.392L156.228 230.501C156.228 230.501 150.033 267.467 149.256 270.837C148.48 274.207 147.523 275.295 147.523 275.295L153.569 230.142L149.346 228.392L153.569 225.359L152.294 216.313Z" fill="black"/>
</g>
<path d="M86.7712 274.077C86.6928 271.534 86.3146 269.012 85.6458 266.575C84.813 264.204 83.7087 261.957 82.3594 259.889C82.9265 260.334 83.4128 260.891 83.7935 261.53C85.8207 264.508 86.939 268.106 86.9903 271.815C87.0423 272.578 86.9681 273.344 86.7712 274.077Z" fill="#263238"/>
<g opacity="0.3">
<path d="M99.7321 252.952C96.7444 260.998 97.8498 269.815 101.306 277.61C100.768 268.641 100.449 261.65 99.7321 252.952Z" fill="black"/>
</g>
<path d="M142.706 216.041C142.571 216.424 142.397 216.788 142.188 217.128L140.644 219.944C139.349 222.336 137.656 225.663 135.934 229.457C134.778 232.012 133.792 234.458 132.946 236.524L132.836 236.829L132.607 236.633C131.291 235.486 130.053 234.236 128.902 232.893C128.441 232.41 128.033 231.87 127.688 231.284C128.185 231.718 128.655 232.191 129.092 232.697C130.297 233.949 131.56 235.132 132.876 236.242L132.538 236.339C133.304 234.241 134.27 231.784 135.426 229.207C136.885 225.956 138.507 222.794 140.286 219.738C140.973 218.563 141.56 217.639 141.979 217.009C142.184 216.655 142.428 216.33 142.706 216.041Z" fill="#263238"/>
<path d="M126.347 231.034C125.955 232.932 125.398 234.785 124.684 236.568L124.554 236.948L124.275 236.687L124.146 236.557C122.697 235.299 121.452 233.784 120.461 232.077C120.57 231.969 122.214 233.969 124.445 236.133L124.574 236.252L124.166 236.372C124.735 234.52 125.465 232.733 126.347 231.034Z" fill="#263238"/>
<path d="M129.279 286.667C129.224 286.5 129.197 286.323 129.199 286.145C129.199 285.721 129.12 285.221 129.07 284.612C128.99 283.188 128.871 281.285 128.731 278.969C128.463 274.207 128.154 267.63 127.885 260.356C127.616 253.083 127.477 246.494 127.477 241.721C127.477 239.329 127.477 237.372 127.546 236.068C127.546 235.459 127.546 234.98 127.616 234.535C127.616 234.355 127.636 234.176 127.676 234.002C127.703 234.178 127.703 234.358 127.676 234.535C127.676 234.948 127.676 235.459 127.676 236.068C127.676 237.492 127.735 239.395 127.775 241.71C127.865 246.483 128.074 253.061 128.333 260.334C128.592 267.608 128.841 274.109 129.02 278.948C129.1 281.274 129.16 283.177 129.209 284.601C129.209 285.21 129.209 285.688 129.209 286.134C129.248 286.309 129.271 286.487 129.279 286.667Z" fill="#263238"/>
<path d="M70.9671 433.495L73.5465 460.034C73.5465 460.034 49.645 471.82 49.7346 476.766L97.0596 473.168L94.5997 431.614L70.9671 433.495Z" fill="#7E57C2"/>
<path d="M88.0397 456.686C88.4992 456.813 88.9021 457.115 89.1759 457.537C89.4497 457.96 89.5765 458.475 89.5335 458.99C89.4436 459.501 89.1777 459.955 88.7905 460.259C88.4033 460.562 87.9243 460.692 87.4521 460.621C86.9549 460.508 86.5162 460.192 86.2255 459.737C85.9349 459.282 85.8144 458.724 85.8886 458.175C86.0301 457.652 86.3525 457.21 86.7875 456.942C87.2225 456.674 87.7359 456.602 88.219 456.74" fill="#E0E0E0"/>
<path d="M97.1697 474.244L96.9307 470.222L51.4382 474.005C51.4382 474.005 49.3866 475.169 49.7352 476.767L97.1697 474.244Z" fill="#E0E0E0"/>
<path d="M72.7597 459.839C72.7597 460.089 73.9448 460.11 75.1399 460.839C76.335 461.567 77.0022 462.578 77.2014 462.459C77.4006 462.339 76.9723 460.915 75.5183 460.067C74.0643 459.219 72.7 459.61 72.7597 459.839Z" fill="#263238"/>
<path d="M67.9376 462.459C67.9376 462.698 68.9334 463.057 69.78 464.068C70.6265 465.079 70.9352 466.177 71.1643 466.156C71.3933 466.134 71.4531 464.688 70.3675 463.459C69.282 462.231 67.9276 462.209 67.9376 462.459Z" fill="#263238"/>
<path d="M65.5393 469.134C65.7485 469.134 65.9875 467.884 65.3103 466.547C64.6331 465.209 63.5077 464.742 63.4281 464.959C63.3484 465.177 64.0555 465.873 64.6032 466.971C65.151 468.069 65.3003 469.134 65.5393 469.134Z" fill="#263238"/>
<path d="M72.7922 453.718C72.9017 453.935 73.9374 453.511 75.252 453.5C76.5666 453.489 77.6123 453.87 77.7218 453.652C77.8314 453.435 76.7857 452.565 75.2421 452.62C73.6984 452.674 72.6627 453.522 72.7922 453.718Z" fill="#263238"/>
<path d="M62.5443 326.372L40.6346 338.201C40.6346 338.201 22.2503 317.848 18.0078 319.61L37.4875 366.827L72.3439 349.921L62.5443 326.372Z" fill="#7E57C2"/>
<path d="M48.5207 351.878C48.5831 352.395 48.4681 352.918 48.1977 353.348C47.9274 353.778 47.5209 354.083 47.0567 354.205C46.5865 354.292 46.1035 354.178 45.7084 353.886C45.3132 353.595 45.0364 353.148 44.9354 352.639C44.8612 352.091 44.9818 351.532 45.2724 351.077C45.563 350.622 46.0018 350.306 46.499 350.193C46.9889 350.173 47.4672 350.358 47.837 350.709C48.2069 351.061 48.4406 351.552 48.4908 352.085" fill="#E0E0E0"/>
<path d="M36.592 367.317L39.9681 365.675L20.9564 320.392C20.9564 320.392 19.2535 318.707 17.9688 319.609L36.592 367.317Z" fill="#E0E0E0"/>
<path d="M40.5245 337.331C40.3153 337.44 40.6938 338.636 40.5245 340.104C40.3552 341.571 39.678 342.615 39.8473 342.789C40.0166 342.963 41.1021 342.017 41.3212 340.234C41.5403 338.451 40.7037 337.179 40.5245 337.331Z" fill="#263238"/>
<path d="M36.6007 333.298C36.3816 333.298 36.4314 334.526 35.8638 335.744C35.2961 336.962 34.4396 337.657 34.5392 337.918C34.6388 338.179 35.9036 337.701 36.5808 336.168C37.258 334.635 36.8099 333.232 36.6007 333.298Z" fill="#263238"/>
<path d="M30.0209 333.156C30.0209 333.384 31.2459 333.156 32.1621 332.069C33.0783 330.982 33.0883 329.601 32.8692 329.59C32.6501 329.579 32.3115 330.558 31.5446 331.493C30.7778 332.428 29.9412 332.917 30.0209 333.156Z" fill="#263238"/>
<path d="M45.7933 335.233C45.644 335.428 46.371 336.32 46.7892 337.69C47.2075 339.06 47.2872 340.234 47.5162 340.255C47.7453 340.277 48.1038 338.94 47.5162 337.374C46.9287 335.809 45.9128 335.037 45.7933 335.233Z" fill="#263238"/>
<path d="M73.2367 341.419C70.8673 342.064 68.7176 343.439 67.0438 345.38C65.3699 347.321 64.2424 349.746 63.7956 352.367C62.1922 361.576 67.9983 454.196 67.9983 454.196L97.7756 451.587L95.9531 389.18L95.2161 376.59L97.7756 374.416L150.11 364.359L142.143 340.745L133.389 324.11L93.304 334.983L73.2367 341.419Z" fill="#263238"/>
<path d="M171.75 325.817C171.75 325.817 150.099 291.646 143.766 286.678C138.547 282.579 130.699 282.59 125.839 284.971C120.979 287.352 45.1719 328.405 45.1719 328.405L56.296 358.847L128.459 331.547L139.214 350.03L149.233 364.511L177.357 364.751C178.682 364.751 184.727 351.704 184.727 351.704L171.75 325.817Z" fill="#263238"/>
<path d="M63.519 359.51C63.5041 359.406 63.5041 359.3 63.519 359.195C63.519 358.945 63.519 358.641 63.519 358.26C63.519 357.88 63.519 357.325 63.519 356.727C63.519 356.129 63.6485 355.433 63.7282 354.651C63.8078 353.868 64.0369 353.031 64.1962 352.085C64.2859 351.617 64.4651 351.15 64.6045 350.661C64.7491 350.143 64.9289 349.638 65.1423 349.149C66.0642 346.792 67.5334 344.739 69.4048 343.191C70.495 342.286 71.7364 341.621 73.0597 341.234L77.3719 340.43L86.8628 338.701L108.623 334.765L128.382 331.232H128.541L128.631 331.384C134.417 341.245 139.117 349.867 143.071 355.433C144.983 358.249 146.517 360.489 147.593 362.055C148.1 362.805 148.499 363.392 148.798 363.816L149.096 364.272L149.196 364.436C149.196 364.436 149.196 364.436 149.066 364.305L148.728 363.87L147.463 362.163C146.368 360.663 144.774 358.456 142.832 355.64C138.799 350.073 134.028 341.506 128.222 331.721L128.461 331.841L108.703 335.407L86.9425 339.299L77.4416 340.984L73.1493 341.745C71.8741 342.111 70.6742 342.738 69.6139 343.594C67.7824 345.092 66.335 347.08 65.4112 349.367C65.1904 349.842 65.0072 350.336 64.8635 350.845C64.6969 351.304 64.554 351.772 64.4352 352.248C64.2265 353.078 64.0603 353.92 63.9373 354.77L63.6684 356.825C63.6684 357.412 63.6086 357.912 63.5887 358.347C63.5688 358.782 63.5887 359.043 63.529 359.282C63.5311 359.358 63.5277 359.435 63.519 359.51Z" fill="#455A64"/>
<path d="M138.785 310.4C138.86 310.72 138.897 311.049 138.895 311.379C138.961 312.273 138.961 313.171 138.895 314.064C138.782 315.396 138.559 316.713 138.228 318C137.807 319.571 137.254 321.096 136.575 322.555C135.86 323.995 135.027 325.359 134.085 326.633C133.298 327.658 132.432 328.608 131.495 329.47C130.872 330.051 130.206 330.575 129.504 331.036C129.256 331.23 128.985 331.383 128.697 331.492C128.647 331.405 129.693 330.666 131.256 329.166C132.14 328.284 132.959 327.328 133.706 326.306C134.614 325.047 135.42 323.705 136.116 322.295C136.782 320.866 137.335 319.379 137.77 317.848C138.117 316.597 138.37 315.317 138.527 314.021C138.756 311.814 138.686 310.4 138.785 310.4Z" fill="#455A64"/>
<path d="M389.756 418.774L259.443 418.698C251.917 418.693 244.7 415.424 239.379 409.612C234.059 403.8 231.07 395.919 231.07 387.702L231.14 30.9857C231.14 26.9148 231.875 22.8837 233.302 19.123C234.73 15.3622 236.823 11.9454 239.46 9.06782C242.098 6.19024 245.229 3.90831 248.675 2.35241C252.121 0.79651 255.814 -0.00284916 259.543 7.63031e-06L389.856 0.130473C397.383 0.136237 404.6 3.40448 409.92 9.21684C415.24 15.0292 418.229 22.91 418.229 31.127L418.169 387.8C418.167 391.87 417.43 395.9 416 399.66C414.571 403.419 412.477 406.835 409.839 409.711C407.201 412.587 404.069 414.868 400.623 416.423C397.178 417.978 393.485 418.777 389.756 418.774Z" fill="#263238"/>
<path d="M389.719 12.742H364.453C362.79 12.7848 361.21 13.5459 360.06 14.8584C358.91 16.1709 358.284 17.9278 358.319 19.7437V24.7449C358.337 25.6444 358.193 26.5391 357.895 27.3779C357.596 28.2167 357.15 28.983 356.58 29.6332C356.01 30.2835 355.329 30.8048 354.575 31.1674C353.82 31.53 353.008 31.7268 352.184 31.7465H302.937C302.113 31.7268 301.3 31.53 300.546 31.1674C299.792 30.8048 299.11 30.2835 298.541 29.6332C297.971 28.983 297.524 28.2167 297.226 27.3779C296.928 26.5391 296.784 25.6444 296.802 24.7449V19.6784C296.837 17.8625 296.211 16.1057 295.061 14.7932C293.911 13.4806 292.331 12.7195 290.667 12.6768H281.774H259.665C254.383 12.6768 249.316 14.9677 245.581 19.0455C241.846 23.1234 239.747 28.6542 239.747 34.4211L239.688 382.559C239.687 388.317 241.779 393.839 245.504 397.915C249.228 401.992 254.282 404.289 259.556 404.303L389.62 404.379C394.902 404.379 399.968 402.089 403.704 398.011C407.439 393.933 409.538 388.402 409.538 382.635L409.607 34.4972C409.61 28.734 407.517 23.2054 403.787 19.1261C400.058 15.0469 394.998 12.7506 389.719 12.742Z" fill="white"/>
<path d="M409.59 34.4537C409.59 28.6868 407.492 23.156 403.756 19.0781C400.021 15.0003 394.955 12.7094 389.672 12.7094H364.406C362.743 12.7522 361.163 13.5133 360.013 14.8258C358.863 16.1383 358.237 17.8952 358.272 19.7111V24.7123C358.29 25.6118 358.146 26.5065 357.848 27.3453C357.55 28.184 357.103 28.9504 356.533 29.6006C355.963 30.2508 355.282 30.7721 354.528 31.1347C353.773 31.4974 352.961 31.6942 352.137 31.7139H302.89C302.066 31.6942 301.254 31.4974 300.499 31.1347C299.745 30.7721 299.064 30.2508 298.494 29.6006C297.924 28.9504 297.477 28.184 297.179 27.3453C296.881 26.5065 296.737 25.6118 296.755 24.7123V19.6784C296.79 17.8625 296.164 16.1057 295.014 14.7932C293.864 13.4806 292.284 12.7195 290.62 12.6768H281.727H259.618C254.336 12.6768 249.27 14.9677 245.534 19.0455C241.799 23.1234 239.7 28.6542 239.7 34.4211L239.641 67.7117H409.58L409.59 34.4537Z" fill="#F5F5F5"/>
<path d="M395.776 46.685C395.776 46.7828 392.728 46.9024 388.974 46.935C386.706 47.0202 384.436 46.9766 382.172 46.8046C386.702 46.511 391.242 46.4711 395.776 46.685Z" fill="#263238"/>
<path d="M395.828 50.4794C393.57 50.6922 391.303 50.7757 389.036 50.7295C386.768 50.8147 384.498 50.7711 382.234 50.599C382.234 50.5012 385.272 50.3924 389.036 50.349C392.801 50.3055 395.828 50.3816 395.828 50.4794Z" fill="#263238"/>
<path d="M395.828 54.2846C395.828 54.3825 392.791 54.4912 389.036 54.5238C386.769 54.609 384.498 54.5691 382.234 54.4042C386.761 54.1106 391.298 54.0707 395.828 54.2846Z" fill="#263238"/>
<path d="M277.43 309.574L278.117 307.998C279.327 309.069 280.841 309.646 282.399 309.628C284.63 309.628 285.596 308.683 285.596 307.454C285.596 304.008 277.748 306.182 277.748 300.931C277.748 298.756 279.302 296.886 282.728 296.886C284.198 296.856 285.645 297.294 286.891 298.147L286.283 299.746C285.22 299.006 283.988 298.606 282.728 298.593C280.527 298.593 279.581 299.604 279.581 300.844C279.581 304.301 287.428 302.138 287.428 307.367C287.428 309.541 285.835 311.39 282.449 311.39C280.633 311.446 278.856 310.803 277.43 309.574Z" fill="#263238"/>
<path d="M288.939 305.834C288.928 305.098 289.057 304.367 289.316 303.687C289.576 303.007 289.962 302.393 290.448 301.882C290.935 301.372 291.513 300.977 292.146 300.722C292.779 300.467 293.454 300.356 294.127 300.398C294.919 300.348 295.708 300.534 296.41 300.936C297.112 301.338 297.7 301.942 298.111 302.682L296.767 303.627C296.479 303.144 296.083 302.749 295.615 302.481C295.148 302.213 294.625 302.079 294.098 302.094C293.214 302.146 292.383 302.566 291.775 303.267C291.166 303.967 290.827 304.896 290.827 305.862C290.827 306.827 291.166 307.756 291.775 308.457C292.383 309.158 293.214 309.577 294.098 309.629C294.626 309.647 295.15 309.515 295.617 309.247C296.085 308.978 296.481 308.581 296.767 308.096L298.111 309.031C297.699 309.77 297.111 310.374 296.409 310.778C295.708 311.182 294.919 311.371 294.127 311.325C293.45 311.366 292.772 311.253 292.136 310.994C291.5 310.734 290.92 310.334 290.433 309.819C289.946 309.303 289.561 308.683 289.304 307.997C289.047 307.311 288.923 306.575 288.939 305.834Z" fill="#263238"/>
<path d="M308.191 304.725V311.183H306.508V309.77C306.134 310.301 305.643 310.72 305.08 310.988C304.518 311.256 303.902 311.365 303.291 311.303C301.07 311.303 299.656 310.009 299.656 308.15C299.656 306.291 300.652 305.019 303.64 305.019H306.458V304.638C306.458 303.008 305.582 302.051 303.829 302.051C302.704 302.041 301.609 302.447 300.722 303.203L299.975 301.746C301.15 300.813 302.576 300.331 304.028 300.376C306.677 300.376 308.191 301.79 308.191 304.725ZM306.418 307.911V306.421H303.68C301.917 306.421 301.419 307.161 301.419 308.074C301.419 308.987 302.236 309.813 303.58 309.813C304.176 309.862 304.771 309.704 305.281 309.362C305.79 309.021 306.188 308.513 306.418 307.911Z" fill="#263238"/>
<path d="M320.796 305.019V311.183H319.013V305.247C319.013 303.149 318.017 302.116 316.374 302.116C315.944 302.081 315.513 302.15 315.11 302.318C314.708 302.486 314.344 302.75 314.046 303.09C313.748 303.43 313.523 303.838 313.387 304.284C313.25 304.73 313.206 305.204 313.257 305.671V311.183H311.484V300.474H313.167V302.094C313.588 301.52 314.129 301.065 314.744 300.766C315.359 300.467 316.031 300.334 316.703 300.377C319.143 300.377 320.796 301.877 320.796 305.019Z" fill="#263238"/>
<path d="M333.397 305.019V311.184H331.624V305.247C331.624 303.149 330.628 302.116 328.975 302.116C328.546 302.08 328.114 302.149 327.712 302.318C327.31 302.486 326.947 302.75 326.65 303.09C326.353 303.43 326.128 303.838 325.993 304.285C325.858 304.731 325.815 305.205 325.868 305.671V311.184H324.125V300.475H325.828V302.094C326.248 301.519 326.788 301.063 327.403 300.764C328.019 300.465 328.691 300.332 329.363 300.377C331.714 300.377 333.397 301.877 333.397 305.019Z" fill="#263238"/>
<path d="M336.384 297.158C336.374 296.896 336.436 296.636 336.563 296.412C336.69 296.189 336.875 296.012 337.094 295.904C337.314 295.796 337.558 295.763 337.796 295.808C338.033 295.854 338.252 295.976 338.425 296.158C338.599 296.341 338.718 296.576 338.767 296.833C338.817 297.091 338.794 297.358 338.703 297.602C338.612 297.845 338.456 298.053 338.256 298.199C338.056 298.345 337.82 298.422 337.579 298.42C337.424 298.424 337.27 298.395 337.126 298.333C336.982 298.272 336.85 298.18 336.739 298.063C336.628 297.945 336.539 297.805 336.478 297.65C336.417 297.494 336.385 297.327 336.384 297.158ZM336.693 300.474H338.475V311.184H336.693V300.474Z" fill="#263238"/>
<path d="M351.171 305.019V311.183H349.388V305.247C349.388 303.149 348.392 302.116 346.739 302.116C346.31 302.08 345.878 302.149 345.476 302.318C345.074 302.486 344.711 302.75 344.414 303.09C344.117 303.43 343.892 303.838 343.757 304.285C343.622 304.731 343.579 305.205 343.632 305.671V311.183H341.859V300.474H343.562V302.094C343.983 301.52 344.524 301.065 345.139 300.766C345.754 300.467 346.426 300.334 347.098 300.377C349.478 300.377 351.171 301.877 351.171 305.019Z" fill="#263238"/>
<path d="M363.901 300.474V309.737C363.901 313.51 362.148 315.228 358.812 315.228C357.129 315.305 355.474 314.74 354.131 313.63L354.978 312.14C356.053 313.062 357.385 313.553 358.752 313.532C361.073 313.532 362.128 312.358 362.128 309.933V309.085C361.687 309.629 361.142 310.059 360.53 310.344C359.919 310.63 359.257 310.764 358.593 310.738C357.951 310.77 357.311 310.66 356.709 310.414C356.108 310.168 355.559 309.791 355.094 309.307C354.63 308.823 354.26 308.241 354.008 307.596C353.755 306.952 353.625 306.258 353.625 305.557C353.625 304.856 353.755 304.162 354.008 303.518C354.26 302.873 354.63 302.291 355.094 301.807C355.559 301.323 356.108 300.946 356.709 300.701C357.311 300.455 357.951 300.344 358.593 300.377C359.28 300.347 359.965 300.49 360.594 300.795C361.222 301.101 361.778 301.56 362.218 302.138V300.474H363.901ZM362.158 305.552C362.196 304.812 362.03 304.077 361.68 303.442C361.331 302.808 360.816 302.302 360.2 301.991C359.584 301.679 358.897 301.577 358.228 301.698C357.558 301.818 356.938 302.155 356.446 302.665C355.954 303.175 355.614 303.834 355.469 304.558C355.325 305.282 355.383 306.036 355.635 306.723C355.888 307.41 356.324 307.999 356.887 308.412C357.45 308.826 358.114 309.045 358.792 309.042C359.228 309.078 359.667 309.015 360.079 308.855C360.491 308.695 360.868 308.442 361.186 308.113C361.503 307.784 361.753 307.386 361.921 306.945C362.088 306.504 362.169 306.029 362.158 305.552Z" fill="#263238"/>
<path d="M366.453 309.911C366.451 309.73 366.481 309.549 366.544 309.381C366.607 309.213 366.7 309.06 366.818 308.932C366.936 308.804 367.077 308.704 367.232 308.636C367.386 308.569 367.552 308.537 367.718 308.541C368.054 308.541 368.375 308.687 368.612 308.946C368.85 309.205 368.983 309.556 368.983 309.922C368.983 310.288 368.85 310.64 368.612 310.899C368.375 311.157 368.054 311.303 367.718 311.303C367.551 311.304 367.385 311.269 367.23 311.2C367.075 311.13 366.935 311.028 366.817 310.898C366.699 310.768 366.606 310.614 366.544 310.445C366.481 310.275 366.451 310.094 366.453 309.911Z" fill="#263238"/>
<path d="M370.656 309.911C370.654 309.73 370.685 309.549 370.747 309.381C370.81 309.213 370.903 309.06 371.021 308.932C371.14 308.804 371.28 308.704 371.435 308.636C371.589 308.569 371.755 308.537 371.921 308.541C372.257 308.541 372.578 308.687 372.816 308.946C373.053 309.205 373.186 309.556 373.186 309.922C373.186 310.288 373.053 310.64 372.816 310.899C372.578 311.157 372.257 311.303 371.921 311.303C371.754 311.304 371.588 311.269 371.433 311.2C371.279 311.13 371.138 311.028 371.02 310.898C370.902 310.768 370.81 310.614 370.747 310.445C370.685 310.275 370.654 310.094 370.656 309.911Z" fill="#263238"/>
<path d="M374.86 309.911C374.857 309.73 374.888 309.549 374.95 309.381C375.013 309.213 375.106 309.06 375.225 308.932C375.343 308.804 375.483 308.704 375.638 308.636C375.793 308.569 375.958 308.537 376.124 308.541C376.46 308.541 376.781 308.687 377.019 308.946C377.256 309.205 377.389 309.556 377.389 309.922C377.389 310.288 377.256 310.64 377.019 310.899C376.781 311.157 376.46 311.303 376.124 311.303C375.957 311.304 375.791 311.269 375.636 311.2C375.482 311.13 375.341 311.028 375.223 310.898C375.106 310.768 375.013 310.614 374.95 310.445C374.888 310.275 374.857 310.094 374.86 309.911Z" fill="#263238"/>
<path d="M374.929 329.231H271.067C261.926 329.231 254.516 337.321 254.516 347.301V351.139C254.516 361.118 261.926 369.208 271.067 369.208H374.929C384.071 369.208 391.481 361.118 391.481 351.139V347.301C391.481 337.321 384.071 329.231 374.929 329.231Z" fill="#EBEBEB"/>
<path d="M280.954 345.604L278.653 352.323H277.588L275.805 347.224L274.012 352.323H272.937L270.656 345.604H271.712L273.495 350.954L275.357 345.604H276.323L278.145 350.986L279.988 345.604H280.954Z" fill="#263238"/>
<path d="M291.258 345.604L288.957 352.323H287.892L286.119 347.224L284.316 352.323H283.291L281 345.604H282.056L283.848 350.954L285.701 345.604H286.647L288.469 350.986L290.302 345.604H291.258Z" fill="#263238"/>
<path d="M301.649 345.604L299.359 352.323H298.283L296.51 347.224L294.708 352.323H293.642L291.352 345.604H292.407L294.2 350.954L296.052 345.604H296.998L298.821 350.986L300.653 345.604H301.649Z" fill="#263238"/>
<path d="M301.875 351.53C301.873 351.416 301.891 351.302 301.929 351.196C301.968 351.09 302.026 350.994 302.099 350.912C302.173 350.831 302.26 350.767 302.357 350.724C302.454 350.68 302.557 350.659 302.662 350.66C302.873 350.66 303.076 350.752 303.225 350.915C303.375 351.078 303.459 351.299 303.459 351.53C303.459 351.761 303.375 351.982 303.225 352.145C303.076 352.308 302.873 352.4 302.662 352.4C302.558 352.4 302.455 352.377 302.359 352.333C302.263 352.29 302.175 352.225 302.102 352.144C302.029 352.063 301.971 351.968 301.932 351.862C301.893 351.757 301.874 351.644 301.875 351.53Z" fill="#263238"/>
<path d="M304.258 351.617L304.726 350.65C305.37 351.104 306.12 351.345 306.887 351.345C307.883 351.345 308.341 351.008 308.341 350.432C308.341 348.932 304.457 350.236 304.457 347.562C304.457 346.355 305.453 345.54 307.026 345.54C307.809 345.526 308.581 345.736 309.267 346.148L308.789 347.116C308.258 346.755 307.642 346.57 307.016 346.583C306.021 346.583 305.562 346.975 305.562 347.508C305.562 349.095 309.456 347.801 309.456 350.41C309.456 351.628 308.46 352.4 306.807 352.4C305.904 352.427 305.015 352.154 304.258 351.617Z" fill="#263238"/>
<path d="M310.664 343.528C310.664 343.421 310.684 343.315 310.722 343.217C310.761 343.118 310.817 343.029 310.887 342.955C310.958 342.881 311.042 342.823 311.134 342.785C311.225 342.747 311.323 342.73 311.421 342.734C311.523 342.721 311.626 342.732 311.724 342.766C311.822 342.799 311.912 342.855 311.989 342.93C312.066 343.004 312.127 343.095 312.169 343.198C312.211 343.3 312.233 343.411 312.233 343.523C312.233 343.635 312.211 343.746 312.169 343.848C312.127 343.95 312.066 344.041 311.989 344.116C311.912 344.19 311.822 344.246 311.724 344.28C311.626 344.313 311.523 344.324 311.421 344.311C311.324 344.315 311.227 344.298 311.136 344.261C311.045 344.224 310.962 344.167 310.891 344.094C310.82 344.021 310.764 343.933 310.725 343.836C310.686 343.739 310.665 343.634 310.664 343.528ZM310.863 345.605H311.979V352.324H310.863V345.605Z" fill="#263238"/>
<path d="M317.551 351.932C317.166 352.254 316.691 352.419 316.206 352.4C315.942 352.439 315.674 352.413 315.421 352.322C315.167 352.232 314.936 352.08 314.745 351.878C314.553 351.676 314.406 351.429 314.314 351.156C314.222 350.883 314.188 350.591 314.215 350.302V346.605H313.219V345.605H314.215V344.104H315.33V345.572H317.153V346.572H315.39V350.215C315.378 350.361 315.395 350.508 315.441 350.646C315.486 350.784 315.559 350.909 315.654 351.013C315.749 351.117 315.864 351.196 315.991 351.246C316.117 351.296 316.252 351.315 316.386 351.302C316.703 351.304 317.012 351.189 317.262 350.976L317.551 351.932Z" fill="#263238"/>
<path d="M324.239 349.377H319.26C319.332 349.953 319.603 350.477 320.018 350.841C320.433 351.205 320.96 351.381 321.491 351.334C321.822 351.348 322.152 351.283 322.458 351.144C322.764 351.005 323.038 350.795 323.263 350.53L323.881 351.313C323.425 351.815 322.847 352.164 322.214 352.315C321.581 352.467 320.922 352.416 320.316 352.167C319.709 351.919 319.182 351.485 318.796 350.916C318.411 350.348 318.185 349.67 318.144 348.964C318.124 348.513 318.189 348.062 318.336 347.64C318.483 347.218 318.709 346.833 318.999 346.511C319.289 346.189 319.637 345.937 320.022 345.77C320.406 345.602 320.818 345.524 321.232 345.54C321.645 345.531 322.055 345.616 322.436 345.79C322.817 345.963 323.162 346.221 323.447 346.547C323.732 346.873 323.953 347.259 324.094 347.683C324.236 348.107 324.295 348.558 324.269 349.008C324.259 349.106 324.249 349.258 324.239 349.377ZM319.26 348.497H323.243C323.243 347.92 323.034 347.367 322.66 346.959C322.287 346.551 321.78 346.322 321.252 346.322C320.723 346.322 320.217 346.551 319.843 346.959C319.47 347.367 319.26 347.92 319.26 348.497Z" fill="#263238"/>
<path d="M334.998 345.604L332.697 352.323H331.632L329.859 347.224L328.106 352.323H327.041L324.75 345.604H325.806L327.598 350.954L329.451 345.604H330.397L332.219 350.986L334.052 345.604H334.998Z" fill="#263238"/>
<path d="M341.497 349.377H336.518C336.59 349.953 336.861 350.477 337.276 350.841C337.691 351.205 338.218 351.381 338.748 351.334C339.08 351.348 339.41 351.284 339.716 351.145C340.022 351.006 340.297 350.796 340.521 350.53L341.139 351.313C340.683 351.815 340.104 352.164 339.472 352.315C338.839 352.467 338.18 352.416 337.574 352.167C336.967 351.919 336.439 351.485 336.054 350.916C335.669 350.348 335.442 349.67 335.402 348.964C335.381 348.513 335.446 348.062 335.594 347.64C335.741 347.218 335.966 346.833 336.257 346.511C336.547 346.189 336.895 345.937 337.28 345.77C337.664 345.602 338.076 345.524 338.49 345.54C338.903 345.53 339.314 345.614 339.697 345.786C340.079 345.959 340.425 346.216 340.711 346.543C340.998 346.869 341.219 347.256 341.361 347.68C341.503 348.105 341.563 348.557 341.537 349.008C341.527 349.106 341.507 349.258 341.497 349.377ZM336.518 348.497H340.501C340.501 347.92 340.291 347.367 339.918 346.959C339.544 346.551 339.038 346.322 338.509 346.322C337.981 346.322 337.475 346.551 337.101 346.959C336.728 347.367 336.518 347.92 336.518 348.497Z" fill="#263238"/>
<path d="M349.441 348.964C349.463 349.418 349.398 349.872 349.251 350.297C349.103 350.722 348.876 351.109 348.583 351.432C348.291 351.756 347.939 352.009 347.552 352.176C347.164 352.342 346.749 352.419 346.333 352.4C345.909 352.419 345.487 352.326 345.103 352.127C344.72 351.928 344.386 351.63 344.132 351.258V352.345H343.047V342.941H344.162V346.637C344.418 346.285 344.746 346.003 345.119 345.814C345.493 345.625 345.902 345.535 346.313 345.55C346.729 345.528 347.145 345.602 347.533 345.766C347.922 345.93 348.274 346.18 348.569 346.502C348.863 346.823 349.093 347.208 349.243 347.632C349.393 348.056 349.46 348.51 349.441 348.964ZM348.315 348.964C348.296 348.523 348.158 348.097 347.919 347.74C347.681 347.383 347.351 347.11 346.972 346.955C346.593 346.8 346.18 346.77 345.786 346.868C345.391 346.966 345.031 347.189 344.751 347.508C344.471 347.827 344.282 348.229 344.209 348.663C344.136 349.098 344.181 349.547 344.338 349.954C344.496 350.361 344.76 350.709 345.097 350.954C345.433 351.199 345.829 351.332 346.234 351.334C346.519 351.35 346.803 351.298 347.068 351.183C347.333 351.068 347.572 350.892 347.769 350.667C347.967 350.443 348.118 350.174 348.212 349.88C348.306 349.587 348.341 349.274 348.315 348.964Z" fill="#263238"/>
<path d="M350.328 351.53C350.326 351.416 350.344 351.302 350.383 351.196C350.421 351.09 350.479 350.994 350.552 350.912C350.626 350.831 350.713 350.767 350.81 350.724C350.907 350.68 351.011 350.659 351.115 350.66C351.326 350.66 351.529 350.752 351.679 350.915C351.828 351.078 351.912 351.299 351.912 351.53C351.912 351.761 351.828 351.982 351.679 352.145C351.529 352.308 351.326 352.4 351.115 352.4C351.011 352.4 350.908 352.377 350.812 352.333C350.716 352.29 350.628 352.225 350.555 352.144C350.482 352.063 350.424 351.968 350.385 351.862C350.346 351.757 350.327 351.644 350.328 351.53Z" fill="#263238"/>
<path d="M352.782 348.964C352.773 348.501 352.852 348.04 353.014 347.611C353.176 347.183 353.418 346.795 353.724 346.474C354.03 346.152 354.393 345.903 354.792 345.742C355.19 345.581 355.615 345.512 356.039 345.539C356.535 345.509 357.03 345.627 357.47 345.88C357.91 346.132 358.279 346.511 358.538 346.975L357.692 347.573C357.515 347.266 357.267 347.015 356.973 346.845C356.68 346.676 356.351 346.593 356.019 346.605C355.47 346.646 354.955 346.912 354.579 347.351C354.204 347.79 353.994 348.369 353.994 348.97C353.994 349.57 354.204 350.149 354.579 350.588C354.955 351.027 355.47 351.294 356.019 351.334C356.349 351.347 356.678 351.265 356.971 351.097C357.264 350.929 357.513 350.681 357.692 350.378L358.538 350.954C358.28 351.419 357.911 351.799 357.471 352.053C357.031 352.308 356.536 352.428 356.039 352.4C355.614 352.425 355.189 352.355 354.791 352.193C354.392 352.031 354.029 351.781 353.723 351.458C353.417 351.136 353.176 350.748 353.014 350.318C352.852 349.889 352.773 349.428 352.782 348.964Z" fill="#263238"/>
<path d="M359.321 348.964C359.312 348.272 359.49 347.593 359.835 347.012C360.18 346.431 360.675 345.975 361.258 345.703C361.84 345.43 362.484 345.352 363.107 345.48C363.73 345.607 364.305 345.934 364.757 346.419C365.209 346.904 365.52 347.524 365.648 348.202C365.777 348.88 365.718 349.584 365.479 350.225C365.24 350.866 364.832 351.415 364.307 351.802C363.781 352.19 363.162 352.398 362.528 352.4C362.107 352.421 361.686 352.347 361.293 352.183C360.899 352.018 360.54 351.767 360.239 351.445C359.938 351.122 359.701 350.736 359.544 350.309C359.386 349.882 359.31 349.424 359.321 348.964ZM364.59 348.964C364.59 348.364 364.371 347.789 363.983 347.365C363.595 346.941 363.068 346.703 362.518 346.703C361.969 346.703 361.442 346.941 361.054 347.365C360.665 347.789 360.447 348.364 360.447 348.964C360.447 349.564 360.665 350.139 361.054 350.563C361.442 350.987 361.969 351.226 362.518 351.226C363.068 351.226 363.595 350.987 363.983 350.563C364.371 350.139 364.59 349.564 364.59 348.964Z" fill="#263238"/>
<path d="M377.474 348.453V352.313H376.368V348.584C376.368 347.268 375.781 346.627 374.775 346.627C374.512 346.614 374.25 346.665 374.008 346.776C373.765 346.886 373.548 347.054 373.372 347.267C373.196 347.48 373.066 347.733 372.989 348.008C372.913 348.282 372.894 348.572 372.932 348.856V352.313H371.817V348.584C371.817 347.268 371.229 346.627 370.223 346.627C369.961 346.614 369.699 346.665 369.457 346.776C369.214 346.886 368.997 347.054 368.821 347.267C368.645 347.48 368.514 347.733 368.438 348.008C368.362 348.282 368.343 348.572 368.381 348.856V352.313H367.266V345.594H368.331V346.594C368.576 346.237 368.897 345.951 369.267 345.761C369.637 345.572 370.044 345.484 370.452 345.507C370.881 345.475 371.309 345.576 371.687 345.797C372.066 346.018 372.38 346.351 372.594 346.757C372.863 346.351 373.22 346.023 373.634 345.805C374.048 345.587 374.505 345.484 374.964 345.507C375.317 345.478 375.671 345.537 376 345.678C376.33 345.819 376.626 346.039 376.867 346.322C377.108 346.605 377.288 346.943 377.393 347.312C377.498 347.681 377.525 348.071 377.474 348.453Z" fill="#263238"/>
<path d="M377.105 356.738C377.105 356.89 353.612 357.02 324.651 357.02C295.691 357.02 272.188 356.89 272.188 356.738C272.188 356.586 295.671 356.455 324.651 356.455C353.632 356.455 377.105 356.575 377.105 356.738Z" fill="#263238"/>
<path d="M267.5 199.374V206.104H273.665V199.374V192.633H267.5V199.374Z" fill="#263238"/>
<path d="M273.665 158.984H267.5V165.714H273.665V158.984Z" fill="#263238"/>
<path d="M311.766 233.088H305.602V239.818H311.766V233.088Z" fill="#263238"/>
<path d="M273.665 172.443V179.173H267.5V185.903H273.665V192.633H279.829H286.004V199.374H292.168V192.633H298.333V185.903V179.173H292.168V185.903H286.004H279.829V179.173V172.443V165.713H273.665V172.443Z" fill="#263238"/>
<path d="M286.003 158.984H279.828V165.714H286.003H292.167V158.984H286.003Z" fill="#263238"/>
<path d="M313.754 213.095H317.06V206.365H313.754H310.438V213.095H313.754Z" fill="#263238"/>
<path d="M298.336 165.713H292.172V172.443H298.336V165.713Z" fill="#263238"/>
<path d="M341.493 192.633H335.328V199.363H341.493V192.633Z" fill="#263238"/>
<path d="M347.665 118.594H341.5V125.324H347.665V118.594Z" fill="#263238"/>
<path d="M310.665 172.444V165.714H316.83V158.984H310.665V152.254H304.501V158.984H298.336V165.714H304.501V172.444V179.173V185.903V192.633H310.665V185.903V179.173H316.83V172.444H310.665Z" fill="#263238"/>
<path d="M341.493 239.753H347.657V233.023H341.493H335.328V239.753H341.493Z" fill="#263238"/>
<path d="M335.329 118.594H329.164V125.324H335.329V118.594Z" fill="#263238"/>
<path d="M333.791 172.444V165.714H327.626V158.984H321.461V165.714V172.444H315.297V179.174H321.461H327.626V172.444H333.791Z" fill="#263238"/>
<path d="M368.586 158.984H362.422V165.714H368.586V158.984Z" fill="#263238"/>
<path d="M304.68 192.633H298.516V199.363H304.68V192.633Z" fill="#263238"/>
<path d="M329.167 152.254V145.524H335.332V138.783H341.496H347.661V132.053H341.496V125.323H335.332V132.053H329.167V138.783H322.993V145.524H316.828V152.254H322.993H329.167Z" fill="#263238"/>
<path d="M329.167 199.374V192.633H335.332V185.903H329.167H322.993V192.633H316.828V199.374H322.993H329.167Z" fill="#263238"/>
<path d="M347.662 226.293V219.553H341.497H335.332V212.823H329.168V219.553H322.993V226.293H316.829H310.664V233.023H316.829H322.993H329.168V226.293H335.332V233.023H341.497V226.293H347.662Z" fill="#263238"/>
<path d="M322.994 125.324V118.594H316.829H310.665V125.324H304.5V132.054H310.665H316.829V125.324H322.994Z" fill="#263238"/>
<path d="M322.993 132.053H316.828V138.783H322.993V132.053Z" fill="#263238"/>
<path d="M338.407 158.984H332.242V165.714V172.443V179.173H338.407H344.571V172.443H338.407V165.714H344.571V158.984H350.736V152.254H344.571V145.524H338.407V152.254V158.984Z" fill="#263238"/>
<path d="M316.829 138.783H310.664V145.513H316.829V138.783Z" fill="#263238"/>
<path d="M335.328 206.104V212.834H341.493H347.657V206.104H353.822H359.987V199.374H353.822H347.657H341.493V206.104H335.328Z" fill="#263238"/>
<path d="M368.586 179.173H362.422V185.903H368.586V179.173Z" fill="#263238"/>
<path d="M347.665 185.903H341.5V192.633H347.665V185.903Z" fill="#263238"/>
<path d="M363.074 165.713H356.909H350.734V172.443H356.909V179.173H363.074V172.443V165.713Z" fill="#263238"/>
<path d="M359.993 185.903H353.828V192.633H359.993V185.903Z" fill="#263238"/>
<path d="M292.173 226.424H310.677V199.363H285.889V206.104H279.844V212.833H285.889V219.563H279.844V226.293H285.889V226.424H286.008V233.023H279.844V246.483H286.008V239.731H292.173V226.424ZM305.926 204.538V221.368H290.51V204.538H305.926Z" fill="#263238"/>
<path d="M372.314 199.374H378.478V192.633H372.314H366.149H359.984V199.374H366.149H372.314Z" fill="#263238"/>
<path d="M372.32 172.444H378.485V165.714V158.984H372.32V165.714V172.444Z" fill="#263238"/>
<path d="M323.229 206.365H317.055V213.095V219.825H323.229V213.095V206.365Z" fill="#263238"/>
<path d="M384.649 199.374H378.484V206.104H384.649V199.374Z" fill="#263238"/>
<path d="M384.659 185.903V179.173H378.484V185.903V192.633H384.659V185.903Z" fill="#263238"/>
<path d="M273.665 233.023H267.5V239.753V246.483H273.665V239.753V233.023Z" fill="#263238"/>
<path d="M384.654 152.254V118.55H353.781V152.254H384.654ZM358.442 147.198V123.638H380.023V147.198H358.442Z" fill="#263238"/>
<path d="M375.407 128.694H363.078V142.154H375.407V128.694Z" fill="#263238"/>
<path d="M384.654 212.833H353.781V246.483H384.654V212.833ZM358.442 241.438V217.878H380.023V241.438H358.442Z" fill="#263238"/>
<path d="M375.407 222.923H363.078V236.383H375.407V222.923Z" fill="#263238"/>
<path d="M267.43 118.594V152.297H298.233V118.594H267.43ZM293.632 123.638V147.198H272.051V123.638H293.632Z" fill="#263238"/>
<path d="M289.001 128.694H276.672V142.154H289.001V128.694Z" fill="#263238"/>
<path d="M258.637 142.056V118.137C258.497 115.942 259.116 113.77 260.37 112.049C261.122 111.143 262.047 110.43 263.08 109.96C264.113 109.49 265.228 109.275 266.346 109.331H289.371C289.553 109.331 289.728 109.252 289.857 109.111C289.986 108.97 290.058 108.779 290.058 108.58C290.058 108.381 289.986 108.191 289.857 108.05C289.728 107.909 289.553 107.83 289.371 107.83H266.625C264.698 107.725 262.787 108.251 261.137 109.341C259.951 110.204 258.977 111.37 258.3 112.738C257.623 114.107 257.263 115.636 257.253 117.191C257.193 121.127 257.253 125.073 257.253 128.998V142.045C257.273 142.23 257.355 142.4 257.483 142.523C257.61 142.647 257.775 142.715 257.945 142.715C258.116 142.715 258.28 142.647 258.408 142.523C258.535 142.4 258.617 142.23 258.637 142.045V142.056Z" fill="#7E57C2"/>
<path d="M287.378 257.855H265.469C263.459 258.003 261.471 257.329 259.892 255.964C259.063 255.143 258.411 254.132 257.981 253.005C257.55 251.878 257.353 250.66 257.402 249.44V224.271C257.402 224.072 257.329 223.881 257.201 223.741C257.072 223.6 256.897 223.521 256.715 223.521C256.532 223.521 256.358 223.6 256.229 223.741C256.1 223.881 256.028 224.072 256.028 224.271V249.136C255.932 251.239 256.414 253.325 257.412 255.126C258.201 256.42 259.27 257.483 260.524 258.22C261.778 258.958 263.178 259.348 264.602 259.356C268.207 259.421 271.812 259.356 275.418 259.356H287.368C287.551 259.356 287.725 259.277 287.854 259.136C287.983 258.995 288.056 258.804 288.056 258.605C288.056 258.407 287.983 258.216 287.854 258.075C287.725 257.934 287.551 257.855 287.368 257.855H287.378Z" fill="#7E57C2"/>
<path d="M392.786 224.032V247.951C392.927 250.145 392.308 252.318 391.053 254.039C390.303 254.945 389.378 255.659 388.345 256.128C387.312 256.598 386.196 256.813 385.078 256.757H362.023C361.841 256.757 361.666 256.836 361.537 256.977C361.408 257.117 361.336 257.308 361.336 257.507C361.336 257.706 361.408 257.897 361.537 258.038C361.666 258.178 361.841 258.257 362.023 258.257H384.799C386.726 258.363 388.637 257.837 390.287 256.746C391.472 255.884 392.445 254.718 393.121 253.349C393.796 251.98 394.153 250.451 394.161 248.896C394.23 244.961 394.161 241.025 394.161 237.089V224.043C394.161 223.844 394.088 223.653 393.959 223.512C393.831 223.372 393.656 223.292 393.474 223.292C393.291 223.292 393.116 223.372 392.988 223.512C392.859 223.653 392.786 223.844 392.786 224.043V224.032Z" fill="#7E57C2"/>
<path d="M362.419 109.341H384.329C386.341 109.191 388.331 109.87 389.906 111.244C390.738 112.062 391.393 113.071 391.824 114.2C392.255 115.328 392.45 116.546 392.396 117.767V142.969C392.396 143.168 392.468 143.359 392.597 143.499C392.726 143.64 392.901 143.719 393.083 143.719C393.265 143.719 393.44 143.64 393.569 143.499C393.698 143.359 393.77 143.168 393.77 142.969V118.072C393.867 115.965 393.385 113.875 392.386 112.07C391.596 110.776 390.528 109.714 389.274 108.976C388.02 108.239 386.62 107.849 385.196 107.841C381.59 107.776 377.985 107.841 374.38 107.841H362.429C362.247 107.841 362.072 107.92 361.943 108.061C361.815 108.201 361.742 108.392 361.742 108.591C361.742 108.79 361.815 108.981 361.943 109.122C362.072 109.262 362.247 109.341 362.429 109.341H362.419Z" fill="#7E57C2"/>
</svg>
