<svg width="141" height="37" viewBox="0 0 141 37" fill="none" xmlns="http://www.w3.org/2000/svg">
<path d="M9.02488 7.71481H7.31722V23.93C6.8906 24.1138 6.46513 24.2941 6.04198 24.4743C6.04198 24.4743 4.22999 25.3803 2.58203 26.4086V2.98193H8.74375C8.71283 3.64931 8.71148 4.31707 8.73969 4.98522C8.77657 5.90022 8.87183 6.81194 9.02488 7.71481Z" fill="#E7E7E7"/>
<path d="M35.7133 11.4373V36.112H2.58203V27.7007C4.02711 26.9251 5.82809 26.0116 7.3149 25.4325V31.3786H8.33799C8.19192 31.6607 8.03734 31.9555 7.87427 32.2631C8.0186 32.0046 8.18844 31.7061 8.37857 31.3786H30.9851V16.172C30.9853 15.061 30.7666 13.961 30.3415 12.9346C29.9164 11.9082 29.2932 10.9757 28.5075 10.1903C27.7218 9.40491 26.7891 8.78203 25.7626 8.35727C24.7361 7.93251 23.6359 7.7142 22.525 7.71481H15.7187C14.6313 6.32364 13.2471 4.55048 12.0188 2.98193H27.2579C29.5004 2.98193 31.6511 3.87277 33.2368 5.45846C34.8224 7.04416 35.7133 9.19483 35.7133 11.4373Z" fill="#E7E7E7"/>
<path d="M13.3555 20.1968C13.1346 20.6703 12.3092 21.1648 11.7226 21.5166C11.5149 20.8393 11.4096 20.1348 11.4102 19.4264C11.4083 18.1882 11.7317 16.9713 12.348 15.8975C12.6394 16.4853 12.8686 17.1019 13.032 17.7373C13.1851 18.3268 13.6204 19.6304 13.3555 20.1968Z" fill="#E7E7E7"/>
<path d="M27.0913 19.557C27.0915 20.6169 26.883 21.6664 26.4775 22.6457C26.0721 23.625 25.4777 24.5148 24.7283 25.2644C23.9789 26.0139 23.0892 26.6085 22.11 27.0142C21.1308 27.4198 20.0813 27.6286 19.0214 27.6286C16.7926 27.6286 15.3243 26.7777 13.8625 25.3176C13.6978 25.1529 13.5406 24.9816 13.3906 24.8034C14.3094 24.0139 15.0386 23.385 15.7545 23.5948C16.3718 23.7763 17.2888 23.4644 17.8186 23.2436C19.015 22.7451 19.8161 22.1915 20.9331 21.5371C21.6524 21.1151 22.3416 20.6624 23.1085 20.3459C23.5299 20.172 26.1807 19.4005 26.2473 19.037C26.3801 18.3159 24.8092 18.2956 24.7773 18.1519C24.7773 18.1519 24.5936 15.7881 19.9981 17.1421C19.9981 17.1421 20.0224 14.0207 18.9663 11.3694C19.0822 11.3641 19.1982 11.3618 19.3141 11.3618C23.774 11.3612 27.0913 15.1006 27.0913 19.557Z" fill="#E7E7E7"/>
<path d="M24.2144 18.4272C24.2144 18.4272 23.7461 16.3404 19.703 17.5334C19.703 17.5334 19.7702 14.7875 18.8416 12.4544C18.4938 11.5797 18.0046 10.7624 17.32 10.1706C17.32 10.1706 14.1899 6.15882 11.7026 2.9829C10.7624 1.78186 9.91208 0.700221 9.36198 0C9.46574 0.131581 9.16432 1.208 9.14404 1.38016C9.08105 1.91228 9.03738 2.44633 9.01303 2.98232C8.98212 3.64969 8.98077 4.31745 9.00898 4.9856C9.10752 7.35001 9.56023 9.7318 10.5555 11.8887C11.1659 13.2115 12.0678 14.3627 12.7796 15.6275C12.8521 15.7561 12.9216 15.8866 12.9871 16.0181C13.2784 16.606 13.5076 17.2226 13.6711 17.858C13.8242 18.4492 14.2589 19.7529 13.9946 20.3192C13.7737 20.7922 12.9483 21.2866 12.3617 21.639C12.2237 21.7214 12.0997 21.7956 11.9988 21.8605C10.1613 23.0441 8.04733 23.909 6.04289 24.7674C6.04289 24.7674 4.23089 25.6734 2.58294 26.7017C1.37378 27.4564 0.252149 28.2767 0 28.8528C0.0220268 28.8401 1.11815 28.1949 2.58294 27.4083C5.45222 25.8682 9.7347 23.7861 10.1283 24.8526C10.1283 24.8526 11.9252 24.6961 7.87286 32.2635C8.9742 30.2997 11.5108 26.0091 13.7134 24.1165C14.5215 23.4209 15.2843 23.0505 15.9161 23.2354C16.4593 23.3948 17.3264 22.9381 17.7925 22.7439C18.8457 22.3056 19.8514 21.7492 20.8339 21.1736C21.4669 20.802 22.0732 20.358 22.7468 20.0792C23.1172 19.9262 25.4497 19.4097 25.5082 19.0897C25.6242 18.4556 24.2423 18.5536 24.2144 18.4272ZM22.4471 18.4973C22.3967 18.4972 22.3474 18.4822 22.3055 18.4541C22.2637 18.426 22.2311 18.3861 22.2119 18.3395C22.1926 18.2929 22.1877 18.2416 22.1976 18.1922C22.2075 18.1427 22.2318 18.0973 22.2675 18.0617C22.3032 18.0261 22.3487 18.0019 22.3981 17.9921C22.4476 17.9823 22.4988 17.9874 22.5454 18.0067C22.592 18.026 22.6318 18.0587 22.6598 18.1006C22.6878 18.1426 22.7027 18.1919 22.7027 18.2423C22.7027 18.2758 22.6961 18.309 22.6832 18.34C22.6704 18.371 22.6516 18.3991 22.6278 18.4228C22.6041 18.4465 22.5759 18.4653 22.5449 18.4781C22.5139 18.4909 22.4806 18.4974 22.4471 18.4973Z" fill="#1B1B1B"/>
<path d="M66.0108 13.194C71.4989 13.2705 75.3351 17.1832 75.2081 22.5183C75.1316 27.0396 72.2357 30.4451 68.0691 31.2583C67.9416 31.2833 67.9167 31.3598 67.9926 31.4357C69.6156 33.9763 71.321 35.298 73.2518 35.3739C73.8894 35.3739 74.4691 35.2724 75.0047 35.0435C75.1067 35.018 75.1571 35.069 75.1571 35.1455L75.1826 35.1959C75.1867 35.2226 75.1814 35.2499 75.1676 35.2731C75.1537 35.2963 75.1322 35.3139 75.1067 35.3229C74.1155 35.8822 73.1249 36.1344 72.1337 36.1106C69.771 36.0347 67.4338 34.3833 65.3755 31.5122L65.2995 31.4612C59.9134 31.1818 56.4309 27.2947 56.5091 22.1624C56.6372 16.9542 60.3209 13.0653 66.0108 13.194ZM72.4397 24.2967C73.126 19.6218 71.0932 14.7185 66.3423 14.0328C62.887 13.4989 59.8891 15.9126 59.2033 20.384C58.517 25.11 60.5754 29.9622 65.2752 30.6486C68.756 31.1308 71.754 28.8192 72.4397 24.2967Z" fill="#E7E7E7"/>
<path d="M76.5275 18.3774C76.5275 18.3009 76.5785 18.2754 76.6551 18.2754H78.8398C78.9157 18.2754 78.9412 18.3009 78.9412 18.3774V21.6548C78.9412 21.6784 78.9484 21.7014 78.9619 21.7208C78.9754 21.7402 78.9945 21.755 79.0166 21.7633C79.0387 21.7716 79.0628 21.7729 79.0857 21.767C79.1086 21.7612 79.1292 21.7485 79.1447 21.7307C80.1353 20.7401 80.9485 19.597 82.1426 18.8093C82.651 18.4788 83.2608 18.225 83.8955 18.3264C84.0507 18.3445 84.1998 18.3973 84.3317 18.4808C84.4637 18.5644 84.5751 18.6767 84.6577 18.8093C84.6674 18.8192 84.6747 18.8312 84.6791 18.8443C84.6835 18.8575 84.6849 18.8714 84.6833 18.8852V20.9435C84.6833 21.0705 84.5308 21.0954 84.4549 20.994C84.15 20.2062 83.6671 19.9268 83.1333 19.9268C81.7108 19.9268 79.9069 21.9342 78.9667 22.8251C78.9571 22.8351 78.9498 22.847 78.9454 22.8602C78.941 22.8733 78.9396 22.8873 78.9412 22.901V31.106C78.9412 31.182 78.9157 31.233 78.8398 31.233H76.6551C76.6381 31.234 76.6211 31.2314 76.6052 31.2254C76.5893 31.2194 76.5749 31.21 76.5629 31.1981C76.5508 31.1861 76.5414 31.1717 76.5353 31.1558C76.5293 31.14 76.5266 31.123 76.5275 31.106V18.3774Z" fill="#E7E7E7"/>
<path d="M86.9974 28.6665C87.3296 28.6736 87.6458 28.8106 87.8782 29.048C88.1107 29.2855 88.2408 29.6045 88.2408 29.9368C88.2408 30.2691 88.1107 30.5882 87.8782 30.8256C87.6458 31.0631 87.3296 31.2 86.9974 31.2071C86.6652 31.2 86.349 31.0631 86.1165 30.8256C85.8841 30.5882 85.7539 30.2691 85.7539 29.9368C85.7539 29.6045 85.8841 29.2855 86.1165 29.048C86.349 28.8106 86.6652 28.6736 86.9974 28.6665Z" fill="#E7E7E7"/>
<path d="M89.5906 26.4058C89.6055 26.3985 89.6218 26.3946 89.6383 26.3947C89.6549 26.3947 89.6712 26.3986 89.686 26.406C89.7008 26.4134 89.7136 26.4242 89.7235 26.4374C89.7334 26.4507 89.7401 26.4661 89.7431 26.4823C90.5546 29.023 92.8152 30.6234 95.459 30.6234C96.5772 30.6234 97.9237 30.3185 98.7115 29.4797C99.0012 29.1825 99.2131 28.8182 99.3282 28.4194C99.4434 28.0206 99.4583 27.5995 99.3717 27.1936C99.1938 26.4058 98.6605 25.7444 98.0507 25.2117C97.0073 24.2715 95.7384 23.6362 94.4939 22.9511C93.2766 22.2654 92.0292 21.5286 91.14 20.436C90.2254 19.3433 89.6909 17.9464 90.0729 16.5233C90.6827 14.3131 93.4778 13.1694 95.6115 13.1694C98.2541 13.1694 100.185 14.8464 100.896 17.3111C100.922 17.387 100.896 17.4125 100.845 17.438L100.693 17.489C100.666 17.5019 100.635 17.5037 100.606 17.4942C100.578 17.4847 100.554 17.4646 100.54 17.438C100.207 16.4479 99.5724 15.587 98.7248 14.9763C97.8772 14.3657 96.8596 14.036 95.815 14.0337C94.4174 14.0337 92.639 14.7194 92.3086 16.2694C92.1313 16.9041 92.3596 17.5905 92.69 18.1747C93.0709 18.759 93.5537 19.1654 94.0621 19.5723C95.1055 20.3595 96.2468 20.8933 97.3661 21.5031C98.4854 22.1129 99.5508 22.7986 100.438 23.7388C101.276 24.679 101.887 25.898 101.81 27.1942C101.709 28.7186 100.692 30.0397 99.3711 30.7509C98.3805 31.2842 97.2879 31.4876 96.1952 31.4876C92.8419 31.4876 90.1743 30.0385 89.2852 26.6603C89.2852 26.5844 89.3101 26.5333 89.3611 26.5333C89.4382 26.4557 89.5141 26.4823 89.5906 26.4058Z" fill="#E7E7E7"/>
<path d="M104.401 18.2756C104.439 18.2819 104.475 18.2997 104.503 18.3266L108.466 28.4126C108.542 28.514 108.618 28.514 108.695 28.4126L110.981 22.4166V22.3146L109.457 18.4274C109.431 18.326 109.457 18.275 109.584 18.275H111.92C111.958 18.2814 111.994 18.2991 112.022 18.326C113.239 21.4254 115.426 27.142 115.959 28.412C116.036 28.5134 116.112 28.5134 116.191 28.412L120.053 18.3509C120.053 18.2999 120.079 18.2744 120.154 18.2744H120.917C120.993 18.2744 121.095 18.3509 121.019 18.4269L116.139 31.1566C116.106 31.1953 116.061 31.2222 116.012 31.2331H114.614C114.589 31.2331 114.564 31.2076 114.513 31.1566L111.642 23.9162C111.566 23.8142 111.489 23.8142 111.413 23.9162L108.644 31.1566C108.611 31.1953 108.566 31.2222 108.517 31.2331H107.145C107.095 31.2222 107.051 31.1953 107.018 31.1566C106.713 30.3185 103.41 21.9343 101.962 18.428C101.937 18.3266 101.962 18.2756 102.089 18.2756H104.401Z" fill="#E7E7E7"/>
<path d="M124.624 13.7537C124.752 14.6678 123.939 15.5065 123.024 15.3541C122.714 15.3055 122.428 15.158 122.209 14.9336C121.989 14.7093 121.848 14.42 121.807 14.109C121.68 13.2453 122.444 12.3816 123.408 12.5086C123.723 12.5447 124.016 12.6882 124.237 12.915C124.459 13.1417 124.596 13.4379 124.624 13.7537ZM122.084 18.275H124.295C124.312 18.2739 124.329 18.2765 124.344 18.2826C124.36 18.2886 124.375 18.2979 124.387 18.3099C124.399 18.3219 124.408 18.3363 124.414 18.3522C124.42 18.368 124.423 18.385 124.422 18.4019V31.1311C124.422 31.2076 124.371 31.2331 124.295 31.2331H122.109C122.033 31.2331 122.008 31.2076 122.008 31.1311C122.008 28.8194 121.982 21.7309 121.982 18.4025C121.982 18.3266 122.006 18.2755 122.084 18.2755V18.275Z" fill="#E7E7E7"/>
<path d="M125.13 18.6301C125.13 18.5536 125.181 18.5287 125.257 18.5287H126.706C126.783 18.5287 126.808 18.4776 126.808 18.4011C126.884 15.8605 128.307 12.5327 130.949 12.5327C131.61 12.5327 132.321 12.7611 133.058 13.1929C133.085 13.2211 133.103 13.2566 133.109 13.295V13.9552C133.109 13.9789 133.102 14.002 133.089 14.0215C133.075 14.041 133.056 14.0559 133.034 14.0642C133.012 14.0725 132.988 14.0739 132.965 14.0681C132.942 14.0623 132.921 14.0496 132.906 14.0317C132.423 13.4978 131.862 13.117 131.178 13.117C130.873 13.117 130.541 13.2184 130.213 13.3964C128.995 14.1331 128.688 15.8605 128.815 17.1311C128.815 17.3346 129.07 18.5287 129.272 18.5287H132.22C132.296 18.5287 132.347 18.5536 132.347 18.6301V19.1634C132.348 19.1803 132.345 19.1973 132.339 19.2132C132.333 19.2291 132.324 19.2435 132.312 19.2556C132.3 19.2676 132.286 19.277 132.27 19.2831C132.254 19.2892 132.237 19.2918 132.22 19.2909H129.348C129.271 19.2909 129.221 19.3158 129.221 19.3923V31.106C129.222 31.1229 129.219 31.1399 129.213 31.1557C129.207 31.1716 129.198 31.186 129.186 31.198C129.174 31.21 129.16 31.2193 129.144 31.2253C129.128 31.2313 129.111 31.2339 129.094 31.2329H126.934C126.917 31.2339 126.9 31.2313 126.884 31.2253C126.869 31.2193 126.854 31.21 126.842 31.198C126.83 31.186 126.821 31.1716 126.815 31.1557C126.809 31.1399 126.806 31.1229 126.807 31.106V19.3935C126.807 19.317 126.782 19.2921 126.705 19.2921H125.256C125.239 19.293 125.222 19.2903 125.206 19.2842C125.19 19.2781 125.176 19.2688 125.164 19.2567C125.152 19.2447 125.143 19.2302 125.137 19.2144C125.131 19.1985 125.128 19.1815 125.129 19.1645L125.13 18.6301Z" fill="#E7E7E7"/>
<path d="M136.613 15.7345C136.622 15.7091 136.64 15.6875 136.663 15.6737C136.686 15.6598 136.714 15.6545 136.74 15.6586H136.893C136.969 15.6586 137.02 15.6841 137.02 15.76V18.1992C137.019 18.2161 137.021 18.2331 137.027 18.249C137.033 18.2648 137.043 18.2792 137.055 18.2912C137.067 18.3032 137.081 18.3125 137.097 18.3185C137.113 18.3246 137.13 18.3272 137.147 18.3261H139.741C139.817 18.3261 139.868 18.3516 139.868 18.4276V18.9614C139.869 18.9784 139.866 18.9953 139.86 19.0112C139.854 19.0271 139.845 19.0415 139.833 19.0535C139.821 19.0655 139.806 19.0748 139.79 19.0808C139.775 19.0868 139.758 19.0894 139.741 19.0884H137.149C137.073 19.0884 137.022 19.1139 137.022 19.1898V28.2602C137.022 29.3778 137.276 30.4195 138.598 30.4195C139.309 30.4195 140.02 29.9366 140.426 28.895C140.452 28.819 140.503 28.819 140.579 28.8445L140.909 28.946C140.926 28.9489 140.941 28.9556 140.954 28.9655C140.967 28.9754 140.978 28.9883 140.986 29.0031C140.993 29.0179 140.997 29.0342 140.997 29.0507C140.997 29.0673 140.993 29.0836 140.986 29.0984C140.477 30.4195 139.639 31.2831 137.835 31.2831C135.6 31.2831 134.608 29.9366 134.608 27.8052V19.1898C134.608 19.1139 134.583 19.0884 134.507 19.0884H132.881C132.864 19.0894 132.847 19.0868 132.831 19.0808C132.815 19.0748 132.801 19.0655 132.789 19.0535C132.777 19.0415 132.768 19.0271 132.762 19.0112C132.756 18.9953 132.753 18.9784 132.754 18.9614V18.4276C132.754 18.3516 132.779 18.3261 132.856 18.3261C134.759 17.9957 136.131 17.5129 136.613 15.7345Z" fill="#E7E7E7"/>
</svg>
