<svg width="24" height="24" viewBox="0 0 24 24" fill="none" xmlns="http://www.w3.org/2000/svg">
<path d="M21.3642 6.03422C21.3787 6.28953 21.3787 6.54481 21.3787 6.80246C21.3787 14.6531 16.4888 23.7071 7.54748 23.7071V23.7024C4.9062 23.7071 2.31978 22.7824 0.0962524 21.0389C0.480316 21.0954 0.866306 21.1236 1.25326 21.1248C3.44213 21.1271 5.56844 20.2294 7.29048 18.5766C5.21038 18.5283 3.38631 16.8708 2.74908 14.4507C3.47775 14.6225 4.22856 14.5872 4.94374 14.3483C2.67593 13.7883 1.04438 11.353 1.04438 8.52481C1.04438 8.49893 1.04438 8.47423 1.04438 8.44952C1.72011 8.90952 2.47668 9.16481 3.25058 9.19304C1.11465 7.44834 0.456252 3.97541 1.7461 1.26011C4.21412 4.97188 7.8555 7.22834 11.7645 7.46717C11.3727 5.40364 11.9079 3.24129 13.1708 1.79069C15.1287 -0.458715 18.2079 -0.343421 20.0483 2.04834C21.137 1.78599 22.1805 1.29776 23.1353 0.60599C22.7724 1.98129 22.0129 3.14953 20.9984 3.89188C21.9619 3.75304 22.9034 3.43776 23.7899 2.95658C23.1372 4.15188 22.3152 5.19304 21.3642 6.03422Z" fill="#1D9BF0"/>
</svg>
