<svg width="26" height="25" viewBox="0 0 26 25" fill="none" xmlns="http://www.w3.org/2000/svg">
<path d="M9.97621 22.807H16.1902C21.3685 22.807 23.4398 20.7357 23.4398 15.5574V9.3434C23.4398 4.16508 21.3685 2.09375 16.1902 2.09375H9.97621C4.79789 2.09375 2.72656 4.16508 2.72656 9.3434V15.5574C2.72656 20.7357 4.79789 22.807 9.97621 22.807Z" stroke="#292D32" stroke-width="1.5535" stroke-linecap="round" stroke-linejoin="round"/>
<path d="M10.0859 12.4488V10.916C10.0859 8.9379 11.4841 8.14044 13.1929 9.12432L14.5186 9.89071L15.8442 10.6571C17.5531 11.641 17.5531 13.2566 15.8442 14.2405L14.5186 15.0069L13.1929 15.7733C11.4841 16.7572 10.0859 15.9493 10.0859 13.9816V12.4488Z" stroke="#292D32" stroke-width="1.5535" stroke-miterlimit="10" stroke-linecap="round" stroke-linejoin="round"/>
</svg>
