<svg width="64" height="64" viewBox="0 0 64 64" fill="none" xmlns="http://www.w3.org/2000/svg">
<path d="M58.6693 31.9998V45.3332C58.6693 53.3332 53.3359 58.6665 45.3359 58.6665H18.6693C10.6693 58.6665 5.33594 53.3332 5.33594 45.3332V31.9998C5.33594 24.7465 9.70927 19.6798 16.5093 18.8265C17.2026 18.7198 17.9226 18.6665 18.6693 18.6665H45.3359C46.0293 18.6665 46.6959 18.6931 47.3359 18.7998C54.2159 19.5998 58.6693 24.6932 58.6693 31.9998Z" stroke="#2E2E2E" stroke-width="1.5" stroke-linecap="round" stroke-linejoin="round"/>
<path d="M47.3345 18.8002C46.6945 18.6935 46.0278 18.6669 45.3345 18.6669H18.6678C17.9211 18.6669 17.2011 18.7202 16.5078 18.8269C16.8811 18.0802 17.4145 17.3869 18.0545 16.7469L26.7211 8.0535C30.3745 4.42683 36.2945 4.42683 39.9478 8.0535L44.6145 12.7735C46.3211 14.4535 47.2278 16.5868 47.3345 18.8002Z" stroke="#2E2E2E" stroke-width="1.5" stroke-linecap="round" stroke-linejoin="round"/>
<path d="M58.6693 33.3335H50.6693C47.7359 33.3335 45.3359 35.7335 45.3359 38.6668C45.3359 41.6002 47.7359 44.0002 50.6693 44.0002H58.6693" stroke="#2E2E2E" stroke-width="1.5" stroke-linecap="round" stroke-linejoin="round"/>
</svg>
