<svg width="521" height="544" viewBox="0 0 521 544" fill="none" xmlns="http://www.w3.org/2000/svg">
<path d="M260.005 544C403.601 544 520.009 476.789 520.009 393.88C520.009 310.971 403.601 243.76 260.005 243.76C116.408 243.76 0 310.971 0 393.88C0 476.789 116.408 544 260.005 544Z" fill="#F5F5F5"/>
<path d="M71.9851 431.258C92.9378 431.258 109.923 421.452 109.923 409.356C109.923 397.26 92.9378 387.454 71.9851 387.454C51.0324 387.454 34.0469 397.26 34.0469 409.356C34.0469 421.452 51.0324 431.258 71.9851 431.258Z" fill="#E0E0E0"/>
<path d="M228.614 361.4L124.106 421.742L48.125 377.541L152.633 317.21L228.614 361.4Z" fill="#E0E0E0"/>
<path d="M398.92 485.314L142.006 336.978C141.47 336.672 141.025 336.23 140.715 335.697C140.405 335.163 140.242 334.557 140.242 333.94C140.242 333.323 140.405 332.717 140.715 332.184C141.025 331.65 141.47 331.208 142.006 330.902L183.478 306.959C185.168 305.979 187.087 305.463 189.041 305.463C190.994 305.463 192.913 305.979 194.604 306.959L451.518 455.283C452.056 455.588 452.504 456.031 452.816 456.566C453.127 457.1 453.291 457.708 453.291 458.327C453.291 458.946 453.127 459.554 452.816 460.089C452.504 460.623 452.056 461.066 451.518 461.371L410.057 485.314C408.363 486.288 406.443 486.801 404.489 486.801C402.534 486.801 400.614 486.288 398.92 485.314Z" fill="#E0E0E0"/>
<path d="M439.004 408.668L453.442 417.053C453.442 417.053 446.153 393.798 450.2 370.403C451.727 361.563 454.935 357.178 456.031 354.822C457.127 352.466 465.874 337.865 458.212 331.147C450.55 324.429 432.554 337.795 433.371 373.832C433.768 385.635 435.661 397.341 439.004 408.668Z" fill="#B0BEC5"/>
<path opacity="0.3" d="M439.004 408.668L453.442 417.053C453.442 417.053 446.153 393.798 450.2 370.403C451.727 361.563 454.935 357.178 456.031 354.822C457.127 352.466 465.874 337.865 458.212 331.147C450.55 324.429 432.554 337.795 433.371 373.832C433.768 385.635 435.661 397.341 439.004 408.668Z" fill="black"/>
<path d="M445.709 413.088C445.603 413.088 445.499 413.055 445.412 412.995C445.325 412.935 445.257 412.849 445.22 412.75C445.161 412.598 439.715 397.46 439.995 373.167C440.275 348.874 453.104 335.742 453.232 335.614C453.331 335.515 453.465 335.459 453.605 335.459C453.745 335.459 453.879 335.515 453.978 335.614C454.077 335.713 454.133 335.847 454.133 335.987C454.133 336.127 454.077 336.261 453.978 336.36C453.85 336.489 441.324 349.189 441.044 373.179C440.765 397.169 446.153 412.237 446.199 412.388C446.224 412.452 446.235 412.519 446.233 412.587C446.231 412.655 446.215 412.722 446.187 412.784C446.158 412.846 446.118 412.902 446.068 412.948C446.018 412.994 445.96 413.03 445.896 413.053C445.837 413.076 445.773 413.088 445.709 413.088Z" fill="white"/>
<path d="M443.109 410.837L466.971 424.832C466.971 424.832 477.887 423.223 477.059 412.948C476.231 402.673 471.799 400.236 477.327 395.723C482.855 391.209 484.324 390.906 484.01 386.474C483.695 382.042 480.767 380.118 479.345 378.31C477.922 376.503 474.038 372.876 476.779 367.534C479.519 362.193 483.263 357.038 477.723 354.589C474.423 353.131 468.872 354.962 465.186 358.869C461.501 362.776 458.48 365.587 454.993 366.496C451.506 367.406 444.229 367.476 444.497 373.494C444.765 379.512 446.305 381.576 444.847 384.247C442.048 389.378 430.28 392.037 443.109 410.837Z" fill="#B0BEC5"/>
<path d="M452.777 417.077C452.646 417.075 452.52 417.025 452.424 416.937C452.327 416.849 452.266 416.728 452.252 416.598C452.252 416.237 449.639 380.736 474.306 357.423C474.353 357.374 474.41 357.335 474.474 357.308C474.537 357.282 474.604 357.268 474.673 357.268C474.741 357.268 474.809 357.282 474.872 357.308C474.935 357.335 474.992 357.374 475.04 357.423C475.137 357.523 475.191 357.657 475.191 357.796C475.191 357.935 475.137 358.069 475.04 358.169C450.747 381.133 453.29 416.144 453.325 416.482C453.335 416.62 453.29 416.757 453.201 416.864C453.112 416.971 452.985 417.039 452.846 417.053L452.777 417.077Z" fill="white"/>
<path d="M457.105 386.591C456.974 386.591 456.847 386.542 456.75 386.454C456.653 386.365 456.592 386.243 456.58 386.112C456.378 383.368 455.623 380.693 454.361 378.248C453.098 375.803 451.354 373.638 449.233 371.884C449.177 371.844 449.13 371.793 449.093 371.734C449.057 371.675 449.033 371.609 449.022 371.541C449.011 371.473 449.014 371.403 449.03 371.336C449.046 371.269 449.076 371.205 449.116 371.149C449.156 371.094 449.206 371.047 449.264 371.01C449.322 370.974 449.386 370.95 449.454 370.939C449.521 370.929 449.59 370.931 449.656 370.947C449.722 370.963 449.785 370.992 449.84 371.033C452.104 372.866 453.961 375.15 455.294 377.74C456.628 380.33 457.407 383.17 457.583 386.078C457.59 386.216 457.543 386.352 457.451 386.456C457.36 386.56 457.232 386.625 457.094 386.637L457.105 386.591Z" fill="white"/>
<path d="M455.294 392.667C455.229 392.668 455.165 392.656 455.105 392.632C455.045 392.608 454.99 392.572 454.944 392.527C454.895 392.479 454.856 392.422 454.829 392.359C454.803 392.296 454.789 392.228 454.789 392.16C454.789 392.091 454.803 392.023 454.829 391.96C454.856 391.897 454.895 391.84 454.944 391.792C455.2 391.512 461.393 384.795 475.692 386.801C475.829 386.818 475.954 386.889 476.039 386.998C476.124 387.108 476.163 387.246 476.146 387.384C476.126 387.522 476.053 387.647 475.942 387.732C475.83 387.817 475.691 387.855 475.552 387.839C461.836 385.949 455.784 392.422 455.725 392.504C455.671 392.563 455.604 392.608 455.529 392.636C455.454 392.665 455.373 392.675 455.294 392.667Z" fill="white"/>
<path d="M416.351 303.705L383.055 284.205L402.881 311.472L416.351 303.705Z" fill="#B0BEC5"/>
<path opacity="0.6" d="M416.351 303.705L383.055 284.205L402.881 311.472L416.351 303.705Z" fill="black"/>
<path d="M396.559 375.873L201.69 263.353C200.854 262.871 200.159 262.178 199.676 261.343C199.192 260.507 198.938 259.559 198.938 258.594V125.536C198.938 124.572 199.192 123.624 199.675 122.788C200.157 121.953 200.851 121.259 201.686 120.776C202.521 120.292 203.468 120.037 204.433 120.036C205.398 120.034 206.346 120.286 207.183 120.766L402.076 233.287C402.912 233.771 403.607 234.466 404.09 235.304C404.573 236.141 404.827 237.09 404.828 238.057V371.114C404.828 372.082 404.572 373.032 404.088 373.869C403.604 374.706 402.907 375.401 402.069 375.883C401.23 376.366 400.28 376.619 399.313 376.617C398.345 376.615 397.396 376.358 396.559 375.873Z" fill="#E0E0E0"/>
<path d="M402.884 311.472L416.354 303.705V461.149C416.355 462.569 415.982 463.963 415.271 465.192C414.561 466.421 413.538 467.44 412.307 468.147L399 475.856L402.884 311.472Z" fill="#B0BEC5"/>
<path opacity="0.3" d="M402.884 311.472L416.354 303.705V461.149C416.355 462.569 415.982 463.963 415.271 465.192C414.561 466.421 413.538 467.44 412.307 468.147L399 475.856L402.884 311.472Z" fill="black"/>
<path d="M387.719 380.853L192.827 268.332C191.993 267.846 191.302 267.149 190.821 266.313C190.34 265.476 190.087 264.528 190.086 263.562V130.47C190.085 129.504 190.339 128.556 190.821 127.72C191.303 126.884 191.997 126.19 192.833 125.707C193.669 125.225 194.618 124.971 195.583 124.972C196.548 124.973 197.496 125.228 198.331 125.711L393.224 238.231C394.06 238.713 394.755 239.406 395.238 240.241C395.721 241.077 395.976 242.025 395.976 242.99V376.083C395.977 377.049 395.723 377.999 395.24 378.836C394.757 379.673 394.062 380.368 393.225 380.852C392.388 381.335 391.439 381.59 390.472 381.59C389.506 381.59 388.556 381.336 387.719 380.853Z" fill="#EBEBEB"/>
<path d="M378.868 386.054L183.987 273.546C183.15 273.061 182.456 272.366 181.973 271.529C181.49 270.692 181.235 269.742 181.234 268.776V135.718C181.234 134.753 181.487 133.804 181.969 132.968C182.452 132.132 183.146 131.438 183.982 130.956C184.818 130.473 185.766 130.22 186.731 130.22C187.697 130.221 188.644 130.476 189.48 130.96L384.372 243.48C385.212 243.963 385.909 244.66 386.393 245.5C386.876 246.34 387.129 247.292 387.125 248.261V381.296C387.123 382.261 386.868 383.21 386.384 384.045C385.9 384.881 385.205 385.574 384.369 386.056C383.532 386.539 382.583 386.792 381.618 386.792C380.652 386.791 379.704 386.537 378.868 386.054Z" fill="#FAFAFA"/>
<path d="M153.805 133.968V329.549C153.804 332.325 154.535 335.052 155.923 337.455C157.311 339.859 159.308 341.854 161.712 343.241L391.464 475.867C392.625 476.536 393.941 476.888 395.281 476.887C396.621 476.887 397.937 476.534 399.097 475.864C400.258 475.194 401.221 474.231 401.892 473.071C402.562 471.911 402.916 470.595 402.917 469.255V311.472L281.743 241.497L260.809 193.214C256.901 184.197 250.195 176.677 241.682 171.767L165.001 127.449C163.862 126.792 162.57 126.447 161.255 126.449C159.94 126.451 158.649 126.801 157.513 127.463C156.377 128.124 155.435 129.075 154.784 130.217C154.133 131.359 153.795 132.654 153.805 133.968Z" fill="#B0BEC5"/>
<path opacity="0.2" d="M153.805 133.968V329.549C153.804 332.325 154.535 335.052 155.923 337.455C157.311 339.859 159.308 341.854 161.712 343.241L391.464 475.867C392.625 476.536 393.941 476.888 395.281 476.887C396.621 476.887 397.937 476.534 399.097 475.864C400.258 475.194 401.221 474.231 401.892 473.071C402.562 471.911 402.916 470.595 402.917 469.255V311.472L281.743 241.497L260.809 193.214C256.901 184.197 250.195 176.677 241.682 171.767L165.001 127.449C163.862 126.792 162.57 126.447 161.255 126.449C159.94 126.451 158.649 126.801 157.513 127.463C156.377 128.124 155.435 129.075 154.784 130.217C154.133 131.359 153.795 132.654 153.805 133.968Z" fill="black"/>
<path d="M335.879 347.393C335.237 347.02 334.596 346.693 333.966 346.401C333.476 331.357 322.98 313.571 310.151 306.154C305.824 303.647 301.766 302.655 298.267 302.959C293.369 287.074 282.114 271.47 269.006 263.866C252.282 254.209 238.566 261.172 237.237 279.319C236.432 278.759 235.616 278.234 234.799 277.756C222.099 270.432 211.812 276.368 211.812 291.028C211.812 305.688 222.099 323.52 234.799 330.844L335.914 389.226C345.932 395.058 354.049 390.323 354.049 378.73C354.049 367.137 345.897 353.119 335.879 347.393Z" fill="#B0BEC5"/>
<path opacity="0.4" d="M335.879 347.393C335.237 347.02 334.596 346.693 333.966 346.401C333.476 331.357 322.98 313.571 310.151 306.154C305.824 303.647 301.766 302.655 298.267 302.959C293.369 287.074 282.114 271.47 269.006 263.866C252.282 254.209 238.566 261.172 237.237 279.319C236.432 278.759 235.616 278.234 234.799 277.756C222.099 270.432 211.812 276.368 211.812 291.028C211.812 305.688 222.099 323.52 234.799 330.844L335.914 389.226C345.932 395.058 354.049 390.323 354.049 378.73C354.049 367.137 345.897 353.119 335.879 347.393Z" fill="white"/>
<path d="M249.727 346.028L273.553 389.471L299.012 374.042L288.948 368.362V325.362L261.821 309.735V353.084L249.727 346.028Z" fill="white"/>
<path d="M181.191 71.4805C155.797 71.48 131.063 79.5634 110.571 94.5598C90.0789 109.556 74.8929 130.687 67.2127 154.891L57.5678 149.34C57.2851 149.174 56.9649 149.083 56.6374 149.076C56.31 149.069 55.9861 149.146 55.6964 149.299C55.4068 149.452 55.161 149.676 54.9824 149.95C54.8037 150.225 54.6981 150.541 54.6755 150.867C52.9231 169.561 55.6208 188.405 62.5477 205.856C65.9541 214.518 70.5633 222.657 76.2395 230.033C76.4212 230.262 76.6601 230.44 76.9321 230.548C77.2042 230.655 77.4998 230.69 77.7893 230.647C78.0789 230.605 78.3521 230.487 78.5816 230.305C78.8111 230.124 78.9888 229.885 79.0968 229.613C83.2999 219.071 89.0978 209.237 96.2874 200.456C100.938 194.686 106.166 189.406 111.892 184.7C112.213 184.438 112.466 184.102 112.628 183.72C112.791 183.338 112.857 182.922 112.823 182.509C112.788 182.096 112.654 181.697 112.431 181.347C112.207 180.997 111.902 180.707 111.542 180.502L99.9728 173.819C106.14 151.536 119.618 131.972 138.242 118.271C156.867 104.57 179.556 97.5269 202.665 98.2737C225.774 99.0205 247.961 107.514 265.662 122.389C283.363 137.263 295.55 157.657 300.265 180.292C297.578 150.566 283.871 122.919 261.838 102.785C239.805 82.6507 211.038 71.4845 181.191 71.4805Z" fill="#B0BEC5"/>
<path opacity="0.4" d="M181.191 71.4805C155.797 71.48 131.063 79.5634 110.571 94.5598C90.0789 109.556 74.8929 130.687 67.2127 154.891L57.5678 149.34C57.2851 149.174 56.9649 149.083 56.6374 149.076C56.31 149.069 55.9861 149.146 55.6964 149.299C55.4068 149.452 55.161 149.676 54.9824 149.95C54.8037 150.225 54.6981 150.541 54.6755 150.867C52.9231 169.561 55.6208 188.405 62.5477 205.856C65.9541 214.518 70.5633 222.657 76.2395 230.033C76.4212 230.262 76.6601 230.44 76.9321 230.548C77.2042 230.655 77.4998 230.69 77.7893 230.647C78.0789 230.605 78.3521 230.487 78.5816 230.305C78.8111 230.124 78.9888 229.885 79.0968 229.613C83.2999 219.071 89.0978 209.237 96.2874 200.456C100.938 194.686 106.166 189.406 111.892 184.7C112.213 184.438 112.466 184.102 112.628 183.72C112.791 183.338 112.857 182.922 112.823 182.509C112.788 182.096 112.654 181.697 112.431 181.347C112.207 180.997 111.902 180.707 111.542 180.502L99.9728 173.819C106.14 151.536 119.618 131.972 138.242 118.271C156.867 104.57 179.556 97.5269 202.665 98.2737C225.774 99.0205 247.961 107.514 265.662 122.389C283.363 137.263 295.55 157.657 300.265 180.292C297.578 150.566 283.871 122.919 261.838 102.785C239.805 82.6507 211.038 71.4845 181.191 71.4805Z" fill="white"/>
<path d="M411.11 96.2473C424.263 88.6534 424.263 64.0296 411.111 41.2486C397.958 18.4676 376.633 6.15613 363.48 13.7501C350.327 21.3441 350.326 45.9679 363.479 68.7489C376.632 91.5298 397.957 103.841 411.11 96.2473Z" fill="#B0BEC5"/>
<path opacity="0.2" d="M411.11 96.2473C424.263 88.6534 424.263 64.0296 411.111 41.2486C397.958 18.4676 376.633 6.15613 363.48 13.7501C350.327 21.3441 350.326 45.9679 363.479 68.7489C376.632 91.5298 397.957 103.841 411.11 96.2473Z" fill="black"/>
<path d="M409.133 97.3904C422.286 89.7964 422.287 65.1726 409.134 42.3917C395.982 19.6107 374.657 7.29918 361.503 14.8932C348.35 22.4872 348.35 47.1109 361.502 69.8919C374.655 92.6729 395.98 104.984 409.133 97.3904Z" fill="#B0BEC5"/>
<path d="M371.965 67.4921L397.891 82.5368C398.207 82.7218 398.566 82.8201 398.932 82.8217C399.298 82.8232 399.658 82.728 399.975 82.5457C400.292 82.3633 400.556 82.1004 400.739 81.7834C400.922 81.4664 401.018 81.1067 401.017 80.7407V48.6688C401.011 47.8659 400.791 47.079 400.382 46.3885C399.972 45.698 399.386 45.1286 398.684 44.7385L372.758 29.7405C372.443 29.5554 372.084 29.4571 371.718 29.4556C371.352 29.454 370.992 29.5492 370.674 29.7316C370.357 29.9139 370.094 30.1769 369.911 30.4939C369.728 30.8108 369.632 31.1705 369.633 31.5365V63.6085C369.647 64.4034 369.87 65.1807 370.28 65.8623C370.689 66.5439 371.27 67.1059 371.965 67.4921Z" fill="#B0BEC5"/>
<path opacity="0.6" d="M371.965 67.4921L397.891 82.5368C398.207 82.7218 398.566 82.8201 398.932 82.8217C399.298 82.8232 399.658 82.728 399.975 82.5457C400.292 82.3633 400.556 82.1004 400.739 81.7834C400.922 81.4664 401.018 81.1067 401.017 80.7407V48.6688C401.011 47.8659 400.791 47.079 400.382 46.3885C399.972 45.698 399.386 45.1286 398.684 44.7385L372.758 29.7405C372.443 29.5554 372.084 29.4571 371.718 29.4556C371.352 29.454 370.992 29.5492 370.674 29.7316C370.357 29.9139 370.094 30.1769 369.911 30.4939C369.728 30.8108 369.632 31.1705 369.633 31.5365V63.6085C369.647 64.4034 369.87 65.1807 370.28 65.8623C370.689 66.5439 371.27 67.1059 371.965 67.4921Z" fill="white"/>
<path d="M374.562 62.8271L395.403 74.8045C395.658 74.955 395.949 75.0342 396.246 75.0337C396.543 75.0332 396.834 74.9532 397.089 74.8018C397.344 74.6505 397.553 74.4334 397.696 74.1734C397.838 73.9133 397.908 73.6198 397.899 73.3234V49.2986C397.898 48.6602 397.73 48.0332 397.41 47.4805C397.091 46.9278 396.632 46.4688 396.079 46.1497L375.238 34.1256C374.985 33.9806 374.698 33.9047 374.406 33.9055C374.113 33.9063 373.827 33.9838 373.574 34.1303C373.321 34.2767 373.112 34.4869 372.966 34.7399C372.82 34.9928 372.743 35.2797 372.742 35.5718V59.6316C372.735 60.2778 372.899 60.9144 373.219 61.4761C373.539 62.0377 374.002 62.504 374.562 62.8271Z" fill="#B0BEC5"/>
<path opacity="0.4" d="M397.898 49.2984V73.3232C397.902 73.6167 397.827 73.9057 397.682 74.1608C397.537 74.4159 397.327 74.6278 397.073 74.775C396.819 74.9221 396.53 74.9991 396.237 74.9981C395.943 74.9972 395.656 74.9182 395.403 74.7694L374.562 62.827C374.008 62.5115 373.548 62.055 373.229 61.5039C372.909 60.9528 372.741 60.3268 372.742 59.6897V35.5716C372.739 35.2782 372.814 34.9891 372.959 34.7341C373.104 34.479 373.314 34.267 373.568 34.1199C373.822 33.9728 374.11 33.8958 374.404 33.8967C374.697 33.8977 374.985 33.9766 375.238 34.1255L396.079 46.1612C396.633 46.4766 397.092 46.9332 397.412 47.4843C397.732 48.0354 397.899 48.6614 397.898 49.2984Z" fill="white"/>
<path d="M397.898 72.4718V73.3232C397.902 73.6166 397.827 73.9056 397.682 74.1607C397.537 74.4158 397.326 74.6278 397.073 74.7749C396.819 74.922 396.53 74.999 396.237 74.998C395.943 74.9971 395.655 74.9181 395.402 74.7693L374.562 62.8269C374.008 62.5114 373.548 62.0549 373.228 61.5038C372.909 60.9527 372.741 60.3267 372.742 59.6897V57.3572L378.2 52.6921L384.638 61.8589L390.924 54.3832L397.898 72.4718Z" fill="#FAFAFA"/>
<path d="M379.93 45.4732C379.983 46.4463 380.264 47.3933 380.75 48.2379C381.237 49.0826 381.914 49.8014 382.729 50.3365C384.28 51.2345 385.539 50.5114 385.539 48.7154C385.485 47.7413 385.202 46.7936 384.713 45.9489C384.225 45.1041 383.545 44.3859 382.729 43.8521C381.189 43.0008 379.93 43.6888 379.93 45.4732Z" fill="#FAFAFA"/>
<path d="M469.477 215.986C482.63 208.392 482.631 183.769 469.478 160.988C456.325 138.207 435 125.895 421.847 133.489C408.694 141.083 408.694 165.707 421.846 188.488C434.999 211.269 456.324 223.58 469.477 215.986Z" fill="#B0BEC5"/>
<path opacity="0.2" d="M469.477 215.986C482.63 208.392 482.631 183.769 469.478 160.988C456.325 138.207 435 125.895 421.847 133.489C408.694 141.083 408.694 165.707 421.846 188.488C434.999 211.269 456.324 223.58 469.477 215.986Z" fill="black"/>
<path d="M467.508 217.139C480.661 209.545 480.662 184.922 467.509 162.141C454.357 139.36 433.032 127.048 419.878 134.642C406.725 142.236 406.725 166.86 419.877 189.641C433.03 212.422 454.355 224.733 467.508 217.139Z" fill="#B0BEC5"/>
<path d="M431.126 149.479C430.808 149.298 430.449 149.202 430.083 149.203C429.718 149.204 429.359 149.301 429.042 149.484C428.726 149.667 428.463 149.93 428.28 150.246C428.097 150.563 428.001 150.922 428 151.287V183.359C428 184.155 428.21 184.936 428.61 185.624C429.009 186.313 429.583 186.883 430.274 187.278L456.258 202.287C456.578 202.487 456.947 202.595 457.324 202.601C457.701 202.607 458.073 202.51 458.399 202.321C458.725 202.131 458.993 201.856 459.175 201.526C459.357 201.195 459.445 200.822 459.431 200.445V176.642L452.433 161.725L431.126 149.479Z" fill="#B0BEC5"/>
<path opacity="0.6" d="M431.126 149.479C430.808 149.298 430.449 149.202 430.083 149.203C429.718 149.204 429.359 149.301 429.042 149.484C428.726 149.667 428.463 149.93 428.28 150.246C428.097 150.563 428.001 150.922 428 151.287V183.359C428 184.155 428.21 184.936 428.61 185.624C429.009 186.313 429.583 186.883 430.274 187.278L456.258 202.287C456.578 202.487 456.947 202.595 457.324 202.601C457.701 202.607 458.073 202.51 458.399 202.321C458.725 202.131 458.993 201.856 459.175 201.526C459.357 201.195 459.445 200.822 459.431 200.445V176.642L452.433 161.725L431.126 149.479Z" fill="white"/>
<path d="M451.418 167.183L452.328 161.725L459.325 176.653L452.969 171.417C452.362 170.909 451.899 170.251 451.627 169.508C451.355 168.765 451.283 167.963 451.418 167.183Z" fill="#B0BEC5"/>
<path opacity="0.4" d="M451.418 167.183L452.328 161.725L459.325 176.653L452.969 171.417C452.362 170.909 451.899 170.251 451.627 169.508C451.355 168.765 451.283 167.963 451.418 167.183Z" fill="white"/>
<path d="M453.947 179.709C453.819 179.707 453.694 179.671 453.585 179.604L433.071 167.79C432.908 167.693 432.79 167.536 432.742 167.352C432.694 167.169 432.72 166.975 432.814 166.81C432.909 166.648 433.064 166.531 433.245 166.483C433.427 166.435 433.62 166.46 433.782 166.554L454.308 178.391C454.471 178.488 454.589 178.645 454.637 178.828C454.685 179.012 454.659 179.206 454.565 179.371C454.501 179.477 454.41 179.564 454.301 179.623C454.193 179.683 454.07 179.712 453.947 179.709Z" fill="#FAFAFA"/>
<path d="M453.947 186.66C453.821 186.657 453.697 186.625 453.585 186.566L433.071 174.717C432.908 174.62 432.79 174.463 432.742 174.28C432.694 174.097 432.72 173.902 432.814 173.738C432.909 173.576 433.064 173.458 433.245 173.41C433.427 173.362 433.62 173.388 433.782 173.481L454.308 185.284C454.471 185.381 454.589 185.538 454.637 185.721C454.685 185.904 454.659 186.099 454.565 186.263C454.509 186.38 454.421 186.479 454.312 186.549C454.203 186.619 454.076 186.657 453.947 186.66Z" fill="#FAFAFA"/>
<path d="M453.947 193.611C453.821 193.608 453.697 193.576 453.585 193.517L433.071 181.668C432.908 181.571 432.79 181.414 432.742 181.231C432.694 181.048 432.72 180.853 432.814 180.689C432.909 180.527 433.064 180.409 433.245 180.361C433.427 180.313 433.62 180.339 433.782 180.432L454.308 192.281C454.445 192.359 454.553 192.481 454.613 192.626C454.674 192.772 454.684 192.934 454.643 193.086C454.601 193.238 454.51 193.372 454.384 193.467C454.258 193.562 454.104 193.613 453.947 193.611Z" fill="#FAFAFA"/>
<path d="M347.625 146.722C360.839 139.128 360.888 114.42 347.736 91.5343C334.583 68.6488 313.209 56.2526 299.996 63.8465C286.782 71.4405 286.733 96.1491 299.885 119.035C313.038 141.92 334.412 154.316 347.625 146.722Z" fill="#B0BEC5"/>
<path opacity="0.2" d="M347.625 146.722C360.839 139.128 360.888 114.42 347.736 91.5343C334.583 68.6488 313.209 56.2526 299.996 63.8465C286.782 71.4405 286.733 96.1491 299.885 119.035C313.038 141.92 334.412 154.316 347.625 146.722Z" fill="black"/>
<path d="M344.25 147.193C357.404 139.599 357.404 114.975 344.251 92.1942C331.099 69.4132 309.774 57.1017 296.621 64.6957C283.467 72.2896 283.467 96.9134 296.62 119.694C309.772 142.475 331.097 154.787 344.25 147.193Z" fill="#B0BEC5"/>
<path d="M307.012 117.349L332.996 132.347C333.312 132.532 333.671 132.631 334.037 132.632C334.403 132.634 334.763 132.539 335.08 132.356C335.398 132.174 335.661 131.911 335.844 131.594C336.027 131.277 336.123 130.917 336.122 130.551V98.4794C336.122 97.6822 335.911 96.8992 335.512 96.2092C335.113 95.5192 334.539 94.9466 333.848 94.5491L307.817 79.5511C307.502 79.3689 307.144 79.273 306.78 79.2729C306.415 79.2729 306.057 79.3686 305.742 79.5506C305.426 79.7326 305.164 79.9944 304.982 80.3098C304.8 80.6251 304.703 80.9828 304.703 81.3471V113.419C304.708 114.219 304.924 115.004 305.33 115.694C305.735 116.384 306.316 116.955 307.012 117.349Z" fill="#B0BEC5"/>
<path opacity="0.6" d="M307.012 117.349L332.996 132.347C333.312 132.532 333.671 132.631 334.037 132.632C334.403 132.634 334.763 132.539 335.08 132.356C335.398 132.174 335.661 131.911 335.844 131.594C336.027 131.277 336.123 130.917 336.122 130.551V98.4794C336.122 97.6822 335.911 96.8992 335.512 96.2092C335.113 95.5192 334.539 94.9466 333.848 94.5491L307.817 79.5511C307.502 79.3689 307.144 79.273 306.78 79.2729C306.415 79.2729 306.057 79.3686 305.742 79.5506C305.426 79.7326 305.164 79.9944 304.982 80.3098C304.8 80.6251 304.703 80.9828 304.703 81.3471V113.419C304.708 114.219 304.924 115.004 305.33 115.694C305.735 116.384 306.316 116.955 307.012 117.349Z" fill="white"/>
<path d="M314.094 100.509V111.39C314.094 111.82 314.265 112.232 314.569 112.536C314.873 112.84 315.285 113.011 315.715 113.011H325.15C325.46 113.011 325.765 112.921 326.026 112.753C326.287 112.585 326.495 112.346 326.624 112.063C326.753 111.78 326.798 111.467 326.754 111.159C326.709 110.852 326.578 110.563 326.374 110.328L316.939 99.4473C316.723 99.1977 316.435 99.0203 316.115 98.9387C315.795 98.8571 315.458 98.8752 315.148 98.9906C314.839 99.1061 314.572 99.3133 314.384 99.5846C314.195 99.8558 314.094 100.178 314.094 100.509Z" fill="#FAFAFA"/>
<path d="M387.297 101.92C387.077 101.92 386.867 101.833 386.711 101.677C386.556 101.522 386.469 101.311 386.469 101.092V98.8876C386.469 98.668 386.556 98.4574 386.711 98.3021C386.867 98.1468 387.077 98.0596 387.297 98.0596C387.405 98.0596 387.512 98.0811 387.612 98.1228C387.712 98.1646 387.802 98.2257 387.878 98.3028C387.954 98.3798 388.014 98.4712 388.054 98.5716C388.095 98.672 388.115 98.7794 388.113 98.8876V101.092C388.115 101.2 388.095 101.307 388.054 101.408C388.014 101.508 387.954 101.6 387.878 101.677C387.802 101.754 387.712 101.815 387.612 101.857C387.512 101.898 387.405 101.92 387.297 101.92Z" fill="#B0BEC5"/>
<path d="M387.297 225.286C387.077 225.286 386.867 225.199 386.711 225.044C386.556 224.888 386.469 224.678 386.469 224.458V220.05C386.469 219.83 386.556 219.619 386.711 219.464C386.867 219.309 387.077 219.222 387.297 219.222C387.405 219.222 387.512 219.243 387.612 219.285C387.712 219.327 387.802 219.388 387.878 219.465C387.954 219.542 388.014 219.633 388.054 219.734C388.095 219.834 388.115 219.941 388.113 220.05V224.458C388.115 224.566 388.095 224.674 388.054 224.774C388.014 224.874 387.954 224.966 387.878 225.043C387.802 225.12 387.712 225.181 387.612 225.223C387.512 225.265 387.405 225.286 387.297 225.286ZM387.297 216.469C387.077 216.469 386.867 216.382 386.711 216.227C386.556 216.071 386.469 215.861 386.469 215.641V211.244C386.469 211.025 386.556 210.814 386.711 210.659C386.867 210.504 387.077 210.416 387.297 210.416C387.405 210.416 387.512 210.438 387.612 210.48C387.712 210.521 387.802 210.583 387.878 210.66C387.954 210.737 388.014 210.828 388.054 210.928C388.095 211.029 388.115 211.136 388.113 211.244V215.606C388.12 215.717 388.103 215.828 388.065 215.933C388.027 216.037 387.968 216.133 387.891 216.214C387.815 216.295 387.723 216.359 387.62 216.403C387.518 216.447 387.408 216.469 387.297 216.469ZM387.297 207.664C387.077 207.664 386.867 207.577 386.711 207.421C386.556 207.266 386.469 207.056 386.469 206.836V202.428C386.469 202.208 386.556 201.997 386.711 201.842C386.867 201.687 387.077 201.599 387.297 201.599C387.405 201.599 387.512 201.621 387.612 201.663C387.712 201.704 387.802 201.766 387.878 201.843C387.954 201.92 388.014 202.011 388.054 202.112C388.095 202.212 388.115 202.319 388.113 202.428V206.836C388.115 206.944 388.095 207.052 388.054 207.152C388.014 207.252 387.954 207.344 387.878 207.421C387.802 207.498 387.712 207.559 387.612 207.601C387.512 207.643 387.405 207.664 387.297 207.664ZM387.297 198.847C387.077 198.847 386.867 198.76 386.711 198.605C386.556 198.449 386.469 198.239 386.469 198.019V193.611C386.469 193.502 386.49 193.395 386.532 193.296C386.574 193.196 386.635 193.105 386.712 193.029C386.789 192.953 386.88 192.893 386.981 192.853C387.081 192.813 387.189 192.793 387.297 192.794C387.513 192.794 387.721 192.88 387.874 193.033C388.027 193.186 388.113 193.394 388.113 193.611V198.019C388.115 198.127 388.095 198.235 388.054 198.335C388.014 198.435 387.954 198.527 387.878 198.604C387.802 198.681 387.712 198.742 387.612 198.784C387.512 198.826 387.405 198.847 387.297 198.847ZM387.297 190.042C387.077 190.042 386.867 189.955 386.711 189.799C386.556 189.644 386.469 189.433 386.469 189.214V184.805C386.469 184.586 386.556 184.375 386.711 184.22C386.867 184.065 387.077 183.977 387.297 183.977C387.405 183.977 387.512 183.999 387.612 184.041C387.712 184.082 387.802 184.144 387.878 184.221C387.954 184.298 388.014 184.389 388.054 184.489C388.095 184.59 388.115 184.697 388.113 184.805V189.214C388.115 189.322 388.095 189.429 388.054 189.53C388.014 189.63 387.954 189.722 387.878 189.799C387.802 189.876 387.712 189.937 387.612 189.979C387.512 190.02 387.405 190.042 387.297 190.042ZM387.297 181.225C387.077 181.225 386.867 181.138 386.711 180.982C386.556 180.827 386.469 180.617 386.469 180.397V175.954C386.469 175.734 386.556 175.523 386.711 175.368C386.867 175.213 387.077 175.126 387.297 175.126C387.405 175.126 387.512 175.147 387.612 175.189C387.712 175.231 387.802 175.292 387.878 175.369C387.954 175.446 388.014 175.537 388.054 175.638C388.095 175.738 388.115 175.845 388.113 175.954V180.362C388.12 180.473 388.103 180.584 388.065 180.689C388.027 180.793 387.968 180.889 387.891 180.97C387.815 181.05 387.723 181.115 387.62 181.159C387.518 181.203 387.408 181.225 387.297 181.225ZM387.297 172.408C387.189 172.41 387.081 172.39 386.981 172.349C386.88 172.309 386.789 172.249 386.712 172.173C386.635 172.097 386.574 172.007 386.532 171.907C386.49 171.807 386.469 171.7 386.469 171.592V167.183C386.469 166.964 386.556 166.753 386.711 166.598C386.867 166.443 387.077 166.355 387.297 166.355C387.405 166.355 387.512 166.377 387.612 166.419C387.712 166.46 387.802 166.521 387.878 166.599C387.954 166.676 388.014 166.767 388.054 166.867C388.095 166.968 388.115 167.075 388.113 167.183V171.592C388.12 171.703 388.103 171.814 388.065 171.919C388.027 172.023 387.968 172.119 387.891 172.199C387.815 172.28 387.723 172.345 387.62 172.389C387.518 172.432 387.408 172.455 387.297 172.455V172.408ZM387.297 163.603C387.077 163.603 386.867 163.516 386.711 163.36C386.556 163.205 386.469 162.994 386.469 162.775V158.366C386.469 158.147 386.556 157.936 386.711 157.781C386.867 157.626 387.077 157.538 387.297 157.538C387.405 157.538 387.512 157.56 387.612 157.602C387.712 157.643 387.802 157.705 387.878 157.782C387.954 157.859 388.014 157.95 388.054 158.05C388.095 158.151 388.115 158.258 388.113 158.366V162.775C388.115 162.883 388.095 162.99 388.054 163.091C388.014 163.191 387.954 163.283 387.878 163.36C387.802 163.437 387.712 163.498 387.612 163.54C387.512 163.581 387.405 163.603 387.297 163.603ZM387.297 154.786C387.188 154.786 387.08 154.765 386.98 154.723C386.879 154.681 386.788 154.62 386.711 154.544C386.634 154.467 386.573 154.375 386.532 154.275C386.49 154.174 386.469 154.067 386.469 153.958V149.561C386.469 149.342 386.556 149.131 386.711 148.976C386.867 148.82 387.077 148.733 387.297 148.733C387.405 148.733 387.512 148.755 387.612 148.796C387.712 148.838 387.802 148.899 387.878 148.976C387.954 149.053 388.014 149.145 388.054 149.245C388.095 149.346 388.115 149.453 388.113 149.561V153.958C388.115 154.066 388.095 154.174 388.054 154.274C388.014 154.374 387.954 154.466 387.878 154.543C387.802 154.62 387.712 154.681 387.612 154.723C387.512 154.765 387.405 154.786 387.297 154.786ZM387.297 145.981C387.077 145.981 386.867 145.894 386.711 145.738C386.556 145.583 386.469 145.372 386.469 145.153V140.744C386.469 140.525 386.556 140.314 386.711 140.159C386.867 140.004 387.077 139.916 387.297 139.916C387.405 139.916 387.512 139.938 387.612 139.98C387.712 140.021 387.802 140.082 387.878 140.16C387.954 140.237 388.014 140.328 388.054 140.428C388.095 140.529 388.115 140.636 388.113 140.744V145.153C388.115 145.261 388.095 145.368 388.054 145.469C388.014 145.569 387.954 145.661 387.878 145.738C387.802 145.815 387.712 145.876 387.612 145.918C387.512 145.959 387.405 145.981 387.297 145.981ZM387.297 137.164C387.077 137.164 386.867 137.077 386.711 136.921C386.556 136.766 386.469 136.556 386.469 136.336V131.927C386.469 131.819 386.49 131.712 386.532 131.612C386.574 131.513 386.635 131.422 386.712 131.346C386.789 131.27 386.88 131.21 386.981 131.17C387.081 131.13 387.189 131.11 387.297 131.111C387.513 131.111 387.721 131.197 387.874 131.35C388.027 131.503 388.113 131.711 388.113 131.927V136.301C388.12 136.412 388.103 136.523 388.065 136.628C388.027 136.732 387.968 136.828 387.891 136.909C387.815 136.989 387.723 137.054 387.62 137.098C387.518 137.142 387.408 137.164 387.297 137.164ZM387.297 128.359C387.077 128.359 386.867 128.272 386.711 128.116C386.556 127.961 386.469 127.75 386.469 127.531V123.122C386.469 122.903 386.556 122.692 386.711 122.537C386.867 122.381 387.077 122.294 387.297 122.294C387.405 122.294 387.512 122.316 387.612 122.357C387.712 122.399 387.802 122.46 387.878 122.537C387.954 122.614 388.014 122.706 388.054 122.806C388.095 122.907 388.115 123.014 388.113 123.122V127.531C388.115 127.639 388.095 127.746 388.054 127.847C388.014 127.947 387.954 128.038 387.878 128.116C387.802 128.193 387.712 128.254 387.612 128.295C387.512 128.337 387.405 128.359 387.297 128.359ZM387.297 119.542C387.077 119.542 386.867 119.455 386.711 119.299C386.556 119.144 386.469 118.933 386.469 118.714V114.305C386.469 114.086 386.556 113.875 386.711 113.72C386.867 113.565 387.077 113.477 387.297 113.477C387.405 113.477 387.512 113.499 387.612 113.541C387.712 113.582 387.802 113.644 387.878 113.721C387.954 113.798 388.014 113.889 388.054 113.989C388.095 114.09 388.115 114.197 388.113 114.305V118.714C388.115 118.822 388.095 118.929 388.054 119.03C388.014 119.13 387.954 119.222 387.878 119.299C387.802 119.376 387.712 119.437 387.612 119.479C387.512 119.52 387.405 119.542 387.297 119.542ZM387.297 110.725C387.189 110.727 387.081 110.707 386.981 110.666C386.88 110.626 386.789 110.566 386.712 110.49C386.635 110.414 386.574 110.324 386.532 110.224C386.49 110.124 386.469 110.017 386.469 109.909V105.5C386.469 105.281 386.556 105.07 386.711 104.915C386.867 104.759 387.077 104.672 387.297 104.672C387.405 104.672 387.512 104.694 387.612 104.735C387.712 104.777 387.802 104.838 387.878 104.915C387.954 104.992 388.014 105.084 388.054 105.184C388.095 105.285 388.115 105.392 388.113 105.5V109.909C388.113 110.016 388.092 110.122 388.051 110.221C388.01 110.32 387.95 110.41 387.874 110.486C387.798 110.562 387.708 110.622 387.609 110.663C387.51 110.704 387.404 110.725 387.297 110.725Z" fill="#B0BEC5"/>
<path d="M387.297 231.934C387.189 231.935 387.081 231.915 386.981 231.875C386.88 231.835 386.789 231.775 386.712 231.699C386.635 231.623 386.574 231.532 386.532 231.432C386.49 231.333 386.469 231.225 386.469 231.117V228.913C386.469 228.693 386.556 228.483 386.711 228.327C386.867 228.172 387.077 228.085 387.297 228.085C387.405 228.085 387.512 228.106 387.612 228.148C387.712 228.19 387.802 228.251 387.878 228.328C387.954 228.405 388.014 228.497 388.054 228.597C388.095 228.697 388.115 228.805 388.113 228.913V231.117C388.113 231.334 388.027 231.541 387.874 231.694C387.721 231.848 387.513 231.934 387.297 231.934Z" fill="#B0BEC5"/>
<path d="M408.113 177.691C407.96 177.693 407.81 177.651 407.68 177.571C407.55 177.49 407.445 177.374 407.379 177.236C407.329 177.139 407.299 177.033 407.291 176.925C407.283 176.816 407.297 176.707 407.332 176.604C407.367 176.5 407.422 176.405 407.494 176.324C407.566 176.242 407.654 176.176 407.752 176.128L409.723 175.149C409.819 175.1 409.924 175.072 410.032 175.064C410.14 175.056 410.248 175.07 410.35 175.104C410.452 175.138 410.547 175.192 410.629 175.263C410.71 175.334 410.777 175.42 410.825 175.516C410.873 175.613 410.902 175.718 410.91 175.825C410.917 175.933 410.904 176.041 410.87 176.143C410.836 176.246 410.782 176.34 410.711 176.422C410.64 176.503 410.554 176.57 410.458 176.618L408.487 177.61C408.37 177.665 408.243 177.693 408.113 177.691Z" fill="#B0BEC5"/>
<path d="M398.413 182.52C398.26 182.521 398.109 182.48 397.979 182.399C397.849 182.318 397.744 182.203 397.678 182.065C397.619 181.965 397.581 181.854 397.568 181.739C397.555 181.624 397.566 181.508 397.601 181.397C397.637 181.287 397.695 181.185 397.773 181.099C397.85 181.013 397.945 180.945 398.051 180.898L402.903 178.484C403.003 178.427 403.113 178.391 403.228 178.378C403.343 178.366 403.459 178.378 403.568 178.413C403.678 178.448 403.779 178.506 403.866 178.582C403.952 178.659 404.021 178.753 404.069 178.857C404.127 178.957 404.163 179.068 404.175 179.183C404.187 179.297 404.175 179.413 404.14 179.523C404.105 179.633 404.047 179.734 403.971 179.82C403.894 179.906 403.801 179.976 403.696 180.024L398.786 182.438C398.67 182.494 398.542 182.522 398.413 182.52Z" fill="#B0BEC5"/>
<path d="M391.592 185.913C391.439 185.915 391.289 185.874 391.159 185.793C391.029 185.712 390.924 185.596 390.858 185.459C390.798 185.359 390.761 185.248 390.748 185.133C390.734 185.018 390.746 184.901 390.781 184.791C390.816 184.681 390.875 184.579 390.952 184.493C391.03 184.407 391.125 184.339 391.231 184.292L393.202 183.313C393.302 183.255 393.413 183.219 393.527 183.207C393.642 183.195 393.758 183.206 393.867 183.242C393.977 183.277 394.078 183.334 394.165 183.411C394.251 183.487 394.32 183.581 394.368 183.686C394.465 183.882 394.48 184.109 394.41 184.317C394.34 184.525 394.191 184.696 393.995 184.794L392.024 185.773C391.896 185.859 391.746 185.908 391.592 185.913Z" fill="#B0BEC5"/>
<path d="M361.054 126.155C360.913 126.156 360.774 126.12 360.651 126.05C360.528 125.98 360.426 125.88 360.354 125.758L359.188 123.869C359.125 123.776 359.082 123.671 359.061 123.56C359.04 123.45 359.042 123.337 359.068 123.227C359.093 123.118 359.14 123.014 359.207 122.924C359.274 122.834 359.359 122.758 359.456 122.702C359.551 122.643 359.656 122.603 359.767 122.585C359.877 122.567 359.989 122.571 360.098 122.597C360.207 122.623 360.309 122.671 360.399 122.737C360.489 122.803 360.565 122.887 360.622 122.982L361.789 124.872C361.866 124.997 361.909 125.14 361.912 125.287C361.915 125.435 361.878 125.58 361.805 125.708C361.732 125.836 361.626 125.941 361.498 126.014C361.37 126.086 361.224 126.123 361.077 126.12L361.054 126.155Z" fill="#B0BEC5"/>
<path d="M379.159 156.022C379.016 156.023 378.876 155.987 378.751 155.918C378.626 155.848 378.522 155.748 378.448 155.626L376.185 151.894C376.122 151.801 376.078 151.697 376.057 151.587C376.036 151.476 376.037 151.363 376.06 151.254C376.084 151.144 376.13 151.04 376.194 150.949C376.259 150.858 376.342 150.78 376.438 150.722C376.533 150.663 376.64 150.625 376.751 150.609C376.862 150.593 376.975 150.599 377.083 150.628C377.191 150.657 377.293 150.708 377.381 150.777C377.469 150.846 377.542 150.932 377.596 151.031L379.859 154.763C379.918 154.857 379.958 154.963 379.976 155.073C379.994 155.183 379.99 155.296 379.964 155.405C379.938 155.513 379.89 155.616 379.824 155.706C379.758 155.796 379.675 155.872 379.579 155.929C379.45 155.998 379.305 156.031 379.159 156.022ZM374.634 148.558C374.491 148.559 374.351 148.523 374.226 148.454C374.101 148.384 373.997 148.284 373.922 148.162L371.66 144.43C371.601 144.335 371.561 144.23 371.543 144.119C371.525 144.009 371.529 143.896 371.555 143.788C371.581 143.679 371.628 143.577 371.695 143.487C371.761 143.397 371.844 143.321 371.94 143.264C372.034 143.203 372.14 143.161 372.25 143.143C372.361 143.124 372.474 143.127 372.583 143.154C372.692 143.18 372.795 143.228 372.885 143.295C372.974 143.362 373.05 143.446 373.106 143.543L375.369 147.275C375.441 147.401 375.48 147.543 375.481 147.689C375.483 147.834 375.446 147.977 375.376 148.104C375.305 148.23 375.203 148.337 375.079 148.412C374.955 148.488 374.814 148.53 374.669 148.535L374.634 148.558ZM370.109 141.094C369.965 141.092 369.825 141.053 369.701 140.982C369.576 140.91 369.472 140.809 369.397 140.686L367.135 136.954C367.046 136.769 367.03 136.557 367.089 136.36C367.148 136.163 367.279 135.995 367.455 135.889C367.631 135.783 367.84 135.746 368.042 135.785C368.243 135.825 368.423 135.938 368.546 136.103L370.797 139.8C370.86 139.893 370.903 139.998 370.924 140.108C370.945 140.218 370.942 140.332 370.917 140.441C370.892 140.551 370.844 140.654 370.778 140.744C370.711 140.835 370.626 140.91 370.529 140.966C370.402 141.044 370.257 141.088 370.109 141.094ZM365.584 133.619C365.441 133.618 365.301 133.582 365.177 133.512C365.052 133.443 364.948 133.343 364.872 133.222L362.61 129.49C362.554 129.397 362.517 129.293 362.501 129.185C362.485 129.078 362.491 128.968 362.517 128.862C362.544 128.757 362.591 128.657 362.656 128.57C362.721 128.483 362.802 128.409 362.896 128.353C362.989 128.297 363.092 128.26 363.2 128.244C363.308 128.228 363.418 128.234 363.523 128.26C363.629 128.287 363.728 128.334 363.816 128.399C363.903 128.464 363.977 128.545 364.033 128.639L366.295 132.371C366.373 132.496 366.416 132.639 366.419 132.787C366.421 132.934 366.384 133.079 366.312 133.207C366.239 133.335 366.132 133.44 366.004 133.513C365.876 133.585 365.731 133.622 365.584 133.619Z" fill="#B0BEC5"/>
<path d="M382.554 161.644C382.411 161.642 382.272 161.604 382.149 161.532C382.027 161.461 381.925 161.358 381.854 161.235L380.688 159.358C380.585 159.171 380.559 158.952 380.614 158.747C380.669 158.541 380.801 158.365 380.982 158.254C381.163 158.143 381.381 158.106 381.589 158.151C381.796 158.196 381.979 158.319 382.099 158.495L383.265 160.384C383.328 160.478 383.37 160.583 383.39 160.694C383.41 160.805 383.406 160.919 383.38 161.028C383.354 161.138 383.305 161.241 383.237 161.331C383.169 161.421 383.083 161.495 382.985 161.55C382.853 161.62 382.703 161.653 382.554 161.644Z" fill="#B0BEC5"/>
<path d="M142.936 286.153L90.6184 317.094V346.005L63.3047 361.306V376.852L113.99 406.254L193.61 361.574V315.554L142.936 286.153Z" fill="#263238"/>
<path d="M63.3047 361.306L113.99 390.707V406.254L63.3047 376.852V361.306Z" fill="#455A64"/>
<path d="M141.294 346.507V375.418L113.992 390.708V406.254L193.612 361.575V315.554L141.294 346.507Z" fill="#263238"/>
<path d="M113.99 390.708L141.292 375.418L90.6184 346.005L63.3047 361.306L113.99 390.708Z" fill="#37474F"/>
<path d="M141.291 375.418V346.506L90.6172 317.094V346.005L141.291 375.418Z" fill="#455A64"/>
<path d="M141.291 346.506L90.6172 317.094L142.935 286.153L193.609 315.554L141.291 346.506Z" fill="#37474F"/>
<path d="M155.65 210.207C155.65 210.207 143.171 227.7 150.589 233.753C158.006 239.806 174.275 234.919 174.928 232.039C175.582 229.158 155.65 210.207 155.65 210.207Z" fill="#263238"/>
<path d="M99.9038 363.312L81.5703 387.711L86.6668 391.734C86.6668 391.734 94.0142 390.195 96.615 380.491C98.1397 374.856 99.2391 369.113 99.9038 363.312Z" fill="#FFA8A7"/>
<path d="M101.561 361.656C101.561 361.656 106.658 366.321 104.407 370.415C102.156 374.508 98.2489 377.879 98.1323 383.325C98.0156 388.772 95.2866 398.487 89.2454 400.026C83.2042 401.565 77.2913 399.466 77.4079 397.32C77.5246 395.174 81.5715 387.71 81.5715 387.71C81.5715 387.71 87.1228 391.151 91.2164 387.827C95.3099 384.503 96.2546 370.543 96.2546 370.543L101.561 361.656Z" fill="#B0BEC5"/>
<path opacity="0.2" d="M101.561 361.656C101.561 361.656 106.658 366.321 104.407 370.415C102.156 374.508 98.2489 377.879 98.1323 383.325C98.0156 388.772 95.2866 398.487 89.2454 400.026C83.2042 401.565 77.2913 399.466 77.4079 397.32C77.5246 395.174 81.5715 387.71 81.5715 387.71C81.5715 387.71 87.1228 391.151 91.2164 387.827C95.3099 384.503 96.2546 370.543 96.2546 370.543L101.561 361.656Z" fill="black"/>
<path d="M132.88 286.13C132.88 286.13 91.9915 303.425 88.6793 305.128C85.3672 306.831 79.5592 309.793 80.1424 323.123C80.7255 336.453 84.0726 369.47 84.0726 369.47L106.488 326.319L164.369 298.807L132.88 286.13Z" fill="#B0BEC5"/>
<path opacity="0.5" d="M132.88 286.13C132.88 286.13 91.9915 303.425 88.6793 305.128C85.3672 306.831 79.5592 309.793 80.1424 323.123C80.7255 336.453 84.0726 369.47 84.0726 369.47L106.488 326.319L164.369 298.807L132.88 286.13Z" fill="black"/>
<path d="M82.4062 352.384C83.2693 361.808 84.0507 369.47 84.0507 369.47L106.466 326.319L147.74 306.667L138.41 299.332C125.219 305.956 106.058 315.566 100.332 318.505C93.0541 322.237 90.8033 332.791 84.5288 347.451C83.8174 349.061 83.1177 350.693 82.4062 352.384Z" fill="#B0BEC5"/>
<path opacity="0.7" d="M82.4062 352.384C83.2693 361.808 84.0507 369.47 84.0507 369.47L106.466 326.319L147.74 306.667L138.41 299.332C125.219 305.956 106.058 315.566 100.332 318.505C93.0541 322.237 90.8033 332.791 84.5288 347.451C83.8174 349.061 83.1177 350.693 82.4062 352.384Z" fill="black"/>
<path d="M136.25 294.947L140.472 301.326L137.171 301.827L136.25 294.947Z" fill="#B0BEC5"/>
<path opacity="0.7" d="M136.25 294.947L140.472 301.326L137.171 301.827L136.25 294.947Z" fill="black"/>
<path d="M81.7895 397.32C81.7895 397.32 82.3726 398.3 82.3726 403.233C82.3726 408.166 80.4017 409.204 77.9642 410.032C75.5267 410.861 68.2843 416.167 66.3017 418.476C64.319 420.785 56.3185 423.141 48.4113 421.765C40.5041 420.389 38.8364 415.164 42.6384 411.817C46.4404 408.47 57.2749 402.37 57.2749 402.37L81.7895 397.32Z" fill="#B0BEC5"/>
<path d="M176.469 296.346L158.882 292.276C158.882 292.276 110.028 316.767 102.75 320.499C95.4727 324.231 93.2335 334.797 86.9357 349.457C82.2707 360.49 76.0546 375.628 71.9844 384.725C71.9844 384.725 74.8767 392.399 84.0434 390.474C87.1457 383.699 92.6271 377.646 100.604 366.869C105.723 360.213 109.357 352.538 111.264 344.361C111.567 342.905 112.275 341.565 113.307 340.494C114.339 339.423 115.652 338.665 117.095 338.308C125.154 336.349 141.586 332.092 158.94 326.121C183.397 317.7 176.469 296.346 176.469 296.346Z" fill="#B0BEC5"/>
<path opacity="0.5" d="M176.469 296.346L158.882 292.276C158.882 292.276 110.028 316.767 102.75 320.499C95.4727 324.231 93.2335 334.797 86.9357 349.457C82.2707 360.49 76.0546 375.628 71.9844 384.725C71.9844 384.725 74.8767 392.399 84.0434 390.474C87.1457 383.699 92.6271 377.646 100.604 366.869C105.723 360.213 109.357 352.538 111.264 344.361C111.567 342.905 112.275 341.565 113.307 340.494C114.339 339.423 115.652 338.665 117.095 338.308C125.154 336.349 141.586 332.092 158.94 326.121C183.397 317.7 176.469 296.346 176.469 296.346Z" fill="black"/>
<path d="M71.9799 384.713C70.6387 387.71 69.5307 390.055 68.7727 391.372C65.7054 396.702 56.7602 402.475 53.6114 405.204C50.4625 407.933 49.7977 408.96 52.8066 411.269C60.4223 417.1 67.0233 410.732 71.2918 406.604C74.142 403.987 77.2707 401.692 80.6218 399.758C80.8627 399.625 81.0719 399.442 81.235 399.22C81.3981 398.999 81.5112 398.744 81.5665 398.475C82.0392 395.71 82.8744 393.02 84.0506 390.474C74.8722 392.399 71.9799 384.713 71.9799 384.713Z" fill="#FFA8A7"/>
<path d="M157.816 313.047L127.062 330.797L75.9219 301.233L106.676 283.109L157.816 313.047Z" fill="#37474F"/>
<path d="M130.362 307.985L118.828 301.326L126.059 297.151L137.605 303.81L130.362 307.985Z" fill="#263238"/>
<path d="M125.745 326.365L141.291 317.21L110.922 298.83L125.745 326.365Z" fill="#263238"/>
<path d="M126.659 271.493L114.355 277.324C110.679 278.255 107.055 279.376 103.497 280.683C103.497 280.683 94.9365 284.182 94.5399 286.515C94.1434 288.847 100.966 294.34 106.949 291.646C108.526 290.818 110.21 290.209 111.952 289.838C115.59 289.492 119.028 288.016 121.784 285.616L131.732 282.887C131.732 282.887 136.863 272.928 126.659 271.493Z" fill="#FFA8A7"/>
<path d="M118.694 288.66C117.271 290.188 113.212 294.037 112.326 295.145C111.44 296.253 109.34 293.395 113.014 289.139C116.189 287.972 119.175 286.345 121.878 284.31C120.93 285.84 119.866 287.295 118.694 288.66Z" fill="#FFA8A7"/>
<path d="M151.836 228.715C149.009 228.264 146.114 228.831 143.666 230.315C141.218 231.8 139.377 234.105 138.471 236.821C137.166 240.74 136.325 244.799 135.963 248.915C134.902 261.58 134.61 267.913 134.61 267.913L121.875 273.744C121.875 273.744 128.756 274.071 128.289 283.774L144.139 279.75L151.836 228.715Z" fill="#B0BEC5"/>
<path opacity="0.3" d="M151.836 228.715C149.009 228.264 146.114 228.831 143.666 230.315C141.218 231.8 139.377 234.105 138.471 236.821C137.166 240.74 136.325 244.799 135.963 248.915C134.902 261.58 134.61 267.913 134.61 267.913L121.875 273.744C121.875 273.744 128.698 274.071 128.289 283.774L144.139 279.75L151.836 228.715Z" fill="white"/>
<path d="M134.609 267.913C136.039 268.358 137.332 269.161 138.365 270.245C138.365 270.245 136.825 267.33 134.679 266.432L134.609 267.913Z" fill="#B0BEC5"/>
<path opacity="0.1" d="M134.609 267.913C136.039 268.358 137.332 269.161 138.365 270.245C138.365 270.245 136.825 267.33 134.679 266.432L134.609 267.913Z" fill="white"/>
<path d="M146.26 199.955C146.26 199.955 138.399 197.623 141.233 188.748C144.067 179.872 164.115 176.07 179.207 188.748C179.207 188.748 189.796 187.115 189.796 201.903C189.796 216.691 183.872 223.444 192.992 227.292C192.992 227.292 187.429 232.564 182.927 227.292C182.927 227.292 181.982 238.838 164.92 234.815L146.26 199.955Z" fill="#263238"/>
<path d="M171.917 233.753L180.851 237.555V263.749C178.054 270.452 176.539 277.62 176.384 284.882V297.85C176.384 297.85 158.12 304.358 143.962 297.314C137.105 293.908 132.859 286.13 132.859 286.13C132.859 286.13 140.405 281.686 140.405 276.263C140.258 272.026 139.755 267.808 138.901 263.656C137.249 262.015 135.998 260.016 135.243 257.813C134.489 255.611 134.252 253.264 134.55 250.955C135.553 242.302 151.834 228.715 151.834 228.715L157.899 229.543L171.917 233.753Z" fill="#B0BEC5"/>
<path d="M171.917 233.753L157.898 229.543V212.574H171.917V233.753Z" fill="#FFA8A7"/>
<path d="M157.898 229.601C160.754 228.534 163.363 226.899 165.568 224.794C167.773 222.689 169.528 220.159 170.727 217.356V212.691H157.898V229.601Z" fill="#F28F8F"/>
<path d="M154.636 189.587C154.636 189.587 141.808 190.334 143.394 212.271C144.128 222.406 146.496 227.654 154.31 227.269C163.15 226.837 175.711 220.761 174.894 203.407C174.078 186.053 154.636 189.587 154.636 189.587Z" fill="#FFA8A7"/>
<path d="M171.915 212.574C171.915 212.574 168.416 213.507 168.416 208.469C168.416 208.469 152.788 207.408 149.336 191.896C149.336 191.896 150.875 187.231 160.637 187.231C170.398 187.231 178.586 195.85 176.043 207.711L171.915 212.574Z" fill="#263238"/>
<path d="M152.787 207.862V215.408L148.367 214.055L152.787 207.862Z" fill="#F28F8F"/>
<path d="M159.43 208.667C159.43 208.972 159.34 209.27 159.17 209.524C159.001 209.777 158.759 209.974 158.477 210.091C158.195 210.207 157.885 210.237 157.586 210.176C157.287 210.116 157.013 209.968 156.798 209.752C156.584 209.535 156.438 209.26 156.38 208.96C156.322 208.661 156.354 208.351 156.472 208.07C156.59 207.789 156.79 207.549 157.044 207.381C157.299 207.214 157.598 207.125 157.903 207.128C158.104 207.128 158.304 207.168 158.49 207.245C158.676 207.323 158.845 207.436 158.987 207.579C159.129 207.722 159.241 207.892 159.318 208.079C159.394 208.266 159.432 208.466 159.43 208.667Z" fill="#263238"/>
<path d="M149.329 207.594C149.331 207.9 149.243 208.199 149.074 208.454C148.906 208.709 148.666 208.908 148.384 209.026C148.102 209.144 147.792 209.175 147.492 209.116C147.192 209.057 146.917 208.91 146.701 208.694C146.485 208.478 146.338 208.203 146.279 207.903C146.22 207.604 146.251 207.293 146.369 207.011C146.487 206.73 146.686 206.489 146.941 206.321C147.196 206.153 147.496 206.064 147.801 206.066C148.205 206.07 148.592 206.231 148.878 206.517C149.164 206.803 149.326 207.19 149.329 207.594Z" fill="#263238"/>
<path d="M145.918 204.399L148.927 202.614C148.927 202.614 147.761 201.448 146.595 202.136C146.268 202.402 146.029 202.76 145.908 203.163C145.788 203.567 145.791 203.997 145.918 204.399Z" fill="#263238"/>
<path d="M153.172 217.939C154.923 218.064 156.665 217.596 158.117 216.609C158.117 216.609 158.455 219.222 156.274 219.711C155.632 219.821 154.971 219.705 154.405 219.381C153.839 219.058 153.403 218.548 153.172 217.939Z" fill="#F28F8F"/>
<path d="M170.679 213.146C170.626 211.87 170.861 210.598 171.367 209.425C171.612 208.694 172.067 208.051 172.674 207.576C173.282 207.101 174.016 206.815 174.785 206.755C178.715 206.65 179.251 210.44 179.193 211.793C179.053 215.292 176.184 219.164 170.843 219.315L170.679 213.146Z" fill="#FFA8A7"/>
<path d="M157.897 229.601L153.756 234.978C153.291 235.583 152.964 236.282 152.798 237.027C152.631 237.772 152.63 238.544 152.793 239.289C152.956 240.035 153.281 240.736 153.743 241.343C154.206 241.95 154.795 242.448 155.471 242.803C157.307 243.764 159.419 244.056 161.446 243.63C163.474 243.205 165.29 242.088 166.585 240.471L171.915 233.811L157.897 229.601Z" fill="#FFA8A7"/>
<path d="M157.821 294.212L146.158 300.591C144.364 300.458 142.563 300.458 140.77 300.591C138.694 300.848 133.189 301.851 131.766 301.909C130.344 301.968 131.708 304.627 135.44 304.393C135.44 304.393 127.031 308.242 126.728 310.551C126.425 312.86 133.469 318.108 139.347 315.216C140.882 314.322 142.535 313.647 144.257 313.21C147.882 312.696 151.258 311.066 153.914 308.545L163.745 305.396C163.745 305.396 168.06 295.215 157.821 294.212Z" fill="#FFA8A7"/>
<path d="M180.85 237.555C180.85 237.555 173.701 242.43 174.925 257.591C175.637 266.764 175.637 275.978 174.925 285.15L157.805 294.212C159.641 295.433 161.139 297.099 162.158 299.054C163.178 301.01 163.686 303.191 163.636 305.396C163.636 305.396 188.221 300.335 189.69 294.608C191.16 288.882 191.696 261.487 191.696 256.728C191.696 251.97 189.783 241.357 180.85 237.555Z" fill="#B0BEC5"/>
<path opacity="0.3" d="M180.85 237.555C180.85 237.555 173.701 242.43 174.925 257.591C175.637 266.764 175.637 275.978 174.925 285.15L157.805 294.212C159.641 295.433 161.139 297.099 162.158 299.054C163.178 301.01 163.686 303.191 163.636 305.396C163.636 305.396 188.221 300.335 189.69 294.608C191.16 288.882 191.696 261.487 191.696 256.728C191.696 251.97 189.783 241.357 180.85 237.555Z" fill="white"/>
<path d="M174.938 285.15C176.821 285.11 178.694 285.451 180.442 286.153C178.869 284.93 177.011 284.128 175.042 283.82L174.938 285.15Z" fill="#B0BEC5"/>
<path opacity="0.1" d="M174.938 285.15C176.821 285.11 178.694 285.451 180.442 286.153C178.869 284.93 177.011 284.128 175.042 283.82L174.938 285.15Z" fill="white"/>
<path d="M68.7981 267.341L74.1395 302.329C74.134 302.348 74.134 302.368 74.1395 302.387L127.262 333.2C127.275 333.206 127.29 333.209 127.304 333.207C127.319 333.206 127.333 333.201 127.345 333.193C127.356 333.185 127.366 333.173 127.372 333.16C127.378 333.147 127.38 333.132 127.379 333.118L122.189 299.168C122.078 298.451 121.812 297.766 121.409 297.161C121.006 296.557 120.477 296.048 119.857 295.67L71.1539 265.755C70.8994 265.594 70.6036 265.511 70.3025 265.515C70.0014 265.519 69.7081 265.611 69.4583 265.779C69.2085 265.948 69.0131 266.185 68.8958 266.462C68.7786 266.739 68.7446 267.045 68.7981 267.341Z" fill="#455A64"/>
<path d="M127.3 333.211L155.663 316.779C156.317 316.4 156.861 315.856 157.24 315.201C157.618 314.546 157.818 313.803 157.82 313.047L127.055 330.797L127.3 333.211Z" fill="#263238"/>
<path d="M99.5325 301.069C99.5325 303.577 97.7832 304.568 95.6139 303.332C94.4734 302.588 93.5242 301.586 92.8434 300.406C92.1625 299.227 91.7692 297.904 91.6953 296.544C91.6953 294.048 93.4564 293.045 95.6139 294.282C96.7551 295.025 97.7048 296.027 98.3857 297.206C99.0666 298.386 99.4596 299.709 99.5325 301.069Z" fill="#37474F"/>
<path opacity="0.2" d="M151.836 265.534C151.836 265.534 162.554 268.449 168.245 260.402C168.245 260.402 164.56 270.793 151.836 265.534Z" fill="black"/>
</svg>
