<svg width="65" height="64" viewBox="0 0 65 64" fill="none" xmlns="http://www.w3.org/2000/svg">
<path d="M37.8333 24.8V32.5333H44.7667C45.3 32.5333 45.5667 33.0667 45.5667 33.6L44.5 38.6667C44.5 38.9333 43.9667 39.2 43.7 39.2H37.8333V58.6667H29.8333V39.4667H25.3C24.7667 39.4667 24.5 39.2 24.5 38.6667V33.6C24.5 33.0667 24.7667 32.8 25.3 32.8H29.8333V24C29.8333 19.4667 33.3 16 37.8333 16H45.0333C45.5667 16 45.8333 16.2667 45.8333 16.8V23.2C45.8333 23.7333 45.5667 24 45.0333 24H38.6333C38.1 24 37.8333 24.2667 37.8333 24.8Z" stroke="#2E2E2E" stroke-width="1.5" stroke-miterlimit="10" stroke-linecap="round"/>
<path d="M40.5026 58.6668H24.5026C11.1693 58.6668 5.83594 53.3335 5.83594 40.0002V24.0002C5.83594 10.6668 11.1693 5.3335 24.5026 5.3335H40.5026C53.8359 5.3335 59.1693 10.6668 59.1693 24.0002V40.0002C59.1693 53.3335 53.8359 58.6668 40.5026 58.6668Z" stroke="#2E2E2E" stroke-width="1.5" stroke-linecap="round" stroke-linejoin="round"/>
</svg>
