<svg width="451" height="448" viewBox="0 0 451 448" fill="none" xmlns="http://www.w3.org/2000/svg">
<path d="M308.595 287.752H448.992V282.408H308.595V287.752Z" stroke="#263238" stroke-width="0.240504" stroke-linecap="round" stroke-linejoin="round"/>
<path d="M315.106 432.314H442.477V287.908H315.106V432.314Z" stroke="#263238" stroke-width="0.240504" stroke-linecap="round" stroke-linejoin="round"/>
<path d="M319.698 325.962H438.055V294.632H319.698V325.962Z" stroke="#263238" stroke-width="0.240504" stroke-linecap="round" stroke-linejoin="round"/>
<path d="M373.152 313.174H384.984V307.401H373.152V313.174Z" fill="#263238" stroke="#263238" stroke-width="0.240504" stroke-linecap="round" stroke-linejoin="round"/>
<path d="M319.698 365.543H438.055V334.213H319.698V365.543Z" stroke="#263238" stroke-width="0.240504" stroke-linecap="round" stroke-linejoin="round"/>
<path d="M373.152 352.764H384.984V346.992H373.152V352.764Z" fill="#263238" stroke="#263238" stroke-width="0.240504" stroke-linecap="round" stroke-linejoin="round"/>
<path d="M319.698 405.299H438.055V373.969H319.698V405.299Z" stroke="#263238" stroke-width="0.240504" stroke-linecap="round" stroke-linejoin="round"/>
<path d="M373.152 392.52H384.984V386.748H373.152V392.52Z" fill="#263238" stroke="#263238" stroke-width="0.240504" stroke-linecap="round" stroke-linejoin="round"/>
<path d="M384.66 219.232C386.093 219.864 389.604 219.786 389.604 219.786C389.604 219.786 388.854 217.463 388.787 217.318C388.017 215.695 385.583 213.003 383.601 213.275C383.271 213.327 382.956 213.449 382.676 213.633C382.395 213.817 382.157 214.059 381.975 214.342C381.794 214.625 381.673 214.944 381.622 215.278C381.571 215.611 381.59 215.952 381.677 216.278C381.934 216.958 382.334 217.574 382.849 218.084C383.363 218.594 383.981 218.986 384.66 219.232Z" fill="#263238"/>
<path d="M420.13 220.009C420.13 220.009 420.765 217.658 420.785 217.502C421.035 215.714 420.467 212.119 418.668 211.234C418.364 211.097 418.034 211.025 417.701 211.025C417.368 211.025 417.038 211.097 416.734 211.234C416.429 211.372 416.157 211.573 415.935 211.824C415.713 212.075 415.546 212.371 415.445 212.692C415.285 213.4 415.279 214.136 415.427 214.847C415.574 215.558 415.873 216.229 416.302 216.812C417.158 218.114 420.121 220.009 420.13 220.009Z" fill="#263238"/>
<path d="M430.609 207.162C428.618 206.949 426.251 209.699 425.529 211.341C425.462 211.487 424.741 213.829 424.779 213.829C424.404 214.256 424 214.723 423.577 215.248C422.797 216.219 421.932 217.308 421.066 218.571C420.115 219.914 419.245 221.312 418.459 222.759C417.564 224.379 416.817 226.076 416.227 227.832C416.227 227.832 416.227 227.832 416.227 227.89C416.227 227.298 416.227 225.646 416.227 225.519C415.996 223.731 414.514 220.408 412.542 220.038C412.214 219.988 411.879 220.007 411.559 220.096C411.238 220.184 410.94 220.34 410.684 220.553C410.427 220.765 410.217 221.03 410.068 221.33C409.919 221.63 409.835 221.958 409.82 222.293C409.852 223.02 410.041 223.732 410.374 224.378C410.706 225.024 411.173 225.589 411.744 226.034C412.869 227.006 415.977 228.027 416.227 228.104C415.672 229.901 415.232 231.732 414.909 233.585C414.726 234.674 414.562 235.762 414.418 236.86C414.418 236.355 414.418 235.888 414.418 235.83C414.187 234.042 412.706 230.718 410.743 230.359C410.415 230.305 410.079 230.322 409.758 230.409C409.436 230.495 409.137 230.65 408.879 230.862C408.62 231.074 408.41 231.339 408.26 231.639C408.111 231.939 408.026 232.268 408.011 232.604C408.043 233.331 408.232 234.043 408.564 234.689C408.896 235.335 409.364 235.9 409.935 236.345C411.273 237.24 412.74 237.922 414.283 238.366C414.235 238.794 414.178 239.212 414.13 239.639C413.889 241.661 413.658 243.692 413.37 245.664C413.273 246.364 413.148 247.044 413.023 247.734C413.023 247.278 413.023 246.889 413.023 246.83C412.792 245.042 411.311 241.729 409.339 241.359C409.011 241.307 408.676 241.325 408.356 241.413C408.036 241.5 407.737 241.655 407.48 241.867C407.223 242.078 407.014 242.343 406.865 242.642C406.716 242.942 406.631 243.269 406.616 243.604C406.648 244.332 406.837 245.043 407.169 245.689C407.502 246.336 407.969 246.901 408.54 247.346C409.839 248.213 411.264 248.869 412.763 249.289C412.619 249.989 412.475 250.688 412.302 251.359C412.167 251.806 412.08 252.253 411.927 252.7C411.773 253.147 411.638 253.594 411.503 254.031C411.205 254.867 410.897 255.732 410.541 256.539C410.33 257.092 410.118 257.627 409.906 258.161C410.012 257.472 410.195 256.111 410.195 255.994C410.173 254.407 409.749 252.851 408.964 251.476C408.981 251.103 408.915 250.732 408.771 250.389C408.627 250.046 408.408 249.741 408.13 249.495C407.853 249.249 407.524 249.07 407.169 248.971C406.814 248.871 406.44 248.854 406.077 248.92C404.153 249.445 402.922 252.865 402.826 254.673C402.826 254.78 402.893 255.936 402.951 256.665C402.845 256.247 402.759 255.829 402.653 255.392C402.451 254.527 402.22 253.672 401.979 252.758C401.854 252.311 401.72 251.864 401.585 251.417C401.45 250.97 401.267 250.514 401.113 250.057C400.738 248.998 400.296 247.948 399.834 246.899C401.395 246.568 402.898 245.998 404.288 245.208C404.887 244.806 405.392 244.277 405.768 243.658C406.143 243.038 406.38 242.343 406.462 241.622C406.472 241.286 406.411 240.952 406.283 240.641C406.156 240.331 405.966 240.051 405.724 239.82C405.483 239.589 405.196 239.412 404.882 239.3C404.568 239.189 404.235 239.145 403.903 239.173C401.912 239.396 400.19 242.594 399.834 244.362C399.834 244.469 399.69 245.771 399.642 246.481C399.353 245.849 399.074 245.227 398.766 244.595C397.881 242.788 396.919 240.99 395.976 239.183C395.688 238.638 395.409 238.084 395.12 237.531C395.389 237.463 398.555 236.724 399.738 235.801C400.337 235.399 400.842 234.87 401.217 234.251C401.593 233.631 401.83 232.937 401.912 232.215C401.921 231.879 401.86 231.545 401.733 231.235C401.606 230.924 401.415 230.644 401.174 230.413C400.932 230.182 400.645 230.005 400.332 229.894C400.018 229.782 399.684 229.739 399.353 229.766C397.371 229.99 395.64 233.187 395.284 234.955C395.284 235.082 395.091 236.947 395.072 237.424C394.447 236.209 393.831 234.994 393.273 233.76C392.522 232.107 391.88 230.406 391.349 228.668C391.474 228.668 394.783 227.881 395.996 226.938C396.595 226.537 397.1 226.007 397.475 225.388C397.851 224.769 398.088 224.074 398.17 223.352C398.179 223.016 398.118 222.682 397.991 222.372C397.864 222.061 397.673 221.782 397.432 221.551C397.19 221.319 396.903 221.142 396.589 221.031C396.276 220.919 395.942 220.876 395.611 220.903C393.629 221.127 391.897 224.324 391.541 226.083C391.541 226.2 391.387 227.628 391.339 228.308H391.234C390.731 226.546 390.39 224.74 390.214 222.915C390.098 221.943 390.05 220.971 390.021 220C391.637 219.849 393.22 219.449 394.716 218.814C395.355 218.479 395.915 218.007 396.355 217.432C396.795 216.856 397.106 216.19 397.265 215.481C397.31 215.148 397.285 214.81 397.192 214.488C397.098 214.166 396.939 213.867 396.724 213.612C396.509 213.356 396.243 213.149 395.943 213.004C395.644 212.859 395.318 212.779 394.985 212.77C392.984 212.77 390.926 215.753 390.377 217.473C390.377 217.56 390.146 218.542 390.012 219.261C390.012 218.843 390.012 218.406 390.012 217.998C390.012 216.462 390.108 215.082 390.204 213.829C390.262 213.129 390.329 212.488 390.397 211.885C391.755 211.002 392.972 209.914 394.004 208.659C394.418 208.065 394.699 207.387 394.827 206.672C394.955 205.957 394.927 205.222 394.745 204.519C394.632 204.204 394.455 203.915 394.226 203.673C393.996 203.431 393.718 203.24 393.411 203.113C393.104 202.985 392.774 202.924 392.442 202.934C392.11 202.944 391.783 203.024 391.484 203.168C389.714 204.14 389.242 207.707 389.56 209.485C389.56 209.64 390.252 212.002 390.281 211.982C390.204 212.556 390.127 213.168 390.05 213.839C389.935 215.073 389.81 216.472 389.771 218.007C389.716 219.66 389.755 221.315 389.887 222.964C390.028 224.807 390.33 226.635 390.791 228.425V228.493C390.474 227.988 389.55 226.627 389.463 226.549C388.299 225.189 385.24 223.245 383.403 224.033C383.101 224.172 382.832 224.374 382.613 224.626C382.394 224.877 382.23 225.173 382.131 225.492C382.032 225.812 382.001 226.149 382.039 226.482C382.078 226.815 382.185 227.136 382.354 227.424C382.774 228.014 383.315 228.505 383.942 228.863C384.568 229.22 385.264 229.436 385.981 229.494C387.472 229.708 390.599 228.794 390.849 228.716C391.374 230.529 392.017 232.305 392.773 234.032C393.206 235.004 393.667 236.034 394.148 237.035L393.562 236.189C392.388 234.819 389.338 232.885 387.501 233.673C387.199 233.811 386.928 234.013 386.708 234.264C386.489 234.515 386.324 234.811 386.225 235.131C386.126 235.451 386.095 235.789 386.134 236.122C386.173 236.455 386.282 236.776 386.452 237.064C386.872 237.654 387.414 238.145 388.04 238.503C388.666 238.86 389.362 239.076 390.079 239.134C391.685 239.133 393.281 238.884 394.812 238.395C395.005 238.774 395.187 239.163 395.37 239.542C396.332 241.369 397.188 243.186 398.035 244.994C398.333 245.625 398.603 246.267 398.872 246.937C398.622 246.558 398.401 246.247 398.362 246.199C397.198 244.838 394.139 242.895 392.301 243.682C392 243.823 391.731 244.026 391.511 244.278C391.292 244.531 391.128 244.827 391.029 245.147C390.93 245.468 390.899 245.806 390.938 246.139C390.976 246.473 391.084 246.794 391.253 247.083C391.674 247.671 392.217 248.159 392.843 248.515C393.469 248.87 394.164 249.085 394.88 249.143C396.442 249.149 397.996 248.913 399.488 248.444C399.747 249.104 400.007 249.765 400.228 250.387C400.363 250.834 400.536 251.262 400.652 251.719L401.027 253.06C401.229 253.925 401.441 254.809 401.623 255.664C401.748 256.247 401.864 256.811 401.979 257.374C401.691 256.743 401.104 255.499 401.017 255.431C400.055 253.905 397.342 251.544 395.409 252.02C395.09 252.113 394.793 252.272 394.539 252.487C394.285 252.703 394.078 252.97 393.932 253.271C393.786 253.573 393.704 253.901 393.692 254.236C393.679 254.572 393.737 254.906 393.86 255.217C394.188 255.864 394.651 256.431 395.218 256.879C395.784 257.327 396.44 257.645 397.14 257.812C398.763 258.063 400.414 258.063 402.037 257.812C402.229 258.783 402.403 259.668 402.547 260.533C402.874 262.428 403.124 264.128 403.317 265.576H395.438V282.31H416.159V265.547H408.146C408.665 264.381 409.233 263.059 409.829 261.592C410.195 260.688 410.57 259.716 410.945 258.725C411.32 258.803 414.399 259.435 415.832 259.104C416.541 258.993 417.218 258.727 417.814 258.324C418.411 257.921 418.913 257.391 419.286 256.772C419.435 256.472 419.519 256.143 419.534 255.808C419.548 255.472 419.492 255.138 419.37 254.826C419.247 254.514 419.061 254.231 418.822 253.997C418.584 253.763 418.299 253.583 417.987 253.468C416.063 252.817 413.177 254.993 412.138 256.451C412.071 256.529 411.494 257.54 411.176 258.181C411.33 257.773 411.484 257.374 411.628 256.956C411.936 256.121 412.215 255.275 412.513 254.381C412.648 253.934 412.773 253.487 412.908 253.04C413.042 252.593 413.148 252.068 413.264 251.641C413.524 250.543 413.735 249.425 413.918 248.288C415.398 248.89 416.963 249.254 418.555 249.367C419.274 249.368 419.985 249.209 420.636 248.902C421.288 248.594 421.865 248.146 422.326 247.588C422.517 247.314 422.65 247.002 422.714 246.672C422.778 246.343 422.773 246.003 422.698 245.676C422.624 245.349 422.482 245.041 422.282 244.773C422.082 244.504 421.828 244.282 421.537 244.119C419.757 243.196 416.573 244.906 415.303 246.179C415.226 246.257 414.418 247.268 413.985 247.841C414.091 247.151 414.197 246.471 414.283 245.781C414.534 243.779 414.716 241.738 414.918 239.717C414.976 239.095 415.043 238.473 415.111 237.851C415.361 237.948 418.411 239.095 419.921 238.988C421.248 238.891 422.922 238.405 423.692 237.21C423.882 236.934 424.012 236.622 424.075 236.292C424.137 235.962 424.131 235.623 424.055 235.296C423.98 234.969 423.838 234.662 423.638 234.394C423.438 234.126 423.184 233.903 422.894 233.741C421.123 232.769 417.93 234.518 416.669 235.791C416.573 235.888 415.409 237.356 415.14 237.735C415.284 236.364 415.438 235.004 415.64 233.673C415.91 231.871 416.296 230.089 416.794 228.338C416.91 228.338 420.084 229.591 421.604 229.484C422.323 229.482 423.033 229.322 423.684 229.015C424.335 228.708 424.913 228.261 425.376 227.706C425.567 227.431 425.699 227.119 425.763 226.79C425.828 226.46 425.822 226.121 425.748 225.793C425.673 225.466 425.531 225.158 425.331 224.89C425.131 224.622 424.878 224.399 424.587 224.237C422.807 223.313 419.623 225.014 418.353 226.287C418.266 226.375 417.391 227.492 416.977 228.027H416.881C417.428 226.276 418.13 224.578 418.978 222.954C419.43 222.06 419.94 221.224 420.402 220.427C421.835 221.198 423.376 221.745 424.971 222.05C425.687 222.125 426.411 222.042 427.092 221.807C427.772 221.572 428.395 221.191 428.916 220.69C429.134 220.438 429.298 220.142 429.396 219.822C429.494 219.503 429.525 219.165 429.486 218.833C429.447 218.5 429.339 218.18 429.17 217.892C429 217.604 428.773 217.355 428.502 217.162C426.828 216.044 423.48 217.386 422.085 218.513C422.008 218.571 421.306 219.281 420.796 219.805C421.027 219.446 421.248 219.067 421.479 218.736C422.307 217.463 423.153 216.346 423.913 215.364C424.346 214.81 424.75 214.324 425.125 213.868C426.754 213.883 428.376 213.65 429.935 213.178C430.607 212.916 431.213 212.509 431.711 211.985C432.21 211.461 432.589 210.833 432.822 210.146C432.911 209.799 432.923 209.436 432.855 209.085C432.786 208.733 432.641 208.402 432.428 208.115C432.215 207.828 431.941 207.593 431.626 207.428C431.311 207.264 430.964 207.173 430.609 207.162ZM408.588 261.125C407.876 262.797 407.184 264.284 406.587 265.547H404.481C404.259 264.05 403.961 262.272 403.519 260.28C403.336 259.308 403.114 258.336 402.884 257.277C403.817 256.894 404.729 256.459 405.616 255.975C406.822 257.021 408.166 257.894 409.608 258.57C409.3 259.454 408.944 260.309 408.588 261.125Z" fill="#263238"/>
<path d="M13.7812 289.424L24.9406 397.418" stroke="#263238" stroke-width="0.481008" stroke-miterlimit="10"/>
<path d="M23.1383 376.748L18.0781 371.355" stroke="#263238" stroke-width="0.481008" stroke-miterlimit="10"/>
<path d="M19.6163 372.968C19.6039 372.143 19.4182 371.33 19.0716 370.583C18.725 369.836 18.2254 369.171 17.6057 368.634C16.307 367.468 9.46706 364.562 8.82251 366.992C8.12024 369.635 15.1141 374.824 19.6163 372.968Z" fill="#7E57C2" stroke="#263238" stroke-width="0.240504" stroke-miterlimit="10"/>
<path d="M19.6204 372.968L13.1172 368.877" stroke="#263238" stroke-width="0.120252" stroke-miterlimit="10"/>
<path d="M24.404 389.032L19.3438 383.638" stroke="#263238" stroke-width="0.481008" stroke-miterlimit="10"/>
<path d="M20.8898 385.251C20.8773 384.426 20.6916 383.613 20.345 382.866C19.9984 382.119 19.4988 381.455 18.8792 380.917C17.5804 379.751 10.7405 376.845 10.096 379.275C9.39368 381.918 16.3875 387.107 20.8898 385.251Z" fill="#7E57C2" stroke="#263238" stroke-width="0.240504" stroke-miterlimit="10"/>
<path d="M20.886 385.251L14.3828 381.16" stroke="#263238" stroke-width="0.120252" stroke-miterlimit="10"/>
<path d="M20.0368 346.779L14.9766 341.385" stroke="#263238" stroke-width="0.481008" stroke-miterlimit="10"/>
<path d="M16.5226 342.998C16.5101 342.173 16.3244 341.36 15.9778 340.613C15.6312 339.866 15.1316 339.202 14.512 338.664C13.2133 337.488 6.37331 334.593 5.72876 337.022C5.02649 339.665 12.0204 344.855 16.5226 342.998Z" fill="#7E57C2" stroke="#263238" stroke-width="0.240504" stroke-miterlimit="10"/>
<path d="M16.5189 342.998L10.0156 338.907" stroke="#263238" stroke-width="0.120252" stroke-miterlimit="10"/>
<path d="M21.3102 359.062L16.25 353.668" stroke="#263238" stroke-width="0.481008" stroke-miterlimit="10"/>
<path d="M17.788 355.282C17.7755 354.457 17.5898 353.644 17.2432 352.897C16.8966 352.149 16.397 351.485 15.7774 350.947C14.4786 349.772 7.6387 346.876 6.99415 349.305C6.29187 351.948 13.3242 357.138 17.788 355.282Z" fill="#7E57C2" stroke="#263238" stroke-width="0.240504" stroke-miterlimit="10"/>
<path d="M17.7923 355.282L11.2891 351.19" stroke="#263238" stroke-width="0.120252" stroke-miterlimit="10"/>
<path d="M17.9821 326.828L12.9219 321.425" stroke="#263238" stroke-width="0.481008" stroke-miterlimit="10"/>
<path d="M14.4601 323.048C14.4501 322.221 14.2646 321.407 13.9161 320.659C13.5676 319.911 13.0641 319.248 12.4399 318.714C11.1411 317.538 4.31081 314.642 3.66626 317.071C2.96399 319.715 9.95785 324.904 14.4601 323.048Z" fill="#7E57C2" stroke="#263238" stroke-width="0.240504" stroke-miterlimit="10"/>
<path d="M14.4642 323.048L7.96094 318.957" stroke="#263238" stroke-width="0.120252" stroke-miterlimit="10"/>
<path d="M15.9118 306.79L10.8516 301.387" stroke="#263238" stroke-width="0.481008" stroke-miterlimit="10"/>
<path d="M12.3638 303.009C12.3538 302.183 12.1683 301.368 11.8198 300.621C11.4712 299.873 10.9678 299.21 10.3435 298.675C9.04482 297.5 2.21451 294.594 1.56995 297.033C0.886923 299.676 7.88078 304.866 12.3638 303.009Z" fill="#7E57C2" stroke="#263238" stroke-width="0.240504" stroke-miterlimit="10"/>
<path d="M12.3957 303.01L5.88281 298.909" stroke="#263238" stroke-width="0.120252" stroke-miterlimit="10"/>
<path d="M22.2891 369.48L26.1275 363.144" stroke="#263238" stroke-width="0.481008" stroke-miterlimit="10"/>
<path d="M24.955 365.048C24.8015 364.24 24.819 363.408 25.0064 362.608C25.1937 361.807 25.5467 361.056 26.042 360.403C27.0714 358.984 33.161 354.718 34.2961 356.963C35.5275 359.431 29.7458 365.932 24.955 365.048Z" fill="#7E57C2" stroke="#263238" stroke-width="0.240504" stroke-miterlimit="10"/>
<path d="M24.9531 365.048L30.8118 359.392" stroke="#263238" stroke-width="0.120252" stroke-miterlimit="10"/>
<path d="M18.9453 337.158L22.7934 330.822" stroke="#263238" stroke-width="0.481008" stroke-miterlimit="10"/>
<path d="M21.6205 332.727C21.4656 331.917 21.4824 331.084 21.6698 330.281C21.8572 329.479 22.2109 328.726 22.7076 328.072C23.7369 326.653 29.8265 322.387 30.9617 324.632C32.1931 327.071 26.4113 333.611 21.6205 332.727Z" fill="#7E57C2" stroke="#263238" stroke-width="0.240504" stroke-miterlimit="10"/>
<path d="M21.6172 332.727L27.4759 327.071" stroke="#263238" stroke-width="0.120252" stroke-miterlimit="10"/>
<path d="M17.4844 322.96L21.3324 316.624" stroke="#263238" stroke-width="0.481008" stroke-miterlimit="10"/>
<path d="M20.1552 318.529C19.9976 317.719 20.0121 316.884 20.1979 316.08C20.3836 315.275 20.7363 314.52 21.2327 313.864C22.2716 312.445 28.3612 308.179 29.4868 310.424C30.7181 312.863 24.9364 319.403 20.1552 318.529Z" fill="#7E57C2" stroke="#263238" stroke-width="0.240504" stroke-miterlimit="10"/>
<path d="M20.1562 318.529L26.0149 312.873" stroke="#263238" stroke-width="0.120252" stroke-miterlimit="10"/>
<path d="M15.3281 302.135L19.1762 295.799" stroke="#263238" stroke-width="0.481008" stroke-miterlimit="10"/>
<path d="M17.997 297.704C17.8407 296.893 17.8568 296.057 18.0442 295.253C18.2316 294.449 18.5861 293.694 19.0841 293.039C20.1134 291.62 26.203 287.354 27.3382 289.599C28.5696 292.038 22.7878 298.578 17.997 297.704Z" fill="#7E57C2" stroke="#263238" stroke-width="0.240504" stroke-miterlimit="10"/>
<path d="M18 297.704L23.8587 292.048" stroke="#263238" stroke-width="0.120252" stroke-miterlimit="10"/>
<path d="M13.6845 288.821C13.5282 288.01 13.5443 287.175 13.7317 286.371C13.9191 285.567 14.2736 284.812 14.7716 284.157C15.8009 282.738 21.8905 278.472 23.0257 280.717C24.2571 283.156 18.4753 289.696 13.6845 288.821Z" fill="#7E57C2" stroke="#263238" stroke-width="0.240504" stroke-miterlimit="10"/>
<path d="M13.6797 288.821L19.5384 283.166" stroke="#263238" stroke-width="0.120252" stroke-miterlimit="10"/>
<path d="M14.0316 289.065C13.2187 289.142 12.3987 289.044 11.6259 288.778C10.8532 288.512 10.1451 288.083 9.54857 287.519C8.26909 286.334 4.73849 279.745 7.02809 278.861C9.5582 277.85 15.3976 284.351 14.0316 289.065Z" fill="#7E57C2" stroke="#263238" stroke-width="0.240504" stroke-miterlimit="10"/>
<path d="M14.0247 289.064L9.07031 282.583" stroke="#263238" stroke-width="0.120252" stroke-miterlimit="10"/>
<path d="M43.2092 304.292L32.1172 412.296" stroke="#263238" stroke-width="0.481008" stroke-miterlimit="10"/>
<path d="M34.5668 391.694L30.7188 385.368" stroke="#263238" stroke-width="0.481008" stroke-miterlimit="10"/>
<path d="M31.8914 387.263C32.0463 386.454 32.0294 385.62 31.8421 384.818C31.6547 384.015 31.301 383.262 30.8043 382.608C29.7653 381.189 23.6758 376.933 22.5406 379.168C21.3188 381.617 27.1006 388.147 31.8914 387.263Z" fill="#7E57C2" stroke="#263238" stroke-width="0.240504" stroke-miterlimit="10"/>
<path d="M31.891 387.263L26.3594 381.908" stroke="#263238" stroke-width="0.120252" stroke-miterlimit="10"/>
<path d="M37.6449 361.725L33.7969 355.389" stroke="#263238" stroke-width="0.481008" stroke-miterlimit="10"/>
<path d="M34.9701 357.293C35.1264 356.482 35.1103 355.647 34.9229 354.843C34.7355 354.039 34.3811 353.284 33.8831 352.628C32.8537 351.21 26.7545 346.944 25.629 349.188C24.3976 351.657 30.1793 358.177 34.9701 357.293Z" fill="#7E57C2" stroke="#263238" stroke-width="0.240504" stroke-miterlimit="10"/>
<path d="M34.9691 357.293L29.4375 351.929" stroke="#263238" stroke-width="0.120252" stroke-miterlimit="10"/>
<path d="M36.3871 374.008L32.5391 367.672" stroke="#263238" stroke-width="0.481008" stroke-miterlimit="10"/>
<path d="M33.7117 369.577C33.8666 368.767 33.8498 367.934 33.6624 367.132C33.475 366.329 33.1213 365.576 32.6246 364.922C31.5857 363.503 25.4961 359.237 24.3609 361.482C23.1392 363.921 28.9209 370.461 33.7117 369.577Z" fill="#7E57C2" stroke="#263238" stroke-width="0.240504" stroke-miterlimit="10"/>
<path d="M33.7113 369.577L28.1797 364.212" stroke="#263238" stroke-width="0.120252" stroke-miterlimit="10"/>
<path d="M39.6918 341.774L35.8438 335.438" stroke="#263238" stroke-width="0.481008" stroke-miterlimit="10"/>
<path d="M37.017 337.342C37.1733 336.531 37.1572 335.696 36.9698 334.892C36.7824 334.088 36.4279 333.333 35.9299 332.678C34.9006 331.269 28.8014 327.003 27.6758 329.247C26.4445 331.687 32.2262 338.227 37.017 337.342Z" fill="#7E57C2" stroke="#263238" stroke-width="0.240504" stroke-miterlimit="10"/>
<path d="M37.0238 337.343L31.4922 331.979" stroke="#263238" stroke-width="0.120252" stroke-miterlimit="10"/>
<path d="M41.7543 321.736L37.9062 315.4" stroke="#263238" stroke-width="0.481008" stroke-miterlimit="10"/>
<path d="M39.0795 317.304C39.2358 316.493 39.2197 315.658 39.0323 314.854C38.8449 314.05 38.4904 313.295 37.9924 312.64C36.9631 311.221 30.8639 306.965 29.7383 309.209C28.507 311.649 34.2887 318.179 39.0795 317.304Z" fill="#7E57C2" stroke="#263238" stroke-width="0.240504" stroke-miterlimit="10"/>
<path d="M39.0785 317.305L33.5469 311.94" stroke="#263238" stroke-width="0.120252" stroke-miterlimit="10"/>
<path d="M35.2109 384.406L40.2711 379.013" stroke="#263238" stroke-width="0.481008" stroke-miterlimit="10"/>
<path d="M38.7344 380.626C38.7468 379.801 38.9325 378.988 39.2791 378.241C39.6257 377.494 40.1254 376.829 40.745 376.292C42.0437 375.125 48.874 372.21 49.5282 374.64C50.2305 377.283 43.2366 382.482 38.7344 380.626Z" fill="#7E57C2" stroke="#263238" stroke-width="0.240504" stroke-miterlimit="10"/>
<path d="M38.7344 380.626L45.6224 376.311" stroke="#263238" stroke-width="0.120252" stroke-miterlimit="10"/>
<path d="M38.5312 352.084L43.5915 346.691" stroke="#263238" stroke-width="0.481008" stroke-miterlimit="10"/>
<path d="M42.0547 348.304C42.0731 347.475 42.2663 346.66 42.6213 345.913C42.9763 345.165 43.485 344.503 44.1134 343.97C45.4121 342.794 52.2424 339.889 52.8966 342.318C53.5508 344.961 46.5665 350.16 42.0547 348.304Z" fill="#7E57C2" stroke="#263238" stroke-width="0.240504" stroke-miterlimit="10"/>
<path d="M42.0547 348.304L48.9427 343.99" stroke="#263238" stroke-width="0.120252" stroke-miterlimit="10"/>
<path d="M39.9922 337.877L45.0524 332.483" stroke="#263238" stroke-width="0.481008" stroke-miterlimit="10"/>
<path d="M43.5156 334.097C43.5281 333.272 43.7138 332.459 44.0604 331.712C44.407 330.965 44.9066 330.3 45.5262 329.763C46.825 328.597 53.6553 325.681 54.2998 328.111C55.0117 330.764 48.0179 335.953 43.5156 334.097Z" fill="#7E57C2" stroke="#263238" stroke-width="0.240504" stroke-miterlimit="10"/>
<path d="M43.5156 334.097L50.4037 329.782" stroke="#263238" stroke-width="0.120252" stroke-miterlimit="10"/>
<path d="M42.1328 317.061L47.193 311.658" stroke="#263238" stroke-width="0.481008" stroke-miterlimit="10"/>
<path d="M45.6484 313.271C45.6555 312.44 45.8385 311.619 46.1853 310.865C46.5321 310.111 47.0346 309.44 47.6591 308.898C48.9578 307.732 55.7881 304.817 56.4423 307.256C57.1445 309.938 50.1603 315.127 45.6484 313.271Z" fill="#7E57C2" stroke="#263238" stroke-width="0.240504" stroke-miterlimit="10"/>
<path d="M45.6484 313.272L52.5365 308.957" stroke="#263238" stroke-width="0.120252" stroke-miterlimit="10"/>
<path d="M43.2344 303.69C43.2468 302.865 43.4325 302.052 43.7791 301.305C44.1257 300.558 44.6254 299.893 45.245 299.356C46.5437 298.18 53.374 295.274 54.0282 297.704C54.692 300.347 47.7462 305.546 43.2344 303.69Z" fill="#7E57C2" stroke="#263238" stroke-width="0.240504" stroke-miterlimit="10"/>
<path d="M43.2344 303.69L50.1224 299.375" stroke="#263238" stroke-width="0.120252" stroke-miterlimit="10"/>
<path d="M43.5185 304.04C42.7064 303.945 41.9238 303.676 41.2234 303.251C40.5231 302.825 39.9213 302.252 39.4588 301.571C38.439 300.143 36.2937 292.981 38.7565 292.582C41.4309 292.096 45.8177 299.667 43.5185 304.04Z" fill="#7E57C2" stroke="#263238" stroke-width="0.240504" stroke-miterlimit="10"/>
<path d="M43.5228 303.991L39.9922 296.625" stroke="#263238" stroke-width="0.120252" stroke-miterlimit="10"/>
<path d="M30.4844 260.31V396.893" stroke="#263238" stroke-width="0.481008" stroke-miterlimit="10"/>
<path d="M30.608 376.36L26.125 370.461" stroke="#263238" stroke-width="0.481008" stroke-miterlimit="10"/>
<path d="M27.4846 372.229C27.5575 371.406 27.4562 370.577 27.1875 369.796C26.9188 369.015 26.4889 368.301 25.9262 367.701C24.7525 366.408 18.23 362.842 17.3642 365.155C16.3926 367.701 22.8092 373.6 27.4846 372.229Z" fill="#7E57C2" stroke="#263238" stroke-width="0.240504" stroke-miterlimit="10"/>
<path d="M27.4886 372.23L21.4375 367.478" stroke="#263238" stroke-width="0.120252" stroke-miterlimit="10"/>
<path d="M30.608 350.685L26.125 344.796" stroke="#263238" stroke-width="0.481008" stroke-miterlimit="10"/>
<path d="M27.4846 346.565C27.5575 345.741 27.4562 344.912 27.1875 344.131C26.9188 343.35 26.4889 342.636 25.9262 342.036C24.7525 340.734 18.23 337.129 17.3642 339.48C16.3926 342.036 22.8092 347.935 27.4846 346.565Z" fill="#7E57C2" stroke="#263238" stroke-width="0.240504" stroke-miterlimit="10"/>
<path d="M27.4886 346.565L21.4375 341.803" stroke="#263238" stroke-width="0.120252" stroke-miterlimit="10"/>
<path d="M30.608 320.56L26.125 314.661" stroke="#263238" stroke-width="0.481008" stroke-miterlimit="10"/>
<path d="M27.4846 316.43C27.5575 315.607 27.4562 314.777 27.1875 313.996C26.9188 313.216 26.4889 312.501 25.9262 311.901C24.7525 310.599 18.23 307.042 17.3642 309.346C16.3926 311.901 22.8092 317.8 27.4846 316.43Z" fill="#7E57C2" stroke="#263238" stroke-width="0.240504" stroke-miterlimit="10"/>
<path d="M27.4886 316.43L21.4375 311.668" stroke="#263238" stroke-width="0.120252" stroke-miterlimit="10"/>
<path d="M30.608 300.492L26.125 294.594" stroke="#263238" stroke-width="0.481008" stroke-miterlimit="10"/>
<path d="M27.4846 296.363C27.5561 295.541 27.4541 294.713 27.1855 293.934C26.9168 293.155 26.4876 292.443 25.9262 291.844C24.7525 290.542 18.23 286.936 17.3642 289.288C16.3926 291.844 22.8092 297.742 27.4846 296.363Z" fill="#7E57C2" stroke="#263238" stroke-width="0.240504" stroke-miterlimit="10"/>
<path d="M27.4886 296.362L21.4375 291.61" stroke="#263238" stroke-width="0.120252" stroke-miterlimit="10"/>
<path d="M30.608 280.347L26.125 274.449" stroke="#263238" stroke-width="0.481008" stroke-miterlimit="10"/>
<path d="M27.4846 276.218C27.5561 275.396 27.4541 274.568 27.1855 273.789C26.9168 273.01 26.4876 272.298 25.9262 271.699C24.7525 270.397 18.23 266.791 17.3642 269.143C16.3926 271.699 22.8092 277.597 27.4846 276.218Z" fill="#7E57C2" stroke="#263238" stroke-width="0.240504" stroke-miterlimit="10"/>
<path d="M27.4886 276.217L21.4375 271.465" stroke="#263238" stroke-width="0.120252" stroke-miterlimit="10"/>
<path d="M30.5 384.192L34.983 378.293" stroke="#263238" stroke-width="0.481008" stroke-miterlimit="10"/>
<path d="M33.6159 380.062C33.5444 379.241 33.6464 378.413 33.9151 377.634C34.1837 376.855 34.6129 376.142 35.1743 375.543C36.348 374.241 42.8705 370.636 43.7363 372.988C44.7079 375.543 38.3394 381.442 33.6159 380.062Z" fill="#7E57C2" stroke="#263238" stroke-width="0.240504" stroke-miterlimit="10"/>
<path d="M33.6172 380.062L40.0242 375.057" stroke="#263238" stroke-width="0.120252" stroke-miterlimit="10"/>
<path d="M30.5 343.368L34.983 337.479" stroke="#263238" stroke-width="0.481008" stroke-miterlimit="10"/>
<path d="M33.6167 339.247C33.5438 338.424 33.6451 337.594 33.9138 336.814C34.1825 336.033 34.6124 335.319 35.1751 334.719C36.3488 333.417 42.8713 329.86 43.7371 332.163C44.7087 334.719 38.3402 340.617 33.6167 339.247Z" fill="#7E57C2" stroke="#263238" stroke-width="0.240504" stroke-miterlimit="10"/>
<path d="M33.6172 339.247L40.0242 334.233" stroke="#263238" stroke-width="0.120252" stroke-miterlimit="10"/>
<path d="M30.5 323.222L34.983 317.324" stroke="#263238" stroke-width="0.481008" stroke-miterlimit="10"/>
<path d="M33.6159 319.093C33.5444 318.271 33.6464 317.443 33.9151 316.664C34.1837 315.885 34.6129 315.173 35.1743 314.574C36.348 313.272 42.8705 309.715 43.7363 312.018C44.7079 314.574 38.3394 320.472 33.6159 319.093Z" fill="#7E57C2" stroke="#263238" stroke-width="0.240504" stroke-miterlimit="10"/>
<path d="M33.6172 319.093L40.0242 314.088" stroke="#263238" stroke-width="0.120252" stroke-miterlimit="10"/>
<path d="M30.5 296.596L34.983 290.697" stroke="#263238" stroke-width="0.481008" stroke-miterlimit="10"/>
<path d="M33.6159 292.466C33.5444 291.644 33.6464 290.816 33.9151 290.037C34.1837 289.258 34.6129 288.546 35.1743 287.947C36.348 286.645 42.8705 283.039 43.7363 285.391C44.7079 287.947 38.3394 293.846 33.6159 292.466Z" fill="#7E57C2" stroke="#263238" stroke-width="0.240504" stroke-miterlimit="10"/>
<path d="M33.6172 292.466L40.0242 287.451" stroke="#263238" stroke-width="0.120252" stroke-miterlimit="10"/>
<path d="M30.5 275.654L34.983 269.755" stroke="#263238" stroke-width="0.481008" stroke-miterlimit="10"/>
<path d="M33.6167 271.533C33.5438 270.71 33.6451 269.881 33.9138 269.1C34.1825 268.319 34.6124 267.605 35.1751 267.005C36.3488 265.703 42.8713 262.097 43.7371 264.449C44.7087 267.005 38.3402 272.942 33.6167 271.533Z" fill="#7E57C2" stroke="#263238" stroke-width="0.240504" stroke-miterlimit="10"/>
<path d="M33.6172 271.533L40.0242 266.519" stroke="#263238" stroke-width="0.120252" stroke-miterlimit="10"/>
<path d="M30.2364 262.253C30.1593 261.432 30.2577 260.603 30.5249 259.824C30.7921 259.044 31.2219 258.332 31.7852 257.734C32.9589 256.432 39.4814 252.875 40.3568 255.179C41.3285 257.725 34.9022 263.623 30.2364 262.253Z" fill="#7E57C2" stroke="#263238" stroke-width="0.240504" stroke-miterlimit="10"/>
<path d="M30.2422 262.243L36.6492 257.229" stroke="#263238" stroke-width="0.120252" stroke-miterlimit="10"/>
<path d="M30.5435 262.525C29.7261 262.511 28.9208 262.322 28.1812 261.97C27.4415 261.619 26.7842 261.112 26.2529 260.484C25.0985 259.172 22.2317 252.263 24.6367 251.612C27.2534 250.903 32.3906 257.977 30.5435 262.525Z" fill="#7E57C2" stroke="#263238" stroke-width="0.240504" stroke-miterlimit="10"/>
<path d="M30.543 262.525L26.2812 255.558" stroke="#263238" stroke-width="0.120252" stroke-miterlimit="10"/>
<path d="M36.0591 432.315H21.7347L19.9453 395.786H37.8484L36.0591 432.315Z" fill="#263238" stroke="#263238" stroke-width="0.240504" stroke-miterlimit="10"/>
<path d="M97.0938 152.616H11.0703V14.2832H117.575V152.616H102.683" stroke="#263238" stroke-width="0.240504" stroke-miterlimit="10"/>
<path d="M113.717 19.2974H14.9375V147.602H113.717V19.2974Z" stroke="#263238" stroke-width="0.240504" stroke-miterlimit="10"/>
<path d="M34.7266 54.437C36.4747 56.0711 38.3432 57.5687 40.3159 58.9169C62.6635 74.2322 100.567 66.9827 113.333 88.7409" stroke="#263238" stroke-width="0.240504" stroke-miterlimit="10"/>
<path d="M21.5654 19.8223C21.0301 25.5537 21.6751 31.335 23.4599 36.8022C25.2447 42.2695 28.1306 47.3043 31.9359 51.5898" stroke="#263238" stroke-width="0.240504" stroke-miterlimit="10"/>
<path d="M30.0312 90.5001C40.9309 84.6694 55.0437 80.5588 62.2684 92.3659C70.6476 106.078 31.936 130.265 31.936 147.583" stroke="#263238" stroke-width="0.240504" stroke-miterlimit="10"/>
<path d="M15.1875 100.432C18.9193 97.3858 22.875 94.6309 27.0203 92.1909" stroke="#263238" stroke-width="0.240504" stroke-miterlimit="10"/>
<path d="M66.6562 19.8223C66.6562 19.8223 81.0192 42.3967 113.737 36.3425" stroke="#263238" stroke-width="0.240504" stroke-miterlimit="10"/>
<path d="M70.9475 41.9886C71.0136 42.5237 71.0458 43.0625 71.0437 43.6018C71.039 46.8456 69.8594 49.9755 67.7276 52.4013C65.5957 54.8271 62.6589 56.3812 59.4709 56.7704C56.2829 57.1596 53.0641 56.3571 50.4215 54.5141C47.7789 52.6712 45.8952 49.9153 45.1255 46.7661C44.3559 43.6168 44.7535 40.292 46.2434 37.4185C47.7334 34.545 50.2126 32.3215 53.2136 31.1673C56.2147 30.013 59.5301 30.0079 62.5346 31.1528C65.5391 32.2977 68.0251 34.5135 69.5237 37.3824" stroke="#263238" stroke-width="0.240504" stroke-miterlimit="10"/>
<path d="M103.754 61.5409C103.749 62.7759 103.381 63.9815 102.697 65.0054C102.014 66.0294 101.045 66.8257 99.9135 67.2939C98.7822 67.7621 97.5389 67.8811 96.3406 67.6359C95.1423 67.3908 94.0428 66.7924 93.181 65.9164C92.3192 65.0404 91.7337 63.9261 91.4984 62.7141C91.2632 61.5022 91.3887 60.247 91.8592 59.1071C92.3297 57.9672 93.124 56.9937 94.1419 56.3096C95.1598 55.6254 96.3555 55.2613 97.5781 55.2632C98.3924 55.2632 99.1987 55.4258 99.9506 55.7418C100.702 56.0577 101.385 56.5208 101.959 57.1042C102.533 57.6877 102.987 58.38 103.295 59.1415C103.603 59.9029 103.759 60.7183 103.754 61.5409V61.5409Z" stroke="#263238" stroke-width="0.240504" stroke-miterlimit="10"/>
<path d="M103.836 103.687C107.32 104.603 110.57 106.259 113.37 108.546" stroke="#263238" stroke-width="0.240504" stroke-miterlimit="10"/>
<path d="M80.1423 147.679C76.353 144.169 73.7012 139.585 72.5339 134.527C71.3666 129.469 71.7382 124.173 73.6001 119.332C75.462 114.49 78.7275 110.33 82.969 107.395C87.2105 104.459 92.2306 102.886 97.372 102.88C97.8723 102.88 98.334 102.88 98.8439 102.88" stroke="#263238" stroke-width="0.240504" stroke-miterlimit="10"/>
<path d="M296.156 432.314H449.117" stroke="#263238" stroke-width="0.240504" stroke-miterlimit="10"/>
<path d="M1.78125 432.314H288.462" stroke="#263238" stroke-width="0.240504" stroke-miterlimit="10"/>
<path d="M366.89 22.7085H172.727V386.048H366.89V22.7085Z" fill="white"/>
<path d="M366.89 324.087H172.727V386.048H366.89V324.087Z" fill="#DEDEDE"/>
<path d="M372.724 94.1926C373.359 94.1926 373.969 93.9377 374.418 93.4839C374.867 93.0301 375.119 92.4147 375.119 91.7729V67.5464C375.119 66.9047 374.867 66.2892 374.418 65.8354C373.969 65.3816 373.359 65.1267 372.724 65.1267C372.574 65.1119 372.422 65.1119 372.272 65.1267V19.8514C372.272 15.7096 370.643 11.7375 367.744 8.80884C364.845 5.88017 360.912 4.23487 356.812 4.23487H186.391C184.36 4.23359 182.349 4.63658 180.472 5.42081C178.595 6.20505 176.89 7.35515 175.453 8.8054C174.017 10.2557 172.877 11.9776 172.1 13.873C171.322 15.7683 170.922 17.7998 170.922 19.8514V385.523C170.922 389.667 172.552 393.642 175.453 396.572C178.354 399.503 182.288 401.149 186.391 401.149H356.812C360.913 401.147 364.846 399.499 367.745 396.569C370.643 393.639 372.272 389.666 372.272 385.523V163.063C372.422 163.078 372.574 163.078 372.724 163.063C373.36 163.06 373.97 162.803 374.419 162.348C374.867 161.892 375.12 161.276 375.119 160.633V136.455C375.119 135.814 374.867 135.198 374.418 134.744C373.969 134.291 373.359 134.036 372.724 134.036C372.572 134.037 372.421 134.053 372.272 134.084V128.603C372.421 128.634 372.572 128.651 372.724 128.652C373.359 128.649 373.966 128.394 374.415 127.94C374.864 127.487 375.117 126.873 375.119 126.232V101.996C375.117 101.355 374.864 100.741 374.415 100.288C373.966 99.8346 373.359 99.5789 372.724 99.5763C372.572 99.5776 372.421 99.5938 372.272 99.6249V94.1343C372.42 94.1687 372.572 94.1882 372.724 94.1926ZM363.316 377.593H179.878V31.1824H363.316V377.593Z" fill="#263238"/>
<path d="M357.069 34.7778H341.859V43.2032H357.069V34.7778Z" stroke="#263238" stroke-width="0.19747" stroke-linecap="round" stroke-linejoin="round"/>
<path d="M353.721 34.7778H341.859V43.2032H353.721V34.7778Z" fill="#263238" stroke="#263238" stroke-width="0.174383" stroke-linecap="round" stroke-linejoin="round"/>
<path d="M359.192 37.1392H357.047V40.8514H359.192V37.1392Z" fill="#263238" stroke="#263238" stroke-width="0.174383" stroke-linecap="round" stroke-linejoin="round"/>
<path d="M186.798 37.3921H184.008V42.2218H186.798V37.3921Z" fill="#263238" stroke="#263238" stroke-width="0.212386" stroke-linecap="round" stroke-linejoin="round"/>
<path d="M191.18 35.7012H188.391V42.2218H191.18V35.7012Z" fill="#263238" stroke="#263238" stroke-width="0.212386" stroke-linecap="round" stroke-linejoin="round"/>
<path d="M195.563 33.6895H192.773V42.2217H195.563V33.6895Z" fill="#263238" stroke="#263238" stroke-width="0.212386" stroke-linecap="round" stroke-linejoin="round"/>
<path d="M358.983 47.8872H182.828V94.6493H358.983V47.8872Z" fill="#7E57C2"/>
<path d="M227.352 54.6216V88.9546" stroke="white" stroke-width="0.240504" stroke-miterlimit="10"/>
<path d="M272.242 54.6216V88.9546" stroke="white" stroke-width="0.240504" stroke-miterlimit="10"/>
<path d="M317.141 54.6216V88.9546" stroke="white" stroke-width="0.240504" stroke-miterlimit="10"/>
<path opacity="0.15" d="M370.684 163.063C370.834 163.078 370.985 163.078 371.136 163.063C371.772 163.06 372.381 162.803 372.83 162.348C373.279 161.893 373.531 161.276 373.531 160.634V151.956L361.727 172.975V377.593H246.891L233.625 401.149H355.214C359.317 401.149 363.252 399.503 366.153 396.573C369.054 393.642 370.684 389.668 370.684 385.523V163.063Z" fill="white"/>
<path d="M264.151 255.868V244.761H269.644V239.173H264.17C264.17 237.317 264.17 235.451 264.17 233.595H275.185V228.046H280.688V233.566H286.21V222.41H302.757V227.959H308.231V222.41H302.737V216.812H291.703V205.753H275.147V211.312H264.17V222.458H269.634V228.017H264.141V233.585H258.639V228.007H242.102V222.458H258.639V177.873H264.17C264.17 183.237 264.17 188.602 264.17 193.966V194.568H269.683V183.461H275.176V194.588H280.717V200.137H308.288V205.695H313.81V211.302H308.317V216.89H313.791V228.046H319.323V239.183H313.849V250.3H319.246V255.868H330.261V261.427H313.791V272.554H308.288V266.995H297.225V261.427H291.722V255.868H302.699V250.3H275.195V255.839H264.151V255.868ZM297.225 239.154V233.614H291.751V239.144H297.244V244.693H308.231V239.154H297.225ZM286.181 239.154H280.765V244.664H286.22L286.181 239.154ZM297.254 211.234H302.709V205.715H297.254V211.234Z" fill="#263238"/>
<path d="M214.523 194.549V155.6H253.071V194.549H214.523ZM220.055 161.187V188.99H247.569V161.187H220.055Z" fill="#263238"/>
<path d="M330.29 194.558H291.742V155.619H330.29V194.558ZM324.787 161.187H297.274V188.98H324.787V161.187Z" fill="#263238"/>
<path d="M214.531 233.595H253.089V272.544H214.531V233.595ZM247.577 239.182H220.053V266.985H247.577V239.182Z" fill="#263238"/>
<path d="M264.143 177.873V166.727H258.641V155.609H286.164V166.707H280.767V172.285H286.222V183.402H280.729V177.873H275.187V172.314H269.685V177.853H264.134L264.143 177.873ZM269.675 166.688H275.139V161.187H269.675V166.688Z" fill="#263238"/>
<path d="M242.072 205.714V211.283H253.087V216.841H236.569V227.978H214.539V216.9H219.994V222.41H231.057V205.714H242.082H242.072Z" fill="#263238"/>
<path d="M264.134 255.858V261.427H269.646V266.985H275.139V272.554H258.641V255.868H264.115L264.134 255.858Z" fill="#263238"/>
<path d="M231.057 205.714H220.032V211.263H214.539V200.185H231.038V205.724L231.057 205.714Z" fill="#263238"/>
<path d="M330.287 216.841H324.823V205.734H319.32V200.175H330.287V216.841Z" fill="#263238"/>
<path d="M242.08 205.734V200.185H253.076V205.714H242.07L242.08 205.734Z" fill="#263238"/>
<path d="M319.3 228.017V222.468H324.774V227.997H319.242L319.3 228.017Z" fill="#263238"/>
<path d="M324.836 233.604H330.291V239.124H324.836V233.604Z" fill="#263238"/>
<path d="M280.689 194.587V189.039H286.173V194.568H280.68L280.689 194.587Z" fill="#263238"/>
<path d="M264.153 244.761H258.641V239.202H264.115V244.761H264.153Z" fill="#263238"/>
<path d="M319.305 250.3V244.761H324.779V250.29H319.305V250.3Z" fill="#263238"/>
<path d="M313.773 211.302H319.247V216.861H313.773V211.273V211.302Z" fill="#263238"/>
<path d="M286.175 266.985H280.711V261.475H286.175V266.985Z" fill="#263238"/>
<path d="M297.224 266.995V272.544H291.75V267.015H297.243L297.224 266.995Z" fill="#263238"/>
<path d="M330.291 272.563H324.836V267.043H330.291V272.563Z" fill="#263238"/>
<path d="M286.211 222.41H280.766V216.88H286.249V222.41H286.211Z" fill="#263238"/>
<path d="M242.044 183.412H225.555V166.756H242.044V183.412Z" fill="#263238"/>
<path d="M302.766 183.402V166.746H319.245V183.402H302.766Z" fill="#263238"/>
<path d="M225.555 261.407V244.761H242.044V261.417L225.555 261.407Z" fill="#263238"/>
<path d="M230.537 142.403H206.391V169.311" stroke="#7E57C2" stroke-width="0.481008" stroke-miterlimit="10"/>
<path d="M318.352 142.403H342.489V169.311" stroke="#7E57C2" stroke-width="0.481008" stroke-miterlimit="10"/>
<path d="M230.537 284.108H206.391V257.199" stroke="#7E57C2" stroke-width="0.481008" stroke-miterlimit="10"/>
<path d="M318.352 284.108H342.489V257.199" stroke="#7E57C2" stroke-width="0.481008" stroke-miterlimit="10"/>
<path d="M157.067 148.233H149.053C147.634 148.233 146.484 149.395 146.484 150.828V173.5C146.484 174.933 147.634 176.094 149.053 176.094H157.067C158.485 176.094 159.635 174.933 159.635 173.5V150.828C159.635 149.395 158.485 148.233 157.067 148.233Z" fill="#263238" stroke="#263238" stroke-width="0.240504" stroke-miterlimit="10"/>
<path d="M158.463 150.692H147.641V173.626H158.463V150.692Z" fill="white" stroke="#263238" stroke-width="0.240504" stroke-miterlimit="10"/>
<path d="M41.8594 284.768C45.7192 284.747 49.4968 283.64 52.7686 281.571C52.557 287.771 52.3935 292.465 52.3935 292.465C52.3935 292.465 53.4517 294.331 53.9808 295.137C54.5099 295.944 59.0025 298.607 59.5316 301.017C60.0607 303.427 62.4177 304.758 62.1772 308.227C61.9367 311.696 59.0025 307.955 59.5316 308.762C60.0607 309.568 61.6481 312.231 61.6481 314.641C61.6481 317.051 56.6263 317.041 54.7696 315.438C52.9129 313.834 46.8426 310.093 46.3135 306.624L44.2452 298.85L41.8594 284.768Z" fill="white" stroke="#263238" stroke-width="0.240504" stroke-miterlimit="10"/>
<path d="M52.8438 304.039L54.1328 309.87C54.1328 309.87 58.2984 313.106 58.6158 315.38" fill="white"/>
<path d="M52.8438 304.039L54.1328 309.87C54.1328 309.87 58.2984 313.106 58.6158 315.38" stroke="#263238" stroke-width="0.240504" stroke-miterlimit="10"/>
<path d="M59.5226 308.762L57.6562 305.011" stroke="#263238" stroke-width="0.240504" stroke-miterlimit="10"/>
<path d="M73.6349 427.232C73.6349 427.232 72.1246 439.739 73.2982 441.264C73.96 442.225 74.8027 443.045 75.7782 443.677C76.7538 444.309 77.843 444.741 78.9837 444.947C81.6582 445.288 86.1796 443.762 86.1796 443.762C89.231 444.589 92.4014 444.875 95.5497 444.607C100.36 444.102 103.573 442.246 103.91 439.875C104.246 437.504 100.062 436.503 97.7238 433.966C95.3861 431.43 91.6535 426.94 91.6535 426.94L90.6915 423.656C90.6915 423.656 85.006 426.571 81.3311 426.697C79.2527 426.823 77.1672 426.653 75.1357 426.192L73.6349 427.232Z" fill="white" stroke="#263238" stroke-width="0.240504" stroke-miterlimit="10"/>
<path d="M103.908 439.904C103.946 439.626 103.92 439.343 103.831 439.078C102.725 439.544 101.311 440.108 99.5599 440.749C94.5382 442.615 92.0273 441.089 89.5261 441.089C87.0248 441.089 86.8421 443.791 79.8193 441.935C75.2305 440.72 73.5085 439.155 72.8543 438.203C72.7622 439.244 72.9138 440.293 73.2969 441.264C73.9586 442.225 74.8013 443.045 75.7769 443.677C76.7524 444.309 77.8417 444.741 78.9824 444.947C81.6568 445.287 86.1783 443.762 86.1783 443.762C89.2297 444.589 92.4001 444.875 95.5483 444.607C100.397 444.131 103.572 442.275 103.908 439.904Z" fill="white" stroke="#263238" stroke-width="0.240504" stroke-miterlimit="10"/>
<path d="M64.7153 271.97C64.7153 271.97 57.9811 294.807 60.3862 310.842C62.7912 326.876 74.3354 357.001 74.3354 357.001C74.3354 357.001 72.8924 368.177 72.8924 372.064C72.8924 375.951 69.5253 383.239 71.9304 391.014C74.3354 398.788 74.3354 419.195 74.3354 420.653C74.3354 422.111 73.3734 429.885 73.3734 429.885C73.3734 429.885 75.2974 432.8 82.5126 432.8C89.7277 432.8 91.6517 426.97 91.6517 426.97C91.6517 426.97 98.8668 383.725 98.8668 376.923C98.8668 370.12 106.563 344.854 109.449 334.65C111.379 327.626 114.175 320.874 117.77 314.554C119.695 311.153 118.588 270.027 118.588 270.027L63.7532 265.168L64.7153 271.97Z" fill="#737373" stroke="#263238" stroke-width="0.240504" stroke-miterlimit="10"/>
<path d="M102.569 430.448C102.569 430.448 109.765 433.315 113.276 435.006C116.788 436.697 119.126 436.862 119.126 439.573C119.126 442.285 112.776 444.976 108.928 445.657C105.08 446.337 98.8847 446.162 98.2209 446.327C97.5572 446.492 85.0028 448.358 83.5021 445.142C82.0013 441.925 83.6656 430.954 83.6656 430.954C89.9389 432.036 96.3614 431.864 102.569 430.448Z" fill="white" stroke="#263238" stroke-width="0.240504" stroke-miterlimit="10"/>
<path d="M98.2233 446.327C98.8871 446.162 105.082 446.327 108.931 445.657C112.779 444.986 119.128 442.275 119.128 439.573C119.13 439.218 119.078 438.864 118.974 438.524C117.35 439.481 115.67 440.338 113.943 441.089C109.258 443.12 103.072 444.471 93.7403 444.306C90.1245 444.298 86.524 443.831 83.0234 442.916C83.077 443.682 83.2524 444.433 83.5429 445.142C85.0052 448.358 97.5499 446.502 98.2233 446.327Z" fill="white" stroke="#263238" stroke-width="0.240504" stroke-miterlimit="10"/>
<path d="M119.071 273.914C119.071 273.914 121.957 313.271 116.185 342.911C110.413 372.55 100.793 412.879 100.312 414.822C99.8306 416.766 103.679 422.111 103.679 422.111V429.885C103.679 429.885 100.312 433.286 92.6155 434.258C84.9193 435.23 82.5143 432.8 82.5143 432.8C82.5143 432.8 80.5903 419.681 80.5903 410.449C80.5903 401.217 82.5143 369.635 82.5143 369.635C82.5143 369.635 86.8434 337.566 86.3624 332.707C85.8813 327.848 84.4383 312.785 84.4383 312.785L76.7422 303.553" fill="#737373"/>
<path d="M119.071 273.914C119.071 273.914 121.957 313.271 116.185 342.911C110.413 372.55 100.793 412.879 100.312 414.822C99.8306 416.766 103.679 422.111 103.679 422.111V429.885C103.679 429.885 100.312 433.286 92.6155 434.258C84.9193 435.23 82.5143 432.8 82.5143 432.8C82.5143 432.8 80.5903 419.681 80.5903 410.449C80.5903 401.217 82.5143 369.635 82.5143 369.635C82.5143 369.635 86.8434 337.566 86.3624 332.707C85.8813 327.848 84.4383 312.785 84.4383 312.785L76.7422 303.553" stroke="#263238" stroke-width="0.240504" stroke-miterlimit="10"/>
<path d="M38.2127 266.509L53.3452 263.827C53.2779 265.897 53.7108 252.817 53.7108 251.845C53.7108 249.707 58.7325 236.296 58.7325 236.296C58.7325 236.296 62.696 253.672 62.696 255.81C62.696 257.948 61.1087 274.274 63.2251 276.382C65.3415 278.491 72.7491 282.796 89.1515 282.262C105.554 281.727 117.723 280.386 120.898 277.179C124.073 273.972 120.369 264.089 120.1 262.758C119.83 261.427 124.332 226.413 124.332 226.413C124.332 226.413 142.053 245.12 152.635 242.448C163.217 239.775 158.195 198.115 158.195 198.115L158.724 186.094C158.724 186.094 162.159 177.28 162.159 175.939C162.159 174.598 158.724 164.987 158.724 164.987C158.724 164.987 156.608 163.112 155.28 167.66C154.536 170.102 154.005 172.606 153.693 175.142C153.693 175.142 150.518 177.543 150.807 181.022C150.966 183.12 151.409 185.187 152.125 187.163L144.968 210.748C144.968 210.748 137.031 201.662 136.502 200.059C135.973 198.455 136.233 192.576 129.623 189.097C123.014 185.618 109.517 185.356 109.517 185.356L72.22 185.628C72.22 185.628 54.7594 187.183 50.844 190.652C46.9285 194.121 34.7109 238.221 34.7109 244.897C34.7109 246.986 35.7884 253.458 37.2988 261.466L38.2127 266.509Z" fill="white" stroke="#263238" stroke-width="0.240504" stroke-miterlimit="10"/>
<path d="M158.724 165.006C158.724 165.006 157.925 171.682 158.455 173.024C159.213 175.347 159.395 177.823 158.984 180.234" stroke="#263238" stroke-width="0.240504" stroke-miterlimit="10"/>
<path d="M152.635 242.496C163.217 239.824 158.195 198.134 158.195 198.134L158.311 195.443C157.155 194.557 155.814 193.949 154.39 193.665C152.967 193.38 151.498 193.426 150.095 193.8L144.968 210.748C144.968 210.748 137.031 201.662 136.502 200.059C135.973 198.455 136.233 192.576 129.623 189.097C123.014 185.618 109.517 185.355 109.517 185.355L72.22 185.628C72.22 185.628 54.7594 187.182 50.844 190.652C46.9285 194.121 34.7109 238.22 34.7109 244.897C34.7109 248.861 38.6167 268.627 41.9068 284.74C45.7475 284.718 49.507 283.621 52.768 281.572C53.1528 270.017 53.73 253.234 53.73 251.845C53.73 249.707 58.7517 236.296 58.7517 236.296C58.7517 236.296 62.7152 253.672 62.7152 255.81C62.7152 257.948 61.1279 274.273 63.2443 276.382C65.3608 278.491 72.7683 282.796 89.1707 282.261C105.573 281.727 117.743 280.386 120.917 277.179C124.092 273.972 120.388 264.089 120.119 262.758C119.849 261.426 124.352 226.413 124.352 226.413C124.352 226.413 142.053 245.169 152.635 242.496Z" fill="#7E57C2" stroke="#263238" stroke-width="0.240504" stroke-miterlimit="10"/>
<path d="M53.534 221.642L58.7289 236.345L48.0312 217.871" stroke="#263238" stroke-width="0.240504" stroke-miterlimit="10"/>
<path d="M50.6016 213.343L52.439 218.542" stroke="#263238" stroke-width="0.240504" stroke-miterlimit="10"/>
<path d="M87.2344 222.682C89.5721 227.988 93.0065 234.644 97.095 238.93" stroke="#263238" stroke-width="0.240504" stroke-miterlimit="10"/>
<path d="M83.9531 214.314C83.9531 214.314 84.6746 216.501 85.9637 219.679" stroke="#263238" stroke-width="0.240504" stroke-miterlimit="10"/>
<path d="M89.7266 232.127C89.7266 232.127 95.4987 243.789 98.3847 246.053" stroke="#263238" stroke-width="0.240504" stroke-miterlimit="10"/>
<path d="M133.383 217.988L135.576 215.928" stroke="#263238" stroke-width="0.240504" stroke-miterlimit="10"/>
<path d="M129.802 214.956L124.328 226.462L131.389 219.854" stroke="#263238" stroke-width="0.240504" stroke-miterlimit="10"/>
<path d="M154.82 221.438C154.502 219.174 144.969 210.7 144.969 210.7C144.969 210.7 154.82 214.635 157.388 218.202" stroke="#263238" stroke-width="0.240504" stroke-miterlimit="10"/>
<path d="M113.218 150.304C113.218 150.304 113.747 156.989 114.545 158.078C115.344 159.166 115.863 167.426 114.545 169.836C113.227 172.246 112.429 175.181 111.659 175.978C110.889 176.775 107.955 176.785 106.849 176.785C105.743 176.785 93.8906 176.25 93.8906 176.25L94.16 159.409C94.16 159.409 97.0845 146.834 113.218 150.304Z" fill="white" stroke="#263238" stroke-width="0.240504" stroke-miterlimit="10"/>
<path d="M92.0674 131.606C92.0674 131.606 81.2158 135.076 78.8396 144.667C76.4635 154.259 84.1307 165.24 84.1307 165.24C84.1307 165.24 86.2472 173.014 88.0942 174.598C89.9413 176.182 97.3488 174.598 99.7346 174.063C102.12 173.529 107.431 159.098 107.431 159.098C107.431 159.098 107.431 162.567 109.018 162.567C110.605 162.567 110.346 158.029 110.346 157.222C110.346 156.416 117.753 150.809 117.753 141.198C117.753 131.587 109.528 127.33 101.832 127.865C94.1357 128.399 92.0674 131.606 92.0674 131.606Z" fill="#263238" stroke="#263238" stroke-width="0.240504" stroke-miterlimit="10"/>
<path d="M114.548 184.772C114.548 184.772 112.961 179.165 112.163 178.368C111.364 177.572 106.342 174.355 98.146 173.821C89.9496 173.286 77.7801 173.558 76.7219 174.093C75.6637 174.627 75.3943 179.165 75.3943 179.165C75.3943 179.165 71.9599 182.372 71.1614 184.248C70.363 186.123 69.5741 186.91 76.9335 193.062C84.293 199.213 88.3142 201.613 95.9815 199.738C103.649 197.862 114.76 186.648 114.76 186.648L114.548 184.772Z" fill="#7E57C2" stroke="#263238" stroke-width="0.240504" stroke-miterlimit="10"/>
<path d="M95.625 188.562C100.832 186.765 105.842 184.43 110.575 181.595" stroke="#263238" stroke-width="0.240504" stroke-miterlimit="10"/>
<path d="M75.3906 180.234C75.3906 180.234 80.2007 189.855 88.6184 189.855C89.7657 189.841 90.9092 189.717 92.0335 189.486" stroke="#263238" stroke-width="0.240504" stroke-miterlimit="10"/>
</svg>
