<svg width="25" height="26" viewBox="0 0 25 26" fill="none" xmlns="http://www.w3.org/2000/svg">
<path d="M7.05783 2.90625C7.63585 2.90625 8.20821 3.0201 8.74224 3.2413C9.27626 3.4625 9.76149 3.78672 10.1702 4.19544C10.5789 4.60417 10.9031 5.08939 11.1243 5.62341C11.3455 6.15744 11.4594 6.7298 11.4594 7.30782V11.7094H7.05783C5.89046 11.7094 4.7709 11.2457 3.94544 10.4202C3.11999 9.59475 2.65625 8.47519 2.65625 7.30782C2.65625 6.14045 3.11999 5.0209 3.94544 4.19544C4.7709 3.36999 5.89046 2.90625 7.05783 2.90625ZM9.38807 9.63807V7.30782C9.38807 6.84695 9.2514 6.39642 8.99535 6.01321C8.7393 5.63 8.37537 5.33133 7.94957 5.15496C7.52378 4.97859 7.05524 4.93244 6.60322 5.02235C6.15119 5.11227 5.73598 5.3342 5.41009 5.66009C5.0842 5.98598 4.86227 6.40119 4.77236 6.85322C4.68244 7.30524 4.72859 7.77377 4.90496 8.19957C5.08133 8.62537 5.38 8.9893 5.76321 9.24535C6.14642 9.5014 6.59695 9.63807 7.05783 9.63807H9.38807ZM7.05783 13.7807H11.4594V18.1823C11.4594 19.0528 11.2013 19.9038 10.7176 20.6277C10.2339 21.3515 9.54652 21.9157 8.74224 22.2488C7.93795 22.582 7.05294 22.6691 6.19912 22.4993C5.3453 22.3295 4.56101 21.9103 3.94544 21.2947C3.32987 20.6791 2.91066 19.8948 2.74083 19.041C2.57099 18.1872 2.65816 17.3022 2.9913 16.4979C3.32445 15.6936 3.88861 15.0062 4.61244 14.5225C5.33628 14.0389 6.18728 13.7807 7.05783 13.7807ZM7.05783 15.8521C6.59695 15.8521 6.14642 15.9887 5.76321 16.2448C5.38 16.5008 5.08133 16.8648 4.90496 17.2906C4.72859 17.7164 4.68244 18.1849 4.77236 18.6369C4.86227 19.0889 5.0842 19.5041 5.41009 19.83C5.73598 20.1559 6.15119 20.3779 6.60322 20.4678C7.05524 20.5577 7.52378 20.5115 7.94957 20.3352C8.37537 20.1588 8.7393 19.8601 8.99535 19.4769C9.2514 19.0937 9.38807 18.6432 9.38807 18.1823V15.8521H7.05783ZM17.9323 2.90625C19.0997 2.90625 20.2192 3.36999 21.0447 4.19544C21.8701 5.0209 22.3339 6.14045 22.3339 7.30782C22.3339 8.47519 21.8701 9.59475 21.0447 10.4202C20.2192 11.2457 19.0997 11.7094 17.9323 11.7094H13.5307V7.30782C13.5307 6.14045 13.9945 5.0209 14.8199 4.19544C15.6454 3.36999 16.7649 2.90625 17.9323 2.90625ZM17.9323 9.63807C18.3932 9.63807 18.8437 9.5014 19.2269 9.24535C19.6101 8.9893 19.9088 8.62537 20.0852 8.19957C20.2615 7.77377 20.3077 7.30524 20.2178 6.85322C20.1279 6.40119 19.9059 5.98598 19.58 5.66009C19.2541 5.3342 18.8389 5.11227 18.3869 5.02235C17.9349 4.93244 17.4664 4.97859 17.0406 5.15496C16.6148 5.33133 16.2508 5.63 15.9948 6.01321C15.7387 6.39642 15.6021 6.84695 15.6021 7.30782V9.63807H17.9323ZM13.5307 13.7807H17.9323C18.8029 13.7807 19.6539 14.0389 20.3777 14.5225C21.1015 15.0062 21.6657 15.6936 21.9988 16.4979C22.332 17.3022 22.4191 18.1872 22.2493 19.041C22.0795 19.8948 21.6603 20.6791 21.0447 21.2947C20.4291 21.9103 19.6448 22.3295 18.791 22.4993C17.9372 22.6691 17.0522 22.582 16.2479 22.2488C15.4436 21.9157 14.7562 21.3515 14.2725 20.6277C13.7889 19.9038 13.5307 19.0528 13.5307 18.1823V13.7807ZM15.6021 15.8521V18.1823C15.6021 18.6432 15.7387 19.0937 15.9948 19.4769C16.2508 19.8601 16.6148 20.1588 17.0406 20.3352C17.4664 20.5115 17.9349 20.5577 18.3869 20.4678C18.8389 20.3779 19.2541 20.1559 19.58 19.83C19.9059 19.5041 20.1279 19.0889 20.2178 18.6369C20.3077 18.1849 20.2615 17.7164 20.0852 17.2906C19.9088 16.8648 19.6101 16.5008 19.2269 16.2448C18.8437 15.9887 18.3932 15.8521 17.9323 15.8521H15.6021Z" fill="#2E2E2E"/>
</svg>
